# 3ds Max Wavefront OBJ Exporter v0.97b - (c)2007 guruware
# File Created: 24.11.2019 19:40:01

#
# object ground_inset
#

v  5.8605 -2.0000 5.5000
v  5.8605 -2.0000 4.0000
v  8.1395 -2.0000 4.0000
v  8.1395 -2.0000 5.5000
v  0.0000 -1.3333 5.5000
v  0.0000 -0.6667 5.5000
v  0.0000 -0.6667 4.0000
v  0.0000 -1.3333 4.0000
v  14.0000 -1.3333 4.0000
v  14.0000 -0.6667 4.0000
v  14.0000 -0.6667 5.5000
v  14.0000 -1.3333 5.5000
v  5.8605 -0.0000 -0.0000
v  5.8605 -0.0000 1.0000
v  8.1395 -0.0000 1.0000
v  8.1395 -0.0000 -0.0000
v  5.8605 -2.0000 7.0000
v  5.8605 -2.0000 6.6321
v  8.1395 -2.0000 6.6321
v  8.1395 -2.0000 7.0000
v  8.1395 -2.0000 -0.0000
v  8.1395 -2.0000 1.0000
v  5.8605 -2.0000 1.0000
v  5.8605 -2.0000 -0.0000
v  8.1395 -2.0000 2.5000
v  5.8605 -2.0000 2.5000
v  0.0000 -1.3333 7.0000
v  0.0000 -0.6667 7.0000
v  0.0000 -0.6667 6.6321
v  0.0000 -1.3333 6.6321
v  0.0000 -0.6667 1.3750
v  0.0000 -1.3333 1.3750
v  0.0000 -1.3333 2.5000
v  0.0000 -0.6667 2.5000
v  14.0000 -1.3333 1.3750
v  14.0000 -0.6667 1.3750
v  14.0000 -0.6667 2.5000
v  14.0000 -1.3333 2.5000
v  14.0000 -0.6667 7.0000
v  14.0000 -1.3333 7.0000
v  14.0000 -1.3333 6.6321
v  14.0000 -0.6667 6.6321
v  1.3026 -0.0000 4.0000
v  1.0000 -0.0000 4.0000
v  1.0000 -0.0000 5.5000
v  1.3026 -0.0000 5.5000
v  3.5816 -0.0000 4.0000
v  3.5816 -0.0000 5.5000
v  12.6974 -0.0000 5.5000
v  13.0000 -0.0000 5.5000
v  13.0000 -0.0000 4.0000
v  12.6974 -0.0000 4.0000
v  10.4184 -0.0000 5.5000
v  10.4184 -0.0000 4.0000
v  1.3026 -2.0000 5.5000
v  1.0000 -2.0000 5.5000
v  1.0000 -2.0000 4.0000
v  1.3026 -2.0000 4.0000
v  5.1831 -2.0000 5.5000
v  5.1831 -2.0000 4.0000
v  12.6974 -2.0000 4.0000
v  13.0000 -2.0000 4.0000
v  13.0000 -2.0000 5.5000
v  12.6974 -2.0000 5.5000
v  8.8169 -2.0000 4.0000
v  8.8169 -2.0000 5.5000
v  1.0000 -0.6667 7.0000
v  1.0000 -1.3333 7.0000
v  1.3026 -1.3333 7.0000
v  1.3026 -0.6667 7.0000
v  5.1831 -1.3333 7.0000
v  5.1831 -0.6667 7.0000
v  5.8605 -0.8929 7.0000
v  5.8605 -0.6667 7.0000
v  13.0000 -1.3333 7.0000
v  13.0000 -0.6667 7.0000
v  12.6974 -0.6667 7.0000
v  12.6974 -1.3333 7.0000
v  8.8169 -0.6667 7.0000
v  8.8169 -1.3333 7.0000
v  8.1395 -0.6667 7.0000
v  8.1395 -0.8929 7.0000
v  1.3026 -0.0000 -0.0000
v  1.0000 -0.0000 -0.0000
v  1.0000 -0.0000 1.0000
v  1.3026 -0.0000 1.0000
v  3.5816 -0.0000 -0.0000
v  3.5816 -0.0000 1.0000
v  12.6974 -0.0000 2.5000
v  13.0000 -0.0000 2.5000
v  13.0000 -0.0000 1.3750
v  12.6974 -0.0000 1.3750
v  10.4184 -0.0000 2.5000
v  10.4184 -0.0000 1.3750
v  1.3026 -0.0000 2.5000
v  1.0000 -0.0000 2.5000
v  3.5816 -0.0000 2.5000
v  12.6974 -0.0000 7.0000
v  13.0000 -0.0000 7.0000
v  13.0000 -0.0000 6.6321
v  12.6974 -0.0000 6.6321
v  10.4184 -0.0000 7.0000
v  10.4184 -0.0000 6.6321
v  1.3026 -0.0000 6.6321
v  1.0000 -0.0000 6.6321
v  1.0000 -0.0000 7.0000
v  1.3026 -0.0000 7.0000
v  3.5816 -0.0000 6.6321
v  3.5816 -0.0000 7.0000
v  1.3026 -2.0000 7.0000
v  1.0000 -2.0000 7.0000
v  1.0000 -2.0000 6.6321
v  1.3026 -2.0000 6.6321
v  5.1831 -2.0000 7.0000
v  5.1831 -2.0000 6.6321
v  12.6974 -2.0000 6.6321
v  13.0000 -2.0000 6.6321
v  13.0000 -2.0000 7.0000
v  12.6974 -2.0000 7.0000
v  8.8169 -2.0000 6.6321
v  8.8169 -2.0000 7.0000
v  12.6974 -2.0000 -0.0000
v  13.0000 -2.0000 -0.0000
v  13.0000 -2.0000 1.0000
v  12.6974 -2.0000 1.0000
v  8.8169 -2.0000 -0.0000
v  8.8169 -2.0000 1.0000
v  1.3026 -2.0000 2.5000
v  1.0000 -2.0000 2.5000
v  1.0000 -2.0000 1.3750
v  1.3026 -2.0000 1.3750
v  5.1831 -2.0000 2.5000
v  5.1831 -2.0000 1.3750
v  5.8605 -2.0000 1.3750
v  12.6974 -2.0000 2.5000
v  13.0000 -2.0000 2.5000
v  8.8169 -2.0000 2.5000
v  0.0000 -0.0000 4.0000
v  0.0000 -0.0000 5.5000
v  0.0000 -2.0000 5.5000
v  0.0000 -2.0000 4.0000
v  0.0000 -0.0000 -0.0000
v  0.0000 -0.0000 1.0000
v  0.0000 -0.0000 2.5000
v  0.0000 -0.0000 6.6321
v  0.0000 -0.0000 7.0000
v  0.0000 -2.0000 7.0000
v  0.0000 -2.0000 6.6321
v  0.0000 -2.0000 2.5000
v  0.0000 -2.0000 1.3750
v  14.0000 -0.0000 5.5000
v  14.0000 -0.0000 4.0000
v  14.0000 -2.0000 4.0000
v  14.0000 -2.0000 5.5000
v  14.0000 -0.0000 2.5000
v  14.0000 -0.0000 1.3750
v  14.0000 -0.0000 7.0000
v  14.0000 -0.0000 6.6321
v  14.0000 -2.0000 6.6321
v  14.0000 -2.0000 7.0000
v  14.0000 -2.0000 -0.0000
v  14.0000 -2.0000 1.0000
v  14.0000 -2.0000 2.5000
v  8.1395 -0.0000 1.3750
v  5.8605 -0.0000 1.3750
v  8.1395 -2.0000 1.3750
v  0.0000 -0.6667 -0.0000
v  0.0000 -1.3333 -0.0000
v  0.0000 -1.3333 1.0000
v  0.0000 -0.6667 1.0000
v  14.0000 -1.3333 -0.0000
v  14.0000 -0.6667 -0.0000
v  14.0000 -0.6667 1.0000
v  14.0000 -1.3333 1.0000
v  1.0000 -0.0000 1.3750
v  1.3026 -0.0000 1.3750
v  3.5816 -0.0000 1.3750
v  13.0000 -0.0000 1.0000
v  13.0000 -0.0000 -0.0000
v  12.6974 -0.0000 -0.0000
v  12.6974 -0.0000 1.0000
v  10.4184 -0.0000 -0.0000
v  10.4184 -0.0000 1.0000
v  13.0000 -2.0000 1.3750
v  12.6974 -2.0000 1.3750
v  8.8169 -2.0000 1.3750
v  1.0000 -2.0000 1.0000
v  1.0000 -2.0000 -0.0000
v  1.3026 -2.0000 -0.0000
v  1.3026 -2.0000 1.0000
v  5.1831 -2.0000 -0.0000
v  5.1831 -2.0000 1.0000
v  0.0000 -0.0000 1.3750
v  0.0000 -2.0000 1.0000
v  0.0000 -2.0000 -0.0000
v  14.0000 -0.0000 1.0000
v  14.0000 -0.0000 -0.0000
v  14.0000 -2.0000 1.3750
v  5.1831 -0.6667 5.5000
v  5.1831 -0.6667 4.0000
v  8.8169 -0.6667 4.0000
v  8.8169 -0.6667 5.5000
v  8.8169 -0.6667 1.3750
v  8.8169 -0.6667 2.5000
v  5.1831 -0.6667 2.5000
v  8.8169 -0.6667 6.6321
v  5.1831 -0.6667 6.6321
v  5.1831 -0.6667 1.3750
v  8.1395 -0.6667 1.3750
v  5.8605 -0.6667 1.3750
v  8.1395 -0.6667 2.5000
v  5.8605 -0.6667 2.5000
v  8.1395 -0.6667 4.0000
v  5.8605 -0.6667 4.0000
v  8.1395 -0.6667 5.5000
v  5.8605 -0.6667 5.5000
v  8.1395 -0.6667 6.6321
v  5.8605 -0.6667 6.6321
# 218 vertices

vn 0.0000 -1.0000 -0.0000
vn -1.0000 0.0000 -0.0000
vn 1.0000 0.0000 -0.0000
vn 0.0000 1.0000 -0.0000
vn -0.0000 -0.7071 0.7071
vn 0.0000 -0.7071 0.7071
vn -0.7071 0.0000 0.7071
vn 0.7071 0.0000 0.7071
vn 0.1959 0.9806 -0.0000
vn 0.1959 0.9806 0.0000
vn -0.1959 0.9806 -0.0000
vn 0.0000 0.0000 1.0000
vn -0.0000 -0.0000 1.0000
vn 0.1287 0.6442 0.7540
vn 0.1762 0.2313 0.9568
vn 0.5773 0.5774 0.5774
vn -0.0000 0.0000 1.0000
vn -0.1287 0.6442 0.7540
vn -0.5774 0.5774 0.5774
vn -0.1762 0.2313 0.9568
vn -0.0973 0.9932 0.0636
vn -0.0000 0.7071 0.7071
vn 0.0000 0.7071 0.7071
vn -0.1462 0.7319 0.6655
vn 0.1462 0.7319 0.6655
vn -0.7071 0.7071 -0.0000
vn -0.7071 -0.7071 -0.0000
vn -0.5774 -0.5774 0.5774
vn 0.7071 0.7071 -0.0000
vn 0.7071 -0.7071 -0.0000
vn 0.5774 0.5774 0.5774
vn 0.5774 -0.5774 0.5774
vn 0.0973 0.9932 0.0636
vn -0.1959 0.9806 0.0000
vn -0.0899 0.9869 0.1342
vn 0.0899 0.9869 0.1342
# 36 vertex normals

vt 0.6961 0.4186 0.0000
vt 0.4447 0.4186 0.0000
vt 0.4447 0.5814 0.0000
vt 0.6961 0.5814 0.0000
vt 0.6961 0.6667 0.0000
vt 0.6961 0.3333 0.0000
vt 0.4447 0.3333 0.0000
vt 0.4447 0.6667 0.0000
vt 0.5553 0.6667 0.0000
vt 0.5553 0.3333 0.0000
vt 0.3039 0.3333 0.0000
vt 0.3039 0.6667 0.0000
vt 1.0000 0.4186 0.0000
vt 0.9033 0.4186 0.0000
vt 0.9033 0.5814 0.0000
vt 1.0000 0.5814 0.0000
vt 0.9474 0.4186 0.0000
vt 0.9474 0.5814 0.0000
vt 0.0000 0.5814 0.0000
vt 0.0967 0.5814 0.0000
vt 0.0967 0.4186 0.0000
vt 0.0000 0.4186 0.0000
vt 0.1933 0.5814 0.0000
vt 0.1933 0.4186 0.0000
vt 1.0000 0.6667 0.0000
vt 1.0000 0.3333 0.0000
vt 0.9474 0.3333 0.0000
vt 0.9474 0.6667 0.0000
vt 0.1208 0.3333 0.0000
vt 0.1208 0.6667 0.0000
vt 0.1933 0.6667 0.0000
vt 0.1933 0.3333 0.0000
vt 0.8792 0.6667 0.0000
vt 0.8792 0.3333 0.0000
vt 0.8067 0.3333 0.0000
vt 0.8067 0.6667 0.0000
vt 0.0000 0.3333 0.0000
vt 0.0000 0.6667 0.0000
vt 0.0526 0.6667 0.0000
vt 0.0526 0.3333 0.0000
vt 0.5553 0.0930 0.0000
vt 0.5553 0.0465 0.0000
vt 0.3039 0.0465 0.0000
vt 0.3039 0.0930 0.0000
vt 0.5553 0.2558 0.0000
vt 0.3039 0.2558 0.0000
vt 0.3039 0.9070 0.0000
vt 0.3039 0.9535 0.0000
vt 0.5553 0.9535 0.0000
vt 0.5553 0.9070 0.0000
vt 0.3039 0.7442 0.0000
vt 0.5553 0.7442 0.0000
vt 0.6961 0.0930 0.0000
vt 0.6961 0.0465 0.0000
vt 0.4447 0.0465 0.0000
vt 0.4447 0.0930 0.0000
vt 0.6961 0.2558 0.0000
vt 0.4447 0.2558 0.0000
vt 0.4447 0.9070 0.0000
vt 0.4447 0.9535 0.0000
vt 0.6961 0.9535 0.0000
vt 0.6961 0.9070 0.0000
vt 0.4447 0.7442 0.0000
vt 0.6961 0.7442 0.0000
vt 0.0465 0.3333 0.0000
vt 0.0465 0.6667 0.0000
vt 0.0930 0.6667 0.0000
vt 0.0930 0.3333 0.0000
vt 0.2558 0.6667 0.0000
vt 0.2558 0.3333 0.0000
vt 0.4186 0.4446 0.0000
vt 0.4186 0.3333 0.0000
vt 0.9535 0.6667 0.0000
vt 0.9535 0.3333 0.0000
vt 0.9070 0.3333 0.0000
vt 0.9070 0.6667 0.0000
vt 0.7442 0.3333 0.0000
vt 0.7442 0.6667 0.0000
vt 0.5814 0.3333 0.0000
vt 0.5814 0.4483 0.0000
vt 1.0000 0.0930 0.0000
vt 1.0000 0.0465 0.0000
vt 0.9033 0.0465 0.0000
vt 0.9033 0.0930 0.0000
vt 1.0000 0.2558 0.0000
vt 0.9033 0.2558 0.0000
vt 0.8067 0.9070 0.0000
vt 0.8067 0.9535 0.0000
vt 0.8792 0.9535 0.0000
vt 0.8792 0.9070 0.0000
vt 0.8067 0.7442 0.0000
vt 0.8792 0.7442 0.0000
vt 0.8067 0.0930 0.0000
vt 0.8067 0.0465 0.0000
vt 0.8067 0.2558 0.0000
vt 0.0000 0.9070 0.0000
vt 0.0000 0.9535 0.0000
vt 0.0526 0.9535 0.0000
vt 0.0526 0.9070 0.0000
vt 0.0000 0.7442 0.0000
vt 0.0526 0.7442 0.0000
vt 0.0526 0.0930 0.0000
vt 0.0526 0.0465 0.0000
vt 0.0000 0.0465 0.0000
vt 0.0000 0.0930 0.0000
vt 0.0526 0.2558 0.0000
vt 0.0000 0.2558 0.0000
vt 0.9474 0.0465 0.0000
vt 0.9474 0.0930 0.0000
vt 0.9474 0.2558 0.0000
vt 0.9474 0.9070 0.0000
vt 0.9474 0.9535 0.0000
vt 1.0000 0.9535 0.0000
vt 1.0000 0.9070 0.0000
vt 0.9474 0.7442 0.0000
vt 1.0000 0.7442 0.0000
vt 0.0967 0.9535 0.0000
vt 0.0967 0.9070 0.0000
vt 0.0967 0.7442 0.0000
vt 0.1933 0.0930 0.0000
vt 0.1933 0.0465 0.0000
vt 0.1208 0.0465 0.0000
vt 0.1208 0.0930 0.0000
vt 0.1933 0.2558 0.0000
vt 0.1208 0.2558 0.0000
vt 0.1208 0.4186 0.0000
vt 0.1933 0.9070 0.0000
vt 0.1933 0.9535 0.0000
vt 0.1933 0.7442 0.0000
vt 0.5553 0.0000 0.0000
vt 0.3039 0.0000 0.0000
vt 0.6961 0.0000 0.0000
vt 0.4447 0.0000 0.0000
vt 1.0000 0.0000 0.0000
vt 0.9033 0.0000 0.0000
vt 0.8067 0.0000 0.0000
vt 0.0526 0.0000 0.0000
vt 0.0000 0.0000 0.0000
vt 0.9474 0.0000 0.0000
vt 0.1933 0.0000 0.0000
vt 0.1208 0.0000 0.0000
vt 0.3039 1.0000 0.0000
vt 0.5553 1.0000 0.0000
vt 0.4447 1.0000 0.0000
vt 0.6961 1.0000 0.0000
vt 0.8067 1.0000 0.0000
vt 0.8792 1.0000 0.0000
vt 0.0000 1.0000 0.0000
vt 0.0526 1.0000 0.0000
vt 0.9474 1.0000 0.0000
vt 1.0000 1.0000 0.0000
vt 0.0967 1.0000 0.0000
vt 0.1933 1.0000 0.0000
vt 0.8792 0.5814 0.0000
vt 0.8792 0.4186 0.0000
vt 0.1208 0.5814 0.0000
vt 0.0967 0.6667 0.0000
vt 0.0967 0.3333 0.0000
vt 0.9033 0.3333 0.0000
vt 0.9033 0.6667 0.0000
vt 0.8792 0.0465 0.0000
vt 0.8792 0.0930 0.0000
vt 0.8792 0.2558 0.0000
vt 0.9033 0.9535 0.0000
vt 0.9033 0.9070 0.0000
vt 0.9033 0.7442 0.0000
vt 0.1208 0.9535 0.0000
vt 0.1208 0.9070 0.0000
vt 0.1208 0.7442 0.0000
vt 0.0967 0.0465 0.0000
vt 0.0967 0.0930 0.0000
vt 0.0967 0.2558 0.0000
vt 0.8792 0.0000 0.0000
vt 0.0967 0.0000 0.0000
vt 0.9033 1.0000 0.0000
vt 0.1208 1.0000 0.0000
vt 0.0465 1.0000 0.0000
vt 0.0930 1.0000 0.0000
vt 0.0930 0.0000 0.0000
vt 0.0465 0.0000 0.0000
vt 0.2558 1.0000 0.0000
vt 0.2558 0.0000 0.0000
vt 0.9535 0.0000 0.0000
vt 0.9070 0.0000 0.0000
vt 0.9070 1.0000 0.0000
vt 0.9535 1.0000 0.0000
vt 0.7442 0.0000 0.0000
vt 0.7442 1.0000 0.0000
vt 0.4186 1.0000 0.0000
vt 0.5814 1.0000 0.0000
# 190 texture coords

o ground_inset
g ground_inset
f 1/1/1 2/2/1 3/3/1 4/4/1 
f 5/5/2 6/6/2 7/7/2 8/8/2 
f 9/9/3 10/10/3 11/11/3 12/12/3 
f 13/13/4 14/14/4 15/15/4 16/16/4 
f 17/13/5 18/17/1 19/18/1 20/16/6 
f 18/17/1 1/1/1 4/4/1 19/18/1 
f 21/19/1 22/20/1 23/21/1 24/22/1 
f 25/23/1 3/3/1 2/2/1 26/24/1 
f 27/25/7 28/26/7 29/27/2 30/28/2 
f 30/28/2 29/27/2 6/6/2 5/5/2 
f 31/29/2 32/30/2 33/31/2 34/32/2 
f 34/32/2 33/31/2 8/8/2 7/7/2 
f 35/33/3 36/34/3 37/35/3 38/36/3 
f 38/36/3 37/35/3 10/10/3 9/9/3 
f 39/37/8 40/38/8 41/39/3 42/40/3 
f 42/40/3 41/39/3 12/12/3 11/11/3 
f 43/41/4 44/42/4 45/43/4 46/44/4 
f 47/45/9 43/41/4 46/44/4 48/46/10 
f 49/47/4 50/48/4 51/49/4 52/50/4 
f 53/51/11 49/47/4 52/50/4 54/52/11 
f 55/53/1 56/54/1 57/55/1 58/56/1 
f 59/57/1 55/53/1 58/56/1 60/58/1 
f 1/1/1 59/57/1 60/58/1 2/2/1 
f 61/59/1 62/60/1 63/61/1 64/62/1 
f 65/63/1 61/59/1 64/62/1 66/64/1 
f 3/3/1 65/63/1 66/64/1 4/4/1 
f 67/65/12 68/66/12 69/67/12 70/68/12 
f 70/68/12 69/67/12 71/69/13 72/70/14 
f 72/70/14 71/69/13 73/71/15 74/72/16 
f 75/73/12 76/74/12 77/75/17 78/76/17 
f 78/76/17 77/75/17 79/77/18 80/78/17 
f 79/77/18 81/79/19 82/80/20 80/78/17 
f 83/81/4 84/82/4 85/83/4 86/84/4 
f 87/85/4 83/81/4 86/84/4 88/86/4 
f 13/13/4 87/85/4 88/86/4 14/14/4 
f 89/87/4 90/88/4 91/89/4 92/90/4 
f 93/91/11 89/87/4 92/90/4 94/92/21 
f 95/93/4 96/94/4 44/42/4 43/41/4 
f 97/95/9 95/93/4 43/41/4 47/45/9 
f 52/50/4 51/49/4 90/88/4 89/87/4 
f 54/52/11 52/50/4 89/87/4 93/91/11 
f 98/96/22 99/97/23 100/98/4 101/99/4 
f 102/100/24 98/96/22 101/99/4 103/101/11 
f 104/102/4 105/103/4 106/104/23 107/105/23 
f 108/106/10 104/102/4 107/105/23 109/107/25 
f 101/99/4 100/98/4 50/48/4 49/47/4 
f 103/101/11 101/99/4 49/47/4 53/51/11 
f 46/44/4 45/43/4 105/103/4 104/102/4 
f 48/46/10 46/44/4 104/102/4 108/106/10 
f 110/81/6 111/82/6 112/108/1 113/109/1 
f 114/85/5 110/81/6 113/109/1 115/110/1 
f 17/13/5 114/85/5 115/110/1 18/17/1 
f 116/111/1 117/112/1 118/113/6 119/114/5 
f 120/115/1 116/111/1 119/114/5 121/116/5 
f 19/18/1 120/115/1 121/116/5 20/16/6 
f 113/109/1 112/108/1 56/54/1 55/53/1 
f 115/110/1 113/109/1 55/53/1 59/57/1 
f 18/17/1 115/110/1 59/57/1 1/1/1 
f 64/62/1 63/61/1 117/112/1 116/111/1 
f 66/64/1 64/62/1 116/111/1 120/115/1 
f 4/4/1 66/64/1 120/115/1 19/18/1 
f 122/96/1 123/97/1 124/117/1 125/118/1 
f 126/100/1 122/96/1 125/118/1 127/119/1 
f 21/19/1 126/100/1 127/119/1 22/20/1 
f 128/120/1 129/121/1 130/122/1 131/123/1 
f 132/124/1 128/120/1 131/123/1 133/125/1 
f 26/24/1 132/124/1 133/125/1 134/126/1 
f 135/127/1 136/128/1 62/60/1 61/59/1 
f 137/129/1 135/127/1 61/59/1 65/63/1 
f 25/23/1 137/129/1 65/63/1 3/3/1 
f 58/56/1 57/55/1 129/121/1 128/120/1 
f 60/58/1 58/56/1 128/120/1 132/124/1 
f 2/2/1 60/58/1 132/124/1 26/24/1 
f 44/42/4 138/130/26 139/131/26 45/43/4 
f 56/54/1 140/132/27 141/133/27 57/55/1 
f 28/37/7 27/38/7 68/66/12 67/65/12 
f 84/82/4 142/134/26 143/135/26 85/83/4 
f 96/94/4 144/136/26 138/130/26 44/42/4 
f 105/103/4 145/137/26 146/138/19 106/104/23 
f 45/43/4 139/131/26 145/137/26 105/103/4 
f 111/82/6 147/134/28 148/139/27 112/108/1 
f 112/108/1 148/139/27 140/132/27 56/54/1 
f 129/121/1 149/140/27 150/141/27 130/122/1 
f 57/55/1 141/133/27 149/140/27 129/121/1 
f 50/48/4 151/142/29 152/143/29 51/49/4 
f 62/60/1 153/144/30 154/145/30 63/61/1 
f 40/25/8 39/26/8 76/74/12 75/73/12 
f 90/88/4 155/146/29 156/147/29 91/89/4 
f 51/49/4 152/143/29 155/146/29 90/88/4 
f 99/97/23 157/148/31 158/149/29 100/98/4 
f 100/98/4 158/149/29 151/142/29 50/48/4 
f 117/112/1 159/150/30 160/151/32 118/113/6 
f 63/61/1 154/145/30 159/150/30 117/112/1 
f 123/97/1 161/148/30 162/152/30 124/117/1 
f 136/128/1 163/153/30 153/144/30 62/60/1 
f 164/154/22 15/15/4 14/14/4 165/155/23 
f 134/126/1 23/21/1 22/20/1 166/156/1 
f 167/37/2 168/38/2 169/157/2 170/158/2 
f 171/25/3 172/26/3 173/159/3 174/160/3 
f 85/83/4 175/161/4 176/162/4 86/84/4 
f 86/84/4 176/162/4 177/163/33 88/86/4 
f 88/86/4 177/163/33 165/155/23 14/14/4 
f 178/164/4 179/113/4 180/114/4 181/165/4 
f 181/165/4 180/114/4 182/116/4 183/166/4 
f 183/166/4 182/116/4 16/16/4 15/15/4 
f 124/117/1 184/167/1 185/168/1 125/118/1 
f 125/118/1 185/168/1 186/169/1 127/119/1 
f 127/119/1 186/169/1 166/156/1 22/20/1 
f 187/170/1 188/104/1 189/105/1 190/171/1 
f 190/171/1 189/105/1 191/107/1 192/172/1 
f 192/172/1 191/107/1 24/22/1 23/21/1 
f 143/135/26 193/173/26 175/161/4 85/83/4 
f 194/174/27 195/138/27 188/104/1 187/170/1 
f 196/175/29 197/151/29 179/113/4 178/164/4 
f 162/152/30 198/176/30 184/167/1 124/117/1 
f 170/158/2 169/157/2 32/30/2 31/29/2 
f 174/160/3 173/159/3 36/34/3 35/33/3 
f 91/89/4 178/164/4 181/165/4 92/90/4 
f 92/90/4 181/165/4 183/166/4 94/92/21 
f 94/92/21 183/166/4 15/15/4 164/154/22 
f 130/122/1 187/170/1 190/171/1 131/123/1 
f 131/123/1 190/171/1 192/172/1 133/125/1 
f 133/125/1 192/172/1 23/21/1 134/126/1 
f 150/141/27 194/174/27 187/170/1 130/122/1 
f 156/147/29 196/175/29 178/164/4 91/89/4 
f 26/24/1 134/126/1 166/156/1 25/23/1 
f 175/161/4 96/94/4 95/93/4 176/162/4 
f 176/162/4 95/93/4 97/95/9 177/163/33 
f 184/167/1 136/128/1 135/127/1 185/168/1 
f 185/168/1 135/127/1 137/129/1 186/169/1 
f 186/169/1 137/129/1 25/23/1 166/156/1 
f 193/173/26 144/136/26 96/94/4 175/161/4 
f 198/176/30 163/153/30 136/128/1 184/167/1 
f 6/6/2 139/132/26 138/133/26 7/7/2 
f 8/8/2 141/144/27 140/145/27 5/5/2 
f 10/10/3 152/130/29 151/131/29 11/11/3 
f 12/12/3 154/142/30 153/143/30 9/9/3 
f 28/26/7 146/134/19 145/139/26 29/27/2 
f 30/28/2 148/150/27 147/151/28 27/25/7 
f 29/27/2 145/139/26 139/132/26 6/6/2 
f 5/5/2 140/145/27 148/150/27 30/28/2 
f 32/30/2 150/176/27 149/153/27 33/31/2 
f 34/32/2 144/140/26 193/141/26 31/29/2 
f 33/31/2 149/153/27 141/144/27 8/8/2 
f 7/7/2 138/133/26 144/140/26 34/32/2 
f 36/34/3 156/173/29 155/136/29 37/35/3 
f 38/36/3 163/146/30 198/147/30 35/33/3 
f 37/35/3 155/136/29 152/130/29 10/10/3 
f 9/9/3 153/143/30 163/146/30 38/36/3 
f 40/38/8 160/148/32 159/149/30 41/39/3 
f 42/40/3 158/137/29 157/138/31 39/37/8 
f 41/39/3 159/149/30 154/142/30 12/12/3 
f 11/11/3 151/131/29 158/137/29 42/40/3 
f 68/66/12 111/177/6 110/178/6 69/67/12 
f 70/68/12 107/179/23 106/180/23 67/65/12 
f 69/67/12 110/178/6 114/181/5 71/69/13 
f 72/70/14 109/182/25 107/179/23 70/68/12 
f 76/74/12 99/183/23 98/184/22 77/75/17 
f 78/76/17 119/185/5 118/186/6 75/73/12 
f 77/75/17 98/184/22 102/187/24 79/77/18 
f 80/78/17 121/188/5 119/185/5 78/76/17 
f 27/38/7 147/148/28 111/177/6 68/66/12 
f 67/65/12 106/180/23 146/138/19 28/37/7 
f 39/26/8 157/134/31 99/183/23 76/74/12 
f 75/73/12 118/186/6 160/151/32 40/25/8 
f 168/38/2 195/148/27 194/152/27 169/157/2 
f 170/158/2 143/174/26 142/138/26 167/37/2 
f 172/26/3 197/134/29 196/135/29 173/159/3 
f 174/160/3 162/175/30 161/151/30 171/25/3 
f 169/157/2 194/152/27 150/176/27 32/30/2 
f 31/29/2 193/141/26 143/174/26 170/158/2 
f 173/159/3 196/135/29 156/173/29 36/34/3 
f 35/33/3 198/147/30 162/175/30 174/160/3 
f 47/45/9 48/46/10 199/46/10 200/45/9 
f 53/51/11 54/52/11 201/52/11 202/51/11 
f 93/91/11 94/92/21 203/92/24 204/91/11 
f 97/95/9 47/45/9 200/45/9 205/95/9 
f 54/52/11 93/91/11 204/91/11 201/52/11 
f 102/100/24 103/101/11 206/101/34 79/100/18 
f 108/106/10 109/107/25 72/107/14 207/106/10 
f 103/101/11 53/51/11 202/51/11 206/101/34 
f 48/46/10 108/106/10 207/106/10 199/46/10 
f 177/163/33 97/95/9 205/95/9 208/163/25 
f 94/92/21 164/154/22 209/154/23 203/92/24 
f 165/155/23 210/155/22 209/154/23 164/154/22 
f 165/155/23 177/163/33 208/163/25 210/155/22 
f 204/169/11 203/25/24 209/25/23 211/26/4 
f 210/38/22 212/37/4 211/26/4 209/25/23 
f 212/37/4 210/38/22 208/38/25 205/156/9 
f 201/161/11 204/169/11 211/26/4 213/25/4 
f 212/37/4 214/26/4 213/25/4 211/26/4 
f 214/26/4 212/37/4 205/156/9 200/167/9 
f 202/25/11 201/161/11 213/25/4 215/38/4 
f 214/26/4 216/37/4 215/38/4 213/25/4 
f 216/37/4 214/26/4 200/167/9 199/26/10 
f 206/38/34 202/25/11 215/38/4 217/28/35 
f 216/37/4 218/27/36 217/28/35 215/38/4 
f 218/27/36 216/37/4 199/26/10 207/37/10 
f 79/168/18 206/38/34 217/28/35 81/5/19 
f 74/6/16 218/27/36 207/37/10 72/155/14 
f 71/69/13 114/181/5 17/189/5 73/71/15 
f 73/71/15 17/189/5 20/190/6 82/80/20 
f 217/28/35 218/27/36 73/27/15 82/28/20 
f 73/71/15 218/27/36 74/6/16 
f 217/28/35 82/28/20 81/79/19 
f 82/80/20 20/190/6 121/188/5 80/78/17 
# 204 polygons - 2 triangles

