# 3ds Max Wavefront OBJ Exporter v0.97b - (c)2007 guruware
# File Created: 24.11.2019 19:40:57

#
# object ground_flat
#

v  8.1395 0.0000 4.0000
v  5.8605 0.0000 4.0000
v  5.8605 0.0000 5.5000
v  8.1395 0.0000 5.5000
v  8.1395 -2.0000 5.5000
v  5.8605 -2.0000 5.5000
v  5.8605 -2.0000 4.0000
v  8.1395 -2.0000 4.0000
v  0.0000 -1.3333 5.5000
v  0.0000 -0.6667 5.5000
v  0.0000 -0.6667 4.0000
v  0.0000 -1.3333 4.0000
v  5.8605 -0.6667 7.0000
v  5.8605 -1.3333 7.0000
v  8.1395 -1.3333 7.0000
v  8.1395 -0.6667 7.0000
v  14.0000 -1.3333 4.0000
v  14.0000 -0.6667 4.0000
v  14.0000 -0.6667 5.5000
v  14.0000 -1.3333 5.5000
v  8.1395 0.0000 -0.0000
v  5.8605 0.0000 -0.0000
v  5.8605 0.0000 1.0000
v  8.1395 0.0000 1.0000
v  8.1395 0.0000 2.5000
v  5.8605 0.0000 2.5000
v  5.8605 0.0000 7.0000
v  8.1395 0.0000 7.0000
v  8.1395 0.0000 6.6321
v  5.8605 0.0000 6.6321
v  8.1395 -2.0000 7.0000
v  5.8605 -2.0000 7.0000
v  5.8605 -2.0000 6.6321
v  8.1395 -2.0000 6.6321
v  5.8605 -2.0000 -0.0000
v  8.1395 -2.0000 -0.0000
v  8.1395 -2.0000 1.0000
v  5.8605 -2.0000 1.0000
v  5.8605 -2.0000 2.5000
v  8.1395 -2.0000 2.5000
v  0.0000 -1.3333 7.0000
v  0.0000 -0.6667 7.0000
v  0.0000 -0.6667 6.6321
v  0.0000 -1.3333 6.6321
v  0.0000 -0.6667 1.3750
v  0.0000 -1.3333 1.3750
v  0.0000 -1.3333 2.5000
v  0.0000 -0.6667 2.5000
v  14.0000 -1.3333 1.3750
v  14.0000 -0.6667 1.3750
v  14.0000 -0.6667 2.5000
v  14.0000 -1.3333 2.5000
v  14.0000 -0.6667 7.0000
v  14.0000 -1.3333 7.0000
v  14.0000 -1.3333 6.6321
v  14.0000 -0.6667 6.6321
v  1.3026 0.0000 4.0000
v  1.0000 0.0000 4.0000
v  1.0000 0.0000 5.5000
v  1.3026 0.0000 5.5000
v  3.5816 0.0000 4.0000
v  3.5816 0.0000 5.5000
v  12.6974 0.0000 5.5000
v  13.0000 0.0000 5.5000
v  13.0000 0.0000 4.0000
v  12.6974 0.0000 4.0000
v  10.4184 0.0000 5.5000
v  10.4184 0.0000 4.0000
v  1.3026 -2.0000 5.5000
v  1.0000 -2.0000 5.5000
v  1.0000 -2.0000 4.0000
v  1.3026 -2.0000 4.0000
v  3.5816 -2.0000 5.5000
v  3.5816 -2.0000 4.0000
v  12.6974 -2.0000 4.0000
v  13.0000 -2.0000 4.0000
v  13.0000 -2.0000 5.5000
v  12.6974 -2.0000 5.5000
v  10.4184 -2.0000 4.0000
v  10.4184 -2.0000 5.5000
v  1.0000 -0.6667 7.0000
v  1.0000 -1.3333 7.0000
v  1.3026 -1.3333 7.0000
v  1.3026 -0.6667 7.0000
v  3.5816 -1.3333 7.0000
v  3.5816 -0.6667 7.0000
v  13.0000 -1.3333 7.0000
v  13.0000 -0.6667 7.0000
v  12.6974 -0.6667 7.0000
v  12.6974 -1.3333 7.0000
v  10.4184 -0.6667 7.0000
v  10.4184 -1.3333 7.0000
v  1.3026 0.0000 -0.0000
v  1.0000 0.0000 -0.0000
v  1.0000 0.0000 1.0000
v  1.3026 0.0000 1.0000
v  3.5816 0.0000 -0.0000
v  3.5816 0.0000 1.0000
v  12.6974 0.0000 2.5000
v  13.0000 0.0000 2.5000
v  13.0000 0.0000 1.3750
v  12.6974 0.0000 1.3750
v  10.4184 0.0000 2.5000
v  10.4184 0.0000 1.3750
v  8.1395 0.0000 1.3750
v  1.3026 0.0000 2.5000
v  1.0000 0.0000 2.5000
v  3.5816 0.0000 2.5000
v  12.6974 0.0000 7.0000
v  13.0000 0.0000 7.0000
v  13.0000 0.0000 6.6321
v  12.6974 0.0000 6.6321
v  10.4184 0.0000 7.0000
v  10.4184 0.0000 6.6321
v  1.3026 0.0000 6.6321
v  1.0000 0.0000 6.6321
v  1.0000 0.0000 7.0000
v  1.3026 0.0000 7.0000
v  3.5816 0.0000 6.6321
v  3.5816 0.0000 7.0000
v  1.3026 -2.0000 7.0000
v  1.0000 -2.0000 7.0000
v  1.0000 -2.0000 6.6321
v  1.3026 -2.0000 6.6321
v  3.5816 -2.0000 7.0000
v  3.5816 -2.0000 6.6321
v  12.6974 -2.0000 6.6321
v  13.0000 -2.0000 6.6321
v  13.0000 -2.0000 7.0000
v  12.6974 -2.0000 7.0000
v  10.4184 -2.0000 6.6321
v  10.4184 -2.0000 7.0000
v  12.6974 -2.0000 -0.0000
v  13.0000 -2.0000 -0.0000
v  13.0000 -2.0000 1.0000
v  12.6974 -2.0000 1.0000
v  10.4184 -2.0000 -0.0000
v  10.4184 -2.0000 1.0000
v  1.3026 -2.0000 2.5000
v  1.0000 -2.0000 2.5000
v  1.0000 -2.0000 1.3750
v  1.3026 -2.0000 1.3750
v  3.5816 -2.0000 2.5000
v  3.5816 -2.0000 1.3750
v  5.8605 -2.0000 1.3750
v  12.6974 -2.0000 2.5000
v  13.0000 -2.0000 2.5000
v  10.4184 -2.0000 2.5000
v  0.0000 0.0000 4.0000
v  0.0000 0.0000 5.5000
v  0.0000 -2.0000 5.5000
v  0.0000 -2.0000 4.0000
v  0.0000 0.0000 -0.0000
v  0.0000 0.0000 1.0000
v  0.0000 0.0000 2.5000
v  0.0000 0.0000 6.6321
v  0.0000 0.0000 7.0000
v  0.0000 -2.0000 7.0000
v  0.0000 -2.0000 6.6321
v  0.0000 -2.0000 2.5000
v  0.0000 -2.0000 1.3750
v  14.0000 0.0000 5.5000
v  14.0000 0.0000 4.0000
v  14.0000 -2.0000 4.0000
v  14.0000 -2.0000 5.5000
v  14.0000 0.0000 2.5000
v  14.0000 0.0000 1.3750
v  14.0000 0.0000 7.0000
v  14.0000 0.0000 6.6321
v  14.0000 -2.0000 6.6321
v  14.0000 -2.0000 7.0000
v  14.0000 -2.0000 -0.0000
v  14.0000 -2.0000 1.0000
v  14.0000 -2.0000 2.5000
v  5.8605 0.0000 1.3750
v  8.1395 -2.0000 1.3750
v  0.0000 -0.6667 -0.0000
v  0.0000 -1.3333 -0.0000
v  0.0000 -1.3333 1.0000
v  0.0000 -0.6667 1.0000
v  14.0000 -1.3333 -0.0000
v  14.0000 -0.6667 -0.0000
v  14.0000 -0.6667 1.0000
v  14.0000 -1.3333 1.0000
v  1.0000 0.0000 1.3750
v  1.3026 0.0000 1.3750
v  3.5816 0.0000 1.3750
v  13.0000 0.0000 1.0000
v  13.0000 0.0000 -0.0000
v  12.6974 0.0000 -0.0000
v  12.6974 0.0000 1.0000
v  10.4184 0.0000 -0.0000
v  10.4184 0.0000 1.0000
v  13.0000 -2.0000 1.3750
v  12.6974 -2.0000 1.3750
v  10.4184 -2.0000 1.3750
v  1.0000 -2.0000 1.0000
v  1.0000 -2.0000 -0.0000
v  1.3026 -2.0000 -0.0000
v  1.3026 -2.0000 1.0000
v  3.5816 -2.0000 -0.0000
v  3.5816 -2.0000 1.0000
v  0.0000 0.0000 1.3750
v  0.0000 -2.0000 1.0000
v  0.0000 -2.0000 -0.0000
v  14.0000 0.0000 1.0000
v  14.0000 0.0000 -0.0000
v  14.0000 -2.0000 1.3750
# 208 vertices

vn 0.0000 1.0000 -0.0000
vn 0.0000 -1.0000 -0.0000
vn -1.0000 0.0000 -0.0000
vn 0.0000 0.0000 1.0000
vn 1.0000 0.0000 -0.0000
vn 0.0000 0.7071 0.7071
vn 0.0000 -0.7071 0.7071
vn -0.7071 0.0000 0.7071
vn 0.7071 0.0000 0.7071
vn -0.0000 0.0000 1.0000
vn -0.0000 0.7071 0.7071
vn -0.0000 -0.7071 0.7071
vn -0.7071 0.7071 -0.0000
vn -0.7071 -0.7071 -0.0000
vn -0.5774 0.5774 0.5774
vn -0.5774 -0.5774 0.5774
vn 0.7071 0.7071 -0.0000
vn 0.7071 -0.7071 -0.0000
vn 0.5774 0.5774 0.5774
vn 0.5774 -0.5774 0.5774
# 20 vertex normals

vt 0.5553 0.5814 0.0000
vt 0.5553 0.4186 0.0000
vt 0.3039 0.4186 0.0000
vt 0.3039 0.5814 0.0000
vt 0.6961 0.5814 0.0000
vt 0.6961 0.4186 0.0000
vt 0.4447 0.4186 0.0000
vt 0.4447 0.5814 0.0000
vt 0.6961 0.6667 0.0000
vt 0.6961 0.3333 0.0000
vt 0.4447 0.3333 0.0000
vt 0.4447 0.6667 0.0000
vt 0.4186 0.3333 0.0000
vt 0.4186 0.6667 0.0000
vt 0.5814 0.6667 0.0000
vt 0.5814 0.3333 0.0000
vt 0.5553 0.6667 0.0000
vt 0.5553 0.3333 0.0000
vt 0.3039 0.3333 0.0000
vt 0.3039 0.6667 0.0000
vt 1.0000 0.5814 0.0000
vt 1.0000 0.4186 0.0000
vt 0.9033 0.4186 0.0000
vt 0.9033 0.5814 0.0000
vt 0.8067 0.5814 0.0000
vt 0.8067 0.4186 0.0000
vt 0.0000 0.4186 0.0000
vt 0.0000 0.5814 0.0000
vt 0.0526 0.5814 0.0000
vt 0.0526 0.4186 0.0000
vt 0.9474 0.4186 0.0000
vt 0.9474 0.5814 0.0000
vt 0.0967 0.5814 0.0000
vt 0.0967 0.4186 0.0000
vt 0.1933 0.4186 0.0000
vt 0.1933 0.5814 0.0000
vt 1.0000 0.6667 0.0000
vt 1.0000 0.3333 0.0000
vt 0.9474 0.3333 0.0000
vt 0.9474 0.6667 0.0000
vt 0.1208 0.3333 0.0000
vt 0.1208 0.6667 0.0000
vt 0.1933 0.6667 0.0000
vt 0.1933 0.3333 0.0000
vt 0.8792 0.6667 0.0000
vt 0.8792 0.3333 0.0000
vt 0.8067 0.3333 0.0000
vt 0.8067 0.6667 0.0000
vt 0.0000 0.3333 0.0000
vt 0.0000 0.6667 0.0000
vt 0.0526 0.6667 0.0000
vt 0.0526 0.3333 0.0000
vt 0.5553 0.0930 0.0000
vt 0.5553 0.0465 0.0000
vt 0.3039 0.0465 0.0000
vt 0.3039 0.0930 0.0000
vt 0.5553 0.2558 0.0000
vt 0.3039 0.2558 0.0000
vt 0.3039 0.9070 0.0000
vt 0.3039 0.9535 0.0000
vt 0.5553 0.9535 0.0000
vt 0.5553 0.9070 0.0000
vt 0.3039 0.7442 0.0000
vt 0.5553 0.7442 0.0000
vt 0.6961 0.0930 0.0000
vt 0.6961 0.0465 0.0000
vt 0.4447 0.0465 0.0000
vt 0.4447 0.0930 0.0000
vt 0.6961 0.2558 0.0000
vt 0.4447 0.2558 0.0000
vt 0.4447 0.9070 0.0000
vt 0.4447 0.9535 0.0000
vt 0.6961 0.9535 0.0000
vt 0.6961 0.9070 0.0000
vt 0.4447 0.7442 0.0000
vt 0.6961 0.7442 0.0000
vt 0.0465 0.3333 0.0000
vt 0.0465 0.6667 0.0000
vt 0.0930 0.6667 0.0000
vt 0.0930 0.3333 0.0000
vt 0.2558 0.6667 0.0000
vt 0.2558 0.3333 0.0000
vt 0.9535 0.6667 0.0000
vt 0.9535 0.3333 0.0000
vt 0.9070 0.3333 0.0000
vt 0.9070 0.6667 0.0000
vt 0.7442 0.3333 0.0000
vt 0.7442 0.6667 0.0000
vt 1.0000 0.0930 0.0000
vt 1.0000 0.0465 0.0000
vt 0.9033 0.0465 0.0000
vt 0.9033 0.0930 0.0000
vt 1.0000 0.2558 0.0000
vt 0.9033 0.2558 0.0000
vt 0.8067 0.9070 0.0000
vt 0.8067 0.9535 0.0000
vt 0.8792 0.9535 0.0000
vt 0.8792 0.9070 0.0000
vt 0.8067 0.7442 0.0000
vt 0.8792 0.7442 0.0000
vt 0.8792 0.5814 0.0000
vt 0.8067 0.0930 0.0000
vt 0.8067 0.0465 0.0000
vt 0.8067 0.2558 0.0000
vt 0.0000 0.9070 0.0000
vt 0.0000 0.9535 0.0000
vt 0.0526 0.9535 0.0000
vt 0.0526 0.9070 0.0000
vt 0.0000 0.7442 0.0000
vt 0.0526 0.7442 0.0000
vt 0.0526 0.0930 0.0000
vt 0.0526 0.0465 0.0000
vt 0.0000 0.0465 0.0000
vt 0.0000 0.0930 0.0000
vt 0.0526 0.2558 0.0000
vt 0.0000 0.2558 0.0000
vt 0.9474 0.0465 0.0000
vt 0.9474 0.0930 0.0000
vt 0.9474 0.2558 0.0000
vt 0.9474 0.9070 0.0000
vt 0.9474 0.9535 0.0000
vt 1.0000 0.9535 0.0000
vt 1.0000 0.9070 0.0000
vt 0.9474 0.7442 0.0000
vt 1.0000 0.7442 0.0000
vt 0.0967 0.9535 0.0000
vt 0.0967 0.9070 0.0000
vt 0.0967 0.7442 0.0000
vt 0.1933 0.0930 0.0000
vt 0.1933 0.0465 0.0000
vt 0.1208 0.0465 0.0000
vt 0.1208 0.0930 0.0000
vt 0.1933 0.2558 0.0000
vt 0.1208 0.2558 0.0000
vt 0.1208 0.4186 0.0000
vt 0.1933 0.9070 0.0000
vt 0.1933 0.9535 0.0000
vt 0.1933 0.7442 0.0000
vt 0.5553 0.0000 0.0000
vt 0.3039 0.0000 0.0000
vt 0.6961 0.0000 0.0000
vt 0.4447 0.0000 0.0000
vt 1.0000 0.0000 0.0000
vt 0.9033 0.0000 0.0000
vt 0.8067 0.0000 0.0000
vt 0.0526 0.0000 0.0000
vt 0.0000 0.0000 0.0000
vt 0.9474 0.0000 0.0000
vt 0.1933 0.0000 0.0000
vt 0.1208 0.0000 0.0000
vt 0.3039 1.0000 0.0000
vt 0.5553 1.0000 0.0000
vt 0.4447 1.0000 0.0000
vt 0.6961 1.0000 0.0000
vt 0.8067 1.0000 0.0000
vt 0.8792 1.0000 0.0000
vt 0.0000 1.0000 0.0000
vt 0.0526 1.0000 0.0000
vt 0.9474 1.0000 0.0000
vt 1.0000 1.0000 0.0000
vt 0.0967 1.0000 0.0000
vt 0.1933 1.0000 0.0000
vt 0.8792 0.4186 0.0000
vt 0.1208 0.5814 0.0000
vt 0.0967 0.6667 0.0000
vt 0.0967 0.3333 0.0000
vt 0.9033 0.3333 0.0000
vt 0.9033 0.6667 0.0000
vt 0.8792 0.0465 0.0000
vt 0.8792 0.0930 0.0000
vt 0.8792 0.2558 0.0000
vt 0.9033 0.9535 0.0000
vt 0.9033 0.9070 0.0000
vt 0.9033 0.7442 0.0000
vt 0.1208 0.9535 0.0000
vt 0.1208 0.9070 0.0000
vt 0.1208 0.7442 0.0000
vt 0.0967 0.0465 0.0000
vt 0.0967 0.0930 0.0000
vt 0.0967 0.2558 0.0000
vt 0.8792 0.0000 0.0000
vt 0.0967 0.0000 0.0000
vt 0.9033 1.0000 0.0000
vt 0.1208 1.0000 0.0000
vt 0.4186 1.0000 0.0000
vt 0.5814 1.0000 0.0000
vt 0.5814 0.0000 0.0000
vt 0.4186 0.0000 0.0000
vt 0.0465 1.0000 0.0000
vt 0.0930 1.0000 0.0000
vt 0.0930 0.0000 0.0000
vt 0.0465 0.0000 0.0000
vt 0.2558 1.0000 0.0000
vt 0.2558 0.0000 0.0000
vt 0.9535 0.0000 0.0000
vt 0.9070 0.0000 0.0000
vt 0.9070 1.0000 0.0000
vt 0.9535 1.0000 0.0000
vt 0.7442 0.0000 0.0000
vt 0.7442 1.0000 0.0000
# 200 texture coords

o ground_flat
g ground_flat
f 1/1/1 2/2/1 3/3/1 4/4/1 
f 5/5/2 6/6/2 7/7/2 8/8/2 
f 9/9/3 10/10/3 11/11/3 12/12/3 
f 13/13/4 14/14/4 15/15/4 16/16/4 
f 17/17/5 18/18/5 19/19/5 20/20/5 
f 21/21/1 22/22/1 23/23/1 24/24/1 
f 25/25/1 26/26/1 2/2/1 1/1/1 
f 27/27/6 28/28/6 29/29/1 30/30/1 
f 30/30/1 29/29/1 4/4/1 3/3/1 
f 31/21/7 32/22/7 33/31/2 34/32/2 
f 34/32/2 33/31/2 6/6/2 5/5/2 
f 35/27/2 36/28/2 37/33/2 38/34/2 
f 39/35/2 40/36/2 8/8/2 7/7/2 
f 41/37/8 42/38/8 43/39/3 44/40/3 
f 44/40/3 43/39/3 10/10/3 9/9/3 
f 45/41/3 46/42/3 47/43/3 48/44/3 
f 48/44/3 47/43/3 12/12/3 11/11/3 
f 49/45/5 50/46/5 51/47/5 52/48/5 
f 52/48/5 51/47/5 18/18/5 17/17/5 
f 53/49/9 54/50/9 55/51/5 56/52/5 
f 56/52/5 55/51/5 20/20/5 19/19/5 
f 57/53/1 58/54/1 59/55/1 60/56/1 
f 61/57/1 57/53/1 60/56/1 62/58/1 
f 2/2/1 61/57/1 62/58/1 3/3/1 
f 63/59/1 64/60/1 65/61/1 66/62/1 
f 67/63/1 63/59/1 66/62/1 68/64/1 
f 4/4/1 67/63/1 68/64/1 1/1/1 
f 69/65/2 70/66/2 71/67/2 72/68/2 
f 73/69/2 69/65/2 72/68/2 74/70/2 
f 6/6/2 73/69/2 74/70/2 7/7/2 
f 75/71/2 76/72/2 77/73/2 78/74/2 
f 79/75/2 75/71/2 78/74/2 80/76/2 
f 8/8/2 79/75/2 80/76/2 5/5/2 
f 81/77/4 82/78/4 83/79/4 84/80/4 
f 84/80/4 83/79/4 85/81/4 86/82/4 
f 86/82/4 85/81/4 14/14/4 13/13/4 
f 87/83/4 88/84/4 89/85/10 90/86/10 
f 90/86/10 89/85/10 91/87/10 92/88/10 
f 92/88/10 91/87/10 16/16/4 15/15/4 
f 93/89/1 94/90/1 95/91/1 96/92/1 
f 97/93/1 93/89/1 96/92/1 98/94/1 
f 22/22/1 97/93/1 98/94/1 23/23/1 
f 99/95/1 100/96/1 101/97/1 102/98/1 
f 103/99/1 99/95/1 102/98/1 104/100/1 
f 25/25/1 103/99/1 104/100/1 105/101/1 
f 106/102/1 107/103/1 58/54/1 57/53/1 
f 108/104/1 106/102/1 57/53/1 61/57/1 
f 26/26/1 108/104/1 61/57/1 2/2/1 
f 66/62/1 65/61/1 100/96/1 99/95/1 
f 68/64/1 66/62/1 99/95/1 103/99/1 
f 1/1/1 68/64/1 103/99/1 25/25/1 
f 109/105/11 110/106/6 111/107/1 112/108/1 
f 113/109/11 109/105/11 112/108/1 114/110/1 
f 28/28/6 113/109/11 114/110/1 29/29/1 
f 115/111/1 116/112/1 117/113/6 118/114/6 
f 119/115/1 115/111/1 118/114/6 120/116/6 
f 30/30/1 119/115/1 120/116/6 27/27/6 
f 112/108/1 111/107/1 64/60/1 63/59/1 
f 114/110/1 112/108/1 63/59/1 67/63/1 
f 29/29/1 114/110/1 67/63/1 4/4/1 
f 60/56/1 59/55/1 116/112/1 115/111/1 
f 62/58/1 60/56/1 115/111/1 119/115/1 
f 3/3/1 62/58/1 119/115/1 30/30/1 
f 121/89/7 122/90/7 123/117/2 124/118/2 
f 125/93/7 121/89/7 124/118/2 126/119/2 
f 32/22/7 125/93/7 126/119/2 33/31/2 
f 127/120/2 128/121/2 129/122/7 130/123/12 
f 131/124/2 127/120/2 130/123/12 132/125/12 
f 34/32/2 131/124/2 132/125/12 31/21/7 
f 124/118/2 123/117/2 70/66/2 69/65/2 
f 126/119/2 124/118/2 69/65/2 73/69/2 
f 33/31/2 126/119/2 73/69/2 6/6/2 
f 78/74/2 77/73/2 128/121/2 127/120/2 
f 80/76/2 78/74/2 127/120/2 131/124/2 
f 5/5/2 80/76/2 131/124/2 34/32/2 
f 133/105/2 134/106/2 135/126/2 136/127/2 
f 137/109/2 133/105/2 136/127/2 138/128/2 
f 36/28/2 137/109/2 138/128/2 37/33/2 
f 139/129/2 140/130/2 141/131/2 142/132/2 
f 143/133/2 139/129/2 142/132/2 144/134/2 
f 39/35/2 143/133/2 144/134/2 145/135/2 
f 146/136/2 147/137/2 76/72/2 75/71/2 
f 148/138/2 146/136/2 75/71/2 79/75/2 
f 40/36/2 148/138/2 79/75/2 8/8/2 
f 72/68/2 71/67/2 140/130/2 139/129/2 
f 74/70/2 72/68/2 139/129/2 143/133/2 
f 7/7/2 74/70/2 143/133/2 39/35/2 
f 58/54/1 149/139/13 150/140/13 59/55/1 
f 70/66/2 151/141/14 152/142/14 71/67/2 
f 42/49/8 41/50/8 82/78/4 81/77/4 
f 94/90/1 153/143/13 154/144/13 95/91/1 
f 107/103/1 155/145/13 149/139/13 58/54/1 
f 116/112/1 156/146/13 157/147/15 117/113/6 
f 59/55/1 150/140/13 156/146/13 116/112/1 
f 122/90/7 158/143/16 159/148/14 123/117/2 
f 123/117/2 159/148/14 151/141/14 70/66/2 
f 140/130/2 160/149/14 161/150/14 141/131/2 
f 71/67/2 152/142/14 160/149/14 140/130/2 
f 64/60/1 162/151/17 163/152/17 65/61/1 
f 76/72/2 164/153/18 165/154/18 77/73/2 
f 54/37/9 53/38/9 88/84/4 87/83/4 
f 100/96/1 166/155/17 167/156/17 101/97/1 
f 65/61/1 163/152/17 166/155/17 100/96/1 
f 110/106/6 168/157/19 169/158/17 111/107/1 
f 111/107/1 169/158/17 162/151/17 64/60/1 
f 128/121/2 170/159/18 171/160/20 129/122/7 
f 77/73/2 165/154/18 170/159/18 128/121/2 
f 134/106/2 172/157/18 173/161/18 135/126/2 
f 147/137/2 174/162/18 164/153/18 76/72/2 
f 23/23/1 175/163/1 105/101/1 24/24/1 
f 37/33/2 176/164/2 145/135/2 38/34/2 
f 177/49/3 178/50/3 179/165/3 180/166/3 
f 181/37/5 182/38/5 183/167/5 184/168/5 
f 95/91/1 185/169/1 186/170/1 96/92/1 
f 96/92/1 186/170/1 187/171/1 98/94/1 
f 98/94/1 187/171/1 175/163/1 23/23/1 
f 188/172/1 189/122/1 190/123/1 191/173/1 
f 191/173/1 190/123/1 192/125/1 193/174/1 
f 193/174/1 192/125/1 21/21/1 24/24/1 
f 135/126/2 194/175/2 195/176/2 136/127/2 
f 136/127/2 195/176/2 196/177/2 138/128/2 
f 138/128/2 196/177/2 176/164/2 37/33/2 
f 197/178/2 198/113/2 199/114/2 200/179/2 
f 200/179/2 199/114/2 201/116/2 202/180/2 
f 202/180/2 201/116/2 35/27/2 38/34/2 
f 154/144/13 203/181/13 185/169/1 95/91/1 
f 204/182/14 205/147/14 198/113/2 197/178/2 
f 206/183/17 207/160/17 189/122/1 188/172/1 
f 173/161/18 208/184/18 194/175/2 135/126/2 
f 180/166/3 179/165/3 46/42/3 45/41/3 
f 184/168/5 183/167/5 50/46/5 49/45/5 
f 101/97/1 188/172/1 191/173/1 102/98/1 
f 102/98/1 191/173/1 193/174/1 104/100/1 
f 104/100/1 193/174/1 24/24/1 105/101/1 
f 141/131/2 197/178/2 200/179/2 142/132/2 
f 142/132/2 200/179/2 202/180/2 144/134/2 
f 144/134/2 202/180/2 38/34/2 145/135/2 
f 161/150/14 204/182/14 197/178/2 141/131/2 
f 167/156/17 206/183/17 188/172/1 101/97/1 
f 175/163/1 26/26/1 25/25/1 105/101/1 
f 176/164/2 40/36/2 39/35/2 145/135/2 
f 185/169/1 107/103/1 106/102/1 186/170/1 
f 186/170/1 106/102/1 108/104/1 187/171/1 
f 187/171/1 108/104/1 26/26/1 175/163/1 
f 194/175/2 147/137/2 146/136/2 195/176/2 
f 195/176/2 146/136/2 148/138/2 196/177/2 
f 196/177/2 148/138/2 40/36/2 176/164/2 
f 203/181/13 155/145/13 107/103/1 185/169/1 
f 208/184/18 174/162/18 147/137/2 194/175/2 
f 10/10/3 150/141/13 149/142/13 11/11/3 
f 12/12/3 152/153/14 151/154/14 9/9/3 
f 14/14/4 32/185/7 31/186/7 15/15/4 
f 16/16/4 28/187/6 27/188/6 13/13/4 
f 18/18/5 163/139/17 162/140/17 19/19/5 
f 20/20/5 165/151/18 164/152/18 17/17/5 
f 42/38/8 157/143/15 156/148/13 43/39/3 
f 44/40/3 159/159/14 158/160/16 41/37/8 
f 43/39/3 156/148/13 150/141/13 10/10/3 
f 9/9/3 151/154/14 159/159/14 44/40/3 
f 46/42/3 161/184/14 160/162/14 47/43/3 
f 48/44/3 155/149/13 203/150/13 45/41/3 
f 47/43/3 160/162/14 152/153/14 12/12/3 
f 11/11/3 149/142/13 155/149/13 48/44/3 
f 50/46/5 167/181/17 166/145/17 51/47/5 
f 52/48/5 174/155/18 208/156/18 49/45/5 
f 51/47/5 166/145/17 163/139/17 18/18/5 
f 17/17/5 164/152/18 174/155/18 52/48/5 
f 54/50/9 171/157/20 170/158/18 55/51/5 
f 56/52/5 169/146/17 168/147/19 53/49/9 
f 55/51/5 170/158/18 165/151/18 20/20/5 
f 19/19/5 162/140/17 169/146/17 56/52/5 
f 82/78/4 122/189/7 121/190/7 83/79/4 
f 84/80/4 118/191/6 117/192/6 81/77/4 
f 83/79/4 121/190/7 125/193/7 85/81/4 
f 86/82/4 120/194/6 118/191/6 84/80/4 
f 85/81/4 125/193/7 32/185/7 14/14/4 
f 13/13/4 27/188/6 120/194/6 86/82/4 
f 88/84/4 110/195/6 109/196/11 89/85/10 
f 90/86/10 130/197/12 129/198/7 87/83/4 
f 89/85/10 109/196/11 113/199/11 91/87/10 
f 92/88/10 132/200/12 130/197/12 90/86/10 
f 91/87/10 113/199/11 28/187/6 16/16/4 
f 15/15/4 31/186/7 132/200/12 92/88/10 
f 41/50/8 158/157/16 122/189/7 82/78/4 
f 81/77/4 117/192/6 157/147/15 42/49/8 
f 53/38/9 168/143/19 110/195/6 88/84/4 
f 87/83/4 129/198/7 171/160/20 54/37/9 
f 178/50/3 205/157/14 204/161/14 179/165/3 
f 180/166/3 154/182/13 153/147/13 177/49/3 
f 182/38/5 207/143/17 206/144/17 183/167/5 
f 184/168/5 173/183/18 172/160/18 181/37/5 
f 179/165/3 204/161/14 161/184/14 46/42/3 
f 45/41/3 203/150/13 154/182/13 180/166/3 
f 183/167/5 206/144/17 167/181/17 50/46/5 
f 49/45/5 208/156/18 173/183/18 184/168/5 
# 195 polygons

