# 3ds Max Wavefront OBJ Exporter v0.97b - (c)2007 guruware
# File Created: 24.11.2019 19:40:44

#
# object ground_divider_platform_side
#

v  0.0000 -1.3333 5.5000
v  0.0000 -0.6667 5.5000
v  0.0000 -0.6667 4.0000
v  0.0000 -1.3333 4.0000
v  0.0000 -1.3333 7.0000
v  0.0000 -0.6667 7.0000
v  0.0000 -0.6667 6.6321
v  0.0000 -1.3333 6.6321
v  0.0000 -0.6667 1.3750
v  0.0000 -1.3333 1.3750
v  0.0000 -1.3333 2.5000
v  0.0000 -0.6667 2.5000
v  1.3026 0.0000 4.0000
v  1.0000 0.0000 4.0000
v  1.0000 0.0000 5.5000
v  1.3026 0.0000 5.5000
v  5.8600 0.0000 4.0000
v  3.5816 0.0000 4.0000
v  3.5816 0.0000 5.5000
v  5.8600 0.0000 5.5000
v  1.3026 -2.0000 5.5000
v  1.0000 -2.0000 5.5000
v  1.0000 -2.0000 4.0000
v  1.3026 -2.0000 4.0000
v  5.8600 -2.0000 5.5000
v  3.5816 -2.0000 5.5000
v  3.5816 -2.0000 4.0000
v  5.8600 -2.0000 4.0000
v  1.0000 -0.6667 7.0000
v  1.0000 -1.3333 7.0000
v  1.3026 -1.3333 7.0000
v  1.3026 -0.6667 7.0000
v  3.5816 -1.3333 7.0000
v  5.8600 -1.3333 7.0000
v  5.8600 -0.6667 7.0000
v  3.5816 -0.6667 7.0000
v  1.3026 0.0000 -0.0000
v  1.0000 0.0000 -0.0000
v  1.0000 0.0000 1.0000
v  1.3026 0.0000 1.0000
v  5.8600 0.0000 -0.0000
v  3.5813 0.0000 -0.0000
v  3.5813 0.0000 1.0000
v  5.8600 0.0000 1.0000
v  1.3026 0.0000 2.5000
v  1.0000 0.0000 2.5000
v  5.8600 0.0000 2.5000
v  3.5816 0.0000 2.5000
v  1.3026 0.0000 6.6321
v  1.0000 0.0000 6.6321
v  1.0000 0.0000 7.0000
v  1.3026 0.0000 7.0000
v  3.5816 0.0000 7.0000
v  5.8600 0.0000 7.0000
v  5.8600 0.0000 6.6321
v  3.5816 0.0000 6.6321
v  1.3026 -2.0000 7.0000
v  1.0000 -2.0000 7.0000
v  1.0000 -2.0000 6.6321
v  1.3026 -2.0000 6.6321
v  5.8600 -2.0000 7.0000
v  3.5816 -2.0000 7.0000
v  3.5816 -2.0000 6.6321
v  5.8600 -2.0000 6.6321
v  8.1387 -2.0000 -0.0000
v  10.4184 -2.0000 0.0000
v  10.4184 -2.0000 1.0000
v  8.1387 -2.0000 1.0000
v  1.3026 -2.0000 2.5000
v  1.0000 -2.0000 2.5000
v  1.0000 -2.0000 1.3750
v  1.3026 -2.0000 1.3750
v  5.8600 -2.0000 2.5000
v  3.5816 -2.0000 2.5000
v  3.5816 -2.0000 1.3750
v  5.8600 -2.0000 1.3750
v  0.0000 0.0000 4.0000
v  0.0000 0.0000 5.5000
v  0.0000 -2.0000 5.5000
v  0.0000 -2.0000 4.0000
v  0.0000 0.0000 -0.0000
v  0.0000 0.0000 1.0000
v  0.0000 0.0000 2.5000
v  0.0000 0.0000 6.6321
v  0.0000 0.0000 7.0000
v  0.0000 -2.0000 7.0000
v  0.0000 -2.0000 6.6321
v  0.0000 -2.0000 2.5000
v  0.0000 -2.0000 1.3750
v  0.0000 -0.6667 -0.0000
v  0.0000 -1.3333 -0.0000
v  0.0000 -1.3333 1.0000
v  0.0000 -0.6667 1.0000
v  1.0000 0.0000 1.3750
v  1.3026 0.0000 1.3750
v  3.5816 0.0000 1.3750
v  5.8600 0.0000 1.3750
v  10.4184 0.0000 1.0000
v  10.4184 0.0000 0.0000
v  8.1387 0.0000 -0.0000
v  8.1387 0.0000 1.0000
v  10.4184 -2.0000 1.3750
v  8.8917 -2.0000 1.3750
v  1.0000 -2.0000 1.0000
v  1.0000 -2.0000 -0.0000
v  1.3026 -2.0000 -0.0000
v  1.3026 -2.0000 1.0000
v  3.5813 -2.0000 -0.0000
v  5.8600 -2.0000 -0.0000
v  5.8600 -2.0000 1.0000
v  3.5813 -2.0000 1.0000
v  0.0000 0.0000 1.3750
v  0.0000 -2.0000 1.0000
v  0.0000 -2.0000 -0.0000
v  10.4184 0.0000 1.3750
v  8.8917 0.0000 1.3750
v  10.4184 -1.3333 1.3750
v  8.8917 -1.3333 1.3750
v  8.7125 -1.2139 1.1958
v  10.4184 -1.2139 1.1958
v  10.4184 -0.7861 1.1958
v  8.7125 -0.7861 1.1958
v  8.8917 -0.6667 1.3750
v  10.4184 -0.6667 1.3750
v  8.5126 -2.0000 2.5000
v  8.5126 -2.0000 1.7540
v  8.5126 -1.3333 1.7540
v  8.5126 -1.3333 2.5000
v  8.3335 -1.2139 2.5000
v  8.3335 -1.2139 1.5748
v  8.3335 -0.7861 1.5748
v  8.3335 -0.7861 2.5000
v  8.5126 -0.6667 2.5000
v  8.5126 -0.6667 1.7540
v  8.5126 0.0000 1.7540
v  8.5126 0.0000 2.5000
v  8.5126 -2.0000 4.0000
v  8.5126 -1.3333 4.0000
v  8.3335 -1.2139 4.0000
v  8.3335 -0.7861 4.0000
v  8.5126 -0.6667 4.0000
v  8.5126 0.0000 4.0000
v  8.5126 -2.0000 5.5000
v  8.5126 -1.3333 5.5000
v  8.3335 -1.2139 5.3805
v  8.3335 -0.7861 5.3805
v  8.5126 -0.6667 5.5000
v  8.5126 0.0000 5.5000
v  8.5126 -2.0000 6.6321
v  8.5126 -1.3333 6.6321
v  8.5126 -0.6667 6.6321
v  8.5126 0.0000 6.6321
v  8.1387 -0.6667 7.0000
v  8.1387 0.0000 7.0000
v  8.1387 -1.3333 7.0000
v  8.1387 -2.0000 7.0000
v  8.1387 -2.0000 1.3750
v  8.1387 0.0000 1.3750
v  8.1387 -2.0000 2.5000
v  8.1387 -2.0000 4.0000
v  8.1387 -2.0000 5.5000
v  8.1387 -2.0000 6.6321
v  8.1387 0.0000 6.6321
v  8.1387 0.0000 5.5000
v  8.1387 0.0000 4.0000
v  8.1387 0.0000 2.5000
v  12.6974 -2.0000 0.0000
v  13.0000 -2.0000 0.0000
v  13.0000 -2.0000 1.0000
v  12.6974 -2.0000 1.0000
v  14.0000 -1.3333 0.0000
v  14.0000 -0.6667 0.0000
v  14.0000 -0.6667 1.0000
v  14.0000 -1.3333 1.0000
v  13.0000 0.0000 0.0000
v  12.6974 0.0000 0.0000
v  12.6974 0.0000 1.0000
v  13.0000 0.0000 1.0000
v  14.0000 0.0000 0.0000
v  14.0000 0.0000 1.0000
v  14.0000 -2.0000 1.0000
v  14.0000 -2.0000 0.0000
v  12.6974 -1.3333 1.3750
v  12.6974 -1.2139 1.1958
v  12.6974 0.0000 1.3750
v  12.6974 -2.0000 1.3750
v  12.6974 -0.7861 1.1958
v  12.6974 -0.6667 1.3750
v  13.0000 0.0000 1.3750
v  13.0000 -2.0000 1.3750
v  14.0000 0.0000 1.3750
v  14.0000 -0.6667 1.3750
v  14.0000 -1.3333 1.3750
v  14.0000 -2.0000 1.3750
v  13.0000 -0.6667 1.3750
v  13.0000 -1.3333 1.3750
# 196 vertices

vn -1.0000 0.0000 -0.0000
vn -0.7071 0.0000 0.7071
vn 0.0000 1.0000 -0.0000
vn 0.0000 -1.0000 -0.0000
vn 0.0000 0.0000 1.0000
vn 0.0000 0.7071 0.7071
vn 0.0000 -0.7071 0.7071
vn 0.0000 -1.0000 0.0000
vn -0.7071 0.7071 -0.0000
vn -0.7071 -0.7071 -0.0000
vn -0.5774 0.5774 0.5774
vn -0.5774 -0.5774 0.5774
vn -0.0000 1.0000 0.0000
vn -0.0000 1.0000 -0.0000
vn -0.0000 -0.7071 0.7071
vn 0.2274 -0.8042 0.5491
vn -0.0000 0.7071 0.7071
vn 0.2275 0.8042 0.5491
vn -0.0000 0.4719 0.8817
vn 0.2762 0.5763 0.7692
vn 0.3508 0.4762 0.8064
vn -0.0000 -0.4719 0.8817
vn 0.3508 -0.4762 0.8063
vn 0.2762 -0.5763 0.7691
vn 0.7071 -0.7071 -0.0000
vn 0.5491 -0.8042 0.2274
vn 0.7692 0.5763 0.2762
vn 0.8817 0.4719 -0.0000
vn 0.8064 0.4762 0.3508
vn 0.8064 -0.4762 0.3508
vn 0.8817 -0.4719 -0.0000
vn 0.7691 -0.5763 0.2762
vn 0.5491 0.8042 0.2275
vn 0.7071 0.7071 -0.0000
vn 0.7071 0.7071 0.0000
vn 0.7071 -0.7071 0.0000
vn 0.9782 0.1470 -0.1470
vn 0.8458 0.3772 -0.3772
vn 0.8458 -0.3772 -0.3772
vn 0.9782 -0.1470 -0.1470
vn 0.7166 -0.6296 0.3002
vn 0.9223 0.0000 0.3864
vn 0.7166 0.6296 0.3002
vn 0.3789 0.0000 0.9254
vn 0.2940 0.6309 0.7180
vn 0.2940 -0.6309 0.7180
vn 1.0000 0.0000 -0.0000
vn 1.0000 0.0000 0.0000
vn 1.0000 -0.0000 0.0000
vn -0.1689 0.2246 0.9597
vn -0.6147 0.3722 0.6954
vn -0.6147 -0.3722 0.6954
vn -0.1689 -0.2246 0.9597
vn 0.5774 0.5774 0.5774
vn 0.7071 0.0000 0.7071
vn 0.5774 -0.5774 0.5774
# 56 vertex normals

vt 0.9474 0.6667 0.0000
vt 0.9474 0.3333 0.0000
vt 0.4447 0.3333 0.0000
vt 0.4447 0.6667 0.0000
vt 1.0000 0.6667 0.0000
vt 1.0000 0.3333 0.0000
vt 0.1208 0.3333 0.0000
vt 0.1208 0.6667 0.0000
vt 0.1933 0.6667 0.0000
vt 0.1933 0.3333 0.0000
vt 0.5553 0.0930 0.0000
vt 0.5553 0.0465 0.0000
vt 0.3039 0.3678 0.0000
vt 0.3039 0.0930 0.0000
vt 0.5553 0.1835 0.0000
vt 0.5553 0.1383 0.0000
vt 0.3039 0.1383 0.0000
vt 0.3039 0.1835 0.0000
vt 0.6961 0.0930 0.0000
vt 0.6961 0.0465 0.0000
vt 0.4447 0.0465 0.0000
vt 0.4447 0.0930 0.0000
vt 0.6961 0.1835 0.0000
vt 0.6961 0.1383 0.0000
vt 0.4447 0.1383 0.0000
vt 0.4447 0.1835 0.0000
vt 0.0465 0.3333 0.0000
vt 0.0465 0.6667 0.0000
vt 0.0930 0.6667 0.0000
vt 0.0930 0.3333 0.0000
vt 0.1383 0.6667 0.0000
vt 0.1835 0.6667 0.0000
vt 0.1835 0.3333 0.0000
vt 0.1383 0.3333 0.0000
vt 1.0000 0.0930 0.0000
vt 0.6944 0.0308 0.0000
vt 0.9033 0.0465 0.0000
vt 0.9033 0.0930 0.0000
vt 1.0000 0.2016 0.0000
vt 1.0000 0.1473 0.0000
vt 0.9033 0.1473 0.0000
vt 0.9033 0.2016 0.0000
vt 0.8067 0.0930 0.0000
vt 0.8067 0.0465 0.0000
vt 0.8067 0.1835 0.0000
vt 0.8067 0.1383 0.0000
vt 0.0526 0.0930 0.0000
vt 0.0526 0.0465 0.0000
vt 0.0000 0.0465 0.0000
vt 0.0000 0.0930 0.0000
vt 0.0000 0.1383 0.0000
vt 0.0000 0.1835 0.0000
vt 0.0526 0.1835 0.0000
vt 0.0526 0.1383 0.0000
vt 1.0000 0.0465 0.0000
vt 0.9474 0.0465 0.0000
vt 0.9474 0.0930 0.0000
vt 1.0000 0.1835 0.0000
vt 1.0000 0.1383 0.0000
vt 0.9474 0.1383 0.0000
vt 0.9474 0.1835 0.0000
vt 0.0000 0.5814 0.0000
vt 0.0000 0.7442 0.0000
vt 0.0967 0.7442 0.0000
vt 0.0967 0.5814 0.0000
vt 0.1933 0.0930 0.0000
vt 0.1933 0.0465 0.0000
vt 0.1208 0.0465 0.0000
vt 0.1208 0.0930 0.0000
vt 0.1933 0.1835 0.0000
vt 0.1933 0.1383 0.0000
vt 0.1208 0.1383 0.0000
vt 0.1208 0.1835 0.0000
vt 0.6961 1.0000 0.0000
vt 0.4447 1.0000 0.0000
vt 0.6961 0.0000 0.0000
vt 0.4447 0.0000 0.0000
vt 0.0000 0.3333 0.0000
vt 0.0000 0.6667 0.0000
vt 1.0000 0.0000 0.0000
vt 0.9033 0.0000 0.0000
vt 0.8067 0.0000 0.0000
vt 0.0526 0.0000 0.0000
vt 0.0000 0.0000 0.0000
vt 0.9474 0.0000 0.0000
vt 0.1933 0.0000 0.0000
vt 0.1208 0.0000 0.0000
vt 0.0967 0.6667 0.0000
vt 0.0967 0.3333 0.0000
vt 0.8792 0.0465 0.0000
vt 0.8792 0.2558 0.0000
vt 0.9033 0.7442 0.0000
vt 1.0000 0.7442 0.0000
vt 1.0000 0.5814 0.0000
vt 0.9033 0.5814 0.0000
vt 0.1208 0.7171 0.0000
vt 0.1208 0.5814 0.0000
vt 0.0967 0.0465 0.0000
vt 0.0967 0.0930 0.0000
vt 0.0000 0.1473 0.0000
vt 0.0000 0.2016 0.0000
vt 0.0967 0.2016 0.0000
vt 0.0967 0.1473 0.0000
vt 0.8792 0.0000 0.0000
vt 0.0967 0.0000 0.0000
vt 0.8792 0.7171 0.0000
vt 0.8792 0.5814 0.0000
vt 0.9474 1.0000 0.0000
vt 1.0000 1.0000 0.0000
vt 0.1208 1.0000 0.0000
vt 0.1933 1.0000 0.0000
vt 0.0465 1.0000 0.0000
vt 0.0930 1.0000 0.0000
vt 0.0930 0.0000 0.0000
vt 0.0465 0.0000 0.0000
vt 0.1383 1.0000 0.0000
vt 0.1835 1.0000 0.0000
vt 0.1835 0.0000 0.0000
vt 0.1383 0.0000 0.0000
vt 0.0000 1.0000 0.0000
vt 0.0967 1.0000 0.0000
vt 0.9535 0.0000 0.0000
vt 0.9923 0.0388 0.0000
vt 1.0000 0.3888 0.0000
vt 1.0000 0.3847 0.0000
vt 1.0000 0.6153 0.0000
vt 1.0000 0.6112 0.0000
vt 0.2351 0.7716 0.0000
vt 0.6318 0.5248 0.0000
vt 0.6631 0.6667 0.0000
vt 0.7094 0.6667 0.0000
vt 0.7094 0.3333 0.0000
vt 0.6631 0.3333 0.0000
vt 0.3039 1.0000 0.0000
vt 0.5814 0.0000 0.0000
vt 0.0000 0.2288 0.0000
vt 0.7577 0.0000 0.0000
vt 0.3539 0.1886 0.0000
vt 0.1948 0.0216 0.0000
vt 0.9298 0.6667 0.0000
vt 0.9298 0.3333 0.0000
vt 0.3201 0.9507 0.0000
vt 0.3539 0.7837 0.0000
vt 0.1453 0.2558 0.0000
vt 0.1208 0.2288 0.0000
vt 0.0967 0.2558 0.0000
vt 0.1208 0.2829 0.0000
vt 0.8547 0.2558 0.0000
vt 0.7530 0.3641 0.0000
vt 0.9033 0.2558 0.0000
vt 0.8337 0.6667 0.0000
vt 0.4447 0.7712 0.0000
vt 0.8458 0.3333 0.0000
vt 0.8458 0.6667 0.0000
vt 0.2855 0.0465 0.0000
vt 0.8337 0.3333 0.0000
vt 0.1933 0.2558 0.0000
vt 0.1933 0.2288 0.0000
vt 0.4447 0.2558 0.0000
vt 0.4447 0.2288 0.0000
vt 0.6961 0.2558 0.0000
vt 0.6961 0.2288 0.0000
vt 0.9474 0.2558 0.0000
vt 0.9474 0.2288 0.0000
vt 1.0000 0.2288 0.0000
vt 0.0526 0.2558 0.0000
vt 0.0526 0.2288 0.0000
vt 0.3039 0.2558 0.0000
vt 0.3039 0.2288 0.0000
vt 0.5553 0.2558 0.0000
vt 0.5553 0.2288 0.0000
vt 0.8067 0.2558 0.0000
vt 0.8067 0.2288 0.0000
vt 0.2288 0.6667 0.0000
vt 0.2288 0.3333 0.0000
vt 1.0000 0.2558 0.0000
vt 0.0000 0.2558 0.0000
vt 0.2288 1.0000 0.0000
vt 0.2288 0.0000 0.0000
vt 0.0000 0.9070 0.0000
vt 0.0000 0.9309 0.0000
vt 0.0967 0.9313 0.0000
vt 0.0967 0.9070 0.0000
vt 0.9033 0.3333 0.0000
vt 0.9033 0.6667 0.0000
vt 1.0000 0.9291 0.0000
vt 1.0000 0.9070 0.0000
vt 0.9033 0.9070 0.0000
vt 0.9033 0.9297 0.0000
vt 0.9033 1.0000 0.0000
vt 0.7442 0.6667 0.0000
vt 0.5814 0.6667 0.0000
vt 0.9535 0.3333 0.0000
vt 0.9535 0.6667 0.0000
# 194 texture coords

o ground_divider_platform_side
g ground_divider_platform_side
f 1/1/1 2/2/1 3/3/1 4/4/1 
f 5/5/2 6/6/2 7/2/1 8/1/1 
f 8/1/1 7/2/1 2/2/1 1/1/1 
f 9/7/1 10/8/1 11/9/1 12/10/1 
f 12/10/1 11/9/1 4/4/1 3/3/1 
f 13/11/3 14/12/3 15/13/3 16/14/3 
f 17/15/3 18/16/3 19/17/3 20/18/3 
f 21/19/4 22/20/4 23/21/4 24/22/4 
f 25/23/4 26/24/4 27/25/4 28/26/4 
f 29/27/5 30/28/5 31/29/5 32/30/5 
f 33/31/5 34/32/5 35/33/5 36/34/5 
f 37/35/3 38/36/3 39/37/3 40/38/3 
f 41/39/3 42/40/3 43/41/3 44/42/3 
f 45/43/3 46/44/3 14/12/3 13/11/3 
f 47/45/3 48/46/3 18/16/3 17/15/3 
f 49/47/3 50/48/3 51/49/6 52/50/6 
f 53/51/6 54/52/6 55/53/3 56/54/3 
f 16/14/3 15/13/3 50/48/3 49/47/3 
f 20/18/3 19/17/3 56/54/3 55/53/3 
f 57/35/7 58/55/7 59/56/4 60/57/4 
f 61/58/7 62/59/7 63/60/4 64/61/4 
f 60/57/4 59/56/4 22/20/4 21/19/4 
f 64/61/4 63/60/4 26/24/4 25/23/4 
f 65/62/4 66/63/8 67/64/4 68/65/4 
f 69/66/4 70/67/4 71/68/4 72/69/4 
f 73/70/4 74/71/4 75/72/4 76/73/4 
f 24/22/4 23/21/4 70/67/4 69/66/4 
f 28/26/4 27/25/4 74/71/4 73/70/4 
f 14/12/3 77/74/9 78/75/9 15/13/3 
f 22/20/4 79/76/10 80/77/10 23/21/4 
f 6/78/2 5/79/2 30/28/5 29/27/5 
f 38/36/3 81/80/9 82/81/9 39/37/3 
f 46/44/3 83/82/9 77/74/9 14/12/3 
f 50/48/3 84/83/9 85/84/11 51/49/6 
f 15/13/3 78/75/9 84/83/9 50/48/3 
f 58/55/7 86/80/12 87/85/10 59/56/4 
f 59/56/4 87/85/10 79/76/10 22/20/4 
f 70/67/4 88/86/10 89/87/10 71/68/4 
f 23/21/4 80/77/10 88/86/10 70/67/4 
f 90/78/1 91/79/1 92/88/1 93/89/1 
f 39/37/3 94/90/3 95/91/3 40/38/3 
f 96/91/3 97/91/3 44/42/3 43/41/3 
f 98/92/13 99/93/14 100/94/14 101/95/13 
f 67/64/4 102/96/15 103/97/16 68/65/4 
f 104/98/4 105/49/4 106/50/4 107/99/4 
f 108/100/4 109/101/4 110/102/4 111/103/4 
f 82/81/9 112/104/9 94/90/3 39/37/3 
f 113/105/10 114/84/10 105/49/4 104/98/4 
f 93/89/1 92/88/1 10/8/1 9/7/1 
f 115/106/17 98/92/13 101/95/13 116/107/18 
f 71/68/4 104/98/4 107/99/4 72/69/4 
f 111/103/4 110/102/4 76/73/4 75/72/4 
f 89/87/10 113/105/10 104/98/4 71/68/4 
f 94/90/3 46/44/3 45/43/3 95/91/3 
f 48/46/3 47/45/3 97/91/3 96/91/3 
f 112/104/9 83/82/9 46/44/3 94/90/3 
f 2/2/1 78/76/9 77/77/9 3/3/1 
f 4/4/1 80/75/10 79/74/10 1/1/1 
f 6/6/2 85/80/11 84/85/9 7/2/1 
f 8/1/1 87/108/10 86/109/12 5/5/2 
f 7/2/1 84/85/9 78/76/9 2/2/1 
f 1/1/1 79/74/10 87/108/10 8/1/1 
f 10/8/1 89/110/10 88/111/10 11/9/1 
f 12/10/1 83/86/9 112/87/9 9/7/1 
f 11/9/1 88/111/10 80/75/10 4/4/1 
f 3/3/1 77/77/9 83/86/9 12/10/1 
f 30/28/5 58/112/7 57/113/7 31/29/5 
f 32/30/5 52/114/6 51/115/6 29/27/5 
f 62/116/7 61/117/7 34/32/5 33/31/5 
f 54/118/6 53/119/6 36/34/5 35/33/5 
f 5/79/2 86/120/12 58/112/7 30/28/5 
f 29/27/5 51/115/6 85/84/11 6/78/2 
f 91/79/1 114/120/10 113/121/10 92/88/1 
f 93/89/1 82/105/9 81/84/9 90/78/1 
f 92/88/1 113/121/10 89/110/10 10/8/1 
f 9/7/1 112/87/9 82/105/9 93/89/1 
f 103/122/16 102/123/15 117/124/19 118/5/20 
f 119/5/21 120/125/19 121/126/22 122/6/23 
f 123/6/24 124/127/22 115/128/17 116/22/18 
f 125/35/25 126/129/26 127/130/27 128/79/28 
f 129/79/28 130/131/29 131/132/30 132/78/31 
f 133/78/31 134/133/32 135/13/33 136/134/34 
f 137/135/25 125/35/25 128/79/28 138/5/28 
f 139/5/28 129/79/28 132/78/31 140/6/31 
f 141/6/31 133/78/31 136/134/34 142/77/35 
f 143/94/36 137/135/25 138/5/28 144/79/37 
f 145/79/38 139/5/28 140/6/31 146/78/39 
f 147/78/40 141/6/31 142/77/35 148/136/35 
f 149/137/41 143/94/36 144/79/37 150/1/42 
f 150/1/42 144/79/37 147/78/40 151/2/42 
f 151/2/42 147/78/40 148/136/35 152/74/43 
f 124/127/22 123/6/24 122/6/23 121/126/22 
f 134/133/32 133/78/31 132/78/31 131/132/30 
f 133/78/31 141/6/31 140/6/31 132/78/31 
f 141/6/31 147/78/40 146/78/39 140/6/31 
f 147/78/40 144/79/37 145/79/38 146/78/39 
f 144/79/37 138/5/28 139/5/28 145/79/38 
f 138/5/28 128/79/28 129/79/28 139/5/28 
f 128/79/28 127/130/27 130/131/29 129/79/28 
f 118/5/20 117/124/19 120/125/19 119/5/21 
f 153/138/44 151/2/42 152/74/43 154/139/45 
f 155/140/44 150/1/42 151/2/42 153/141/44 
f 156/142/46 149/137/41 150/1/42 155/143/44 
f 126/144/26 157/145/4 68/146/4 103/147/16 
f 135/148/33 116/149/18 101/150/13 158/91/3 
f 118/151/20 127/130/27 126/129/26 103/152/16 
f 122/153/23 131/132/30 130/131/29 119/154/21 
f 116/155/18 135/13/33 134/133/32 123/156/24 
f 123/156/24 134/133/32 131/132/30 122/153/23 
f 127/130/27 118/151/20 119/154/21 130/131/29 
f 157/145/4 126/144/26 125/157/25 159/158/4 
f 159/158/4 125/157/25 137/159/25 160/160/4 
f 160/160/4 137/159/25 143/161/36 161/162/4 
f 161/162/4 143/161/36 149/163/41 162/164/4 
f 162/164/4 149/163/41 156/165/46 
f 154/136/45 152/166/43 163/167/3 
f 163/167/3 152/166/43 148/168/35 164/169/3 
f 164/169/3 148/168/35 142/170/35 165/171/3 
f 165/171/3 142/170/35 136/172/34 166/173/3 
f 166/173/3 136/172/34 135/148/33 158/91/3 
f 18/16/3 13/11/3 16/14/3 19/17/3 
f 20/18/3 164/169/3 165/171/3 17/15/3 
f 26/24/4 21/19/4 24/22/4 27/25/4 
f 28/26/4 160/160/4 161/162/4 25/23/4 
f 34/32/5 155/174/44 153/175/44 35/33/5 
f 36/34/5 32/30/5 31/29/5 33/31/5 
f 42/40/3 37/35/3 40/38/3 43/41/3 
f 44/42/3 101/150/13 100/176/14 41/39/3 
f 48/46/3 45/43/3 13/11/3 18/16/3 
f 17/15/3 165/171/3 166/173/3 47/45/3 
f 54/52/6 154/136/45 163/167/3 55/53/3 
f 56/54/3 49/47/3 52/50/6 53/51/6 
f 19/17/3 16/14/3 49/47/3 56/54/3 
f 55/53/3 163/167/3 164/169/3 20/18/3 
f 62/59/7 57/35/7 60/57/4 63/60/4 
f 64/61/4 162/164/4 156/165/46 61/58/7 
f 63/60/4 60/57/4 21/19/4 26/24/4 
f 25/23/4 161/162/4 162/164/4 64/61/4 
f 74/71/4 69/66/4 72/69/4 75/72/4 
f 76/73/4 157/145/4 159/158/4 73/70/4 
f 27/25/4 24/22/4 69/66/4 74/71/4 
f 73/70/4 159/158/4 160/160/4 28/26/4 
f 97/91/3 158/91/3 101/150/13 44/42/3 
f 43/41/3 40/38/3 95/91/3 96/91/3 
f 109/101/4 65/177/4 68/146/4 110/102/4 
f 111/103/4 107/99/4 106/50/4 108/100/4 
f 110/102/4 68/146/4 157/145/4 76/73/4 
f 75/72/4 72/69/4 107/99/4 111/103/4 
f 47/45/3 166/173/3 158/91/3 97/91/3 
f 96/91/3 95/91/3 45/43/3 48/46/3 
f 61/117/7 156/178/46 155/174/44 34/32/5 
f 33/31/5 31/29/5 57/113/7 62/116/7 
f 53/119/6 52/114/6 32/30/5 36/34/5 
f 35/33/5 153/175/44 154/179/45 54/118/6 
f 167/180/8 168/181/4 169/182/4 170/183/8 
f 66/63/8 167/180/8 170/183/8 67/64/4 
f 171/5/47 172/6/47 173/184/48 174/185/49 
f 175/186/3 176/187/14 177/188/14 178/189/3 
f 177/188/14 176/187/14 99/93/14 98/92/13 
f 172/6/47 179/80/35 180/81/35 173/184/48 
f 174/185/49 181/190/36 182/109/36 171/5/47 
f 120/125/19 117/124/19 183/124/50 184/125/51 
f 98/92/13 115/106/17 185/106/17 177/92/14 
f 102/96/15 67/64/4 170/64/8 186/96/15 
f 117/124/19 102/123/15 186/123/15 183/124/50 
f 121/126/22 120/125/19 184/125/51 187/126/52 
f 115/128/17 124/127/22 188/127/53 185/128/17 
f 124/127/22 121/126/22 187/126/52 188/127/53 
f 177/92/14 185/106/17 189/106/6 178/92/3 
f 186/96/15 170/64/8 169/64/4 190/96/7 
f 191/132/54 192/126/55 173/99/48 180/78/35 
f 193/6/55 194/78/56 181/8/36 174/65/49 
f 183/124/50 188/191/53 187/126/52 184/125/51 
f 189/106/6 191/106/54 180/92/35 178/92/3 
f 178/189/3 180/190/35 179/109/35 175/186/3 
f 168/181/4 182/120/36 181/121/36 169/182/4 
f 169/64/4 181/64/36 194/96/56 190/96/7 
f 193/126/55 174/65/49 173/99/48 192/185/55 
f 192/185/55 191/7/54 189/79/6 195/154/5 
f 195/154/5 189/79/6 185/28/17 188/192/53 
f 193/126/55 192/185/55 195/154/5 196/79/5 
f 196/79/5 195/154/5 188/192/53 183/193/50 
f 194/8/56 193/126/55 196/79/5 190/5/7 
f 190/5/7 196/79/5 183/193/50 186/194/15 
# 182 polygons - 2 triangles

