# 3ds Max Wavefront OBJ Exporter v0.97b - (c)2007 guruware
# File Created: 24.11.2019 19:40:47

#
# object ground_divider_platform_big
#

v  1.3026 -2.0000 0.0000
v  1.3026 -2.0000 1.0000
v  1.0000 -2.0000 1.0000
v  1.0000 -2.0000 0.0000
v  3.5816 -2.0000 0.0000
v  3.5816 -2.0000 1.0000
v  5.8605 -2.0000 0.0000
v  5.8605 -2.0000 1.0000
v  -0.0000 -1.3333 0.0000
v  -0.0000 -1.3333 1.0000
v  -0.0000 -0.6667 1.0000
v  -0.0000 -0.6667 0.0000
v  1.0000 0.0000 0.0000
v  1.0000 0.0000 1.0000
v  1.3026 0.0000 1.0000
v  1.3026 0.0000 0.0000
v  3.5816 0.0000 1.0000
v  3.5816 0.0000 0.0000
v  5.8605 0.0000 1.0000
v  5.8605 0.0000 0.0000
v  -0.0000 0.0000 1.0000
v  -0.0000 0.0000 0.0000
v  -0.0000 -2.0000 0.0000
v  -0.0000 -2.0000 1.0000
v  1.3026 0.0000 1.3750
v  0.5594 -2.0000 1.3750
v  1.3026 -2.0000 1.3750
v  0.9384 -2.0000 1.7540
v  -0.0000 0.0000 1.3750
v  -0.0000 -0.6667 1.3750
v  -0.0000 -1.3333 1.3750
v  -0.0000 -2.0000 1.3750
v  0.5594 -1.3333 1.3750
v  0.7385 -1.2139 1.1958
v  0.7385 -0.7861 1.1958
v  0.5594 -0.6667 1.3750
v  0.5594 0.0000 1.3750
v  8.1395 -2.0000 0.0000
v  8.1395 -2.0000 1.0000
v  3.5816 0.0000 4.0000
v  3.5816 0.0000 5.5000
v  5.8605 0.0000 5.5000
v  5.8605 0.0000 4.0000
v  1.3026 0.0000 4.0000
v  1.3026 0.0000 5.5000
v  3.5816 -2.0000 5.5000
v  3.5816 -2.0000 4.0000
v  5.8605 -2.0000 4.0000
v  5.8605 -2.0000 5.5000
v  1.3026 -2.0000 5.5000
v  1.3026 -2.0000 4.0000
v  5.8605 -0.6667 7.0000
v  3.5816 -0.6667 7.0000
v  3.5816 -1.3333 7.0000
v  5.8605 -1.3333 7.0000
v  1.3026 -0.6667 7.0000
v  1.3026 -1.3333 7.0000
v  3.5816 0.0000 2.5000
v  5.8605 0.0000 2.5000
v  1.3026 0.0000 2.5000
v  3.5816 0.0000 6.6321
v  3.5816 0.0000 7.0000
v  5.8605 0.0000 7.0000
v  5.8605 0.0000 6.6321
v  1.3026 0.0000 6.6321
v  1.3026 0.0000 7.0000
v  3.5816 -2.0000 7.0000
v  3.5816 -2.0000 6.6321
v  5.8605 -2.0000 6.6321
v  5.8605 -2.0000 7.0000
v  1.3026 -2.0000 7.0000
v  1.3026 -2.0000 6.6321
v  3.5816 -2.0000 2.5000
v  3.5816 -2.0000 1.3750
v  5.8605 -2.0000 1.3750
v  5.8605 -2.0000 2.5000
v  1.3026 -2.0000 2.5000
v  3.5816 0.0000 1.3750
v  5.8605 0.0000 1.3750
v  0.9384 -2.0000 2.5000
v  0.9384 -1.3333 2.5000
v  0.9384 -1.3333 1.7540
v  1.1176 -1.2139 2.5000
v  1.1176 -0.7861 2.5000
v  1.1176 -0.7861 1.5748
v  1.1176 -1.2139 1.5748
v  0.9384 -0.6667 2.5000
v  0.9384 0.0000 2.5000
v  0.9384 0.0000 1.7540
v  0.9384 -0.6667 1.7540
v  0.9384 -2.0000 4.0000
v  0.9384 -1.3333 4.0000
v  1.1176 -1.2139 4.0000
v  1.1176 -0.7861 4.0000
v  0.9384 -0.6667 4.0000
v  0.9384 0.0000 4.0000
v  0.9384 -2.0000 5.5000
v  0.9384 -1.3333 5.5000
v  1.1176 -1.2139 5.3805
v  1.1176 -0.7861 5.3805
v  0.9384 -0.6667 5.5000
v  0.9384 0.0000 5.5000
v  0.9384 -2.0000 6.6321
v  0.9384 -1.3333 6.6321
v  0.9384 -0.6667 6.6321
v  0.9384 0.0000 6.6321
v  8.1395 -1.3333 7.0000
v  8.1395 -0.6667 7.0000
v  8.1395 0.0000 7.0000
v  8.1395 0.0000 6.6321
v  8.1395 0.0000 5.5000
v  8.1395 -2.0000 6.6321
v  8.1395 -2.0000 7.0000
v  8.1395 -2.0000 5.5000
v  8.1395 0.0000 1.0000
v  8.1395 0.0000 0.0000
v  8.1395 0.0000 4.0000
v  8.1395 0.0000 2.5000
v  8.1395 -2.0000 1.3750
v  8.1395 -2.0000 2.5000
v  8.1395 0.0000 1.3750
v  12.6974 -2.0000 0.0000
v  13.0000 -2.0000 0.0000
v  13.0000 -2.0000 1.0000
v  12.6974 -2.0000 1.0000
v  10.4184 -2.0000 0.0000
v  10.4184 -2.0000 1.0000
v  14.0000 -1.3333 0.0000
v  14.0000 -0.6667 0.0000
v  14.0000 -0.6667 1.0000
v  14.0000 -1.3333 1.0000
v  13.0000 0.0000 0.0000
v  12.6974 0.0000 0.0000
v  12.6974 0.0000 1.0000
v  13.0000 0.0000 1.0000
v  10.4184 0.0000 0.0000
v  10.4184 0.0000 1.0000
v  14.0000 0.0000 0.0000
v  14.0000 0.0000 1.0000
v  14.0000 -2.0000 1.0000
v  14.0000 -2.0000 0.0000
v  12.6974 0.0000 1.3750
v  13.4406 -2.0000 1.3750
v  13.0616 -2.0000 1.7540
v  12.6974 -2.0000 1.3750
v  14.0000 0.0000 1.3750
v  14.0000 -0.6667 1.3750
v  14.0000 -1.3333 1.3750
v  14.0000 -2.0000 1.3750
v  13.4406 -1.3333 1.3750
v  13.4406 -0.6667 1.3750
v  13.2614 -0.7861 1.1958
v  13.2614 -1.2139 1.1958
v  13.4406 0.0000 1.3750
v  10.4184 0.0000 4.0000
v  10.4184 0.0000 5.5000
v  12.6974 0.0000 4.0000
v  12.6974 0.0000 5.5000
v  10.4184 -2.0000 5.5000
v  8.1395 -2.0000 4.0000
v  10.4184 -2.0000 4.0000
v  12.6974 -2.0000 5.5000
v  12.6974 -2.0000 4.0000
v  10.4184 -1.3333 7.0000
v  10.4184 -0.6667 7.0000
v  12.6974 -1.3333 7.0000
v  12.6974 -0.6667 7.0000
v  10.4184 0.0000 2.5000
v  12.6974 0.0000 2.5000
v  10.4184 0.0000 6.6321
v  10.4184 0.0000 7.0000
v  12.6974 0.0000 7.0000
v  12.6974 0.0000 6.6321
v  10.4184 -2.0000 7.0000
v  10.4184 -2.0000 6.6321
v  12.6974 -2.0000 7.0000
v  12.6974 -2.0000 6.6321
v  10.4184 -2.0000 2.5000
v  10.4184 -2.0000 1.3750
v  12.6974 -2.0000 2.5000
v  10.4184 0.0000 1.3750
v  13.0616 -2.0000 2.5000
v  13.0616 -1.3333 1.7540
v  13.0616 -1.3333 2.5000
v  12.8824 -1.2139 2.5000
v  12.8824 -1.2139 1.5748
v  12.8824 -0.7861 1.5748
v  12.8824 -0.7861 2.5000
v  13.0616 -0.6667 2.5000
v  13.0616 -0.6667 1.7540
v  13.0616 0.0000 1.7540
v  13.0616 0.0000 2.5000
v  13.0616 -2.0000 4.0000
v  13.0616 -1.3333 4.0000
v  12.8824 -1.2139 4.0000
v  12.8824 -0.7861 4.0000
v  13.0616 -0.6667 4.0000
v  13.0616 0.0000 4.0000
v  13.0616 -2.0000 5.5000
v  13.0616 -1.3333 5.5000
v  12.8824 -1.2139 5.3805
v  12.8824 -0.7861 5.3805
v  13.0616 -0.6667 5.5000
v  13.0616 0.0000 5.5000
v  13.0616 -2.0000 6.6321
v  13.0616 -1.3333 6.6321
v  13.0616 -0.6667 6.6321
v  13.0616 0.0000 6.6321
# 208 vertices

vn 0.0000 -1.0000 0.0000
vn 0.0000 -1.0000 -0.0000
vn -1.0000 0.0000 -0.0000
vn -1.0000 -0.0000 0.0000
vn -1.0000 0.0000 0.0000
vn 0.0000 1.0000 -0.0000
vn -0.0000 1.0000 -0.0000
vn -0.7071 0.7071 0.0000
vn -0.7071 -0.7071 0.0000
vn -0.2275 -0.8042 0.5491
vn -0.5491 -0.8042 0.2275
vn -0.5774 0.5774 0.5774
vn -0.7071 0.0000 0.7071
vn -0.5774 -0.5774 0.5774
vn -0.1363 0.2468 0.9594
vn -0.0486 0.4267 0.9031
vn -0.0487 -0.4266 0.9031
vn -0.1364 -0.2468 0.9594
vn -0.2275 0.8042 0.5491
vn 0.0000 0.0000 1.0000
vn -0.3850 0.0000 0.9229
vn -0.0000 0.7071 0.7071
vn -0.2991 0.6298 0.7168
vn 0.0000 -0.7071 0.7071
vn -0.2991 -0.6298 0.7168
vn -0.7071 -0.7071 -0.0000
vn -0.8817 0.4719 -0.0000
vn -0.7692 0.5763 0.2762
vn -0.8817 -0.4719 -0.0000
vn -0.8063 -0.4762 0.3508
vn -0.8063 0.4761 0.3509
vn -0.7071 0.7071 -0.0000
vn -0.5491 0.8042 0.2275
vn -0.7691 -0.5763 0.2762
vn -0.9782 0.1470 -0.1470
vn -0.8458 0.3772 -0.3772
vn -0.8458 -0.3772 -0.3772
vn -0.9782 -0.1470 -0.1470
vn -0.7177 -0.6307 0.2952
vn -0.9248 0.0000 0.3803
vn -0.7177 0.6307 0.2952
vn 0.0000 0.7071 0.7071
vn -0.0000 -1.0000 -0.0000
vn -0.0000 -0.7071 0.7071
vn -0.0000 -1.0000 0.0000
vn 1.0000 0.0000 -0.0000
vn 0.7071 0.7071 -0.0000
vn 0.7071 -0.7071 -0.0000
vn 0.2274 -0.8042 0.5491
vn 0.5492 -0.8042 0.2275
vn 0.5774 0.5774 0.5774
vn 0.7071 0.0000 0.7071
vn 0.5774 -0.5774 0.5774
vn 0.1364 0.2467 0.9594
vn 0.1363 -0.2468 0.9594
vn 0.0487 -0.4267 0.9031
vn 0.0486 0.4268 0.9030
vn 0.2275 0.8042 0.5492
vn 0.3850 0.0000 0.9229
vn 0.2991 0.6298 0.7168
vn 0.2991 -0.6298 0.7168
vn 0.7691 0.5763 0.2762
vn 0.8817 0.4719 -0.0000
vn 0.8063 0.4761 0.3509
vn 0.8063 -0.4762 0.3508
vn 0.8817 -0.4719 -0.0000
vn 0.7692 -0.5762 0.2763
vn 0.5491 0.8042 0.2274
vn 0.9782 0.1470 -0.1470
vn 0.8458 0.3772 -0.3772
vn 0.8458 -0.3772 -0.3772
vn 0.9782 -0.1470 -0.1470
vn 0.7177 -0.6307 0.2952
vn 0.9248 0.0000 0.3803
vn 0.7177 0.6307 0.2952
# 75 vertex normals

vt 0.0000 0.9070 0.0000
vt 0.0967 0.9070 0.0000
vt 0.0967 0.9313 0.0000
vt 0.0000 0.9309 0.0000
vt 0.0000 0.7442 0.0000
vt 0.0967 0.7442 0.0000
vt 0.0000 0.5814 0.0000
vt 0.0967 0.5814 0.0000
vt 0.9961 0.3527 0.0000
vt 0.9033 0.6667 0.0000
vt 0.9033 0.3333 0.0000
vt 1.0000 0.3333 0.0000
vt 1.0000 0.9291 0.0000
vt 0.9033 0.9297 0.0000
vt 0.9033 0.9070 0.0000
vt 1.0000 0.9070 0.0000
vt 0.9033 0.7442 0.0000
vt 1.0000 0.7442 0.0000
vt 0.9033 0.5814 0.0000
vt 1.0000 0.5814 0.0000
vt 0.9033 0.0000 0.0000
vt 1.0000 0.0000 0.0000
vt 1.0000 1.0000 0.0000
vt 0.9033 1.0000 0.0000
vt 0.9033 0.2558 0.0000
vt 0.8354 0.3141 0.0000
vt 0.8792 0.2558 0.0000
vt 0.1208 0.2829 0.0000
vt 0.0967 0.2704 0.0000
vt 0.1208 0.2288 0.0000
vt 0.1453 0.2558 0.0000
vt 0.7094 0.3333 0.0000
vt 0.0000 0.3333 0.0000
vt 0.0967 0.0930 0.0000
vt 1.0000 0.6153 0.0000
vt 0.1208 0.6667 0.0000
vt 1.0000 0.3888 0.0000
vt 1.0000 0.3847 0.0000
vt 0.7442 0.6667 0.0000
vt 0.8792 0.7171 0.0000
vt 0.0967 1.0000 0.0000
vt 0.0000 1.0000 0.0000
vt 0.0806 0.5892 0.0000
vt 0.1208 0.7171 0.0000
vt 0.4186 0.3333 0.0000
vt 0.5465 0.6410 0.0000
vt 0.5465 0.4723 0.0000
vt 0.5553 0.0930 0.0000
vt 0.3039 0.0930 0.0000
vt 0.4447 1.0000 0.0000
vt 0.6961 1.0000 0.0000
vt 0.5553 0.2288 0.0000
vt 0.3039 0.2288 0.0000
vt 0.6961 0.0930 0.0000
vt 0.4447 0.0930 0.0000
vt 0.4447 0.0000 0.0000
vt 0.6961 0.0000 0.0000
vt 0.6961 0.2288 0.0000
vt 0.4447 0.2288 0.0000
vt 0.0930 0.3333 0.0000
vt 0.0930 0.6667 0.0000
vt 0.0000 0.6667 0.0000
vt 0.2288 0.3333 0.0000
vt 0.2288 0.6667 0.0000
vt 0.8067 0.0930 0.0000
vt 0.8067 0.0000 0.0000
vt 0.8067 0.2288 0.0000
vt 0.0526 0.0930 0.0000
vt 0.0000 0.0930 0.0000
vt 0.0000 0.0000 0.0000
vt 0.0526 0.0000 0.0000
vt 0.0526 0.2288 0.0000
vt 0.0000 0.2288 0.0000
vt 1.0000 0.0930 0.0000
vt 0.9474 0.0930 0.0000
vt 0.9474 0.0000 0.0000
vt 1.0000 0.2288 0.0000
vt 0.9474 0.2288 0.0000
vt 0.1933 0.0930 0.0000
vt 0.1208 0.0930 0.0000
vt 0.1208 0.0000 0.0000
vt 0.1933 0.0000 0.0000
vt 0.1933 0.2288 0.0000
vt 0.9033 0.0930 0.0000
vt 0.8792 0.0000 0.0000
vt 0.0967 0.0000 0.0000
vt 0.0967 0.2558 0.0000
vt 0.0930 1.0000 0.0000
vt 0.0930 0.0000 0.0000
vt 0.2288 1.0000 0.0000
vt 0.2288 0.0000 0.0000
vt 0.6631 0.6667 0.0000
vt 0.6318 0.5248 0.0000
vt 0.7094 0.6667 0.0000
vt 0.3039 1.0000 0.0000
vt 0.3039 0.3678 0.0000
vt 0.6631 0.3333 0.0000
vt 0.5814 0.0000 0.0000
vt 1.0000 0.6667 0.0000
vt 0.7577 0.0000 0.0000
vt 0.9474 0.6667 0.0000
vt 0.9474 0.3333 0.0000
vt 0.3539 0.1886 0.0000
vt 0.1948 0.0216 0.0000
vt 0.9298 0.6667 0.0000
vt 0.9298 0.3333 0.0000
vt 0.3201 0.9507 0.0000
vt 0.3539 0.7837 0.0000
vt 0.8337 0.6667 0.0000
vt 0.4447 0.7712 0.0000
vt 0.8458 0.3333 0.0000
vt 0.8458 0.6667 0.0000
vt 0.2855 0.0465 0.0000
vt 0.8337 0.3333 0.0000
vt 0.1933 0.2558 0.0000
vt 0.4447 0.2558 0.0000
vt 0.6961 0.2558 0.0000
vt 0.9474 0.2558 0.0000
vt 0.0526 0.2558 0.0000
vt 0.3039 0.2558 0.0000
vt 0.5553 0.2558 0.0000
vt 0.8067 0.2558 0.0000
vt 0.8547 0.2558 0.0000
vt 0.7530 0.3641 0.0000
# 124 texture coords

o ground_divider_platform_big
g ground_divider_platform_big
f 1/1/1 2/2/1 3/3/1 4/4/2 
f 5/5/1 6/6/1 2/2/1 1/1/1 
f 7/7/1 8/8/1 6/6/1 5/5/1 
f 9/9/3 10/10/4 11/11/5 12/12/3 
f 13/13/6 14/14/7 15/15/7 16/16/6 
f 15/15/7 17/17/7 18/18/6 16/16/6 
f 17/17/7 19/19/7 20/20/6 18/18/6 
f 12/12/3 11/11/5 21/21/8 22/22/8 
f 10/10/4 9/9/3 23/23/9 24/24/9 
f 15/25/7 14/26/7 25/27/7 
f 26/28/10 3/29/1 27/30/1 28/31/11 
f 29/32/12 21/33/8 11/34/5 30/35/13 
f 31/12/13 10/8/4 24/36/9 32/33/14 
f 33/37/15 34/38/16 35/35/17 36/39/18 
f 37/40/19 14/17/7 21/17/8 29/40/12 
f 14/14/7 13/13/6 22/23/8 21/24/8 
f 4/4/2 3/3/1 24/41/9 23/42/9 
f 3/6/1 26/43/10 32/44/14 24/6/9 
f 7/7/1 38/7/1 39/8/1 8/8/1 
f 11/11/5 10/8/4 31/32/13 30/35/13 
f 30/45/13 36/9/18 37/43/19 29/39/12 
f 31/11/13 33/46/15 36/9/18 30/45/13 
f 32/10/14 26/47/10 33/46/15 31/11/13 
f 40/48/7 41/49/7 42/50/7 43/51/7 
f 44/52/7 45/53/7 41/49/7 40/48/7 
f 46/54/2 47/55/2 48/56/2 49/57/2 
f 50/58/2 51/59/2 47/55/2 46/54/2 
f 52/33/20 53/60/20 54/61/20 55/62/20 
f 53/60/20 56/63/21 57/64/21 54/61/20 
f 58/65/7 40/48/7 43/51/7 59/66/7 
f 60/67/7 44/52/7 40/48/7 58/65/7 
f 61/68/7 62/69/22 63/70/22 64/71/7 
f 61/68/7 65/72/7 66/73/23 62/69/22 
f 41/49/7 61/68/7 64/71/7 42/50/7 
f 45/53/7 65/72/7 61/68/7 41/49/7 
f 67/74/24 68/75/2 69/76/2 70/22/24 
f 71/77/25 72/78/2 68/75/2 67/74/24 
f 68/75/2 46/54/2 49/57/2 69/76/2 
f 72/78/2 50/58/2 46/54/2 68/75/2 
f 73/79/2 74/80/1 75/81/1 76/82/2 
f 77/83/2 27/30/1 74/80/1 73/79/2 
f 47/55/2 73/79/2 76/82/2 48/56/2 
f 51/59/2 77/83/2 73/79/2 47/55/2 
f 19/21/7 17/84/7 78/27/7 79/85/7 
f 17/84/7 15/25/7 25/27/7 78/27/7 
f 75/81/1 74/80/1 6/34/1 8/86/1 
f 74/80/1 27/30/1 2/87/1 6/34/1 
f 79/85/7 78/27/7 58/65/7 59/66/7 
f 78/27/7 25/27/7 60/67/7 58/65/7 
f 55/62/20 54/61/20 67/88/24 70/42/24 
f 53/60/20 52/33/20 63/70/22 62/89/22 
f 54/61/20 57/64/21 71/90/25 67/88/24 
f 56/63/21 53/60/20 62/89/22 66/91/23 
f 80/74/26 81/62/27 82/92/28 28/93/11 
f 83/62/27 84/33/29 85/32/30 86/94/31 
f 87/33/29 88/95/32 89/96/33 90/97/34 
f 91/98/26 92/99/27 81/62/27 80/74/26 
f 93/99/27 94/12/29 84/33/29 83/62/27 
f 95/12/29 96/56/32 88/95/32 87/33/29 
f 97/20/26 98/62/35 92/99/27 91/98/26 
f 99/62/36 100/33/37 94/12/29 93/99/27 
f 101/33/38 102/73/32 96/56/32 95/12/29 
f 103/100/39 104/101/40 98/62/35 97/20/26 
f 104/101/40 105/102/40 101/33/38 98/62/35 
f 105/102/40 106/51/41 102/73/32 101/33/38 
f 90/97/34 85/32/30 84/33/29 87/33/29 
f 87/33/29 84/33/29 94/12/29 95/12/29 
f 95/12/29 94/12/29 100/33/37 101/33/38 
f 101/33/38 100/33/37 99/62/36 98/62/35 
f 98/62/35 99/62/36 93/99/27 92/99/27 
f 92/99/27 93/99/27 83/62/27 81/62/27 
f 81/62/27 83/62/27 86/94/31 82/92/28 
f 56/103/21 66/104/23 106/51/41 105/102/40 
f 57/105/21 56/106/21 105/102/40 104/101/40 
f 71/107/25 57/108/21 104/101/40 103/100/39 
f 33/109/15 26/110/10 28/93/11 82/92/28 
f 35/111/17 34/112/16 86/94/31 85/32/30 
f 37/113/19 36/114/18 90/97/34 89/96/33 
f 36/114/18 35/111/17 85/32/30 90/97/34 
f 82/92/28 86/94/31 34/112/16 33/109/15 
f 27/30/1 77/83/2 80/115/26 28/31/11 
f 77/83/2 51/59/2 91/116/26 80/115/26 
f 51/59/2 50/58/2 97/117/26 91/116/26 
f 50/58/2 72/78/2 103/118/39 97/117/26 
f 72/78/2 71/77/25 103/118/39 
f 66/73/23 65/72/7 106/119/41 
f 65/72/7 45/53/7 102/120/32 106/119/41 
f 45/53/7 44/52/7 96/121/32 102/120/32 
f 44/52/7 60/67/7 88/122/32 96/121/32 
f 60/67/7 25/27/7 89/123/33 88/122/32 
f 55/62/20 107/62/20 108/33/20 52/33/20 
f 63/70/22 109/70/42 110/71/6 64/71/7 
f 64/71/7 110/71/6 111/50/6 42/50/7 
f 69/76/2 112/76/43 113/22/44 70/22/24 
f 49/57/2 114/57/43 112/76/43 69/76/2 
f 52/33/20 108/33/20 109/70/42 63/70/22 
f 25/27/7 14/26/7 37/124/19 89/123/33 
f 27/30/1 3/29/1 2/87/1 
f 19/19/7 115/19/6 116/20/6 20/20/6 
f 43/51/7 117/51/6 118/66/6 59/66/7 
f 75/81/1 119/81/45 120/82/43 76/82/2 
f 79/85/7 121/85/6 115/21/6 19/21/7 
f 122/1/1 123/4/2 124/3/45 125/2/45 
f 126/5/1 122/1/1 125/2/45 127/6/1 
f 38/7/1 126/5/1 127/6/1 39/8/1 
f 128/9/46 129/12/46 130/11/46 131/10/46 
f 132/13/6 133/16/6 134/15/6 135/14/6 
f 134/15/6 133/16/6 136/18/6 137/17/6 
f 137/17/6 136/18/6 116/20/6 115/19/6 
f 129/12/46 138/22/47 139/21/47 130/11/46 
f 131/10/46 140/24/48 141/23/48 128/9/46 
f 134/25/6 142/27/6 135/26/6 
f 143/28/49 144/31/50 145/30/45 124/29/45 
f 146/32/51 147/35/52 130/34/46 139/33/47 
f 148/12/52 149/33/53 140/36/48 131/8/46 
f 150/37/54 151/39/55 152/35/56 153/38/57 
f 154/40/58 146/40/51 139/17/47 135/17/6 
f 135/14/6 139/24/47 138/23/47 132/13/6 
f 123/4/2 141/42/48 140/41/48 124/3/45 
f 124/6/45 140/6/48 149/44/53 143/43/49 
f 130/11/46 147/35/52 148/32/52 131/8/46 
f 147/45/52 146/39/51 154/43/58 151/9/55 
f 148/11/52 147/45/52 151/9/55 150/46/54 
f 149/10/53 148/11/52 150/46/54 143/47/49 
f 155/48/6 117/51/6 111/50/6 156/49/6 
f 157/52/6 155/48/6 156/49/6 158/53/6 
f 159/54/43 114/57/43 160/56/43 161/55/43 
f 162/58/43 159/54/43 161/55/43 163/59/43 
f 108/33/20 107/62/20 164/61/20 165/60/20 
f 165/60/20 164/61/20 166/64/59 167/63/59 
f 168/65/6 118/66/6 117/51/6 155/48/6 
f 169/67/6 168/65/6 155/48/6 157/52/6 
f 170/68/6 110/71/6 109/70/42 171/69/42 
f 170/68/6 171/69/42 172/73/60 173/72/6 
f 156/49/6 111/50/6 110/71/6 170/68/6 
f 158/53/6 156/49/6 170/68/6 173/72/6 
f 174/74/44 113/22/44 112/76/43 175/75/43 
f 176/77/61 174/74/44 175/75/43 177/78/43 
f 175/75/43 112/76/43 114/57/43 159/54/43 
f 177/78/43 175/75/43 159/54/43 162/58/43 
f 178/79/43 120/82/43 119/81/45 179/80/45 
f 180/83/43 178/79/43 179/80/45 145/30/45 
f 161/55/43 160/56/43 120/82/43 178/79/43 
f 163/59/43 161/55/43 178/79/43 180/83/43 
f 115/21/6 121/85/6 181/27/6 137/84/6 
f 137/84/6 181/27/6 142/27/6 134/25/6 
f 119/81/45 39/86/1 127/34/1 179/80/45 
f 179/80/45 127/34/1 125/87/45 145/30/45 
f 121/85/6 118/66/6 168/65/6 181/27/6 
f 181/27/6 168/65/6 169/67/6 142/27/6 
f 107/62/20 113/42/44 174/88/44 164/61/20 
f 165/60/20 171/89/42 109/70/42 108/33/20 
f 164/61/20 174/88/44 176/90/61 166/64/59 
f 167/63/59 172/91/60 171/89/42 165/60/20 
f 182/74/48 144/93/50 183/92/62 184/62/63 
f 185/62/63 186/94/64 187/32/65 188/33/66 
f 189/33/66 190/97/67 191/96/68 192/95/47 
f 193/98/48 182/74/48 184/62/63 194/99/63 
f 195/99/63 185/62/63 188/33/66 196/12/66 
f 197/12/66 189/33/66 192/95/47 198/56/47 
f 199/20/48 193/98/48 194/99/63 200/62/69 
f 201/62/70 195/99/63 196/12/66 202/33/71 
f 203/33/72 197/12/66 198/56/47 204/73/47 
f 205/100/73 199/20/48 200/62/69 206/101/74 
f 206/101/74 200/62/69 203/33/72 207/102/74 
f 207/102/74 203/33/72 204/73/47 208/51/75 
f 190/97/67 189/33/66 188/33/66 187/32/65 
f 189/33/66 197/12/66 196/12/66 188/33/66 
f 197/12/66 203/33/72 202/33/71 196/12/66 
f 203/33/72 200/62/69 201/62/70 202/33/71 
f 200/62/69 194/99/63 195/99/63 201/62/70 
f 194/99/63 184/62/63 185/62/63 195/99/63 
f 184/62/63 183/92/62 186/94/64 185/62/63 
f 167/103/59 207/102/74 208/51/75 172/104/60 
f 166/105/59 206/101/74 207/102/74 167/106/59 
f 176/107/61 205/100/73 206/101/74 166/108/59 
f 150/109/54 183/92/62 144/93/50 143/110/49 
f 152/111/56 187/32/65 186/94/64 153/112/57 
f 154/113/58 191/96/68 190/97/67 151/114/55 
f 151/114/55 190/97/67 187/32/65 152/111/56 
f 183/92/62 150/109/54 153/112/57 186/94/64 
f 145/30/45 144/31/50 182/115/48 180/83/43 
f 180/83/43 182/115/48 193/116/48 163/59/43 
f 163/59/43 193/116/48 199/117/48 162/58/43 
f 162/58/43 199/117/48 205/118/73 177/78/43 
f 177/78/43 205/118/73 176/77/61 
f 172/73/60 208/119/75 173/72/6 
f 173/72/6 208/119/75 204/120/47 158/53/6 
f 158/53/6 204/120/47 198/121/47 157/52/6 
f 157/52/6 198/121/47 192/122/47 169/67/6 
f 169/67/6 192/122/47 191/123/68 142/27/6 
f 111/50/6 117/51/6 43/51/7 42/50/7 
f 160/56/43 114/57/43 49/57/2 48/56/2 
f 120/82/43 160/56/43 48/56/2 76/82/2 
f 118/66/6 121/85/6 79/85/7 59/66/7 
f 113/42/44 107/62/20 55/62/20 70/42/24 
f 142/27/6 191/123/68 154/124/58 135/26/6 
f 145/30/45 125/87/45 124/29/45 
f 8/86/1 39/86/1 119/81/45 75/81/1 
# 191 polygons - 8 triangles

