# 3ds Max Wavefront OBJ Exporter v0.97b - (c)2007 guruware
# File Created: 24.11.2019 19:40:50

#
# object ground_gap_side
#

v  5.8605 -2.0000 5.5000
v  3.5816 -2.0000 5.5000
v  3.5816 -2.0000 4.0000
v  5.8605 -2.0000 4.0000
v  8.1395 0.0000 5.5000
v  10.4184 0.0000 5.5000
v  10.4184 0.0000 4.0000
v  8.1395 0.0000 4.0000
v  8.1395 -2.0000 4.0000
v  10.4184 -2.0000 4.0000
v  10.4184 -2.0000 5.5000
v  8.1395 -2.0000 5.5000
v  10.4184 -1.3333 7.0000
v  10.4184 -0.6667 7.0000
v  8.5100 -0.6667 7.0000
v  8.5100 -1.3333 7.0000
v  8.1395 0.0000 2.5000
v  10.4184 0.0000 2.5000
v  10.4184 0.0000 1.3750
v  8.1395 0.0000 1.3750
v  8.5100 0.0000 7.0000
v  10.4184 0.0000 7.0000
v  10.4184 0.0000 6.6321
v  8.1395 0.0000 6.6321
v  8.1395 -2.0000 6.6321
v  10.4184 -2.0000 6.6321
v  10.4184 -2.0000 7.0000
v  8.1395 -2.0000 7.0000
v  5.8605 -2.0000 6.6321
v  5.8605 -2.0000 7.0000
v  8.1395 -2.0000 0.0000
v  10.4184 -2.0000 0.0000
v  10.4184 -2.0000 1.0000
v  8.1395 -2.0000 1.0000
v  5.8605 -2.0000 0.0000
v  5.8605 -2.0000 1.0000
v  8.1395 -2.0000 2.5000
v  10.4184 -2.0000 2.5000
v  5.8605 -2.0000 2.5000
v  5.8605 -2.0000 1.3750
v  3.5816 -2.0000 1.3750
v  3.5816 -2.0000 1.0000
v  10.4184 0.0000 1.0000
v  10.4184 0.0000 0.0000
v  8.1395 0.0000 0.0000
v  8.1395 0.0000 1.0000
v  5.8605 0.0000 0.0000
v  5.8605 0.0000 1.0000
v  10.4184 -2.0000 1.3750
v  8.1395 -2.0000 1.3750
v  5.8605 0.0000 1.3750
v  3.5816 -2.0000 2.5000
v  5.8605 -1.3333 7.0000
v  5.8605 -1.7012 7.0000
v  8.1395 -0.6667 4.0000
v  8.1395 -0.6667 5.5000
v  8.1395 -0.6667 1.3750
v  8.1395 -0.6667 2.5000
v  8.1395 -0.6667 6.6321
v  5.8605 -0.3417 1.3750
v  8.1395 -1.3333 4.0000
v  8.1395 -1.3333 5.5000
v  8.1395 -1.3333 1.3750
v  8.1395 -1.3333 2.5000
v  8.1395 -1.3333 6.6321
v  5.8605 -1.3333 1.3750
v  5.8605 -1.3333 2.5000
v  3.5816 -1.3333 1.3750
v  3.5816 -1.3333 2.5000
v  5.8605 -1.3333 4.0000
v  5.8605 -1.3333 5.5000
v  3.5816 -1.3333 4.0000
v  3.5816 -1.3333 5.5000
v  5.8605 -1.3333 6.6321
v  3.5816 -1.3333 6.6321
v  3.5816 -2.0000 0.0000
v  3.5816 0.0000 0.0000
v  3.5816 0.0000 1.0000
v  3.5816 -2.0000 7.0000
v  3.5816 -2.0000 6.6321
v  1.3026 -2.0000 5.5000
v  1.3026 -2.0000 4.0000
v  1.3026 -2.0000 7.0000
v  1.3026 -2.0000 6.6321
v  1.3026 -2.0000 1.0000
v  1.3026 -2.0000 0.0000
v  1.3026 -2.0000 2.5000
v  1.3026 0.0000 1.0000
v  1.3026 0.0000 0.0000
v  1.3026 -2.0000 1.3750
v  1.3026 0.0000 1.3750
v  3.5816 0.0000 1.3750
v  3.5816 -1.3333 7.0000
v  1.3179 -1.3333 7.0000
v  3.5816 -1.7012 7.0000
v  1.3026 0.0000 5.5000
v  1.3026 -0.6667 5.5000
v  1.3026 -0.6667 4.0000
v  1.3026 0.0000 4.0000
v  1.3026 0.0000 2.5000
v  1.3026 -0.6667 2.5000
v  1.3026 -0.6667 1.3750
v  1.3026 0.0000 6.6321
v  1.3026 -0.6667 6.6321
v  3.5816 -0.3417 1.3750
v  1.3026 -1.3333 5.5000
v  1.3026 -1.3333 4.0000
v  1.3026 -1.3333 2.5000
v  1.3026 -1.3333 1.3750
v  1.3026 -1.3333 6.6321
v  1.0000 -0.6667 7.0000
v  1.0000 -1.3333 7.0000
v  1.0000 0.0000 7.0000
v  14.0000 -1.3333 4.0000
v  14.0000 -0.6667 4.0000
v  14.0000 -0.6667 5.5000
v  14.0000 -1.3333 5.5000
v  14.0000 -1.3333 1.3750
v  14.0000 -0.6667 1.3750
v  14.0000 -0.6667 2.5000
v  14.0000 -1.3333 2.5000
v  14.0000 -0.6667 7.0000
v  14.0000 -1.3333 7.0000
v  14.0000 -1.3333 6.6321
v  14.0000 -0.6667 6.6321
v  12.6974 0.0000 5.5000
v  13.0000 0.0000 5.5000
v  13.0000 0.0000 4.0000
v  12.6974 0.0000 4.0000
v  12.6974 -2.0000 4.0000
v  13.0000 -2.0000 4.0000
v  13.0000 -2.0000 5.5000
v  12.6974 -2.0000 5.5000
v  13.0000 -1.3333 7.0000
v  13.0000 -0.6667 7.0000
v  12.6974 -0.6667 7.0000
v  12.6974 -1.3333 7.0000
v  12.6974 0.0000 2.5000
v  13.0000 0.0000 2.5000
v  13.0000 0.0000 1.3750
v  12.6974 0.0000 1.3750
v  12.6974 0.0000 7.0000
v  13.0000 0.0000 7.0000
v  13.0000 0.0000 6.6321
v  12.6974 0.0000 6.6321
v  12.6974 -2.0000 6.6321
v  13.0000 -2.0000 6.6321
v  13.0000 -2.0000 7.0000
v  12.6974 -2.0000 7.0000
v  12.6974 -2.0000 0.0000
v  13.0000 -2.0000 0.0000
v  13.0000 -2.0000 1.0000
v  12.6974 -2.0000 1.0000
v  12.6974 -2.0000 2.5000
v  13.0000 -2.0000 2.5000
v  14.0000 0.0000 5.5000
v  14.0000 0.0000 4.0000
v  14.0000 -2.0000 4.0000
v  14.0000 -2.0000 5.5000
v  14.0000 0.0000 2.5000
v  14.0000 0.0000 1.3750
v  14.0000 0.0000 7.0000
v  14.0000 0.0000 6.6321
v  14.0000 -2.0000 6.6321
v  14.0000 -2.0000 7.0000
v  14.0000 -2.0000 0.0000
v  14.0000 -2.0000 1.0000
v  14.0000 -2.0000 2.5000
v  14.0000 -1.3333 0.0000
v  14.0000 -0.6667 0.0000
v  14.0000 -0.6667 1.0000
v  14.0000 -1.3333 1.0000
v  13.0000 0.0000 1.0000
v  13.0000 0.0000 0.0000
v  12.6974 0.0000 0.0000
v  12.6974 0.0000 1.0000
v  13.0000 -2.0000 1.3750
v  12.6974 -2.0000 1.3750
v  14.0000 0.0000 1.0000
v  14.0000 0.0000 0.0000
v  14.0000 -2.0000 1.3750
v  -0.0000 -1.3333 4.0000
v  -0.0000 -1.3333 5.5000
v  -0.0000 -0.6667 5.5000
v  -0.0000 -0.6667 4.0000
v  0.0000 -1.3333 1.3750
v  -0.0000 -1.3333 2.5000
v  -0.0000 -0.6667 2.5000
v  0.0000 -0.6667 1.3750
v  -0.0000 -0.6667 7.0000
v  -0.0000 -0.6667 6.6321
v  -0.0000 -1.3333 6.6321
v  -0.0000 -1.3333 7.0000
v  1.0000 0.0000 4.0000
v  1.0000 0.0000 5.5000
v  1.0000 -2.0000 5.5000
v  1.0000 -2.0000 4.0000
v  1.0000 0.0000 1.3750
v  1.0000 0.0000 2.5000
v  1.0000 0.0000 6.6321
v  1.0000 -2.0000 7.0000
v  1.0000 -2.0000 6.6321
v  1.0000 -2.0000 1.0000
v  1.0000 -2.0000 0.0000
v  1.0000 -2.0000 2.5000
v  -0.0000 0.0000 4.0000
v  -0.0000 0.0000 5.5000
v  -0.0000 -2.0000 5.5000
v  -0.0000 -2.0000 4.0000
v  0.0000 0.0000 1.3750
v  -0.0000 0.0000 2.5000
v  -0.0000 0.0000 6.6321
v  -0.0000 0.0000 7.0000
v  -0.0000 -2.0000 7.0000
v  -0.0000 -2.0000 6.6321
v  -0.0000 -2.0000 1.0000
v  -0.0000 -2.0000 0.0000
v  -0.0000 -2.0000 2.5000
v  -0.0000 -1.3333 0.0000
v  -0.0000 -1.3333 1.0000
v  -0.0000 -0.6667 1.0000
v  -0.0000 -0.6667 0.0000
v  1.0000 0.0000 1.0000
v  1.0000 0.0000 0.0000
v  1.0000 -2.0000 1.3750
v  -0.0000 0.0000 1.0000
v  -0.0000 0.0000 0.0000
v  0.0000 -2.0000 1.3750
# 228 vertices

vn 0.0000 -1.0000 -0.0000
vn -0.7071 0.7071 -0.0000
vn 0.0000 1.0000 -0.0000
vn -0.0000 0.0000 1.0000
vn -0.3810 0.0000 0.9246
vn -0.1850 0.1307 0.9740
vn -0.3015 0.9045 0.3015
vn -0.2957 0.6306 0.7176
vn -0.0000 0.7071 0.7071
vn -0.7170 0.6300 0.2985
vn -0.0000 -0.7071 0.7071
vn 0.0000 -0.7071 0.7071
vn -0.1229 0.9767 0.1759
vn -0.5774 0.5774 0.5774
vn -0.1314 0.1858 0.9738
vn -1.0000 0.0000 -0.0000
vn -0.7071 0.0000 0.7071
vn -0.9232 0.0000 0.3843
vn -0.1399 0.1953 0.9707
vn -0.5774 0.5774 0.5773
vn -0.5481 0.8047 0.2282
vn -0.1313 0.9738 0.1857
vn 0.1313 0.9738 0.1857
vn 0.1229 0.9767 0.1759
vn -0.0000 1.0000 -0.0000
vn 0.3015 0.9045 0.3015
vn 0.5774 0.5774 0.5774
vn 0.5773 0.5774 0.5773
vn 0.1314 0.1858 0.9738
vn 0.7071 0.7071 -0.0000
vn 1.0000 -0.0000 0.0000
vn 0.7071 0.7071 0.0000
vn 1.0000 -0.0000 -0.0000
vn 0.7071 -0.0000 0.7071
vn 0.7245 0.6385 0.2597
vn 0.9414 -0.0000 0.3374
vn 0.1399 0.1953 0.9707
vn 0.5753 0.7915 0.2062
vn 0.4271 -0.0000 0.9042
vn 0.2055 0.1495 0.9672
vn 0.3343 0.6224 0.7077
vn 1.0000 0.0000 -0.0000
vn 1.0000 0.0000 0.0000
vn 0.7071 0.0000 0.7071
vn 0.0000 0.0000 1.0000
vn 0.0000 0.7071 0.7071
vn 0.7071 -0.7071 -0.0000
vn 0.7071 -0.7071 0.0000
vn 0.5774 -0.5774 0.5774
vn -1.0000 0.0000 0.0000
vn -0.7071 -0.7071 -0.0000
vn -0.7071 0.7071 0.0000
vn -0.5774 -0.5774 0.5774
vn -0.7071 -0.7071 0.0000
# 54 vertex normals

vt 0.6961 0.5814 0.0000
vt 0.4447 0.5814 0.0000
vt 0.3039 0.7442 0.0000
vt 0.3039 0.9070 0.0000
vt 0.5553 0.9070 0.0000
vt 0.5553 0.7442 0.0000
vt 0.4447 0.7442 0.0000
vt 0.4447 0.9070 0.0000
vt 0.6961 0.9070 0.0000
vt 0.6961 0.7442 0.0000
vt 0.9070 0.6667 0.0000
vt 0.9070 0.3333 0.0000
vt 0.7706 0.3333 0.0000
vt 0.7706 0.6667 0.0000
vt 0.8067 0.7442 0.0000
vt 0.8067 0.9070 0.0000
vt 0.8792 0.9070 0.0000
vt 0.8792 0.7245 0.0000
vt 0.0000 0.7706 0.0000
vt 0.0000 0.9070 0.0000
vt 0.0526 0.9070 0.0000
vt 0.0526 0.7442 0.0000
vt 0.9474 0.7442 0.0000
vt 0.9474 0.9070 0.0000
vt 1.0000 0.9070 0.0000
vt 1.0000 0.7442 0.0000
vt 0.9474 0.5814 0.0000
vt 1.0000 0.5814 0.0000
vt 0.0000 0.7442 0.0000
vt 0.0967 0.9070 0.0000
vt 0.0967 0.7442 0.0000
vt 0.0000 0.5814 0.0000
vt 0.0967 0.5814 0.0000
vt 0.1933 0.7442 0.0000
vt 0.1933 0.9070 0.0000
vt 0.1933 0.5814 0.0000
vt 0.1208 0.5814 0.0000
vt 0.9033 0.9070 0.0000
vt 0.8969 0.7442 0.0000
vt 0.9033 0.5814 0.0000
vt 0.1208 0.9070 0.0000
vt 0.1208 0.7442 0.0000
vt 0.8792 0.5814 0.0000
vt 0.9070 0.0000 0.0000
vt 0.7706 0.0000 0.0000
vt 0.7442 1.0000 0.0000
vt 0.9070 1.0000 0.0000
vt 0.5814 0.6667 0.0000
vt 0.5814 0.8545 0.0000
vt 0.8615 0.7442 0.0000
vt 0.8565 0.6265 0.0000
vt 0.1933 0.3333 0.0000
vt 0.1933 0.6667 0.0000
vt 1.0000 0.6667 0.0000
vt 0.0000 0.6667 0.0000
vt 0.8067 0.6667 0.0000
vt 0.0000 0.3333 0.0000
vt 0.5553 0.6667 0.0000
vt 1.0000 0.3333 0.0000
vt 0.0526 0.3333 0.0000
vt 0.0152 0.3333 0.0000
vt 0.3039 0.3333 0.0000
vt 0.0085 0.7442 0.0000
vt 0.5814 1.0000 0.0000
vt 0.7473 0.6667 0.0000
vt 0.0507 0.3333 0.0000
vt 0.5553 0.3333 0.0000
vt 0.3039 0.6667 0.0000
vt 0.8792 0.6667 0.0000
vt 0.8792 0.3333 0.0000
vt 0.8067 0.3333 0.0000
vt 0.0526 0.6667 0.0000
vt 0.3039 0.9535 0.0000
vt 0.5553 0.9535 0.0000
vt 0.4447 0.9535 0.0000
vt 0.6961 0.9535 0.0000
vt 0.9535 0.6667 0.0000
vt 0.9535 0.3333 0.0000
vt 0.8067 0.9535 0.0000
vt 0.8792 0.9535 0.0000
vt 0.0000 0.9535 0.0000
vt 0.0526 0.9535 0.0000
vt 0.9474 0.9535 0.0000
vt 1.0000 0.9535 0.0000
vt 0.0967 0.9535 0.0000
vt 0.1933 0.9535 0.0000
vt 0.3039 1.0000 0.0000
vt 0.5553 1.0000 0.0000
vt 0.4447 1.0000 0.0000
vt 0.6961 1.0000 0.0000
vt 0.8067 1.0000 0.0000
vt 0.8792 1.0000 0.0000
vt 0.0000 1.0000 0.0000
vt 0.0526 1.0000 0.0000
vt 0.9474 1.0000 0.0000
vt 1.0000 1.0000 0.0000
vt 0.0967 1.0000 0.0000
vt 0.1933 1.0000 0.0000
vt 0.9033 0.3333 0.0000
vt 0.9033 0.6667 0.0000
vt 0.9033 0.9535 0.0000
vt 0.1208 0.9535 0.0000
vt 0.9033 1.0000 0.0000
vt 0.1208 1.0000 0.0000
vt 0.5553 0.0000 0.0000
vt 0.3039 0.0000 0.0000
vt 0.8792 0.0000 0.0000
vt 0.8067 0.0000 0.0000
vt 0.0526 0.0000 0.0000
vt 0.0000 0.0000 0.0000
vt 0.9535 0.0000 0.0000
vt 0.9535 1.0000 0.0000
vt 1.0000 0.0000 0.0000
vt 0.9033 0.0000 0.0000
vt 0.0000 0.9302 0.0000
# 115 texture coords

o ground_gap_side
g ground_gap_side
f 1/1/1 2/1/1 3/2/1 4/2/1 
f 5/3/2 6/4/3 7/5/3 8/6/2 
f 9/7/1 10/8/1 11/9/1 12/10/1 
f 4/2/1 9/7/1 12/10/1 1/1/1 
f 13/11/4 14/12/4 15/13/5 16/14/6 
f 17/15/2 18/16/3 19/17/3 20/18/7 
f 8/6/2 7/5/3 18/16/3 17/15/2 
f 21/19/8 22/20/9 23/21/3 24/22/10 
f 24/22/10 23/21/3 6/4/3 5/3/2 
f 25/23/1 26/24/1 27/25/11 28/26/11 
f 29/27/1 25/23/1 28/26/11 30/28/12 
f 12/10/1 11/9/1 26/24/1 25/23/1 
f 1/1/1 12/10/1 25/23/1 29/27/1 
f 31/29/1 32/20/1 33/30/1 34/31/1 
f 35/32/1 31/29/1 34/31/1 36/33/1 
f 37/34/1 38/35/1 10/8/1 9/7/1 
f 39/36/1 37/34/1 9/7/1 4/2/1 
f 36/33/1 40/37/1 41/37/1 42/33/1 
f 43/38/3 44/25/3 45/26/3 46/39/3 
f 46/39/3 45/26/3 47/28/3 48/40/13 
f 33/30/1 49/41/1 50/42/1 34/31/1 
f 34/31/1 50/42/1 40/37/1 36/33/1 
f 19/17/3 43/38/3 46/39/3 20/18/7 
f 20/18/7 46/39/3 48/40/13 51/43/14 
f 40/37/1 39/36/1 52/36/1 41/37/1 
f 49/41/1 38/35/1 37/34/1 50/42/1 
f 50/42/1 37/34/1 39/36/1 40/37/1 
f 14/12/4 22/44/9 21/45/8 15/13/5 
f 16/14/6 28/46/11 27/47/11 13/11/4 
f 53/48/14 54/49/15 16/14/6 
f 5/3/2 8/6/2 55/6/16 56/3/16 
f 17/15/2 20/18/7 57/50/17 58/15/16 
f 8/6/2 17/15/2 58/15/16 55/6/16 
f 24/22/10 5/3/2 56/3/16 59/22/18 
f 20/18/7 51/43/14 60/43/19 57/50/17 
f 56/3/16 55/6/16 61/6/2 62/3/2 
f 58/15/16 57/50/17 63/18/20 64/15/2 
f 55/6/16 58/15/16 64/15/2 61/6/2 
f 59/22/18 56/3/16 62/3/2 65/22/21 
f 63/51/20 66/52/9 67/53/3 64/54/2 
f 67/53/3 66/52/9 68/52/9 69/53/3 
f 61/55/2 64/54/2 67/53/3 70/56/3 
f 62/57/2 61/55/2 70/56/3 71/58/3 
f 71/58/3 70/56/3 72/56/3 73/58/3 
f 65/59/21 62/57/2 71/58/3 74/60/22 
f 74/60/22 71/58/3 73/58/3 75/60/23 
f 48/40/13 60/43/19 51/43/14 
f 74/60/22 54/60/15 53/48/14 
f 16/61/6 65/59/21 74/60/22 53/62/14 
f 15/63/5 59/22/18 65/22/21 16/63/6 
f 21/63/8 24/22/10 59/22/18 15/63/5 
f 54/49/15 30/64/12 28/46/11 16/14/6 
f 35/32/1 36/33/1 42/33/1 76/32/1 
f 39/36/1 4/2/1 3/2/1 52/36/1 
f 60/43/19 66/43/9 63/18/20 57/50/17 
f 77/28/3 78/40/24 48/40/13 47/28/3 
f 79/28/12 80/27/1 29/27/1 30/28/12 
f 80/27/1 2/1/1 1/1/1 29/27/1 
f 3/2/1 2/1/1 81/10/1 82/7/1 
f 80/27/1 79/28/12 83/26/12 84/23/1 
f 2/1/1 80/27/1 84/23/1 81/10/1 
f 76/32/1 42/33/1 85/31/1 86/29/1 
f 52/36/1 3/2/1 82/7/1 87/34/1 
f 88/39/25 78/40/24 77/28/3 89/26/3 
f 85/31/1 42/33/1 41/37/1 90/42/1 
f 91/18/26 92/43/27 78/40/24 88/39/25 
f 90/42/1 41/37/1 52/36/1 87/34/1 
f 93/48/28 94/65/9 95/49/29 
f 96/3/30 97/3/31 98/6/31 99/6/32 
f 100/15/30 101/15/33 102/50/34 91/18/26 
f 99/6/32 98/6/31 101/15/33 100/15/30 
f 103/22/35 104/22/36 97/3/31 96/3/30 
f 91/18/26 102/50/34 105/43/37 92/43/27 
f 97/3/31 106/3/32 107/6/32 98/6/31 
f 101/15/33 108/15/30 109/18/27 102/50/34 
f 98/6/31 107/6/32 108/15/30 101/15/33 
f 104/22/36 110/22/38 106/3/32 97/3/31 
f 109/51/27 108/54/30 69/53/3 68/52/9 
f 107/55/32 72/56/3 69/53/3 108/54/30 
f 72/56/3 70/56/3 67/53/3 69/53/3 
f 106/57/32 73/58/3 72/56/3 107/55/32 
f 110/59/38 75/60/23 73/58/3 106/57/32 
f 75/60/23 95/60/29 54/60/15 74/60/22 
f 78/40/24 92/43/27 105/43/37 
f 75/60/23 93/48/28 95/60/29 
f 94/66/9 93/62/28 75/60/23 110/59/38 
f 111/63/39 112/63/40 110/22/38 104/22/36 
f 113/63/41 111/63/39 104/22/36 103/22/35 
f 95/49/29 94/65/9 83/46/12 79/64/12 
f 66/43/9 60/43/19 105/43/37 68/43/9 
f 60/43/19 48/43/13 78/43/24 105/43/37 
f 30/64/12 54/49/15 95/49/29 79/64/12 
f 105/43/37 102/50/34 109/18/27 68/43/9 
f 114/58/42 115/67/42 116/62/43 117/68/43 
f 118/69/42 119/70/42 120/71/42 121/56/42 
f 121/56/42 120/71/42 115/67/42 114/58/42 
f 122/57/44 123/55/44 124/72/43 125/60/43 
f 125/60/43 124/72/43 117/68/43 116/62/43 
f 126/4/3 127/73/3 128/74/3 129/5/3 
f 130/8/1 131/75/1 132/76/1 133/9/1 
f 134/77/45 135/78/45 136/12/45 137/11/45 
f 138/16/3 139/79/3 140/80/3 141/17/3 
f 129/5/3 128/74/3 139/79/3 138/16/3 
f 142/20/46 143/81/46 144/82/3 145/21/3 
f 145/21/3 144/82/3 127/73/3 126/4/3 
f 146/24/1 147/83/1 148/84/12 149/25/12 
f 133/9/1 132/76/1 147/83/1 146/24/1 
f 150/20/1 151/81/1 152/85/1 153/30/1 
f 154/35/1 155/86/1 131/75/1 130/8/1 
f 127/73/3 156/87/32 157/88/30 128/74/3 
f 131/75/1 158/89/47 159/90/48 132/76/1 
f 123/54/44 122/59/44 135/78/45 134/77/45 
f 139/79/3 160/91/30 161/92/30 140/80/3 
f 128/74/3 157/88/30 160/91/30 139/79/3 
f 143/81/46 162/93/27 163/94/32 144/82/3 
f 144/82/3 163/94/32 156/87/32 127/73/3 
f 147/83/1 164/95/48 165/96/49 148/84/12 
f 132/76/1 159/90/48 164/95/48 147/83/1 
f 151/81/1 166/93/47 167/97/47 152/85/1 
f 155/86/1 168/98/47 158/89/47 131/75/1 
f 169/54/42 170/59/42 171/99/42 172/100/42 
f 173/101/3 174/84/3 175/25/3 176/38/3 
f 152/85/1 177/102/1 178/41/1 153/30/1 
f 179/103/30 180/96/30 174/84/3 173/101/3 
f 167/97/47 181/104/47 177/102/1 152/85/1 
f 172/100/42 171/99/42 119/70/42 118/69/42 
f 140/80/3 173/101/3 176/38/3 141/17/3 
f 161/92/30 179/103/30 173/101/3 140/80/3 
f 177/102/1 155/86/1 154/35/1 178/41/1 
f 181/104/47 168/98/47 155/86/1 177/102/1 
f 115/67/42 157/105/30 156/106/32 116/62/43 
f 117/68/43 159/87/48 158/88/47 114/58/42 
f 119/70/42 161/107/30 160/108/30 120/71/42 
f 121/56/42 168/91/47 181/92/47 118/69/42 
f 120/71/42 160/108/30 157/105/30 115/67/42 
f 114/58/42 158/88/47 168/91/47 121/56/42 
f 123/55/44 165/93/49 164/94/48 124/72/43 
f 125/60/43 163/109/32 162/110/27 122/57/44 
f 124/72/43 164/94/48 159/87/48 117/68/43 
f 116/62/43 156/106/32 163/109/32 125/60/43 
f 135/78/45 143/111/46 142/44/46 136/12/45 
f 137/11/45 149/47/12 148/112/12 134/77/45 
f 122/59/44 162/113/27 143/111/46 135/78/45 
f 134/77/45 148/112/12 165/96/49 123/54/44 
f 170/59/42 180/113/30 179/114/30 171/99/42 
f 172/100/42 167/103/47 166/96/47 169/54/42 
f 171/99/42 179/114/30 161/107/30 119/70/42 
f 118/69/42 181/92/47 167/103/47 172/100/42 
f 182/58/16 183/68/16 184/62/16 185/67/16 
f 186/69/50 187/56/16 188/71/16 189/70/50 
f 187/56/16 182/58/16 185/67/16 188/71/16 
f 190/57/17 191/60/16 192/72/16 193/55/17 
f 191/60/16 184/62/16 183/68/16 192/72/16 
f 96/4/30 99/5/32 194/74/3 195/73/3 
f 82/8/1 81/9/1 196/76/1 197/75/1 
f 100/16/30 91/17/26 198/80/3 199/79/3 
f 99/5/32 100/16/30 199/79/3 194/74/3 
f 103/21/35 200/82/3 113/115/41 
f 103/21/35 96/4/30 195/73/3 200/82/3 
f 84/24/1 83/25/12 201/84/12 202/83/1 
f 81/9/1 84/24/1 202/83/1 196/76/1 
f 86/20/1 85/30/1 203/85/1 204/81/1 
f 87/35/1 82/8/1 197/75/1 205/86/1 
f 195/73/3 194/74/3 206/88/2 207/87/2 
f 197/75/1 196/76/1 208/90/51 209/89/51 
f 193/54/17 112/77/40 111/78/39 190/59/17 
f 199/79/3 198/80/3 210/92/52 211/91/2 
f 194/74/3 199/79/3 211/91/2 206/88/2 
f 113/115/41 200/82/3 212/94/2 213/93/14 
f 200/82/3 195/73/3 207/87/2 212/94/2 
f 202/83/1 201/84/12 214/96/53 215/95/51 
f 196/76/1 202/83/1 215/95/51 208/90/51 
f 204/81/1 203/85/1 216/97/54 217/93/51 
f 205/86/1 197/75/1 209/89/51 218/98/51 
f 219/54/16 220/100/50 221/99/50 222/59/16 
f 223/101/3 88/38/25 89/25/3 224/84/3 
f 203/85/1 85/30/1 90/41/1 225/102/1 
f 226/103/52 223/101/3 224/84/3 227/96/2 
f 216/97/54 203/85/1 225/102/1 228/104/54 
f 220/100/50 186/69/50 189/70/50 221/99/50 
f 198/80/3 91/17/26 88/38/25 223/101/3 
f 210/92/52 198/80/3 223/101/3 226/103/52 
f 225/102/1 90/41/1 87/35/1 205/86/1 
f 228/104/54 225/102/1 205/86/1 218/98/51 
f 185/67/16 184/62/16 207/106/2 206/105/2 
f 183/68/16 182/58/16 209/88/51 208/87/51 
f 189/70/50 188/71/16 211/108/2 210/107/52 
f 187/56/16 186/69/50 228/92/54 218/91/51 
f 188/71/16 185/67/16 206/105/2 211/108/2 
f 182/58/16 187/56/16 218/91/51 209/88/51 
f 193/55/17 192/72/16 215/94/51 214/93/53 
f 191/60/16 190/57/17 213/110/14 212/109/2 
f 192/72/16 183/68/16 208/87/51 215/94/51 
f 184/62/16 191/60/16 212/109/2 207/106/2 
f 190/59/17 111/78/39 113/111/41 213/113/14 
f 112/77/40 193/54/17 214/96/53 201/112/12 
f 222/59/16 221/99/50 226/114/52 227/113/2 
f 220/100/50 219/54/16 217/96/51 216/103/54 
f 221/99/50 189/70/50 210/107/52 226/114/52 
f 186/69/50 220/100/50 216/103/54 228/92/54 
f 110/59/38 112/61/40 94/66/9 
f 112/61/40 201/112/12 83/25/12 94/65/9 
f 7/5/3 6/4/3 126/4/3 129/5/3 
f 11/9/1 10/8/1 130/8/1 133/9/1 
f 13/11/4 27/47/11 149/47/12 137/11/45 
f 19/17/3 18/16/3 138/16/3 141/17/3 
f 18/16/3 7/5/3 129/5/3 138/16/3 
f 23/21/3 22/20/9 142/20/46 145/21/3 
f 6/4/3 23/21/3 145/21/3 126/4/3 
f 27/25/11 26/24/1 146/24/1 149/25/12 
f 26/24/1 11/9/1 133/9/1 146/24/1 
f 33/30/1 32/20/1 150/20/1 153/30/1 
f 10/8/1 38/35/1 154/35/1 130/8/1 
f 44/25/3 43/38/3 176/38/3 175/25/3 
f 49/41/1 33/30/1 153/30/1 178/41/1 
f 43/38/3 19/17/3 141/17/3 176/38/3 
f 38/35/1 49/41/1 178/41/1 154/35/1 
f 14/12/4 13/11/4 137/11/45 136/12/45 
f 22/44/9 14/12/4 136/12/45 142/44/46 
# 211 polygons - 8 triangles

