# 3ds Max Wavefront OBJ Exporter v0.97b - (c)2007 guruware
# File Created: 24.11.2019 19:40:13

#
# object ground_hole_medium
#

v  0.0000 -1.3333 5.5000
v  0.0000 -0.6667 5.5000
v  0.0000 -0.6667 4.0000
v  0.0000 -1.3333 4.0000
v  8.1395 0.0000 0.0000
v  5.8605 0.0000 0.0000
v  5.8605 0.0000 1.0000
v  8.1395 0.0000 1.0000
v  5.8605 -2.0000 0.0000
v  8.1395 -2.0000 0.0000
v  8.1395 -2.0000 1.0000
v  5.8605 -2.0000 1.0000
v  0.0000 -1.3333 7.0000
v  0.0000 -0.6667 7.0000
v  0.0000 -0.6667 6.6321
v  0.0000 -1.3333 6.6321
v  0.0000 -0.6667 1.3750
v  0.0000 -1.3333 1.3750
v  0.0000 -1.3333 2.5000
v  0.0000 -0.6667 2.5000
v  1.3026 0.0000 4.0000
v  1.0000 0.0000 4.0000
v  1.0000 0.0000 5.5000
v  1.3026 0.0000 5.5000
v  3.5816 0.0000 4.0000
v  3.5816 0.0000 5.5000
v  1.3026 -2.0000 5.5000
v  1.0000 -2.0000 5.5000
v  1.0000 -2.0000 4.0000
v  1.3026 -2.0000 4.0000
v  3.5816 -2.0000 5.5000
v  3.5816 -2.0000 4.0000
v  1.0000 -0.6667 7.0000
v  1.0000 -1.3333 7.0000
v  1.3026 -1.3333 7.0000
v  1.3026 -0.6667 7.0000
v  3.5816 -1.3333 7.0000
v  3.5816 -0.6667 7.0000
v  1.3026 0.0000 0.0000
v  1.0000 0.0000 0.0000
v  1.0000 0.0000 1.0000
v  1.3026 0.0000 1.0000
v  3.5816 0.0000 0.0000
v  3.5816 0.0000 1.0000
v  1.3026 0.0000 2.5000
v  1.0000 0.0000 2.5000
v  3.5816 0.0000 2.5000
v  1.3026 0.0000 6.6321
v  1.0000 0.0000 6.6321
v  1.0000 0.0000 7.0000
v  1.3026 0.0000 7.0000
v  3.5816 0.0000 7.0000
v  3.5816 0.0000 6.6321
v  1.3026 -2.0000 7.0000
v  1.0000 -2.0000 7.0000
v  1.0000 -2.0000 6.6321
v  1.3026 -2.0000 6.6321
v  3.5816 -2.0000 7.0000
v  3.5816 -2.0000 6.6321
v  12.6974 -2.0000 0.0000
v  13.0000 -2.0000 0.0000
v  13.0000 -2.0000 1.0000
v  12.6974 -2.0000 1.0000
v  10.4184 -2.0000 0.0000
v  10.4184 -2.0000 1.0000
v  1.3026 -2.0000 2.5000
v  1.0000 -2.0000 2.5000
v  1.0000 -2.0000 1.3750
v  1.3026 -2.0000 1.3750
v  3.5816 -2.0000 2.5000
v  3.5816 -2.0000 1.3750
v  0.0000 0.0000 4.0000
v  0.0000 0.0000 5.5000
v  0.0000 -2.0000 5.5000
v  0.0000 -2.0000 4.0000
v  0.0000 0.0000 0.0000
v  0.0000 0.0000 1.0000
v  0.0000 0.0000 2.5000
v  0.0000 0.0000 6.6321
v  0.0000 0.0000 7.0000
v  0.0000 -2.0000 7.0000
v  0.0000 -2.0000 6.6321
v  0.0000 -2.0000 2.5000
v  0.0000 -2.0000 1.3750
v  5.8605 0.0000 1.3750
v  8.1395 0.0000 1.3750
v  8.1395 -2.0000 1.3750
v  5.8605 -2.0000 1.3750
v  0.0000 -0.6667 0.0000
v  0.0000 -1.3333 0.0000
v  0.0000 -1.3333 1.0000
v  0.0000 -0.6667 1.0000
v  14.0000 -1.3333 0.0000
v  14.0000 -0.6667 0.0000
v  14.0000 -0.6667 1.0000
v  14.0000 -1.3333 1.0000
v  1.0000 0.0000 1.3750
v  1.3026 0.0000 1.3750
v  3.5816 0.0000 1.3750
v  4.3314 0.0000 1.3750
v  13.0000 0.0000 0.0000
v  12.6974 0.0000 0.0000
v  12.6974 0.0000 1.0000
v  13.0000 0.0000 1.0000
v  10.4184 0.0000 0.0000
v  10.4184 0.0000 1.0000
v  10.4184 -2.0000 1.3750
v  1.0000 -2.0000 1.0000
v  1.0000 -2.0000 0.0000
v  1.3026 -2.0000 0.0000
v  1.3026 -2.0000 1.0000
v  3.5816 -2.0000 0.0000
v  3.5816 -2.0000 1.0000
v  0.0000 0.0000 1.3750
v  0.0000 -2.0000 1.0000
v  0.0000 -2.0000 0.0000
v  10.4184 0.0000 1.3750
v  4.3314 -2.0000 1.3750
v  14.0000 0.0000 0.0000
v  14.0000 0.0000 1.0000
v  14.0000 -2.0000 1.0000
v  14.0000 -2.0000 0.0000
v  10.4184 -1.3333 1.3750
v  8.1395 -1.3333 1.3750
v  8.1395 -1.2139 1.1958
v  10.4184 -1.2139 1.1958
v  10.4184 -0.7861 1.1958
v  8.1395 -0.7861 1.1958
v  8.1395 -0.6667 1.3750
v  10.4184 -0.6667 1.3750
v  5.8605 -1.3333 1.3750
v  5.8605 -1.2139 1.1958
v  5.8605 -0.7861 1.1958
v  5.8605 -0.6667 1.3750
v  4.3314 -1.3333 1.3750
v  4.1522 -1.2139 1.1958
v  4.1522 -0.7861 1.1958
v  4.3314 -0.6667 1.3750
v  3.9524 -2.0000 2.5000
v  3.9524 -2.0000 1.7540
v  3.9524 -1.3333 1.7540
v  3.9524 -1.3333 2.5000
v  3.7732 -1.2139 2.5000
v  3.7732 -1.2139 1.5748
v  3.7732 -0.7861 1.5748
v  3.7732 -0.7861 2.5000
v  3.9524 -0.6667 2.5000
v  3.9524 -0.6667 1.7540
v  3.9524 0.0000 1.7540
v  3.9524 0.0000 2.5000
v  3.9524 -2.0000 4.0000
v  3.9524 -1.3333 4.0000
v  3.7732 -1.2139 4.0000
v  3.7732 -0.7861 4.0000
v  3.9524 -0.6667 4.0000
v  3.9524 0.0000 4.0000
v  3.9524 -2.0000 5.5000
v  3.9524 -1.3333 5.5000
v  3.7732 -1.2139 5.3805
v  3.7732 -0.7861 5.3805
v  3.9524 -0.6667 5.5000
v  3.9524 0.0000 5.5000
v  3.9524 -2.0000 6.6321
v  3.9524 -1.3333 6.6321
v  3.9524 -0.6667 6.6321
v  3.9524 0.0000 6.6321
v  12.6974 -1.3333 1.3750
v  12.6974 -1.2139 1.1958
v  12.6974 0.0000 1.3750
v  12.6974 -2.0000 1.3750
v  12.6974 -0.7861 1.1958
v  12.6974 -0.6667 1.3750
v  13.0000 0.0000 1.3750
v  13.0000 -2.0000 1.3750
v  13.0000 -1.3333 7.0000
v  13.0000 -2.0000 7.0000
v  14.0000 -2.0000 7.0000
v  14.0000 -1.3333 7.0000
v  13.0000 0.0000 7.0000
v  13.0000 -0.6667 7.0000
v  14.0000 -0.6667 7.0000
v  14.0000 0.0000 7.0000
v  14.0000 0.0000 1.3750
v  14.0000 -0.6667 1.3750
v  14.0000 -1.3333 1.3750
v  14.0000 -2.0000 1.3750
v  12.6974 -2.0000 2.5000
v  12.6974 -2.0000 4.0000
v  12.6974 -1.3333 4.0000
v  12.6974 -1.3333 2.5000
v  13.0000 -2.0000 4.0000
v  13.0000 -2.0000 2.5000
v  14.0000 -1.3333 2.5000
v  14.0000 -1.3333 4.0000
v  14.0000 -2.0000 4.0000
v  14.0000 -2.0000 2.5000
v  14.0000 -0.6667 2.5000
v  14.0000 -0.6667 4.0000
v  14.0000 0.0000 2.5000
v  14.0000 0.0000 4.0000
v  12.6974 0.0000 2.5000
v  12.6974 0.0000 4.0000
v  13.0000 0.0000 4.0000
v  13.0000 0.0000 2.5000
v  12.6974 -0.6667 2.5000
v  12.6974 -0.6667 4.0000
v  12.6974 -2.0000 5.5000
v  12.6974 -2.0000 6.6321
v  12.6974 -1.3333 6.6321
v  12.6974 -1.3333 5.5000
v  13.0000 -2.0000 6.6321
v  13.0000 -2.0000 5.5000
v  14.0000 -1.3333 5.5000
v  14.0000 -1.3333 6.6321
v  14.0000 -2.0000 6.6321
v  14.0000 -2.0000 5.5000
v  14.0000 -0.6667 5.5000
v  14.0000 -0.6667 6.6321
v  14.0000 0.0000 5.5000
v  14.0000 0.0000 6.6321
v  12.6974 0.0000 5.5000
v  12.6974 0.0000 6.6321
v  13.0000 0.0000 6.6321
v  13.0000 0.0000 5.5000
v  12.6974 -0.6667 5.5000
v  12.6974 -0.6667 6.6321
# 226 vertices

vn -1.0000 0.0000 -0.0000
vn 0.0000 1.0000 -0.0000
vn 0.0000 -1.0000 -0.0000
vn -0.7071 0.0000 0.7071
vn 0.0000 0.0000 1.0000
vn 0.3809 0.0000 0.9246
vn 0.0000 0.7071 0.7071
vn 0.2956 0.6306 0.7176
vn 0.0000 -0.7071 0.7071
vn 0.2956 -0.6306 0.7176
vn -0.7071 0.7071 -0.0000
vn -0.7071 -0.7071 -0.0000
vn -0.5774 0.5774 0.5774
vn -0.5774 -0.5774 0.5774
vn -0.0000 0.7071 0.7071
vn -0.0000 -0.7071 0.7071
vn 1.0000 0.0000 -0.0000
vn 1.0000 0.0000 0.0000
vn 1.0000 -0.0000 0.0000
vn 0.2274 0.8042 0.5491
vn 0.2274 -0.8042 0.5491
vn 0.7071 0.7071 0.0000
vn 0.7071 -0.7071 0.0000
vn 0.0000 0.4719 0.8817
vn 0.0000 -0.4719 0.8817
vn -0.0000 0.4719 0.8817
vn -0.0000 -0.4719 0.8817
vn 0.2762 0.5763 0.7692
vn 0.3508 0.4762 0.8064
vn 0.3508 -0.4762 0.8064
vn 0.2762 -0.5763 0.7692
vn 0.7071 -0.7071 -0.0000
vn 0.5491 -0.8042 0.2274
vn 0.7692 0.5763 0.2762
vn 0.8817 0.4719 -0.0000
vn 0.8064 0.4762 0.3508
vn 0.8064 -0.4762 0.3508
vn 0.8817 -0.4719 -0.0000
vn 0.7692 -0.5763 0.2762
vn 0.5491 0.8042 0.2274
vn 0.7071 0.7071 -0.0000
vn 0.9782 0.1470 -0.1470
vn 0.8458 0.3772 -0.3772
vn 0.8458 -0.3772 -0.3772
vn 0.9782 -0.1470 -0.1470
vn 0.7169 -0.6299 0.2986
vn 0.9231 0.0000 0.3845
vn 0.7169 0.6299 0.2986
vn -0.8302 0.2631 0.4916
vn -0.6147 0.3722 0.6954
vn -0.3015 0.9045 0.3015
vn -0.3015 -0.9045 0.3015
vn -0.6147 -0.3722 0.6954
vn -0.8302 -0.2631 0.4916
vn -0.4271 0.0000 0.9042
vn -0.3343 -0.6224 0.7077
vn 0.5774 -0.5774 0.5774
vn 0.7071 0.0000 0.7071
vn -0.3343 0.6224 0.7077
vn 0.5774 0.5774 0.5774
vn -0.7071 -0.7071 0.0000
vn -1.0000 0.0000 0.0000
vn -0.7071 0.7071 0.0000
vn -0.7245 -0.6385 0.2597
vn -0.9414 0.0000 0.3374
vn -0.7245 0.6385 0.2597
# 66 vertex normals

vt 0.9474 0.6667 0.0000
vt 0.9474 0.3333 0.0000
vt 0.4447 0.3333 0.0000
vt 0.4447 0.6667 0.0000
vt 1.0000 0.5814 0.0000
vt 1.0000 0.4186 0.0000
vt 0.9033 0.4186 0.0000
vt 0.9033 0.5814 0.0000
vt 0.0000 0.4186 0.0000
vt 0.0000 0.5814 0.0000
vt 0.0967 0.5814 0.0000
vt 0.0967 0.4186 0.0000
vt 1.0000 0.6667 0.0000
vt 1.0000 0.3333 0.0000
vt 0.1208 0.3333 0.0000
vt 0.1208 0.6667 0.0000
vt 0.1933 0.6667 0.0000
vt 0.1933 0.3333 0.0000
vt 0.5553 0.0930 0.0000
vt 0.5553 0.0465 0.0000
vt 0.3039 0.3678 0.0000
vt 0.3039 0.0930 0.0000
vt 0.5553 0.2288 0.0000
vt 0.3039 0.2288 0.0000
vt 0.6961 0.0930 0.0000
vt 0.6961 0.0465 0.0000
vt 0.4447 0.0465 0.0000
vt 0.4447 0.0930 0.0000
vt 0.6961 0.2288 0.0000
vt 0.4447 0.2288 0.0000
vt 0.0465 0.3333 0.0000
vt 0.0465 0.6667 0.0000
vt 0.0930 0.6667 0.0000
vt 0.0930 0.3333 0.0000
vt 0.2288 0.6667 0.0000
vt 0.2288 0.3333 0.0000
vt 1.0000 0.0930 0.0000
vt 0.6944 0.0308 0.0000
vt 0.9033 0.0465 0.0000
vt 0.9033 0.0930 0.0000
vt 1.0000 0.2558 0.0000
vt 0.9033 0.2558 0.0000
vt 0.8067 0.0930 0.0000
vt 0.8067 0.0465 0.0000
vt 0.8067 0.2288 0.0000
vt 0.0526 0.0930 0.0000
vt 0.0526 0.0465 0.0000
vt 0.0000 0.0465 0.0000
vt 0.0000 0.0930 0.0000
vt 0.0000 0.2288 0.0000
vt 0.0526 0.2288 0.0000
vt 1.0000 0.0465 0.0000
vt 0.9474 0.0465 0.0000
vt 0.9474 0.0930 0.0000
vt 1.0000 0.2288 0.0000
vt 0.9474 0.2288 0.0000
vt 0.0000 0.9070 0.0000
vt 0.0000 0.9309 0.0000
vt 0.0967 0.9313 0.0000
vt 0.0967 0.9070 0.0000
vt 0.0000 0.7442 0.0000
vt 0.0967 0.7442 0.0000
vt 0.1933 0.0930 0.0000
vt 0.1933 0.0465 0.0000
vt 0.1208 0.0465 0.0000
vt 0.1208 0.0930 0.0000
vt 0.1933 0.2288 0.0000
vt 0.1208 0.2288 0.0000
vt 0.6961 1.0000 0.0000
vt 0.4447 1.0000 0.0000
vt 0.6961 0.0000 0.0000
vt 0.4447 0.0000 0.0000
vt 0.0000 0.3333 0.0000
vt 0.0000 0.6667 0.0000
vt 1.0000 0.0000 0.0000
vt 0.9033 0.0000 0.0000
vt 0.8067 0.0000 0.0000
vt 0.0526 0.0000 0.0000
vt 0.0000 0.0000 0.0000
vt 0.9474 0.0000 0.0000
vt 0.1933 0.0000 0.0000
vt 0.1208 0.0000 0.0000
vt 0.1208 0.9070 0.0000
vt 0.8792 0.5814 0.0000
vt 0.1208 0.5814 0.0000
vt 0.1208 0.4186 0.0000
vt 0.0967 0.6667 0.0000
vt 0.0967 0.3333 0.0000
vt 0.9033 0.3333 0.0000
vt 0.9033 0.6667 0.0000
vt 0.8792 0.0465 0.0000
vt 0.8792 0.2558 0.0000
vt 0.7530 0.3641 0.0000
vt 1.0000 0.9291 0.0000
vt 1.0000 0.9070 0.0000
vt 0.9033 0.9070 0.0000
vt 0.9033 0.9297 0.0000
vt 1.0000 0.7442 0.0000
vt 0.9033 0.7442 0.0000
vt 0.1208 0.7171 0.0000
vt 0.0967 0.0465 0.0000
vt 0.0967 0.0930 0.0000
vt 0.0000 0.2558 0.0000
vt 0.0967 0.2558 0.0000
vt 0.8792 0.0000 0.0000
vt 0.0967 0.0000 0.0000
vt 0.8792 0.7171 0.0000
vt 0.1208 0.2829 0.0000
vt 0.9474 1.0000 0.0000
vt 1.0000 1.0000 0.0000
vt 0.1208 1.0000 0.0000
vt 0.1933 1.0000 0.0000
vt 0.0465 1.0000 0.0000
vt 0.0930 1.0000 0.0000
vt 0.0930 0.0000 0.0000
vt 0.0465 0.0000 0.0000
vt 0.2288 1.0000 0.0000
vt 0.2288 0.0000 0.0000
vt 0.0000 1.0000 0.0000
vt 0.0967 1.0000 0.0000
vt 0.9033 1.0000 0.0000
vt 0.9535 0.0000 0.0000
vt 0.9923 0.0388 0.0000
vt 1.0000 0.3888 0.0000
vt 1.0000 0.3847 0.0000
vt 1.0000 0.6153 0.0000
vt 1.0000 0.6112 0.0000
vt 0.2351 0.7716 0.0000
vt 0.4447 0.9070 0.0000
vt 0.4447 0.7712 0.0000
vt 0.8337 0.6667 0.0000
vt 0.8458 0.6667 0.0000
vt 0.8458 0.3333 0.0000
vt 0.8337 0.3333 0.0000
vt 0.2855 0.0465 0.0000
vt 0.6318 0.5248 0.0000
vt 0.6631 0.6667 0.0000
vt 0.7094 0.6667 0.0000
vt 0.7094 0.3333 0.0000
vt 0.6631 0.3333 0.0000
vt 0.3039 1.0000 0.0000
vt 0.5814 0.0000 0.0000
vt 0.7577 0.0000 0.0000
vt 0.3539 0.1886 0.0000
vt 0.1948 0.0216 0.0000
vt 0.9298 0.6667 0.0000
vt 0.9298 0.3333 0.0000
vt 0.3201 0.9507 0.0000
vt 0.3539 0.7837 0.0000
vt 0.1453 0.2558 0.0000
vt 0.8547 0.2558 0.0000
vt 0.1933 0.2558 0.0000
vt 0.4447 0.2558 0.0000
vt 0.6961 0.2558 0.0000
vt 0.9474 0.2558 0.0000
vt 0.0526 0.2558 0.0000
vt 0.3039 0.2558 0.0000
vt 0.5553 0.2558 0.0000
vt 0.8067 0.2558 0.0000
vt 0.8482 0.5719 0.0000
vt 0.5670 0.5719 0.0000
vt 0.7442 0.6667 0.0000
# 162 texture coords

o ground_hole_medium
g ground_hole_medium
f 1/1/1 2/2/1 3/3/1 4/4/1 
f 5/5/2 6/6/2 7/7/2 8/8/2 
f 9/9/3 10/10/3 11/11/3 12/12/3 
f 13/13/4 14/14/4 15/2/1 16/1/1 
f 16/1/1 15/2/1 2/2/1 1/1/1 
f 17/15/1 18/16/1 19/17/1 20/18/1 
f 20/18/1 19/17/1 4/4/1 3/3/1 
f 21/19/2 22/20/2 23/21/2 24/22/2 
f 25/23/2 21/19/2 24/22/2 26/24/2 
f 27/25/3 28/26/3 29/27/3 30/28/3 
f 31/29/3 27/25/3 30/28/3 32/30/3 
f 33/31/5 34/32/5 35/33/5 36/34/5 
f 36/34/5 35/33/5 37/35/6 38/36/6 
f 39/37/2 40/38/2 41/39/2 42/40/2 
f 43/41/2 39/37/2 42/40/2 44/42/2 
f 6/6/2 43/41/2 44/42/2 7/7/2 
f 45/43/2 46/44/2 22/20/2 21/19/2 
f 47/45/2 45/43/2 21/19/2 25/23/2 
f 48/46/2 49/47/2 50/48/7 51/49/7 
f 48/46/2 51/49/7 52/50/8 53/51/2 
f 24/22/2 23/21/2 49/47/2 48/46/2 
f 26/24/2 24/22/2 48/46/2 53/51/2 
f 54/37/9 55/52/9 56/53/3 57/54/3 
f 58/55/10 54/37/9 57/54/3 59/56/3 
f 57/54/3 56/53/3 28/26/3 27/25/3 
f 59/56/3 57/54/3 27/25/3 31/29/3 
f 60/57/3 61/58/3 62/59/3 63/60/3 
f 64/61/3 60/57/3 63/60/3 65/62/3 
f 10/10/3 64/61/3 65/62/3 11/11/3 
f 66/63/3 67/64/3 68/65/3 69/66/3 
f 70/67/3 66/63/3 69/66/3 71/68/3 
f 30/28/3 29/27/3 67/64/3 66/63/3 
f 32/30/3 30/28/3 66/63/3 70/67/3 
f 22/20/2 72/69/11 73/70/11 23/21/2 
f 28/26/3 74/71/12 75/72/12 29/27/3 
f 14/73/4 13/74/4 34/32/5 33/31/5 
f 40/38/2 76/75/11 77/76/11 41/39/2 
f 46/44/2 78/77/11 72/69/11 22/20/2 
f 49/47/2 79/78/11 80/79/13 50/48/7 
f 23/21/2 73/70/11 79/78/11 49/47/2 
f 55/52/9 81/75/14 82/80/12 56/53/3 
f 56/53/3 82/80/12 74/71/12 28/26/3 
f 67/64/3 83/81/12 84/82/12 68/65/3 
f 29/27/3 75/72/12 83/81/12 67/64/3 
f 7/7/2 85/83/15 86/84/7 8/8/2 
f 11/11/3 87/85/9 88/86/16 12/12/3 
f 89/73/1 90/74/1 91/87/1 92/88/1 
f 93/13/17 94/14/17 95/89/18 96/90/19 
f 41/39/2 97/91/2 98/92/2 42/40/2 
f 42/40/2 98/92/2 99/92/2 44/42/2 
f 44/42/2 100/93/20 85/83/15 7/7/2 
f 101/94/2 102/95/2 103/96/2 104/97/2 
f 103/96/2 102/95/2 105/98/2 106/99/2 
f 106/99/2 105/98/2 5/5/2 8/8/2 
f 65/62/3 107/100/9 87/85/9 11/11/3 
f 108/101/3 109/48/3 110/49/3 111/102/3 
f 111/102/3 110/49/3 112/103/3 113/104/3 
f 113/104/3 112/103/3 9/9/3 12/12/3 
f 77/76/11 114/105/11 97/91/2 41/39/2 
f 115/106/12 116/79/12 109/48/3 108/101/3 
f 92/88/1 91/87/1 18/16/1 17/15/1 
f 117/107/7 106/99/2 8/8/2 86/84/7 
f 68/65/3 108/101/3 111/102/3 69/66/3 
f 69/66/3 111/102/3 113/104/3 71/68/3 
f 118/108/21 113/104/3 12/12/3 88/86/16 
f 84/82/12 115/106/12 108/101/3 68/65/3 
f 97/91/2 46/44/2 45/43/2 98/92/2 
f 98/92/2 45/43/2 47/45/2 99/92/2 
f 114/105/11 78/77/11 46/44/2 97/91/2 
f 2/2/1 73/71/11 72/72/11 3/3/1 
f 4/4/1 75/70/12 74/69/12 1/1/1 
f 14/14/4 80/75/13 79/80/11 15/2/1 
f 16/1/1 82/109/12 81/110/14 13/13/4 
f 15/2/1 79/80/11 73/71/11 2/2/1 
f 1/1/1 74/69/12 82/109/12 16/1/1 
f 18/16/1 84/111/12 83/112/12 19/17/1 
f 20/18/1 78/81/11 114/82/11 17/15/1 
f 19/17/1 83/112/12 75/70/12 4/4/1 
f 3/3/1 72/72/11 78/81/11 20/18/1 
f 34/32/5 55/113/9 54/114/9 35/33/5 
f 36/34/5 51/115/7 50/116/7 33/31/5 
f 35/33/5 54/114/9 58/117/10 37/35/6 
f 38/36/6 52/118/8 51/115/7 36/34/5 
f 13/74/4 81/119/14 55/113/9 34/32/5 
f 33/31/5 50/116/7 80/79/13 14/73/4 
f 90/74/1 116/119/12 115/120/12 91/87/1 
f 92/88/1 77/106/11 76/79/11 89/73/1 
f 94/14/17 119/75/22 120/76/22 95/89/18 
f 96/90/19 121/121/23 122/110/23 93/13/17 
f 91/87/1 115/120/12 84/111/12 18/16/1 
f 17/15/1 114/82/11 77/106/11 92/88/1 
f 87/122/9 107/123/9 123/124/24 124/13/24 
f 125/13/24 126/125/24 127/126/25 128/14/25 
f 129/14/25 130/127/25 117/128/7 86/28/7 
f 88/129/16 87/122/9 124/13/24 131/74/26 
f 132/74/26 125/13/24 128/14/25 133/73/27 
f 134/73/27 129/14/25 86/28/7 85/64/15 
f 118/130/21 88/129/16 131/74/26 135/131/28 
f 136/132/29 132/74/26 133/73/27 137/133/30 
f 138/134/31 134/73/27 85/64/15 100/135/20 
f 139/37/32 140/136/33 141/137/34 142/74/35 
f 143/74/35 144/138/36 145/139/37 146/73/38 
f 147/73/38 148/140/39 149/21/40 150/141/41 
f 151/142/32 139/37/32 142/74/35 152/13/35 
f 153/13/35 143/74/35 146/73/38 154/14/38 
f 155/14/38 147/73/38 150/141/41 156/72/41 
f 157/5/32 151/142/32 152/13/35 158/74/42 
f 159/74/43 153/13/35 154/14/38 160/73/44 
f 161/73/45 155/14/38 156/72/41 162/50/41 
f 163/143/46 157/5/32 158/74/42 164/1/47 
f 164/1/47 158/74/42 161/73/45 165/2/47 
f 165/2/47 161/73/45 162/50/41 166/69/48 
f 130/127/25 129/14/25 128/14/25 127/126/25 
f 129/14/25 134/73/27 133/73/27 128/14/25 
f 134/73/27 138/134/31 137/133/30 133/73/27 
f 148/140/39 147/73/38 146/73/38 145/139/37 
f 147/73/38 155/14/38 154/14/38 146/73/38 
f 155/14/38 161/73/45 160/73/44 154/14/38 
f 161/73/45 158/74/42 159/74/43 160/73/44 
f 158/74/42 152/13/35 153/13/35 159/74/43 
f 152/13/35 142/74/35 143/74/35 153/13/35 
f 142/74/35 141/137/34 144/138/36 143/74/35 
f 135/131/28 131/74/26 132/74/26 136/132/29 
f 131/74/26 124/13/24 125/13/24 132/74/26 
f 124/13/24 123/124/24 126/125/24 125/13/24 
f 38/144/6 165/2/47 166/69/48 52/145/8 
f 37/146/6 164/1/47 165/2/47 38/147/6 
f 58/148/10 163/143/46 164/1/47 37/149/6 
f 140/150/33 71/68/3 113/104/3 118/108/21 
f 149/151/40 100/93/20 44/42/2 99/92/2 
f 135/131/28 141/137/34 140/136/33 118/130/21 
f 137/133/30 145/139/37 144/138/36 136/132/29 
f 100/135/20 149/21/40 148/140/39 138/134/31 
f 138/134/31 148/140/39 145/139/37 137/133/30 
f 141/137/34 135/131/28 136/132/29 144/138/36 
f 71/68/3 140/150/33 139/152/32 70/67/3 
f 70/67/3 139/152/32 151/153/32 32/30/3 
f 32/30/3 151/153/32 157/154/32 31/29/3 
f 31/29/3 157/154/32 163/155/46 59/56/3 
f 59/56/3 163/155/46 58/55/10 
f 52/50/8 166/156/48 53/51/2 
f 53/51/2 166/156/48 162/157/41 26/24/2 
f 26/24/2 162/157/41 156/158/41 25/23/2 
f 25/23/2 156/158/41 150/159/41 47/45/2 
f 47/45/2 150/159/41 149/151/40 99/92/2 
f 126/125/24 123/124/24 167/124/49 168/125/50 
f 106/99/2 117/107/7 169/107/51 103/99/2 
f 107/100/9 65/62/3 63/62/3 170/100/52 
f 123/124/24 107/123/9 170/123/52 167/124/49 
f 127/126/25 126/125/24 168/125/50 171/126/53 
f 117/128/7 130/127/25 172/127/54 169/128/51 
f 130/127/25 127/126/25 171/126/53 172/127/54 
f 103/99/2 169/107/51 173/107/2 104/99/2 
f 170/100/52 63/62/3 62/62/3 174/100/3 
f 175/124/55 176/123/56 177/123/57 178/124/58 
f 179/128/59 180/127/55 181/127/58 182/128/60 
f 183/139/41 184/126/18 95/102/18 120/73/22 
f 185/14/18 186/73/32 121/16/23 96/11/19 
f 175/160/55 178/139/58 181/15/58 180/161/55 
f 167/124/49 172/162/54 171/126/53 168/125/50 
f 187/123/61 188/123/12 189/124/1 190/124/62 
f 191/123/3 188/123/12 187/123/61 192/123/3 
f 193/124/17 194/124/17 195/123/32 196/123/32 
f 197/15/17 198/15/17 194/139/17 193/139/17 
f 199/128/41 200/128/41 198/127/17 197/127/17 
f 201/128/63 202/128/11 203/128/2 204/128/2 
f 205/127/62 206/127/1 202/128/11 201/128/63 
f 190/90/62 189/90/1 206/162/1 205/162/62 
f 207/123/12 208/123/64 209/124/65 210/124/1 
f 188/123/12 207/123/12 210/124/1 189/124/1 
f 190/124/62 167/124/49 170/123/52 187/123/61 
f 211/123/3 208/123/64 207/123/12 212/123/3 
f 212/123/3 207/123/12 188/123/12 191/123/3 
f 187/123/61 170/123/52 174/123/3 192/123/3 
f 213/124/17 214/124/17 215/123/32 216/123/32 
f 194/124/17 213/124/17 216/123/32 195/123/32 
f 196/123/32 186/123/32 185/124/18 193/124/17 
f 217/15/17 218/15/17 214/139/17 213/139/17 
f 198/15/17 217/15/17 213/139/17 194/139/17 
f 193/139/17 185/139/18 184/15/18 197/15/17 
f 219/128/41 220/128/41 218/127/17 217/127/17 
f 200/128/41 219/128/41 217/127/17 198/127/17 
f 197/127/17 184/127/18 183/128/41 199/128/41 
f 221/128/11 222/128/66 223/128/2 224/128/2 
f 202/128/11 221/128/11 224/128/2 203/128/2 
f 173/128/2 169/128/51 201/128/63 204/128/2 
f 225/127/1 226/127/65 222/128/66 221/128/11 
f 206/127/1 225/127/1 221/128/11 202/128/11 
f 201/128/63 169/128/51 172/127/54 205/127/62 
f 210/90/1 209/90/65 226/162/65 225/162/1 
f 189/90/1 210/90/1 225/162/1 206/162/1 
f 205/162/62 172/162/54 167/32/49 190/90/62 
f 176/123/56 208/123/64 211/123/3 
f 214/124/17 178/124/58 177/123/57 215/123/32 
f 218/15/17 181/15/58 178/139/58 214/139/17 
f 220/128/41 182/128/60 181/127/58 218/127/17 
f 222/128/66 179/128/59 223/128/2 
f 175/124/55 209/124/65 208/123/64 176/123/56 
f 179/128/59 222/128/66 226/127/65 180/127/55 
f 180/161/55 226/162/65 209/90/65 175/160/55 
f 179/128/59 182/128/60 220/128/41 223/128/2 
f 223/128/2 220/128/41 219/128/41 224/128/2 
f 224/128/2 219/128/41 200/128/41 203/128/2 
f 203/128/2 200/128/41 199/128/41 204/128/2 
f 204/128/2 199/128/41 183/128/41 173/128/2 
f 173/107/2 183/107/41 120/99/22 104/99/2 
f 104/97/2 120/121/22 119/110/22 101/94/2 
f 61/58/3 122/119/23 121/120/23 62/59/3 
f 62/62/3 121/62/23 186/100/32 174/100/3 
f 174/123/3 186/123/32 196/123/32 192/123/3 
f 192/123/3 196/123/32 195/123/32 191/123/3 
f 191/123/3 195/123/32 216/123/32 212/123/3 
f 212/123/3 216/123/32 215/123/32 211/123/3 
f 211/123/3 215/123/32 177/123/57 176/123/56 
f 95/89/18 184/126/18 185/139/18 96/11/19 
# 211 polygons - 4 triangles

