# 3ds Max Wavefront OBJ Exporter v0.97b - (c)2007 guruware
# File Created: 24.11.2019 19:40:42

#
# object ground_divider_side
#

v  1.3026 -2.0000 -0.0000
v  1.3026 -2.0000 1.0000
v  1.0000 -2.0000 1.0000
v  1.0000 -2.0000 -0.0000
v  3.5816 -2.0000 -0.0000
v  3.5816 -2.0000 1.0000
v  5.8605 -2.0000 -0.0000
v  5.8605 -2.0000 1.0000
v  8.1395 -2.0000 1.0000
v  8.1395 -2.0000 1.3750
v  5.8605 -2.0000 1.3750
v  0.0000 -1.3333 -0.0000
v  0.0000 -1.3333 1.0000
v  0.0000 -0.6667 1.0000
v  0.0000 -0.6667 -0.0000
v  1.0000 -0.0000 -0.0000
v  1.0000 -0.0000 1.0000
v  1.3026 -0.0000 1.0000
v  1.3026 -0.0000 -0.0000
v  3.5816 -0.0000 1.0000
v  3.5816 -0.0000 -0.0000
v  5.8605 -0.0000 1.0000
v  5.8605 -0.0000 -0.0000
v  3.5816 -2.0000 1.3750
v  3.5816 -0.0000 1.3750
v  5.8605 -0.0000 1.3750
v  0.0000 -0.0000 1.0000
v  0.0000 -0.0000 -0.0000
v  0.0000 -2.0000 -0.0000
v  0.0000 -2.0000 1.0000
v  5.8605 -1.3333 1.3750
v  3.5816 -1.3333 1.3750
v  5.8605 -1.2139 1.1958
v  5.8605 -0.7861 1.1958
v  3.5816 -0.7861 1.1958
v  3.5816 -1.2139 1.1958
v  5.8605 -0.6667 1.3750
v  3.5816 -0.6667 1.3750
v  1.3026 -1.2139 1.1958
v  1.3026 -1.3333 1.3750
v  1.3026 -0.0000 1.3750
v  1.3026 -2.0000 1.3750
v  1.3026 -0.7861 1.1958
v  1.3026 -0.6667 1.3750
v  1.0000 -0.0000 1.3750
v  1.0000 -2.0000 1.3750
v  1.0000 -1.3333 7.0000
v  0.0000 -1.3333 7.0000
v  0.0000 -2.0000 7.0000
v  1.0000 -2.0000 7.0000
v  1.0000 -0.0000 7.0000
v  0.0000 -0.0000 7.0000
v  0.0000 -0.6667 7.0000
v  1.0000 -0.6667 7.0000
v  0.0000 -0.0000 1.3750
v  0.0000 -0.6667 1.3750
v  0.0000 -1.3333 1.3750
v  0.0000 -2.0000 1.3750
v  1.3026 -2.0000 2.5000
v  1.3026 -1.3333 2.5000
v  1.3026 -1.3333 4.0000
v  1.3026 -2.0000 4.0000
v  1.0000 -2.0000 4.0000
v  1.0000 -2.0000 2.5000
v  0.0000 -1.3333 2.5000
v  0.0000 -2.0000 2.5000
v  0.0000 -2.0000 4.0000
v  0.0000 -1.3333 4.0000
v  0.0000 -0.6667 2.5000
v  0.0000 -0.6667 4.0000
v  0.0000 -0.0000 2.5000
v  0.0000 -0.0000 4.0000
v  1.3026 -0.0000 2.5000
v  1.0000 -0.0000 2.5000
v  1.0000 -0.0000 4.0000
v  1.3026 -0.0000 4.0000
v  1.3026 -0.6667 2.5000
v  1.3026 -0.6667 4.0000
v  1.3026 -2.0000 5.5000
v  1.3026 -1.3333 5.5000
v  1.3026 -1.3333 6.6321
v  1.3026 -2.0000 6.6321
v  1.0000 -2.0000 6.6321
v  1.0000 -2.0000 5.5000
v  0.0000 -1.3333 5.5000
v  0.0000 -2.0000 5.5000
v  0.0000 -2.0000 6.6321
v  0.0000 -1.3333 6.6321
v  0.0000 -0.6667 5.5000
v  0.0000 -0.6667 6.6321
v  0.0000 -0.0000 5.5000
v  0.0000 -0.0000 6.6321
v  1.3026 -0.0000 5.5000
v  1.0000 -0.0000 5.5000
v  1.0000 -0.0000 6.6321
v  1.3026 -0.0000 6.6321
v  1.3026 -0.6667 5.5000
v  1.3026 -0.6667 6.6321
v  8.1395 -1.3333 1.3750
v  8.1395 -1.2139 1.1958
v  8.1395 -2.0000 -0.0000
v  8.1395 -0.0000 1.3750
v  8.1395 -0.0000 1.0000
v  8.1395 -0.7861 1.1958
v  8.1395 -0.6667 1.3750
v  10.4184 -2.0000 -0.0000
v  10.4184 -2.0000 1.0000
v  10.4184 -0.0000 1.0000
v  10.4184 -0.0000 -0.0000
v  8.1395 -0.0000 -0.0000
v  10.4184 -2.0000 1.3750
v  10.4184 -0.0000 1.3750
v  10.4184 -1.3333 1.3750
v  10.4184 -1.2139 1.1958
v  10.4184 -0.7861 1.1958
v  10.4184 -0.6667 1.3750
v  12.6974 -2.0000 0.0000
v  13.0000 -2.0000 0.0000
v  13.0000 -2.0000 1.0000
v  12.6974 -2.0000 1.0000
v  14.0000 -1.3333 0.0000
v  14.0000 -0.6667 0.0000
v  14.0000 -0.6667 1.0000
v  14.0000 -1.3333 1.0000
v  13.0000 -0.0000 0.0000
v  12.6974 -0.0000 0.0000
v  12.6974 -0.0000 1.0000
v  13.0000 -0.0000 1.0000
v  14.0000 -0.0000 0.0000
v  14.0000 -0.0000 1.0000
v  14.0000 -2.0000 1.0000
v  14.0000 -2.0000 0.0000
v  12.6974 -1.3333 1.3750
v  12.6974 -1.2139 1.1958
v  12.6974 -0.0000 1.3750
v  12.6974 -2.0000 1.3750
v  12.6974 -0.7861 1.1958
v  12.6974 -0.6667 1.3750
v  13.0000 -0.0000 1.3750
v  13.0000 -2.0000 1.3750
v  14.0000 -0.0000 1.3750
v  14.0000 -0.6667 1.3750
v  14.0000 -1.3333 1.3750
v  14.0000 -2.0000 1.3750
v  13.0000 -0.6667 1.3750
v  13.0000 -1.3333 1.3750
# 146 vertices

vn 0.0000 -1.0000 -0.0000
vn -0.0000 -1.0000 -0.0000
vn -0.0000 -0.7071 0.7071
vn 0.0000 -0.7071 0.7071
vn -1.0000 0.0000 -0.0000
vn -1.0000 -0.0000 0.0000
vn -1.0000 0.0000 0.0000
vn 0.0000 1.0000 -0.0000
vn 0.0000 0.7071 0.7071
vn -0.7071 0.7071 0.0000
vn -0.7071 -0.7071 0.0000
vn 0.0000 0.4719 0.8817
vn 0.0000 -0.4719 0.8817
vn 0.6147 0.3722 0.6954
vn 0.8302 0.2631 0.4916
vn 0.3015 0.9045 0.3015
vn 0.3015 -0.9045 0.3015
vn 0.6147 -0.3722 0.6954
vn 0.8302 -0.2631 0.4916
vn 0.4271 0.0000 0.9042
vn -0.7071 0.0000 0.7071
vn -0.5774 -0.5774 0.5774
vn 0.3343 -0.6224 0.7077
vn 0.3343 0.6224 0.7077
vn -0.5774 0.5774 0.5774
vn -0.7071 0.7071 -0.0000
vn -0.7071 -0.7071 -0.0000
vn 0.7071 -0.7071 0.0000
vn 1.0000 0.0000 0.0000
vn 1.0000 0.0000 -0.0000
vn 0.7071 -0.7071 -0.0000
vn 0.7071 0.7071 0.0000
vn 0.7071 0.7071 -0.0000
vn 0.9414 0.0000 0.3374
vn 0.7245 -0.6385 0.2597
vn 0.7245 0.6385 0.2597
vn -0.0000 -0.4719 0.8817
vn -0.0000 -1.0000 0.0000
vn 0.0000 1.0000 0.0000
vn 1.0000 -0.0000 0.0000
vn -0.1689 0.2246 0.9597
vn -0.6147 0.3722 0.6954
vn -0.0000 0.7071 0.7071
vn -0.6147 -0.3722 0.6954
vn -0.1689 -0.2246 0.9597
vn 0.5773 0.5774 0.5774
vn 0.7071 0.0000 0.7071
vn 0.5773 -0.5774 0.5774
vn -0.0000 0.0000 1.0000
# 49 vertex normals

vt 0.0000 0.9070 0.0000
vt 0.0967 0.9070 0.0000
vt 0.0967 0.9313 0.0000
vt 0.0000 0.9309 0.0000
vt 0.0000 0.7442 0.0000
vt 0.0967 0.7442 0.0000
vt 0.0000 0.5814 0.0000
vt 0.0967 0.5814 0.0000
vt 0.1208 0.5814 0.0000
vt 1.0000 0.6667 0.0000
vt 0.9033 0.6667 0.0000
vt 0.9033 0.3333 0.0000
vt 1.0000 0.3333 0.0000
vt 1.0000 0.9291 0.0000
vt 0.9033 0.9297 0.0000
vt 0.9033 0.9070 0.0000
vt 1.0000 0.9070 0.0000
vt 0.9033 0.7442 0.0000
vt 1.0000 0.7442 0.0000
vt 0.9033 0.5814 0.0000
vt 1.0000 0.5814 0.0000
vt 0.1208 0.7171 0.0000
vt 0.8792 0.7171 0.0000
vt 0.8792 0.5814 0.0000
vt 0.9033 0.0000 0.0000
vt 1.0000 0.0000 0.0000
vt 1.0000 1.0000 0.0000
vt 0.9033 1.0000 0.0000
vt 0.9535 0.0000 0.0000
vt 1.0000 0.3888 0.0000
vt 0.9923 0.0388 0.0000
vt 1.0000 0.6153 0.0000
vt 1.0000 0.3847 0.0000
vt 0.4447 0.0930 0.0000
vt 0.2351 0.7716 0.0000
vt 1.0000 0.6112 0.0000
vt 0.7094 0.3333 0.0000
vt 0.0000 0.3333 0.0000
vt 0.0967 0.0930 0.0000
vt 0.1208 0.6667 0.0000
vt 0.8482 0.5719 0.0000
vt 0.5670 0.5719 0.0000
vt 0.1208 0.3333 0.0000
vt 0.7442 0.6667 0.0000
vt 0.0465 0.6667 0.0000
vt 0.0967 1.0000 0.0000
vt 0.0000 1.0000 0.0000
vt 0.0000 0.6667 0.0000
vt 0.8458 0.6667 0.0000
vt 0.5814 0.6667 0.0000
vt 0.9535 0.3333 0.0000
vt 0.9535 0.6667 0.0000
# 52 texture coords

o ground_divider_side
g ground_divider_side
f 1/1/1 2/2/1 3/3/1 4/4/1 
f 5/5/1 6/6/1 2/2/1 1/1/1 
f 7/7/1 8/8/1 6/6/1 5/5/1 
f 8/8/1 9/8/2 10/9/3 11/9/4 
f 12/10/5 13/11/6 14/12/7 15/13/5 
f 16/14/8 17/15/8 18/16/8 19/17/8 
f 18/16/8 20/18/8 21/19/8 19/17/8 
f 20/18/8 22/20/8 23/21/8 21/19/8 
f 6/6/1 8/8/1 11/9/4 24/22/4 
f 25/23/9 26/24/9 22/20/8 20/18/8 
f 15/13/5 14/12/7 27/25/10 28/26/10 
f 13/11/6 12/10/5 29/27/11 30/28/11 
f 11/29/4 31/10/12 32/30/12 24/31/4 
f 33/10/12 34/13/13 35/32/13 36/33/12 
f 37/13/13 26/34/9 25/35/9 38/36/13 
f 38/36/13 35/32/13 34/13/13 37/13/13 
f 31/10/12 33/10/12 36/33/12 32/30/12 
f 36/33/12 39/33/14 40/30/15 32/30/12 
f 20/18/8 18/18/8 41/23/16 25/23/9 
f 24/22/4 42/22/17 2/6/1 6/6/1 
f 32/30/12 40/30/15 42/31/17 24/31/4 
f 35/32/13 43/32/18 39/33/14 36/33/12 
f 25/35/9 41/35/16 44/36/19 38/36/13 
f 38/36/13 44/36/19 43/32/18 35/32/13 
f 18/18/8 17/18/8 45/23/8 41/23/16 
f 42/22/17 46/22/1 3/6/1 2/6/1 
f 47/30/20 48/30/21 49/31/22 50/31/23 
f 51/35/24 52/35/25 53/36/21 54/36/20 
f 55/37/26 27/38/10 14/39/7 56/32/7 
f 57/13/7 13/8/6 30/40/11 58/38/27 
f 47/41/20 54/42/20 53/43/21 48/37/21 
f 40/30/15 39/33/14 43/32/18 44/44/19 
f 59/31/28 60/30/29 61/30/30 62/31/31 
f 63/31/1 64/31/1 59/31/28 62/31/31 
f 65/30/5 66/31/27 67/31/27 68/30/5 
f 69/43/5 65/37/5 68/37/5 70/43/5 
f 71/35/26 69/36/5 70/36/5 72/35/26 
f 73/35/32 74/35/8 75/35/8 76/35/33 
f 77/36/29 73/35/32 76/35/33 78/36/30 
f 60/11/29 77/44/29 78/44/30 61/11/30 
f 79/31/31 80/30/30 81/30/34 82/31/35 
f 62/31/31 61/30/30 80/30/30 79/31/31 
f 60/30/29 59/31/28 42/31/17 40/30/15 
f 83/31/1 84/31/1 79/31/31 82/31/35 
f 84/31/1 63/31/1 62/31/31 79/31/31 
f 59/31/28 64/31/1 46/31/1 42/31/17 
f 85/30/5 86/31/27 87/31/27 88/30/5 
f 68/30/5 67/31/27 86/31/27 85/30/5 
f 66/31/27 65/30/5 57/30/7 58/31/27 
f 89/43/5 85/37/5 88/37/5 90/43/5 
f 70/43/5 68/37/5 85/37/5 89/43/5 
f 65/37/5 69/43/5 56/43/7 57/37/7 
f 91/35/26 89/36/5 90/36/5 92/35/26 
f 72/35/26 70/36/5 89/36/5 91/35/26 
f 69/36/5 71/35/26 55/35/26 56/36/7 
f 93/35/33 94/35/8 95/35/8 96/35/36 
f 76/35/33 75/35/8 94/35/8 93/35/33 
f 45/35/8 74/35/8 73/35/32 41/35/16 
f 97/36/30 93/35/33 96/35/36 98/36/34 
f 78/36/30 76/35/33 93/35/33 97/36/30 
f 73/35/32 77/36/29 44/36/19 41/35/16 
f 80/11/30 97/44/30 98/44/34 81/11/34 
f 61/11/30 78/44/30 97/44/30 80/11/30 
f 77/44/29 60/11/29 40/45/15 44/44/19 
f 50/31/23 83/31/1 82/31/35 
f 88/30/5 87/31/27 49/31/22 48/30/21 
f 90/43/5 88/37/5 48/37/21 53/43/21 
f 92/35/26 90/36/5 53/36/21 52/35/25 
f 96/35/36 95/35/8 51/35/24 
f 47/30/20 50/31/23 82/31/35 81/30/34 
f 51/35/24 54/36/20 98/36/34 96/35/36 
f 54/42/20 47/41/20 81/11/34 98/44/34 
f 51/35/24 95/35/8 92/35/26 52/35/25 
f 95/35/8 94/35/8 91/35/26 92/35/26 
f 94/35/8 75/35/8 72/35/26 91/35/26 
f 75/35/8 74/35/8 71/35/26 72/35/26 
f 74/35/8 45/35/8 55/35/26 71/35/26 
f 45/23/8 17/18/8 27/18/10 55/23/26 
f 17/15/8 16/14/8 28/27/10 27/28/10 
f 4/4/1 3/3/1 30/46/11 29/47/11 
f 3/6/1 46/22/1 58/22/27 30/6/11 
f 46/31/1 64/31/1 66/31/27 58/31/27 
f 64/31/1 63/31/1 67/31/27 66/31/27 
f 63/31/1 84/31/1 86/31/27 67/31/27 
f 84/31/1 83/31/1 87/31/27 86/31/27 
f 83/31/1 50/31/23 49/31/22 87/31/27 
f 11/29/4 10/29/3 99/10/12 31/10/12 
f 31/10/12 99/10/12 100/10/12 33/10/12 
f 7/7/1 101/7/2 9/8/2 8/8/1 
f 26/24/9 102/24/9 103/20/8 22/20/8 
f 33/10/12 100/10/12 104/13/37 34/13/13 
f 37/13/13 105/13/37 102/34/9 26/34/9 
f 14/12/7 13/8/6 57/37/7 56/32/7 
f 101/7/2 106/5/2 107/6/38 9/8/2 
f 108/18/8 109/19/39 110/21/8 103/20/8 
f 107/6/38 111/22/3 10/9/3 9/8/2 
f 112/23/9 108/18/8 103/20/8 102/24/9 
f 10/29/3 111/31/3 113/30/12 99/10/12 
f 100/10/12 114/33/12 115/32/37 104/13/37 
f 105/13/37 116/36/37 112/35/9 102/34/9 
f 116/36/37 105/13/37 104/13/37 115/32/37 
f 99/10/12 113/30/12 114/33/12 100/10/12 
f 22/20/8 103/20/8 110/21/8 23/21/8 
f 34/13/13 104/13/37 105/13/37 37/13/13 
f 117/1/2 118/4/1 119/3/1 120/2/2 
f 106/5/2 117/1/2 120/2/2 107/6/38 
f 121/10/30 122/13/30 123/12/29 124/11/40 
f 125/14/8 126/17/39 127/16/39 128/15/8 
f 127/16/39 126/17/39 109/19/39 108/18/8 
f 122/13/30 129/26/32 130/25/32 123/12/29 
f 124/11/40 131/28/28 132/27/28 121/10/30 
f 114/33/12 113/30/12 133/30/41 134/33/42 
f 108/18/8 112/23/9 135/23/43 127/18/39 
f 111/22/3 107/6/38 120/6/2 136/22/3 
f 113/30/12 111/31/3 136/31/3 133/30/41 
f 115/32/37 114/33/12 134/33/42 137/32/44 
f 112/35/9 116/36/37 138/36/45 135/35/43 
f 116/36/37 115/32/37 137/32/44 138/36/45 
f 127/18/39 135/23/43 139/23/43 128/18/8 
f 136/22/3 120/6/2 119/6/1 140/22/3 
f 141/37/46 142/32/47 123/39/29 130/38/32 
f 143/13/47 144/38/48 131/40/28 124/8/40 
f 133/30/41 138/44/45 137/32/44 134/33/42 
f 139/23/43 141/23/46 130/18/32 128/18/8 
f 128/15/8 130/28/32 129/27/32 125/14/8 
f 118/4/1 132/47/28 131/46/28 119/3/1 
f 119/6/1 131/6/28 144/22/48 140/22/3 
f 143/32/47 124/8/40 123/39/29 142/11/47 
f 142/11/47 141/43/46 139/48/43 145/49/49 
f 145/49/49 139/48/43 135/45/43 138/50/45 
f 143/32/47 142/11/47 145/49/49 146/48/49 
f 146/48/49 145/49/49 138/50/45 133/51/41 
f 144/40/48 143/32/47 146/48/49 140/10/3 
f 140/10/3 146/48/49 133/51/41 136/52/3 
# 132 polygons - 2 triangles

