# 3ds Max Wavefront OBJ Exporter v0.97b - (c)2007 guruware
# File Created: 24.11.2019 19:40:41

#
# object ground_divider_platform_small
#

v  0.0000 -1.3333 5.5000
v  0.0000 -0.6667 5.5000
v  0.0000 -0.6667 4.0000
v  0.0000 -1.3333 4.0000
v  8.1395 0.0000 -0.0000
v  5.8605 0.0000 -0.0000
v  5.8605 0.0000 1.0000
v  8.1395 0.0000 1.0000
v  5.8605 -2.0000 -0.0000
v  8.1395 -2.0000 -0.0000
v  8.1395 -2.0000 1.0000
v  5.8605 -2.0000 1.0000
v  0.0000 -1.3333 7.0000
v  0.0000 -0.6667 7.0000
v  0.0000 -0.6667 6.6321
v  0.0000 -1.3333 6.6321
v  0.0000 -0.6667 1.3750
v  0.0000 -1.3333 1.3750
v  0.0000 -1.3333 2.5000
v  0.0000 -0.6667 2.5000
v  1.3026 0.0000 4.0000
v  1.0000 0.0000 4.0000
v  1.0000 0.0000 5.5000
v  1.3026 0.0000 5.5000
v  3.5816 0.0000 4.0000
v  3.5816 0.0000 5.5000
v  1.3026 -2.0000 5.5000
v  1.0000 -2.0000 5.5000
v  1.0000 -2.0000 4.0000
v  1.3026 -2.0000 4.0000
v  3.5816 -2.0000 5.5000
v  3.5816 -2.0000 4.0000
v  1.0000 -0.6667 7.0000
v  1.0000 -1.3333 7.0000
v  1.3026 -1.3333 7.0000
v  1.3026 -0.6667 7.0000
v  3.5816 -1.3333 7.0000
v  3.5816 -0.6667 7.0000
v  1.3026 0.0000 -0.0000
v  1.0000 0.0000 -0.0000
v  1.0000 0.0000 1.0000
v  1.3026 0.0000 1.0000
v  3.5816 0.0000 -0.0000
v  3.5816 0.0000 1.0000
v  1.3026 0.0000 2.5000
v  1.0000 0.0000 2.5000
v  3.5816 0.0000 2.5000
v  1.3026 0.0000 6.6321
v  1.0000 0.0000 6.6321
v  1.0000 0.0000 7.0000
v  1.3026 0.0000 7.0000
v  3.5816 0.0000 7.0000
v  3.5816 0.0000 6.6321
v  1.3026 -2.0000 7.0000
v  1.0000 -2.0000 7.0000
v  1.0000 -2.0000 6.6321
v  1.3026 -2.0000 6.6321
v  3.5816 -2.0000 7.0000
v  3.5816 -2.0000 6.6321
v  12.6974 -2.0000 -0.0000
v  13.0000 -2.0000 -0.0000
v  13.0000 -2.0000 1.0000
v  12.6974 -2.0000 1.0000
v  10.4184 -2.0000 -0.0000
v  10.4184 -2.0000 1.0000
v  1.3026 -2.0000 2.5000
v  1.0000 -2.0000 2.5000
v  1.0000 -2.0000 1.3750
v  1.3026 -2.0000 1.3750
v  3.5816 -2.0000 2.5000
v  3.5816 -2.0000 1.3750
v  0.0000 0.0000 4.0000
v  0.0000 0.0000 5.5000
v  0.0000 -2.0000 5.5000
v  0.0000 -2.0000 4.0000
v  0.0000 0.0000 -0.0000
v  0.0000 0.0000 1.0000
v  0.0000 0.0000 2.5000
v  0.0000 0.0000 6.6321
v  0.0000 0.0000 7.0000
v  0.0000 -2.0000 7.0000
v  0.0000 -2.0000 6.6321
v  0.0000 -2.0000 2.5000
v  0.0000 -2.0000 1.3750
v  5.8605 0.0000 1.3750
v  8.1395 0.0000 1.3750
v  8.1395 -2.0000 1.3750
v  5.8605 -2.0000 1.3750
v  0.0000 -0.6667 -0.0000
v  0.0000 -1.3333 -0.0000
v  0.0000 -1.3333 1.0000
v  0.0000 -0.6667 1.0000
v  14.0000 -1.3333 -0.0000
v  14.0000 -0.6667 -0.0000
v  14.0000 -0.6667 1.0000
v  14.0000 -1.3333 1.0000
v  1.0000 0.0000 1.3750
v  1.3026 0.0000 1.3750
v  3.5816 0.0000 1.3750
v  4.3461 0.0000 1.3750
v  13.0000 0.0000 -0.0000
v  12.6974 0.0000 -0.0000
v  12.6974 0.0000 1.0000
v  13.0000 0.0000 1.0000
v  10.4184 0.0000 -0.0000
v  10.4184 0.0000 1.0000
v  10.4184 -2.0000 1.3750
v  1.0000 -2.0000 1.0000
v  1.0000 -2.0000 -0.0000
v  1.3026 -2.0000 -0.0000
v  1.3026 -2.0000 1.0000
v  3.5816 -2.0000 -0.0000
v  3.5816 -2.0000 1.0000
v  0.0000 0.0000 1.3750
v  0.0000 -2.0000 1.0000
v  0.0000 -2.0000 -0.0000
v  10.4184 0.0000 1.3750
v  4.3461 -2.0000 1.3750
v  14.0000 0.0000 -0.0000
v  14.0000 0.0000 1.0000
v  14.0000 -2.0000 1.0000
v  14.0000 -2.0000 -0.0000
v  10.4184 -1.3333 1.3750
v  8.1395 -1.3333 1.3750
v  8.1395 -1.2139 1.1958
v  10.4184 -1.2139 1.1958
v  10.4184 -0.7861 1.1958
v  8.1395 -0.7861 1.1958
v  8.1395 -0.6667 1.3750
v  10.4184 -0.6667 1.3750
v  5.8605 -1.3333 1.3750
v  5.8605 -1.2139 1.1958
v  5.8605 -0.7861 1.1958
v  5.8605 -0.6667 1.3750
v  4.3461 -1.3333 1.3750
v  4.1669 -1.2139 1.1958
v  4.1669 -0.7861 1.1958
v  4.3461 -0.6667 1.3750
v  3.9671 -2.0000 2.5000
v  3.9671 -2.0000 1.7540
v  3.9671 -1.3333 1.7540
v  3.9671 -1.3333 2.5000
v  3.7879 -1.2139 2.5000
v  3.7879 -1.2139 1.5748
v  3.7879 -0.7861 1.5748
v  3.7879 -0.7861 2.5000
v  3.9671 -0.6667 2.5000
v  3.9671 -0.6667 1.7540
v  3.9671 0.0000 1.7540
v  3.9671 0.0000 2.5000
v  3.9671 -2.0000 4.0000
v  3.9671 -1.3333 4.0000
v  3.7879 -1.2139 4.0000
v  3.7879 -0.7861 4.0000
v  3.9671 -0.6667 4.0000
v  3.9671 0.0000 4.0000
v  3.9671 -2.0000 5.5000
v  3.9671 -1.3333 5.5000
v  3.7879 -1.2139 5.3805
v  3.7879 -0.7861 5.3805
v  3.9671 -0.6667 5.5000
v  3.9671 0.0000 5.5000
v  3.9671 -2.0000 6.6321
v  3.9671 -1.3333 6.6321
v  3.9671 -0.6667 6.6321
v  3.9671 0.0000 6.6321
v  12.6974 -1.3333 1.3750
v  12.6974 -1.2139 1.1958
v  12.6974 0.0000 1.3750
v  12.6974 -2.0000 1.3750
v  12.6974 -0.7861 1.1958
v  12.6974 -0.6667 1.3750
v  13.0000 0.0000 1.3750
v  13.0000 -2.0000 1.3750
v  14.0000 0.0000 1.3750
v  14.0000 -0.6667 1.3750
v  14.0000 -1.3333 1.3750
v  14.0000 -2.0000 1.3750
v  13.0000 -0.6667 1.3750
v  13.0000 -1.3333 1.3750
# 180 vertices

vn -1.0000 0.0000 -0.0000
vn 0.0000 1.0000 -0.0000
vn 0.0000 -1.0000 -0.0000
vn -0.7071 0.0000 0.7071
vn 0.0000 0.0000 1.0000
vn 0.3719 0.0000 0.9283
vn 0.0000 0.7071 0.7071
vn 0.2881 0.6322 0.7192
vn 0.0000 -0.7071 0.7071
vn 0.2881 -0.6322 0.7192
vn -0.7071 0.7071 -0.0000
vn -0.7071 -0.7071 -0.0000
vn -0.5774 0.5774 0.5774
vn -0.5774 -0.5774 0.5774
vn 1.0000 0.0000 -0.0000
vn 0.2274 0.8042 0.5491
vn 0.2274 -0.8042 0.5491
vn 0.7071 0.7071 -0.0000
vn 0.7071 -0.7071 -0.0000
vn 0.0000 0.4719 0.8817
vn 0.0000 -0.4719 0.8817
vn 0.2762 0.5763 0.7692
vn 0.3508 0.4762 0.8064
vn 0.3508 -0.4762 0.8064
vn 0.2762 -0.5763 0.7692
vn 0.5491 -0.8042 0.2274
vn 0.7692 0.5763 0.2762
vn 0.8817 0.4719 -0.0000
vn 0.8064 0.4762 0.3508
vn 0.8064 -0.4762 0.3508
vn 0.8817 -0.4719 -0.0000
vn 0.7692 -0.5763 0.2762
vn 0.5491 0.8042 0.2274
vn 0.9782 0.1470 -0.1470
vn 0.8458 0.3772 -0.3772
vn 0.8458 -0.3772 -0.3772
vn 0.9782 -0.1470 -0.1470
vn 0.7152 -0.6283 0.3061
vn 0.9193 0.0000 0.3934
vn 0.7152 0.6283 0.3061
vn -0.1689 0.2246 0.9597
vn -0.6147 0.3722 0.6954
vn -0.6147 -0.3722 0.6954
vn -0.1689 -0.2246 0.9597
vn 0.5774 0.5774 0.5774
vn 0.7071 0.0000 0.7071
vn 0.5774 -0.5774 0.5774
# 47 vertex normals

vt 0.9474 0.6667 0.0000
vt 0.9474 0.3333 0.0000
vt 0.4447 0.3333 0.0000
vt 0.4447 0.6667 0.0000
vt 1.0000 0.5814 0.0000
vt 1.0000 0.4186 0.0000
vt 0.9033 0.4186 0.0000
vt 0.9033 0.5814 0.0000
vt 0.0000 0.4186 0.0000
vt 0.0000 0.5814 0.0000
vt 0.0967 0.5814 0.0000
vt 0.0967 0.4186 0.0000
vt 1.0000 0.6667 0.0000
vt 1.0000 0.3333 0.0000
vt 0.1208 0.3333 0.0000
vt 0.1208 0.6667 0.0000
vt 0.1933 0.6667 0.0000
vt 0.1933 0.3333 0.0000
vt 0.5553 0.0930 0.0000
vt 0.5553 0.0465 0.0000
vt 0.3039 0.3678 0.0000
vt 0.3039 0.0930 0.0000
vt 0.5553 0.2288 0.0000
vt 0.3039 0.2288 0.0000
vt 0.6961 0.0930 0.0000
vt 0.6961 0.0465 0.0000
vt 0.4447 0.0465 0.0000
vt 0.4447 0.0930 0.0000
vt 0.6961 0.2288 0.0000
vt 0.4447 0.2288 0.0000
vt 0.0465 0.3333 0.0000
vt 0.0465 0.6667 0.0000
vt 0.0930 0.6667 0.0000
vt 0.0930 0.3333 0.0000
vt 0.2288 0.6667 0.0000
vt 0.2288 0.3333 0.0000
vt 1.0000 0.0930 0.0000
vt 0.6944 0.0308 0.0000
vt 0.9033 0.0465 0.0000
vt 0.9033 0.0930 0.0000
vt 1.0000 0.2558 0.0000
vt 0.9033 0.2558 0.0000
vt 0.8067 0.0930 0.0000
vt 0.8067 0.0465 0.0000
vt 0.8067 0.2288 0.0000
vt 0.0526 0.0930 0.0000
vt 0.0526 0.0465 0.0000
vt 0.0000 0.0465 0.0000
vt 0.0000 0.0930 0.0000
vt 0.0000 0.2288 0.0000
vt 0.0526 0.2288 0.0000
vt 1.0000 0.0465 0.0000
vt 0.9474 0.0465 0.0000
vt 0.9474 0.0930 0.0000
vt 1.0000 0.2288 0.0000
vt 0.9474 0.2288 0.0000
vt 0.0000 0.9070 0.0000
vt 0.0000 0.9309 0.0000
vt 0.0967 0.9313 0.0000
vt 0.0967 0.9070 0.0000
vt 0.0000 0.7442 0.0000
vt 0.0967 0.7442 0.0000
vt 0.1933 0.0930 0.0000
vt 0.1933 0.0465 0.0000
vt 0.1208 0.0465 0.0000
vt 0.1208 0.0930 0.0000
vt 0.1933 0.2288 0.0000
vt 0.1208 0.2288 0.0000
vt 0.6961 1.0000 0.0000
vt 0.4447 1.0000 0.0000
vt 0.6961 0.0000 0.0000
vt 0.4447 0.0000 0.0000
vt 0.0000 0.3333 0.0000
vt 0.0000 0.6667 0.0000
vt 1.0000 0.0000 0.0000
vt 0.9033 0.0000 0.0000
vt 0.8067 0.0000 0.0000
vt 0.0526 0.0000 0.0000
vt 0.0000 0.0000 0.0000
vt 0.9474 0.0000 0.0000
vt 0.1933 0.0000 0.0000
vt 0.1208 0.0000 0.0000
vt 0.1208 0.9070 0.0000
vt 0.8792 0.5814 0.0000
vt 0.1208 0.5814 0.0000
vt 0.1208 0.4186 0.0000
vt 0.0967 0.6667 0.0000
vt 0.0967 0.3333 0.0000
vt 0.9033 0.3333 0.0000
vt 0.9033 0.6667 0.0000
vt 0.8792 0.0465 0.0000
vt 0.8792 0.2558 0.0000
vt 0.7530 0.3641 0.0000
vt 1.0000 0.9291 0.0000
vt 1.0000 0.9070 0.0000
vt 0.9033 0.9070 0.0000
vt 0.9033 0.9297 0.0000
vt 1.0000 0.7442 0.0000
vt 0.9033 0.7442 0.0000
vt 0.1208 0.7171 0.0000
vt 0.0967 0.0465 0.0000
vt 0.0967 0.0930 0.0000
vt 0.0000 0.2558 0.0000
vt 0.0967 0.2558 0.0000
vt 0.8792 0.0000 0.0000
vt 0.0967 0.0000 0.0000
vt 0.8792 0.7171 0.0000
vt 0.1208 0.2829 0.0000
vt 0.9474 1.0000 0.0000
vt 1.0000 1.0000 0.0000
vt 0.1208 1.0000 0.0000
vt 0.1933 1.0000 0.0000
vt 0.0465 1.0000 0.0000
vt 0.0930 1.0000 0.0000
vt 0.0930 0.0000 0.0000
vt 0.0465 0.0000 0.0000
vt 0.2288 1.0000 0.0000
vt 0.2288 0.0000 0.0000
vt 0.0000 1.0000 0.0000
vt 0.0967 1.0000 0.0000
vt 0.9033 1.0000 0.0000
vt 0.9535 0.0000 0.0000
vt 0.9923 0.0388 0.0000
vt 1.0000 0.3888 0.0000
vt 1.0000 0.3847 0.0000
vt 1.0000 0.6153 0.0000
vt 1.0000 0.6112 0.0000
vt 0.2351 0.7716 0.0000
vt 0.4447 0.9070 0.0000
vt 0.4447 0.7712 0.0000
vt 0.8337 0.6667 0.0000
vt 0.8458 0.6667 0.0000
vt 0.8458 0.3333 0.0000
vt 0.8337 0.3333 0.0000
vt 0.2855 0.0465 0.0000
vt 0.6318 0.5248 0.0000
vt 0.6631 0.6667 0.0000
vt 0.7094 0.6667 0.0000
vt 0.7094 0.3333 0.0000
vt 0.6631 0.3333 0.0000
vt 0.3039 1.0000 0.0000
vt 0.5814 0.0000 0.0000
vt 0.7577 0.0000 0.0000
vt 0.3539 0.1886 0.0000
vt 0.1948 0.0216 0.0000
vt 0.9298 0.6667 0.0000
vt 0.9298 0.3333 0.0000
vt 0.3201 0.9507 0.0000
vt 0.3539 0.7837 0.0000
vt 0.1453 0.2558 0.0000
vt 0.8547 0.2558 0.0000
vt 0.1933 0.2558 0.0000
vt 0.4447 0.2558 0.0000
vt 0.6961 0.2558 0.0000
vt 0.9474 0.2558 0.0000
vt 0.0526 0.2558 0.0000
vt 0.3039 0.2558 0.0000
vt 0.5553 0.2558 0.0000
vt 0.8067 0.2558 0.0000
vt 0.7442 0.6667 0.0000
vt 0.5814 0.6667 0.0000
vt 0.9535 0.3333 0.0000
vt 0.9535 0.6667 0.0000
# 163 texture coords

o ground_divider_platform_small
g ground_divider_platform_small
f 1/1/1 2/2/1 3/3/1 4/4/1 
f 5/5/2 6/6/2 7/7/2 8/8/2 
f 9/9/3 10/10/3 11/11/3 12/12/3 
f 13/13/4 14/14/4 15/2/1 16/1/1 
f 16/1/1 15/2/1 2/2/1 1/1/1 
f 17/15/1 18/16/1 19/17/1 20/18/1 
f 20/18/1 19/17/1 4/4/1 3/3/1 
f 21/19/2 22/20/2 23/21/2 24/22/2 
f 25/23/2 21/19/2 24/22/2 26/24/2 
f 27/25/3 28/26/3 29/27/3 30/28/3 
f 31/29/3 27/25/3 30/28/3 32/30/3 
f 33/31/5 34/32/5 35/33/5 36/34/5 
f 36/34/5 35/33/5 37/35/6 38/36/6 
f 39/37/2 40/38/2 41/39/2 42/40/2 
f 43/41/2 39/37/2 42/40/2 44/42/2 
f 6/6/2 43/41/2 44/42/2 7/7/2 
f 45/43/2 46/44/2 22/20/2 21/19/2 
f 47/45/2 45/43/2 21/19/2 25/23/2 
f 48/46/2 49/47/2 50/48/7 51/49/7 
f 48/46/2 51/49/7 52/50/8 53/51/2 
f 24/22/2 23/21/2 49/47/2 48/46/2 
f 26/24/2 24/22/2 48/46/2 53/51/2 
f 54/37/9 55/52/9 56/53/3 57/54/3 
f 58/55/10 54/37/9 57/54/3 59/56/3 
f 57/54/3 56/53/3 28/26/3 27/25/3 
f 59/56/3 57/54/3 27/25/3 31/29/3 
f 60/57/3 61/58/3 62/59/3 63/60/3 
f 64/61/3 60/57/3 63/60/3 65/62/3 
f 10/10/3 64/61/3 65/62/3 11/11/3 
f 66/63/3 67/64/3 68/65/3 69/66/3 
f 70/67/3 66/63/3 69/66/3 71/68/3 
f 30/28/3 29/27/3 67/64/3 66/63/3 
f 32/30/3 30/28/3 66/63/3 70/67/3 
f 22/20/2 72/69/11 73/70/11 23/21/2 
f 28/26/3 74/71/12 75/72/12 29/27/3 
f 14/73/4 13/74/4 34/32/5 33/31/5 
f 40/38/2 76/75/11 77/76/11 41/39/2 
f 46/44/2 78/77/11 72/69/11 22/20/2 
f 49/47/2 79/78/11 80/79/13 50/48/7 
f 23/21/2 73/70/11 79/78/11 49/47/2 
f 55/52/9 81/75/14 82/80/12 56/53/3 
f 56/53/3 82/80/12 74/71/12 28/26/3 
f 67/64/3 83/81/12 84/82/12 68/65/3 
f 29/27/3 75/72/12 83/81/12 67/64/3 
f 7/7/2 85/83/7 86/84/7 8/8/2 
f 11/11/3 87/85/9 88/86/9 12/12/3 
f 89/73/1 90/74/1 91/87/1 92/88/1 
f 93/13/15 94/14/15 95/89/15 96/90/15 
f 41/39/2 97/91/2 98/92/2 42/40/2 
f 42/40/2 98/92/2 99/92/2 44/42/2 
f 44/42/2 100/93/16 85/83/7 7/7/2 
f 101/94/2 102/95/2 103/96/2 104/97/2 
f 103/96/2 102/95/2 105/98/2 106/99/2 
f 106/99/2 105/98/2 5/5/2 8/8/2 
f 65/62/3 107/100/9 87/85/9 11/11/3 
f 108/101/3 109/48/3 110/49/3 111/102/3 
f 111/102/3 110/49/3 112/103/3 113/104/3 
f 113/104/3 112/103/3 9/9/3 12/12/3 
f 77/76/11 114/105/11 97/91/2 41/39/2 
f 115/106/12 116/79/12 109/48/3 108/101/3 
f 92/88/1 91/87/1 18/16/1 17/15/1 
f 117/107/7 106/99/2 8/8/2 86/84/7 
f 68/65/3 108/101/3 111/102/3 69/66/3 
f 69/66/3 111/102/3 113/104/3 71/68/3 
f 118/108/17 113/104/3 12/12/3 88/86/9 
f 84/82/12 115/106/12 108/101/3 68/65/3 
f 97/91/2 46/44/2 45/43/2 98/92/2 
f 98/92/2 45/43/2 47/45/2 99/92/2 
f 114/105/11 78/77/11 46/44/2 97/91/2 
f 2/2/1 73/71/11 72/72/11 3/3/1 
f 4/4/1 75/70/12 74/69/12 1/1/1 
f 14/14/4 80/75/13 79/80/11 15/2/1 
f 16/1/1 82/109/12 81/110/14 13/13/4 
f 15/2/1 79/80/11 73/71/11 2/2/1 
f 1/1/1 74/69/12 82/109/12 16/1/1 
f 18/16/1 84/111/12 83/112/12 19/17/1 
f 20/18/1 78/81/11 114/82/11 17/15/1 
f 19/17/1 83/112/12 75/70/12 4/4/1 
f 3/3/1 72/72/11 78/81/11 20/18/1 
f 34/32/5 55/113/9 54/114/9 35/33/5 
f 36/34/5 51/115/7 50/116/7 33/31/5 
f 35/33/5 54/114/9 58/117/10 37/35/6 
f 38/36/6 52/118/8 51/115/7 36/34/5 
f 13/74/4 81/119/14 55/113/9 34/32/5 
f 33/31/5 50/116/7 80/79/13 14/73/4 
f 90/74/1 116/119/12 115/120/12 91/87/1 
f 92/88/1 77/106/11 76/79/11 89/73/1 
f 94/14/15 119/75/18 120/76/18 95/89/15 
f 96/90/15 121/121/19 122/110/19 93/13/15 
f 91/87/1 115/120/12 84/111/12 18/16/1 
f 17/15/1 114/82/11 77/106/11 92/88/1 
f 87/122/9 107/123/9 123/124/20 124/13/20 
f 125/13/20 126/125/20 127/126/21 128/14/21 
f 129/14/21 130/127/21 117/128/7 86/28/7 
f 88/129/9 87/122/9 124/13/20 131/74/20 
f 132/74/20 125/13/20 128/14/21 133/73/21 
f 134/73/21 129/14/21 86/28/7 85/64/7 
f 118/130/17 88/129/9 131/74/20 135/131/22 
f 136/132/23 132/74/20 133/73/21 137/133/24 
f 138/134/25 134/73/21 85/64/7 100/135/16 
f 139/37/19 140/136/26 141/137/27 142/74/28 
f 143/74/28 144/138/29 145/139/30 146/73/31 
f 147/73/31 148/140/32 149/21/33 150/141/18 
f 151/142/19 139/37/19 142/74/28 152/13/28 
f 153/13/28 143/74/28 146/73/31 154/14/31 
f 155/14/31 147/73/31 150/141/18 156/72/18 
f 157/5/19 151/142/19 152/13/28 158/74/34 
f 159/74/35 153/13/28 154/14/31 160/73/36 
f 161/73/37 155/14/31 156/72/18 162/50/18 
f 163/143/38 157/5/19 158/74/34 164/1/39 
f 164/1/39 158/74/34 161/73/37 165/2/39 
f 165/2/39 161/73/37 162/50/18 166/69/40 
f 130/127/21 129/14/21 128/14/21 127/126/21 
f 129/14/21 134/73/21 133/73/21 128/14/21 
f 134/73/21 138/134/25 137/133/24 133/73/21 
f 148/140/32 147/73/31 146/73/31 145/139/30 
f 147/73/31 155/14/31 154/14/31 146/73/31 
f 155/14/31 161/73/37 160/73/36 154/14/31 
f 161/73/37 158/74/34 159/74/35 160/73/36 
f 158/74/34 152/13/28 153/13/28 159/74/35 
f 152/13/28 142/74/28 143/74/28 153/13/28 
f 142/74/28 141/137/27 144/138/29 143/74/28 
f 135/131/22 131/74/20 132/74/20 136/132/23 
f 131/74/20 124/13/20 125/13/20 132/74/20 
f 124/13/20 123/124/20 126/125/20 125/13/20 
f 38/144/6 165/2/39 166/69/40 52/145/8 
f 37/146/6 164/1/39 165/2/39 38/147/6 
f 58/148/10 163/143/38 164/1/39 37/149/6 
f 140/150/26 71/68/3 113/104/3 118/108/17 
f 149/151/33 100/93/16 44/42/2 99/92/2 
f 135/131/22 141/137/27 140/136/26 118/130/17 
f 137/133/24 145/139/30 144/138/29 136/132/23 
f 100/135/16 149/21/33 148/140/32 138/134/25 
f 138/134/25 148/140/32 145/139/30 137/133/24 
f 141/137/27 135/131/22 136/132/23 144/138/29 
f 71/68/3 140/150/26 139/152/19 70/67/3 
f 70/67/3 139/152/19 151/153/19 32/30/3 
f 32/30/3 151/153/19 157/154/19 31/29/3 
f 31/29/3 157/154/19 163/155/38 59/56/3 
f 59/56/3 163/155/38 58/55/10 
f 52/50/8 166/156/40 53/51/2 
f 53/51/2 166/156/40 162/157/18 26/24/2 
f 26/24/2 162/157/18 156/158/18 25/23/2 
f 25/23/2 156/158/18 150/159/18 47/45/2 
f 47/45/2 150/159/18 149/151/33 99/92/2 
f 126/125/20 123/124/20 167/124/41 168/125/42 
f 106/99/2 117/107/7 169/107/7 103/99/2 
f 107/100/9 65/62/3 63/62/3 170/100/9 
f 123/124/20 107/123/9 170/123/9 167/124/41 
f 127/126/21 126/125/20 168/125/42 171/126/43 
f 117/128/7 130/127/21 172/127/44 169/128/7 
f 130/127/21 127/126/21 171/126/43 172/127/44 
f 103/99/2 169/107/7 173/107/7 104/99/2 
f 170/100/9 63/62/3 62/62/3 174/100/9 
f 175/139/45 176/126/46 95/102/15 120/73/18 
f 177/14/46 178/73/47 121/16/19 96/11/15 
f 167/124/41 172/160/44 171/126/43 168/125/42 
f 173/107/7 175/107/45 120/99/18 104/99/2 
f 104/97/2 120/121/18 119/110/18 101/94/2 
f 61/58/3 122/119/19 121/120/19 62/59/3 
f 62/62/3 121/62/19 178/100/47 174/100/9 
f 177/126/46 96/11/15 95/102/15 176/90/46 
f 176/90/46 175/15/45 173/74/7 179/132/5 
f 179/132/5 173/74/7 169/32/7 172/161/44 
f 177/126/46 176/90/46 179/132/5 180/74/5 
f 180/74/5 179/132/5 172/161/44 167/162/41 
f 178/16/47 177/126/46 180/74/5 174/13/9 
f 174/13/9 180/74/5 167/162/41 170/163/9 
# 166 polygons - 2 triangles

