# 3ds Max Wavefront OBJ Exporter v0.97b - (c)2007 guruware
# File Created: 24.11.2019 19:40:05

#
# object ground_hole_mid
#

v  0.0000 -1.3333 5.5000
v  0.0000 -0.6667 5.5000
v  0.0000 -0.6667 4.0000
v  0.0000 -1.3333 4.0000
v  5.8605 -2.0000 0.0000
v  8.1395 -2.0000 0.0000
v  8.1395 -2.0000 1.0000
v  5.8605 -2.0000 1.0000
v  0.0000 -1.3333 7.0000
v  0.0000 -0.6667 7.0000
v  0.0000 -0.6667 6.6321
v  0.0000 -1.3333 6.6321
v  0.0000 -0.6667 1.3750
v  0.0000 -1.3333 1.3750
v  0.0000 -1.3333 2.5000
v  0.0000 -0.6667 2.5000
v  1.3026 0.0000 4.0000
v  1.0000 0.0000 4.0000
v  1.0000 0.0000 5.5000
v  1.3026 0.0000 5.5000
v  3.5816 0.0000 4.0000
v  3.5816 0.0000 5.5000
v  1.3026 -2.0000 5.5000
v  1.0000 -2.0000 5.5000
v  1.0000 -2.0000 4.0000
v  1.3026 -2.0000 4.0000
v  3.5816 -2.0000 5.5000
v  3.5816 -2.0000 4.0000
v  1.0000 -0.6667 7.0000
v  1.0000 -1.3333 7.0000
v  1.3026 -1.3333 7.0000
v  1.3026 -0.6667 7.0000
v  3.5816 -1.3333 7.0000
v  3.5816 -0.6667 7.0000
v  1.3026 0.0000 -0.0000
v  1.0000 0.0000 -0.0000
v  1.0000 0.0000 1.0000
v  1.3026 0.0000 1.0000
v  3.5816 0.0000 -0.0000
v  3.5816 0.0000 1.0000
v  5.8605 0.0000 0.0000
v  5.8605 0.0000 1.0000
v  1.3026 0.0000 2.5000
v  1.0000 0.0000 2.5000
v  3.5816 0.0000 2.5000
v  1.3026 0.0000 6.6321
v  1.0000 0.0000 6.6321
v  1.0000 0.0000 7.0000
v  1.3026 0.0000 7.0000
v  3.5816 0.0000 7.0000
v  3.5816 0.0000 6.6321
v  1.3026 -2.0000 7.0000
v  1.0000 -2.0000 7.0000
v  1.0000 -2.0000 6.6321
v  1.3026 -2.0000 6.6321
v  3.5816 -2.0000 7.0000
v  3.5816 -2.0000 6.6321
v  1.3026 -2.0000 2.5000
v  1.0000 -2.0000 2.5000
v  1.0000 -2.0000 1.3750
v  1.3026 -2.0000 1.3750
v  3.5816 -2.0000 2.5000
v  3.5816 -2.0000 1.3750
v  0.0000 0.0000 4.0000
v  0.0000 0.0000 5.5000
v  0.0000 -2.0000 5.5000
v  0.0000 -2.0000 4.0000
v  0.0000 0.0000 -0.0000
v  0.0000 0.0000 1.0000
v  0.0000 0.0000 2.5000
v  0.0000 0.0000 6.6321
v  0.0000 0.0000 7.0000
v  0.0000 -2.0000 7.0000
v  0.0000 -2.0000 6.6321
v  0.0000 -2.0000 2.5000
v  0.0000 -2.0000 1.3750
v  0.0000 -0.6667 -0.0000
v  0.0000 -1.3333 -0.0000
v  0.0000 -1.3333 1.0000
v  0.0000 -0.6667 1.0000
v  1.0000 0.0000 1.3750
v  1.3026 0.0000 1.3750
v  3.5816 0.0000 1.3750
v  4.3440 0.0000 1.3750
v  5.8605 0.0000 1.3750
v  1.0000 -2.0000 1.0000
v  1.0000 -2.0000 -0.0000
v  1.3026 -2.0000 -0.0000
v  1.3026 -2.0000 1.0000
v  3.5816 -2.0000 -0.0000
v  3.5816 -2.0000 1.0000
v  0.0000 0.0000 1.3750
v  0.0000 -2.0000 1.0000
v  0.0000 -2.0000 -0.0000
v  4.3440 -2.0000 1.3750
v  5.8605 -2.0000 1.3750
v  8.1395 -2.0000 1.3750
v  8.1395 -1.3333 1.3750
v  5.8605 -1.3333 1.3750
v  5.8605 -1.2139 1.1958
v  8.1395 -1.2139 1.1958
v  8.1395 -0.7861 1.1958
v  5.8605 -0.7861 1.1958
v  4.3440 -1.3333 1.3750
v  4.1648 -1.2139 1.1958
v  4.1648 -0.7861 1.1958
v  4.3440 -0.6667 1.3750
v  5.8605 -0.6667 1.3750
v  3.9650 -2.0000 2.5000
v  3.9650 -2.0000 1.7540
v  3.9650 -1.3333 1.7540
v  3.9650 -1.3333 2.5000
v  3.7858 -1.2139 2.5000
v  3.7858 -1.2139 1.5748
v  3.7858 -0.7861 1.5748
v  3.7858 -0.7861 2.5000
v  3.9650 -0.6667 2.5000
v  3.9650 -0.6667 1.7540
v  3.9650 0.0000 1.7540
v  3.9650 0.0000 2.5000
v  3.9650 -2.0000 4.0000
v  3.9650 -1.3333 4.0000
v  3.7858 -1.2139 4.0000
v  3.7858 -0.7861 4.0000
v  3.9650 -0.6667 4.0000
v  3.9650 0.0000 4.0000
v  3.9650 -2.0000 5.5000
v  3.9650 -1.3333 5.5000
v  3.7858 -1.2139 5.3805
v  3.7858 -0.7861 5.3805
v  3.9650 -0.6667 5.5000
v  3.9650 0.0000 5.5000
v  3.9650 -2.0000 6.6321
v  3.9650 -1.3333 6.6321
v  3.9650 -0.6667 6.6321
v  3.9650 0.0000 6.6321
v  14.0000 -1.3333 5.5000
v  14.0000 -1.3333 4.0000
v  14.0000 -0.6667 4.0000
v  14.0000 -0.6667 5.5000
v  14.0000 -1.3333 7.0000
v  14.0000 -1.3333 6.6321
v  14.0000 -0.6667 6.6321
v  14.0000 -0.6667 7.0000
v  14.0000 -0.6667 1.3750
v  14.0000 -0.6667 2.5000
v  14.0000 -1.3333 2.5000
v  14.0000 -1.3333 1.3750
v  12.6974 0.0000 4.0000
v  12.6974 0.0000 5.5000
v  13.0000 0.0000 5.5000
v  13.0000 0.0000 4.0000
v  10.4184 0.0000 4.0000
v  10.4184 0.0000 5.5000
v  12.6974 -2.0000 5.5000
v  12.6974 -2.0000 4.0000
v  13.0000 -2.0000 4.0000
v  13.0000 -2.0000 5.5000
v  10.4184 -2.0000 5.5000
v  10.4184 -2.0000 4.0000
v  13.0000 -0.6667 7.0000
v  12.6974 -0.6667 7.0000
v  12.6974 -1.3333 7.0000
v  13.0000 -1.3333 7.0000
v  10.4184 -0.6667 7.0000
v  10.4184 -1.3333 7.0000
v  12.6974 0.0000 0.0000
v  12.6974 0.0000 1.0000
v  13.0000 0.0000 1.0000
v  13.0000 0.0000 0.0000
v  10.4184 0.0000 0.0000
v  10.4184 0.0000 1.0000
v  8.1395 0.0000 0.0000
v  8.1395 0.0000 1.0000
v  12.6974 0.0000 2.5000
v  13.0000 0.0000 2.5000
v  10.4184 0.0000 2.5000
v  12.6974 0.0000 6.6321
v  12.6974 0.0000 7.0000
v  13.0000 0.0000 7.0000
v  13.0000 0.0000 6.6321
v  10.4184 0.0000 6.6321
v  10.4184 0.0000 7.0000
v  12.6974 -2.0000 7.0000
v  12.6974 -2.0000 6.6321
v  13.0000 -2.0000 6.6321
v  13.0000 -2.0000 7.0000
v  10.4184 -2.0000 7.0000
v  10.4184 -2.0000 6.6321
v  12.6974 -2.0000 2.5000
v  12.6974 -2.0000 1.3750
v  13.0000 -2.0000 1.3750
v  13.0000 -2.0000 2.5000
v  10.4184 -2.0000 2.5000
v  10.4184 -2.0000 1.3750
v  14.0000 0.0000 5.5000
v  14.0000 0.0000 4.0000
v  14.0000 -2.0000 4.0000
v  14.0000 -2.0000 5.5000
v  14.0000 0.0000 1.0000
v  14.0000 0.0000 0.0000
v  14.0000 0.0000 2.5000
v  14.0000 0.0000 7.0000
v  14.0000 0.0000 6.6321
v  14.0000 -2.0000 6.6321
v  14.0000 -2.0000 7.0000
v  14.0000 -2.0000 1.3750
v  14.0000 -2.0000 2.5000
v  8.1395 0.0000 1.3750
v  14.0000 -0.6667 0.0000
v  14.0000 -0.6667 1.0000
v  14.0000 -1.3333 1.0000
v  14.0000 -1.3333 0.0000
v  12.6974 0.0000 1.3750
v  13.0000 0.0000 1.3750
v  10.4184 0.0000 1.3750
v  9.6560 0.0000 1.3750
v  13.0000 -2.0000 1.0000
v  12.6974 -2.0000 1.0000
v  12.6974 -2.0000 0.0000
v  13.0000 -2.0000 0.0000
v  10.4184 -2.0000 1.0000
v  10.4184 -2.0000 0.0000
v  14.0000 0.0000 1.3750
v  14.0000 -2.0000 1.0000
v  14.0000 -2.0000 0.0000
v  9.6560 -2.0000 1.3750
v  8.1395 -0.6667 1.3750
v  9.6560 -1.3333 1.3750
v  9.8352 -1.2139 1.1958
v  9.8352 -0.7861 1.1958
v  9.6560 -0.6667 1.3750
v  10.0350 -2.0000 2.5000
v  10.0350 -1.3333 2.5000
v  10.0350 -1.3333 1.7540
v  10.0350 -2.0000 1.7540
v  10.2142 -1.2139 2.5000
v  10.2142 -0.7861 2.5000
v  10.2142 -0.7861 1.5748
v  10.2142 -1.2139 1.5748
v  10.0350 -0.6667 2.5000
v  10.0350 0.0000 2.5000
v  10.0350 0.0000 1.7540
v  10.0350 -0.6667 1.7540
v  10.0350 -2.0000 4.0000
v  10.0350 -1.3333 4.0000
v  10.2142 -1.2139 4.0000
v  10.2142 -0.7861 4.0000
v  10.0350 -0.6667 4.0000
v  10.0350 0.0000 4.0000
v  10.0350 -2.0000 5.5000
v  10.0350 -1.3333 5.5000
v  10.2142 -1.2139 5.3805
v  10.2142 -0.7861 5.3805
v  10.0350 -0.6667 5.5000
v  10.0350 0.0000 5.5000
v  10.0350 -2.0000 6.6321
v  10.0350 -1.3333 6.6321
v  10.0350 -0.6667 6.6321
v  10.0350 0.0000 6.6321
# 260 vertices

vn -1.0000 0.0000 -0.0000
vn 0.0000 -1.0000 -0.0000
vn -0.7071 0.0000 0.7071
vn 0.0000 1.0000 -0.0000
vn 0.0000 0.0000 1.0000
vn 0.3731 0.0000 0.9278
vn 0.0000 0.7071 0.7071
vn 0.2892 0.6320 0.7190
vn 0.0000 -0.7071 0.7071
vn 0.2892 -0.6320 0.7190
vn -0.7071 0.7071 -0.0000
vn -0.7071 -0.7071 -0.0000
vn -0.5774 0.5774 0.5774
vn -0.5774 -0.5774 0.5774
vn 0.2274 0.8042 0.5491
vn -0.0000 0.7071 0.7071
vn 0.2274 -0.8042 0.5491
vn -0.0000 -0.7071 0.7071
vn -0.0000 0.4719 0.8817
vn -0.0000 -0.4719 0.8817
vn 0.2762 0.5763 0.7692
vn 0.3508 0.4762 0.8064
vn 0.3508 -0.4762 0.8064
vn 0.2762 -0.5763 0.7692
vn 0.7071 -0.7071 -0.0000
vn 0.5491 -0.8042 0.2274
vn 0.7692 0.5763 0.2762
vn 0.8817 0.4719 -0.0000
vn 0.8064 0.4762 0.3508
vn 0.8064 -0.4762 0.3508
vn 0.8817 -0.4719 -0.0000
vn 0.7692 -0.5763 0.2762
vn 0.5491 0.8042 0.2274
vn 0.7071 0.7071 -0.0000
vn 0.9782 0.1470 -0.1470
vn 0.8458 0.3772 -0.3772
vn 0.8458 -0.3772 -0.3772
vn 0.9782 -0.1470 -0.1470
vn 0.7154 -0.6286 0.3050
vn 0.9199 0.0000 0.3922
vn 0.9199 -0.0000 0.3922
vn 0.7154 0.6286 0.3050
vn 1.0000 0.0000 -0.0000
vn 0.7071 0.0000 0.7071
vn -0.0000 0.0000 1.0000
vn -0.3731 0.0000 0.9278
vn -0.2892 0.6320 0.7190
vn -0.2892 -0.6320 0.7190
vn 0.5774 0.5774 0.5774
vn 0.5774 -0.5774 0.5774
vn -0.2274 0.8042 0.5491
vn -0.2274 -0.8042 0.5491
vn -0.2762 0.5763 0.7692
vn -0.3508 0.4762 0.8064
vn -0.3508 -0.4762 0.8064
vn -0.2762 -0.5763 0.7692
vn -0.8817 0.4719 -0.0000
vn -0.7692 0.5763 0.2762
vn -0.5491 -0.8042 0.2274
vn -0.8817 -0.4719 -0.0000
vn -0.8064 -0.4762 0.3508
vn -0.8064 0.4762 0.3508
vn -0.5491 0.8042 0.2274
vn -0.7692 -0.5763 0.2762
vn -0.9782 0.1470 -0.1470
vn -0.8458 0.3772 -0.3772
vn -0.8458 -0.3772 -0.3772
vn -0.9782 -0.1470 -0.1470
vn -0.7154 -0.6286 0.3050
vn -0.9199 0.0000 0.3922
vn -0.7154 0.6286 0.3050
# 71 vertex normals

vt 0.9474 0.6667 0.0000
vt 0.9474 0.3333 0.0000
vt 0.4447 0.3333 0.0000
vt 0.4447 0.6667 0.0000
vt 0.0000 0.4186 0.0000
vt 0.0967 0.4186 0.0000
vt 1.0000 0.6667 0.0000
vt 1.0000 0.3333 0.0000
vt 0.1208 0.3333 0.0000
vt 0.1208 0.6667 0.0000
vt 0.1933 0.6667 0.0000
vt 0.1933 0.3333 0.0000
vt 0.5553 0.0930 0.0000
vt 0.5553 0.0465 0.0000
vt 0.3039 0.3678 0.0000
vt 0.3039 0.0930 0.0000
vt 0.5553 0.2288 0.0000
vt 0.3039 0.2288 0.0000
vt 0.6961 0.0930 0.0000
vt 0.6961 0.0465 0.0000
vt 0.4447 0.0465 0.0000
vt 0.4447 0.0930 0.0000
vt 0.6961 0.2288 0.0000
vt 0.4447 0.2288 0.0000
vt 0.0465 0.3333 0.0000
vt 0.0465 0.6667 0.0000
vt 0.0930 0.6667 0.0000
vt 0.0930 0.3333 0.0000
vt 0.2288 0.6667 0.0000
vt 0.2288 0.3333 0.0000
vt 1.0000 0.0930 0.0000
vt 0.6944 0.0308 0.0000
vt 0.9033 0.0465 0.0000
vt 0.9033 0.0930 0.0000
vt 1.0000 0.2558 0.0000
vt 0.9033 0.2558 0.0000
vt 1.0000 0.4186 0.0000
vt 0.9033 0.4186 0.0000
vt 0.8067 0.0930 0.0000
vt 0.8067 0.0465 0.0000
vt 0.8067 0.2288 0.0000
vt 0.0526 0.0930 0.0000
vt 0.0526 0.0465 0.0000
vt 0.0000 0.0465 0.0000
vt 0.0000 0.0930 0.0000
vt 0.0000 0.2288 0.0000
vt 0.0526 0.2288 0.0000
vt 1.0000 0.0465 0.0000
vt 0.9474 0.0465 0.0000
vt 0.9474 0.0930 0.0000
vt 1.0000 0.2288 0.0000
vt 0.9474 0.2288 0.0000
vt 0.1933 0.0930 0.0000
vt 0.1933 0.0465 0.0000
vt 0.1208 0.0465 0.0000
vt 0.1208 0.0930 0.0000
vt 0.1933 0.2288 0.0000
vt 0.1208 0.2288 0.0000
vt 0.6961 1.0000 0.0000
vt 0.4447 1.0000 0.0000
vt 0.6961 0.0000 0.0000
vt 0.4447 0.0000 0.0000
vt 0.0000 0.3333 0.0000
vt 0.0000 0.6667 0.0000
vt 1.0000 0.0000 0.0000
vt 0.9033 0.0000 0.0000
vt 0.8067 0.0000 0.0000
vt 0.0526 0.0000 0.0000
vt 0.0000 0.0000 0.0000
vt 0.9474 0.0000 0.0000
vt 0.1933 0.0000 0.0000
vt 0.1208 0.0000 0.0000
vt 0.0967 0.6667 0.0000
vt 0.0967 0.3333 0.0000
vt 0.8792 0.0465 0.0000
vt 0.8792 0.2558 0.0000
vt 0.7530 0.3641 0.0000
vt 0.1208 0.9070 0.0000
vt 0.0967 0.0465 0.0000
vt 0.0967 0.0930 0.0000
vt 0.0000 0.2558 0.0000
vt 0.0967 0.2558 0.0000
vt 0.8792 0.0000 0.0000
vt 0.0967 0.0000 0.0000
vt 0.1208 0.2829 0.0000
vt 0.1208 0.4186 0.0000
vt 0.9474 1.0000 0.0000
vt 1.0000 1.0000 0.0000
vt 0.1208 1.0000 0.0000
vt 0.1933 1.0000 0.0000
vt 0.0465 1.0000 0.0000
vt 0.0930 1.0000 0.0000
vt 0.0930 0.0000 0.0000
vt 0.0465 0.0000 0.0000
vt 0.2288 1.0000 0.0000
vt 0.2288 0.0000 0.0000
vt 0.0000 1.0000 0.0000
vt 0.0967 1.0000 0.0000
vt 0.4447 0.9070 0.0000
vt 0.4447 0.7712 0.0000
vt 0.8337 0.6667 0.0000
vt 0.8458 0.6667 0.0000
vt 0.8458 0.3333 0.0000
vt 0.8337 0.3333 0.0000
vt 0.2855 0.0465 0.0000
vt 0.6318 0.5248 0.0000
vt 0.6631 0.6667 0.0000
vt 0.7094 0.6667 0.0000
vt 0.7094 0.3333 0.0000
vt 0.6631 0.3333 0.0000
vt 0.3039 1.0000 0.0000
vt 0.5814 0.0000 0.0000
vt 1.0000 0.5814 0.0000
vt 0.7577 0.0000 0.0000
vt 0.3539 0.1886 0.0000
vt 0.1948 0.0216 0.0000
vt 0.9298 0.6667 0.0000
vt 0.9298 0.3333 0.0000
vt 0.3201 0.9507 0.0000
vt 0.3539 0.7837 0.0000
vt 0.1453 0.2558 0.0000
vt 0.8547 0.2558 0.0000
vt 0.1933 0.2558 0.0000
vt 0.4447 0.2558 0.0000
vt 0.6961 0.2558 0.0000
vt 0.9474 0.2558 0.0000
vt 0.0526 0.2558 0.0000
vt 0.3039 0.2558 0.0000
vt 0.5553 0.2558 0.0000
vt 0.8067 0.2558 0.0000
# 130 texture coords

o ground_hole_mid
g ground_hole_mid
f 1/1/1 2/2/1 3/3/1 4/4/1 
f 5/5/2 6/5/2 7/6/2 8/6/2 
f 9/7/3 10/8/3 11/2/1 12/1/1 
f 12/1/1 11/2/1 2/2/1 1/1/1 
f 13/9/1 14/10/1 15/11/1 16/12/1 
f 16/12/1 15/11/1 4/4/1 3/3/1 
f 17/13/4 18/14/4 19/15/4 20/16/4 
f 21/17/4 17/13/4 20/16/4 22/18/4 
f 23/19/2 24/20/2 25/21/2 26/22/2 
f 27/23/2 23/19/2 26/22/2 28/24/2 
f 29/25/5 30/26/5 31/27/5 32/28/5 
f 32/28/5 31/27/5 33/29/6 34/30/6 
f 35/31/4 36/32/4 37/33/4 38/34/4 
f 39/35/4 35/31/4 38/34/4 40/36/4 
f 41/37/4 39/35/4 40/36/4 42/38/4 
f 43/39/4 44/40/4 18/14/4 17/13/4 
f 45/41/4 43/39/4 17/13/4 21/17/4 
f 46/42/4 47/43/4 48/44/7 49/45/7 
f 46/42/4 49/45/7 50/46/8 51/47/4 
f 20/16/4 19/15/4 47/43/4 46/42/4 
f 22/18/4 20/16/4 46/42/4 51/47/4 
f 52/31/9 53/48/9 54/49/2 55/50/2 
f 56/51/10 52/31/9 55/50/2 57/52/2 
f 55/50/2 54/49/2 24/20/2 23/19/2 
f 57/52/2 55/50/2 23/19/2 27/23/2 
f 58/53/2 59/54/2 60/55/2 61/56/2 
f 62/57/2 58/53/2 61/56/2 63/58/2 
f 26/22/2 25/21/2 59/54/2 58/53/2 
f 28/24/2 26/22/2 58/53/2 62/57/2 
f 18/14/4 64/59/11 65/60/11 19/15/4 
f 24/20/2 66/61/12 67/62/12 25/21/2 
f 10/63/3 9/64/3 30/26/5 29/25/5 
f 36/32/4 68/65/11 69/66/11 37/33/4 
f 44/40/4 70/67/11 64/59/11 18/14/4 
f 47/43/4 71/68/11 72/69/13 48/44/7 
f 19/15/4 65/60/11 71/68/11 47/43/4 
f 53/48/9 73/65/14 74/70/12 54/49/2 
f 54/49/2 74/70/12 66/61/12 24/20/2 
f 59/54/2 75/71/12 76/72/12 60/55/2 
f 25/21/2 67/62/12 75/71/12 59/54/2 
f 77/63/1 78/64/1 79/73/1 80/74/1 
f 37/33/4 81/75/4 82/76/4 38/34/4 
f 38/34/4 82/76/4 83/76/4 40/36/4 
f 40/36/4 84/77/15 85/78/16 42/38/4 
f 86/79/2 87/44/2 88/45/2 89/80/2 
f 89/80/2 88/45/2 90/81/2 91/82/2 
f 91/82/2 90/81/2 5/5/2 8/6/2 
f 69/66/11 92/83/11 81/75/4 37/33/4 
f 93/84/12 94/69/12 87/44/2 86/79/2 
f 80/74/1 79/73/1 14/10/1 13/9/1 
f 60/55/2 86/79/2 89/80/2 61/56/2 
f 61/56/2 89/80/2 91/82/2 63/58/2 
f 95/85/17 91/82/2 8/6/2 96/86/18 
f 76/72/12 93/84/12 86/79/2 60/55/2 
f 81/75/4 44/40/4 43/39/4 82/76/4 
f 82/76/4 43/39/4 45/41/4 83/76/4 
f 92/83/11 70/67/11 44/40/4 81/75/4 
f 2/2/1 65/61/11 64/62/11 3/3/1 
f 4/4/1 67/60/12 66/59/12 1/1/1 
f 10/8/3 72/65/13 71/70/11 11/2/1 
f 12/1/1 74/87/12 73/88/14 9/7/3 
f 11/2/1 71/70/11 65/61/11 2/2/1 
f 1/1/1 66/59/12 74/87/12 12/1/1 
f 14/10/1 76/89/12 75/90/12 15/11/1 
f 16/12/1 70/71/11 92/72/11 13/9/1 
f 15/11/1 75/90/12 67/60/12 4/4/1 
f 3/3/1 64/62/11 70/71/11 16/12/1 
f 30/26/5 53/91/9 52/92/9 31/27/5 
f 32/28/5 49/93/7 48/94/7 29/25/5 
f 31/27/5 52/92/9 56/95/10 33/29/6 
f 34/30/6 50/96/8 49/93/7 32/28/5 
f 9/64/3 73/97/14 53/91/9 30/26/5 
f 29/25/5 48/94/7 72/69/13 10/63/3 
f 78/64/1 94/97/12 93/98/12 79/73/1 
f 80/74/1 69/84/11 68/69/11 77/63/1 
f 79/73/1 93/98/12 76/89/12 14/10/1 
f 13/9/1 92/72/11 69/84/11 80/74/1 
f 96/99/18 97/99/18 98/64/19 99/64/19 
f 100/64/19 101/64/19 102/63/20 103/63/20 
f 95/100/17 96/99/18 99/64/19 104/101/21 
f 105/102/22 100/64/19 103/63/20 106/103/23 
f 107/104/24 108/63/20 85/54/16 84/105/15 
f 109/31/25 110/106/26 111/107/27 112/64/28 
f 113/64/28 114/108/29 115/109/30 116/63/31 
f 117/63/31 118/110/32 119/15/33 120/111/34 
f 121/112/25 109/31/25 112/64/28 122/7/28 
f 123/7/28 113/64/28 116/63/31 124/8/31 
f 125/8/31 117/63/31 120/111/34 126/62/34 
f 127/113/25 121/112/25 122/7/28 128/64/35 
f 129/64/36 123/7/28 124/8/31 130/63/37 
f 131/63/38 125/8/31 126/62/34 132/46/34 
f 133/114/39 127/113/25 128/64/35 134/1/40 
f 134/1/40 128/64/35 131/63/38 135/2/41 
f 135/2/41 131/63/38 132/46/34 136/59/42 
f 108/63/20 107/104/24 106/103/23 103/63/20 
f 118/110/32 117/63/31 116/63/31 115/109/30 
f 117/63/31 125/8/31 124/8/31 116/63/31 
f 125/8/31 131/63/38 130/63/37 124/8/31 
f 131/63/38 128/64/35 129/64/36 130/63/37 
f 128/64/35 122/7/28 123/7/28 129/64/36 
f 122/7/28 112/64/28 113/64/28 123/7/28 
f 112/64/28 111/107/27 114/108/29 113/64/28 
f 104/101/21 99/64/19 100/64/19 105/102/22 
f 99/64/19 98/64/19 101/64/19 100/64/19 
f 34/115/6 135/2/41 136/59/42 50/116/8 
f 33/117/6 134/1/40 135/2/41 34/118/6 
f 56/119/10 133/114/39 134/1/40 33/120/6 
f 110/121/26 63/58/2 91/82/2 95/85/17 
f 119/122/33 84/77/15 40/36/4 83/76/4 
f 104/101/21 111/107/27 110/106/26 95/100/17 
f 106/103/23 115/109/30 114/108/29 105/102/22 
f 84/105/15 119/15/33 118/110/32 107/104/24 
f 107/104/24 118/110/32 115/109/30 106/103/23 
f 111/107/27 104/101/21 105/102/22 114/108/29 
f 63/58/2 110/121/26 109/123/25 62/57/2 
f 62/57/2 109/123/25 121/124/25 28/24/2 
f 28/24/2 121/124/25 127/125/25 27/23/2 
f 27/23/2 127/125/25 133/126/39 57/52/2 
f 57/52/2 133/126/39 56/51/10 
f 50/46/8 136/127/42 51/47/4 
f 51/47/4 136/127/42 132/128/34 22/18/4 
f 22/18/4 132/128/34 126/129/34 21/17/4 
f 21/17/4 126/129/34 120/130/34 45/41/4 
f 45/41/4 120/130/34 119/122/33 83/76/4 
f 96/86/18 8/6/2 7/6/2 97/86/18 
f 137/1/43 138/4/43 139/3/43 140/2/43 
f 141/7/44 142/1/43 143/2/43 144/8/44 
f 142/1/43 137/1/43 140/2/43 143/2/43 
f 145/9/43 146/12/43 147/11/43 148/10/43 
f 146/12/43 139/3/43 138/4/43 147/11/43 
f 149/13/4 150/16/4 151/15/4 152/14/4 
f 153/17/4 154/18/4 150/16/4 149/13/4 
f 155/19/2 156/22/2 157/21/2 158/20/2 
f 159/23/2 160/24/2 156/22/2 155/19/2 
f 161/25/5 162/28/45 163/27/45 164/26/5 
f 162/28/45 165/30/46 166/29/46 163/27/45 
f 167/31/4 168/34/4 169/33/4 170/32/4 
f 171/35/4 172/36/4 168/34/4 167/31/4 
f 173/37/4 174/38/4 172/36/4 171/35/4 
f 175/39/4 149/13/4 152/14/4 176/40/4 
f 177/41/4 153/17/4 149/13/4 175/39/4 
f 178/42/4 179/45/16 180/44/7 181/43/4 
f 178/42/4 182/47/4 183/46/47 179/45/16 
f 150/16/4 178/42/4 181/43/4 151/15/4 
f 154/18/4 182/47/4 178/42/4 150/16/4 
f 184/31/18 185/50/2 186/49/2 187/48/9 
f 188/51/48 189/52/2 185/50/2 184/31/18 
f 185/50/2 155/19/2 158/20/2 186/49/2 
f 189/52/2 159/23/2 155/19/2 185/50/2 
f 190/53/2 191/56/2 192/55/2 193/54/2 
f 194/57/2 195/58/2 191/56/2 190/53/2 
f 156/22/2 190/53/2 193/54/2 157/21/2 
f 160/24/2 194/57/2 190/53/2 156/22/2 
f 152/14/4 151/15/4 196/60/34 197/59/34 
f 158/20/2 157/21/2 198/62/25 199/61/25 
f 144/63/44 161/25/5 164/26/5 141/64/44 
f 170/32/4 169/33/4 200/66/34 201/65/34 
f 176/40/4 152/14/4 197/59/34 202/67/34 
f 181/43/4 180/44/7 203/69/49 204/68/34 
f 151/15/4 181/43/4 204/68/34 196/60/34 
f 187/48/9 186/49/2 205/70/25 206/65/50 
f 186/49/2 158/20/2 199/61/25 205/70/25 
f 193/54/2 192/55/2 207/72/25 208/71/25 
f 157/21/2 193/54/2 208/71/25 198/62/25 
f 174/38/4 42/38/4 85/78/16 209/78/16 
f 210/63/43 211/74/43 212/73/43 213/64/43 
f 169/33/4 168/34/4 214/76/4 215/75/4 
f 168/34/4 172/36/4 216/76/4 214/76/4 
f 172/36/4 174/38/4 209/78/16 217/77/51 
f 218/79/2 219/80/2 220/45/2 221/44/2 
f 219/80/2 222/82/2 223/81/2 220/45/2 
f 222/82/2 7/6/2 6/5/2 223/81/2 
f 200/66/34 169/33/4 215/75/4 224/83/34 
f 225/84/25 218/79/2 221/44/2 226/69/25 
f 211/74/43 145/9/43 148/10/43 212/73/43 
f 192/55/2 191/56/2 219/80/2 218/79/2 
f 191/56/2 195/58/2 222/82/2 219/80/2 
f 227/85/52 97/86/18 7/6/2 222/82/2 
f 207/72/25 192/55/2 218/79/2 225/84/25 
f 215/75/4 214/76/4 175/39/4 176/40/4 
f 214/76/4 216/76/4 177/41/4 175/39/4 
f 224/83/34 215/75/4 176/40/4 202/67/34 
f 140/2/43 139/3/43 197/62/34 196/61/34 
f 138/4/43 137/1/43 199/59/25 198/60/25 
f 144/8/44 143/2/43 204/70/34 203/65/49 
f 142/1/43 141/7/44 206/88/50 205/87/25 
f 143/2/43 140/2/43 196/61/34 204/70/34 
f 137/1/43 142/1/43 205/87/25 199/59/25 
f 148/10/43 147/11/43 208/90/25 207/89/25 
f 146/12/43 145/9/43 224/72/34 202/71/34 
f 147/11/43 138/4/43 198/60/25 208/90/25 
f 139/3/43 146/12/43 202/71/34 197/62/34 
f 164/26/5 163/27/45 184/92/18 187/91/9 
f 162/28/45 161/25/5 180/94/7 179/93/16 
f 163/27/45 166/29/46 188/95/48 184/92/18 
f 165/30/46 162/28/45 179/93/16 183/96/47 
f 141/64/44 164/26/5 187/91/9 206/97/50 
f 161/25/5 144/63/44 203/69/49 180/94/7 
f 213/64/43 212/73/43 225/98/25 226/97/25 
f 211/74/43 210/63/43 201/69/34 200/84/34 
f 212/73/43 148/10/43 207/89/25 225/98/25 
f 145/9/43 211/74/43 200/84/34 224/72/34 
f 228/63/20 209/54/16 85/54/16 108/63/20 
f 227/100/52 229/101/53 98/64/19 97/99/18 
f 230/102/54 231/103/55 102/63/20 101/64/19 
f 232/104/56 217/105/51 209/54/16 228/63/20 
f 233/31/12 234/64/57 235/107/58 236/106/59 
f 237/64/57 238/63/60 239/109/61 240/108/62 
f 241/63/60 242/111/11 243/15/63 244/110/64 
f 245/112/12 246/7/57 234/64/57 233/31/12 
f 247/7/57 248/8/60 238/63/60 237/64/57 
f 249/8/60 250/62/11 242/111/11 241/63/60 
f 251/113/12 252/64/65 246/7/57 245/112/12 
f 253/64/66 254/63/67 248/8/60 247/7/57 
f 255/63/68 256/46/11 250/62/11 249/8/60 
f 257/114/69 258/1/70 252/64/65 251/113/12 
f 258/1/70 259/2/70 255/63/68 252/64/65 
f 259/2/70 260/59/71 256/46/11 255/63/68 
f 228/63/20 102/63/20 231/103/55 232/104/56 
f 244/110/64 239/109/61 238/63/60 241/63/60 
f 241/63/60 238/63/60 248/8/60 249/8/60 
f 249/8/60 248/8/60 254/63/67 255/63/68 
f 255/63/68 254/63/67 253/64/66 252/64/65 
f 252/64/65 253/64/66 247/7/57 246/7/57 
f 246/7/57 247/7/57 237/64/57 234/64/57 
f 234/64/57 237/64/57 240/108/62 235/107/58 
f 229/101/53 230/102/54 101/64/19 98/64/19 
f 165/115/46 183/116/47 260/59/71 259/2/70 
f 166/117/46 165/118/46 259/2/70 258/1/70 
f 188/119/48 166/120/46 258/1/70 257/114/69 
f 236/121/59 227/85/52 222/82/2 195/58/2 
f 243/122/63 216/76/4 172/36/4 217/77/51 
f 229/101/53 227/100/52 236/106/59 235/107/58 
f 231/103/55 230/102/54 240/108/62 239/109/61 
f 217/105/51 232/104/56 244/110/64 243/15/63 
f 232/104/56 231/103/55 239/109/61 244/110/64 
f 235/107/58 240/108/62 230/102/54 229/101/53 
f 195/58/2 194/57/2 233/123/12 236/121/59 
f 194/57/2 160/24/2 245/124/12 233/123/12 
f 160/24/2 159/23/2 251/125/12 245/124/12 
f 159/23/2 189/52/2 257/126/69 251/125/12 
f 189/52/2 188/51/48 257/126/69 
f 183/46/47 182/47/4 260/127/71 
f 182/47/4 154/18/4 256/128/11 260/127/71 
f 154/18/4 153/17/4 250/129/11 256/128/11 
f 153/17/4 177/41/4 242/130/11 250/129/11 
f 177/41/4 216/76/4 243/122/63 242/130/11 
f 41/37/4 42/38/4 174/38/4 173/37/4 
f 108/63/20 103/63/20 102/63/20 228/63/20 
# 245 polygons - 4 triangles

