# 3ds Max Wavefront OBJ Exporter v0.97b - (c)2007 guruware
# File Created: 24.11.2019 19:40:40

#
# object ground_divider_straight
#

v  1.3026 -2.0000 0.0000
v  1.3026 -2.0000 1.0000
v  1.0000 -2.0000 1.0000
v  1.0000 -2.0000 0.0000
v  3.5816 -2.0000 0.0000
v  3.5816 -2.0000 1.0000
v  5.8605 -2.0000 0.0000
v  5.8605 -2.0000 1.0000
v  8.1395 -2.0000 1.0000
v  8.1395 -2.0000 1.3750
v  5.8605 -2.0000 1.3750
v  -0.0000 -1.3333 0.0000
v  -0.0000 -1.3333 1.0000
v  -0.0000 -0.6667 1.0000
v  -0.0000 -0.6667 0.0000
v  1.0000 0.0000 0.0000
v  1.0000 0.0000 1.0000
v  1.3026 0.0000 1.0000
v  1.3026 0.0000 0.0000
v  3.5816 0.0000 1.0000
v  3.5816 0.0000 0.0000
v  5.8605 0.0000 1.0000
v  5.8605 0.0000 0.0000
v  3.5816 -2.0000 1.3750
v  3.5816 0.0000 1.3750
v  5.8605 0.0000 1.3750
v  -0.0000 0.0000 1.0000
v  -0.0000 0.0000 0.0000
v  -0.0000 -2.0000 0.0000
v  -0.0000 -2.0000 1.0000
v  5.8605 -1.3333 1.3750
v  3.5816 -1.3333 1.3750
v  5.8605 -1.2139 1.1958
v  5.8605 -0.7861 1.1958
v  3.5816 -0.7861 1.1958
v  3.5816 -1.2139 1.1958
v  5.8605 -0.6667 1.3750
v  3.5816 -0.6667 1.3750
v  1.3026 -1.2139 1.1958
v  1.3026 -1.3333 1.3750
v  1.3026 0.0000 1.3750
v  1.3026 -2.0000 1.3750
v  1.3026 -0.7861 1.1958
v  1.3026 -0.6667 1.3750
v  1.0000 0.0000 1.3750
v  1.0000 -2.0000 1.3750
v  -0.0000 0.0000 1.3750
v  -0.0000 -0.6667 1.3750
v  -0.0000 -1.3333 1.3750
v  -0.0000 -2.0000 1.3750
v  8.1395 -1.3333 1.3750
v  8.1395 -1.2139 1.1958
v  8.1395 0.0000 1.3750
v  8.1395 0.0000 1.0000
v  8.1395 -0.6667 1.3750
v  1.0000 -0.6667 1.3750
v  1.0000 -1.3333 1.3750
v  12.6974 -2.0000 0.0000
v  13.0000 -2.0000 0.0000
v  13.0000 -2.0000 1.0000
v  12.6974 -2.0000 1.0000
v  10.4184 -2.0000 0.0000
v  10.4184 -2.0000 1.0000
v  8.1395 -2.0000 0.0000
v  14.0000 -1.3333 0.0000
v  14.0000 -0.6667 0.0000
v  14.0000 -0.6667 1.0000
v  14.0000 -1.3333 1.0000
v  13.0000 0.0000 0.0000
v  12.6974 0.0000 0.0000
v  12.6974 0.0000 1.0000
v  13.0000 0.0000 1.0000
v  10.4184 0.0000 0.0000
v  10.4184 0.0000 1.0000
v  8.1395 0.0000 0.0000
v  10.4184 -2.0000 1.3750
v  10.4184 0.0000 1.3750
v  14.0000 0.0000 0.0000
v  14.0000 0.0000 1.0000
v  14.0000 -2.0000 1.0000
v  14.0000 -2.0000 0.0000
v  10.4184 -1.3333 1.3750
v  10.4184 -1.2139 1.1958
v  10.4184 -0.7861 1.1958
v  8.1395 -0.7861 1.1958
v  10.4184 -0.6667 1.3750
v  12.6974 -1.3333 1.3750
v  12.6974 -1.2139 1.1958
v  12.6974 0.0000 1.3750
v  12.6974 -2.0000 1.3750
v  12.6974 -0.7861 1.1958
v  12.6974 -0.6667 1.3750
v  13.0000 0.0000 1.3750
v  13.0000 -2.0000 1.3750
v  14.0000 0.0000 1.3750
v  14.0000 -0.6667 1.3750
v  14.0000 -1.3333 1.3750
v  14.0000 -2.0000 1.3750
v  13.0000 -0.6667 1.3750
v  13.0000 -1.3333 1.3750
# 100 vertices

vn 0.0000 -1.0000 -0.0000
vn 0.0000 -0.7071 0.7071
vn -1.0000 0.0000 -0.0000
vn -1.0000 -0.0000 0.0000
vn -1.0000 0.0000 0.0000
vn 0.0000 1.0000 -0.0000
vn 0.0000 0.7071 0.7071
vn -0.7071 0.7071 0.0000
vn -0.7071 -0.7071 0.0000
vn 0.0000 0.4719 0.8817
vn 0.0000 -0.4719 0.8817
vn 0.6147 0.3722 0.6954
vn 0.1689 0.2246 0.9597
vn 0.6147 -0.3722 0.6954
vn 0.1689 -0.2246 0.9597
vn -0.5774 0.5774 0.5774
vn -0.7071 0.0000 0.7071
vn -0.5774 -0.5774 0.5774
vn 0.0000 0.0000 1.0000
vn 1.0000 0.0000 -0.0000
vn 0.7071 0.7071 -0.0000
vn 0.7071 -0.7071 -0.0000
vn -0.1689 0.2246 0.9597
vn -0.6147 0.3722 0.6954
vn -0.6147 -0.3722 0.6954
vn -0.1689 -0.2246 0.9597
vn 0.5774 0.5774 0.5774
vn 0.7071 0.0000 0.7071
vn 0.5774 -0.5774 0.5774
# 29 vertex normals

vt 0.0000 0.9070 0.0000
vt 0.0967 0.9070 0.0000
vt 0.0967 0.9313 0.0000
vt 0.0000 0.9309 0.0000
vt 0.0000 0.7442 0.0000
vt 0.0967 0.7442 0.0000
vt 0.0000 0.5814 0.0000
vt 0.0967 0.5814 0.0000
vt 0.1208 0.5814 0.0000
vt 1.0000 0.6667 0.0000
vt 0.9033 0.6667 0.0000
vt 0.9033 0.3333 0.0000
vt 1.0000 0.3333 0.0000
vt 1.0000 0.9291 0.0000
vt 0.9033 0.9297 0.0000
vt 0.9033 0.9070 0.0000
vt 1.0000 0.9070 0.0000
vt 0.9033 0.7442 0.0000
vt 1.0000 0.7442 0.0000
vt 0.9033 0.5814 0.0000
vt 1.0000 0.5814 0.0000
vt 0.1208 0.7171 0.0000
vt 0.8792 0.7171 0.0000
vt 0.8792 0.5814 0.0000
vt 0.9033 0.0000 0.0000
vt 1.0000 0.0000 0.0000
vt 1.0000 1.0000 0.0000
vt 0.9033 1.0000 0.0000
vt 0.9535 0.0000 0.0000
vt 1.0000 0.3888 0.0000
vt 0.9923 0.0388 0.0000
vt 1.0000 0.6153 0.0000
vt 1.0000 0.3847 0.0000
vt 0.4447 0.0930 0.0000
vt 0.2351 0.7716 0.0000
vt 1.0000 0.6112 0.0000
vt 0.7094 0.3333 0.0000
vt 0.0000 0.3333 0.0000
vt 0.0967 0.0930 0.0000
vt 0.1208 0.6667 0.0000
vt 0.7442 0.6667 0.0000
vt 0.0967 1.0000 0.0000
vt 0.0000 1.0000 0.0000
vt 0.4186 0.3333 0.0000
vt 0.0930 0.6667 0.0000
vt 0.0930 0.3333 0.0000
# 46 texture coords

o ground_divider_straight
g ground_divider_straight
f 1/1/1 2/2/1 3/3/1 4/4/1 
f 5/5/1 6/6/1 2/2/1 1/1/1 
f 7/7/1 8/8/1 6/6/1 5/5/1 
f 8/8/1 9/8/1 10/9/2 11/9/2 
f 12/10/3 13/11/4 14/12/5 15/13/3 
f 16/14/6 17/15/6 18/16/6 19/17/6 
f 18/16/6 20/18/6 21/19/6 19/17/6 
f 20/18/6 22/20/6 23/21/6 21/19/6 
f 6/6/1 8/8/1 11/9/2 24/22/2 
f 25/23/7 26/24/7 22/20/6 20/18/6 
f 15/13/3 14/12/5 27/25/8 28/26/8 
f 13/11/4 12/10/3 29/27/9 30/28/9 
f 11/29/2 31/10/10 32/30/10 24/31/2 
f 33/10/10 34/13/11 35/32/11 36/33/10 
f 37/13/11 26/34/7 25/35/7 38/36/11 
f 38/36/11 35/32/11 34/13/11 37/13/11 
f 31/10/10 33/10/10 36/33/10 32/30/10 
f 36/33/10 39/33/12 40/30/13 32/30/10 
f 20/18/6 18/18/6 41/23/7 25/23/7 
f 24/22/2 42/22/2 2/6/1 6/6/1 
f 32/30/10 40/30/13 42/31/2 24/31/2 
f 35/32/11 43/32/14 39/33/12 36/33/10 
f 25/35/7 41/35/7 44/36/15 38/36/11 
f 38/36/11 44/36/15 43/32/14 35/32/11 
f 18/18/6 17/18/6 45/23/7 41/23/7 
f 42/22/2 46/22/2 3/6/1 2/6/1 
f 47/37/16 27/38/8 14/39/5 48/32/17 
f 49/13/17 13/8/4 30/40/9 50/38/18 
f 40/30/13 39/33/12 43/32/14 44/41/15 
f 45/23/7 17/18/6 27/18/8 47/23/16 
f 17/15/6 16/14/6 28/27/8 27/28/8 
f 4/4/1 3/3/1 30/42/9 29/43/9 
f 3/6/1 46/22/2 50/22/18 30/6/9 
f 11/29/2 10/29/2 51/10/10 31/10/10 
f 31/10/10 51/10/10 52/10/10 33/10/10 
f 26/24/7 53/24/7 54/20/6 22/20/6 
f 37/13/11 55/13/11 53/34/7 26/34/7 
f 14/12/5 13/8/4 49/37/17 48/32/17 
f 48/44/17 56/31/19 45/22/7 47/41/16 
f 56/31/19 44/10/15 41/38/7 45/22/7 
f 49/12/17 57/32/19 56/31/19 48/44/17 
f 57/32/19 40/45/13 44/10/15 56/31/19 
f 50/11/18 46/36/2 57/32/19 49/12/17 
f 46/36/2 42/46/2 40/45/13 57/32/19 
f 58/1/1 59/4/1 60/3/1 61/2/1 
f 62/5/1 58/1/1 61/2/1 63/6/1 
f 64/7/1 62/5/1 63/6/1 9/8/1 
f 65/10/20 66/13/20 67/12/20 68/11/20 
f 69/14/6 70/17/6 71/16/6 72/15/6 
f 71/16/6 70/17/6 73/19/6 74/18/6 
f 74/18/6 73/19/6 75/21/6 54/20/6 
f 63/6/1 76/22/2 10/9/2 9/8/1 
f 77/23/7 74/18/6 54/20/6 53/24/7 
f 66/13/20 78/26/21 79/25/21 67/12/20 
f 68/11/20 80/28/22 81/27/22 65/10/20 
f 10/29/2 76/31/2 82/30/10 51/10/10 
f 52/10/10 83/33/10 84/32/11 85/13/11 
f 55/13/11 86/36/11 77/35/7 53/34/7 
f 86/36/11 55/13/11 85/13/11 84/32/11 
f 51/10/10 82/30/10 83/33/10 52/10/10 
f 83/33/10 82/30/10 87/30/23 88/33/24 
f 74/18/6 77/23/7 89/23/7 71/18/6 
f 76/22/2 63/6/1 61/6/1 90/22/2 
f 82/30/10 76/31/2 90/31/2 87/30/23 
f 84/32/11 83/33/10 88/33/24 91/32/25 
f 77/35/7 86/36/11 92/36/26 89/35/7 
f 86/36/11 84/32/11 91/32/25 92/36/26 
f 71/18/6 89/23/7 93/23/7 72/18/6 
f 90/22/2 61/6/1 60/6/1 94/22/2 
f 95/37/27 96/32/28 67/39/20 79/38/21 
f 97/13/28 98/38/29 80/40/22 68/8/20 
f 87/30/23 92/41/26 91/32/25 88/33/24 
f 93/23/7 95/23/27 79/18/21 72/18/6 
f 72/15/6 79/28/21 78/27/21 69/14/6 
f 59/4/1 81/43/22 80/42/22 60/3/1 
f 60/6/1 80/6/22 98/22/29 94/22/2 
f 64/7/1 9/8/1 8/8/1 7/7/1 
f 52/10/10 85/13/11 34/13/11 33/10/10 
f 67/12/20 96/32/28 97/37/28 68/8/20 
f 54/20/6 75/21/6 23/21/6 22/20/6 
f 85/13/11 55/13/11 37/13/11 34/13/11 
f 96/44/28 95/41/27 93/22/7 99/31/19 
f 99/31/19 93/22/7 89/38/7 92/10/26 
f 97/12/28 96/44/28 99/31/19 100/32/19 
f 100/32/19 99/31/19 92/10/26 87/45/23 
f 98/11/29 97/12/28 100/32/19 94/36/2 
f 94/36/2 100/32/19 87/45/23 90/46/2 
# 87 polygons

