# 3ds Max Wavefront OBJ Exporter v0.97b - (c)2007 guruware
# File Created: 24.11.2019 19:40:12

#
# object wall_inset_double
#

v  0.0000 5.2013 -0.0000
v  0.0000 2.7987 -0.0000
v  0.0000 2.7987 1.0000
v  0.0000 5.2013 1.0000
v  8.1395 5.2013 1.0000
v  5.8605 5.2013 1.0000
v  5.8605 2.7987 1.0000
v  8.1395 2.7987 1.0000
v  14.0000 5.2013 1.0000
v  14.0000 2.7987 1.0000
v  14.0000 2.7987 0.0000
v  14.0000 5.2013 0.0000
v  13.0000 5.2013 1.0000
v  13.0000 2.7987 1.0000
v  12.6974 5.2013 1.0000
v  12.6974 2.7987 1.0000
v  10.4184 5.2013 1.0000
v  10.4184 2.7987 1.0000
v  1.0000 2.7987 1.0000
v  1.0000 5.2013 1.0000
v  1.3026 2.7987 1.0000
v  1.3026 5.2013 1.0000
v  0.0000 0.3960 -0.0000
v  0.0000 -0.0000 -0.0000
v  0.0000 0.0000 1.0000
v  0.0000 0.3960 1.0000
v  0.0000 7.6040 1.0000
v  0.0000 8.0000 1.0000
v  0.0000 8.0000 -0.0000
v  0.0000 7.6040 -0.0000
v  8.1395 8.0000 1.0000
v  5.8605 8.0000 1.0000
v  5.8605 7.6040 1.0000
v  8.1395 7.6040 1.0000
v  8.1395 7.6040 0.2003
v  5.8605 7.6040 0.2003
v  5.8605 5.2013 0.2003
v  8.1395 5.2013 0.2003
v  3.5816 0.0000 1.0000
v  5.8605 0.0000 1.0000
v  5.8605 0.3960 1.0000
v  3.5816 0.3960 1.0000
v  3.5816 0.3960 0.2003
v  5.8605 0.3960 0.2003
v  5.8605 2.7987 0.2003
v  3.5816 2.7987 0.2003
v  14.0000 0.3960 1.0000
v  14.0000 0.0000 1.0000
v  14.0000 -0.0000 0.0000
v  14.0000 0.3960 0.0000
v  14.0000 7.6040 0.0000
v  14.0000 8.0000 0.0000
v  14.0000 8.0000 1.0000
v  14.0000 7.6040 1.0000
v  13.0000 8.0000 1.0000
v  13.0000 7.6040 1.0000
v  13.0000 0.3960 1.0000
v  13.0000 0.0000 1.0000
v  12.6974 8.0000 1.0000
v  12.6974 7.6040 1.0000
v  12.6974 0.3960 1.0000
v  12.6974 0.0000 1.0000
v  10.4184 8.0000 1.0000
v  10.4184 7.6040 1.0000
v  12.5541 5.2013 0.2003
v  12.5541 7.6040 0.2003
v  10.4184 7.6040 0.2003
v  10.4184 5.2013 0.2003
v  10.4184 0.3960 1.0000
v  10.4184 0.0000 1.0000
v  10.4184 2.7987 0.2003
v  10.4184 0.3960 0.2003
v  12.5541 0.3960 0.2003
v  12.5541 2.7987 0.2003
v  1.0000 0.0000 1.0000
v  1.0000 0.3960 1.0000
v  1.0000 7.6040 1.0000
v  1.0000 8.0000 1.0000
v  1.3026 0.0000 1.0000
v  1.3026 0.3960 1.0000
v  1.3026 7.6040 1.0000
v  1.3026 8.0000 1.0000
v  3.5816 5.2013 1.0000
v  3.5816 2.7987 1.0000
v  3.5816 8.0000 1.0000
v  3.5816 7.6040 1.0000
v  3.5816 7.6040 0.2003
v  1.4459 7.6040 0.2003
v  1.4459 5.2013 0.2003
v  3.5816 5.2013 0.2003
v  8.1395 0.0000 1.0000
v  8.1395 0.3960 1.0000
v  8.1395 0.3960 0.2003
v  8.1395 2.7987 0.2003
v  1.4459 2.7987 0.2003
v  1.4459 0.3960 0.2003
# 96 vertices

vn -1.0000 0.0000 -0.0000
vn -0.7071 0.0000 0.7071
vn 0.0000 0.7071 0.7071
vn 0.0000 -0.7071 0.7071
vn 0.7071 -0.0000 0.7071
vn 1.0000 0.0000 -0.0000
vn -0.0000 -0.0000 1.0000
vn 0.0000 0.0000 1.0000
vn -0.2860 0.2577 0.9229
vn -0.2860 -0.2577 0.9229
vn 0.2860 -0.2577 0.9229
vn 0.2860 0.2577 0.9229
vn -0.0000 -0.7071 0.7071
vn 0.7071 0.0000 0.7071
vn -0.0000 0.0000 1.0000
vn -0.5194 0.5873 0.6208
vn -0.5194 -0.5873 0.6208
vn 0.5194 -0.5873 0.6208
vn 0.5194 0.5873 0.6208
# 19 vertex normals

vt 0.0000 0.3498 0.0000
vt 0.0000 0.6502 0.0000
vt 1.0000 0.6502 0.0000
vt 1.0000 0.3498 0.0000
vt 0.4583 0.3498 0.0000
vt 0.4167 0.3498 0.0000
vt 0.4167 0.6502 0.0000
vt 0.4583 0.6502 0.0000
vt 0.8333 0.3498 0.0000
vt 0.8333 0.6502 0.0000
vt 0.6667 0.3498 0.0000
vt 0.6667 0.6502 0.0000
vt 0.5000 0.3498 0.0000
vt 0.5000 0.6502 0.0000
vt 0.1667 0.6502 0.0000
vt 0.1667 0.3498 0.0000
vt 0.3333 0.6502 0.0000
vt 0.3333 0.3498 0.0000
vt 0.0000 0.9505 0.0000
vt 0.0000 1.0000 0.0000
vt 1.0000 1.0000 0.0000
vt 1.0000 0.9505 0.0000
vt 1.0000 0.0495 0.0000
vt 1.0000 0.0000 0.0000
vt 0.0000 0.0000 0.0000
vt 0.0000 0.0495 0.0000
vt 0.4583 0.0000 0.0000
vt 0.4167 0.0000 0.0000
vt 0.4167 0.0495 0.0000
vt 0.4583 0.0495 0.0000
vt 0.3750 1.0000 0.0000
vt 0.4167 1.0000 0.0000
vt 0.4167 0.9505 0.0000
vt 0.3750 0.9505 0.0000
vt 0.3750 0.6502 0.0000
vt 0.8333 0.0000 0.0000
vt 0.8333 0.0495 0.0000
vt 0.8333 0.9505 0.0000
vt 0.8333 1.0000 0.0000
vt 0.6667 0.0000 0.0000
vt 0.6667 0.0495 0.0000
vt 0.6667 0.9505 0.0000
vt 0.6667 1.0000 0.0000
vt 0.5000 0.0000 0.0000
vt 0.5000 0.0495 0.0000
vt 0.5000 0.9505 0.0000
vt 0.5000 1.0000 0.0000
vt 0.1667 1.0000 0.0000
vt 0.1667 0.9505 0.0000
vt 0.1667 0.0495 0.0000
vt 0.1667 0.0000 0.0000
vt 0.3333 1.0000 0.0000
vt 0.3333 0.9505 0.0000
vt 0.3333 0.0495 0.0000
vt 0.3333 0.0000 0.0000
vt 0.3750 0.3498 0.0000
vt 0.3750 0.0000 0.0000
vt 0.3750 0.0495 0.0000
vt 0.4583 1.0000 0.0000
vt 0.4583 0.9505 0.0000
# 60 texture coords

o wall_inset_double
g wall_inset_double
f 1/1/1 2/2/1 3/3/2 4/4/2 
f 5/5/3 6/6/3 7/7/4 8/8/4 
f 9/1/5 10/2/5 11/3/6 12/4/6 
f 10/3/5 9/4/5 13/9/7 14/10/8 
f 14/10/8 13/9/7 15/11/9 16/12/10 
f 16/12/10 15/11/9 17/13/3 18/14/4 
f 4/1/2 3/2/2 19/15/8 20/16/8 
f 20/16/8 19/15/8 21/17/11 22/18/12 
f 23/19/1 24/20/1 25/21/2 26/22/2 
f 2/2/1 23/19/1 26/22/2 3/3/2 
f 27/23/2 28/24/2 29/25/1 30/26/1 
f 4/4/2 27/23/2 30/26/1 1/1/1 
f 31/27/8 32/28/8 33/29/4 34/30/4 
f 35/30/13 36/29/4 37/6/3 38/5/3 
f 39/31/8 40/32/8 41/33/3 42/34/3 
f 43/34/3 44/33/3 45/7/4 46/35/4 
f 47/19/14 48/20/14 49/21/6 50/22/6 
f 10/2/5 47/19/14 50/22/6 11/3/6 
f 51/23/6 52/24/6 53/25/14 54/26/14 
f 12/4/6 51/23/6 54/26/14 9/1/5 
f 54/23/14 53/24/14 55/36/15 56/37/7 
f 9/4/5 54/23/14 56/37/7 13/9/7 
f 57/38/8 58/39/8 48/21/14 47/22/14 
f 14/10/8 57/38/8 47/22/14 10/3/5 
f 56/37/7 55/36/15 59/40/15 60/41/10 
f 13/9/7 56/37/7 60/41/10 15/11/9 
f 61/42/9 62/43/8 58/39/8 57/38/8 
f 16/12/10 61/42/9 57/38/8 14/10/8 
f 60/41/10 59/40/15 63/44/8 64/45/4 
f 65/11/16 66/41/17 67/45/13 68/13/3 
f 69/46/3 70/47/8 62/43/8 61/42/9 
f 71/14/4 72/46/3 73/42/16 74/12/17 
f 26/19/2 25/20/2 75/48/8 76/49/8 
f 3/2/2 26/19/2 76/49/8 19/15/8 
f 77/50/8 78/51/8 28/25/2 27/26/2 
f 20/16/8 77/50/8 27/26/2 4/1/2 
f 76/49/8 75/48/8 79/52/8 80/53/12 
f 19/15/8 76/49/8 80/53/12 21/17/11 
f 81/54/11 82/55/8 78/51/8 77/50/8 
f 22/18/12 81/54/11 77/50/8 20/16/8 
f 83/56/3 22/18/12 21/17/11 84/35/4 
f 6/6/3 83/56/3 84/35/4 7/7/4 
f 8/8/4 18/14/4 17/13/3 5/5/3 
f 85/57/8 82/55/8 81/54/11 86/58/4 
f 32/28/8 85/57/8 86/58/4 33/29/4 
f 34/30/4 64/45/4 63/44/8 31/27/8 
f 87/58/4 88/54/18 89/18/19 90/56/3 
f 36/29/4 87/58/4 90/56/3 37/6/3 
f 38/5/3 68/13/3 67/45/13 35/30/13 
f 91/59/8 70/47/8 69/46/3 92/60/3 
f 40/32/8 91/59/8 92/60/3 41/33/3 
f 42/34/3 80/53/12 79/52/8 39/31/8 
f 93/60/3 72/46/3 71/14/4 94/8/4 
f 44/33/3 93/60/3 94/8/4 45/7/4 
f 46/35/4 95/17/18 96/53/19 43/34/3 
f 15/11/9 60/41/10 66/41/17 65/11/16 
f 60/41/10 64/45/4 67/45/13 66/41/17 
f 64/45/4 34/30/4 35/30/13 67/45/13 
f 34/30/4 33/29/4 36/29/4 35/30/13 
f 33/29/4 86/58/4 87/58/4 36/29/4 
f 86/58/4 81/54/11 88/54/18 87/58/4 
f 81/54/11 22/18/12 89/18/19 88/54/18 
f 22/18/12 83/56/3 90/56/3 89/18/19 
f 83/56/3 6/6/3 37/6/3 90/56/3 
f 6/6/3 5/5/3 38/5/3 37/6/3 
f 5/5/3 17/13/3 68/13/3 38/5/3 
f 17/13/3 15/11/9 65/11/16 68/13/3 
f 61/42/9 16/12/10 74/12/17 73/42/16 
f 16/12/10 18/14/4 71/14/4 74/12/17 
f 18/14/4 8/8/4 94/8/4 71/14/4 
f 8/8/4 7/7/4 45/7/4 94/8/4 
f 7/7/4 84/35/4 46/35/4 45/7/4 
f 84/35/4 21/17/11 95/17/18 46/35/4 
f 21/17/11 80/53/12 96/53/19 95/17/18 
f 80/53/12 42/34/3 43/34/3 96/53/19 
f 42/34/3 41/33/3 44/33/3 43/34/3 
f 41/33/3 92/60/3 93/60/3 44/33/3 
f 92/60/3 69/46/3 72/46/3 93/60/3 
f 69/46/3 61/42/9 73/42/16 72/46/3 
# 79 polygons

