# 3ds Max Wavefront OBJ Exporter v0.97b - (c)2007 guruware
# File Created: 24.11.2019 19:40:24

#
# object wall_open_single
#

v  0.0000 5.2013 -0.0000
v  0.0000 2.7987 -0.0000
v  0.0000 2.7987 1.0000
v  0.0000 5.2013 1.0000
v  14.0000 5.2013 1.0000
v  14.0000 2.7987 1.0000
v  14.0000 2.7987 -0.0000
v  14.0000 5.2013 -0.0000
v  13.0000 5.2013 1.0000
v  13.0000 2.7987 1.0000
v  12.6974 5.2013 1.0000
v  12.6974 2.7987 1.0000
v  10.4184 5.2013 1.0000
v  10.4184 2.7987 1.0000
v  1.0000 2.7987 1.0000
v  1.0000 5.2013 1.0000
v  1.3026 2.7987 1.0000
v  1.3026 5.2013 1.0000
v  0.0000 0.3960 -0.0000
v  0.0000 -0.0000 -0.0000
v  0.0000 0.0000 1.0000
v  0.0000 0.3960 1.0000
v  0.0000 7.6040 1.0000
v  0.0000 8.0000 1.0000
v  0.0000 8.0000 -0.0000
v  0.0000 7.6040 -0.0000
v  8.1395 8.0000 1.0000
v  5.8605 8.0000 1.0000
v  5.8605 7.6040 1.0000
v  8.1395 7.6040 1.0000
v  3.5816 0.0000 1.0000
v  5.8605 0.0000 1.0000
v  5.8605 0.3960 1.0000
v  3.5816 0.3960 1.0000
v  14.0000 0.3960 1.0000
v  14.0000 0.0000 1.0000
v  14.0000 -0.0000 -0.0000
v  14.0000 0.3960 -0.0000
v  14.0000 7.6040 -0.0000
v  14.0000 8.0000 -0.0000
v  14.0000 8.0000 1.0000
v  14.0000 7.6040 1.0000
v  13.0000 8.0000 1.0000
v  13.0000 7.6040 1.0000
v  13.0000 0.3960 1.0000
v  13.0000 0.0000 1.0000
v  12.6974 8.0000 1.0000
v  12.6974 7.6040 1.0000
v  12.6974 0.3960 1.0000
v  12.6974 0.0000 1.0000
v  10.4184 8.0000 1.0000
v  10.4184 7.6040 1.0000
v  10.4184 0.3960 1.0000
v  10.4184 0.0000 1.0000
v  1.0000 0.0000 1.0000
v  1.0000 0.3960 1.0000
v  1.0000 7.6040 1.0000
v  1.0000 8.0000 1.0000
v  1.3026 0.0000 1.0000
v  1.3026 0.3960 1.0000
v  1.3026 7.6040 1.0000
v  1.3026 8.0000 1.0000
v  3.5816 5.2013 1.0000
v  3.5816 2.7987 1.0000
v  3.5816 8.0000 1.0000
v  3.5816 7.6040 1.0000
v  8.1395 0.0000 1.0000
v  8.1395 0.3960 1.0000
v  3.7607 0.5752 0.6536
v  5.8605 0.5752 0.6536
v  5.8605 0.5752 0.3464
v  3.7607 0.5752 0.3464
v  8.1395 0.5752 0.6536
v  8.1395 0.5752 0.3464
v  10.2393 0.5752 0.6536
v  10.2393 0.5752 0.3464
v  10.2393 2.7987 0.6536
v  10.2393 2.7987 0.3464
v  10.2393 5.2013 0.6536
v  10.2393 5.2013 0.3464
v  10.2393 7.4248 0.6536
v  10.2393 7.4248 0.3464
v  8.1395 7.4248 0.6536
v  8.1395 7.4248 0.3464
v  5.8605 7.4248 0.6536
v  5.8605 7.4248 0.3464
v  3.7607 7.4248 0.6536
v  3.7607 7.4248 0.3464
v  3.7607 5.2013 0.6536
v  3.7607 5.2013 0.3464
v  3.7607 2.7987 0.6536
v  3.7607 2.7987 0.3464
v  10.4184 2.7987 0.7969
v  10.4184 0.3960 0.7969
v  10.4184 5.2013 0.7969
v  10.4184 7.6040 0.7969
v  8.1395 7.6040 0.7969
v  5.8605 7.6040 0.7969
v  3.5816 7.6040 0.7969
v  3.5816 5.2013 0.7969
v  3.5816 2.7987 0.7969
v  3.5816 0.3960 0.7969
v  5.8605 0.3960 0.7969
v  8.1395 0.3960 0.7969
v  10.4184 2.7987 -0.0000
v  10.4184 0.3960 -0.0000
v  10.4184 0.3960 0.2031
v  10.4184 2.7987 0.2031
v  8.1395 0.3960 -0.0000
v  8.1395 0.3960 0.2031
v  5.8605 0.3960 -0.0000
v  5.8605 0.3960 0.2031
v  3.5816 0.3960 -0.0000
v  3.5816 0.3960 0.2031
v  3.5816 2.7987 -0.0000
v  3.5816 2.7987 0.2031
v  3.5816 5.2013 -0.0000
v  3.5816 5.2013 0.2031
v  3.5816 7.6040 -0.0000
v  3.5816 7.6040 0.2031
v  5.8605 7.6040 -0.0000
v  5.8605 7.6040 0.2031
v  8.1395 7.6040 -0.0000
v  8.1395 7.6040 0.2031
v  10.4184 7.6040 -0.0000
v  10.4184 7.6040 0.2031
v  10.4184 5.2013 -0.0000
v  10.4184 5.2013 0.2031
# 128 vertices

vn -1.0000 0.0000 -0.0000
vn -0.7071 0.0000 0.7071
vn 0.7071 0.0000 0.7071
vn 1.0000 0.0000 -0.0000
vn 0.0000 0.0000 1.0000
vn 0.0000 -0.7071 0.7071
vn 0.0000 0.7071 0.7071
vn 0.3015 0.3015 0.9045
vn -0.3015 -0.3015 0.9045
vn -0.3015 0.3015 0.9045
vn 0.3015 -0.3015 0.9045
vn 0.5437 0.5437 0.6394
vn 0.0000 0.9013 0.4332
vn 0.0000 0.9013 -0.4332
vn 0.5437 0.5437 -0.6394
vn -0.5437 0.5437 0.6394
vn -0.5437 0.5437 -0.6394
vn -0.9013 0.0000 0.4332
vn -0.9013 0.0000 -0.4332
vn -0.5437 -0.5437 0.6394
vn -0.5437 -0.5437 -0.6394
vn 0.0000 -0.9013 0.4332
vn 0.0000 -0.9013 -0.4332
vn 0.5437 -0.5437 0.6394
vn 0.5437 -0.5437 -0.6394
vn 0.9013 0.0000 0.4332
vn 0.9013 0.0000 -0.4332
vn -0.6402 0.6402 0.4246
vn -0.6402 -0.6402 0.4246
vn 0.6402 -0.6402 0.4246
vn 0.6402 0.6402 0.4246
vn -0.7071 0.7071 -0.0000
vn -0.6402 0.6402 -0.4246
vn 0.0000 1.0000 -0.0000
vn 0.7071 0.7071 -0.0000
vn 0.6402 0.6402 -0.4246
vn 0.7071 -0.7071 -0.0000
vn 0.6402 -0.6402 -0.4246
vn 0.0000 -1.0000 -0.0000
vn -0.7071 -0.7071 -0.0000
vn -0.6402 -0.6402 -0.4246
# 41 vertex normals

vt 0.0000 0.3498 0.0000
vt 0.0000 0.6502 0.0000
vt 1.0000 0.6502 0.0000
vt 1.0000 0.3498 0.0000
vt 0.8333 0.3498 0.0000
vt 0.8333 0.6502 0.0000
vt 0.6667 0.3498 0.0000
vt 0.6667 0.6502 0.0000
vt 0.5000 0.3498 0.0000
vt 0.5000 0.6502 0.0000
vt 0.1667 0.6502 0.0000
vt 0.1667 0.3498 0.0000
vt 0.3333 0.6502 0.0000
vt 0.3333 0.3498 0.0000
vt 0.0000 0.9505 0.0000
vt 0.0000 1.0000 0.0000
vt 1.0000 1.0000 0.0000
vt 1.0000 0.9505 0.0000
vt 1.0000 0.0495 0.0000
vt 1.0000 0.0000 0.0000
vt 0.0000 0.0000 0.0000
vt 0.0000 0.0495 0.0000
vt 0.4583 0.0000 0.0000
vt 0.4167 0.0000 0.0000
vt 0.4167 0.0495 0.0000
vt 0.4583 0.0495 0.0000
vt 0.3750 1.0000 0.0000
vt 0.4167 1.0000 0.0000
vt 0.4167 0.9505 0.0000
vt 0.3750 0.9505 0.0000
vt 0.8333 0.0000 0.0000
vt 0.8333 0.0495 0.0000
vt 0.8333 0.9505 0.0000
vt 0.8333 1.0000 0.0000
vt 0.6667 0.0000 0.0000
vt 0.6667 0.0495 0.0000
vt 0.6667 0.9505 0.0000
vt 0.6667 1.0000 0.0000
vt 0.5000 0.0000 0.0000
vt 0.5000 0.0495 0.0000
vt 0.5000 0.9505 0.0000
vt 0.5000 1.0000 0.0000
vt 0.1667 1.0000 0.0000
vt 0.1667 0.9505 0.0000
vt 0.1667 0.0495 0.0000
vt 0.1667 0.0000 0.0000
vt 0.3333 1.0000 0.0000
vt 0.3333 0.9505 0.0000
vt 0.3333 0.0495 0.0000
vt 0.3333 0.0000 0.0000
vt 0.3750 0.3498 0.0000
vt 0.3750 0.6502 0.0000
vt 0.3750 0.0000 0.0000
vt 0.3750 0.0495 0.0000
vt 0.4583 1.0000 0.0000
vt 0.4583 0.9505 0.0000
vt 0.5833 0.9505 0.0000
vt 0.6250 0.9505 0.0000
vt 0.5417 0.9505 0.0000
vt 0.5417 0.0495 0.0000
vt 0.5833 0.0495 0.0000
vt 0.6250 0.0495 0.0000
vt 0.6250 0.3498 0.0000
vt 0.6250 0.6502 0.0000
# 64 texture coords

o wall_open_single
g wall_open_single
f 1/1/1 2/2/1 3/3/2 4/4/2 
f 5/1/3 6/2/3 7/3/4 8/4/4 
f 6/3/3 5/4/3 9/5/5 10/6/5 
f 10/6/5 9/5/5 11/7/5 12/8/5 
f 12/8/5 11/7/5 13/9/2 14/10/2 
f 4/1/2 3/2/2 15/11/5 16/12/5 
f 16/12/5 15/11/5 17/13/5 18/14/5 
f 19/15/1 20/16/1 21/17/2 22/18/2 
f 2/2/1 19/15/1 22/18/2 3/3/2 
f 23/19/2 24/20/2 25/21/1 26/22/1 
f 4/4/2 23/19/2 26/22/1 1/1/1 
f 27/23/5 28/24/5 29/25/6 30/26/6 
f 31/27/5 32/28/5 33/29/7 34/30/8 
f 35/15/3 36/16/3 37/17/4 38/18/4 
f 6/2/3 35/15/3 38/18/4 7/3/4 
f 39/19/4 40/20/4 41/21/3 42/22/3 
f 8/4/4 39/19/4 42/22/3 5/1/3 
f 42/19/3 41/20/3 43/31/5 44/32/5 
f 5/4/3 42/19/3 44/32/5 9/5/5 
f 45/33/5 46/34/5 36/17/3 35/18/3 
f 10/6/5 45/33/5 35/18/3 6/3/3 
f 44/32/5 43/31/5 47/35/5 48/36/5 
f 9/5/5 44/32/5 48/36/5 11/7/5 
f 49/37/5 50/38/5 46/34/5 45/33/5 
f 12/8/5 49/37/5 45/33/5 10/6/5 
f 48/36/5 47/35/5 51/39/5 52/40/9 
f 11/7/5 48/36/5 52/40/9 13/9/2 
f 53/41/10 54/42/5 50/38/5 49/37/5 
f 14/10/2 53/41/10 49/37/5 12/8/5 
f 22/15/2 21/16/2 55/43/5 56/44/5 
f 3/2/2 22/15/2 56/44/5 15/11/5 
f 57/45/5 58/46/5 24/21/2 23/22/2 
f 16/12/5 57/45/5 23/22/2 4/1/2 
f 56/44/5 55/43/5 59/47/5 60/48/5 
f 15/11/5 56/44/5 60/48/5 17/13/5 
f 61/49/5 62/50/5 58/46/5 57/45/5 
f 18/14/5 61/49/5 57/45/5 16/12/5 
f 63/51/3 18/14/5 17/13/5 64/52/3 
f 65/53/5 62/50/5 61/49/5 66/54/11 
f 28/24/5 65/53/5 66/54/11 29/25/6 
f 30/26/6 52/40/9 51/39/5 27/23/5 
f 66/54/11 61/49/5 18/14/5 63/51/3 
f 67/55/5 54/42/5 53/41/10 68/56/7 
f 32/28/5 67/55/5 68/56/7 33/29/7 
f 34/30/8 60/48/5 59/47/5 31/27/5 
f 64/52/3 17/13/5 60/48/5 34/30/8 
f 69/30/12 70/29/13 71/57/14 72/58/15 
f 70/29/13 73/56/13 74/59/14 71/57/14 
f 73/56/13 75/41/16 76/41/17 74/59/14 
f 75/41/16 77/10/18 78/10/19 76/41/17 
f 77/10/18 79/9/18 80/9/19 78/10/19 
f 79/9/18 81/40/20 82/40/21 80/9/19 
f 81/40/20 83/26/22 84/60/23 82/40/21 
f 83/26/22 85/25/22 86/61/23 84/60/23 
f 85/25/22 87/54/24 88/62/25 86/61/23 
f 87/54/24 89/51/26 90/63/27 88/62/25 
f 89/51/26 91/52/26 92/64/27 90/63/27 
f 91/52/26 69/30/12 72/58/15 92/64/27 
f 53/41/10 14/10/2 93/10/18 94/41/28 
f 14/10/2 13/9/2 95/9/18 93/10/18 
f 13/9/2 52/40/9 96/40/29 95/9/18 
f 52/40/9 30/26/6 97/26/22 96/40/29 
f 30/26/6 29/25/6 98/25/22 97/26/22 
f 29/25/6 66/54/11 99/54/30 98/25/22 
f 66/54/11 63/51/3 100/51/26 99/54/30 
f 63/51/3 64/52/3 101/52/26 100/51/26 
f 64/52/3 34/30/8 102/30/31 101/52/26 
f 34/30/8 33/29/7 103/29/13 102/30/31 
f 33/29/7 68/56/7 104/56/13 103/29/13 
f 68/56/7 53/41/10 94/41/28 104/56/13 
f 105/10/1 106/41/32 107/41/33 108/10/19 
f 106/41/32 109/59/34 110/59/14 107/41/33 
f 109/59/34 111/57/34 112/57/14 110/59/14 
f 111/57/34 113/58/35 114/58/36 112/57/14 
f 113/58/35 115/64/4 116/64/27 114/58/36 
f 115/64/4 117/63/4 118/63/27 116/64/27 
f 117/63/4 119/62/37 120/62/38 118/63/27 
f 119/62/37 121/61/39 122/61/23 120/62/38 
f 121/61/39 123/60/39 124/60/23 122/61/23 
f 123/60/39 125/40/40 126/40/41 124/60/23 
f 125/40/40 127/9/1 128/9/19 126/40/41 
f 127/9/1 105/10/1 108/10/19 128/9/19 
f 94/41/28 93/10/18 77/10/18 75/41/16 
f 93/10/18 95/9/18 79/9/18 77/10/18 
f 95/9/18 96/40/29 81/40/20 79/9/18 
f 96/40/29 97/26/22 83/26/22 81/40/20 
f 97/26/22 98/25/22 85/25/22 83/26/22 
f 98/25/22 99/54/30 87/54/24 85/25/22 
f 99/54/30 100/51/26 89/51/26 87/54/24 
f 100/51/26 101/52/26 91/52/26 89/51/26 
f 101/52/26 102/30/31 69/30/12 91/52/26 
f 102/30/31 103/29/13 70/29/13 69/30/12 
f 103/29/13 104/56/13 73/56/13 70/29/13 
f 104/56/13 94/41/28 75/41/16 73/56/13 
f 108/10/19 107/41/33 76/41/17 78/10/19 
f 107/41/33 110/59/14 74/59/14 76/41/17 
f 110/59/14 112/57/14 71/57/14 74/59/14 
f 112/57/14 114/58/36 72/58/15 71/57/14 
f 114/58/36 116/64/27 92/64/27 72/58/15 
f 116/64/27 118/63/27 90/63/27 92/64/27 
f 118/63/27 120/62/38 88/62/25 90/63/27 
f 120/62/38 122/61/23 86/61/23 88/62/25 
f 122/61/23 124/60/23 84/60/23 86/61/23 
f 124/60/23 126/40/41 82/40/21 84/60/23 
f 126/40/41 128/9/19 80/9/19 82/40/21 
f 128/9/19 108/10/19 78/10/19 80/9/19 
# 106 polygons

