# 3ds Max Wavefront OBJ Exporter v0.97b - (c)2007 guruware
# File Created: 24.11.2019 19:40:14

#
# object wall_checkerboard
#

v  0.0000 5.2013 -0.0000
v  0.0000 2.7987 -0.0000
v  0.0000 2.7987 1.0000
v  0.0000 5.2013 1.0000
v  8.1395 5.2013 1.0000
v  5.8605 5.2013 1.0000
v  5.8605 2.7987 1.0000
v  8.1395 2.7987 1.0000
v  14.0000 5.2013 1.0000
v  14.0000 2.7987 1.0000
v  14.0000 2.7987 -0.0000
v  14.0000 5.2013 -0.0000
v  13.0000 5.2013 1.0000
v  13.0000 2.7987 1.0000
v  12.6974 5.2013 1.0000
v  12.6974 2.7987 1.0000
v  10.4184 5.2013 1.0000
v  10.4184 2.7987 1.0000
v  1.0000 2.7987 1.0000
v  1.0000 5.2013 1.0000
v  1.3026 2.7987 1.0000
v  1.3026 5.2013 1.0000
v  0.0000 0.3960 -0.0000
v  0.0000 -0.0000 -0.0000
v  0.0000 0.0000 1.0000
v  0.0000 0.3960 1.0000
v  0.0000 7.6040 1.0000
v  0.0000 8.0000 1.0000
v  0.0000 8.0000 -0.0000
v  0.0000 7.6040 -0.0000
v  8.1395 8.0000 1.0000
v  5.8605 8.0000 1.0000
v  5.8605 7.6040 1.0000
v  8.1395 7.6040 1.0000
v  7.8890 7.3535 0.6776
v  6.1110 7.3535 0.6776
v  6.1110 5.4518 0.6776
v  7.8890 5.4518 0.6776
v  3.5816 0.0000 1.0000
v  5.8605 0.0000 1.0000
v  5.8605 0.3960 1.0000
v  3.5816 0.3960 1.0000
v  3.5816 2.7987 1.0000
v  14.0000 0.3960 1.0000
v  14.0000 0.0000 1.0000
v  14.0000 -0.0000 -0.0000
v  14.0000 0.3960 -0.0000
v  14.0000 7.6040 -0.0000
v  14.0000 8.0000 -0.0000
v  14.0000 8.0000 1.0000
v  14.0000 7.6040 1.0000
v  13.0000 8.0000 1.0000
v  13.0000 7.6040 1.0000
v  13.0000 0.3960 1.0000
v  13.0000 0.0000 1.0000
v  12.6974 8.0000 1.0000
v  12.6974 7.6040 1.0000
v  12.6974 0.3960 1.0000
v  12.6974 0.0000 1.0000
v  10.4184 8.0000 1.0000
v  10.4184 7.6040 1.0000
v  12.4469 5.4518 0.6776
v  12.4469 7.3535 0.6776
v  10.6689 7.3535 0.6776
v  10.6689 5.4518 0.6776
v  10.4184 0.3960 1.0000
v  10.4184 0.0000 1.0000
v  10.6689 2.5482 0.6776
v  10.6689 0.6465 0.6776
v  12.4469 0.6465 0.6776
v  12.4469 2.5482 0.6776
v  1.0000 0.0000 1.0000
v  1.0000 0.3960 1.0000
v  1.0000 7.6040 1.0000
v  1.0000 8.0000 1.0000
v  1.3026 0.0000 1.0000
v  1.3026 0.3960 1.0000
v  1.3026 7.6040 1.0000
v  1.3026 8.0000 1.0000
v  3.5816 5.2013 1.0000
v  5.6100 4.9508 0.6776
v  3.8321 4.9508 0.6776
v  3.8321 3.0492 0.6776
v  5.6100 3.0492 0.6776
v  8.3900 3.0492 0.6776
v  10.1680 3.0492 0.6776
v  10.1680 4.9508 0.6776
v  8.3900 4.9508 0.6776
v  3.5816 8.0000 1.0000
v  3.5816 7.6040 1.0000
v  3.3311 7.3535 0.6776
v  1.5531 7.3535 0.6776
v  1.5531 5.4518 0.6776
v  3.3311 5.4518 0.6776
v  8.1395 0.0000 1.0000
v  8.1395 0.3960 1.0000
v  6.1110 0.6465 0.6776
v  7.8890 0.6465 0.6776
v  7.8890 2.5482 0.6776
v  6.1110 2.5482 0.6776
v  3.3311 2.5482 0.6776
v  1.5531 2.5482 0.6776
v  1.5531 0.6465 0.6776
v  3.3311 0.6465 0.6776
v  6.1110 7.3535 1.0000
v  7.8890 7.3535 1.0000
v  6.1110 5.4518 1.0000
v  7.8890 5.4518 1.0000
v  12.4469 7.3535 1.0000
v  12.4469 5.4518 1.0000
v  10.6689 7.3535 1.0000
v  10.6689 5.4518 1.0000
v  12.4469 2.5482 1.0000
v  12.4469 0.6465 1.0000
v  10.6689 2.5482 1.0000
v  10.6689 0.6465 1.0000
v  3.8321 4.9508 1.0000
v  5.6100 4.9508 1.0000
v  3.8321 3.0492 1.0000
v  5.6100 3.0492 1.0000
v  10.1680 4.9508 1.0000
v  10.1680 3.0492 1.0000
v  8.3900 4.9508 1.0000
v  8.3900 3.0492 1.0000
v  1.5531 5.4518 1.0000
v  1.5531 7.3535 1.0000
v  3.3311 5.4518 1.0000
v  3.3311 7.3535 1.0000
v  7.8890 0.6465 1.0000
v  6.1110 0.6465 1.0000
v  7.8890 2.5482 1.0000
v  6.1110 2.5482 1.0000
v  1.5531 0.6465 1.0000
v  1.5531 2.5482 1.0000
v  3.3311 0.6465 1.0000
v  3.3311 2.5482 1.0000
# 136 vertices

vn -1.0000 0.0000 -0.0000
vn -0.7071 0.0000 0.7071
vn 0.0000 0.0000 1.0000
vn 0.7071 0.0000 0.7071
vn 1.0000 0.0000 -0.0000
vn -0.5774 -0.5774 0.5774
vn 0.5774 -0.5774 0.5774
vn 0.5774 0.5774 0.5774
vn -0.5774 0.5774 0.5774
vn 0.3015 -0.3015 0.9045
vn -0.3015 -0.3015 0.9045
vn 0.3015 0.3015 0.9045
vn -0.3015 0.3015 0.9045
# 13 vertex normals

vt 0.0000 0.3498 0.0000
vt 0.0000 0.6502 0.0000
vt 1.0000 0.6502 0.0000
vt 1.0000 0.3498 0.0000
vt 0.4583 0.3498 0.0000
vt 0.4167 0.3498 0.0000
vt 0.4167 0.6502 0.0000
vt 0.4583 0.6502 0.0000
vt 0.8333 0.3498 0.0000
vt 0.8333 0.6502 0.0000
vt 0.6667 0.3498 0.0000
vt 0.6667 0.6502 0.0000
vt 0.5000 0.3498 0.0000
vt 0.5000 0.6502 0.0000
vt 0.1667 0.6502 0.0000
vt 0.1667 0.3498 0.0000
vt 0.3333 0.6502 0.0000
vt 0.3333 0.3498 0.0000
vt 0.0000 0.9505 0.0000
vt 0.0000 1.0000 0.0000
vt 1.0000 1.0000 0.0000
vt 1.0000 0.9505 0.0000
vt 1.0000 0.0495 0.0000
vt 1.0000 0.0000 0.0000
vt 0.0000 0.0000 0.0000
vt 0.0000 0.0495 0.0000
vt 0.4583 0.0000 0.0000
vt 0.4167 0.0000 0.0000
vt 0.4167 0.0495 0.0000
vt 0.4583 0.0495 0.0000
vt 0.3750 1.0000 0.0000
vt 0.4167 1.0000 0.0000
vt 0.4167 0.9505 0.0000
vt 0.3750 0.9505 0.0000
vt 0.3750 0.6502 0.0000
vt 0.8333 0.0000 0.0000
vt 0.8333 0.0495 0.0000
vt 0.8333 0.9505 0.0000
vt 0.8333 1.0000 0.0000
vt 0.6667 0.0000 0.0000
vt 0.6667 0.0495 0.0000
vt 0.6667 0.9505 0.0000
vt 0.6667 1.0000 0.0000
vt 0.5000 0.0000 0.0000
vt 0.5000 0.0495 0.0000
vt 0.5000 0.9505 0.0000
vt 0.5000 1.0000 0.0000
vt 0.1667 1.0000 0.0000
vt 0.1667 0.9505 0.0000
vt 0.1667 0.0495 0.0000
vt 0.1667 0.0000 0.0000
vt 0.3333 1.0000 0.0000
vt 0.3333 0.9505 0.0000
vt 0.3333 0.0495 0.0000
vt 0.3333 0.0000 0.0000
vt 0.3750 0.3498 0.0000
vt 0.3750 0.0000 0.0000
vt 0.3750 0.0495 0.0000
vt 0.4583 1.0000 0.0000
vt 0.4583 0.9505 0.0000
# 60 texture coords

o wall_checkerboard
g wall_checkerboard
f 1/1/1 2/2/1 3/3/2 4/4/2 
f 5/5/3 6/6/3 7/7/3 8/8/3 
f 9/1/4 10/2/4 11/3/5 12/4/5 
f 10/3/4 9/4/4 13/9/3 14/10/3 
f 14/10/3 13/9/3 15/11/3 16/12/3 
f 16/12/3 15/11/3 17/13/3 18/14/3 
f 4/1/2 3/2/2 19/15/3 20/16/3 
f 20/16/3 19/15/3 21/17/3 22/18/3 
f 23/19/1 24/20/1 25/21/2 26/22/2 
f 2/2/1 23/19/1 26/22/2 3/3/2 
f 27/23/2 28/24/2 29/25/1 30/26/1 
f 4/4/2 27/23/2 30/26/1 1/1/1 
f 31/27/3 32/28/3 33/29/3 34/30/3 
f 35/30/6 36/29/7 37/6/8 38/5/9 
f 39/31/3 40/32/3 41/33/3 42/34/3 
f 42/34/3 41/33/3 7/7/3 43/35/3 
f 44/19/4 45/20/4 46/21/5 47/22/5 
f 10/2/4 44/19/4 47/22/5 11/3/5 
f 48/23/5 49/24/5 50/25/4 51/26/4 
f 12/4/5 48/23/5 51/26/4 9/1/4 
f 51/23/4 50/24/4 52/36/3 53/37/3 
f 9/4/4 51/23/4 53/37/3 13/9/3 
f 54/38/3 55/39/3 45/21/4 44/22/4 
f 14/10/3 54/38/3 44/22/4 10/3/4 
f 53/37/3 52/36/3 56/40/3 57/41/3 
f 13/9/3 53/37/3 57/41/3 15/11/3 
f 58/42/3 59/43/3 55/39/3 54/38/3 
f 16/12/3 58/42/3 54/38/3 14/10/3 
f 57/41/3 56/40/3 60/44/3 61/45/3 
f 62/11/9 63/41/6 64/45/7 65/13/8 
f 66/46/3 67/47/3 59/43/3 58/42/3 
f 68/14/7 69/46/8 70/42/9 71/12/6 
f 26/19/2 25/20/2 72/48/3 73/49/3 
f 3/2/2 26/19/2 73/49/3 19/15/3 
f 74/50/3 75/51/3 28/25/2 27/26/2 
f 20/16/3 74/50/3 27/26/2 4/1/2 
f 73/49/3 72/48/3 76/52/3 77/53/3 
f 19/15/3 73/49/3 77/53/3 21/17/3 
f 78/54/3 79/55/3 75/51/3 74/50/3 
f 22/18/3 78/54/3 74/50/3 20/16/3 
f 80/56/3 22/18/3 21/17/3 43/35/3 
f 81/6/6 82/56/7 83/35/8 84/7/9 
f 85/8/8 86/14/9 87/13/6 88/5/7 
f 89/57/3 79/55/3 78/54/3 90/58/3 
f 32/28/3 89/57/3 90/58/3 33/29/3 
f 34/30/3 61/45/3 60/44/3 31/27/3 
f 91/58/6 92/54/7 93/18/8 94/56/9 
f 33/29/3 90/58/3 80/56/3 6/6/3 
f 5/5/3 17/13/3 61/45/3 34/30/3 
f 95/59/3 67/47/3 66/46/3 96/60/3 
f 40/32/3 95/59/3 96/60/3 41/33/3 
f 42/34/3 77/53/3 76/52/3 39/31/3 
f 96/60/3 66/46/3 18/14/3 8/8/3 
f 97/33/8 98/60/9 99/8/6 100/7/7 
f 101/35/6 102/17/7 103/53/8 104/34/9 
f 34/30/3 33/29/3 105/29/10 106/30/11 
f 33/29/3 6/6/3 107/6/12 105/29/10 
f 6/6/3 5/5/3 108/5/13 107/6/12 
f 5/5/3 34/30/3 106/30/11 108/5/13 
f 15/11/3 57/41/3 109/41/11 110/11/13 
f 57/41/3 61/45/3 111/45/10 109/41/11 
f 61/45/3 17/13/3 112/13/12 111/45/10 
f 17/13/3 15/11/3 110/11/13 112/13/12 
f 58/42/3 16/12/3 113/12/11 114/42/13 
f 16/12/3 18/14/3 115/14/10 113/12/11 
f 18/14/3 66/46/3 116/46/12 115/14/10 
f 66/46/3 58/42/3 114/42/13 116/46/12 
f 6/6/3 80/56/3 117/56/10 118/6/11 
f 80/56/3 43/35/3 119/35/12 117/56/10 
f 43/35/3 7/7/3 120/7/13 119/35/12 
f 7/7/3 6/6/3 118/6/11 120/7/13 
f 18/14/3 17/13/3 121/13/11 122/14/13 
f 17/13/3 5/5/3 123/5/10 121/13/11 
f 5/5/3 8/8/3 124/8/12 123/5/10 
f 8/8/3 18/14/3 122/14/13 124/8/12 
f 78/54/3 22/18/3 125/18/12 126/54/10 
f 22/18/3 80/56/3 127/56/13 125/18/12 
f 80/56/3 90/58/3 128/58/11 127/56/13 
f 90/58/3 78/54/3 126/54/10 128/58/11 
f 41/33/3 96/60/3 129/60/13 130/33/12 
f 96/60/3 8/8/3 131/8/11 129/60/13 
f 8/8/3 7/7/3 132/7/10 131/8/11 
f 7/7/3 41/33/3 130/33/12 132/7/10 
f 21/17/3 77/53/3 133/53/12 134/17/10 
f 77/53/3 42/34/3 135/34/13 133/53/12 
f 42/34/3 43/35/3 136/35/11 135/34/13 
f 43/35/3 21/17/3 134/17/10 136/35/11 
f 106/30/11 105/29/10 36/29/7 35/30/6 
f 105/29/10 107/6/12 37/6/8 36/29/7 
f 107/6/12 108/5/13 38/5/9 37/6/8 
f 108/5/13 106/30/11 35/30/6 38/5/9 
f 110/11/13 109/41/11 63/41/6 62/11/9 
f 109/41/11 111/45/10 64/45/7 63/41/6 
f 111/45/10 112/13/12 65/13/8 64/45/7 
f 112/13/12 110/11/13 62/11/9 65/13/8 
f 114/42/13 113/12/11 71/12/6 70/42/9 
f 113/12/11 115/14/10 68/14/7 71/12/6 
f 115/14/10 116/46/12 69/46/8 68/14/7 
f 116/46/12 114/42/13 70/42/9 69/46/8 
f 118/6/11 117/56/10 82/56/7 81/6/6 
f 117/56/10 119/35/12 83/35/8 82/56/7 
f 119/35/12 120/7/13 84/7/9 83/35/8 
f 120/7/13 118/6/11 81/6/6 84/7/9 
f 122/14/13 121/13/11 87/13/6 86/14/9 
f 121/13/11 123/5/10 88/5/7 87/13/6 
f 123/5/10 124/8/12 85/8/8 88/5/7 
f 124/8/12 122/14/13 86/14/9 85/8/8 
f 126/54/10 125/18/12 93/18/8 92/54/7 
f 125/18/12 127/56/13 94/56/9 93/18/8 
f 127/56/13 128/58/11 91/58/6 94/56/9 
f 128/58/11 126/54/10 92/54/7 91/58/6 
f 130/33/12 129/60/13 98/60/9 97/33/8 
f 129/60/13 131/8/11 99/8/6 98/60/9 
f 131/8/11 132/7/10 100/7/7 99/8/6 
f 132/7/10 130/33/12 97/33/8 100/7/7 
f 134/17/10 133/53/12 103/53/8 102/17/7 
f 133/53/12 135/34/13 104/34/9 103/53/8 
f 135/34/13 136/35/11 101/35/6 104/34/9 
f 136/35/11 134/17/10 102/17/7 101/35/6 
# 119 polygons

