# 3ds Max Wavefront OBJ Exporter v0.97b - (c)2007 guruware
# File Created: 15.12.2019 15:13:29

#
# object deco2_capacitor
#

v  1.2963 -0.4157 -0.5369
v  1.2963 0.4157 -0.5369
v  1.4031 0.4157 -0.0000
v  1.4031 -0.4157 -0.0000
v  0.9921 -0.4157 -0.9921
v  0.9921 0.4157 -0.9921
v  0.5369 -0.4157 -1.2963
v  0.5369 0.4157 -1.2963
v  -0.0000 -0.4157 -1.4031
v  -0.0000 0.4157 -1.4031
v  -0.5369 -0.4157 -1.2963
v  -0.5369 0.4157 -1.2963
v  -0.9921 -0.4157 -0.9921
v  -0.9921 0.4157 -0.9921
v  -1.2963 -0.4157 -0.5369
v  -1.2963 0.4157 -0.5369
v  -1.4031 -0.4157 -0.0000
v  -1.4031 0.4157 -0.0000
v  -1.2963 -0.4157 0.5369
v  -1.2963 0.4157 0.5369
v  -0.9921 -0.4157 0.9921
v  -0.9921 0.4157 0.9921
v  -0.5369 -0.4157 1.2963
v  -0.5369 0.4157 1.2963
v  -0.0000 -0.4157 1.4031
v  -0.0000 0.4157 1.4031
v  0.5369 -0.4157 1.2963
v  0.5369 0.4157 1.2963
v  0.9921 -0.4157 0.9921
v  0.9921 0.4157 0.9921
v  1.2963 -0.4157 0.5369
v  1.2963 0.4157 0.5369
v  1.2976 -1.0000 0.5375
v  0.9931 -1.0000 0.9931
v  -0.0000 -1.0000 -0.0000
v  0.5375 -1.0000 1.2976
v  -0.0000 -1.0000 1.4045
v  -0.5375 -1.0000 1.2976
v  -0.9931 -1.0000 0.9931
v  -1.2976 -1.0000 0.5375
v  -1.4045 -1.0000 -0.0000
v  -1.2976 -1.0000 -0.5375
v  -0.9931 -1.0000 -0.9931
v  -0.5375 -1.0000 -1.2976
v  -0.0000 -1.0000 -1.4045
v  0.5375 -1.0000 -1.2976
v  0.9931 -1.0000 -0.9931
v  1.2976 -1.0000 -0.5375
v  1.4045 -1.0000 -0.0000
v  1.2976 1.0000 0.5375
v  1.4045 1.0000 -0.0000
v  -0.0000 1.0000 -0.0000
v  1.2976 1.0000 -0.5375
v  0.9931 1.0000 -0.9931
v  0.5375 1.0000 -1.2976
v  -0.0000 1.0000 -1.4045
v  -0.5375 1.0000 -1.2976
v  -0.9931 1.0000 -0.9931
v  -1.2976 1.0000 -0.5375
v  -1.4045 1.0000 -0.0000
v  -1.2976 1.0000 0.5375
v  -0.9931 1.0000 0.9931
v  -0.5375 1.0000 1.2976
v  -0.0000 1.0000 1.4045
v  0.5375 1.0000 1.2976
v  0.9931 1.0000 0.9931
v  1.3858 -0.9045 -0.5740
v  1.5000 -0.9045 -0.0000
v  1.0606 -0.9045 -1.0607
v  0.5740 -0.9045 -1.3858
v  -0.0000 -0.9045 -1.5000
v  -0.5740 -0.9045 -1.3858
v  -1.0607 -0.9045 -1.0607
v  -1.3858 -0.9045 -0.5740
v  -1.5000 -0.9045 -0.0000
v  -1.3858 -0.9045 0.5740
v  -1.0607 -0.9045 1.0607
v  -0.5740 -0.9045 1.3858
v  -0.0000 -0.9045 1.5000
v  0.5740 -0.9045 1.3858
v  1.0606 -0.9045 1.0607
v  1.3858 -0.9045 0.5740
v  1.3858 0.9045 -0.5740
v  1.5000 0.9045 -0.0000
v  1.0606 0.9045 -1.0607
v  0.5740 0.9045 -1.3858
v  -0.0000 0.9045 -1.5000
v  -0.5740 0.9045 -1.3858
v  -1.0607 0.9045 -1.0607
v  -1.3858 0.9045 -0.5740
v  -1.5000 0.9045 -0.0000
v  -1.3858 0.9045 0.5740
v  -1.0607 0.9045 1.0607
v  -0.5740 0.9045 1.3858
v  -0.0000 0.9045 1.5000
v  0.5740 0.9045 1.3858
v  1.0606 0.9045 1.0607
v  1.3858 0.9045 0.5740
v  1.3858 0.5182 -0.5740
v  1.5000 0.5182 -0.0000
v  1.5000 -0.5182 -0.0000
v  1.3858 -0.5182 -0.5740
v  1.0606 0.5182 -1.0607
v  1.0606 -0.5182 -1.0607
v  0.5740 0.5182 -1.3858
v  0.5740 -0.5182 -1.3858
v  -0.0000 0.5182 -1.5000
v  -0.0000 -0.5182 -1.5000
v  -0.5740 0.5182 -1.3858
v  -0.5740 -0.5182 -1.3858
v  -1.0607 0.5182 -1.0607
v  -1.0607 -0.5182 -1.0607
v  -1.3858 0.5182 -0.5740
v  -1.3858 -0.5182 -0.5740
v  -1.5000 0.5182 -0.0000
v  -1.5000 -0.5182 -0.0000
v  -1.3858 0.5182 0.5740
v  -1.3858 -0.5182 0.5740
v  -1.0607 0.5182 1.0607
v  -1.0607 -0.5182 1.0607
v  -0.5740 0.5182 1.3858
v  -0.5740 -0.5182 1.3858
v  -0.0000 0.5182 1.5000
v  -0.0000 -0.5182 1.5000
v  0.5740 0.5182 1.3858
v  0.5740 -0.5182 1.3858
v  1.0606 0.5182 1.0607
v  1.0606 -0.5182 1.0607
v  1.3858 0.5182 0.5740
v  1.3858 -0.5182 0.5740
# 130 vertices

vn 0.8521 0.3864 -0.3530
vn 0.8521 -0.3864 -0.3530
vn 0.9223 -0.3865 -0.0000
vn 0.9223 0.3865 -0.0000
vn 0.6522 0.3866 -0.6521
vn 0.6522 -0.3866 -0.6521
vn 0.3530 0.3865 -0.8521
vn 0.3530 -0.3865 -0.8521
vn -0.0000 0.3865 -0.9223
vn -0.0000 -0.3865 -0.9223
vn -0.3530 0.3864 -0.8521
vn -0.3530 -0.3864 -0.8521
vn -0.6521 0.3867 -0.6521
vn -0.6521 -0.3867 -0.6521
vn -0.8521 0.3864 -0.3530
vn -0.8521 -0.3864 -0.3530
vn -0.9223 0.3864 -0.0000
vn -0.9223 -0.3864 -0.0000
vn -0.8521 0.3864 0.3530
vn -0.8521 -0.3864 0.3530
vn -0.6521 0.3868 0.6521
vn -0.6521 -0.3867 0.6521
vn -0.3530 0.3864 0.8521
vn -0.3530 -0.3864 0.8521
vn -0.0000 0.3865 0.9223
vn -0.0000 -0.3865 0.9223
vn 0.3530 0.3864 0.8521
vn 0.3530 -0.3864 0.8521
vn 0.6522 0.3866 0.6521
vn 0.6522 -0.3866 0.6521
vn 0.8521 0.3864 0.3530
vn 0.8521 -0.3864 0.3530
vn 0.3900 -0.9065 0.1616
vn 0.2983 -0.9067 0.2983
vn 0.0000 -1.0000 -0.0000
vn 0.1616 -0.9065 0.3900
vn -0.0000 -0.9066 0.4220
vn -0.1616 -0.9065 0.3900
vn -0.2982 -0.9067 0.2982
vn -0.3900 -0.9065 0.1616
vn -0.4220 -0.9066 -0.0000
vn -0.3900 -0.9065 -0.1616
vn -0.2982 -0.9067 -0.2982
vn -0.1616 -0.9065 -0.3900
vn -0.0000 -0.9066 -0.4220
vn 0.1616 -0.9065 -0.3900
vn 0.2983 -0.9067 -0.2983
vn 0.3900 -0.9065 -0.1616
vn 0.4220 -0.9066 -0.0000
vn 0.3900 0.9065 0.1616
vn 0.4220 0.9066 -0.0000
vn 0.0000 1.0000 -0.0000
vn 0.3900 0.9065 -0.1616
vn 0.2983 0.9066 -0.2983
vn 0.1616 0.9065 -0.3900
vn -0.0000 0.9066 -0.4220
vn -0.1616 0.9065 -0.3900
vn -0.2982 0.9067 -0.2982
vn -0.3900 0.9065 -0.1616
vn -0.4220 0.9066 -0.0000
vn -0.3900 0.9065 0.1616
vn -0.2982 0.9067 0.2982
vn -0.1616 0.9065 0.3900
vn -0.0000 0.9066 0.4220
vn 0.1616 0.9065 0.3900
vn 0.2983 0.9066 0.2983
vn 0.8595 -0.3667 -0.3560
vn 0.9303 -0.3668 -0.0000
vn 0.6578 -0.3669 -0.6578
vn 0.3560 -0.3667 -0.8595
vn 0.0000 -0.3668 -0.9303
vn -0.3560 -0.3667 -0.8595
vn -0.6578 -0.3671 -0.6578
vn -0.8595 -0.3668 -0.3560
vn -0.9303 -0.3669 -0.0000
vn -0.8595 -0.3668 0.3560
vn -0.6578 -0.3671 0.6577
vn -0.3560 -0.3668 0.8595
vn -0.0000 -0.3668 0.9303
vn 0.3560 -0.3668 0.8595
vn 0.6578 -0.3669 0.6578
vn 0.8595 -0.3667 0.3560
vn 0.8595 0.3667 -0.3560
vn 0.9303 0.3668 -0.0000
vn 0.6578 0.3669 -0.6578
vn 0.3560 0.3667 -0.8595
vn 0.0000 0.3668 -0.9303
vn -0.3560 0.3667 -0.8595
vn -0.6578 0.3670 -0.6578
vn -0.8595 0.3668 -0.3560
vn -0.9303 0.3669 -0.0000
vn -0.8595 0.3668 0.3560
vn -0.6578 0.3671 0.6577
vn -0.3560 0.3668 0.8595
vn -0.0000 0.3668 0.9303
vn 0.3560 0.3667 0.8595
vn 0.6578 0.3669 0.6578
vn 0.8595 0.3667 0.3560
vn 0.8638 -0.3547 -0.3578
vn 0.9350 -0.3548 -0.0000
vn 0.9350 0.3548 -0.0000
vn 0.8638 0.3547 -0.3578
vn 0.6611 -0.3549 -0.6611
vn 0.6611 0.3549 -0.6611
vn 0.3578 -0.3547 -0.8638
vn 0.3578 0.3547 -0.8638
vn 0.0000 -0.3548 -0.9350
vn 0.0000 0.3548 -0.9350
vn -0.3578 -0.3547 -0.8638
vn -0.3578 0.3548 -0.8638
vn -0.6610 -0.3550 -0.6610
vn -0.6610 0.3550 -0.6610
vn -0.8638 -0.3548 -0.3578
vn -0.8638 0.3548 -0.3578
vn -0.9349 -0.3548 -0.0000
vn -0.9349 0.3548 -0.0000
vn -0.8638 -0.3548 0.3578
vn -0.8638 0.3548 0.3578
vn -0.6610 -0.3550 0.6610
vn -0.6610 0.3550 0.6610
vn -0.3577 -0.3548 0.8638
vn -0.3577 0.3548 0.8638
vn -0.0000 -0.3548 0.9349
vn -0.0000 0.3548 0.9349
vn 0.3578 -0.3548 0.8638
vn 0.3578 0.3548 0.8638
vn 0.6611 -0.3549 0.6611
vn 0.6611 0.3549 0.6611
vn 0.8638 -0.3547 0.3578
vn 0.8638 0.3547 0.3578
# 130 vertex normals

vt 0.1847 0.4091 0.0000
vt 0.1847 0.3661 0.0000
vt 0.2143 0.3661 0.0000
vt 0.2143 0.4091 0.0000
vt 0.1551 0.4091 0.0000
vt 0.1551 0.3661 0.0000
vt 0.1255 0.4091 0.0000
vt 0.1255 0.3661 0.0000
vt 0.0959 0.4091 0.0000
vt 0.0959 0.3661 0.0000
vt 0.5400 0.4091 0.0000
vt 0.5400 0.3661 0.0000
vt 0.5696 0.3661 0.0000
vt 0.5696 0.4091 0.0000
vt 0.5104 0.4091 0.0000
vt 0.5104 0.3661 0.0000
vt 0.4808 0.4091 0.0000
vt 0.4808 0.3661 0.0000
vt 0.4512 0.4091 0.0000
vt 0.4512 0.3661 0.0000
vt 0.4216 0.4091 0.0000
vt 0.4216 0.3661 0.0000
vt 0.3920 0.4091 0.0000
vt 0.3920 0.3661 0.0000
vt 0.3623 0.4091 0.0000
vt 0.3623 0.3661 0.0000
vt 0.3326 0.4091 0.0000
vt 0.3326 0.3661 0.0000
vt 0.3030 0.4091 0.0000
vt 0.3030 0.3661 0.0000
vt 0.2735 0.4091 0.0000
vt 0.2735 0.3661 0.0000
vt 0.2439 0.4091 0.0000
vt 0.2439 0.3661 0.0000
vt 0.3053 0.5274 0.0000
vt 0.3056 0.4991 0.0000
vt 0.3765 0.5140 0.0000
vt 0.3166 0.4731 0.0000
vt 0.3368 0.4533 0.0000
vt 0.3630 0.4429 0.0000
vt 0.3911 0.4430 0.0000
vt 0.4172 0.4539 0.0000
vt 0.4371 0.4740 0.0000
vt 0.4478 0.5002 0.0000
vt 0.4476 0.5285 0.0000
vt 0.4366 0.5546 0.0000
vt 0.4164 0.5745 0.0000
vt 0.3902 0.5852 0.0000
vt 0.3618 0.5850 0.0000
vt 0.3357 0.5739 0.0000
vt 0.3159 0.5537 0.0000
vt 0.2766 0.2754 0.0000
vt 0.2767 0.2471 0.0000
vt 0.3478 0.2613 0.0000
vt 0.2876 0.2209 0.0000
vt 0.3077 0.2010 0.0000
vt 0.3339 0.1902 0.0000
vt 0.3623 0.1903 0.0000
vt 0.3884 0.2013 0.0000
vt 0.4083 0.2214 0.0000
vt 0.4190 0.2477 0.0000
vt 0.4189 0.2760 0.0000
vt 0.4079 0.3020 0.0000
vt 0.3877 0.3219 0.0000
vt 0.3616 0.3323 0.0000
vt 0.3334 0.3323 0.0000
vt 0.3074 0.3216 0.0000
vt 0.2874 0.3016 0.0000
vt 0.3319 0.5796 0.0000
vt 0.3101 0.5575 0.0000
vt 0.3604 0.5917 0.0000
vt 0.3915 0.5920 0.0000
vt 0.4202 0.5803 0.0000
vt 0.4423 0.5585 0.0000
vt 0.4544 0.5299 0.0000
vt 0.4545 0.4989 0.0000
vt 0.4428 0.4702 0.0000
vt 0.4210 0.4481 0.0000
vt 0.3920 0.4363 0.0000
vt 0.3623 0.4363 0.0000
vt 0.3331 0.4475 0.0000
vt 0.3109 0.4692 0.0000
vt 0.2988 0.4977 0.0000
vt 0.2985 0.5287 0.0000
vt 0.2819 0.2171 0.0000
vt 0.2699 0.2457 0.0000
vt 0.3039 0.1952 0.0000
vt 0.3326 0.1834 0.0000
vt 0.3636 0.1836 0.0000
vt 0.3923 0.1956 0.0000
vt 0.4141 0.2176 0.0000
vt 0.4258 0.2463 0.0000
vt 0.4256 0.2774 0.0000
vt 0.4136 0.3059 0.0000
vt 0.3915 0.3277 0.0000
vt 0.3623 0.3389 0.0000
vt 0.3326 0.3389 0.0000
vt 0.3036 0.3274 0.0000
vt 0.2817 0.3054 0.0000
vt 0.2699 0.2767 0.0000
vt 0.1847 0.3588 0.0000
vt 0.1847 0.3389 0.0000
vt 0.2143 0.3389 0.0000
vt 0.2143 0.3588 0.0000
vt 0.2143 0.4163 0.0000
vt 0.2143 0.4363 0.0000
vt 0.1847 0.4363 0.0000
vt 0.1847 0.4163 0.0000
vt 0.1551 0.3588 0.0000
vt 0.1551 0.3389 0.0000
vt 0.1551 0.4363 0.0000
vt 0.1551 0.4163 0.0000
vt 0.1255 0.3588 0.0000
vt 0.1255 0.3389 0.0000
vt 0.1255 0.4363 0.0000
vt 0.1255 0.4163 0.0000
vt 0.0959 0.3588 0.0000
vt 0.0959 0.3389 0.0000
vt 0.0959 0.4363 0.0000
vt 0.0959 0.4163 0.0000
vt 0.5400 0.3588 0.0000
vt 0.5400 0.3389 0.0000
vt 0.5696 0.3389 0.0000
vt 0.5696 0.3588 0.0000
vt 0.5696 0.4163 0.0000
vt 0.5696 0.4363 0.0000
vt 0.5400 0.4363 0.0000
vt 0.5400 0.4163 0.0000
vt 0.5104 0.3588 0.0000
vt 0.5104 0.3389 0.0000
vt 0.5104 0.4363 0.0000
vt 0.5104 0.4163 0.0000
vt 0.4808 0.3588 0.0000
vt 0.4808 0.3389 0.0000
vt 0.4808 0.4363 0.0000
vt 0.4808 0.4163 0.0000
vt 0.4512 0.3588 0.0000
vt 0.4512 0.3389 0.0000
vt 0.4512 0.4363 0.0000
vt 0.4512 0.4163 0.0000
vt 0.4216 0.3588 0.0000
vt 0.4216 0.3389 0.0000
vt 0.4216 0.4363 0.0000
vt 0.4216 0.4163 0.0000
vt 0.3920 0.3588 0.0000
vt 0.3920 0.3389 0.0000
vt 0.3920 0.4163 0.0000
vt 0.3623 0.3588 0.0000
vt 0.3623 0.4163 0.0000
vt 0.3326 0.3588 0.0000
vt 0.3326 0.4363 0.0000
vt 0.3326 0.4163 0.0000
vt 0.3030 0.3588 0.0000
vt 0.3030 0.3389 0.0000
vt 0.3030 0.4363 0.0000
vt 0.3030 0.4163 0.0000
vt 0.2735 0.3588 0.0000
vt 0.2735 0.3389 0.0000
vt 0.2735 0.4363 0.0000
vt 0.2735 0.4163 0.0000
vt 0.2439 0.3588 0.0000
vt 0.2439 0.3389 0.0000
vt 0.2439 0.4363 0.0000
vt 0.2439 0.4163 0.0000
# 164 texture coords

o deco2_capacitor
g deco2_capacitor
f 1/1/1 2/2/2 3/3/3 4/4/4 
f 5/5/5 6/6/6 2/2/2 1/1/1 
f 7/7/7 8/8/8 6/6/6 5/5/5 
f 9/9/9 10/10/10 8/8/8 7/7/7 
f 11/11/11 12/12/12 10/13/10 9/14/9 
f 13/15/13 14/16/14 12/12/12 11/11/11 
f 15/17/15 16/18/16 14/16/14 13/15/13 
f 17/19/17 18/20/18 16/18/16 15/17/15 
f 19/21/19 20/22/20 18/20/18 17/19/17 
f 21/23/21 22/24/22 20/22/20 19/21/19 
f 23/25/23 24/26/24 22/24/22 21/23/21 
f 25/27/25 26/28/26 24/26/24 23/25/23 
f 27/29/27 28/30/28 26/28/26 25/27/25 
f 29/31/29 30/32/30 28/30/28 27/29/27 
f 31/33/31 32/34/32 30/32/30 29/31/29 
f 4/4/4 3/3/3 32/34/32 31/33/31 
f 33/35/33 34/36/34 35/37/35 
f 34/36/34 36/38/36 35/37/35 
f 36/38/36 37/39/37 35/37/35 
f 37/39/37 38/40/38 35/37/35 
f 38/40/38 39/41/39 35/37/35 
f 39/41/39 40/42/40 35/37/35 
f 40/42/40 41/43/41 35/37/35 
f 41/43/41 42/44/42 35/37/35 
f 42/44/42 43/45/43 35/37/35 
f 43/45/43 44/46/44 35/37/35 
f 44/46/44 45/47/45 35/37/35 
f 45/47/45 46/48/46 35/37/35 
f 46/48/46 47/49/47 35/37/35 
f 47/49/47 48/50/48 35/37/35 
f 48/50/48 49/51/49 35/37/35 
f 49/51/49 33/35/33 35/37/35 
f 50/52/50 51/53/51 52/54/52 
f 51/53/51 53/55/53 52/54/52 
f 53/55/53 54/56/54 52/54/52 
f 54/56/54 55/57/55 52/54/52 
f 55/57/55 56/58/56 52/54/52 
f 56/58/56 57/59/57 52/54/52 
f 57/59/57 58/60/58 52/54/52 
f 58/60/58 59/61/59 52/54/52 
f 59/61/59 60/62/60 52/54/52 
f 60/62/60 61/63/61 52/54/52 
f 61/63/61 62/64/62 52/54/52 
f 62/64/62 63/65/63 52/54/52 
f 63/65/63 64/66/64 52/54/52 
f 64/66/64 65/67/65 52/54/52 
f 65/67/65 66/68/66 52/54/52 
f 66/68/66 50/52/50 52/54/52 
f 48/50/48 67/69/67 68/70/68 49/51/49 
f 47/49/47 69/71/69 67/69/67 48/50/48 
f 46/48/46 70/72/70 69/71/69 47/49/47 
f 45/47/45 71/73/71 70/72/70 46/48/46 
f 44/46/44 72/74/72 71/73/71 45/47/45 
f 43/45/43 73/75/73 72/74/72 44/46/44 
f 42/44/42 74/76/74 73/75/73 43/45/43 
f 41/43/41 75/77/75 74/76/74 42/44/42 
f 40/42/40 76/78/76 75/77/75 41/43/41 
f 39/41/39 77/79/77 76/78/76 40/42/40 
f 38/40/38 78/80/78 77/79/77 39/41/39 
f 37/39/37 79/81/79 78/80/78 38/40/38 
f 36/38/36 80/82/80 79/81/79 37/39/37 
f 34/36/34 81/83/81 80/82/80 36/38/36 
f 33/35/33 82/84/82 81/83/81 34/36/34 
f 49/51/49 68/70/68 82/84/82 33/35/33 
f 83/85/83 53/55/53 51/53/51 84/86/84 
f 85/87/85 54/56/54 53/55/53 83/85/83 
f 86/88/86 55/57/55 54/56/54 85/87/85 
f 87/89/87 56/58/56 55/57/55 86/88/86 
f 88/90/88 57/59/57 56/58/56 87/89/87 
f 89/91/89 58/60/58 57/59/57 88/90/88 
f 90/92/90 59/61/59 58/60/58 89/91/89 
f 91/93/91 60/62/60 59/61/59 90/92/90 
f 92/94/92 61/63/61 60/62/60 91/93/91 
f 93/95/93 62/64/62 61/63/61 92/94/92 
f 94/96/94 63/65/63 62/64/62 93/95/93 
f 95/97/95 64/66/64 63/65/63 94/96/94 
f 96/98/96 65/67/65 64/66/64 95/97/95 
f 97/99/97 66/68/66 65/67/65 96/98/96 
f 98/100/98 50/52/50 66/68/66 97/99/97 
f 84/86/84 51/53/51 50/52/50 98/100/98 
f 99/101/99 83/102/83 84/103/84 100/104/100 
f 101/105/101 68/106/68 67/107/67 102/108/102 
f 103/109/103 85/110/85 83/102/83 99/101/99 
f 102/108/102 67/107/67 69/111/69 104/112/104 
f 105/113/105 86/114/86 85/110/85 103/109/103 
f 104/112/104 69/111/69 70/115/70 106/116/106 
f 107/117/107 87/118/87 86/114/86 105/113/105 
f 106/116/106 70/115/70 71/119/71 108/120/108 
f 109/121/109 88/122/88 87/123/87 107/124/107 
f 108/125/108 71/126/71 72/127/72 110/128/110 
f 111/129/111 89/130/89 88/122/88 109/121/109 
f 110/128/110 72/127/72 73/131/73 112/132/112 
f 113/133/113 90/134/90 89/130/89 111/129/111 
f 112/132/112 73/131/73 74/135/74 114/136/114 
f 115/137/115 91/138/91 90/134/90 113/133/113 
f 114/136/114 74/135/74 75/139/75 116/140/116 
f 117/141/117 92/142/92 91/138/91 115/137/115 
f 116/140/116 75/139/75 76/143/76 118/144/118 
f 119/145/119 93/146/93 92/142/92 117/141/117 
f 118/144/118 76/143/76 77/79/77 120/147/120 
f 121/148/121 94/96/94 93/146/93 119/145/119 
f 120/147/120 77/79/77 78/80/78 122/149/122 
f 123/150/123 95/97/95 94/96/94 121/148/121 
f 122/149/122 78/80/78 79/151/79 124/152/124 
f 125/153/125 96/154/96 95/97/95 123/150/123 
f 124/152/124 79/151/79 80/155/80 126/156/126 
f 127/157/127 97/158/97 96/154/96 125/153/125 
f 126/156/126 80/155/80 81/159/81 128/160/128 
f 129/161/129 98/162/98 97/158/97 127/157/127 
f 128/160/128 81/159/81 82/163/82 130/164/130 
f 100/104/100 84/103/84 98/162/98 129/161/129 
f 130/164/130 82/163/82 68/106/68 101/105/101 
f 99/101/99 100/104/100 3/3/3 2/2/2 
f 100/104/100 129/161/129 32/34/32 3/3/3 
f 129/161/129 127/157/127 30/32/30 32/34/32 
f 127/157/127 125/153/125 28/30/28 30/32/30 
f 125/153/125 123/150/123 26/28/26 28/30/28 
f 123/150/123 121/148/121 24/26/24 26/28/26 
f 121/148/121 119/145/119 22/24/22 24/26/24 
f 119/145/119 117/141/117 20/22/20 22/24/22 
f 117/141/117 115/137/115 18/20/18 20/22/20 
f 115/137/115 113/133/113 16/18/16 18/20/18 
f 113/133/113 111/129/111 14/16/14 16/18/16 
f 111/129/111 109/121/109 12/12/12 14/16/14 
f 109/121/109 107/124/107 10/13/10 12/12/12 
f 107/117/107 105/113/105 8/8/8 10/10/10 
f 105/113/105 103/109/103 6/6/6 8/8/8 
f 103/109/103 99/101/99 2/2/2 6/6/6 
f 101/105/101 102/108/102 1/1/1 4/4/4 
f 102/108/102 104/112/104 5/5/5 1/1/1 
f 104/112/104 106/116/106 7/7/7 5/5/5 
f 106/116/106 108/120/108 9/9/9 7/7/7 
f 108/125/108 110/128/110 11/11/11 9/14/9 
f 110/128/110 112/132/112 13/15/13 11/11/11 
f 112/132/112 114/136/114 15/17/15 13/15/13 
f 114/136/114 116/140/116 17/19/17 15/17/15 
f 116/140/116 118/144/118 19/21/19 17/19/17 
f 118/144/118 120/147/120 21/23/21 19/21/19 
f 120/147/120 122/149/122 23/25/23 21/23/21 
f 122/149/122 124/152/124 25/27/25 23/25/23 
f 124/152/124 126/156/126 27/29/27 25/27/25 
f 126/156/126 128/160/128 29/31/29 27/29/27 
f 128/160/128 130/164/130 31/33/31 29/31/29 
f 130/164/130 101/105/101 4/4/4 31/33/31 
# 112 polygons - 32 triangles

