# 3ds Max Wavefront OBJ Exporter v0.97b - (c)2007 guruware
# File Created: 15.12.2019 15:13:29

#
# object deco2_LED_panel
#

v  -2.2790 -1.2013 0.0001
v  -0.0001 -1.2013 0.0001
v  -0.0001 -0.0001 0.0001
v  -2.2790 -0.0001 0.0001
v  2.2790 -0.0001 0.0001
v  2.2790 1.2013 0.0001
v  -0.0001 1.2013 0.0001
v  2.2790 -1.2013 0.0001
v  -2.2790 1.2013 0.0001
# 9 vertices

vn 0.0000 0.0000 1.0000
# 1 vertex normals

vt 0.4876 0.2045 0.0000
vt 0.6056 0.2045 0.0000
vt 0.6056 0.2667 0.0000
vt 0.4876 0.2667 0.0000
vt 0.7236 0.2667 0.0000
vt 0.7236 0.3289 0.0000
vt 0.6056 0.3289 0.0000
vt 0.7236 0.2045 0.0000
vt 0.4876 0.3289 0.0000
# 9 texture coords

o deco2_LED_panel
g deco2_LED_panel
f 1/1/1 2/2/1 3/3/1 4/4/1 
f 5/5/1 6/6/1 7/7/1 3/3/1 
f 2/2/1 8/8/1 5/5/1 3/3/1 
f 7/7/1 9/9/1 4/4/1 3/3/1 
# 4 polygons

