# 3ds Max Wavefront OBJ Exporter v0.97b - (c)2007 guruware
# File Created: 15.12.2019 15:13:26

#
# object deco2_flatcable
#

v  -1.7941 3.6012 -1.8791
v  -1.7500 3.5943 -1.5189
v  -1.7505 3.8141 -1.5096
v  -1.7961 3.8213 -1.8800
v  1.4761 3.8224 -1.3060
v  1.5976 3.8284 -1.6169
v  1.4813 3.6026 -1.3152
v  1.5989 3.6084 -1.6159
v  -1.6786 3.5704 -1.1629
v  -1.6768 3.7896 -1.1430
v  1.3824 3.8020 -1.0009
v  1.3904 3.5828 -1.0208
v  -1.5853 3.5295 -0.8113
v  -1.5803 3.7474 -0.7806
v  1.3133 3.7671 -0.7017
v  1.3232 3.5493 -0.7324
v  -1.4750 3.4715 -0.4643
v  -1.4667 3.6876 -0.4226
v  1.2659 3.7180 -0.4078
v  1.2771 3.5020 -0.4496
v  -1.3526 3.3964 -0.1224
v  -1.3409 3.6100 -0.0696
v  1.2375 3.6546 -0.1191
v  1.2494 3.4410 -0.1719
v  -1.2220 3.3042 0.2143
v  -1.2074 3.5148 0.2780
v  1.2260 3.5769 0.1647
v  1.2379 3.3663 0.1010
v  -1.0871 3.1951 0.5453
v  -1.0701 3.4021 0.6198
v  1.2294 3.4848 0.4441
v  1.2407 3.2777 0.3696
v  -0.9432 3.0623 0.8884
v  -0.9254 3.2658 0.9722
v  1.2451 3.3848 0.7012
v  1.2558 3.1813 0.6175
v  -0.7701 2.9039 1.2541
v  -0.7529 3.1044 1.3447
v  1.2837 3.2825 0.9366
v  1.2933 3.0820 0.8460
v  -0.5777 2.7344 1.6123
v  -0.5618 2.9318 1.7095
v  1.3538 3.1651 1.1855
v  1.3619 2.9677 1.0884
v  -0.3929 2.5614 1.9435
v  -0.3776 2.7550 2.0480
v  1.4502 3.0223 1.4595
v  1.4564 2.8287 1.3551
v  -0.2239 2.3832 2.2486
v  -0.2081 2.5719 2.3615
v  1.5627 2.8533 1.7495
v  1.5657 2.6645 1.6367
v  -0.0770 2.1998 2.5260
v  -0.0595 2.3820 2.6485
v  1.6817 2.6555 2.0491
v  1.6800 2.4733 1.9265
v  0.0429 2.0127 2.7722
v  0.0634 2.1863 2.9062
v  1.7990 2.4249 2.3533
v  1.7910 2.2513 2.2191
v  0.1312 1.8258 2.9831
v  0.1559 1.9876 3.1305
v  1.9065 2.1552 2.6582
v  1.8899 1.9934 2.5107
v  0.1851 1.6443 3.1551
v  0.2146 1.7900 3.3178
v  1.9928 1.8384 2.9592
v  1.9634 1.6927 2.7966
v  0.2049 1.4696 3.2908
v  0.2365 1.5959 3.4685
v  2.0347 1.4707 3.2459
v  2.0030 1.3443 3.0682
v  0.1898 1.2589 3.4259
v  0.2201 1.3676 3.6149
v  2.0056 1.0643 3.5066
v  1.9753 0.9555 3.3176
v  0.1347 0.9753 3.5829
v  0.1625 1.0705 3.7794
v  1.9238 0.6433 3.7393
v  1.8960 0.5482 3.5428
v  0.0438 0.6343 3.7473
v  0.0684 0.7177 3.9493
v  1.8102 0.2167 3.9444
v  1.7854 0.1332 3.7423
v  -0.0722 0.2554 3.9046
v  -0.0509 0.3276 4.1115
v  1.6791 -0.2112 4.1219
v  1.6579 -0.2834 3.9151
v  -0.2011 -0.1460 4.0445
v  -0.1838 -0.0859 4.2556
v  1.5443 -0.6314 4.2679
v  1.5268 -0.6915 4.0569
v  -0.3308 -0.5581 4.1578
v  -0.3179 -0.5124 4.3728
v  1.4183 -1.0317 4.3778
v  1.4054 -1.0773 4.1628
v  -0.4491 -0.9729 4.2356
v  -0.4417 -0.9463 4.4541
v  1.3144 -1.3957 4.4457
v  1.3069 -1.4223 4.2271
v  -0.5433 -1.3885 4.2669
v  -0.5420 -1.3895 4.4876
v  1.2453 -1.7013 4.4683
v  1.2441 -1.7003 4.2478
v  -0.5949 -1.8056 4.2336
v  -0.5985 -1.8479 4.4508
v  1.2179 -1.9235 4.4501
v  1.2216 -1.8813 4.2329
v  -0.5776 -2.2016 4.1088
v  -0.5794 -2.2892 4.3119
v  1.2259 -2.1080 4.3926
v  1.2277 -2.0204 4.1894
v  -0.5069 -2.5478 3.9148
v  -0.5019 -2.6691 4.0989
v  1.2689 -2.3189 4.2751
v  1.2640 -2.1977 4.0908
v  -0.4086 -2.8440 3.6821
v  -0.3966 -2.9871 3.8492
v  1.3457 -2.5516 4.0930
v  1.3336 -2.4085 3.9259
v  -0.3006 -3.1005 3.4270
v  -0.2824 -3.2582 3.5796
v  1.4464 -2.7905 3.8561
v  1.4282 -2.6328 3.7034
v  -0.1967 -3.3213 3.1639
v  -0.1736 -3.4896 3.3039
v  1.5570 -3.0265 3.5758
v  1.5339 -2.8582 3.4358
v  -0.1104 -3.5057 2.9094
v  -0.0836 -3.6824 3.0378
v  1.6637 -3.2550 3.2615
v  1.6369 -3.0783 3.1329
v  -0.0579 -3.5703 2.8012
v  -0.0443 -3.7563 2.8012
v  1.7549 -3.5546 2.8012
v  1.7413 -3.3687 2.8012
v  -0.0318 -3.6890 2.5301
v  -0.0121 -3.8817 2.5301
v  1.7752 -3.7461 2.5301
v  1.7556 -3.5534 2.5301
v  -0.0417 -3.7944 2.2854
v  -0.0116 -3.9937 2.2854
v  1.7681 -3.8919 2.2854
v  1.7379 -3.6925 2.2854
v  -0.0726 -3.8442 1.9719
v  -0.0474 -4.0516 1.9719
v  1.6754 -4.0375 1.9719
v  1.6502 -3.8301 1.9719
v  -2.3266 3.4244 -1.4591
v  -0.0535 3.4244 -1.4591
v  -0.0535 3.9704 -1.4591
v  -2.3266 3.9704 -1.4591
v  -2.5536 3.1974 -4.4876
v  -0.0535 3.1974 -4.4876
v  -0.0535 3.1974 -2.3192
v  -2.5536 3.1974 -2.3192
v  2.4464 3.1974 -4.4876
v  2.4464 4.1974 -4.4876
v  2.4464 4.1974 -2.3192
v  2.4464 3.1974 -2.3192
v  -0.0535 4.1974 -4.4876
v  -0.0535 4.1974 -2.3192
v  -2.5536 4.1974 -4.4876
v  -2.5536 4.1974 -2.3192
v  -0.0535 3.3409 -2.2949
v  -2.4100 3.3409 -2.2949
v  2.3031 4.0540 -2.2949
v  2.3031 3.3409 -2.2949
v  -0.0535 4.0540 -2.2949
v  -2.4100 4.0540 -2.2949
v  2.2194 3.9704 -1.4591
v  2.2194 3.4244 -1.4591
v  -0.7771 -4.1974 2.6293
v  2.5536 -4.1974 2.6293
v  2.5536 -3.1593 2.6293
v  -0.7771 -3.1593 2.6293
v  -0.7771 -4.1974 1.8615
v  2.5536 -4.1974 1.8615
v  2.5536 -3.1593 1.8615
v  -0.7771 -3.1593 1.8615
# 180 vertices

vn -0.7494 -0.6574 0.0792
vn -0.7089 -0.7000 0.0865
vn -0.7039 0.6961 0.1415
vn -0.7458 0.6580 0.1044
vn 0.6458 0.7203 0.2531
vn 0.7133 0.6376 0.2911
vn 0.6734 -0.7095 0.2077
vn 0.7326 -0.6228 0.2747
vn -0.7004 -0.7065 0.1013
vn -0.6903 0.6889 0.2211
vn 0.6550 0.7168 0.2393
vn 0.6947 -0.7083 0.1255
vn -0.6927 -0.7137 0.1042
vn -0.6760 0.6777 0.2896
vn 0.6617 0.7140 0.2290
vn 0.7109 -0.7019 0.0432
vn -0.6871 -0.7201 0.0967
vn -0.6624 0.6636 0.3476
vn 0.6663 0.7118 0.2224
vn 0.7219 -0.6910 -0.0370
vn -0.6837 -0.7253 0.0799
vn -0.6510 0.6471 0.3969
vn 0.6697 0.7092 0.2203
vn 0.7278 -0.6762 -0.1137
vn -0.6829 -0.7283 0.0557
vn -0.6419 0.6292 0.4383
vn 0.6720 0.7065 0.2220
vn 0.7300 -0.6576 -0.1859
vn -0.6840 -0.7290 0.0253
vn -0.6355 0.6100 0.4733
vn 0.6741 0.7029 0.2271
vn 0.7285 -0.6363 -0.2536
vn -0.6837 -0.7297 0.0079
vn -0.6324 0.5812 0.5121
vn 0.6700 0.7100 0.2169
vn 0.7152 -0.6147 -0.3326
vn -0.6727 -0.7399 0.0059
vn -0.6222 0.5518 0.5553
vn 0.6646 0.7249 0.1811
vn 0.6985 -0.5805 -0.4184
vn -0.6634 -0.7482 -0.0073
vn -0.6098 0.5310 0.5884
vn 0.6626 0.7330 0.1541
vn 0.6863 -0.5407 -0.4865
vn -0.6674 -0.7437 -0.0386
vn -0.6030 0.5141 0.6100
vn 0.6667 0.7290 0.1553
vn 0.6747 -0.5114 -0.5322
vn -0.6810 -0.7276 -0.0825
vn -0.5980 0.4999 0.6265
vn 0.6776 0.7139 0.1768
vn 0.6653 -0.4895 -0.5637
vn -0.7019 -0.6987 -0.1380
vn -0.5930 0.4877 0.6407
vn 0.6956 0.6862 0.2126
vn 0.6569 -0.4723 -0.5877
vn -0.7288 -0.6530 -0.2059
vn -0.5872 0.4775 0.6536
vn 0.7198 0.6435 0.2604
vn 0.6482 -0.4587 -0.6078
vn -0.7591 -0.5844 -0.2867
vn -0.5798 0.4697 0.6657
vn 0.7491 0.5804 0.3192
vn 0.6403 -0.4486 -0.6235
vn -0.7869 -0.4849 -0.3815
vn -0.5710 0.4657 0.6761
vn 0.7857 0.4824 0.3873
vn 0.6233 -0.4447 -0.6432
vn -0.7975 -0.3575 -0.4860
vn -0.5680 0.4682 0.6768
vn 0.8023 0.3546 0.4802
vn 0.6303 -0.4411 -0.6389
vn -0.7907 -0.2324 -0.5664
vn -0.5763 0.4744 0.6655
vn 0.7944 0.2293 0.5624
vn 0.6209 -0.4612 -0.6338
vn -0.7764 -0.1391 -0.6147
vn -0.5826 0.4755 0.6592
vn 0.7754 0.1393 0.6160
vn 0.6133 -0.4696 -0.6351
vn -0.7612 -0.0710 -0.6447
vn -0.5893 0.4650 0.6607
vn 0.7564 0.0742 0.6498
vn 0.6114 -0.4625 -0.6421
vn -0.7478 -0.0186 -0.6636
vn -0.5984 0.4426 0.6679
vn 0.7391 0.0246 0.6731
vn 0.6153 -0.4418 -0.6529
vn -0.7371 0.0242 -0.6753
vn -0.6115 0.4058 0.6792
vn 0.7236 -0.0157 0.6900
vn 0.6251 -0.4058 -0.6667
vn -0.7297 0.0617 -0.6810
vn -0.6300 0.3488 0.6939
vn 0.7085 -0.0506 0.7039
vn 0.6420 -0.3493 -0.6825
vn -0.7264 0.0965 -0.6804
vn -0.6550 0.2600 0.7095
vn 0.6927 -0.0839 0.7164
vn 0.6663 -0.2607 -0.6986
vn -0.7296 0.1294 -0.6715
vn -0.6854 0.1175 0.7186
vn 0.6740 -0.1208 0.7288
vn 0.6974 -0.1185 -0.7069
vn -0.7410 0.1584 -0.6525
vn -0.7084 -0.1068 0.6977
vn 0.6540 -0.1710 0.7369
vn 0.7224 0.1032 -0.6838
vn -0.7370 0.1913 -0.6482
vn -0.6989 -0.3521 0.6226
vn 0.6611 -0.2274 0.7150
vn 0.7147 0.3458 -0.6079
vn -0.7322 0.2330 -0.6400
vn -0.6661 -0.5272 0.5276
vn 0.6822 -0.2706 0.6792
vn 0.6819 0.5205 -0.5139
vn -0.7346 0.2742 -0.6206
vn -0.6329 -0.6319 0.4473
vn 0.7033 -0.3039 0.6427
vn 0.6488 0.6248 -0.4343
vn -0.7429 0.3133 -0.5915
vn -0.6072 -0.6929 0.3889
vn 0.7237 -0.3339 0.6039
vn 0.6251 0.6845 -0.3751
vn -0.7547 0.3539 -0.5524
vn -0.5905 -0.7267 0.3510
vn 0.7444 -0.3656 0.5588
vn 0.6120 0.7160 -0.3360
vn -0.7672 0.3408 -0.5434
vn -0.5273 -0.8053 0.2710
vn 0.7743 -0.4055 0.4858
vn 0.6029 0.7083 -0.3673
vn -0.6691 0.5426 -0.5078
vn -0.6612 -0.7261 0.1884
vn 0.7579 -0.4961 0.4236
vn 0.7163 0.6248 -0.3106
vn -0.7498 0.5941 -0.2913
vn -0.6324 -0.7136 0.3013
vn 0.7678 -0.5349 0.3527
vn 0.6632 0.6379 -0.3914
vn -0.8058 0.5823 -0.1082
vn -0.5809 -0.7660 0.2753
vn 0.8027 -0.5764 0.1535
vn 0.6288 0.6512 -0.4249
vn -0.8062 0.5915 -0.0145
vn -0.6356 -0.7430 0.2098
vn 0.5816 -0.7898 0.1948
vn 0.6153 0.6438 -0.4549
vn -0.5495 -0.5495 0.6293
vn 0.0000 -0.6710 0.7415
vn 0.0000 0.6710 0.7415
vn -0.5495 0.5495 0.6293
vn -0.7071 -0.7071 -0.0000
vn 0.0000 -1.0000 -0.0000
vn 0.0000 -0.7639 0.6454
vn -0.5932 -0.5932 0.5443
vn 0.7071 -0.7071 -0.0000
vn 0.7071 0.7071 -0.0000
vn 0.5932 0.5932 0.5443
vn 0.5932 -0.5932 0.5443
vn 0.0000 1.0000 -0.0000
vn 0.0000 0.7639 0.6453
vn -0.7071 0.7071 -0.0000
vn -0.5932 0.5932 0.5443
vn 0.0000 -0.7307 0.6827
vn -0.3327 -0.3327 0.8824
vn 0.3327 0.3327 0.8824
vn 0.3327 -0.3326 0.8824
vn 0.0000 0.7308 0.6826
vn -0.3326 0.3327 0.8824
vn 0.5495 0.5495 0.6294
vn 0.5495 -0.5495 0.6293
vn -0.5774 -0.5774 0.5774
vn 0.5774 -0.5774 0.5774
vn 0.5774 0.5774 0.5774
vn -0.5774 0.5774 0.5774
# 176 vertex normals

vt 0.8569 0.9968 0.0000
vt 0.8569 0.9731 0.0000
vt 0.8723 0.9731 0.0000
vt 0.8723 0.9968 0.0000
vt 0.9841 0.9731 0.0000
vt 0.9841 0.9968 0.0000
vt 0.9968 0.9731 0.0000
vt 0.9968 0.9968 0.0000
vt 0.7446 0.9968 0.0000
vt 0.7446 0.9731 0.0000
vt 0.8569 0.9475 0.0000
vt 0.8723 0.9475 0.0000
vt 0.9841 0.9475 0.0000
vt 0.9968 0.9475 0.0000
vt 0.7446 0.9475 0.0000
vt 0.8569 0.9248 0.0000
vt 0.8723 0.9248 0.0000
vt 0.9841 0.9248 0.0000
vt 0.9968 0.9248 0.0000
vt 0.7446 0.9248 0.0000
vt 0.8569 0.9020 0.0000
vt 0.8723 0.9020 0.0000
vt 0.9841 0.9020 0.0000
vt 0.9968 0.9020 0.0000
vt 0.7446 0.9020 0.0000
vt 0.8569 0.8802 0.0000
vt 0.8723 0.8802 0.0000
vt 0.9841 0.8802 0.0000
vt 0.9968 0.8802 0.0000
vt 0.7446 0.8802 0.0000
vt 0.8569 0.8590 0.0000
vt 0.8723 0.8590 0.0000
vt 0.9841 0.8590 0.0000
vt 0.9968 0.8590 0.0000
vt 0.7446 0.8590 0.0000
vt 0.8569 0.8382 0.0000
vt 0.8723 0.8382 0.0000
vt 0.9841 0.8382 0.0000
vt 0.9968 0.8382 0.0000
vt 0.7446 0.8382 0.0000
vt 0.8569 0.8186 0.0000
vt 0.8723 0.8186 0.0000
vt 0.9841 0.8186 0.0000
vt 0.9968 0.8186 0.0000
vt 0.7446 0.8186 0.0000
vt 0.8569 0.8003 0.0000
vt 0.8723 0.8003 0.0000
vt 0.9841 0.8003 0.0000
vt 0.9968 0.8003 0.0000
vt 0.7446 0.8003 0.0000
vt 0.8569 0.7826 0.0000
vt 0.8723 0.7826 0.0000
vt 0.9841 0.7826 0.0000
vt 0.9968 0.7826 0.0000
vt 0.7446 0.7826 0.0000
vt 0.8569 0.7655 0.0000
vt 0.8723 0.7655 0.0000
vt 0.9841 0.7655 0.0000
vt 0.9968 0.7655 0.0000
vt 0.7446 0.7655 0.0000
vt 0.8569 0.7493 0.0000
vt 0.8723 0.7493 0.0000
vt 0.9841 0.7493 0.0000
vt 0.9968 0.7493 0.0000
vt 0.7446 0.7493 0.0000
vt 0.8569 0.7341 0.0000
vt 0.8723 0.7341 0.0000
vt 0.9841 0.7341 0.0000
vt 0.9968 0.7341 0.0000
vt 0.7446 0.7341 0.0000
vt 0.8569 0.7201 0.0000
vt 0.8723 0.7201 0.0000
vt 0.9841 0.7201 0.0000
vt 0.9968 0.7201 0.0000
vt 0.7446 0.7201 0.0000
vt 0.8569 0.7073 0.0000
vt 0.8723 0.7073 0.0000
vt 0.9841 0.7073 0.0000
vt 0.9968 0.7073 0.0000
vt 0.7446 0.7073 0.0000
vt 0.8569 0.6945 0.0000
vt 0.8723 0.6945 0.0000
vt 0.9841 0.6945 0.0000
vt 0.9968 0.6945 0.0000
vt 0.7446 0.6945 0.0000
vt 0.8567 0.6821 0.0000
vt 0.8723 0.6821 0.0000
vt 0.9841 0.6821 0.0000
vt 0.9968 0.6821 0.0000
vt 0.7446 0.6821 0.0000
vt 0.8567 0.6687 0.0000
vt 0.8723 0.6687 0.0000
vt 0.9841 0.6687 0.0000
vt 0.9968 0.6687 0.0000
vt 0.7446 0.6687 0.0000
vt 0.8569 0.6551 0.0000
vt 0.8723 0.6551 0.0000
vt 0.9841 0.6551 0.0000
vt 0.9968 0.6551 0.0000
vt 0.7446 0.6551 0.0000
vt 0.8569 0.6408 0.0000
vt 0.8723 0.6408 0.0000
vt 0.9841 0.6408 0.0000
vt 0.9968 0.6408 0.0000
vt 0.7446 0.6408 0.0000
vt 0.8569 0.6264 0.0000
vt 0.8723 0.6264 0.0000
vt 0.9841 0.6264 0.0000
vt 0.9968 0.6264 0.0000
vt 0.7446 0.6264 0.0000
vt 0.8569 0.6124 0.0000
vt 0.8723 0.6124 0.0000
vt 0.9841 0.6124 0.0000
vt 0.9968 0.6124 0.0000
vt 0.7446 0.6124 0.0000
vt 0.8569 0.5993 0.0000
vt 0.8723 0.5993 0.0000
vt 0.9841 0.5993 0.0000
vt 0.9968 0.5993 0.0000
vt 0.7446 0.5993 0.0000
vt 0.8569 0.5873 0.0000
vt 0.8723 0.5873 0.0000
vt 0.9841 0.5873 0.0000
vt 0.9968 0.5873 0.0000
vt 0.7446 0.5873 0.0000
vt 0.8569 0.5754 0.0000
vt 0.8723 0.5754 0.0000
vt 0.9841 0.5754 0.0000
vt 0.9968 0.5754 0.0000
vt 0.7446 0.5754 0.0000
vt 0.8569 0.5665 0.0000
vt 0.8723 0.5665 0.0000
vt 0.9841 0.5665 0.0000
vt 0.9968 0.5665 0.0000
vt 0.7446 0.5665 0.0000
vt 0.8569 0.5581 0.0000
vt 0.8723 0.5581 0.0000
vt 0.9841 0.5581 0.0000
vt 0.9968 0.5581 0.0000
vt 0.7446 0.5581 0.0000
vt 0.8569 0.5487 0.0000
vt 0.8723 0.5487 0.0000
vt 0.9841 0.5487 0.0000
vt 0.9968 0.5487 0.0000
vt 0.7446 0.5487 0.0000
vt 0.8569 0.5378 0.0000
vt 0.8723 0.5378 0.0000
vt 0.9841 0.5378 0.0000
vt 0.9968 0.5378 0.0000
vt 0.7446 0.5378 0.0000
vt 0.8569 0.5265 0.0000
vt 0.8723 0.5265 0.0000
vt 0.9841 0.5265 0.0000
vt 0.9968 0.5265 0.0000
vt 0.7446 0.5265 0.0000
vt 0.8569 0.5138 0.0000
vt 0.8723 0.5138 0.0000
vt 0.9841 0.5138 0.0000
vt 0.9968 0.5138 0.0000
vt 0.7446 0.5138 0.0000
vt 0.8569 0.5003 0.0000
vt 0.8723 0.5003 0.0000
vt 0.9841 0.5003 0.0000
vt 0.9968 0.5003 0.0000
vt 0.7446 0.5003 0.0000
vt 0.8569 0.4857 0.0000
vt 0.8723 0.4857 0.0000
vt 0.9841 0.4857 0.0000
vt 0.9968 0.4857 0.0000
vt 0.7446 0.4857 0.0000
vt 0.8569 0.4727 0.0000
vt 0.8723 0.4727 0.0000
vt 0.9841 0.4727 0.0000
vt 0.9968 0.4727 0.0000
vt 0.7446 0.4727 0.0000
vt 0.8569 0.4602 0.0000
vt 0.8723 0.4602 0.0000
vt 0.9841 0.4602 0.0000
vt 0.9968 0.4602 0.0000
vt 0.7446 0.4602 0.0000
vt 0.8569 0.4428 0.0000
vt 0.8723 0.4428 0.0000
vt 0.9841 0.4428 0.0000
vt 0.9968 0.4428 0.0000
vt 0.7446 0.4428 0.0000
vt 0.4570 0.0028 0.0000
vt 0.5790 0.0028 0.0000
vt 0.5790 0.0314 0.0000
vt 0.4570 0.0314 0.0000
vt 0.9936 0.1962 0.0000
vt 0.8690 0.1962 0.0000
vt 0.8690 0.0843 0.0000
vt 0.9936 0.0843 0.0000
vt 0.7441 0.1962 0.0000
vt 0.7010 0.1962 0.0000
vt 0.7010 0.0843 0.0000
vt 0.7441 0.0843 0.0000
vt 0.5790 0.1962 0.0000
vt 0.5790 0.0843 0.0000
vt 0.4570 0.1962 0.0000
vt 0.4144 0.1962 0.0000
vt 0.4144 0.0843 0.0000
vt 0.4570 0.0843 0.0000
vt 0.8690 0.0752 0.0000
vt 0.9936 0.0752 0.0000
vt 0.7010 0.0752 0.0000
vt 0.7441 0.0752 0.0000
vt 0.5790 0.0752 0.0000
vt 0.4144 0.0752 0.0000
vt 0.4570 0.0752 0.0000
vt 0.8690 0.0314 0.0000
vt 0.9936 0.0314 0.0000
vt 0.7010 0.0314 0.0000
vt 0.7441 0.0314 0.0000
vt 0.4144 0.0314 0.0000
vt 0.7010 0.0028 0.0000
vt 0.5035 0.4889 0.0000
vt 0.6759 0.4888 0.0000
vt 0.6759 0.5426 0.0000
vt 0.5035 0.5426 0.0000
vt 0.5035 0.4491 0.0000
vt 0.6759 0.4491 0.0000
vt 0.7157 0.4888 0.0000
vt 0.7157 0.5426 0.0000
vt 0.6759 0.5823 0.0000
vt 0.5035 0.5824 0.0000
vt 0.4637 0.5426 0.0000
vt 0.4638 0.4888 0.0000
# 228 texture coords

o deco2_flatcable
g deco2_flatcable
f 1/1/1 2/2/2 3/3/3 4/4/4 
f 4/4/4 3/3/3 5/5/5 6/6/6 
f 6/6/6 5/5/5 7/7/7 8/8/8 
f 8/9/8 7/10/7 2/2/2 1/1/1 
f 2/2/2 9/11/9 10/12/10 3/3/3 
f 3/3/3 10/12/10 11/13/11 5/5/5 
f 5/5/5 11/13/11 12/14/12 7/7/7 
f 7/10/7 12/15/12 9/11/9 2/2/2 
f 9/11/9 13/16/13 14/17/14 10/12/10 
f 10/12/10 14/17/14 15/18/15 11/13/11 
f 11/13/11 15/18/15 16/19/16 12/14/12 
f 12/15/12 16/20/16 13/16/13 9/11/9 
f 13/16/13 17/21/17 18/22/18 14/17/14 
f 14/17/14 18/22/18 19/23/19 15/18/15 
f 15/18/15 19/23/19 20/24/20 16/19/16 
f 16/20/16 20/25/20 17/21/17 13/16/13 
f 17/21/17 21/26/21 22/27/22 18/22/18 
f 18/22/18 22/27/22 23/28/23 19/23/19 
f 19/23/19 23/28/23 24/29/24 20/24/20 
f 20/25/20 24/30/24 21/26/21 17/21/17 
f 21/26/21 25/31/25 26/32/26 22/27/22 
f 22/27/22 26/32/26 27/33/27 23/28/23 
f 23/28/23 27/33/27 28/34/28 24/29/24 
f 24/30/24 28/35/28 25/31/25 21/26/21 
f 25/31/25 29/36/29 30/37/30 26/32/26 
f 26/32/26 30/37/30 31/38/31 27/33/27 
f 27/33/27 31/38/31 32/39/32 28/34/28 
f 28/35/28 32/40/32 29/36/29 25/31/25 
f 29/36/29 33/41/33 34/42/34 30/37/30 
f 30/37/30 34/42/34 35/43/35 31/38/31 
f 31/38/31 35/43/35 36/44/36 32/39/32 
f 32/40/32 36/45/36 33/41/33 29/36/29 
f 33/41/33 37/46/37 38/47/38 34/42/34 
f 34/42/34 38/47/38 39/48/39 35/43/35 
f 35/43/35 39/48/39 40/49/40 36/44/36 
f 36/45/36 40/50/40 37/46/37 33/41/33 
f 37/46/37 41/51/41 42/52/42 38/47/38 
f 38/47/38 42/52/42 43/53/43 39/48/39 
f 39/48/39 43/53/43 44/54/44 40/49/40 
f 40/50/40 44/55/44 41/51/41 37/46/37 
f 41/51/41 45/56/45 46/57/46 42/52/42 
f 42/52/42 46/57/46 47/58/47 43/53/43 
f 43/53/43 47/58/47 48/59/48 44/54/44 
f 44/55/44 48/60/48 45/56/45 41/51/41 
f 45/56/45 49/61/49 50/62/50 46/57/46 
f 46/57/46 50/62/50 51/63/51 47/58/47 
f 47/58/47 51/63/51 52/64/52 48/59/48 
f 48/60/48 52/65/52 49/61/49 45/56/45 
f 49/61/49 53/66/53 54/67/54 50/62/50 
f 50/62/50 54/67/54 55/68/55 51/63/51 
f 51/63/51 55/68/55 56/69/56 52/64/52 
f 52/65/52 56/70/56 53/66/53 49/61/49 
f 53/66/53 57/71/57 58/72/58 54/67/54 
f 54/67/54 58/72/58 59/73/59 55/68/55 
f 55/68/55 59/73/59 60/74/60 56/69/56 
f 56/70/56 60/75/60 57/71/57 53/66/53 
f 57/71/57 61/76/61 62/77/62 58/72/58 
f 58/72/58 62/77/62 63/78/63 59/73/59 
f 59/73/59 63/78/63 64/79/64 60/74/60 
f 60/75/60 64/80/64 61/76/61 57/71/57 
f 61/76/61 65/81/65 66/82/66 62/77/62 
f 62/77/62 66/82/66 67/83/67 63/78/63 
f 63/78/63 67/83/67 68/84/68 64/79/64 
f 64/80/64 68/85/68 65/81/65 61/76/61 
f 65/81/65 69/86/69 70/87/70 66/82/66 
f 66/82/66 70/87/70 71/88/71 67/83/67 
f 67/83/67 71/88/71 72/89/72 68/84/68 
f 68/85/68 72/90/72 69/86/69 65/81/65 
f 69/86/69 73/91/73 74/92/74 70/87/70 
f 70/87/70 74/92/74 75/93/75 71/88/71 
f 71/88/71 75/93/75 76/94/76 72/89/72 
f 72/90/72 76/95/76 73/91/73 69/86/69 
f 73/91/73 77/96/77 78/97/78 74/92/74 
f 74/92/74 78/97/78 79/98/79 75/93/75 
f 75/93/75 79/98/79 80/99/80 76/94/76 
f 76/95/76 80/100/80 77/96/77 73/91/73 
f 77/96/77 81/101/81 82/102/82 78/97/78 
f 78/97/78 82/102/82 83/103/83 79/98/79 
f 79/98/79 83/103/83 84/104/84 80/99/80 
f 80/100/80 84/105/84 81/101/81 77/96/77 
f 81/101/81 85/106/85 86/107/86 82/102/82 
f 82/102/82 86/107/86 87/108/87 83/103/83 
f 83/103/83 87/108/87 88/109/88 84/104/84 
f 84/105/84 88/110/88 85/106/85 81/101/81 
f 85/106/85 89/111/89 90/112/90 86/107/86 
f 86/107/86 90/112/90 91/113/91 87/108/87 
f 87/108/87 91/113/91 92/114/92 88/109/88 
f 88/110/88 92/115/92 89/111/89 85/106/85 
f 89/111/89 93/116/93 94/117/94 90/112/90 
f 90/112/90 94/117/94 95/118/95 91/113/91 
f 91/113/91 95/118/95 96/119/96 92/114/92 
f 92/115/92 96/120/96 93/116/93 89/111/89 
f 93/116/93 97/121/97 98/122/98 94/117/94 
f 94/117/94 98/122/98 99/123/99 95/118/95 
f 95/118/95 99/123/99 100/124/100 96/119/96 
f 96/120/96 100/125/100 97/121/97 93/116/93 
f 97/121/97 101/126/101 102/127/102 98/122/98 
f 98/122/98 102/127/102 103/128/103 99/123/99 
f 99/123/99 103/128/103 104/129/104 100/124/100 
f 100/125/100 104/130/104 101/126/101 97/121/97 
f 101/126/101 105/131/105 106/132/106 102/127/102 
f 102/127/102 106/132/106 107/133/107 103/128/103 
f 103/128/103 107/133/107 108/134/108 104/129/104 
f 104/130/104 108/135/108 105/131/105 101/126/101 
f 105/131/105 109/136/109 110/137/110 106/132/106 
f 106/132/106 110/137/110 111/138/111 107/133/107 
f 107/133/107 111/138/111 112/139/112 108/134/108 
f 108/135/108 112/140/112 109/136/109 105/131/105 
f 109/136/109 113/141/113 114/142/114 110/137/110 
f 110/137/110 114/142/114 115/143/115 111/138/111 
f 111/138/111 115/143/115 116/144/116 112/139/112 
f 112/140/112 116/145/116 113/141/113 109/136/109 
f 113/141/113 117/146/117 118/147/118 114/142/114 
f 114/142/114 118/147/118 119/148/119 115/143/115 
f 115/143/115 119/148/119 120/149/120 116/144/116 
f 116/145/116 120/150/120 117/146/117 113/141/113 
f 117/146/117 121/151/121 122/152/122 118/147/118 
f 118/147/118 122/152/122 123/153/123 119/148/119 
f 119/148/119 123/153/123 124/154/124 120/149/120 
f 120/150/120 124/155/124 121/151/121 117/146/117 
f 121/151/121 125/156/125 126/157/126 122/152/122 
f 122/152/122 126/157/126 127/158/127 123/153/123 
f 123/153/123 127/158/127 128/159/128 124/154/124 
f 124/155/124 128/160/128 125/156/125 121/151/121 
f 125/156/125 129/161/129 130/162/130 126/157/126 
f 126/157/126 130/162/130 131/163/131 127/158/127 
f 127/158/127 131/163/131 132/164/132 128/159/128 
f 128/160/128 132/165/132 129/161/129 125/156/125 
f 129/161/129 133/166/133 134/167/134 130/162/130 
f 130/162/130 134/167/134 135/168/135 131/163/131 
f 131/163/131 135/168/135 136/169/136 132/164/132 
f 132/165/132 136/170/136 133/166/133 129/161/129 
f 133/166/133 137/171/137 138/172/138 134/167/134 
f 134/167/134 138/172/138 139/173/139 135/168/135 
f 135/168/135 139/173/139 140/174/140 136/169/136 
f 136/170/136 140/175/140 137/171/137 133/166/133 
f 137/171/137 141/176/141 142/177/142 138/172/138 
f 138/172/138 142/177/142 143/178/143 139/173/139 
f 139/173/139 143/178/143 144/179/144 140/174/140 
f 140/175/140 144/180/144 141/176/141 137/171/137 
f 141/176/141 145/181/145 146/182/146 142/177/142 
f 142/177/142 146/182/146 147/183/147 143/178/143 
f 143/178/143 147/183/147 148/184/148 144/179/144 
f 144/180/144 148/185/148 145/181/145 141/176/141 
f 149/186/149 150/187/150 151/188/151 152/189/152 
f 153/190/153 154/191/154 155/192/155 156/193/156 
f 157/194/157 158/195/158 159/196/159 160/197/160 
f 158/195/158 161/198/161 162/199/162 159/196/159 
f 163/200/163 153/201/153 156/202/156 164/203/164 
f 156/193/156 155/192/155 165/204/165 166/205/166 
f 160/197/160 159/196/159 167/206/167 168/207/168 
f 159/196/159 162/199/162 169/208/169 167/206/167 
f 164/203/164 156/202/156 166/209/166 170/210/170 
f 166/205/166 165/204/165 150/211/150 149/212/149 
f 168/207/168 167/206/167 171/213/171 172/214/172 
f 167/206/167 169/208/169 151/188/151 171/213/171 
f 170/210/170 166/209/166 149/215/149 152/189/152 
f 150/187/150 172/216/172 171/213/171 151/188/151 
f 154/191/154 157/194/157 160/197/160 155/192/155 
f 161/198/161 163/200/163 164/203/164 162/199/162 
f 155/192/155 160/197/160 168/207/168 165/204/165 
f 162/199/162 164/203/164 170/210/170 169/208/169 
f 165/204/165 168/207/168 172/214/172 150/211/150 
f 169/208/169 170/210/170 152/189/152 151/188/151 
f 173/217/173 174/218/174 175/219/175 176/220/176 
f 177/221/153 178/222/157 174/218/174 173/217/173 
f 178/223/157 179/224/158 175/219/175 174/218/174 
f 179/225/158 180/226/163 176/220/176 175/219/175 
f 180/227/163 177/228/153 173/217/173 176/220/176 
# 169 polygons

