# 3ds Max Wavefront OBJ Exporter v0.97b - (c)2007 guruware
# File Created: 07.12.2019 17:06:46

#
# object ground_platform1
#

v  1.3026 2.0000 4.0000
v  1.0000 2.0000 4.0000
v  1.0000 2.0000 5.5000
v  1.3026 2.0000 5.5000
v  5.8600 2.0000 4.0000
v  3.5816 2.0000 4.0000
v  3.5816 2.0000 5.5000
v  5.8600 2.0000 5.5000
v  1.0000 1.3333 7.0000
v  1.0000 1.0000 7.0000
v  1.3026 1.0000 7.0000
v  1.3026 1.3333 7.0000
v  1.3026 2.0000 -0.0000
v  1.0000 2.0000 -0.0000
v  1.0000 2.0000 1.0000
v  1.3026 2.0000 1.0000
v  5.8600 2.0000 -0.0000
v  3.5813 2.0000 -0.0000
v  3.5813 2.0000 1.0000
v  5.8600 2.0000 1.0000
v  1.3026 2.0000 2.5000
v  1.0000 2.0000 2.5000
v  5.8600 2.0000 2.5000
v  3.5816 2.0000 2.5000
v  1.3026 2.0000 6.6321
v  1.0000 2.0000 6.6321
v  1.0000 2.0000 7.0000
v  1.3026 2.0000 7.0000
v  3.5816 2.0000 7.0000
v  5.8600 2.0000 7.0000
v  5.8600 2.0000 6.6321
v  3.5816 2.0000 6.6321
v  0.0000 2.0000 4.0000
v  0.0000 2.0000 5.5000
v  0.0000 1.3333 7.0000
v  0.0000 1.0000 7.0000
v  0.0000 2.0000 -0.0000
v  0.0000 2.0000 1.0000
v  0.0000 2.0000 2.5000
v  0.0000 2.0000 6.6321
v  0.0000 2.0000 7.0000
v  1.0000 2.0000 1.3750
v  1.3026 2.0000 1.3750
v  3.5816 2.0000 1.3750
v  5.8600 2.0000 1.3750
v  10.4184 2.0000 1.0000
v  10.4184 2.0000 -0.0000
v  8.1387 2.0000 -0.0000
v  8.1387 2.0000 1.0000
v  0.0000 2.0000 1.3750
v  10.4184 2.0000 1.3750
v  8.8917 2.0000 1.3750
v  3.5816 1.3333 7.0000
v  5.8600 1.3333 7.0000
v  8.8917 1.3333 1.3750
v  10.4184 1.3333 1.3750
v  8.5126 1.3333 2.5000
v  8.5126 1.3333 1.7540
v  8.5126 2.0000 1.7540
v  8.5126 2.0000 2.5000
v  8.5126 1.3333 4.0000
v  8.5126 2.0000 4.0000
v  8.5126 1.3333 5.5000
v  8.5126 2.0000 5.5000
v  8.5126 1.3333 6.6321
v  8.5126 2.0000 6.6321
v  8.7125 1.2139 1.1958
v  10.4184 1.2139 1.1958
v  8.3335 1.2139 2.5000
v  8.3335 1.2139 1.5748
v  8.3335 1.2139 4.0000
v  8.3335 1.2139 5.3805
v  8.5126 1.0000 5.5000
v  8.3335 1.0000 5.3805
v  8.1387 1.3333 7.0000
v  8.1387 2.0000 7.0000
v  8.1387 2.0000 1.3750
v  8.3335 1.0000 1.5748
v  8.7125 1.0000 1.1958
v  8.1387 2.0000 6.6321
v  8.1387 2.0000 5.5000
v  8.1387 2.0000 4.0000
v  8.1387 2.0000 2.5000
v  3.5816 1.0000 7.0000
v  13.0000 2.0000 -0.0000
v  12.6974 2.0000 -0.0000
v  12.6974 2.0000 1.0000
v  13.0000 2.0000 1.0000
v  12.6974 2.0000 1.3750
v  10.4184 1.0000 1.1958
v  12.6974 1.0000 1.1958
v  12.6974 1.2139 1.1958
v  12.6974 1.3333 1.3750
v  13.0000 2.0000 1.3750
v  14.0000 2.0000 1.3750
v  14.0000 2.0000 1.0000
v  14.0000 2.0000 -0.0000
v  14.0000 1.3333 1.3750
v  13.0000 1.3333 1.3750
v  5.8600 1.0000 7.0000
v  8.3335 1.0000 2.5000
v  8.3335 1.0000 4.0000
v  8.5126 1.0000 6.6321
v  8.1387 1.0000 7.0000
v  12.6974 1.0000 1.3750
v  14.0000 1.0000 1.3750
v  13.0000 1.0000 1.3750
v  1.3026 -0.0000 4.0000
v  1.3026 -0.0000 5.5000
v  1.0000 -0.0000 5.5000
v  1.0000 -0.0000 4.0000
v  5.8600 -0.0000 4.0000
v  5.8600 -0.0000 5.5000
v  3.5816 -0.0000 5.5000
v  3.5816 -0.0000 4.0000
v  1.0000 0.6667 7.0000
v  1.3026 0.6667 7.0000
v  1.3026 -0.0000 -0.0000
v  1.3026 -0.0000 1.0000
v  1.0000 -0.0000 1.0000
v  1.0000 -0.0000 -0.0000
v  5.8600 -0.0000 -0.0000
v  5.8600 -0.0000 1.0000
v  3.5813 -0.0000 1.0000
v  3.5813 -0.0000 -0.0000
v  1.3026 -0.0000 2.5000
v  1.0000 -0.0000 2.5000
v  5.8600 -0.0000 2.5000
v  3.5816 -0.0000 2.5000
v  1.3026 -0.0000 6.6321
v  1.3026 -0.0000 7.0000
v  1.0000 -0.0000 7.0000
v  1.0000 -0.0000 6.6321
v  3.5816 -0.0000 7.0000
v  3.5816 -0.0000 6.6321
v  5.8600 -0.0000 6.6321
v  5.8600 -0.0000 7.0000
v  0.0000 -0.0000 5.5000
v  0.0000 -0.0000 4.0000
v  0.0000 0.6667 7.0000
v  0.0000 -0.0000 1.0000
v  0.0000 -0.0000 -0.0000
v  0.0000 -0.0000 2.5000
v  0.0000 -0.0000 7.0000
v  0.0000 -0.0000 6.6321
v  1.3026 -0.0000 1.3750
v  1.0000 -0.0000 1.3750
v  3.5816 -0.0000 1.3750
v  5.8600 -0.0000 1.3750
v  10.4184 -0.0000 1.0000
v  8.1387 -0.0000 1.0000
v  8.1387 -0.0000 -0.0000
v  10.4184 -0.0000 -0.0000
v  0.0000 -0.0000 1.3750
v  10.4184 -0.0000 1.3750
v  8.8917 -0.0000 1.3750
v  5.8600 0.6667 7.0000
v  3.5816 0.6667 7.0000
v  8.8917 0.6667 1.3750
v  10.4184 0.6667 1.3750
v  8.5126 0.6667 2.5000
v  8.5126 -0.0000 2.5000
v  8.5126 -0.0000 1.7540
v  8.5126 0.6667 1.7540
v  8.5126 0.6667 4.0000
v  8.5126 -0.0000 4.0000
v  8.5126 0.6667 5.5000
v  8.5126 -0.0000 5.5000
v  8.5126 0.6667 6.6321
v  8.5126 -0.0000 6.6321
v  10.4184 0.7861 1.1958
v  8.7125 0.7861 1.1958
v  8.3335 0.7861 1.5748
v  8.3335 0.7861 2.5000
v  8.3335 0.7861 4.0000
v  8.3335 0.7861 5.3805
v  8.1387 0.6667 7.0000
v  8.1387 -0.0000 7.0000
v  8.1387 -0.0000 1.3750
v  8.1387 -0.0000 6.6321
v  8.1387 -0.0000 5.5000
v  8.1387 -0.0000 4.0000
v  8.1387 -0.0000 2.5000
v  13.0000 -0.0000 -0.0000
v  13.0000 -0.0000 1.0000
v  12.6974 -0.0000 1.0000
v  12.6974 -0.0000 -0.0000
v  12.6974 -0.0000 1.3750
v  12.6974 0.7861 1.1958
v  12.6974 0.6667 1.3750
v  13.0000 -0.0000 1.3750
v  14.0000 -0.0000 1.0000
v  14.0000 -0.0000 1.3750
v  14.0000 -0.0000 -0.0000
v  14.0000 0.6667 1.3750
v  13.0000 0.6667 1.3750
v  0.0000 1.3333 4.0000
v  0.0000 1.3333 5.5000
v  0.0000 1.3333 -0.0000
v  0.0000 1.3333 1.0000
v  0.0000 1.3333 2.5000
v  0.0000 1.3333 6.6321
v  0.0000 1.3333 1.3750
v  14.0000 1.3333 1.0000
v  14.0000 1.3333 -0.0000
v  0.0000 1.0000 4.0000
v  0.0000 1.0000 5.5000
v  0.0000 1.0000 -0.0000
v  0.0000 1.0000 1.0000
v  0.0000 1.0000 2.5000
v  0.0000 1.0000 6.6321
v  0.0000 1.0000 1.3750
v  14.0000 1.0000 1.0000
v  14.0000 1.0000 -0.0000
v  0.0000 0.6667 5.5000
v  0.0000 0.6667 4.0000
v  0.0000 0.6667 1.0000
v  0.0000 0.6667 -0.0000
v  0.0000 0.6667 2.5000
v  0.0000 0.6667 6.6321
v  0.0000 0.6667 1.3750
v  14.0000 0.6667 1.0000
v  14.0000 0.6667 -0.0000
# 223 vertices

vn 0.0000 1.0000 -0.0000
vn 0.0000 0.0000 1.0000
vn 0.0000 0.7071 0.7071
vn 0.2274 0.8042 0.5492
vn 0.2762 -0.5764 0.7691
vn 0.0000 -0.4720 0.8816
vn 0.8817 -0.4719 -0.0000
vn 0.7691 -0.5763 0.2762
vn 0.5491 0.8042 0.2275
vn 0.7071 0.7071 -0.0000
vn 0.9782 -0.1469 -0.1470
vn 0.9223 -0.0000 0.3864
vn 0.7166 0.6296 0.3002
vn 0.3508 -0.4762 0.8063
vn 0.8063 -0.4762 0.3508
vn 0.8459 -0.3772 -0.3771
vn 0.8818 -0.0000 -0.4717
vn 0.3789 0.0000 0.9254
vn 0.2940 0.6309 0.7180
vn 0.9239 -0.0000 0.3827
vn 0.3827 -0.0000 0.9239
vn -0.7071 0.0000 0.7071
vn -0.6147 -0.3723 0.6954
vn -0.1690 -0.2247 0.9597
vn 1.0000 -0.0000 -0.0000
vn 0.0000 -1.0000 -0.0000
vn 0.0000 -0.7071 0.7071
vn 0.2274 -0.8042 0.5491
vn 0.2761 0.5764 0.7691
vn 0.0000 0.4720 0.8816
vn 0.8817 0.4719 -0.0000
vn 0.7071 -0.7071 -0.0000
vn 0.5491 -0.8042 0.2274
vn 0.7691 0.5764 0.2762
vn 0.9782 0.1469 -0.1470
vn 0.7166 -0.6296 0.3002
vn 0.3508 0.4762 0.8063
vn 0.8063 0.4762 0.3508
vn 0.8459 0.3772 -0.3771
vn 0.2940 -0.6309 0.7180
vn -0.6147 0.3723 0.6954
vn -0.1690 0.2247 0.9597
vn -1.0000 0.0000 -0.0000
vn 1.0000 0.0000 -0.0000
# 44 vertex normals

vt 0.0392 0.7366 0.0000
vt 0.0315 0.7366 0.0000
vt 0.0315 0.6974 0.0000
vt 0.0392 0.6974 0.0000
vt 0.1571 0.7366 0.0000
vt 0.0981 0.7365 0.0000
vt 0.0981 0.6974 0.0000
vt 0.1571 0.6974 0.0000
vt 0.0315 0.6414 0.0000
vt 0.0315 0.6328 0.0000
vt 0.0392 0.6328 0.0000
vt 0.0392 0.6414 0.0000
vt 0.0862 0.3431 0.0000
vt 0.0784 0.3431 0.0000
vt 0.0784 0.3177 0.0000
vt 0.0862 0.3177 0.0000
vt 0.2025 0.3431 0.0000
vt 0.1443 0.3431 0.0000
vt 0.1443 0.3177 0.0000
vt 0.2025 0.3177 0.0000
vt 0.0392 0.7755 0.0000
vt 0.0315 0.7755 0.0000
vt 0.1571 0.7755 0.0000
vt 0.0981 0.7755 0.0000
vt 0.0392 0.6681 0.0000
vt 0.0315 0.6681 0.0000
vt 0.0315 0.6587 0.0000
vt 0.0392 0.6587 0.0000
vt 0.0981 0.6586 0.0000
vt 0.1571 0.6586 0.0000
vt 0.1571 0.6681 0.0000
vt 0.0981 0.6681 0.0000
vt 0.0056 0.7366 0.0000
vt 0.0056 0.6974 0.0000
vt 0.0056 0.6414 0.0000
vt 0.0056 0.6328 0.0000
vt 0.0529 0.3431 0.0000
vt 0.0529 0.3178 0.0000
vt 0.0056 0.7755 0.0000
vt 0.0056 0.6681 0.0000
vt 0.0056 0.6587 0.0000
vt 0.0315 0.8131 0.0000
vt 0.0313 0.8017 0.0000
vt 0.0392 0.8017 0.0000
vt 0.0392 0.8131 0.0000
vt 0.0981 0.8017 0.0000
vt 0.1571 0.8017 0.0000
vt 0.1571 0.8131 0.0000
vt 0.0981 0.8131 0.0000
vt 0.3189 0.3179 0.0000
vt 0.3189 0.3431 0.0000
vt 0.2607 0.3431 0.0000
vt 0.2607 0.3177 0.0000
vt 0.0056 0.8131 0.0000
vt 0.0056 0.8017 0.0000
vt 0.3188 0.3086 0.0000
vt 0.2797 0.3087 0.0000
vt 0.0981 0.6414 0.0000
vt 0.1571 0.6414 0.0000
vt 0.2797 0.2921 0.0000
vt 0.3184 0.2919 0.0000
vt 0.2454 0.7755 0.0000
vt 0.2453 0.8017 0.0000
vt 0.2283 0.8017 0.0000
vt 0.2283 0.7755 0.0000
vt 0.2456 0.7366 0.0000
vt 0.2283 0.7366 0.0000
vt 0.2466 0.6974 0.0000
vt 0.2283 0.6974 0.0000
vt 0.2465 0.6681 0.0000
vt 0.2283 0.6681 0.0000
vt 0.2745 0.2869 0.0000
vt 0.3179 0.2867 0.0000
vt 0.2511 0.7755 0.0000
vt 0.2519 0.8017 0.0000
vt 0.2512 0.7366 0.0000
vt 0.2514 0.7015 0.0000
vt 0.2567 0.6974 0.0000
vt 0.2567 0.7016 0.0000
vt 0.2161 0.6414 0.0000
vt 0.2299 0.6414 0.0000
vt 0.2299 0.6587 0.0000
vt 0.2161 0.6587 0.0000
vt 0.2283 0.8131 0.0000
vt 0.2161 0.8131 0.0000
vt 0.2161 0.8017 0.0000
vt 0.2521 0.8131 0.0000
vt 0.2567 0.8017 0.0000
vt 0.2567 0.8131 0.0000
vt 0.2456 0.8131 0.0000
vt 0.2161 0.6681 0.0000
vt 0.2161 0.6974 0.0000
vt 0.2161 0.7366 0.0000
vt 0.2161 0.7755 0.0000
vt 0.0981 0.6328 0.0000
vt 0.3849 0.3431 0.0000
vt 0.3771 0.3431 0.0000
vt 0.3770 0.3175 0.0000
vt 0.3849 0.3175 0.0000
vt 0.3770 0.3078 0.0000
vt 0.3176 0.2817 0.0000
vt 0.3750 0.2817 0.0000
vt 0.3751 0.2863 0.0000
vt 0.3771 0.2907 0.0000
vt 0.3849 0.3078 0.0000
vt 0.4105 0.3078 0.0000
vt 0.4105 0.3175 0.0000
vt 0.4105 0.3431 0.0000
vt 0.4105 0.2907 0.0000
vt 0.3851 0.2907 0.0000
vt 0.1571 0.6328 0.0000
vt 0.2745 0.2817 0.0000
vt 0.2567 0.7755 0.0000
vt 0.2567 0.7366 0.0000
vt 0.2567 0.6681 0.0000
vt 0.2299 0.6328 0.0000
vt 0.2161 0.6328 0.0000
vt 0.3786 0.2817 0.0000
vt 0.4105 0.2817 0.0000
vt 0.3854 0.2817 0.0000
vt 1.0392 0.7366 0.0000
vt 1.0392 0.6974 0.0000
vt 1.0315 0.6974 0.0000
vt 1.0315 0.7366 0.0000
vt 1.1571 0.7366 0.0000
vt 1.1571 0.6974 0.0000
vt 1.0981 0.6974 0.0000
vt 1.0981 0.7365 0.0000
vt 1.0315 0.6414 0.0000
vt 1.0392 0.6414 0.0000
vt 1.0392 0.6328 0.0000
vt 1.0315 0.6328 0.0000
vt 1.0862 0.3431 0.0000
vt 1.0862 0.3177 0.0000
vt 1.0784 0.3177 0.0000
vt 1.0784 0.3431 0.0000
vt 1.2025 0.3431 0.0000
vt 1.2025 0.3177 0.0000
vt 1.1443 0.3177 0.0000
vt 1.1443 0.3431 0.0000
vt 1.0392 0.7755 0.0000
vt 1.0315 0.7755 0.0000
vt 1.1571 0.7755 0.0000
vt 1.0981 0.7755 0.0000
vt 1.0392 0.6681 0.0000
vt 1.0392 0.6587 0.0000
vt 1.0315 0.6587 0.0000
vt 1.0315 0.6681 0.0000
vt 1.0981 0.6586 0.0000
vt 1.0981 0.6681 0.0000
vt 1.1571 0.6681 0.0000
vt 1.1571 0.6586 0.0000
vt 1.0056 0.6974 0.0000
vt 1.0056 0.7366 0.0000
vt 1.0056 0.6414 0.0000
vt 1.0056 0.6328 0.0000
vt 1.0529 0.3178 0.0000
vt 1.0529 0.3431 0.0000
vt 1.0056 0.7755 0.0000
vt 1.0056 0.6587 0.0000
vt 1.0056 0.6681 0.0000
vt 1.0315 0.8131 0.0000
vt 1.0392 0.8131 0.0000
vt 1.0392 0.8017 0.0000
vt 1.0313 0.8017 0.0000
vt 1.0981 0.8017 0.0000
vt 1.0981 0.8131 0.0000
vt 1.1571 0.8131 0.0000
vt 1.1571 0.8017 0.0000
vt 1.3189 0.3179 0.0000
vt 1.2607 0.3177 0.0000
vt 1.2607 0.3431 0.0000
vt 1.3189 0.3431 0.0000
vt 1.0056 0.8131 0.0000
vt 1.0056 0.8017 0.0000
vt 1.3188 0.3086 0.0000
vt 1.2797 0.3087 0.0000
vt 1.1571 0.6414 0.0000
vt 1.0981 0.6414 0.0000
vt 1.2797 0.2921 0.0000
vt 1.3184 0.2919 0.0000
vt 1.2454 0.7755 0.0000
vt 1.2283 0.7755 0.0000
vt 1.2283 0.8017 0.0000
vt 1.2453 0.8017 0.0000
vt 1.2456 0.7366 0.0000
vt 1.2283 0.7366 0.0000
vt 1.2466 0.6974 0.0000
vt 1.2283 0.6974 0.0000
vt 1.2465 0.6681 0.0000
vt 1.2283 0.6681 0.0000
vt 1.3179 0.2867 0.0000
vt 1.2745 0.2869 0.0000
vt 1.2520 0.8017 0.0000
vt 1.2511 0.7755 0.0000
vt 1.2512 0.7366 0.0000
vt 1.2514 0.7015 0.0000
vt 1.2567 0.7016 0.0000
vt 1.2567 0.6974 0.0000
vt 1.2161 0.6414 0.0000
vt 1.2161 0.6587 0.0000
vt 1.2299 0.6587 0.0000
vt 1.2299 0.6414 0.0000
vt 1.2161 0.8017 0.0000
vt 1.2161 0.8131 0.0000
vt 1.2283 0.8131 0.0000
vt 1.2521 0.8131 0.0000
vt 1.2567 0.8131 0.0000
vt 1.2567 0.8017 0.0000
vt 1.2456 0.8131 0.0000
vt 1.2161 0.6681 0.0000
vt 1.2161 0.6974 0.0000
vt 1.2161 0.7366 0.0000
vt 1.2161 0.7755 0.0000
vt 1.0981 0.6328 0.0000
vt 1.3849 0.3431 0.0000
vt 1.3849 0.3175 0.0000
vt 1.3770 0.3175 0.0000
vt 1.3771 0.3431 0.0000
vt 1.3770 0.3078 0.0000
vt 1.3751 0.2863 0.0000
vt 1.3750 0.2817 0.0000
vt 1.3176 0.2817 0.0000
vt 1.3771 0.2907 0.0000
vt 1.3849 0.3078 0.0000
vt 1.4105 0.3175 0.0000
vt 1.4105 0.3078 0.0000
vt 1.4105 0.3431 0.0000
vt 1.4105 0.2907 0.0000
vt 1.3851 0.2907 0.0000
vt 1.1571 0.6328 0.0000
vt 1.2745 0.2817 0.0000
vt 1.2567 0.7755 0.0000
vt 1.2567 0.7366 0.0000
vt 1.2567 0.6681 0.0000
vt 1.2299 0.6328 0.0000
vt 1.2161 0.6328 0.0000
vt 1.3786 0.2817 0.0000
vt 1.4105 0.2817 0.0000
vt 1.3854 0.2817 0.0000
# 240 texture coords

o ground_platform1
g ground_platform1
f 1/1/1 2/2/1 3/3/1 4/4/1 
f 5/5/1 6/6/1 7/7/1 8/8/1 
f 9/9/2 10/10/2 11/11/2 12/12/2 
f 13/13/1 14/14/1 15/15/1 16/16/1 
f 17/17/1 18/18/1 19/19/1 20/20/1 
f 21/21/1 22/22/1 2/2/1 1/1/1 
f 23/23/1 24/24/1 6/6/1 5/5/1 
f 25/25/1 26/26/1 27/27/3 28/28/3 
f 29/29/3 30/30/3 31/31/1 32/32/1 
f 4/4/1 3/3/1 26/26/1 25/25/1 
f 8/8/1 7/7/1 32/32/1 31/31/1 
f 2/2/1 33/33/1 34/34/1 3/3/1 
f 35/35/2 36/36/2 10/10/2 9/9/2 
f 14/14/1 37/37/1 38/38/1 15/15/1 
f 22/22/1 39/39/1 33/33/1 2/2/1 
f 26/26/1 40/40/1 41/41/3 27/27/3 
f 3/3/1 34/34/1 40/40/1 26/26/1 
f 15/42/1 42/43/1 43/44/1 16/45/1 
f 44/46/1 45/47/1 20/48/1 19/49/1 
f 46/50/1 47/51/1 48/52/1 49/53/1 
f 38/54/1 50/55/1 42/43/1 15/42/1 
f 51/56/3 46/50/1 49/53/1 52/57/4 
f 42/43/1 22/22/1 21/21/1 43/44/1 
f 24/24/1 23/23/1 45/47/1 44/46/1 
f 50/55/1 39/39/1 22/22/1 42/43/1 
f 12/12/2 28/28/3 27/27/3 9/9/2 
f 30/30/3 29/29/3 53/58/2 54/59/2 
f 9/9/2 27/27/3 41/41/3 35/35/2 
f 55/60/5 56/61/6 51/56/3 52/57/4 
f 57/62/7 58/63/8 59/64/9 60/65/10 
f 61/66/7 57/62/7 60/65/10 62/67/10 
f 63/68/11 61/66/7 62/67/10 64/69/10 
f 65/70/12 63/68/11 64/69/10 66/71/13 
f 56/61/6 55/60/5 67/72/14 68/73/6 
f 58/63/8 57/62/7 69/74/7 70/75/15 
f 57/62/7 61/66/7 71/76/7 69/74/7 
f 61/66/7 63/68/11 72/77/16 71/76/7 
f 63/68/11 73/78/17 74/79/17 72/77/16 
f 75/80/18 65/81/12 66/82/13 76/83/19 
f 59/64/9 52/84/4 49/85/1 77/86/1 
f 67/87/14 70/75/15 78/88/20 79/89/21 
f 52/84/4 59/64/9 58/63/8 55/90/5 
f 55/90/5 58/63/8 70/75/15 67/87/14 
f 76/83/19 66/71/13 80/91/1 
f 80/91/1 66/71/13 64/69/10 81/92/1 
f 81/92/1 64/69/10 62/67/10 82/93/1 
f 82/93/1 62/67/10 60/65/10 83/94/1 
f 83/94/1 60/65/10 59/64/9 77/86/1 
f 6/6/1 1/1/1 4/4/1 7/7/1 
f 8/8/1 81/92/1 82/93/1 5/5/1 
f 53/58/2 12/12/2 11/11/2 84/95/2 
f 18/18/1 13/13/1 16/16/1 19/19/1 
f 20/20/1 49/53/1 48/52/1 17/17/1 
f 24/24/1 21/21/1 1/1/1 6/6/1 
f 5/5/1 82/93/1 83/94/1 23/23/1 
f 30/30/3 76/83/19 80/91/1 31/31/1 
f 32/32/1 25/25/1 28/28/3 29/29/3 
f 7/7/1 4/4/1 25/25/1 32/32/1 
f 31/31/1 80/91/1 81/92/1 8/8/1 
f 45/47/1 77/86/1 49/85/1 20/48/1 
f 19/49/1 16/45/1 43/44/1 44/46/1 
f 23/23/1 83/94/1 77/86/1 45/47/1 
f 44/46/1 43/44/1 21/21/1 24/24/1 
f 29/29/3 28/28/3 12/12/2 53/58/2 
f 54/59/2 75/80/18 76/83/19 30/30/3 
f 85/96/1 86/97/1 87/98/1 88/99/1 
f 87/98/1 86/97/1 47/51/1 46/50/1 
f 46/50/1 51/56/3 89/100/3 87/98/1 
f 68/73/6 90/101/2 91/102/22 92/103/23 
f 51/56/3 56/61/6 93/104/24 89/100/3 
f 56/61/6 68/73/6 92/103/23 93/104/24 
f 87/98/1 89/100/3 94/105/3 88/99/1 
f 94/105/3 95/106/3 96/107/1 88/99/1 
f 88/99/1 96/107/1 97/108/1 85/96/1 
f 98/109/2 95/106/3 94/105/3 99/110/2 
f 99/110/2 94/105/3 89/100/3 93/104/24 
f 100/111/2 54/59/2 53/58/2 84/95/2 
f 90/101/2 68/73/6 67/72/14 79/112/21 
f 78/88/20 70/75/15 69/74/7 101/113/25 
f 101/113/25 69/74/7 71/76/7 102/114/25 
f 102/114/25 71/76/7 72/77/16 74/79/17 
f 73/78/17 63/68/11 65/70/12 103/115/12 
f 103/116/12 65/81/12 75/80/18 104/117/18 
f 104/117/18 75/80/18 54/59/2 100/111/2 
f 105/118/22 93/104/24 92/103/23 91/102/22 
f 106/119/2 98/109/2 99/110/2 107/120/2 
f 107/120/2 99/110/2 93/104/24 105/118/22 
f 108/121/26 109/122/26 110/123/26 111/124/26 
f 112/125/26 113/126/26 114/127/26 115/128/26 
f 116/129/2 117/130/2 11/131/2 10/132/2 
f 118/133/26 119/134/26 120/135/26 121/136/26 
f 122/137/26 123/138/26 124/139/26 125/140/26 
f 126/141/26 108/121/26 111/124/26 127/142/26 
f 128/143/26 112/125/26 115/128/26 129/144/26 
f 130/145/26 131/146/27 132/147/27 133/148/26 
f 134/149/27 135/150/26 136/151/26 137/152/27 
f 109/122/26 130/145/26 133/148/26 110/123/26 
f 113/126/26 136/151/26 135/150/26 114/127/26 
f 111/124/26 110/123/26 138/153/26 139/154/26 
f 140/155/2 116/129/2 10/132/2 36/156/2 
f 121/136/26 120/135/26 141/157/26 142/158/26 
f 127/142/26 111/124/26 139/154/26 143/159/26 
f 133/148/26 132/147/27 144/160/27 145/161/26 
f 110/123/26 133/148/26 145/161/26 138/153/26 
f 120/162/26 119/163/26 146/164/26 147/165/26 
f 148/166/26 124/167/26 123/168/26 149/169/26 
f 150/170/26 151/171/26 152/172/26 153/173/26 
f 141/174/26 120/162/26 147/165/26 154/175/26 
f 155/176/27 156/177/28 151/171/26 150/170/26 
f 147/165/26 146/164/26 126/141/26 127/142/26 
f 129/144/26 148/166/26 149/169/26 128/143/26 
f 154/175/26 147/165/26 127/142/26 143/159/26 
f 117/130/2 116/129/2 132/147/27 131/146/27 
f 137/152/27 157/178/2 158/179/2 134/149/27 
f 116/129/2 140/155/2 144/160/27 132/147/27 
f 159/180/29 156/177/28 155/176/27 160/181/30 
f 161/182/31 162/183/32 163/184/33 164/185/34 
f 165/186/31 166/187/32 162/183/32 161/182/31 
f 167/188/35 168/189/32 166/187/32 165/186/31 
f 169/190/12 170/191/36 168/189/32 167/188/35 
f 160/181/30 171/192/30 172/193/37 159/180/29 
f 164/185/34 173/194/38 174/195/31 161/182/31 
f 161/182/31 174/195/31 175/196/31 165/186/31 
f 165/186/31 175/196/31 176/197/39 167/188/35 
f 167/188/35 176/197/39 74/198/17 73/199/17 
f 177/200/18 178/201/40 170/202/36 169/203/12 
f 163/184/33 179/204/26 151/205/26 156/206/28 
f 172/207/37 79/208/21 78/209/20 173/194/38 
f 156/206/28 159/210/29 164/185/34 163/184/33 
f 159/210/29 172/207/37 173/194/38 164/185/34 
f 178/201/40 180/211/26 170/191/36 
f 180/211/26 181/212/26 168/189/32 170/191/36 
f 181/212/26 182/213/26 166/187/32 168/189/32 
f 182/213/26 183/214/26 162/183/32 166/187/32 
f 183/214/26 179/204/26 163/184/33 162/183/32 
f 115/128/26 114/127/26 109/122/26 108/121/26 
f 113/126/26 112/125/26 182/213/26 181/212/26 
f 158/179/2 84/215/2 11/131/2 117/130/2 
f 125/140/26 124/139/26 119/134/26 118/133/26 
f 123/138/26 122/137/26 152/172/26 151/171/26 
f 129/144/26 115/128/26 108/121/26 126/141/26 
f 112/125/26 128/143/26 183/214/26 182/213/26 
f 137/152/27 136/151/26 180/211/26 178/201/40 
f 135/150/26 134/149/27 131/146/27 130/145/26 
f 114/127/26 135/150/26 130/145/26 109/122/26 
f 136/151/26 113/126/26 181/212/26 180/211/26 
f 149/169/26 123/168/26 151/205/26 179/204/26 
f 124/167/26 148/166/26 146/164/26 119/163/26 
f 128/143/26 149/169/26 179/204/26 183/214/26 
f 148/166/26 129/144/26 126/141/26 146/164/26 
f 134/149/27 158/179/2 117/130/2 131/146/27 
f 157/178/2 137/152/27 178/201/40 177/200/18 
f 184/216/26 185/217/26 186/218/26 187/219/26 
f 186/218/26 150/170/26 153/173/26 187/219/26 
f 150/170/26 186/218/26 188/220/27 155/176/27 
f 171/192/30 189/221/41 91/222/22 90/223/2 
f 155/176/27 188/220/27 190/224/42 160/181/30 
f 160/181/30 190/224/42 189/221/41 171/192/30 
f 186/218/26 185/217/26 191/225/27 188/220/27 
f 191/225/27 185/217/26 192/226/26 193/227/27 
f 185/217/26 184/216/26 194/228/26 192/226/26 
f 195/229/2 196/230/2 191/225/27 193/227/27 
f 196/230/2 190/224/42 188/220/27 191/225/27 
f 100/231/2 84/215/2 158/179/2 157/178/2 
f 90/223/2 79/232/21 172/193/37 171/192/30 
f 78/209/20 101/233/25 174/195/31 173/194/38 
f 101/233/25 102/234/25 175/196/31 174/195/31 
f 102/234/25 74/198/17 176/197/39 175/196/31 
f 73/199/17 103/235/12 169/190/12 167/188/35 
f 103/236/12 104/237/18 177/200/18 169/203/12 
f 104/237/18 100/231/2 157/178/2 177/200/18 
f 105/238/22 91/222/22 189/221/41 190/224/42 
f 106/239/2 107/240/2 196/230/2 195/229/2 
f 107/240/2 105/238/22 190/224/42 196/230/2 
f 34/34/43 33/33/43 197/33/43 198/34/43 
f 38/38/43 37/37/43 199/37/43 200/38/43 
f 33/33/43 39/39/43 201/39/43 197/33/43 
f 41/41/43 40/40/43 202/40/43 35/41/43 
f 40/40/43 34/34/43 198/34/43 202/40/43 
f 50/55/43 38/54/43 200/54/43 203/55/43 
f 39/39/43 50/55/43 203/55/43 201/39/43 
f 96/107/44 95/106/44 98/106/44 204/107/44 
f 97/108/44 96/107/44 204/107/44 205/108/44 
f 198/34/43 197/33/43 206/33/43 207/34/43 
f 200/38/43 199/37/43 208/37/43 209/38/43 
f 197/33/43 201/39/43 210/39/43 206/33/43 
f 35/41/43 202/40/43 211/40/43 36/41/43 
f 202/40/43 198/34/43 207/34/43 211/40/43 
f 203/55/43 200/54/43 209/54/43 212/55/43 
f 201/39/43 203/55/43 212/55/43 210/39/43 
f 204/107/44 98/106/44 106/106/44 213/107/44 
f 205/108/44 204/107/44 213/107/44 214/108/44 
f 215/34/43 216/33/43 139/33/43 138/34/43 
f 217/38/43 218/37/43 142/37/43 141/38/43 
f 216/33/43 219/39/43 143/39/43 139/33/43 
f 140/41/43 220/40/43 145/40/43 144/41/43 
f 220/40/43 215/34/43 138/34/43 145/40/43 
f 221/55/43 217/54/43 141/54/43 154/55/43 
f 219/39/43 221/55/43 154/55/43 143/39/43 
f 222/107/44 195/106/44 193/106/44 192/107/44 
f 223/108/44 222/107/44 192/107/44 194/108/44 
f 206/33/43 216/33/43 215/34/43 207/34/43 
f 208/37/43 218/37/43 217/38/43 209/38/43 
f 210/39/43 219/39/43 216/33/43 206/33/43 
f 211/40/43 220/40/43 140/41/43 36/41/43 
f 207/34/43 215/34/43 220/40/43 211/40/43 
f 209/54/43 217/54/43 221/55/43 212/55/43 
f 212/55/43 221/55/43 219/39/43 210/39/43 
f 106/106/44 195/106/44 222/107/44 213/107/44 
f 213/107/44 222/107/44 223/108/44 214/108/44 
# 208 polygons - 2 triangles

