# 3ds Max Wavefront OBJ Exporter v0.97b - (c)2007 guruware
# File Created: 07.12.2019 17:06:42

#
# object ground_blank
#

v  5.8605 1.3333 7.0000
v  5.8605 1.0000 7.0000
v  7.0000 1.0000 7.0000
v  7.0000 1.3333 7.0000
v  5.8605 2.0000 7.0000
v  7.0000 2.0000 7.0000
v  7.0000 2.0000 6.6321
v  5.8605 2.0000 6.6321
v  7.0000 2.0000 5.5000
v  5.8605 2.0000 5.5000
v  1.3026 2.0000 4.0000
v  1.0000 2.0000 4.0000
v  1.0000 2.0000 5.5000
v  1.3026 2.0000 5.5000
v  3.5816 2.0000 4.0000
v  3.5816 2.0000 5.5000
v  5.8605 2.0000 4.0000
v  1.0000 1.3333 7.0000
v  1.0000 1.0000 7.0000
v  1.3026 1.0000 7.0000
v  1.3026 1.3333 7.0000
v  3.5816 1.0000 7.0000
v  3.5816 1.3333 7.0000
v  1.3026 2.0000 -0.0000
v  1.0000 2.0000 -0.0000
v  1.0000 2.0000 1.0000
v  1.3026 2.0000 1.0000
v  3.5816 2.0000 -0.0000
v  3.5816 2.0000 1.0000
v  5.8605 2.0000 -0.0000
v  5.8605 2.0000 1.0000
v  1.3026 2.0000 2.5000
v  1.0000 2.0000 2.5000
v  3.5816 2.0000 2.5000
v  5.8605 2.0000 2.5000
v  1.3026 2.0000 6.6321
v  1.0000 2.0000 6.6321
v  1.0000 2.0000 7.0000
v  1.3026 2.0000 7.0000
v  3.5816 2.0000 6.6321
v  3.5816 2.0000 7.0000
v  0.0000 2.0000 4.0000
v  0.0000 2.0000 5.5000
v  0.0000 1.3333 7.0000
v  0.0000 1.0000 7.0000
v  0.0000 2.0000 -0.0000
v  0.0000 2.0000 1.0000
v  0.0000 2.0000 2.5000
v  0.0000 2.0000 6.6321
v  0.0000 2.0000 7.0000
v  5.8605 2.0000 1.3750
v  7.0000 2.0000 1.3750
v  7.0000 2.0000 1.0000
v  1.0000 2.0000 1.3750
v  1.3026 2.0000 1.3750
v  3.5816 2.0000 1.3750
v  0.0000 2.0000 1.3750
v  7.0000 2.0000 2.5000
v  7.0000 2.0000 4.0000
v  7.0000 2.0000 -0.0000
v  5.8605 0.6667 7.0000
v  7.0000 0.6667 7.0000
v  1.0000 0.6667 7.0000
v  1.3026 0.6667 7.0000
v  3.5816 0.6667 7.0000
v  0.0000 0.6667 7.0000
v  1.0000 0.0000 7.0000
v  1.3026 0.0000 7.0000
v  3.5816 0.0000 7.0000
v  5.8605 0.0000 7.0000
v  0.0000 0.0000 7.0000
v  7.0000 0.0000 7.0000
v  8.1395 1.3333 7.0000
v  8.1395 1.0000 7.0000
v  8.1395 2.0000 7.0000
v  8.1395 2.0000 6.6321
v  8.1395 2.0000 5.5000
v  12.6974 2.0000 4.0000
v  12.6974 2.0000 5.5000
v  13.0000 2.0000 5.5000
v  13.0000 2.0000 4.0000
v  10.4184 2.0000 4.0000
v  10.4184 2.0000 5.5000
v  8.1395 2.0000 4.0000
v  13.0000 1.3333 7.0000
v  12.6974 1.3333 7.0000
v  12.6974 1.0000 7.0000
v  13.0000 1.0000 7.0000
v  10.4184 1.3333 7.0000
v  10.4184 1.0000 7.0000
v  12.6974 2.0000 -0.0000
v  12.6974 2.0000 1.0000
v  13.0000 2.0000 1.0000
v  13.0000 2.0000 -0.0000
v  10.4184 2.0000 -0.0000
v  10.4184 2.0000 1.0000
v  8.1395 2.0000 -0.0000
v  8.1395 2.0000 1.0000
v  12.6974 2.0000 2.5000
v  13.0000 2.0000 2.5000
v  10.4184 2.0000 2.5000
v  8.1395 2.0000 2.5000
v  12.6974 2.0000 6.6321
v  12.6974 2.0000 7.0000
v  13.0000 2.0000 7.0000
v  13.0000 2.0000 6.6321
v  10.4184 2.0000 6.6321
v  10.4184 2.0000 7.0000
v  14.0000 2.0000 5.5000
v  14.0000 2.0000 4.0000
v  14.0000 1.3333 7.0000
v  14.0000 1.0000 7.0000
v  14.0000 2.0000 1.0000
v  14.0000 2.0000 -0.0000
v  14.0000 2.0000 2.5000
v  14.0000 2.0000 7.0000
v  14.0000 2.0000 6.6321
v  8.1395 2.0000 1.3750
v  12.6974 2.0000 1.3750
v  13.0000 2.0000 1.3750
v  10.4184 2.0000 1.3750
v  14.0000 2.0000 1.3750
v  8.1395 0.6667 7.0000
v  13.0000 0.6667 7.0000
v  12.6974 0.6667 7.0000
v  10.4184 0.6667 7.0000
v  14.0000 0.6667 7.0000
v  12.6974 0.0000 7.0000
v  13.0000 0.0000 7.0000
v  10.4184 0.0000 7.0000
v  8.1395 0.0000 7.0000
v  14.0000 0.0000 7.0000
v  5.8605 0.0000 6.6321
v  7.0000 0.0000 6.6321
v  5.8605 0.0000 5.5000
v  7.0000 0.0000 5.5000
v  1.3026 0.0000 4.0000
v  1.3026 0.0000 5.5000
v  1.0000 0.0000 5.5000
v  1.0000 0.0000 4.0000
v  3.5816 0.0000 4.0000
v  3.5816 0.0000 5.5000
v  5.8605 0.0000 4.0000
v  1.3026 0.0000 -0.0000
v  1.3026 0.0000 1.0000
v  1.0000 0.0000 1.0000
v  1.0000 0.0000 -0.0000
v  3.5816 0.0000 -0.0000
v  3.5816 0.0000 1.0000
v  5.8605 0.0000 -0.0000
v  5.8605 0.0000 1.0000
v  1.3026 0.0000 2.5000
v  1.0000 0.0000 2.5000
v  3.5816 0.0000 2.5000
v  5.8605 0.0000 2.5000
v  1.3026 0.0000 6.6321
v  1.0000 0.0000 6.6321
v  3.5816 0.0000 6.6321
v  0.0000 0.0000 5.5000
v  0.0000 0.0000 4.0000
v  0.0000 0.0000 1.0000
v  0.0000 0.0000 -0.0000
v  0.0000 0.0000 2.5000
v  0.0000 0.0000 6.6321
v  7.0000 0.0000 1.0000
v  7.0000 0.0000 1.3750
v  5.8605 0.0000 1.3750
v  1.3026 0.0000 1.3750
v  1.0000 0.0000 1.3750
v  3.5816 0.0000 1.3750
v  0.0000 0.0000 1.3750
v  7.0000 0.0000 2.5000
v  7.0000 0.0000 4.0000
v  7.0000 0.0000 -0.0000
v  8.1395 0.0000 6.6321
v  8.1395 0.0000 5.5000
v  12.6974 0.0000 4.0000
v  13.0000 0.0000 4.0000
v  13.0000 0.0000 5.5000
v  12.6974 0.0000 5.5000
v  10.4184 0.0000 4.0000
v  10.4184 0.0000 5.5000
v  8.1395 0.0000 4.0000
v  12.6974 0.0000 -0.0000
v  13.0000 0.0000 -0.0000
v  13.0000 0.0000 1.0000
v  12.6974 0.0000 1.0000
v  10.4184 0.0000 -0.0000
v  10.4184 0.0000 1.0000
v  8.1395 0.0000 -0.0000
v  8.1395 0.0000 1.0000
v  12.6974 0.0000 2.5000
v  13.0000 0.0000 2.5000
v  10.4184 0.0000 2.5000
v  8.1395 0.0000 2.5000
v  12.6974 0.0000 6.6321
v  13.0000 0.0000 6.6321
v  10.4184 0.0000 6.6321
v  14.0000 0.0000 4.0000
v  14.0000 0.0000 5.5000
v  14.0000 0.0000 -0.0000
v  14.0000 0.0000 1.0000
v  14.0000 0.0000 2.5000
v  14.0000 0.0000 6.6321
v  8.1395 0.0000 1.3750
v  13.0000 0.0000 1.3750
v  12.6974 0.0000 1.3750
v  10.4184 0.0000 1.3750
v  14.0000 0.0000 1.3750
v  0.0000 1.3333 4.0000
v  0.0000 1.3333 5.5000
v  0.0000 1.3333 -0.0000
v  0.0000 1.3333 1.0000
v  0.0000 1.3333 2.5000
v  0.0000 1.3333 6.6321
v  0.0000 1.3333 1.3750
v  14.0000 1.3333 5.5000
v  14.0000 1.3333 4.0000
v  14.0000 1.3333 1.0000
v  14.0000 1.3333 -0.0000
v  14.0000 1.3333 2.5000
v  14.0000 1.3333 6.6321
v  14.0000 1.3333 1.3750
v  0.0000 1.0000 4.0000
v  0.0000 1.0000 5.5000
v  0.0000 1.0000 -0.0000
v  0.0000 1.0000 1.0000
v  0.0000 1.0000 2.5000
v  0.0000 1.0000 6.6321
v  0.0000 1.0000 1.3750
v  14.0000 1.0000 5.5000
v  14.0000 1.0000 4.0000
v  14.0000 1.0000 1.0000
v  14.0000 1.0000 -0.0000
v  14.0000 1.0000 2.5000
v  14.0000 1.0000 6.6321
v  14.0000 1.0000 1.3750
v  0.0000 0.6667 5.5000
v  0.0000 0.6667 4.0000
v  0.0000 0.6667 1.0000
v  0.0000 0.6667 -0.0000
v  0.0000 0.6667 2.5000
v  0.0000 0.6667 6.6321
v  0.0000 0.6667 1.3750
v  14.0000 0.6667 4.0000
v  14.0000 0.6667 5.5000
v  14.0000 0.6667 -0.0000
v  14.0000 0.6667 1.0000
v  14.0000 0.6667 2.5000
v  14.0000 0.6667 6.6321
v  14.0000 0.6667 1.3750
# 251 vertices

vn 0.0000 0.0000 1.0000
vn 0.0000 0.7071 0.7071
vn 0.0000 1.0000 -0.0000
vn 0.0000 -0.7071 0.7071
vn 0.0000 -1.0000 -0.0000
vn -1.0000 0.0000 -0.0000
vn 1.0000 0.0000 -0.0000
# 7 vertex normals

vt 0.1982 0.1118 0.0000
vt 0.1982 0.1033 0.0000
vt 0.2271 0.1033 0.0000
vt 0.2271 0.1118 0.0000
vt 0.1982 0.1288 0.0000
vt 0.2271 0.1288 0.0000
vt 0.2271 0.1381 0.0000
vt 0.1982 0.1381 0.0000
vt 0.2271 0.1669 0.0000
vt 0.1982 0.1669 0.0000
vt 0.0822 0.2051 0.0000
vt 0.0745 0.2051 0.0000
vt 0.0745 0.1669 0.0000
vt 0.0822 0.1669 0.0000
vt 0.1402 0.2051 0.0000
vt 0.1402 0.1669 0.0000
vt 0.1982 0.2051 0.0000
vt 0.0745 0.1118 0.0000
vt 0.0745 0.1033 0.0000
vt 0.0822 0.1033 0.0000
vt 0.0822 0.1118 0.0000
vt 0.1402 0.1033 0.0000
vt 0.1402 0.1118 0.0000
vt 0.0822 0.3068 0.0000
vt 0.0745 0.3068 0.0000
vt 0.0745 0.2814 0.0000
vt 0.0822 0.2814 0.0000
vt 0.1402 0.3068 0.0000
vt 0.1402 0.2814 0.0000
vt 0.1981 0.3068 0.0000
vt 0.1981 0.2814 0.0000
vt 0.0822 0.2432 0.0000
vt 0.0745 0.2432 0.0000
vt 0.1402 0.2432 0.0000
vt 0.1982 0.2432 0.0000
vt 0.0822 0.1381 0.0000
vt 0.0745 0.1381 0.0000
vt 0.0745 0.1288 0.0000
vt 0.0822 0.1288 0.0000
vt 0.1402 0.1381 0.0000
vt 0.1402 0.1288 0.0000
vt 0.0491 0.2051 0.0000
vt 0.0491 0.1669 0.0000
vt 0.0491 0.1118 0.0000
vt 0.0491 0.1033 0.0000
vt 0.0491 0.3068 0.0000
vt 0.0491 0.2814 0.0000
vt 0.0491 0.2432 0.0000
vt 0.0491 0.1381 0.0000
vt 0.0491 0.1288 0.0000
vt 0.1981 0.2719 0.0000
vt 0.2271 0.2719 0.0000
vt 0.2271 0.2814 0.0000
vt 0.0745 0.2719 0.0000
vt 0.0822 0.2719 0.0000
vt 0.1402 0.2719 0.0000
vt 0.0491 0.2718 0.0000
vt 0.2271 0.2432 0.0000
vt 0.2271 0.2051 0.0000
vt 0.2271 0.3068 0.0000
vt 1.1982 0.1118 0.0000
vt 1.2271 0.1118 0.0000
vt 1.2271 0.1033 0.0000
vt 1.1982 0.1033 0.0000
vt 1.0745 0.1118 0.0000
vt 1.0822 0.1118 0.0000
vt 1.0822 0.1033 0.0000
vt 1.0745 0.1033 0.0000
vt 1.1402 0.1118 0.0000
vt 1.1402 0.1033 0.0000
vt 1.0491 0.1118 0.0000
vt 1.0491 0.1033 0.0000
vt 1.0745 0.1288 0.0000
vt 1.0822 0.1288 0.0000
vt 1.1402 0.1288 0.0000
vt 1.1982 0.1288 0.0000
vt 1.0491 0.1288 0.0000
vt 1.2271 0.1288 0.0000
vt 0.1982 1.1118 0.0000
vt 0.2271 1.1118 0.0000
vt 0.2271 1.1033 0.0000
vt 0.1982 1.1033 0.0000
vt 0.1982 1.1288 0.0000
vt 0.1982 1.1381 0.0000
vt 0.2271 1.1381 0.0000
vt 0.2271 1.1288 0.0000
vt 0.1982 1.1669 0.0000
vt 0.2271 1.1669 0.0000
vt 0.0822 1.2051 0.0000
vt 0.0822 1.1669 0.0000
vt 0.0745 1.1669 0.0000
vt 0.0745 1.2051 0.0000
vt 0.1402 1.2051 0.0000
vt 0.1402 1.1669 0.0000
vt 0.1982 1.2051 0.0000
vt 0.0745 1.1118 0.0000
vt 0.0822 1.1118 0.0000
vt 0.0822 1.1033 0.0000
vt 0.0745 1.1033 0.0000
vt 0.1402 1.1118 0.0000
vt 0.1402 1.1033 0.0000
vt 0.0822 1.3068 0.0000
vt 0.0822 1.2814 0.0000
vt 0.0745 1.2814 0.0000
vt 0.0745 1.3068 0.0000
vt 0.1402 1.3068 0.0000
vt 0.1402 1.2814 0.0000
vt 0.1981 1.3068 0.0000
vt 0.1981 1.2814 0.0000
vt 0.0822 1.2432 0.0000
vt 0.0745 1.2432 0.0000
vt 0.1402 1.2432 0.0000
vt 0.1982 1.2432 0.0000
vt 0.0822 1.1381 0.0000
vt 0.0822 1.1288 0.0000
vt 0.0745 1.1288 0.0000
vt 0.0745 1.1381 0.0000
vt 0.1402 1.1381 0.0000
vt 0.1402 1.1288 0.0000
vt 0.0491 1.1669 0.0000
vt 0.0491 1.2051 0.0000
vt 0.0491 1.1118 0.0000
vt 0.0491 1.1033 0.0000
vt 0.0491 1.2814 0.0000
vt 0.0491 1.3068 0.0000
vt 0.0491 1.2432 0.0000
vt 0.0491 1.1288 0.0000
vt 0.0491 1.1381 0.0000
vt 0.2271 1.2814 0.0000
vt 0.2271 1.2719 0.0000
vt 0.1981 1.2719 0.0000
vt 0.0822 1.2719 0.0000
vt 0.0745 1.2719 0.0000
vt 0.1402 1.2719 0.0000
vt 0.0491 1.2718 0.0000
vt 0.2271 1.2432 0.0000
vt 0.2271 1.2051 0.0000
vt 0.2271 1.3068 0.0000
vt 1.1982 1.1118 0.0000
vt 1.1982 1.1033 0.0000
vt 1.2271 1.1033 0.0000
vt 1.2271 1.1118 0.0000
vt 1.0745 1.1118 0.0000
vt 1.0745 1.1033 0.0000
vt 1.0822 1.1033 0.0000
vt 1.0822 1.1118 0.0000
vt 1.1402 1.1033 0.0000
vt 1.1402 1.1118 0.0000
vt 1.0491 1.1118 0.0000
vt 1.0491 1.1033 0.0000
vt 1.0822 1.1288 0.0000
vt 1.0745 1.1288 0.0000
vt 1.1402 1.1288 0.0000
vt 1.1982 1.1288 0.0000
vt 1.0491 1.1288 0.0000
vt 1.2271 1.1288 0.0000
vt 1.1982 0.1381 0.0000
vt 1.2271 0.1381 0.0000
vt 1.1982 0.1669 0.0000
vt 1.2271 0.1669 0.0000
vt 1.0822 0.2051 0.0000
vt 1.0822 0.1669 0.0000
vt 1.0745 0.1669 0.0000
vt 1.0745 0.2051 0.0000
vt 1.1402 0.2051 0.0000
vt 1.1402 0.1669 0.0000
vt 1.1982 0.2051 0.0000
vt 1.0822 0.3068 0.0000
vt 1.0822 0.2814 0.0000
vt 1.0745 0.2814 0.0000
vt 1.0745 0.3068 0.0000
vt 1.1402 0.3068 0.0000
vt 1.1402 0.2814 0.0000
vt 1.1981 0.3068 0.0000
vt 1.1981 0.2814 0.0000
vt 1.0822 0.2432 0.0000
vt 1.0745 0.2432 0.0000
vt 1.1402 0.2432 0.0000
vt 1.1982 0.2432 0.0000
vt 1.0822 0.1381 0.0000
vt 1.0745 0.1381 0.0000
vt 1.1402 0.1381 0.0000
vt 1.0491 0.1669 0.0000
vt 1.0491 0.2051 0.0000
vt 1.0491 0.2814 0.0000
vt 1.0491 0.3068 0.0000
vt 1.0491 0.2432 0.0000
vt 1.0491 0.1381 0.0000
vt 1.2271 0.2814 0.0000
vt 1.2271 0.2719 0.0000
vt 1.1981 0.2719 0.0000
vt 1.0822 0.2719 0.0000
vt 1.0745 0.2719 0.0000
vt 1.1402 0.2719 0.0000
vt 1.0491 0.2718 0.0000
vt 1.2271 0.2432 0.0000
vt 1.2271 0.2051 0.0000
vt 1.2271 0.3068 0.0000
vt 1.2271 1.1381 0.0000
vt 1.1982 1.1381 0.0000
vt 1.2271 1.1669 0.0000
vt 1.1982 1.1669 0.0000
vt 1.0822 1.2051 0.0000
vt 1.0745 1.2051 0.0000
vt 1.0745 1.1669 0.0000
vt 1.0822 1.1669 0.0000
vt 1.1402 1.2051 0.0000
vt 1.1402 1.1669 0.0000
vt 1.1982 1.2051 0.0000
vt 1.0822 1.3068 0.0000
vt 1.0745 1.3068 0.0000
vt 1.0745 1.2814 0.0000
vt 1.0822 1.2814 0.0000
vt 1.1402 1.3068 0.0000
vt 1.1402 1.2814 0.0000
vt 1.1981 1.3068 0.0000
vt 1.1981 1.2814 0.0000
vt 1.0822 1.2432 0.0000
vt 1.0745 1.2432 0.0000
vt 1.1402 1.2432 0.0000
vt 1.1982 1.2432 0.0000
vt 1.0822 1.1381 0.0000
vt 1.0745 1.1381 0.0000
vt 1.1402 1.1381 0.0000
vt 1.0491 1.2051 0.0000
vt 1.0491 1.1669 0.0000
vt 1.0491 1.3068 0.0000
vt 1.0491 1.2814 0.0000
vt 1.0491 1.2432 0.0000
vt 1.0491 1.1381 0.0000
vt 1.1981 1.2719 0.0000
vt 1.2271 1.2719 0.0000
vt 1.2271 1.2814 0.0000
vt 1.0745 1.2719 0.0000
vt 1.0822 1.2719 0.0000
vt 1.1402 1.2719 0.0000
vt 1.0491 1.2718 0.0000
vt 1.2271 1.2432 0.0000
vt 1.2271 1.2051 0.0000
vt 1.2271 1.3068 0.0000
# 240 texture coords

o ground_blank
g ground_blank
f 1/1/1 2/2/1 3/3/1 4/4/1 
f 5/5/2 6/6/2 7/7/3 8/8/3 
f 8/8/3 7/7/3 9/9/3 10/10/3 
f 11/11/3 12/12/3 13/13/3 14/14/3 
f 15/15/3 11/11/3 14/14/3 16/16/3 
f 17/17/3 15/15/3 16/16/3 10/10/3 
f 18/18/1 19/19/1 20/20/1 21/21/1 
f 21/21/1 20/20/1 22/22/1 23/23/1 
f 23/23/1 22/22/1 2/2/1 1/1/1 
f 24/24/3 25/25/3 26/26/3 27/27/3 
f 28/28/3 24/24/3 27/27/3 29/29/3 
f 30/30/3 28/28/3 29/29/3 31/31/3 
f 32/32/3 33/33/3 12/12/3 11/11/3 
f 34/34/3 32/32/3 11/11/3 15/15/3 
f 35/35/3 34/34/3 15/15/3 17/17/3 
f 36/36/3 37/37/3 38/38/2 39/39/2 
f 40/40/3 36/36/3 39/39/2 41/41/2 
f 8/8/3 40/40/3 41/41/2 5/5/2 
f 14/14/3 13/13/3 37/37/3 36/36/3 
f 16/16/3 14/14/3 36/36/3 40/40/3 
f 10/10/3 16/16/3 40/40/3 8/8/3 
f 12/12/3 42/42/3 43/43/3 13/13/3 
f 44/44/1 45/45/1 19/19/1 18/18/1 
f 25/25/3 46/46/3 47/47/3 26/26/3 
f 33/33/3 48/48/3 42/42/3 12/12/3 
f 37/37/3 49/49/3 50/50/2 38/38/2 
f 13/13/3 43/43/3 49/49/3 37/37/3 
f 31/31/3 51/51/3 52/52/3 53/53/3 
f 26/26/3 54/54/3 55/55/3 27/27/3 
f 27/27/3 55/55/3 56/56/3 29/29/3 
f 29/29/3 56/56/3 51/51/3 31/31/3 
f 47/47/3 57/57/3 54/54/3 26/26/3 
f 51/51/3 35/35/3 58/58/3 52/52/3 
f 54/54/3 33/33/3 32/32/3 55/55/3 
f 55/55/3 32/32/3 34/34/3 56/56/3 
f 56/56/3 34/34/3 35/35/3 51/51/3 
f 57/57/3 48/48/3 33/33/3 54/54/3 
f 21/21/1 39/39/2 38/38/2 18/18/1 
f 23/23/1 41/41/2 39/39/2 21/21/1 
f 1/1/1 5/5/2 41/41/2 23/23/1 
f 18/18/1 38/38/2 50/50/2 44/44/1 
f 59/59/3 17/17/3 10/10/3 9/9/3 
f 60/60/3 30/30/3 31/31/3 53/53/3 
f 58/58/3 35/35/3 17/17/3 59/59/3 
f 6/6/2 5/5/2 1/1/1 4/4/1 
f 61/61/1 62/62/1 3/63/1 2/64/1 
f 63/65/1 64/66/1 20/67/1 19/68/1 
f 64/66/1 65/69/1 22/70/1 20/67/1 
f 65/69/1 61/61/1 2/64/1 22/70/1 
f 66/71/1 63/65/1 19/68/1 45/72/1 
f 64/66/1 63/65/1 67/73/4 68/74/4 
f 65/69/1 64/66/1 68/74/4 69/75/4 
f 61/61/1 65/69/1 69/75/4 70/76/4 
f 63/65/1 66/71/1 71/77/4 67/73/4 
f 72/78/4 62/62/1 61/61/1 70/76/4 
f 73/79/1 4/80/1 3/81/1 74/82/1 
f 75/83/2 76/84/3 7/85/3 6/86/2 
f 76/84/3 77/87/3 9/88/3 7/85/3 
f 78/89/3 79/90/3 80/91/3 81/92/3 
f 82/93/3 83/94/3 79/90/3 78/89/3 
f 84/95/3 77/87/3 83/94/3 82/93/3 
f 85/96/1 86/97/1 87/98/1 88/99/1 
f 86/97/1 89/100/1 90/101/1 87/98/1 
f 89/100/1 73/79/1 74/82/1 90/101/1 
f 91/102/3 92/103/3 93/104/3 94/105/3 
f 95/106/3 96/107/3 92/103/3 91/102/3 
f 97/108/3 98/109/3 96/107/3 95/106/3 
f 99/110/3 78/89/3 81/92/3 100/111/3 
f 101/112/3 82/93/3 78/89/3 99/110/3 
f 102/113/3 84/95/3 82/93/3 101/112/3 
f 103/114/3 104/115/2 105/116/2 106/117/3 
f 107/118/3 108/119/2 104/115/2 103/114/3 
f 76/84/3 75/83/2 108/119/2 107/118/3 
f 79/90/3 103/114/3 106/117/3 80/91/3 
f 83/94/3 107/118/3 103/114/3 79/90/3 
f 77/87/3 76/84/3 107/118/3 83/94/3 
f 81/92/3 80/91/3 109/120/3 110/121/3 
f 111/122/1 85/96/1 88/99/1 112/123/1 
f 94/105/3 93/104/3 113/124/3 114/125/3 
f 100/111/3 81/92/3 110/121/3 115/126/3 
f 106/117/3 105/116/2 116/127/2 117/128/3 
f 80/91/3 106/117/3 117/128/3 109/120/3 
f 98/109/3 53/129/3 52/130/3 118/131/3 
f 93/104/3 92/103/3 119/132/3 120/133/3 
f 92/103/3 96/107/3 121/134/3 119/132/3 
f 96/107/3 98/109/3 118/131/3 121/134/3 
f 113/124/3 93/104/3 120/133/3 122/135/3 
f 118/131/3 52/130/3 58/136/3 102/113/3 
f 120/133/3 119/132/3 99/110/3 100/111/3 
f 119/132/3 121/134/3 101/112/3 99/110/3 
f 121/134/3 118/131/3 102/113/3 101/112/3 
f 122/135/3 120/133/3 100/111/3 115/126/3 
f 86/97/1 85/96/1 105/116/2 104/115/2 
f 89/100/1 86/97/1 104/115/2 108/119/2 
f 73/79/1 89/100/1 108/119/2 75/83/2 
f 85/96/1 111/122/1 116/127/2 105/116/2 
f 59/137/3 9/88/3 77/87/3 84/95/3 
f 60/138/3 53/129/3 98/109/3 97/108/3 
f 58/136/3 59/137/3 84/95/3 102/113/3 
f 6/86/2 4/80/1 73/79/1 75/83/2 
f 123/139/1 74/140/1 3/141/1 62/142/1 
f 124/143/1 88/144/1 87/145/1 125/146/1 
f 125/146/1 87/145/1 90/147/1 126/148/1 
f 126/148/1 90/147/1 74/140/1 123/139/1 
f 127/149/1 112/150/1 88/144/1 124/143/1 
f 125/146/1 128/151/4 129/152/4 124/143/1 
f 126/148/1 130/153/4 128/151/4 125/146/1 
f 123/139/1 131/154/4 130/153/4 126/148/1 
f 124/143/1 129/152/4 132/155/4 127/149/1 
f 72/156/4 131/154/4 123/139/1 62/142/1 
f 70/76/4 133/157/5 134/158/5 72/78/4 
f 133/157/5 135/159/5 136/160/5 134/158/5 
f 137/161/5 138/162/5 139/163/5 140/164/5 
f 141/165/5 142/166/5 138/162/5 137/161/5 
f 143/167/5 135/159/5 142/166/5 141/165/5 
f 144/168/5 145/169/5 146/170/5 147/171/5 
f 148/172/5 149/173/5 145/169/5 144/168/5 
f 150/174/5 151/175/5 149/173/5 148/172/5 
f 152/176/5 137/161/5 140/164/5 153/177/5 
f 154/178/5 141/165/5 137/161/5 152/176/5 
f 155/179/5 143/167/5 141/165/5 154/178/5 
f 156/180/5 68/74/4 67/73/4 157/181/5 
f 158/182/5 69/75/4 68/74/4 156/180/5 
f 133/157/5 70/76/4 69/75/4 158/182/5 
f 138/162/5 156/180/5 157/181/5 139/163/5 
f 142/166/5 158/182/5 156/180/5 138/162/5 
f 135/159/5 133/157/5 158/182/5 142/166/5 
f 140/164/5 139/163/5 159/183/5 160/184/5 
f 147/171/5 146/170/5 161/185/5 162/186/5 
f 153/177/5 140/164/5 160/184/5 163/187/5 
f 157/181/5 67/73/4 71/77/4 164/188/5 
f 139/163/5 157/181/5 164/188/5 159/183/5 
f 151/175/5 165/189/5 166/190/5 167/191/5 
f 146/170/5 145/169/5 168/192/5 169/193/5 
f 145/169/5 149/173/5 170/194/5 168/192/5 
f 149/173/5 151/175/5 167/191/5 170/194/5 
f 161/185/5 146/170/5 169/193/5 171/195/5 
f 167/191/5 166/190/5 172/196/5 155/179/5 
f 169/193/5 168/192/5 152/176/5 153/177/5 
f 168/192/5 170/194/5 154/178/5 152/176/5 
f 170/194/5 167/191/5 155/179/5 154/178/5 
f 171/195/5 169/193/5 153/177/5 163/187/5 
f 173/197/5 136/160/5 135/159/5 143/167/5 
f 174/198/5 165/189/5 151/175/5 150/174/5 
f 172/196/5 173/197/5 143/167/5 155/179/5 
f 131/154/4 72/156/4 134/199/5 175/200/5 
f 175/200/5 134/199/5 136/201/5 176/202/5 
f 177/203/5 178/204/5 179/205/5 180/206/5 
f 181/207/5 177/203/5 180/206/5 182/208/5 
f 183/209/5 181/207/5 182/208/5 176/202/5 
f 184/210/5 185/211/5 186/212/5 187/213/5 
f 188/214/5 184/210/5 187/213/5 189/215/5 
f 190/216/5 188/214/5 189/215/5 191/217/5 
f 192/218/5 193/219/5 178/204/5 177/203/5 
f 194/220/5 192/218/5 177/203/5 181/207/5 
f 195/221/5 194/220/5 181/207/5 183/209/5 
f 196/222/5 197/223/5 129/152/4 128/151/4 
f 198/224/5 196/222/5 128/151/4 130/153/4 
f 175/200/5 198/224/5 130/153/4 131/154/4 
f 180/206/5 179/205/5 197/223/5 196/222/5 
f 182/208/5 180/206/5 196/222/5 198/224/5 
f 176/202/5 182/208/5 198/224/5 175/200/5 
f 178/204/5 199/225/5 200/226/5 179/205/5 
f 185/211/5 201/227/5 202/228/5 186/212/5 
f 193/219/5 203/229/5 199/225/5 178/204/5 
f 197/223/5 204/230/5 132/155/4 129/152/4 
f 179/205/5 200/226/5 204/230/5 197/223/5 
f 191/217/5 205/231/5 166/232/5 165/233/5 
f 186/212/5 206/234/5 207/235/5 187/213/5 
f 187/213/5 207/235/5 208/236/5 189/215/5 
f 189/215/5 208/236/5 205/231/5 191/217/5 
f 202/228/5 209/237/5 206/234/5 186/212/5 
f 205/231/5 195/221/5 172/238/5 166/232/5 
f 206/234/5 193/219/5 192/218/5 207/235/5 
f 207/235/5 192/218/5 194/220/5 208/236/5 
f 208/236/5 194/220/5 195/221/5 205/231/5 
f 209/237/5 203/229/5 193/219/5 206/234/5 
f 173/239/5 183/209/5 176/202/5 136/201/5 
f 174/240/5 190/216/5 191/217/5 165/233/5 
f 172/238/5 195/221/5 183/209/5 173/239/5 
f 43/43/6 42/42/6 210/42/6 211/43/6 
f 47/47/6 46/46/6 212/46/6 213/47/6 
f 42/42/6 48/48/6 214/48/6 210/42/6 
f 50/50/6 49/49/6 215/49/6 44/50/6 
f 49/49/6 43/43/6 211/43/6 215/49/6 
f 57/57/6 47/47/6 213/47/6 216/57/6 
f 48/48/6 57/57/6 216/57/6 214/48/6 
f 110/121/7 109/120/7 217/120/7 218/121/7 
f 114/125/7 113/124/7 219/124/7 220/125/7 
f 115/126/7 110/121/7 218/121/7 221/126/7 
f 117/128/7 116/127/7 111/127/7 222/128/7 
f 109/120/7 117/128/7 222/128/7 217/120/7 
f 113/124/7 122/135/7 223/135/7 219/124/7 
f 122/135/7 115/126/7 221/126/7 223/135/7 
f 211/43/6 210/42/6 224/42/6 225/43/6 
f 213/47/6 212/46/6 226/46/6 227/47/6 
f 210/42/6 214/48/6 228/48/6 224/42/6 
f 44/50/6 215/49/6 229/49/6 45/50/6 
f 215/49/6 211/43/6 225/43/6 229/49/6 
f 216/57/6 213/47/6 227/47/6 230/57/6 
f 214/48/6 216/57/6 230/57/6 228/48/6 
f 218/121/7 217/120/7 231/120/7 232/121/7 
f 220/125/7 219/124/7 233/124/7 234/125/7 
f 221/126/7 218/121/7 232/121/7 235/126/7 
f 222/128/7 111/127/7 112/127/7 236/128/7 
f 217/120/7 222/128/7 236/128/7 231/120/7 
f 219/124/7 223/135/7 237/135/7 233/124/7 
f 223/135/7 221/126/7 235/126/7 237/135/7 
f 238/43/6 239/42/6 160/42/6 159/43/6 
f 240/47/6 241/46/6 162/46/6 161/47/6 
f 239/42/6 242/48/6 163/48/6 160/42/6 
f 66/50/6 243/49/6 164/49/6 71/50/6 
f 243/49/6 238/43/6 159/43/6 164/49/6 
f 244/57/6 240/47/6 161/47/6 171/57/6 
f 242/48/6 244/57/6 171/57/6 163/48/6 
f 245/121/7 246/120/7 200/120/7 199/121/7 
f 247/125/7 248/124/7 202/124/7 201/125/7 
f 249/126/7 245/121/7 199/121/7 203/126/7 
f 250/128/7 127/127/7 132/127/7 204/128/7 
f 246/120/7 250/128/7 204/128/7 200/120/7 
f 248/124/7 251/135/7 209/135/7 202/124/7 
f 251/135/7 249/126/7 203/126/7 209/135/7 
f 224/42/6 239/42/6 238/43/6 225/43/6 
f 226/46/6 241/46/6 240/47/6 227/47/6 
f 228/48/6 242/48/6 239/42/6 224/42/6 
f 229/49/6 243/49/6 66/50/6 45/50/6 
f 225/43/6 238/43/6 243/49/6 229/49/6 
f 227/47/6 240/47/6 244/57/6 230/57/6 
f 230/57/6 244/57/6 242/48/6 228/48/6 
f 231/120/7 246/120/7 245/121/7 232/121/7 
f 233/124/7 248/124/7 247/125/7 234/125/7 
f 232/121/7 245/121/7 249/126/7 235/126/7 
f 112/127/7 127/127/7 250/128/7 236/128/7 
f 236/128/7 250/128/7 246/120/7 231/120/7 
f 237/135/7 251/135/7 248/124/7 233/124/7 
f 235/126/7 249/126/7 251/135/7 237/135/7 
# 236 polygons

