# 3ds Max Wavefront OBJ Exporter v0.97b - (c)2007 guruware
# File Created: 08.12.2019 19:49:41

#
# object ground_platform1
#

v  1.3026 2.0000 4.0000
v  1.0000 2.0000 4.0000
v  1.0000 2.0000 5.5000
v  1.3026 2.0000 5.5000
v  5.8600 2.0000 4.0000
v  3.5816 2.0000 4.0000
v  3.5816 2.0000 5.5000
v  5.8600 2.0000 5.5000
v  1.0000 1.3333 7.0000
v  1.0000 1.0000 7.0000
v  1.3026 1.0000 7.0000
v  1.3026 1.3333 7.0000
v  1.3026 2.0000 -0.0000
v  1.0000 2.0000 -0.0000
v  1.0000 2.0000 1.0000
v  1.3026 2.0000 1.0000
v  5.8600 2.0000 -0.0000
v  3.5813 2.0000 -0.0000
v  3.5813 2.0000 1.0000
v  5.8600 2.0000 1.0000
v  1.3026 2.0000 2.5000
v  1.0000 2.0000 2.5000
v  5.8600 2.0000 2.5000
v  3.5816 2.0000 2.5000
v  1.3026 2.0000 6.6321
v  1.0000 2.0000 6.6321
v  1.0000 2.0000 7.0000
v  1.3026 2.0000 7.0000
v  3.5816 2.0000 7.0000
v  5.8600 2.0000 7.0000
v  5.8600 2.0000 6.6321
v  3.5816 2.0000 6.6321
v  0.0000 2.0000 4.0000
v  0.0000 2.0000 5.5000
v  0.0000 1.3333 7.0000
v  0.0000 1.0000 7.0000
v  0.0000 2.0000 -0.0000
v  0.0000 2.0000 1.0000
v  0.0000 2.0000 2.5000
v  0.0000 2.0000 6.6321
v  0.0000 2.0000 7.0000
v  1.0000 2.0000 1.3750
v  1.3026 2.0000 1.3750
v  3.5816 2.0000 1.3750
v  5.8600 2.0000 1.3750
v  10.4184 2.0000 1.0000
v  10.4184 2.0000 -0.0000
v  8.1387 2.0000 -0.0000
v  7.7705 2.0000 1.0000
v  0.0000 2.0000 1.3750
v  10.4184 2.0000 1.3750
v  8.5235 2.0000 1.3750
v  3.5816 1.3333 7.0000
v  5.8600 1.3333 7.0000
v  8.5235 1.3333 1.3750
v  10.4184 1.3333 1.3750
v  8.1387 1.3333 2.5000
v  8.1387 1.3333 1.7540
v  8.1387 2.0000 1.7540
v  8.1387 2.0000 2.5000
v  8.1387 1.3333 4.0000
v  8.1387 2.0000 4.0000
v  8.1387 1.3333 5.5000
v  8.1387 2.0000 5.5000
v  8.1387 1.3333 6.6321
v  8.1387 2.0000 6.6321
v  8.3443 1.2139 1.1958
v  10.4184 1.2139 1.1958
v  7.9653 1.2139 2.5000
v  7.9653 1.2139 1.5748
v  7.9653 1.2139 4.0000
v  7.9653 1.2139 5.3805
v  8.1387 1.0000 5.5000
v  7.9653 1.0000 5.3805
v  7.7705 1.3333 7.0000
v  7.7705 2.0000 7.0000
v  7.7705 2.0000 1.3750
v  7.9653 1.0000 1.5748
v  8.3443 1.0000 1.1958
v  7.7705 2.0000 6.6321
v  7.7705 2.0000 5.5000
v  7.7705 2.0000 4.0000
v  7.7705 2.0000 2.5000
v  3.5816 1.0000 7.0000
v  13.0000 2.0000 -0.0000
v  12.6974 2.0000 -0.0000
v  12.6974 2.0000 1.0000
v  13.0000 2.0000 1.0000
v  12.6974 2.0000 1.3750
v  10.4184 1.0000 1.1958
v  12.6974 1.0000 1.1958
v  12.6974 1.2139 1.1958
v  12.6974 1.3333 1.3750
v  13.0000 2.0000 1.3750
v  14.0000 2.0000 1.3750
v  14.0000 2.0000 1.0000
v  14.0000 2.0000 -0.0000
v  14.0000 1.3333 1.3750
v  13.0000 1.3333 1.3750
v  5.8600 1.0000 7.0000
v  7.9653 1.0000 2.5000
v  7.9653 1.0000 4.0000
v  8.1387 1.0000 6.6321
v  7.7705 1.0000 7.0000
v  12.6974 1.0000 1.3750
v  14.0000 1.0000 1.3750
v  13.0000 1.0000 1.3750
v  1.3026 -0.0000 4.0000
v  1.3026 -0.0000 5.5000
v  1.0000 -0.0000 5.5000
v  1.0000 -0.0000 4.0000
v  5.8600 -0.0000 4.0000
v  5.8600 -0.0000 5.5000
v  3.5816 -0.0000 5.5000
v  3.5816 -0.0000 4.0000
v  1.0000 0.6667 7.0000
v  1.3026 0.6667 7.0000
v  1.3026 -0.0000 -0.0000
v  1.3026 -0.0000 1.0000
v  1.0000 -0.0000 1.0000
v  1.0000 -0.0000 -0.0000
v  5.8600 -0.0000 -0.0000
v  5.8600 -0.0000 1.0000
v  3.5813 -0.0000 1.0000
v  3.5813 -0.0000 -0.0000
v  1.3026 -0.0000 2.5000
v  1.0000 -0.0000 2.5000
v  5.8600 -0.0000 2.5000
v  3.5816 -0.0000 2.5000
v  1.3026 -0.0000 6.6321
v  1.3026 -0.0000 7.0000
v  1.0000 -0.0000 7.0000
v  1.0000 -0.0000 6.6321
v  3.5816 -0.0000 7.0000
v  3.5816 -0.0000 6.6321
v  5.8600 -0.0000 6.6321
v  5.8600 -0.0000 7.0000
v  0.0000 -0.0000 5.5000
v  0.0000 -0.0000 4.0000
v  0.0000 0.6667 7.0000
v  0.0000 -0.0000 1.0000
v  0.0000 -0.0000 -0.0000
v  0.0000 -0.0000 2.5000
v  0.0000 -0.0000 7.0000
v  0.0000 -0.0000 6.6321
v  1.3026 -0.0000 1.3750
v  1.0000 -0.0000 1.3750
v  3.5816 -0.0000 1.3750
v  5.8600 -0.0000 1.3750
v  10.4184 -0.0000 1.0000
v  7.7705 -0.0000 1.0000
v  8.1387 -0.0000 -0.0000
v  10.4184 -0.0000 -0.0000
v  0.0000 -0.0000 1.3750
v  10.4184 -0.0000 1.3750
v  8.5235 -0.0000 1.3750
v  5.8600 0.6667 7.0000
v  3.5816 0.6667 7.0000
v  8.5235 0.6667 1.3750
v  10.4184 0.6667 1.3750
v  8.1387 0.6667 2.5000
v  8.1387 -0.0000 2.5000
v  8.1387 -0.0000 1.7540
v  8.1387 0.6667 1.7540
v  8.1387 0.6667 4.0000
v  8.1387 -0.0000 4.0000
v  8.1387 0.6667 5.5000
v  8.1387 -0.0000 5.5000
v  8.1387 0.6667 6.6321
v  8.1387 -0.0000 6.6321
v  10.4184 0.7861 1.1958
v  8.3443 0.7861 1.1958
v  7.9653 0.7861 1.5748
v  7.9653 0.7861 2.5000
v  7.9653 0.7861 4.0000
v  7.9653 0.7861 5.3805
v  7.7705 0.6667 7.0000
v  7.7705 -0.0000 7.0000
v  7.7705 -0.0000 1.3750
v  7.7705 -0.0000 6.6321
v  7.7705 -0.0000 5.5000
v  7.7705 -0.0000 4.0000
v  7.7705 -0.0000 2.5000
v  13.0000 -0.0000 -0.0000
v  13.0000 -0.0000 1.0000
v  12.6974 -0.0000 1.0000
v  12.6974 -0.0000 -0.0000
v  12.6974 -0.0000 1.3750
v  12.6974 0.7861 1.1958
v  12.6974 0.6667 1.3750
v  13.0000 -0.0000 1.3750
v  14.0000 -0.0000 1.0000
v  14.0000 -0.0000 1.3750
v  14.0000 -0.0000 -0.0000
v  14.0000 0.6667 1.3750
v  13.0000 0.6667 1.3750
v  0.0000 1.3333 4.0000
v  0.0000 1.3333 5.5000
v  0.0000 1.3333 -0.0000
v  0.0000 1.3333 1.0000
v  0.0000 1.3333 2.5000
v  0.0000 1.3333 6.6321
v  0.0000 1.3333 1.3750
v  14.0000 1.3333 1.0000
v  14.0000 1.3333 -0.0000
v  0.0000 1.0000 4.0000
v  0.0000 1.0000 5.5000
v  0.0000 1.0000 -0.0000
v  0.0000 1.0000 1.0000
v  0.0000 1.0000 2.5000
v  0.0000 1.0000 6.6321
v  0.0000 1.0000 1.3750
v  14.0000 1.0000 1.0000
v  14.0000 1.0000 -0.0000
v  0.0000 0.6667 5.5000
v  0.0000 0.6667 4.0000
v  0.0000 0.6667 1.0000
v  0.0000 0.6667 -0.0000
v  0.0000 0.6667 2.5000
v  0.0000 0.6667 6.6321
v  0.0000 0.6667 1.3750
v  14.0000 0.6667 1.0000
v  14.0000 0.6667 -0.0000
# 223 vertices

vn 0.0000 1.0000 -0.0000
vn 0.0000 0.0000 1.0000
vn 0.0000 0.7071 0.7071
vn 0.2259 0.8032 0.5512
vn 0.2738 -0.5753 0.7708
vn 0.0000 -0.4720 0.8816
vn 0.8852 -0.4653 -0.0000
vn 0.7720 -0.5714 0.2784
vn 0.5470 0.8052 0.2290
vn 0.7071 0.7071 -0.0000
vn 0.9791 -0.1439 -0.1440
vn 0.9238 0.0000 0.3829
vn 0.7172 0.6302 0.2973
vn 0.3508 -0.4762 0.8063
vn 0.8075 -0.4733 0.3522
vn 0.8510 -0.3715 -0.3713
vn 0.8853 -0.0000 -0.4651
vn 0.8853 0.0000 -0.4651
vn 0.3825 0.0000 0.9240
vn 0.2969 0.6303 0.7173
vn 0.9239 0.0000 0.3827
vn 0.3827 -0.0000 0.9239
vn -0.7071 0.0000 0.7071
vn -0.6147 -0.3723 0.6954
vn -0.1690 -0.2247 0.9597
vn 1.0000 0.0000 -0.0000
vn 0.9238 -0.0000 0.3829
vn 0.0000 -1.0000 -0.0000
vn 0.0000 -0.7071 0.7071
vn 0.2259 -0.8032 0.5512
vn 0.2738 0.5753 0.7708
vn 0.0000 0.4720 0.8816
vn 0.8852 0.4653 -0.0000
vn 0.7071 -0.7071 -0.0000
vn 0.5470 -0.8052 0.2290
vn 0.7720 0.5714 0.2784
vn 0.9791 0.1439 -0.1440
vn 0.7172 -0.6302 0.2973
vn 0.3508 0.4762 0.8063
vn 0.8075 0.4733 0.3522
vn 0.8510 0.3715 -0.3713
vn 0.2969 -0.6303 0.7173
vn -0.6147 0.3723 0.6954
vn -0.1690 0.2247 0.9597
vn -1.0000 0.0000 -0.0000
# 45 vertex normals

vt 0.0392 0.7366 0.0000
vt 0.0315 0.7366 0.0000
vt 0.0315 0.6974 0.0000
vt 0.0392 0.6974 0.0000
vt 0.1571 0.7366 0.0000
vt 0.0981 0.7365 0.0000
vt 0.0981 0.6974 0.0000
vt 0.1571 0.6974 0.0000
vt 0.0315 0.6414 0.0000
vt 0.0315 0.6328 0.0000
vt 0.0392 0.6328 0.0000
vt 0.0392 0.6414 0.0000
vt 0.0862 0.3431 0.0000
vt 0.0784 0.3431 0.0000
vt 0.0784 0.3177 0.0000
vt 0.0862 0.3177 0.0000
vt 0.2025 0.3431 0.0000
vt 0.1443 0.3431 0.0000
vt 0.1443 0.3177 0.0000
vt 0.2025 0.3177 0.0000
vt 0.0392 0.7755 0.0000
vt 0.0315 0.7755 0.0000
vt 0.1571 0.7755 0.0000
vt 0.0981 0.7755 0.0000
vt 0.0392 0.6681 0.0000
vt 0.0315 0.6681 0.0000
vt 0.0315 0.6587 0.0000
vt 0.0392 0.6587 0.0000
vt 0.0981 0.6586 0.0000
vt 0.1571 0.6586 0.0000
vt 0.1571 0.6681 0.0000
vt 0.0981 0.6681 0.0000
vt 0.0056 0.7366 0.0000
vt 0.0056 0.6974 0.0000
vt 0.0056 0.6414 0.0000
vt 0.0056 0.6328 0.0000
vt 0.0529 0.3431 0.0000
vt 0.0529 0.3178 0.0000
vt 0.0056 0.7755 0.0000
vt 0.0056 0.6681 0.0000
vt 0.0056 0.6587 0.0000
vt 0.0315 0.8131 0.0000
vt 0.0313 0.8017 0.0000
vt 0.0392 0.8017 0.0000
vt 0.0392 0.8131 0.0000
vt 0.0981 0.8017 0.0000
vt 0.1571 0.8017 0.0000
vt 0.1571 0.8131 0.0000
vt 0.0981 0.8131 0.0000
vt 0.3189 0.3179 0.0000
vt 0.3189 0.3431 0.0000
vt 0.2607 0.3431 0.0000
vt 0.2607 0.3177 0.0000
vt 0.0056 0.8131 0.0000
vt 0.0056 0.8017 0.0000
vt 0.3188 0.3086 0.0000
vt 0.2797 0.3087 0.0000
vt 0.0981 0.6414 0.0000
vt 0.1571 0.6414 0.0000
vt 0.2797 0.2921 0.0000
vt 0.3184 0.2919 0.0000
vt 0.2454 0.7755 0.0000
vt 0.2453 0.8017 0.0000
vt 0.2283 0.8017 0.0000
vt 0.2283 0.7755 0.0000
vt 0.2456 0.7366 0.0000
vt 0.2283 0.7366 0.0000
vt 0.2466 0.6974 0.0000
vt 0.2283 0.6974 0.0000
vt 0.2465 0.6681 0.0000
vt 0.2283 0.6681 0.0000
vt 0.2745 0.2869 0.0000
vt 0.3179 0.2867 0.0000
vt 0.2511 0.7755 0.0000
vt 0.2519 0.8017 0.0000
vt 0.2512 0.7366 0.0000
vt 0.2514 0.7015 0.0000
vt 0.2567 0.6974 0.0000
vt 0.2567 0.7016 0.0000
vt 0.2161 0.6414 0.0000
vt 0.2299 0.6414 0.0000
vt 0.2299 0.6587 0.0000
vt 0.2161 0.6587 0.0000
vt 0.2283 0.8131 0.0000
vt 0.2161 0.8131 0.0000
vt 0.2161 0.8017 0.0000
vt 0.2521 0.8131 0.0000
vt 0.2567 0.8017 0.0000
vt 0.2567 0.8131 0.0000
vt 0.2456 0.8131 0.0000
vt 0.2161 0.6681 0.0000
vt 0.2161 0.6974 0.0000
vt 0.2161 0.7366 0.0000
vt 0.2161 0.7755 0.0000
vt 0.0981 0.6328 0.0000
vt 0.3849 0.3431 0.0000
vt 0.3771 0.3431 0.0000
vt 0.3770 0.3175 0.0000
vt 0.3849 0.3175 0.0000
vt 0.3770 0.3078 0.0000
vt 0.3176 0.2817 0.0000
vt 0.3750 0.2817 0.0000
vt 0.3751 0.2863 0.0000
vt 0.3771 0.2907 0.0000
vt 0.3849 0.3078 0.0000
vt 0.4105 0.3078 0.0000
vt 0.4105 0.3175 0.0000
vt 0.4105 0.3431 0.0000
vt 0.4105 0.2907 0.0000
vt 0.3851 0.2907 0.0000
vt 0.1571 0.6328 0.0000
vt 0.2745 0.2817 0.0000
vt 0.2567 0.7755 0.0000
vt 0.2567 0.7366 0.0000
vt 0.2567 0.6681 0.0000
vt 0.2299 0.6328 0.0000
vt 0.2161 0.6328 0.0000
vt 0.3786 0.2817 0.0000
vt 0.4105 0.2817 0.0000
vt 0.3854 0.2817 0.0000
vt 1.0392 0.7366 0.0000
vt 1.0392 0.6974 0.0000
vt 1.0315 0.6974 0.0000
vt 1.0315 0.7366 0.0000
vt 1.1571 0.7366 0.0000
vt 1.1571 0.6974 0.0000
vt 1.0981 0.6974 0.0000
vt 1.0981 0.7365 0.0000
vt 1.0315 0.6414 0.0000
vt 1.0392 0.6414 0.0000
vt 1.0392 0.6328 0.0000
vt 1.0315 0.6328 0.0000
vt 1.0862 0.3431 0.0000
vt 1.0862 0.3177 0.0000
vt 1.0784 0.3177 0.0000
vt 1.0784 0.3431 0.0000
vt 1.2025 0.3431 0.0000
vt 1.2025 0.3177 0.0000
vt 1.1443 0.3177 0.0000
vt 1.1443 0.3431 0.0000
vt 1.0392 0.7755 0.0000
vt 1.0315 0.7755 0.0000
vt 1.1571 0.7755 0.0000
vt 1.0981 0.7755 0.0000
vt 1.0392 0.6681 0.0000
vt 1.0392 0.6587 0.0000
vt 1.0315 0.6587 0.0000
vt 1.0315 0.6681 0.0000
vt 1.0981 0.6586 0.0000
vt 1.0981 0.6681 0.0000
vt 1.1571 0.6681 0.0000
vt 1.1571 0.6586 0.0000
vt 1.0056 0.6974 0.0000
vt 1.0056 0.7366 0.0000
vt 1.0056 0.6414 0.0000
vt 1.0056 0.6328 0.0000
vt 1.0529 0.3178 0.0000
vt 1.0529 0.3431 0.0000
vt 1.0056 0.7755 0.0000
vt 1.0056 0.6587 0.0000
vt 1.0056 0.6681 0.0000
vt 1.0315 0.8131 0.0000
vt 1.0392 0.8131 0.0000
vt 1.0392 0.8017 0.0000
vt 1.0313 0.8017 0.0000
vt 1.0981 0.8017 0.0000
vt 1.0981 0.8131 0.0000
vt 1.1571 0.8131 0.0000
vt 1.1571 0.8017 0.0000
vt 1.3189 0.3179 0.0000
vt 1.2607 0.3177 0.0000
vt 1.2607 0.3431 0.0000
vt 1.3189 0.3431 0.0000
vt 1.0056 0.8131 0.0000
vt 1.0056 0.8017 0.0000
vt 1.3188 0.3086 0.0000
vt 1.2797 0.3087 0.0000
vt 1.1571 0.6414 0.0000
vt 1.0981 0.6414 0.0000
vt 1.2797 0.2921 0.0000
vt 1.3184 0.2919 0.0000
vt 1.2454 0.7755 0.0000
vt 1.2283 0.7755 0.0000
vt 1.2283 0.8017 0.0000
vt 1.2453 0.8017 0.0000
vt 1.2456 0.7366 0.0000
vt 1.2283 0.7366 0.0000
vt 1.2466 0.6974 0.0000
vt 1.2283 0.6974 0.0000
vt 1.2465 0.6681 0.0000
vt 1.2283 0.6681 0.0000
vt 1.3179 0.2867 0.0000
vt 1.2745 0.2869 0.0000
vt 1.2520 0.8017 0.0000
vt 1.2511 0.7755 0.0000
vt 1.2512 0.7366 0.0000
vt 1.2514 0.7015 0.0000
vt 1.2567 0.7016 0.0000
vt 1.2567 0.6974 0.0000
vt 1.2161 0.6414 0.0000
vt 1.2161 0.6587 0.0000
vt 1.2299 0.6587 0.0000
vt 1.2299 0.6414 0.0000
vt 1.2161 0.8017 0.0000
vt 1.2161 0.8131 0.0000
vt 1.2283 0.8131 0.0000
vt 1.2521 0.8131 0.0000
vt 1.2567 0.8131 0.0000
vt 1.2567 0.8017 0.0000
vt 1.2456 0.8131 0.0000
vt 1.2161 0.6681 0.0000
vt 1.2161 0.6974 0.0000
vt 1.2161 0.7366 0.0000
vt 1.2161 0.7755 0.0000
vt 1.0981 0.6328 0.0000
vt 1.3849 0.3431 0.0000
vt 1.3849 0.3175 0.0000
vt 1.3770 0.3175 0.0000
vt 1.3771 0.3431 0.0000
vt 1.3770 0.3078 0.0000
vt 1.3751 0.2863 0.0000
vt 1.3750 0.2817 0.0000
vt 1.3176 0.2817 0.0000
vt 1.3771 0.2907 0.0000
vt 1.3849 0.3078 0.0000
vt 1.4105 0.3175 0.0000
vt 1.4105 0.3078 0.0000
vt 1.4105 0.3431 0.0000
vt 1.4105 0.2907 0.0000
vt 1.3851 0.2907 0.0000
vt 1.1571 0.6328 0.0000
vt 1.2745 0.2817 0.0000
vt 1.2567 0.7755 0.0000
vt 1.2567 0.7366 0.0000
vt 1.2567 0.6681 0.0000
vt 1.2299 0.6328 0.0000
vt 1.2161 0.6328 0.0000
vt 1.3786 0.2817 0.0000
vt 1.4105 0.2817 0.0000
vt 1.3854 0.2817 0.0000
# 240 texture coords

o ground_platform1
g ground_platform1
f 1/1/1 2/2/1 3/3/1 4/4/1 
f 5/5/1 6/6/1 7/7/1 8/8/1 
f 9/9/2 10/10/2 11/11/2 12/12/2 
f 13/13/1 14/14/1 15/15/1 16/16/1 
f 17/17/1 18/18/1 19/19/1 20/20/1 
f 21/21/1 22/22/1 2/2/1 1/1/1 
f 23/23/1 24/24/1 6/6/1 5/5/1 
f 25/25/1 26/26/1 27/27/3 28/28/3 
f 29/29/3 30/30/3 31/31/1 32/32/1 
f 4/4/1 3/3/1 26/26/1 25/25/1 
f 8/8/1 7/7/1 32/32/1 31/31/1 
f 2/2/1 33/33/1 34/34/1 3/3/1 
f 35/35/2 36/36/2 10/10/2 9/9/2 
f 14/14/1 37/37/1 38/38/1 15/15/1 
f 22/22/1 39/39/1 33/33/1 2/2/1 
f 26/26/1 40/40/1 41/41/3 27/27/3 
f 3/3/1 34/34/1 40/40/1 26/26/1 
f 15/42/1 42/43/1 43/44/1 16/45/1 
f 44/46/1 45/47/1 20/48/1 19/49/1 
f 46/50/1 47/51/1 48/52/1 49/53/1 
f 38/54/1 50/55/1 42/43/1 15/42/1 
f 51/56/3 46/50/1 49/53/1 52/57/4 
f 42/43/1 22/22/1 21/21/1 43/44/1 
f 24/24/1 23/23/1 45/47/1 44/46/1 
f 50/55/1 39/39/1 22/22/1 42/43/1 
f 12/12/2 28/28/3 27/27/3 9/9/2 
f 30/30/3 29/29/3 53/58/2 54/59/2 
f 9/9/2 27/27/3 41/41/3 35/35/2 
f 55/60/5 56/61/6 51/56/3 52/57/4 
f 57/62/7 58/63/8 59/64/9 60/65/10 
f 61/66/7 57/62/7 60/65/10 62/67/10 
f 63/68/11 61/66/7 62/67/10 64/69/10 
f 65/70/12 63/68/11 64/69/10 66/71/13 
f 56/61/6 55/60/5 67/72/14 68/73/6 
f 58/63/8 57/62/7 69/74/7 70/75/15 
f 57/62/7 61/66/7 71/76/7 69/74/7 
f 61/66/7 63/68/11 72/77/16 71/76/7 
f 63/68/11 73/78/17 74/79/18 72/77/16 
f 75/80/19 65/81/12 66/82/13 76/83/20 
f 59/64/9 52/84/4 49/85/1 77/86/1 
f 67/87/14 70/75/15 78/88/21 79/89/22 
f 52/84/4 59/64/9 58/63/8 55/90/5 
f 55/90/5 58/63/8 70/75/15 67/87/14 
f 76/83/20 66/71/13 80/91/1 
f 80/91/1 66/71/13 64/69/10 81/92/1 
f 81/92/1 64/69/10 62/67/10 82/93/1 
f 82/93/1 62/67/10 60/65/10 83/94/1 
f 83/94/1 60/65/10 59/64/9 77/86/1 
f 6/6/1 1/1/1 4/4/1 7/7/1 
f 8/8/1 81/92/1 82/93/1 5/5/1 
f 53/58/2 12/12/2 11/11/2 84/95/2 
f 18/18/1 13/13/1 16/16/1 19/19/1 
f 20/20/1 49/53/1 48/52/1 17/17/1 
f 24/24/1 21/21/1 1/1/1 6/6/1 
f 5/5/1 82/93/1 83/94/1 23/23/1 
f 30/30/3 76/83/20 80/91/1 31/31/1 
f 32/32/1 25/25/1 28/28/3 29/29/3 
f 7/7/1 4/4/1 25/25/1 32/32/1 
f 31/31/1 80/91/1 81/92/1 8/8/1 
f 45/47/1 77/86/1 49/85/1 20/48/1 
f 19/49/1 16/45/1 43/44/1 44/46/1 
f 23/23/1 83/94/1 77/86/1 45/47/1 
f 44/46/1 43/44/1 21/21/1 24/24/1 
f 29/29/3 28/28/3 12/12/2 53/58/2 
f 54/59/2 75/80/19 76/83/20 30/30/3 
f 85/96/1 86/97/1 87/98/1 88/99/1 
f 87/98/1 86/97/1 47/51/1 46/50/1 
f 46/50/1 51/56/3 89/100/3 87/98/1 
f 68/73/6 90/101/2 91/102/23 92/103/24 
f 51/56/3 56/61/6 93/104/25 89/100/3 
f 56/61/6 68/73/6 92/103/24 93/104/25 
f 87/98/1 89/100/3 94/105/3 88/99/1 
f 94/105/3 95/106/3 96/107/1 88/99/1 
f 88/99/1 96/107/1 97/108/1 85/96/1 
f 98/109/2 95/106/3 94/105/3 99/110/2 
f 99/110/2 94/105/3 89/100/3 93/104/25 
f 100/111/2 54/59/2 53/58/2 84/95/2 
f 90/101/2 68/73/6 67/72/14 79/112/22 
f 78/88/21 70/75/15 69/74/7 101/113/26 
f 101/113/26 69/74/7 71/76/7 102/114/26 
f 102/114/26 71/76/7 72/77/16 74/79/18 
f 73/78/17 63/68/11 65/70/12 103/115/27 
f 103/116/27 65/81/12 75/80/19 104/117/19 
f 104/117/19 75/80/19 54/59/2 100/111/2 
f 105/118/23 93/104/25 92/103/24 91/102/23 
f 106/119/2 98/109/2 99/110/2 107/120/2 
f 107/120/2 99/110/2 93/104/25 105/118/23 
f 108/121/28 109/122/28 110/123/28 111/124/28 
f 112/125/28 113/126/28 114/127/28 115/128/28 
f 116/129/2 117/130/2 11/131/2 10/132/2 
f 118/133/28 119/134/28 120/135/28 121/136/28 
f 122/137/28 123/138/28 124/139/28 125/140/28 
f 126/141/28 108/121/28 111/124/28 127/142/28 
f 128/143/28 112/125/28 115/128/28 129/144/28 
f 130/145/28 131/146/29 132/147/29 133/148/28 
f 134/149/29 135/150/28 136/151/28 137/152/29 
f 109/122/28 130/145/28 133/148/28 110/123/28 
f 113/126/28 136/151/28 135/150/28 114/127/28 
f 111/124/28 110/123/28 138/153/28 139/154/28 
f 140/155/2 116/129/2 10/132/2 36/156/2 
f 121/136/28 120/135/28 141/157/28 142/158/28 
f 127/142/28 111/124/28 139/154/28 143/159/28 
f 133/148/28 132/147/29 144/160/29 145/161/28 
f 110/123/28 133/148/28 145/161/28 138/153/28 
f 120/162/28 119/163/28 146/164/28 147/165/28 
f 148/166/28 124/167/28 123/168/28 149/169/28 
f 150/170/28 151/171/28 152/172/28 153/173/28 
f 141/174/28 120/162/28 147/165/28 154/175/28 
f 155/176/29 156/177/30 151/171/28 150/170/28 
f 147/165/28 146/164/28 126/141/28 127/142/28 
f 129/144/28 148/166/28 149/169/28 128/143/28 
f 154/175/28 147/165/28 127/142/28 143/159/28 
f 117/130/2 116/129/2 132/147/29 131/146/29 
f 137/152/29 157/178/2 158/179/2 134/149/29 
f 116/129/2 140/155/2 144/160/29 132/147/29 
f 159/180/31 156/177/30 155/176/29 160/181/32 
f 161/182/33 162/183/34 163/184/35 164/185/36 
f 165/186/33 166/187/34 162/183/34 161/182/33 
f 167/188/37 168/189/34 166/187/34 165/186/33 
f 169/190/27 170/191/38 168/189/34 167/188/37 
f 160/181/32 171/192/32 172/193/39 159/180/31 
f 164/185/36 173/194/40 174/195/33 161/182/33 
f 161/182/33 174/195/33 175/196/33 165/186/33 
f 165/186/33 175/196/33 176/197/41 167/188/37 
f 167/188/37 176/197/41 74/198/18 73/199/17 
f 177/200/19 178/201/42 170/202/38 169/203/27 
f 163/184/35 179/204/28 151/205/28 156/206/30 
f 172/207/39 79/208/22 78/209/21 173/194/40 
f 156/206/30 159/210/31 164/185/36 163/184/35 
f 159/210/31 172/207/39 173/194/40 164/185/36 
f 178/201/42 180/211/28 170/191/38 
f 180/211/28 181/212/28 168/189/34 170/191/38 
f 181/212/28 182/213/28 166/187/34 168/189/34 
f 182/213/28 183/214/28 162/183/34 166/187/34 
f 183/214/28 179/204/28 163/184/35 162/183/34 
f 115/128/28 114/127/28 109/122/28 108/121/28 
f 113/126/28 112/125/28 182/213/28 181/212/28 
f 158/179/2 84/215/2 11/131/2 117/130/2 
f 125/140/28 124/139/28 119/134/28 118/133/28 
f 123/138/28 122/137/28 152/172/28 151/171/28 
f 129/144/28 115/128/28 108/121/28 126/141/28 
f 112/125/28 128/143/28 183/214/28 182/213/28 
f 137/152/29 136/151/28 180/211/28 178/201/42 
f 135/150/28 134/149/29 131/146/29 130/145/28 
f 114/127/28 135/150/28 130/145/28 109/122/28 
f 136/151/28 113/126/28 181/212/28 180/211/28 
f 149/169/28 123/168/28 151/205/28 179/204/28 
f 124/167/28 148/166/28 146/164/28 119/163/28 
f 128/143/28 149/169/28 179/204/28 183/214/28 
f 148/166/28 129/144/28 126/141/28 146/164/28 
f 134/149/29 158/179/2 117/130/2 131/146/29 
f 157/178/2 137/152/29 178/201/42 177/200/19 
f 184/216/28 185/217/28 186/218/28 187/219/28 
f 186/218/28 150/170/28 153/173/28 187/219/28 
f 150/170/28 186/218/28 188/220/29 155/176/29 
f 171/192/32 189/221/43 91/222/23 90/223/2 
f 155/176/29 188/220/29 190/224/44 160/181/32 
f 160/181/32 190/224/44 189/221/43 171/192/32 
f 186/218/28 185/217/28 191/225/29 188/220/29 
f 191/225/29 185/217/28 192/226/28 193/227/29 
f 185/217/28 184/216/28 194/228/28 192/226/28 
f 195/229/2 196/230/2 191/225/29 193/227/29 
f 196/230/2 190/224/44 188/220/29 191/225/29 
f 100/231/2 84/215/2 158/179/2 157/178/2 
f 90/223/2 79/232/22 172/193/39 171/192/32 
f 78/209/21 101/233/26 174/195/33 173/194/40 
f 101/233/26 102/234/26 175/196/33 174/195/33 
f 102/234/26 74/198/18 176/197/41 175/196/33 
f 73/199/17 103/235/27 169/190/27 167/188/37 
f 103/236/27 104/237/19 177/200/19 169/203/27 
f 104/237/19 100/231/2 157/178/2 177/200/19 
f 105/238/23 91/222/23 189/221/43 190/224/44 
f 106/239/2 107/240/2 196/230/2 195/229/2 
f 107/240/2 105/238/23 190/224/44 196/230/2 
f 34/34/45 33/33/45 197/33/45 198/34/45 
f 38/38/45 37/37/45 199/37/45 200/38/45 
f 33/33/45 39/39/45 201/39/45 197/33/45 
f 41/41/45 40/40/45 202/40/45 35/41/45 
f 40/40/45 34/34/45 198/34/45 202/40/45 
f 50/55/45 38/54/45 200/54/45 203/55/45 
f 39/39/45 50/55/45 203/55/45 201/39/45 
f 96/107/26 95/106/26 98/106/26 204/107/26 
f 97/108/26 96/107/26 204/107/26 205/108/26 
f 198/34/45 197/33/45 206/33/45 207/34/45 
f 200/38/45 199/37/45 208/37/45 209/38/45 
f 197/33/45 201/39/45 210/39/45 206/33/45 
f 35/41/45 202/40/45 211/40/45 36/41/45 
f 202/40/45 198/34/45 207/34/45 211/40/45 
f 203/55/45 200/54/45 209/54/45 212/55/45 
f 201/39/45 203/55/45 212/55/45 210/39/45 
f 204/107/26 98/106/26 106/106/26 213/107/26 
f 205/108/26 204/107/26 213/107/26 214/108/26 
f 215/34/45 216/33/45 139/33/45 138/34/45 
f 217/38/45 218/37/45 142/37/45 141/38/45 
f 216/33/45 219/39/45 143/39/45 139/33/45 
f 140/41/45 220/40/45 145/40/45 144/41/45 
f 220/40/45 215/34/45 138/34/45 145/40/45 
f 221/55/45 217/54/45 141/54/45 154/55/45 
f 219/39/45 221/55/45 154/55/45 143/39/45 
f 222/107/26 195/106/26 193/106/26 192/107/26 
f 223/108/26 222/107/26 192/107/26 194/108/26 
f 206/33/45 216/33/45 215/34/45 207/34/45 
f 208/37/45 218/37/45 217/38/45 209/38/45 
f 210/39/45 219/39/45 216/33/45 206/33/45 
f 211/40/45 220/40/45 140/41/45 36/41/45 
f 207/34/45 215/34/45 220/40/45 211/40/45 
f 209/54/45 217/54/45 221/55/45 212/55/45 
f 212/55/45 221/55/45 219/39/45 210/39/45 
f 106/106/26 195/106/26 222/107/26 213/107/26 
f 213/107/26 222/107/26 223/108/26 214/108/26 
# 208 polygons - 2 triangles

