# 3ds Max Wavefront OBJ Exporter v0.97b - (c)2007 guruware
# File Created: 07.12.2019 17:06:44

#
# object ground_dip
#

v  1.3026 2.0000 4.0000
v  1.0000 2.0000 4.0000
v  1.0000 2.0000 5.5000
v  1.3026 2.0000 5.5000
v  3.5816 2.0000 4.0000
v  3.5816 2.0000 5.5000
v  1.0000 1.3333 7.0000
v  1.0000 0.6667 7.0000
v  1.3026 0.6667 7.0000
v  1.3026 1.3333 7.0000
v  3.5816 0.8869 7.0000
v  3.5816 1.3333 7.0000
v  1.3026 2.0000 0.0000
v  1.0000 2.0000 0.0000
v  1.0000 2.0000 1.0000
v  1.3026 2.0000 1.0000
v  3.5816 2.0000 0.0000
v  3.5816 2.0000 1.0000
v  5.8605 2.0000 0.0000
v  5.8605 2.0000 1.0000
v  1.3026 2.0000 2.5000
v  1.0000 2.0000 2.5000
v  3.5816 2.0000 2.5000
v  1.3026 2.0000 6.6321
v  1.0000 2.0000 6.6321
v  1.0000 2.0000 7.0000
v  1.3026 2.0000 7.0000
v  3.5816 2.0000 6.6321
v  3.5816 2.0000 7.0000
v  0.0000 2.0000 4.0000
v  0.0000 2.0000 5.5000
v  0.0000 1.3333 7.0000
v  0.0000 0.6667 7.0000
v  0.0000 2.0000 0.0000
v  0.0000 2.0000 1.0000
v  0.0000 2.0000 2.5000
v  0.0000 2.0000 6.6321
v  0.0000 2.0000 7.0000
v  1.0000 2.0000 1.3750
v  1.3026 2.0000 1.3750
v  3.5816 2.0000 1.3750
v  5.8605 2.0000 1.3750
v  0.0000 2.0000 1.3750
v  1.0000 0.0000 7.0000
v  1.3026 0.0000 7.0000
v  5.8605 1.3333 7.0000
v  0.0000 0.0000 7.0000
v  5.8605 1.3333 5.5000
v  5.8605 1.3333 4.0000
v  5.8605 1.3333 2.5000
v  5.8605 1.3333 6.6321
v  5.8605 1.3333 1.3750
v  7.0000 1.3333 2.5000
v  7.0000 1.3333 1.3750
v  7.0000 1.3333 4.0000
v  7.0000 1.3333 5.5000
v  5.8605 0.0000 7.0000
v  5.8605 1.1071 7.0000
v  3.5816 0.0000 7.0000
v  7.0000 2.0000 1.3750
v  7.0000 2.0000 1.0000
v  7.0000 1.1071 7.0000
v  7.0000 1.3333 6.6321
v  7.0000 2.0000 0.0000
v  7.0000 0.0000 7.0000
v  12.6974 2.0000 4.0000
v  12.6974 2.0000 5.5000
v  13.0000 2.0000 5.5000
v  13.0000 2.0000 4.0000
v  10.4184 2.0000 4.0000
v  10.4184 2.0000 5.5000
v  13.0000 1.3333 7.0000
v  12.6974 1.3333 7.0000
v  12.6974 0.6667 7.0000
v  13.0000 0.6667 7.0000
v  10.4184 1.3333 7.0000
v  10.4184 0.8869 7.0000
v  12.6974 2.0000 0.0000
v  12.6974 2.0000 1.0000
v  13.0000 2.0000 1.0000
v  13.0000 2.0000 0.0000
v  10.4184 2.0000 0.0000
v  10.4184 2.0000 1.0000
v  8.1395 2.0000 0.0000
v  8.1395 2.0000 1.0000
v  12.6974 2.0000 2.5000
v  13.0000 2.0000 2.5000
v  10.4184 2.0000 2.5000
v  12.6974 2.0000 6.6321
v  12.6974 2.0000 7.0000
v  13.0000 2.0000 7.0000
v  13.0000 2.0000 6.6321
v  10.4184 2.0000 6.6321
v  10.4184 2.0000 7.0000
v  14.0000 2.0000 5.5000
v  14.0000 2.0000 4.0000
v  14.0000 1.3333 7.0000
v  14.0000 0.6667 7.0000
v  14.0000 2.0000 1.0000
v  14.0000 2.0000 0.0000
v  14.0000 2.0000 2.5000
v  14.0000 2.0000 7.0000
v  14.0000 2.0000 6.6321
v  12.6974 2.0000 1.3750
v  13.0000 2.0000 1.3750
v  10.4184 2.0000 1.3750
v  8.1395 2.0000 1.3750
v  14.0000 2.0000 1.3750
v  12.6974 0.0000 7.0000
v  13.0000 0.0000 7.0000
v  8.1395 1.3333 7.0000
v  14.0000 0.0000 7.0000
v  8.1395 1.3333 4.0000
v  8.1395 1.3333 5.5000
v  8.1395 1.3333 2.5000
v  8.1395 1.3333 6.6321
v  8.1395 1.3333 1.3750
v  8.1395 0.0000 7.0000
v  10.4184 0.0000 7.0000
v  8.1395 1.1071 7.0000
v  5.8605 0.0000 6.6321
v  7.0000 0.0000 6.6321
v  5.8605 0.0000 5.5000
v  7.0000 0.0000 5.5000
v  1.3026 0.0000 4.0000
v  1.3026 0.0000 5.5000
v  1.0000 0.0000 5.5000
v  1.0000 0.0000 4.0000
v  3.5816 0.0000 4.0000
v  3.5816 0.0000 5.5000
v  5.8605 0.0000 4.0000
v  1.3026 0.0000 0.0000
v  1.3026 0.0000 1.0000
v  1.0000 0.0000 1.0000
v  1.0000 0.0000 0.0000
v  3.5816 0.0000 0.0000
v  3.5816 0.0000 1.0000
v  5.8605 0.0000 0.0000
v  5.8605 0.0000 1.0000
v  1.3026 0.0000 2.5000
v  1.0000 0.0000 2.5000
v  3.5816 0.0000 2.5000
v  5.8605 0.0000 2.5000
v  1.3026 0.0000 6.6321
v  1.0000 0.0000 6.6321
v  3.5816 0.0000 6.6321
v  0.0000 0.0000 5.5000
v  0.0000 0.0000 4.0000
v  0.0000 0.0000 1.0000
v  0.0000 0.0000 0.0000
v  0.0000 0.0000 2.5000
v  0.0000 0.0000 6.6321
v  7.0000 0.0000 1.0000
v  7.0000 0.0000 1.3750
v  5.8605 0.0000 1.3750
v  1.3026 0.0000 1.3750
v  1.0000 0.0000 1.3750
v  3.5816 0.0000 1.3750
v  0.0000 0.0000 1.3750
v  7.0000 0.0000 2.5000
v  7.0000 0.0000 4.0000
v  7.0000 0.0000 0.0000
v  8.1395 0.0000 6.6321
v  8.1395 0.0000 5.5000
v  12.6974 0.0000 4.0000
v  13.0000 0.0000 4.0000
v  13.0000 0.0000 5.5000
v  12.6974 0.0000 5.5000
v  10.4184 0.0000 4.0000
v  10.4184 0.0000 5.5000
v  8.1395 0.0000 4.0000
v  12.6974 0.0000 0.0000
v  13.0000 0.0000 0.0000
v  13.0000 0.0000 1.0000
v  12.6974 0.0000 1.0000
v  10.4184 0.0000 0.0000
v  10.4184 0.0000 1.0000
v  8.1395 0.0000 0.0000
v  8.1395 0.0000 1.0000
v  12.6974 0.0000 2.5000
v  13.0000 0.0000 2.5000
v  10.4184 0.0000 2.5000
v  8.1395 0.0000 2.5000
v  12.6974 0.0000 6.6321
v  13.0000 0.0000 6.6321
v  10.4184 0.0000 6.6321
v  14.0000 0.0000 4.0000
v  14.0000 0.0000 5.5000
v  14.0000 0.0000 0.0000
v  14.0000 0.0000 1.0000
v  14.0000 0.0000 2.5000
v  14.0000 0.0000 6.6321
v  8.1395 0.0000 1.3750
v  13.0000 0.0000 1.3750
v  12.6974 0.0000 1.3750
v  10.4184 0.0000 1.3750
v  14.0000 0.0000 1.3750
v  0.0000 1.3333 4.0000
v  0.0000 1.3333 5.5000
v  0.0000 1.3333 0.0000
v  0.0000 1.3333 1.0000
v  0.0000 1.3333 2.5000
v  0.0000 1.3333 6.6321
v  0.0000 1.3333 1.3750
v  14.0000 1.3333 5.5000
v  14.0000 1.3333 4.0000
v  14.0000 1.3333 1.0000
v  14.0000 1.3333 0.0000
v  14.0000 1.3333 2.5000
v  14.0000 1.3333 6.6321
v  14.0000 1.3333 1.3750
v  0.0000 0.6667 4.0000
v  0.0000 0.6667 5.5000
v  0.0000 0.6667 0.0000
v  0.0000 0.6667 1.0000
v  0.0000 0.6667 2.5000
v  0.0000 0.6667 6.6321
v  0.0000 0.6667 1.3750
v  14.0000 0.6667 5.5000
v  14.0000 0.6667 4.0000
v  14.0000 0.6667 1.0000
v  14.0000 0.6667 0.0000
v  14.0000 0.6667 2.5000
v  14.0000 0.6667 6.6321
v  14.0000 0.6667 1.3750
# 225 vertices

vn 0.0000 1.0000 -0.0000
vn 0.1418 0.9899 -0.0000
vn 0.0000 0.0000 1.0000
vn 0.0000 0.7071 0.7071
vn 0.1044 0.7290 0.6765
vn 0.0707 0.9965 0.0456
vn 0.0000 -0.7071 0.7071
vn 0.6439 0.4825 0.5938
vn 0.2331 0.9632 0.1337
vn 0.1762 0.2313 0.9568
vn 0.0000 0.4879 0.8729
vn 0.0000 0.9623 0.2721
vn -0.1418 0.9899 -0.0000
vn -0.1044 0.7290 0.6765
vn -0.0707 0.9965 0.0456
vn -0.6439 0.4825 0.5938
vn -0.2331 0.9632 0.1337
vn -0.1762 0.2313 0.9568
vn 0.0000 -1.0000 -0.0000
vn -1.0000 0.0000 -0.0000
vn 1.0000 0.0000 -0.0000
# 21 vertex normals

vt 0.2673 0.1328 0.0000
vt 0.2593 0.1328 0.0000
vt 0.2593 0.0937 0.0000
vt 0.2673 0.0937 0.0000
vt 0.3267 0.1328 0.0000
vt 0.3267 0.0937 0.0000
vt 0.2593 0.0421 0.0000
vt 0.2593 0.0271 0.0000
vt 0.2673 0.0271 0.0000
vt 0.2673 0.0421 0.0000
vt 0.3267 0.0339 0.0000
vt 0.3267 0.0432 0.0000
vt 0.2673 0.2416 0.0000
vt 0.2593 0.2416 0.0000
vt 0.2593 0.2131 0.0000
vt 0.2673 0.2131 0.0000
vt 0.3267 0.2416 0.0000
vt 0.3267 0.2135 0.0000
vt 0.3874 0.2416 0.0000
vt 0.3874 0.2200 0.0000
vt 0.2673 0.1719 0.0000
vt 0.2593 0.1719 0.0000
vt 0.3267 0.1719 0.0000
vt 0.2673 0.0642 0.0000
vt 0.2593 0.0642 0.0000
vt 0.2593 0.0572 0.0000
vt 0.2673 0.0572 0.0000
vt 0.3267 0.0642 0.0000
vt 0.3267 0.0580 0.0000
vt 0.2333 0.1328 0.0000
vt 0.2333 0.0937 0.0000
vt 0.2333 0.0421 0.0000
vt 0.2333 0.0271 0.0000
vt 0.2333 0.2416 0.0000
vt 0.2333 0.2131 0.0000
vt 0.2333 0.1719 0.0000
vt 0.2333 0.0642 0.0000
vt 0.2333 0.0572 0.0000
vt 0.2593 0.2013 0.0000
vt 0.2673 0.2013 0.0000
vt 0.3267 0.2013 0.0000
vt 0.3874 0.2137 0.0000
vt 0.2333 0.2013 0.0000
vt 0.2593 0.0131 0.0000
vt 0.2673 0.0131 0.0000
vt 0.3849 0.0527 0.0000
vt 0.2333 0.0131 0.0000
vt 0.3874 0.0937 0.0000
vt 0.3874 0.1328 0.0000
vt 0.3874 0.1719 0.0000
vt 0.3874 0.0642 0.0000
vt 0.3874 0.2013 0.0000
vt 0.4171 0.1719 0.0000
vt 0.4171 0.2013 0.0000
vt 0.4171 0.1328 0.0000
vt 0.4171 0.0937 0.0000
vt 0.3878 0.0131 0.0000
vt 0.3874 0.0481 0.0000
vt 0.3267 0.0131 0.0000
vt 0.4171 0.2143 0.0000
vt 0.4171 0.2206 0.0000
vt 0.4171 0.0480 0.0000
vt 0.4171 0.0642 0.0000
vt 0.4171 0.2416 0.0000
vt 0.4171 0.0131 0.0000
vt 0.2673 1.1328 0.0000
vt 0.2673 1.0937 0.0000
vt 0.2593 1.0937 0.0000
vt 0.2593 1.1328 0.0000
vt 0.3267 1.1328 0.0000
vt 0.3267 1.0937 0.0000
vt 0.2593 1.0421 0.0000
vt 0.2673 1.0421 0.0000
vt 0.2673 1.0271 0.0000
vt 0.2593 1.0271 0.0000
vt 0.3267 1.0432 0.0000
vt 0.3267 1.0339 0.0000
vt 0.2673 1.2416 0.0000
vt 0.2673 1.2131 0.0000
vt 0.2593 1.2131 0.0000
vt 0.2593 1.2416 0.0000
vt 0.3267 1.2416 0.0000
vt 0.3267 1.2135 0.0000
vt 0.3874 1.2416 0.0000
vt 0.3874 1.2200 0.0000
vt 0.2673 1.1719 0.0000
vt 0.2593 1.1719 0.0000
vt 0.3267 1.1719 0.0000
vt 0.2673 1.0642 0.0000
vt 0.2673 1.0572 0.0000
vt 0.2593 1.0572 0.0000
vt 0.2593 1.0642 0.0000
vt 0.3267 1.0642 0.0000
vt 0.3267 1.0580 0.0000
vt 0.2333 1.0937 0.0000
vt 0.2333 1.1328 0.0000
vt 0.2333 1.0421 0.0000
vt 0.2333 1.0271 0.0000
vt 0.2333 1.2131 0.0000
vt 0.2333 1.2416 0.0000
vt 0.2333 1.1719 0.0000
vt 0.2333 1.0572 0.0000
vt 0.2333 1.0642 0.0000
vt 0.2673 1.2013 0.0000
vt 0.2593 1.2013 0.0000
vt 0.3267 1.2013 0.0000
vt 0.3874 1.2137 0.0000
vt 0.2333 1.2013 0.0000
vt 0.2673 1.0131 0.0000
vt 0.2593 1.0131 0.0000
vt 0.3849 1.0527 0.0000
vt 0.2333 1.0131 0.0000
vt 0.3874 1.1328 0.0000
vt 0.3874 1.0937 0.0000
vt 0.3874 1.1719 0.0000
vt 0.3874 1.0642 0.0000
vt 0.3874 1.2013 0.0000
vt 0.4171 1.2013 0.0000
vt 0.4171 1.1719 0.0000
vt 0.4171 1.1328 0.0000
vt 0.4171 1.0937 0.0000
vt 0.3878 1.0131 0.0000
vt 0.3267 1.0131 0.0000
vt 0.3874 1.0481 0.0000
vt 0.4171 1.2206 0.0000
vt 0.4171 1.2143 0.0000
vt 0.4171 1.0642 0.0000
vt 0.4171 1.0480 0.0000
vt 0.4171 1.2416 0.0000
vt 0.4171 1.0131 0.0000
vt 1.1982 0.1288 0.0000
vt 1.1982 0.1381 0.0000
vt 1.2271 0.1381 0.0000
vt 1.2271 0.1288 0.0000
vt 1.1982 0.1669 0.0000
vt 1.2271 0.1669 0.0000
vt 1.0822 0.2051 0.0000
vt 1.0822 0.1669 0.0000
vt 1.0745 0.1669 0.0000
vt 1.0745 0.2051 0.0000
vt 1.1402 0.2051 0.0000
vt 1.1402 0.1669 0.0000
vt 1.1982 0.2051 0.0000
vt 1.0822 0.3068 0.0000
vt 1.0822 0.2814 0.0000
vt 1.0745 0.2814 0.0000
vt 1.0745 0.3068 0.0000
vt 1.1402 0.3068 0.0000
vt 1.1402 0.2814 0.0000
vt 1.1981 0.3068 0.0000
vt 1.1981 0.2814 0.0000
vt 1.0822 0.2432 0.0000
vt 1.0745 0.2432 0.0000
vt 1.1402 0.2432 0.0000
vt 1.1982 0.2432 0.0000
vt 1.0822 0.1381 0.0000
vt 1.0822 0.1288 0.0000
vt 1.0745 0.1288 0.0000
vt 1.0745 0.1381 0.0000
vt 1.1402 0.1381 0.0000
vt 1.1402 0.1288 0.0000
vt 1.0491 0.1669 0.0000
vt 1.0491 0.2051 0.0000
vt 1.0491 0.2814 0.0000
vt 1.0491 0.3068 0.0000
vt 1.0491 0.2432 0.0000
vt 1.0491 0.1288 0.0000
vt 1.0491 0.1381 0.0000
vt 1.2271 0.2814 0.0000
vt 1.2271 0.2719 0.0000
vt 1.1981 0.2719 0.0000
vt 1.0822 0.2719 0.0000
vt 1.0745 0.2719 0.0000
vt 1.1402 0.2719 0.0000
vt 1.0491 0.2718 0.0000
vt 1.2271 0.2432 0.0000
vt 1.2271 0.2051 0.0000
vt 1.2271 0.3068 0.0000
# 178 texture coords

o ground_dip
g ground_dip
f 1/1/1 2/2/1 3/3/1 4/4/1 
f 5/5/2 1/1/1 4/4/1 6/6/2 
f 7/7/3 8/8/3 9/9/3 10/10/3 
f 10/10/3 9/9/3 11/11/3 12/12/3 
f 13/13/1 14/14/1 15/15/1 16/16/1 
f 17/17/1 13/13/1 16/16/1 18/18/1 
f 19/19/1 17/17/1 18/18/1 20/20/1 
f 21/21/1 22/22/1 2/2/1 1/1/1 
f 23/23/2 21/21/1 1/1/1 5/5/2 
f 24/24/1 25/25/1 26/26/4 27/27/4 
f 28/28/2 24/24/1 27/27/4 29/29/5 
f 4/4/1 3/3/1 25/25/1 24/24/1 
f 6/6/2 4/4/1 24/24/1 28/28/2 
f 2/2/1 30/30/1 31/31/1 3/3/1 
f 32/32/3 33/33/3 8/8/3 7/7/3 
f 14/14/1 34/34/1 35/35/1 15/15/1 
f 22/22/1 36/36/1 30/30/1 2/2/1 
f 25/25/1 37/37/1 38/38/4 26/26/4 
f 3/3/1 31/31/1 37/37/1 25/25/1 
f 15/15/1 39/39/1 40/40/1 16/16/1 
f 16/16/1 40/40/1 41/41/6 18/18/1 
f 18/18/1 41/41/6 42/42/4 20/20/1 
f 35/35/1 43/43/1 39/39/1 15/15/1 
f 39/39/1 22/22/1 21/21/1 40/40/1 
f 40/40/1 21/21/1 23/23/2 41/41/6 
f 43/43/1 36/36/1 22/22/1 39/39/1 
f 8/8/3 44/44/7 45/45/7 9/9/3 
f 10/10/3 27/27/4 26/26/4 7/7/3 
f 46/46/8 29/29/5 12/12/3 
f 33/33/3 47/47/7 44/44/7 8/8/3 
f 7/7/3 26/26/4 38/38/4 32/32/3 
f 5/5/2 6/6/2 48/48/2 49/49/2 
f 23/23/2 5/5/2 49/49/2 50/50/2 
f 28/28/2 29/29/5 46/46/8 51/51/9 
f 6/6/2 28/28/2 51/51/9 48/48/2 
f 41/41/6 23/23/2 50/50/2 52/52/5 
f 42/42/4 41/41/6 52/52/5 
f 52/52/5 50/50/2 53/53/1 54/54/4 
f 50/50/2 49/49/2 55/55/1 53/53/1 
f 49/49/2 48/48/2 56/56/1 55/55/1 
f 57/57/7 58/58/10 11/11/3 59/59/7 
f 58/58/10 51/51/9 46/46/8 
f 11/11/3 58/58/10 46/46/8 12/12/3 
f 11/11/3 9/9/3 45/45/7 59/59/7 
f 29/29/5 27/27/4 10/10/3 12/12/3 
f 20/20/1 42/42/4 60/60/4 61/61/1 
f 51/51/9 58/58/10 62/62/11 63/63/12 
f 64/64/1 19/19/1 20/20/1 61/61/1 
f 60/60/4 42/42/4 52/52/5 54/54/4 
f 56/56/1 48/48/2 51/51/9 63/63/12 
f 62/62/11 58/58/10 57/57/7 65/65/7 
f 66/66/1 67/67/1 68/68/1 69/69/1 
f 70/70/13 71/71/13 67/67/1 66/66/1 
f 72/72/3 73/73/3 74/74/3 75/75/3 
f 73/73/3 76/76/3 77/77/3 74/74/3 
f 78/78/1 79/79/1 80/80/1 81/81/1 
f 82/82/1 83/83/1 79/79/1 78/78/1 
f 84/84/1 85/85/1 83/83/1 82/82/1 
f 86/86/1 66/66/1 69/69/1 87/87/1 
f 88/88/13 70/70/13 66/66/1 86/86/1 
f 89/89/1 90/90/4 91/91/4 92/92/1 
f 93/93/13 94/94/14 90/90/4 89/89/1 
f 67/67/1 89/89/1 92/92/1 68/68/1 
f 71/71/13 93/93/13 89/89/1 67/67/1 
f 69/69/1 68/68/1 95/95/1 96/96/1 
f 97/97/3 72/72/3 75/75/3 98/98/3 
f 81/81/1 80/80/1 99/99/1 100/100/1 
f 87/87/1 69/69/1 96/96/1 101/101/1 
f 92/92/1 91/91/4 102/102/4 103/103/1 
f 68/68/1 92/92/1 103/103/1 95/95/1 
f 80/80/1 79/79/1 104/104/1 105/105/1 
f 79/79/1 83/83/1 106/106/15 104/104/1 
f 83/83/1 85/85/1 107/107/4 106/106/15 
f 99/99/1 80/80/1 105/105/1 108/108/1 
f 105/105/1 104/104/1 86/86/1 87/87/1 
f 104/104/1 106/106/15 88/88/13 86/86/1 
f 108/108/1 105/105/1 87/87/1 101/101/1 
f 75/75/3 74/74/3 109/109/7 110/110/7 
f 73/73/3 72/72/3 91/91/4 90/90/4 
f 111/111/16 76/76/3 94/94/14 
f 98/98/3 75/75/3 110/110/7 112/112/7 
f 72/72/3 97/97/3 102/102/4 91/91/4 
f 70/70/13 113/113/13 114/114/13 71/71/13 
f 88/88/13 115/115/13 113/113/13 70/70/13 
f 93/93/13 116/116/17 111/111/16 94/94/14 
f 71/71/13 114/114/13 116/116/17 93/93/13 
f 106/106/15 117/117/14 115/115/13 88/88/13 
f 107/107/4 117/117/14 106/106/15 
f 117/117/14 54/118/4 53/119/1 115/115/13 
f 115/115/13 53/119/1 55/120/1 113/113/13 
f 113/113/13 55/120/1 56/121/1 114/114/13 
f 118/122/7 119/123/7 77/77/3 120/124/18 
f 120/124/18 111/111/16 116/116/17 
f 77/77/3 76/76/3 111/111/16 120/124/18 
f 77/77/3 119/123/7 109/109/7 74/74/3 
f 94/94/14 76/76/3 73/73/3 90/90/4 
f 85/85/1 61/125/1 60/126/4 107/107/4 
f 116/116/17 63/127/12 62/128/11 120/124/18 
f 64/129/1 61/125/1 85/85/1 84/84/1 
f 60/126/4 54/118/4 117/117/14 107/107/4 
f 56/121/1 63/127/12 116/116/17 114/114/13 
f 62/128/11 65/130/7 118/122/7 120/124/18 
f 57/131/7 121/132/19 122/133/19 65/134/7 
f 121/132/19 123/135/19 124/136/19 122/133/19 
f 125/137/19 126/138/19 127/139/19 128/140/19 
f 129/141/19 130/142/19 126/138/19 125/137/19 
f 131/143/19 123/135/19 130/142/19 129/141/19 
f 132/144/19 133/145/19 134/146/19 135/147/19 
f 136/148/19 137/149/19 133/145/19 132/144/19 
f 138/150/19 139/151/19 137/149/19 136/148/19 
f 140/152/19 125/137/19 128/140/19 141/153/19 
f 142/154/19 129/141/19 125/137/19 140/152/19 
f 143/155/19 131/143/19 129/141/19 142/154/19 
f 144/156/19 45/157/7 44/158/7 145/159/19 
f 146/160/19 59/161/7 45/157/7 144/156/19 
f 121/132/19 57/131/7 59/161/7 146/160/19 
f 126/138/19 144/156/19 145/159/19 127/139/19 
f 130/142/19 146/160/19 144/156/19 126/138/19 
f 123/135/19 121/132/19 146/160/19 130/142/19 
f 128/140/19 127/139/19 147/162/19 148/163/19 
f 135/147/19 134/146/19 149/164/19 150/165/19 
f 141/153/19 128/140/19 148/163/19 151/166/19 
f 145/159/19 44/158/7 47/167/7 152/168/19 
f 127/139/19 145/159/19 152/168/19 147/162/19 
f 139/151/19 153/169/19 154/170/19 155/171/19 
f 134/146/19 133/145/19 156/172/19 157/173/19 
f 133/145/19 137/149/19 158/174/19 156/172/19 
f 137/149/19 139/151/19 155/171/19 158/174/19 
f 149/164/19 134/146/19 157/173/19 159/175/19 
f 155/171/19 154/170/19 160/176/19 143/155/19 
f 157/173/19 156/172/19 140/152/19 141/153/19 
f 156/172/19 158/174/19 142/154/19 140/152/19 
f 158/174/19 155/171/19 143/155/19 142/154/19 
f 159/175/19 157/173/19 141/153/19 151/166/19 
f 161/177/19 124/136/19 123/135/19 131/143/19 
f 162/178/19 153/169/19 139/151/19 138/150/19 
f 160/176/19 161/177/19 131/143/19 143/155/19 
f 118/131/7 65/134/7 122/133/19 163/132/19 
f 163/132/19 122/133/19 124/136/19 164/135/19 
f 165/137/19 166/140/19 167/139/19 168/138/19 
f 169/141/19 165/137/19 168/138/19 170/142/19 
f 171/143/19 169/141/19 170/142/19 164/135/19 
f 172/144/19 173/147/19 174/146/19 175/145/19 
f 176/148/19 172/144/19 175/145/19 177/149/19 
f 178/150/19 176/148/19 177/149/19 179/151/19 
f 180/152/19 181/153/19 166/140/19 165/137/19 
f 182/154/19 180/152/19 165/137/19 169/141/19 
f 183/155/19 182/154/19 169/141/19 171/143/19 
f 184/156/19 185/159/19 110/158/7 109/157/7 
f 186/160/19 184/156/19 109/157/7 119/161/7 
f 163/132/19 186/160/19 119/161/7 118/131/7 
f 168/138/19 167/139/19 185/159/19 184/156/19 
f 170/142/19 168/138/19 184/156/19 186/160/19 
f 164/135/19 170/142/19 186/160/19 163/132/19 
f 166/140/19 187/163/19 188/162/19 167/139/19 
f 173/147/19 189/165/19 190/164/19 174/146/19 
f 181/153/19 191/166/19 187/163/19 166/140/19 
f 185/159/19 192/168/19 112/167/7 110/158/7 
f 167/139/19 188/162/19 192/168/19 185/159/19 
f 179/151/19 193/171/19 154/170/19 153/169/19 
f 174/146/19 194/173/19 195/172/19 175/145/19 
f 175/145/19 195/172/19 196/174/19 177/149/19 
f 177/149/19 196/174/19 193/171/19 179/151/19 
f 190/164/19 197/175/19 194/173/19 174/146/19 
f 193/171/19 183/155/19 160/176/19 154/170/19 
f 194/173/19 181/153/19 180/152/19 195/172/19 
f 195/172/19 180/152/19 182/154/19 196/174/19 
f 196/174/19 182/154/19 183/155/19 193/171/19 
f 197/175/19 191/166/19 181/153/19 194/173/19 
f 161/177/19 171/143/19 164/135/19 124/136/19 
f 162/178/19 178/150/19 179/151/19 153/169/19 
f 160/176/19 183/155/19 171/143/19 161/177/19 
f 31/31/20 30/30/20 198/30/20 199/31/20 
f 35/35/20 34/34/20 200/34/20 201/35/20 
f 30/30/20 36/36/20 202/36/20 198/30/20 
f 38/38/20 37/37/20 203/37/20 32/38/20 
f 37/37/20 31/31/20 199/31/20 203/37/20 
f 43/43/20 35/35/20 201/35/20 204/43/20 
f 36/36/20 43/43/20 204/43/20 202/36/20 
f 96/96/21 95/95/21 205/95/21 206/96/21 
f 100/100/21 99/99/21 207/99/21 208/100/21 
f 101/101/21 96/96/21 206/96/21 209/101/21 
f 103/103/21 102/102/21 97/102/21 210/103/21 
f 95/95/21 103/103/21 210/103/21 205/95/21 
f 99/99/21 108/108/21 211/108/21 207/99/21 
f 108/108/21 101/101/21 209/101/21 211/108/21 
f 199/31/20 198/30/20 212/30/20 213/31/20 
f 201/35/20 200/34/20 214/34/20 215/35/20 
f 198/30/20 202/36/20 216/36/20 212/30/20 
f 32/38/20 203/37/20 217/37/20 33/38/20 
f 203/37/20 199/31/20 213/31/20 217/37/20 
f 204/43/20 201/35/20 215/35/20 218/43/20 
f 202/36/20 204/43/20 218/43/20 216/36/20 
f 206/96/21 205/95/21 219/95/21 220/96/21 
f 208/100/21 207/99/21 221/99/21 222/100/21 
f 209/101/21 206/96/21 220/96/21 223/101/21 
f 210/103/21 97/102/21 98/102/21 224/103/21 
f 205/95/21 210/103/21 224/103/21 219/95/21 
f 207/99/21 211/108/21 225/108/21 221/99/21 
f 211/108/21 209/101/21 223/101/21 225/108/21 
f 213/31/20 212/30/20 148/30/20 147/31/20 
f 215/35/20 214/34/20 150/34/20 149/35/20 
f 212/30/20 216/36/20 151/36/20 148/30/20 
f 33/38/20 217/37/20 152/37/20 47/38/20 
f 217/37/20 213/31/20 147/31/20 152/37/20 
f 218/43/20 215/35/20 149/35/20 159/43/20 
f 216/36/20 218/43/20 159/43/20 151/36/20 
f 220/96/21 219/95/21 188/95/21 187/96/21 
f 222/100/21 221/99/21 190/99/21 189/100/21 
f 223/101/21 220/96/21 187/96/21 191/101/21 
f 224/103/21 98/102/21 112/102/21 192/103/21 
f 219/95/21 224/103/21 192/103/21 188/95/21 
f 221/99/21 225/108/21 197/108/21 190/99/21 
f 225/108/21 223/101/21 191/101/21 197/108/21 
# 208 polygons - 6 triangles

