# 3ds Max Wavefront OBJ Exporter v0.97b - (c)2007 guruware
# File Created: 07.12.2019 17:06:44

#
# object ground_inset1
#

v  8.1395 2.0000 5.5000
v  10.4184 2.0000 5.5000
v  10.4184 2.0000 4.0000
v  8.1395 2.0000 4.0000
v  10.4184 0.6667 7.0000
v  10.4184 1.3333 7.0000
v  8.5100 1.3333 7.0000
v  8.5100 0.6667 7.0000
v  8.1395 2.0000 2.5000
v  10.4184 2.0000 2.5000
v  10.4184 2.0000 1.3750
v  8.1395 2.0000 1.3750
v  8.5100 2.0000 7.0000
v  10.4184 2.0000 7.0000
v  10.4184 2.0000 6.6321
v  8.1395 2.0000 6.6321
v  10.4184 2.0000 1.0000
v  10.4184 2.0000 0.0000
v  8.1395 2.0000 0.0000
v  8.1395 2.0000 1.0000
v  5.8605 2.0000 0.0000
v  5.8605 2.0000 1.0000
v  5.8605 2.0000 1.3750
v  8.1395 0.0000 7.0000
v  10.4184 0.0000 7.0000
v  5.8605 0.6667 7.0000
v  5.8605 0.2988 7.0000
v  8.1395 1.3333 4.0000
v  8.1395 1.3333 5.5000
v  8.1395 1.3333 1.3750
v  8.1395 1.3333 2.5000
v  8.1395 1.3333 6.6321
v  5.8605 1.6583 1.3750
v  8.1395 0.6667 4.0000
v  8.1395 0.6667 5.5000
v  8.1395 0.6667 1.3750
v  8.1395 0.6667 2.5000
v  8.1395 0.6667 6.6321
v  5.8605 0.6667 1.3750
v  5.8605 0.6667 2.5000
v  3.5816 0.6667 1.3750
v  3.5816 0.6667 2.5000
v  5.8605 0.6667 4.0000
v  5.8605 0.6667 5.5000
v  3.5816 0.6667 4.0000
v  3.5816 0.6667 5.5000
v  5.8605 0.6667 6.6321
v  3.5816 0.6667 6.6321
v  5.8605 0.0000 7.0000
v  3.5816 2.0000 0.0000
v  3.5816 2.0000 1.0000
v  1.3026 2.0000 1.0000
v  1.3026 2.0000 0.0000
v  1.3026 2.0000 1.3750
v  3.5816 2.0000 1.3750
v  3.5816 0.6667 7.0000
v  1.3179 0.6667 7.0000
v  3.5816 0.2988 7.0000
v  1.3026 2.0000 5.5000
v  1.3026 1.3333 5.5000
v  1.3026 1.3333 4.0000
v  1.3026 2.0000 4.0000
v  1.3026 2.0000 2.5000
v  1.3026 1.3333 2.5000
v  1.3026 1.3333 1.3750
v  1.3026 2.0000 6.6321
v  1.3026 1.3333 6.6321
v  3.5816 1.6583 1.3750
v  1.3026 0.6667 5.5000
v  1.3026 0.6667 4.0000
v  1.3026 0.6667 2.5000
v  1.3026 0.6667 1.3750
v  1.3026 0.6667 6.6321
v  1.0000 1.3333 7.0000
v  1.0000 0.6667 7.0000
v  1.0000 2.0000 7.0000
v  1.3026 0.0000 7.0000
v  3.5816 0.0000 7.0000
v  12.6974 2.0000 5.5000
v  13.0000 2.0000 5.5000
v  13.0000 2.0000 4.0000
v  12.6974 2.0000 4.0000
v  13.0000 0.6667 7.0000
v  13.0000 1.3333 7.0000
v  12.6974 1.3333 7.0000
v  12.6974 0.6667 7.0000
v  12.6974 2.0000 2.5000
v  13.0000 2.0000 2.5000
v  13.0000 2.0000 1.3750
v  12.6974 2.0000 1.3750
v  12.6974 2.0000 7.0000
v  13.0000 2.0000 7.0000
v  13.0000 2.0000 6.6321
v  12.6974 2.0000 6.6321
v  14.0000 2.0000 5.5000
v  14.0000 2.0000 4.0000
v  14.0000 0.6667 7.0000
v  14.0000 1.3333 7.0000
v  14.0000 2.0000 2.5000
v  14.0000 2.0000 1.3750
v  14.0000 2.0000 7.0000
v  14.0000 2.0000 6.6321
v  13.0000 2.0000 1.0000
v  13.0000 2.0000 0.0000
v  12.6974 2.0000 0.0000
v  12.6974 2.0000 1.0000
v  14.0000 2.0000 1.0000
v  14.0000 2.0000 0.0000
v  12.6974 0.0000 7.0000
v  13.0000 0.0000 7.0000
v  14.0000 0.0000 7.0000
v  1.0000 2.0000 4.0000
v  1.0000 2.0000 5.5000
v  1.0000 2.0000 1.3750
v  1.0000 2.0000 2.5000
v  1.0000 2.0000 6.6321
v  0.0000 2.0000 4.0000
v  0.0000 2.0000 5.5000
v  0.0000 0.6667 7.0000
v  0.0000 1.3333 7.0000
v  0.0000 2.0000 1.3750
v  0.0000 2.0000 2.5000
v  0.0000 2.0000 6.6321
v  0.0000 2.0000 7.0000
v  1.0000 2.0000 1.0000
v  1.0000 2.0000 0.0000
v  0.0000 2.0000 1.0000
v  0.0000 2.0000 0.0000
v  0.0000 0.0000 7.0000
v  1.0000 0.0000 7.0000
v  5.8605 0.0000 6.6321
v  7.0000 0.0000 6.6321
v  7.0000 0.0000 7.0000
v  5.8605 0.0000 5.5000
v  7.0000 0.0000 5.5000
v  1.3026 0.0000 4.0000
v  1.3026 0.0000 5.5000
v  1.0000 0.0000 5.5000
v  1.0000 0.0000 4.0000
v  3.5816 0.0000 4.0000
v  3.5816 0.0000 5.5000
v  5.8605 0.0000 4.0000
v  1.3026 0.0000 0.0000
v  1.3026 0.0000 1.0000
v  1.0000 0.0000 1.0000
v  1.0000 0.0000 0.0000
v  3.5816 0.0000 0.0000
v  3.5816 0.0000 1.0000
v  5.8605 0.0000 0.0000
v  5.8605 0.0000 1.0000
v  1.3026 0.0000 2.5000
v  1.0000 0.0000 2.5000
v  3.5816 0.0000 2.5000
v  5.8605 0.0000 2.5000
v  1.3026 0.0000 6.6321
v  1.0000 0.0000 6.6321
v  3.5816 0.0000 6.6321
v  0.0000 0.0000 5.5000
v  0.0000 0.0000 4.0000
v  0.0000 0.0000 1.0000
v  0.0000 0.0000 0.0000
v  0.0000 0.0000 2.5000
v  0.0000 0.0000 6.6321
v  7.0000 0.0000 1.0000
v  7.0000 0.0000 1.3750
v  5.8605 0.0000 1.3750
v  1.3026 0.0000 1.3750
v  1.0000 0.0000 1.3750
v  3.5816 0.0000 1.3750
v  0.0000 0.0000 1.3750
v  7.0000 0.0000 2.5000
v  7.0000 0.0000 4.0000
v  7.0000 0.0000 0.0000
v  8.1395 0.0000 6.6321
v  8.1395 0.0000 5.5000
v  12.6974 0.0000 4.0000
v  13.0000 0.0000 4.0000
v  13.0000 0.0000 5.5000
v  12.6974 0.0000 5.5000
v  10.4184 0.0000 4.0000
v  10.4184 0.0000 5.5000
v  8.1395 0.0000 4.0000
v  12.6974 0.0000 0.0000
v  13.0000 0.0000 0.0000
v  13.0000 0.0000 1.0000
v  12.6974 0.0000 1.0000
v  10.4184 0.0000 0.0000
v  10.4184 0.0000 1.0000
v  8.1395 0.0000 0.0000
v  8.1395 0.0000 1.0000
v  12.6974 0.0000 2.5000
v  13.0000 0.0000 2.5000
v  10.4184 0.0000 2.5000
v  8.1395 0.0000 2.5000
v  12.6974 0.0000 6.6321
v  13.0000 0.0000 6.6321
v  10.4184 0.0000 6.6321
v  14.0000 0.0000 4.0000
v  14.0000 0.0000 5.5000
v  14.0000 0.0000 0.0000
v  14.0000 0.0000 1.0000
v  14.0000 0.0000 2.5000
v  14.0000 0.0000 6.6321
v  8.1395 0.0000 1.3750
v  13.0000 0.0000 1.3750
v  12.6974 0.0000 1.3750
v  10.4184 0.0000 1.3750
v  14.0000 0.0000 1.3750
v  14.0000 1.3333 5.5000
v  14.0000 1.3333 4.0000
v  14.0000 1.3333 2.5000
v  14.0000 1.3333 1.3750
v  14.0000 1.3333 6.6321
v  14.0000 1.3333 1.0000
v  14.0000 1.3333 0.0000
v  0.0000 1.3333 4.0000
v  0.0000 1.3333 5.5000
v  0.0000 1.3333 1.3750
v  0.0000 1.3333 2.5000
v  0.0000 1.3333 6.6321
v  0.0000 1.3333 0.0000
v  0.0000 1.3333 1.0000
v  14.0000 0.6667 5.5000
v  14.0000 0.6667 4.0000
v  14.0000 0.6667 2.5000
v  14.0000 0.6667 1.3750
v  14.0000 0.6667 6.6321
v  14.0000 0.6667 1.0000
v  14.0000 0.6667 0.0000
v  0.0000 0.6667 4.0000
v  0.0000 0.6667 5.5000
v  0.0000 0.6667 1.3750
v  0.0000 0.6667 2.5000
v  0.0000 0.6667 6.6321
v  0.0000 0.6667 0.0000
v  0.0000 0.6667 1.0000
# 236 vertices

vn -0.7071 0.7071 -0.0000
vn 0.0000 1.0000 -0.0000
vn 0.0000 0.0000 1.0000
vn -0.3810 0.0000 0.9246
vn -0.1850 0.1307 0.9740
vn -0.3015 0.9045 0.3015
vn -0.2957 0.6306 0.7176
vn 0.0000 0.7071 0.7071
vn -0.7170 0.6300 0.2984
vn -0.1229 0.9767 0.1759
vn -0.5774 0.5774 0.5774
vn 0.0000 -0.7071 0.7071
vn -0.1313 0.1857 0.9738
vn -1.0000 0.0000 -0.0000
vn -0.7071 0.0000 0.7071
vn -0.9232 0.0000 0.3843
vn -0.1399 0.1953 0.9707
vn -0.5481 0.8047 0.2281
vn -0.1313 0.9738 0.1857
vn 0.1313 0.9738 0.1857
vn 0.1229 0.9767 0.1759
vn 0.3015 0.9045 0.3015
vn 0.5774 0.5774 0.5774
vn 0.1313 0.1857 0.9738
vn 0.7071 0.7071 -0.0000
vn 1.0000 0.0000 -0.0000
vn 0.7071 0.0000 0.7071
vn 0.7245 0.6385 0.2596
vn 0.9414 0.0000 0.3374
vn 0.1399 0.1953 0.9707
vn 0.5753 0.7915 0.2062
vn 0.4270 0.0000 0.9042
vn 0.2054 0.1495 0.9672
vn 0.3342 0.6225 0.7077
vn 0.0000 -1.0000 -0.0000
# 35 vertex normals

vt 0.2155 0.4864 0.0000
vt 0.2735 0.4864 0.0000
vt 0.2735 0.5246 0.0000
vt 0.2155 0.5246 0.0000
vt 0.2735 0.4143 0.0000
vt 0.2735 0.4313 0.0000
vt 0.2249 0.4313 0.0000
vt 0.2249 0.4143 0.0000
vt 0.2155 0.5627 0.0000
vt 0.2735 0.5627 0.0000
vt 0.2735 0.5913 0.0000
vt 0.2155 0.5913 0.0000
vt 0.2249 0.4482 0.0000
vt 0.2735 0.4482 0.0000
vt 0.2735 0.4576 0.0000
vt 0.2155 0.4576 0.0000
vt 0.2735 0.6009 0.0000
vt 0.2735 0.6263 0.0000
vt 0.2155 0.6263 0.0000
vt 0.2155 0.6009 0.0000
vt 0.1575 0.6263 0.0000
vt 0.1575 0.6009 0.0000
vt 0.1575 0.5913 0.0000
vt 0.2155 0.3974 0.0000
vt 0.2735 0.3974 0.0000
vt 0.1575 0.4143 0.0000
vt 0.1575 0.4050 0.0000
vt 0.7365 0.3445 0.0000
vt 0.7365 0.3830 0.0000
vt 0.7192 0.3830 0.0000
vt 0.7192 0.3443 0.0000
vt 0.7365 0.4218 0.0000
vt 0.7365 0.4508 0.0000
vt 0.7192 0.4508 0.0000
vt 0.7192 0.4217 0.0000
vt 0.7365 0.3156 0.0000
vt 0.7192 0.3157 0.0000
vt 0.7013 0.4846 0.0000
vt 0.6441 0.4846 0.0000
vt 0.6412 0.4763 0.0000
vt 0.7013 0.4675 0.0000
vt 0.7010 0.3827 0.0000
vt 0.7010 0.3437 0.0000
vt 0.7013 0.4508 0.0000
vt 0.7010 0.4216 0.0000
vt 0.7015 0.3138 0.0000
vt 0.6411 0.4505 0.0000
vt 0.6412 0.4211 0.0000
vt 0.5812 0.4502 0.0000
vt 0.5814 0.4209 0.0000
vt 0.6412 0.3820 0.0000
vt 0.6412 0.3426 0.0000
vt 0.5815 0.3818 0.0000
vt 0.5814 0.3426 0.0000
vt 0.6411 0.3127 0.0000
vt 0.5812 0.3130 0.0000
vt 0.6391 0.4894 0.0000
vt 0.6383 0.2994 0.0000
vt 0.6436 0.3026 0.0000
vt 0.7073 0.3026 0.0000
vt 0.7192 0.3026 0.0000
vt 0.7365 0.3026 0.0000
vt 0.1575 0.3974 0.0000
vt 0.0996 0.6263 0.0000
vt 0.0996 0.6009 0.0000
vt 0.0416 0.6009 0.0000
vt 0.0416 0.6263 0.0000
vt 0.0416 0.5913 0.0000
vt 0.0996 0.5913 0.0000
vt 0.0996 0.4143 0.0000
vt 0.0420 0.4143 0.0000
vt 0.0996 0.4050 0.0000
vt 0.4865 0.3430 0.0000
vt 0.5038 0.3430 0.0000
vt 0.5038 0.3818 0.0000
vt 0.4865 0.3818 0.0000
vt 0.4865 0.4207 0.0000
vt 0.5038 0.4206 0.0000
vt 0.5038 0.4498 0.0000
vt 0.4865 0.4498 0.0000
vt 0.4865 0.3137 0.0000
vt 0.5038 0.3138 0.0000
vt 0.5210 0.4840 0.0000
vt 0.5210 0.4667 0.0000
vt 0.5809 0.4760 0.0000
vt 0.5779 0.4840 0.0000
vt 0.5217 0.3428 0.0000
vt 0.5217 0.3818 0.0000
vt 0.5216 0.4207 0.0000
vt 0.5210 0.4498 0.0000
vt 0.5212 0.3133 0.0000
vt 0.5833 0.2994 0.0000
vt 0.5828 0.4894 0.0000
vt 0.5782 0.3042 0.0000
vt 0.5233 0.3042 0.0000
vt 0.5038 0.3013 0.0000
vt 0.5187 0.3013 0.0000
vt 0.4865 0.3013 0.0000
vt 0.0416 0.3974 0.0000
vt 0.0995 0.3974 0.0000
vt 0.3314 0.4864 0.0000
vt 0.3391 0.4864 0.0000
vt 0.3391 0.5246 0.0000
vt 0.3314 0.5246 0.0000
vt 0.3391 0.4143 0.0000
vt 0.3391 0.4313 0.0000
vt 0.3314 0.4313 0.0000
vt 0.3314 0.4143 0.0000
vt 0.3314 0.5627 0.0000
vt 0.3391 0.5627 0.0000
vt 0.3391 0.5913 0.0000
vt 0.3314 0.5913 0.0000
vt 0.3314 0.4482 0.0000
vt 0.3391 0.4482 0.0000
vt 0.3391 0.4576 0.0000
vt 0.3314 0.4576 0.0000
vt 0.3646 0.4864 0.0000
vt 0.3646 0.5246 0.0000
vt 0.3646 0.4143 0.0000
vt 0.3646 0.4313 0.0000
vt 0.3646 0.5627 0.0000
vt 0.3646 0.5913 0.0000
vt 0.3646 0.4482 0.0000
vt 0.3646 0.4576 0.0000
vt 0.3391 0.6009 0.0000
vt 0.3391 0.6263 0.0000
vt 0.3314 0.6263 0.0000
vt 0.3314 0.6009 0.0000
vt 0.3646 0.6009 0.0000
vt 0.3646 0.6263 0.0000
vt 0.3314 0.3974 0.0000
vt 0.3391 0.3974 0.0000
vt 0.3646 0.3974 0.0000
vt 0.0416 0.4864 0.0000
vt 0.0416 0.5246 0.0000
vt 0.0339 0.5246 0.0000
vt 0.0339 0.4864 0.0000
vt 0.0416 0.5627 0.0000
vt 0.0339 0.5913 0.0000
vt 0.0339 0.5627 0.0000
vt 0.0416 0.4576 0.0000
vt 0.0339 0.4576 0.0000
vt 0.0339 0.4483 0.0000
vt 0.0084 0.5246 0.0000
vt 0.0084 0.4864 0.0000
vt 0.0084 0.4143 0.0000
vt 0.0339 0.4143 0.0000
vt 0.0339 0.4313 0.0000
vt 0.0084 0.4313 0.0000
vt 0.0084 0.5913 0.0000
vt 0.0084 0.5627 0.0000
vt 0.0084 0.4576 0.0000
vt 0.0084 0.4483 0.0000
vt 0.0339 0.6009 0.0000
vt 0.0339 0.6263 0.0000
vt 0.0084 0.6009 0.0000
vt 0.0085 0.6263 0.0000
vt 0.0084 0.3974 0.0000
vt 0.0339 0.3974 0.0000
vt 1.1982 0.1288 0.0000
vt 1.1982 0.1381 0.0000
vt 1.2271 0.1381 0.0000
vt 1.2271 0.1288 0.0000
vt 1.1982 0.1669 0.0000
vt 1.2271 0.1669 0.0000
vt 1.0822 0.2051 0.0000
vt 1.0822 0.1669 0.0000
vt 1.0745 0.1669 0.0000
vt 1.0745 0.2051 0.0000
vt 1.1402 0.2051 0.0000
vt 1.1402 0.1669 0.0000
vt 1.1982 0.2051 0.0000
vt 1.0822 0.3068 0.0000
vt 1.0822 0.2814 0.0000
vt 1.0745 0.2814 0.0000
vt 1.0745 0.3068 0.0000
vt 1.1402 0.3068 0.0000
vt 1.1402 0.2814 0.0000
vt 1.1981 0.3068 0.0000
vt 1.1981 0.2814 0.0000
vt 1.0822 0.2432 0.0000
vt 1.0745 0.2432 0.0000
vt 1.1402 0.2432 0.0000
vt 1.1982 0.2432 0.0000
vt 1.0822 0.1381 0.0000
vt 1.0822 0.1288 0.0000
vt 1.0745 0.1288 0.0000
vt 1.0745 0.1381 0.0000
vt 1.1402 0.1381 0.0000
vt 1.1402 0.1288 0.0000
vt 1.0491 0.1669 0.0000
vt 1.0491 0.2051 0.0000
vt 1.0491 0.2814 0.0000
vt 1.0491 0.3068 0.0000
vt 1.0491 0.2432 0.0000
vt 1.0491 0.1288 0.0000
vt 1.0491 0.1381 0.0000
vt 1.2271 0.2814 0.0000
vt 1.2271 0.2719 0.0000
vt 1.1981 0.2719 0.0000
vt 1.0822 0.2719 0.0000
vt 1.0745 0.2719 0.0000
vt 1.1402 0.2719 0.0000
vt 1.0491 0.2718 0.0000
vt 1.2271 0.2432 0.0000
vt 1.2271 0.2051 0.0000
vt 1.2271 0.3068 0.0000
# 207 texture coords

o ground_inset1
g ground_inset1
f 1/1/1 2/2/2 3/3/2 4/4/1 
f 5/5/3 6/6/3 7/7/4 8/8/5 
f 9/9/1 10/10/2 11/11/2 12/12/6 
f 4/4/1 3/3/2 10/10/2 9/9/1 
f 13/13/7 14/14/8 15/15/2 16/16/9 
f 16/16/9 15/15/2 2/2/2 1/1/1 
f 17/17/2 18/18/2 19/19/2 20/20/2 
f 20/20/2 19/19/2 21/21/2 22/22/10 
f 11/11/2 17/17/2 20/20/2 12/12/6 
f 12/12/6 20/20/2 22/22/10 23/23/11 
f 6/6/3 14/14/8 13/13/7 7/7/4 
f 8/8/5 24/24/12 25/25/12 5/5/3 
f 26/26/11 27/27/13 8/8/5 
f 1/28/1 4/29/1 28/30/14 29/31/14 
f 9/32/1 12/33/6 30/34/15 31/35/14 
f 4/29/1 9/32/1 31/35/14 28/30/14 
f 16/36/9 1/28/1 29/31/14 32/37/16 
f 12/38/6 23/39/11 33/40/17 30/41/15 
f 29/31/14 28/30/14 34/42/1 35/43/1 
f 31/35/14 30/34/15 36/44/11 37/45/1 
f 28/30/14 31/35/14 37/45/1 34/42/1 
f 32/37/16 29/31/14 35/43/1 38/46/18 
f 36/44/11 39/47/8 40/48/2 37/45/1 
f 40/48/2 39/47/8 41/49/8 42/50/2 
f 34/42/1 37/45/1 40/48/2 43/51/2 
f 35/43/1 34/42/1 43/51/2 44/52/2 
f 44/52/2 43/51/2 45/53/2 46/54/2 
f 38/46/18 35/43/1 44/52/2 47/55/19 
f 47/55/19 44/52/2 46/54/2 48/56/20 
f 22/57/10 33/40/17 23/39/11 
f 47/55/19 27/58/13 26/59/11 
f 8/60/5 38/46/18 47/55/19 26/59/11 
f 7/61/4 32/37/16 38/46/18 8/60/5 
f 13/62/7 16/36/9 32/37/16 7/61/4 
f 27/27/13 49/63/12 24/24/12 8/8/5 
f 33/40/17 39/47/8 36/44/11 30/41/15 
f 50/64/2 51/65/21 22/22/10 21/21/2 
f 52/66/2 51/65/21 50/64/2 53/67/2 
f 54/68/22 55/69/23 51/65/21 52/66/2 
f 56/70/23 57/71/8 58/72/24 
f 59/73/25 60/74/26 61/75/26 62/76/25 
f 63/77/25 64/78/26 65/79/27 54/80/22 
f 62/76/25 61/75/26 64/78/26 63/77/25 
f 66/81/28 67/82/29 60/74/26 59/73/25 
f 54/83/22 65/84/27 68/85/30 55/86/23 
f 60/74/26 69/87/25 70/88/25 61/75/26 
f 64/78/26 71/89/25 72/90/23 65/79/27 
f 61/75/26 70/88/25 71/89/25 64/78/26 
f 67/82/29 73/91/31 69/87/25 60/74/26 
f 72/90/23 71/89/25 42/50/2 41/49/8 
f 70/88/25 45/53/2 42/50/2 71/89/25 
f 45/53/2 43/51/2 40/48/2 42/50/2 
f 69/87/25 46/54/2 45/53/2 70/88/25 
f 73/91/31 48/56/20 46/54/2 69/87/25 
f 48/56/20 58/92/24 27/58/13 47/55/19 
f 51/93/21 55/86/23 68/85/30 
f 48/56/20 56/94/23 58/92/24 
f 57/95/8 56/94/23 48/56/20 73/91/31 
f 74/96/32 75/97/33 73/91/31 67/82/29 
f 76/98/34 74/96/32 67/82/29 66/81/28 
f 58/72/24 57/71/8 77/99/12 78/100/12 
f 39/47/8 33/40/17 68/85/30 41/49/8 
f 33/40/17 22/57/10 51/93/21 68/85/30 
f 49/63/12 27/27/13 58/72/24 78/100/12 
f 68/85/30 65/84/27 72/90/23 41/49/8 
f 79/101/2 80/102/2 81/103/2 82/104/2 
f 83/105/3 84/106/3 85/107/3 86/108/3 
f 87/109/2 88/110/2 89/111/2 90/112/2 
f 82/104/2 81/103/2 88/110/2 87/109/2 
f 91/113/8 92/114/8 93/115/2 94/116/2 
f 94/116/2 93/115/2 80/102/2 79/101/2 
f 80/102/2 95/117/2 96/118/2 81/103/2 
f 97/119/3 98/120/3 84/106/3 83/105/3 
f 88/110/2 99/121/2 100/122/2 89/111/2 
f 81/103/2 96/118/2 99/121/2 88/110/2 
f 92/114/8 101/123/8 102/124/2 93/115/2 
f 93/115/2 102/124/2 95/117/2 80/102/2 
f 103/125/2 104/126/2 105/127/2 106/128/2 
f 107/129/2 108/130/2 104/126/2 103/125/2 
f 89/111/2 103/125/2 106/128/2 90/112/2 
f 100/122/2 107/129/2 103/125/2 89/111/2 
f 84/106/3 92/114/8 91/113/8 85/107/3 
f 86/108/3 109/131/12 110/132/12 83/105/3 
f 98/120/3 101/123/8 92/114/8 84/106/3 
f 83/105/3 110/132/12 111/133/12 97/119/3 
f 59/134/25 62/135/25 112/136/2 113/137/2 
f 63/138/25 54/68/22 114/139/2 115/140/2 
f 62/135/25 63/138/25 115/140/2 112/136/2 
f 66/141/28 116/142/2 76/143/34 
f 66/141/28 59/134/25 113/137/2 116/142/2 
f 113/137/2 112/136/2 117/144/2 118/145/2 
f 119/146/3 75/147/33 74/148/32 120/149/3 
f 115/140/2 114/139/2 121/150/2 122/151/2 
f 112/136/2 115/140/2 122/151/2 117/144/2 
f 76/143/34 116/142/2 123/152/2 124/153/8 
f 116/142/2 113/137/2 118/145/2 123/152/2 
f 125/154/2 52/66/2 53/67/2 126/155/2 
f 127/156/2 125/154/2 126/155/2 128/157/2 
f 114/139/2 54/68/22 52/66/2 125/154/2 
f 121/150/2 114/139/2 125/154/2 127/156/2 
f 120/149/3 74/148/32 76/143/34 124/153/8 
f 75/147/33 119/146/3 129/158/12 130/159/12 
f 73/91/31 75/97/33 57/95/8 
f 75/147/33 130/159/12 77/99/12 57/71/8 
f 3/3/2 2/2/2 79/101/2 82/104/2 
f 5/5/3 25/25/12 109/131/12 86/108/3 
f 11/11/2 10/10/2 87/109/2 90/112/2 
f 10/10/2 3/3/2 82/104/2 87/109/2 
f 15/15/2 14/14/8 91/113/8 94/116/2 
f 2/2/2 15/15/2 94/116/2 79/101/2 
f 18/18/2 17/17/2 106/128/2 105/127/2 
f 17/17/2 11/11/2 90/112/2 106/128/2 
f 6/6/3 5/5/3 86/108/3 85/107/3 
f 14/14/8 6/6/3 85/107/3 91/113/8 
f 49/160/12 131/161/35 132/162/35 133/163/35 
f 131/161/35 134/164/35 135/165/35 132/162/35 
f 136/166/35 137/167/35 138/168/35 139/169/35 
f 140/170/35 141/171/35 137/167/35 136/166/35 
f 142/172/35 134/164/35 141/171/35 140/170/35 
f 143/173/35 144/174/35 145/175/35 146/176/35 
f 147/177/35 148/178/35 144/174/35 143/173/35 
f 149/179/35 150/180/35 148/178/35 147/177/35 
f 151/181/35 136/166/35 139/169/35 152/182/35 
f 153/183/35 140/170/35 136/166/35 151/181/35 
f 154/184/35 142/172/35 140/170/35 153/183/35 
f 155/185/35 77/186/12 130/187/12 156/188/35 
f 157/189/35 78/190/12 77/186/12 155/185/35 
f 131/161/35 49/160/12 78/190/12 157/189/35 
f 137/167/35 155/185/35 156/188/35 138/168/35 
f 141/171/35 157/189/35 155/185/35 137/167/35 
f 134/164/35 131/161/35 157/189/35 141/171/35 
f 139/169/35 138/168/35 158/191/35 159/192/35 
f 146/176/35 145/175/35 160/193/35 161/194/35 
f 152/182/35 139/169/35 159/192/35 162/195/35 
f 156/188/35 130/187/12 129/196/12 163/197/35 
f 138/168/35 156/188/35 163/197/35 158/191/35 
f 150/180/35 164/198/35 165/199/35 166/200/35 
f 145/175/35 144/174/35 167/201/35 168/202/35 
f 144/174/35 148/178/35 169/203/35 167/201/35 
f 148/178/35 150/180/35 166/200/35 169/203/35 
f 160/193/35 145/175/35 168/202/35 170/204/35 
f 166/200/35 165/199/35 171/205/35 154/184/35 
f 168/202/35 167/201/35 151/181/35 152/182/35 
f 167/201/35 169/203/35 153/183/35 151/181/35 
f 169/203/35 166/200/35 154/184/35 153/183/35 
f 170/204/35 168/202/35 152/182/35 162/195/35 
f 172/206/35 135/165/35 134/164/35 142/172/35 
f 173/207/35 164/198/35 150/180/35 149/179/35 
f 171/205/35 172/206/35 142/172/35 154/184/35 
f 24/160/12 133/163/35 132/162/35 174/161/35 
f 174/161/35 132/162/35 135/165/35 175/164/35 
f 176/166/35 177/169/35 178/168/35 179/167/35 
f 180/170/35 176/166/35 179/167/35 181/171/35 
f 182/172/35 180/170/35 181/171/35 175/164/35 
f 183/173/35 184/176/35 185/175/35 186/174/35 
f 187/177/35 183/173/35 186/174/35 188/178/35 
f 189/179/35 187/177/35 188/178/35 190/180/35 
f 191/181/35 192/182/35 177/169/35 176/166/35 
f 193/183/35 191/181/35 176/166/35 180/170/35 
f 194/184/35 193/183/35 180/170/35 182/172/35 
f 195/185/35 196/188/35 110/187/12 109/186/12 
f 197/189/35 195/185/35 109/186/12 25/190/12 
f 174/161/35 197/189/35 25/190/12 24/160/12 
f 179/167/35 178/168/35 196/188/35 195/185/35 
f 181/171/35 179/167/35 195/185/35 197/189/35 
f 175/164/35 181/171/35 197/189/35 174/161/35 
f 177/169/35 198/192/35 199/191/35 178/168/35 
f 184/176/35 200/194/35 201/193/35 185/175/35 
f 192/182/35 202/195/35 198/192/35 177/169/35 
f 196/188/35 203/197/35 111/196/12 110/187/12 
f 178/168/35 199/191/35 203/197/35 196/188/35 
f 190/180/35 204/200/35 165/199/35 164/198/35 
f 185/175/35 205/202/35 206/201/35 186/174/35 
f 186/174/35 206/201/35 207/203/35 188/178/35 
f 188/178/35 207/203/35 204/200/35 190/180/35 
f 201/193/35 208/204/35 205/202/35 185/175/35 
f 204/200/35 194/184/35 171/205/35 165/199/35 
f 205/202/35 192/182/35 191/181/35 206/201/35 
f 206/201/35 191/181/35 193/183/35 207/203/35 
f 207/203/35 193/183/35 194/184/35 204/200/35 
f 208/204/35 202/195/35 192/182/35 205/202/35 
f 172/206/35 182/172/35 175/164/35 135/165/35 
f 173/207/35 189/179/35 190/180/35 164/198/35 
f 171/205/35 194/184/35 182/172/35 172/206/35 
f 96/118/26 95/117/26 209/117/26 210/118/26 
f 100/122/26 99/121/26 211/121/26 212/122/26 
f 99/121/26 96/118/26 210/118/26 211/121/26 
f 102/124/26 101/123/26 98/123/26 213/124/26 
f 95/117/26 102/124/26 213/124/26 209/117/26 
f 108/130/26 107/129/26 214/129/26 215/130/26 
f 107/129/26 100/122/26 212/122/26 214/129/26 
f 118/145/14 117/144/14 216/144/14 217/145/14 
f 122/151/14 121/150/14 218/150/14 219/151/14 
f 117/144/14 122/151/14 219/151/14 216/144/14 
f 124/153/14 123/152/14 220/152/14 120/153/14 
f 123/152/14 118/145/14 217/145/14 220/152/14 
f 127/156/14 128/157/14 221/157/14 222/156/14 
f 121/150/14 127/156/14 222/156/14 218/150/14 
f 210/118/26 209/117/26 223/117/26 224/118/26 
f 212/122/26 211/121/26 225/121/26 226/122/26 
f 211/121/26 210/118/26 224/118/26 225/121/26 
f 213/124/26 98/123/26 97/123/26 227/124/26 
f 209/117/26 213/124/26 227/124/26 223/117/26 
f 215/130/26 214/129/26 228/129/26 229/130/26 
f 214/129/26 212/122/26 226/122/26 228/129/26 
f 217/145/14 216/144/14 230/144/14 231/145/14 
f 219/151/14 218/150/14 232/150/14 233/151/14 
f 216/144/14 219/151/14 233/151/14 230/144/14 
f 120/153/14 220/152/14 234/152/14 119/153/14 
f 220/152/14 217/145/14 231/145/14 234/152/14 
f 222/156/14 221/157/14 235/157/14 236/156/14 
f 218/150/14 222/156/14 236/156/14 232/150/14 
f 224/118/26 223/117/26 199/117/26 198/118/26 
f 226/122/26 225/121/26 202/121/26 208/122/26 
f 225/121/26 224/118/26 198/118/26 202/121/26 
f 227/124/26 97/123/26 111/123/26 203/124/26 
f 223/117/26 227/124/26 203/124/26 199/117/26 
f 229/130/26 228/129/26 201/129/26 200/130/26 
f 228/129/26 226/122/26 208/122/26 201/129/26 
f 231/145/14 230/144/14 159/144/14 158/145/14 
f 233/151/14 232/150/14 170/150/14 162/151/14 
f 230/144/14 233/151/14 162/151/14 159/144/14 
f 119/153/14 234/152/14 163/152/14 129/153/14 
f 234/152/14 231/145/14 158/145/14 163/152/14 
f 236/156/14 235/157/14 161/157/14 160/156/14 
f 232/150/14 236/156/14 160/156/14 170/150/14 
# 218 polygons - 8 triangles

