# 3ds Max Wavefront OBJ Exporter v0.97b - (c)2007 guruware
# File Created: 07.12.2019 17:06:46

#
# object ground_L
#

v  1.0000 2.0000 -0.0000
v  1.0000 2.0000 1.0000
v  1.3026 2.0000 1.0000
v  1.3026 2.0000 -0.0000
v  3.5816 2.0000 1.0000
v  3.5816 2.0000 -0.0000
v  5.8605 2.0000 1.0000
v  5.8605 2.0000 -0.0000
v  3.5816 2.0000 1.3750
v  5.8605 2.0000 1.3750
v  5.8605 1.3333 1.3750
v  3.5816 1.3333 1.3750
v  3.5816 1.2139 1.1958
v  5.8605 1.2139 1.1958
v  1.3026 2.0000 1.3750
v  1.3026 1.2139 1.1958
v  1.3026 1.0000 1.1958
v  3.5816 1.0000 1.1958
v  1.3026 1.3333 1.3750
v  1.0000 2.0000 1.3750
v  1.0000 2.0000 7.0000
v  0.0000 2.0000 7.0000
v  0.0000 1.3333 7.0000
v  1.0000 1.3333 7.0000
v  1.3026 2.0000 2.5000
v  1.0000 2.0000 2.5000
v  1.0000 2.0000 4.0000
v  1.3026 2.0000 4.0000
v  1.3026 1.3333 2.5000
v  1.3026 1.3333 4.0000
v  1.3026 2.0000 5.5000
v  1.0000 2.0000 5.5000
v  1.0000 2.0000 6.6321
v  1.3026 2.0000 6.6321
v  1.3026 1.3333 5.5000
v  1.3026 1.3333 6.6321
v  1.3026 1.0000 2.5000
v  1.3026 1.0000 1.3750
v  1.0000 1.0000 7.0000
v  1.3026 1.0000 6.6321
v  0.0000 2.0000 6.6321
v  0.0000 2.0000 5.5000
v  0.0000 2.0000 4.0000
v  0.0000 2.0000 2.5000
v  0.0000 2.0000 1.3750
v  0.0000 2.0000 1.0000
v  0.0000 2.0000 -0.0000
v  8.1395 2.0000 1.3750
v  8.1395 2.0000 1.0000
v  8.1395 1.3333 1.3750
v  10.4184 2.0000 1.0000
v  10.4184 2.0000 -0.0000
v  8.1395 2.0000 -0.0000
v  10.4184 2.0000 1.3750
v  10.4184 1.3333 1.3750
v  8.1395 1.2139 1.1958
v  10.4184 1.2139 1.1958
v  13.0000 2.0000 -0.0000
v  12.6974 2.0000 -0.0000
v  12.6974 2.0000 1.0000
v  13.0000 2.0000 1.0000
v  12.6974 2.0000 1.3750
v  10.4184 1.0000 1.1958
v  12.6974 1.0000 1.1958
v  12.6974 1.2139 1.1958
v  12.6974 1.3333 1.3750
v  13.0000 2.0000 1.3750
v  14.0000 2.0000 1.3750
v  14.0000 2.0000 1.0000
v  14.0000 2.0000 -0.0000
v  14.0000 1.3333 1.3750
v  13.0000 1.3333 1.3750
v  5.8605 1.0000 1.1958
v  0.0000 1.0000 7.0000
v  1.3026 1.0000 4.0000
v  1.3026 1.0000 5.5000
v  8.1395 1.0000 1.1958
v  12.6974 1.0000 1.3750
v  14.0000 1.0000 1.3750
v  13.0000 1.0000 1.3750
v  1.0000 -0.0000 -0.0000
v  1.3026 -0.0000 -0.0000
v  1.3026 -0.0000 1.0000
v  1.0000 -0.0000 1.0000
v  3.5816 -0.0000 -0.0000
v  3.5816 -0.0000 1.0000
v  5.8605 -0.0000 -0.0000
v  5.8605 -0.0000 1.0000
v  3.5816 -0.0000 1.3750
v  5.8605 -0.0000 1.3750
v  5.8605 0.6667 1.3750
v  3.5816 0.6667 1.3750
v  5.8605 0.7861 1.1958
v  3.5816 0.7861 1.1958
v  1.3026 -0.0000 1.3750
v  1.3026 0.7861 1.1958
v  1.3026 0.6667 1.3750
v  1.0000 -0.0000 1.3750
v  1.0000 -0.0000 7.0000
v  1.0000 0.6667 7.0000
v  0.0000 0.6667 7.0000
v  0.0000 -0.0000 7.0000
v  1.3026 -0.0000 2.5000
v  1.3026 -0.0000 4.0000
v  1.0000 -0.0000 4.0000
v  1.0000 -0.0000 2.5000
v  1.3026 0.6667 2.5000
v  1.3026 0.6667 4.0000
v  1.3026 -0.0000 5.5000
v  1.3026 -0.0000 6.6321
v  1.0000 -0.0000 6.6321
v  1.0000 -0.0000 5.5000
v  1.3026 0.6667 5.5000
v  1.3026 0.6667 6.6321
v  0.0000 -0.0000 6.6321
v  0.0000 -0.0000 5.5000
v  0.0000 -0.0000 4.0000
v  0.0000 -0.0000 2.5000
v  0.0000 -0.0000 1.3750
v  0.0000 -0.0000 1.0000
v  0.0000 -0.0000 -0.0000
v  8.1395 -0.0000 1.0000
v  8.1395 -0.0000 1.3750
v  8.1395 0.6667 1.3750
v  10.4184 -0.0000 1.0000
v  8.1395 -0.0000 -0.0000
v  10.4184 -0.0000 -0.0000
v  10.4184 -0.0000 1.3750
v  10.4184 0.6667 1.3750
v  10.4184 0.7861 1.1958
v  8.1395 0.7861 1.1958
v  13.0000 -0.0000 -0.0000
v  13.0000 -0.0000 1.0000
v  12.6974 -0.0000 1.0000
v  12.6974 -0.0000 -0.0000
v  12.6974 -0.0000 1.3750
v  12.6974 0.7861 1.1958
v  12.6974 0.6667 1.3750
v  13.0000 -0.0000 1.3750
v  14.0000 -0.0000 1.0000
v  14.0000 -0.0000 1.3750
v  14.0000 -0.0000 -0.0000
v  14.0000 0.6667 1.3750
v  13.0000 0.6667 1.3750
v  0.0000 1.3333 6.6321
v  0.0000 1.3333 5.5000
v  0.0000 1.3333 4.0000
v  0.0000 1.3333 2.5000
v  0.0000 1.3333 1.3750
v  0.0000 1.3333 1.0000
v  0.0000 1.3333 -0.0000
v  14.0000 1.3333 1.0000
v  14.0000 1.3333 -0.0000
v  0.0000 1.0000 6.6321
v  0.0000 1.0000 5.5000
v  0.0000 1.0000 4.0000
v  0.0000 1.0000 2.5000
v  0.0000 1.0000 1.3750
v  0.0000 1.0000 1.0000
v  0.0000 1.0000 -0.0000
v  14.0000 1.0000 1.0000
v  14.0000 1.0000 -0.0000
v  0.0000 0.6667 6.6321
v  0.0000 0.6667 5.5000
v  0.0000 0.6667 4.0000
v  0.0000 0.6667 2.5000
v  0.0000 0.6667 1.3750
v  0.0000 0.6667 1.0000
v  0.0000 0.6667 -0.0000
v  14.0000 0.6667 1.0000
v  14.0000 0.6667 -0.0000
# 171 vertices

vn 0.0000 1.0000 -0.0000
vn 0.0000 0.7071 0.7071
vn 0.0000 -0.4720 0.8816
vn 0.3015 0.9045 0.3015
vn 0.6147 -0.3723 0.6954
vn 0.7071 0.0000 0.7071
vn 0.0000 0.0000 1.0000
vn 0.8302 -0.2631 0.4915
vn 0.3342 0.6225 0.7077
vn 0.4270 0.0000 0.9042
vn 0.7071 0.7071 -0.0000
vn 1.0000 0.0000 -0.0000
vn 0.7245 0.6385 0.2596
vn 0.9414 0.0000 0.3374
vn -0.7071 0.0000 0.7071
vn -0.6147 -0.3723 0.6954
vn -0.1690 -0.2247 0.9597
vn 0.0000 -1.0000 -0.0000
vn 0.0000 -0.7071 0.7071
vn 0.0000 0.4720 0.8816
vn 0.3015 -0.9045 0.3015
vn 0.6147 0.3723 0.6954
vn 0.8302 0.2631 0.4915
vn 0.3342 -0.6225 0.7077
vn 0.7071 -0.7071 -0.0000
vn 0.7245 -0.6385 0.2596
vn -0.6147 0.3723 0.6954
vn -0.1690 0.2247 0.9597
vn -1.0000 0.0000 -0.0000
# 29 vertex normals

vt 0.0340 0.3907 0.0000
vt 0.0340 0.3652 0.0000
vt 0.0417 0.3652 0.0000
vt 0.0417 0.3907 0.0000
vt 0.0997 0.3652 0.0000
vt 0.0997 0.3907 0.0000
vt 0.1576 0.3652 0.0000
vt 0.1576 0.3907 0.0000
vt 0.0997 0.3557 0.0000
vt 0.1576 0.3557 0.0000
vt 0.6861 0.0831 0.0000
vt 0.6861 0.0977 0.0000
vt 0.6331 0.0977 0.0000
vt 0.6333 0.0831 0.0000
vt 0.6338 0.0786 0.0000
vt 0.6863 0.0786 0.0000
vt 0.0417 0.3557 0.0000
vt 0.5820 0.0785 0.0000
vt 0.5821 0.0743 0.0000
vt 0.6341 0.0743 0.0000
vt 0.5799 0.0977 0.0000
vt 0.5799 0.0823 0.0000
vt 0.0340 0.3557 0.0000
vt 0.4460 0.0977 0.0000
vt 0.4230 0.0977 0.0000
vt 0.4230 0.0822 0.0000
vt 0.4460 0.0822 0.0000
vt 0.0417 0.3271 0.0000
vt 0.0340 0.3271 0.0000
vt 0.0340 0.2889 0.0000
vt 0.0417 0.2889 0.0000
vt 0.5531 0.0823 0.0000
vt 0.5532 0.0977 0.0000
vt 0.5182 0.0977 0.0000
vt 0.5182 0.0822 0.0000
vt 0.0417 0.2507 0.0000
vt 0.0340 0.2507 0.0000
vt 0.0340 0.2219 0.0000
vt 0.0417 0.2219 0.0000
vt 0.4834 0.0822 0.0000
vt 0.4834 0.0977 0.0000
vt 0.4571 0.0977 0.0000
vt 0.4571 0.0822 0.0000
vt 0.5529 0.0743 0.0000
vt 0.5785 0.0743 0.0000
vt 0.0340 0.2126 0.0000
vt 0.4460 0.0743 0.0000
vt 0.4571 0.0743 0.0000
vt 0.0086 0.2219 0.0000
vt 0.0086 0.2126 0.0000
vt 0.0086 0.2507 0.0000
vt 0.0086 0.2889 0.0000
vt 0.0086 0.3271 0.0000
vt 0.0086 0.3557 0.0000
vt 0.0086 0.3652 0.0000
vt 0.0086 0.3907 0.0000
vt 0.2156 0.3557 0.0000
vt 0.2156 0.3652 0.0000
vt 0.7388 0.0831 0.0000
vt 0.7389 0.0977 0.0000
vt 0.2736 0.3652 0.0000
vt 0.2736 0.3907 0.0000
vt 0.2156 0.3907 0.0000
vt 0.2736 0.3557 0.0000
vt 0.7915 0.0831 0.0000
vt 0.7918 0.0977 0.0000
vt 0.7388 0.0786 0.0000
vt 0.7911 0.0786 0.0000
vt 0.3393 0.3907 0.0000
vt 0.3316 0.3907 0.0000
vt 0.3316 0.3652 0.0000
vt 0.3393 0.3652 0.0000
vt 0.3316 0.3557 0.0000
vt 0.7909 0.0743 0.0000
vt 0.8428 0.0743 0.0000
vt 0.8428 0.0784 0.0000
vt 0.8447 0.0823 0.0000
vt 0.8446 0.0977 0.0000
vt 0.3393 0.3557 0.0000
vt 0.3647 0.3557 0.0000
vt 0.3647 0.3652 0.0000
vt 0.3647 0.3907 0.0000
vt 0.8752 0.0823 0.0000
vt 0.8752 0.0977 0.0000
vt 0.8520 0.0977 0.0000
vt 0.8522 0.0823 0.0000
vt 0.6863 0.0743 0.0000
vt 0.4230 0.0743 0.0000
vt 0.5181 0.0743 0.0000
vt 0.4833 0.0743 0.0000
vt 0.7387 0.0743 0.0000
vt 0.8462 0.0743 0.0000
vt 0.8752 0.0743 0.0000
vt 0.8526 0.0743 0.0000
vt 1.0340 0.3907 0.0000
vt 1.0417 0.3907 0.0000
vt 1.0417 0.3652 0.0000
vt 1.0340 0.3652 0.0000
vt 1.0997 0.3907 0.0000
vt 1.0997 0.3652 0.0000
vt 1.1576 0.3907 0.0000
vt 1.1576 0.3652 0.0000
vt 1.0997 0.3557 0.0000
vt 1.1576 0.3557 0.0000
vt 1.6861 0.0831 0.0000
vt 1.6333 0.0831 0.0000
vt 1.6331 0.0977 0.0000
vt 1.6861 0.0977 0.0000
vt 1.6863 0.0786 0.0000
vt 1.6338 0.0786 0.0000
vt 1.0417 0.3557 0.0000
vt 1.6341 0.0743 0.0000
vt 1.5821 0.0743 0.0000
vt 1.5820 0.0785 0.0000
vt 1.5799 0.0823 0.0000
vt 1.5799 0.0977 0.0000
vt 1.0340 0.3557 0.0000
vt 1.4460 0.0977 0.0000
vt 1.4460 0.0822 0.0000
vt 1.4230 0.0822 0.0000
vt 1.4230 0.0977 0.0000
vt 1.0417 0.3271 0.0000
vt 1.0417 0.2889 0.0000
vt 1.0340 0.2889 0.0000
vt 1.0340 0.3271 0.0000
vt 1.5531 0.0823 0.0000
vt 1.5182 0.0822 0.0000
vt 1.5182 0.0977 0.0000
vt 1.5532 0.0977 0.0000
vt 1.0417 0.2507 0.0000
vt 1.0417 0.2219 0.0000
vt 1.0340 0.2219 0.0000
vt 1.0340 0.2507 0.0000
vt 1.4834 0.0822 0.0000
vt 1.4571 0.0822 0.0000
vt 1.4571 0.0977 0.0000
vt 1.4834 0.0977 0.0000
vt 1.5785 0.0743 0.0000
vt 1.5529 0.0743 0.0000
vt 1.0340 0.2126 0.0000
vt 1.4571 0.0743 0.0000
vt 1.4460 0.0743 0.0000
vt 1.0086 0.2126 0.0000
vt 1.0086 0.2219 0.0000
vt 1.0086 0.2507 0.0000
vt 1.0086 0.2889 0.0000
vt 1.0086 0.3271 0.0000
vt 1.0086 0.3557 0.0000
vt 1.0086 0.3652 0.0000
vt 1.0086 0.3907 0.0000
vt 1.2156 0.3652 0.0000
vt 1.2156 0.3557 0.0000
vt 1.7389 0.0977 0.0000
vt 1.7388 0.0831 0.0000
vt 1.2736 0.3652 0.0000
vt 1.2156 0.3907 0.0000
vt 1.2736 0.3907 0.0000
vt 1.2736 0.3557 0.0000
vt 1.7918 0.0977 0.0000
vt 1.7915 0.0831 0.0000
vt 1.7911 0.0786 0.0000
vt 1.7388 0.0786 0.0000
vt 1.3393 0.3907 0.0000
vt 1.3393 0.3652 0.0000
vt 1.3316 0.3652 0.0000
vt 1.3316 0.3907 0.0000
vt 1.3316 0.3557 0.0000
vt 1.8428 0.0784 0.0000
vt 1.8428 0.0743 0.0000
vt 1.7909 0.0743 0.0000
vt 1.8446 0.0977 0.0000
vt 1.8447 0.0823 0.0000
vt 1.3393 0.3557 0.0000
vt 1.3647 0.3652 0.0000
vt 1.3647 0.3557 0.0000
vt 1.3647 0.3907 0.0000
vt 1.8752 0.0823 0.0000
vt 1.8522 0.0823 0.0000
vt 1.8520 0.0977 0.0000
vt 1.8752 0.0977 0.0000
vt 1.6863 0.0743 0.0000
vt 1.4230 0.0743 0.0000
vt 1.5181 0.0743 0.0000
vt 1.4833 0.0743 0.0000
vt 1.7387 0.0743 0.0000
vt 1.8462 0.0743 0.0000
vt 1.8752 0.0743 0.0000
vt 1.8526 0.0743 0.0000
# 188 texture coords

o ground_L
g ground_L
f 1/1/1 2/2/1 3/3/1 4/4/1 
f 3/3/1 5/5/1 6/6/1 4/4/1 
f 5/5/1 7/7/1 8/8/1 6/6/1 
f 9/9/2 10/10/2 7/7/1 5/5/1 
f 11/11/3 10/12/2 9/13/2 12/14/3 
f 12/14/3 13/15/3 14/16/3 11/11/3 
f 5/5/1 3/3/1 15/17/4 9/9/2 
f 13/15/3 16/18/5 17/19/6 18/20/7 
f 9/13/2 15/21/4 19/22/8 12/14/3 
f 12/14/3 19/22/8 16/18/5 13/15/3 
f 3/3/1 2/2/1 20/23/1 15/17/4 
f 21/24/9 22/25/2 23/26/7 24/27/10 
f 25/28/11 26/29/1 27/30/1 28/31/11 
f 29/32/12 25/33/11 28/34/11 30/35/12 
f 31/36/11 32/37/1 33/38/1 34/39/13 
f 28/31/11 27/30/1 32/37/1 31/36/11 
f 20/23/1 26/29/1 25/28/11 15/17/4 
f 35/40/12 31/41/11 34/42/13 36/43/14 
f 30/35/12 28/34/11 31/41/11 35/40/12 
f 25/33/11 29/32/12 19/22/8 15/21/4 
f 29/32/12 37/44/12 38/45/12 19/22/8 
f 34/39/13 33/38/1 21/46/9 
f 21/24/9 24/27/10 36/43/14 34/42/13 
f 24/27/10 39/47/10 40/48/14 36/43/14 
f 21/46/9 33/38/1 41/49/1 22/50/2 
f 33/38/1 32/37/1 42/51/1 41/49/1 
f 32/37/1 27/30/1 43/52/1 42/51/1 
f 27/30/1 26/29/1 44/53/1 43/52/1 
f 26/29/1 20/23/1 45/54/1 44/53/1 
f 20/23/1 2/2/1 46/55/1 45/54/1 
f 2/2/1 1/1/1 47/56/1 46/55/1 
f 10/10/2 48/57/2 49/58/1 7/7/1 
f 11/11/3 50/59/3 48/60/2 10/12/2 
f 51/61/1 52/62/1 53/63/1 49/58/1 
f 54/64/2 51/61/1 49/58/1 48/57/2 
f 50/59/3 55/65/3 54/66/2 48/60/2 
f 55/65/3 50/59/3 56/67/3 57/68/3 
f 7/7/1 49/58/1 53/63/1 8/8/1 
f 14/16/3 56/67/3 50/59/3 11/11/3 
f 58/69/1 59/70/1 60/71/1 61/72/1 
f 60/71/1 59/70/1 52/62/1 51/61/1 
f 51/61/1 54/64/2 62/73/2 60/71/1 
f 57/68/3 63/74/7 64/75/15 65/76/16 
f 54/66/2 55/65/3 66/77/17 62/78/2 
f 55/65/3 57/68/3 65/76/16 66/77/17 
f 60/71/1 62/73/2 67/79/2 61/72/1 
f 67/79/2 68/80/2 69/81/1 61/72/1 
f 61/72/1 69/81/1 70/82/1 58/69/1 
f 71/83/7 68/84/2 67/85/2 72/86/7 
f 72/86/7 67/85/2 62/78/2 66/77/17 
f 73/87/7 14/16/3 13/15/3 18/20/7 
f 39/47/10 24/27/10 23/26/7 74/88/7 
f 17/19/6 16/18/5 19/22/8 38/45/12 
f 37/44/12 29/32/12 30/35/12 75/89/12 
f 76/90/12 35/40/12 36/43/14 40/48/14 
f 75/89/12 30/35/12 35/40/12 76/90/12 
f 77/91/7 56/67/3 14/16/3 73/87/7 
f 63/74/7 57/68/3 56/67/3 77/91/7 
f 78/92/15 66/77/17 65/76/16 64/75/15 
f 79/93/7 71/83/7 72/86/7 80/94/7 
f 80/94/7 72/86/7 66/77/17 78/92/15 
f 81/95/18 82/96/18 83/97/18 84/98/18 
f 83/97/18 82/96/18 85/99/18 86/100/18 
f 86/100/18 85/99/18 87/101/18 88/102/18 
f 89/103/19 86/100/18 88/102/18 90/104/19 
f 91/105/20 92/106/20 89/107/19 90/108/19 
f 92/106/20 91/105/20 93/109/20 94/110/20 
f 86/100/18 89/103/19 95/111/21 83/97/18 
f 94/110/20 18/112/7 17/113/6 96/114/22 
f 89/107/19 92/106/20 97/115/23 95/116/21 
f 92/106/20 94/110/20 96/114/22 97/115/23 
f 83/97/18 95/111/21 98/117/18 84/98/18 
f 99/118/24 100/119/10 101/120/7 102/121/19 
f 103/122/25 104/123/25 105/124/18 106/125/18 
f 107/126/12 108/127/12 104/128/25 103/129/25 
f 109/130/25 110/131/26 111/132/18 112/133/18 
f 104/123/25 109/130/25 112/133/18 105/124/18 
f 98/117/18 95/111/21 103/122/25 106/125/18 
f 113/134/12 114/135/14 110/136/26 109/137/25 
f 108/127/12 113/134/12 109/137/25 104/128/25 
f 103/129/25 95/116/21 97/115/23 107/126/12 
f 107/126/12 97/115/23 38/138/12 37/139/12 
f 110/131/26 99/140/24 111/132/18 
f 99/118/24 110/136/26 114/135/14 100/119/10 
f 100/119/10 114/135/14 40/141/14 39/142/10 
f 99/140/24 102/143/19 115/144/18 111/132/18 
f 111/132/18 115/144/18 116/145/18 112/133/18 
f 112/133/18 116/145/18 117/146/18 105/124/18 
f 105/124/18 117/146/18 118/147/18 106/125/18 
f 106/125/18 118/147/18 119/148/18 98/117/18 
f 98/117/18 119/148/18 120/149/18 84/98/18 
f 84/98/18 120/149/18 121/150/18 81/95/18 
f 90/104/19 88/102/18 122/151/18 123/152/19 
f 91/105/20 90/108/19 123/153/19 124/154/20 
f 125/155/18 122/151/18 126/156/18 127/157/18 
f 128/158/19 123/152/19 122/151/18 125/155/18 
f 124/154/20 123/153/19 128/159/19 129/160/20 
f 129/160/20 130/161/20 131/162/20 124/154/20 
f 88/102/18 87/101/18 126/156/18 122/151/18 
f 93/109/20 91/105/20 124/154/20 131/162/20 
f 132/163/18 133/164/18 134/165/18 135/166/18 
f 134/165/18 125/155/18 127/157/18 135/166/18 
f 125/155/18 134/165/18 136/167/19 128/158/19 
f 130/161/20 137/168/27 64/169/15 63/170/7 
f 128/159/19 136/171/19 138/172/28 129/160/20 
f 129/160/20 138/172/28 137/168/27 130/161/20 
f 134/165/18 133/164/18 139/173/19 136/167/19 
f 139/173/19 133/164/18 140/174/18 141/175/19 
f 133/164/18 132/163/18 142/176/18 140/174/18 
f 143/177/7 144/178/7 139/179/19 141/180/19 
f 144/178/7 138/172/28 136/171/19 139/179/19 
f 73/181/7 18/112/7 94/110/20 93/109/20 
f 39/142/10 74/182/7 101/120/7 100/119/10 
f 17/113/6 38/138/12 97/115/23 96/114/22 
f 37/139/12 75/183/12 108/127/12 107/126/12 
f 76/184/12 40/141/14 114/135/14 113/134/12 
f 75/183/12 76/184/12 113/134/12 108/127/12 
f 77/185/7 73/181/7 93/109/20 131/162/20 
f 63/170/7 77/185/7 131/162/20 130/161/20 
f 78/186/15 64/169/15 137/168/27 138/172/28 
f 79/187/7 80/188/7 144/178/7 143/177/7 
f 80/188/7 78/186/15 138/172/28 144/178/7 
f 22/50/29 41/49/29 145/49/29 23/50/29 
f 41/49/29 42/51/29 146/51/29 145/49/29 
f 42/51/29 43/52/29 147/52/29 146/51/29 
f 43/52/29 44/53/29 148/53/29 147/52/29 
f 44/53/29 45/54/29 149/54/29 148/53/29 
f 45/54/29 46/55/29 150/55/29 149/54/29 
f 46/55/29 47/56/29 151/56/29 150/55/29 
f 69/81/12 68/80/12 71/80/12 152/81/12 
f 70/82/12 69/81/12 152/81/12 153/82/12 
f 23/50/29 145/49/29 154/49/29 74/50/29 
f 145/49/29 146/51/29 155/51/29 154/49/29 
f 146/51/29 147/52/29 156/52/29 155/51/29 
f 147/52/29 148/53/29 157/53/29 156/52/29 
f 148/53/29 149/54/29 158/54/29 157/53/29 
f 149/54/29 150/55/29 159/55/29 158/54/29 
f 150/55/29 151/56/29 160/56/29 159/55/29 
f 152/81/12 71/80/12 79/80/12 161/81/12 
f 153/82/12 152/81/12 161/81/12 162/82/12 
f 101/50/29 163/49/29 115/49/29 102/50/29 
f 163/49/29 164/51/29 116/51/29 115/49/29 
f 164/51/29 165/52/29 117/52/29 116/51/29 
f 165/52/29 166/53/29 118/53/29 117/52/29 
f 166/53/29 167/54/29 119/54/29 118/53/29 
f 167/54/29 168/55/29 120/55/29 119/54/29 
f 168/55/29 169/56/29 121/56/29 120/55/29 
f 170/81/12 143/80/12 141/80/12 140/81/12 
f 171/82/12 170/81/12 140/81/12 142/82/12 
f 154/49/29 163/49/29 101/50/29 74/50/29 
f 155/51/29 164/51/29 163/49/29 154/49/29 
f 156/52/29 165/52/29 164/51/29 155/51/29 
f 157/53/29 166/53/29 165/52/29 156/52/29 
f 158/54/29 167/54/29 166/53/29 157/53/29 
f 159/55/29 168/55/29 167/54/29 158/54/29 
f 160/56/29 169/56/29 168/55/29 159/55/29 
f 79/80/12 143/80/12 170/81/12 161/81/12 
f 161/81/12 170/81/12 171/82/12 162/82/12 
# 156 polygons - 2 triangles

