# 3ds Max Wavefront OBJ Exporter v0.97b - (c)2007 guruware
# File Created: 07.12.2019 17:06:48

#
# object ground_double_L
#

v  1.0000 2.0000 -0.0000
v  1.0000 2.0000 1.0000
v  1.3026 2.0000 1.0000
v  1.3026 2.0000 -0.0000
v  3.5816 2.0000 1.0000
v  3.5816 2.0000 -0.0000
v  5.8605 2.0000 1.0000
v  5.8605 2.0000 -0.0000
v  3.5816 2.0000 1.3750
v  5.8605 2.0000 1.3750
v  5.8605 1.3333 1.3750
v  3.5816 1.3333 1.3750
v  3.5816 1.2139 1.1958
v  5.8605 1.2139 1.1958
v  1.3026 2.0000 1.3750
v  1.3026 1.2139 1.1958
v  1.3026 1.0000 1.1958
v  3.5816 1.0000 1.1958
v  1.3026 1.3333 1.3750
v  1.0000 2.0000 1.3750
v  1.0000 2.0000 7.0000
v  -0.0000 2.0000 7.0000
v  -0.0000 1.3333 7.0000
v  1.0000 1.3333 7.0000
v  1.3026 2.0000 2.5000
v  1.0000 2.0000 2.5000
v  1.0000 2.0000 4.0000
v  1.3026 2.0000 4.0000
v  1.3026 1.3333 2.5000
v  1.3026 1.3333 4.0000
v  1.3026 2.0000 5.5000
v  1.0000 2.0000 5.5000
v  1.0000 2.0000 6.6321
v  1.3026 2.0000 6.6321
v  1.3026 1.3333 5.5000
v  1.3026 1.3333 6.6321
v  1.3026 1.0000 2.5000
v  1.3026 1.0000 1.3750
v  1.0000 1.0000 7.0000
v  1.3026 1.0000 6.6321
v  -0.0000 2.0000 6.6321
v  -0.0000 2.0000 5.5000
v  -0.0000 2.0000 4.0000
v  -0.0000 2.0000 2.5000
v  -0.0000 2.0000 1.3750
v  -0.0000 2.0000 1.0000
v  -0.0000 2.0000 -0.0000
v  7.0000 2.0000 1.3750
v  7.0000 2.0000 1.0000
v  7.0000 1.3333 1.3750
v  7.0000 2.0000 -0.0000
v  7.0000 1.2139 1.1958
v  5.8605 1.0000 1.1958
v  -0.0000 1.0000 7.0000
v  1.3026 1.0000 4.0000
v  1.3026 1.0000 5.5000
v  7.0000 1.0000 1.1958
v  1.0000 0.0000 -0.0000
v  1.3026 0.0000 -0.0000
v  1.3026 0.0000 1.0000
v  1.0000 0.0000 1.0000
v  3.5816 0.0000 -0.0000
v  3.5816 0.0000 1.0000
v  5.8605 0.0000 -0.0000
v  5.8605 0.0000 1.0000
v  3.5816 0.0000 1.3750
v  5.8605 0.0000 1.3750
v  5.8605 0.6667 1.3750
v  3.5816 0.6667 1.3750
v  5.8605 0.7861 1.1958
v  3.5816 0.7861 1.1958
v  1.3026 0.0000 1.3750
v  1.3026 0.7861 1.1958
v  1.3026 0.6667 1.3750
v  1.0000 0.0000 1.3750
v  1.0000 0.0000 7.0000
v  1.0000 0.6667 7.0000
v  -0.0000 0.6667 7.0000
v  -0.0000 0.0000 7.0000
v  1.3026 0.0000 2.5000
v  1.3026 0.0000 4.0000
v  1.0000 0.0000 4.0000
v  1.0000 0.0000 2.5000
v  1.3026 0.6667 2.5000
v  1.3026 0.6667 4.0000
v  1.3026 0.0000 5.5000
v  1.3026 0.0000 6.6321
v  1.0000 0.0000 6.6321
v  1.0000 0.0000 5.5000
v  1.3026 0.6667 5.5000
v  1.3026 0.6667 6.6321
v  -0.0000 0.0000 6.6321
v  -0.0000 0.0000 5.5000
v  -0.0000 0.0000 4.0000
v  -0.0000 0.0000 2.5000
v  -0.0000 0.0000 1.3750
v  -0.0000 0.0000 1.0000
v  -0.0000 0.0000 -0.0000
v  7.0000 0.0000 1.0000
v  7.0000 0.0000 1.3750
v  7.0000 0.6667 1.3750
v  7.0000 0.0000 -0.0000
v  7.0000 0.7861 1.1958
v  13.0000 2.0000 -0.0000
v  12.6974 2.0000 -0.0000
v  12.6974 2.0000 1.0000
v  13.0000 2.0000 1.0000
v  10.4184 2.0000 -0.0000
v  10.4184 2.0000 1.0000
v  8.1395 2.0000 -0.0000
v  8.1395 2.0000 1.0000
v  10.4184 2.0000 1.3750
v  8.1395 2.0000 1.3750
v  8.1395 1.3333 1.3750
v  10.4184 1.3333 1.3750
v  8.1395 1.2139 1.1958
v  10.4184 1.2139 1.1958
v  12.6974 2.0000 1.3750
v  10.4184 1.0000 1.1958
v  12.6974 1.0000 1.1958
v  12.6974 1.2139 1.1958
v  12.6974 1.3333 1.3750
v  13.0000 2.0000 1.3750
v  13.0000 2.0000 7.0000
v  13.0000 1.3333 7.0000
v  14.0000 1.3333 7.0000
v  14.0000 2.0000 7.0000
v  12.6974 2.0000 2.5000
v  12.6974 2.0000 4.0000
v  13.0000 2.0000 4.0000
v  13.0000 2.0000 2.5000
v  12.6974 1.3333 2.5000
v  12.6974 1.3333 4.0000
v  12.6974 2.0000 5.5000
v  12.6974 2.0000 6.6321
v  13.0000 2.0000 6.6321
v  13.0000 2.0000 5.5000
v  12.6974 1.3333 5.5000
v  12.6974 1.3333 6.6321
v  12.6974 1.0000 1.3750
v  12.6974 1.0000 2.5000
v  12.6974 1.0000 6.6321
v  13.0000 1.0000 7.0000
v  14.0000 2.0000 6.6321
v  14.0000 2.0000 5.5000
v  14.0000 2.0000 4.0000
v  14.0000 2.0000 2.5000
v  14.0000 2.0000 1.3750
v  14.0000 2.0000 1.0000
v  14.0000 2.0000 -0.0000
v  8.1395 1.0000 1.1958
v  14.0000 1.0000 7.0000
v  12.6974 1.0000 4.0000
v  12.6974 1.0000 5.5000
v  13.0000 0.0000 -0.0000
v  13.0000 0.0000 1.0000
v  12.6974 0.0000 1.0000
v  12.6974 0.0000 -0.0000
v  10.4184 0.0000 1.0000
v  10.4184 0.0000 -0.0000
v  8.1395 0.0000 1.0000
v  8.1395 0.0000 -0.0000
v  10.4184 0.0000 1.3750
v  8.1395 0.0000 1.3750
v  8.1395 0.6667 1.3750
v  10.4184 0.6667 1.3750
v  10.4184 0.7861 1.1958
v  8.1395 0.7861 1.1958
v  12.6974 0.0000 1.3750
v  12.6974 0.7861 1.1958
v  12.6974 0.6667 1.3750
v  13.0000 0.0000 1.3750
v  13.0000 0.0000 7.0000
v  14.0000 0.0000 7.0000
v  14.0000 0.6667 7.0000
v  13.0000 0.6667 7.0000
v  12.6974 0.0000 2.5000
v  13.0000 0.0000 2.5000
v  13.0000 0.0000 4.0000
v  12.6974 0.0000 4.0000
v  12.6974 0.6667 2.5000
v  12.6974 0.6667 4.0000
v  12.6974 0.0000 5.5000
v  13.0000 0.0000 5.5000
v  13.0000 0.0000 6.6321
v  12.6974 0.0000 6.6321
v  12.6974 0.6667 5.5000
v  12.6974 0.6667 6.6321
v  14.0000 0.0000 6.6321
v  14.0000 0.0000 5.5000
v  14.0000 0.0000 4.0000
v  14.0000 0.0000 2.5000
v  14.0000 0.0000 1.3750
v  14.0000 0.0000 1.0000
v  14.0000 0.0000 -0.0000
v  -0.0000 1.3333 6.6321
v  -0.0000 1.3333 5.5000
v  -0.0000 1.3333 4.0000
v  -0.0000 1.3333 2.5000
v  -0.0000 1.3333 1.3750
v  -0.0000 1.3333 1.0000
v  -0.0000 1.3333 -0.0000
v  14.0000 1.3333 6.6321
v  14.0000 1.3333 5.5000
v  14.0000 1.3333 4.0000
v  14.0000 1.3333 2.5000
v  14.0000 1.3333 1.3750
v  14.0000 1.3333 1.0000
v  14.0000 1.3333 -0.0000
v  -0.0000 1.0000 6.6321
v  -0.0000 1.0000 5.5000
v  -0.0000 1.0000 4.0000
v  -0.0000 1.0000 2.5000
v  -0.0000 1.0000 1.3750
v  -0.0000 1.0000 1.0000
v  -0.0000 1.0000 -0.0000
v  14.0000 1.0000 6.6321
v  14.0000 1.0000 5.5000
v  14.0000 1.0000 4.0000
v  14.0000 1.0000 2.5000
v  14.0000 1.0000 1.3750
v  14.0000 1.0000 1.0000
v  14.0000 1.0000 -0.0000
v  -0.0000 0.6667 6.6321
v  -0.0000 0.6667 5.5000
v  -0.0000 0.6667 4.0000
v  -0.0000 0.6667 2.5000
v  -0.0000 0.6667 1.3750
v  -0.0000 0.6667 1.0000
v  -0.0000 0.6667 -0.0000
v  14.0000 0.6667 6.6321
v  14.0000 0.6667 5.5000
v  14.0000 0.6667 4.0000
v  14.0000 0.6667 2.5000
v  14.0000 0.6667 1.3750
v  14.0000 0.6667 1.0000
v  14.0000 0.6667 -0.0000
# 237 vertices

vn 0.0000 1.0000 -0.0000
vn 0.0000 0.7071 0.7071
vn 0.0000 -0.4720 0.8816
vn 0.3015 0.9045 0.3015
vn 0.6147 -0.3723 0.6954
vn 0.7071 0.0000 0.7071
vn 0.0000 0.0000 1.0000
vn 0.8302 -0.2631 0.4915
vn 0.3342 0.6225 0.7077
vn 0.4270 0.0000 0.9042
vn 0.7071 0.7071 -0.0000
vn 1.0000 0.0000 -0.0000
vn 0.7245 0.6385 0.2596
vn 0.9414 0.0000 0.3374
vn 0.0000 -1.0000 -0.0000
vn 0.0000 -0.7071 0.7071
vn 0.0000 0.4720 0.8816
vn 0.3015 -0.9045 0.3015
vn 0.6147 0.3723 0.6954
vn 0.8302 0.2631 0.4915
vn 0.3342 -0.6225 0.7077
vn 0.7071 -0.7071 -0.0000
vn 0.7245 -0.6385 0.2596
vn -0.3015 0.9045 0.3015
vn -0.7071 0.0000 0.7071
vn -0.6147 -0.3723 0.6954
vn -0.8302 -0.2631 0.4915
vn -0.3342 0.6224 0.7077
vn -0.4271 0.0000 0.9042
vn -0.7071 0.7071 -0.0000
vn -1.0000 0.0000 -0.0000
vn -0.7245 0.6385 0.2597
vn -0.9414 0.0000 0.3374
vn -0.3015 -0.9045 0.3015
vn -0.6147 0.3723 0.6954
vn -0.8302 0.2631 0.4915
vn -0.3342 -0.6224 0.7077
vn -0.7071 -0.7071 -0.0000
vn -0.7245 -0.6385 0.2597
# 39 vertex normals

vt 0.7794 0.7190 0.0000
vt 0.7794 0.6936 0.0000
vt 0.7871 0.6936 0.0000
vt 0.7871 0.7190 0.0000
vt 0.8450 0.6936 0.0000
vt 0.8450 0.7190 0.0000
vt 0.9030 0.6936 0.0000
vt 0.9030 0.7190 0.0000
vt 0.8450 0.6841 0.0000
vt 0.9030 0.6841 0.0000
vt 0.6836 0.1458 0.0000
vt 0.6835 0.1604 0.0000
vt 0.6310 0.1604 0.0000
vt 0.6313 0.1457 0.0000
vt 0.6317 0.1412 0.0000
vt 0.6838 0.1412 0.0000
vt 0.7871 0.6841 0.0000
vt 0.5802 0.1411 0.0000
vt 0.5803 0.1369 0.0000
vt 0.6320 0.1369 0.0000
vt 0.5783 0.1604 0.0000
vt 0.5782 0.1450 0.0000
vt 0.7794 0.6841 0.0000
vt 0.4459 0.1604 0.0000
vt 0.4230 0.1604 0.0000
vt 0.4230 0.1448 0.0000
vt 0.4459 0.1448 0.0000
vt 0.7871 0.6554 0.0000
vt 0.7794 0.6555 0.0000
vt 0.7794 0.6173 0.0000
vt 0.7870 0.6173 0.0000
vt 0.5520 0.1449 0.0000
vt 0.5521 0.1604 0.0000
vt 0.5175 0.1604 0.0000
vt 0.5174 0.1449 0.0000
vt 0.7870 0.5791 0.0000
vt 0.7794 0.5791 0.0000
vt 0.7794 0.5503 0.0000
vt 0.7870 0.5503 0.0000
vt 0.4830 0.1448 0.0000
vt 0.4830 0.1604 0.0000
vt 0.4569 0.1604 0.0000
vt 0.4569 0.1448 0.0000
vt 0.5518 0.1369 0.0000
vt 0.5770 0.1369 0.0000
vt 0.7793 0.5410 0.0000
vt 0.4459 0.1369 0.0000
vt 0.4569 0.1369 0.0000
vt 0.7539 0.5503 0.0000
vt 0.7539 0.5410 0.0000
vt 0.7539 0.5791 0.0000
vt 0.7539 0.6173 0.0000
vt 0.7539 0.6555 0.0000
vt 0.7539 0.6841 0.0000
vt 0.7539 0.6936 0.0000
vt 0.7539 0.7190 0.0000
vt 0.9320 0.6841 0.0000
vt 0.9320 0.6936 0.0000
vt 0.7098 0.1458 0.0000
vt 0.7098 0.1604 0.0000
vt 0.9320 0.7190 0.0000
vt 0.7098 0.1413 0.0000
vt 0.6838 0.1369 0.0000
vt 0.4230 0.1369 0.0000
vt 0.5174 0.1369 0.0000
vt 0.4829 0.1369 0.0000
vt 0.7098 0.1369 0.0000
vt 1.7794 0.7190 0.0000
vt 1.7871 0.7190 0.0000
vt 1.7871 0.6936 0.0000
vt 1.7794 0.6936 0.0000
vt 1.8450 0.7190 0.0000
vt 1.8450 0.6936 0.0000
vt 1.9030 0.7190 0.0000
vt 1.9030 0.6936 0.0000
vt 1.8450 0.6841 0.0000
vt 1.9030 0.6841 0.0000
vt 1.6836 0.1458 0.0000
vt 1.6313 0.1457 0.0000
vt 1.6310 0.1604 0.0000
vt 1.6835 0.1604 0.0000
vt 1.6838 0.1412 0.0000
vt 1.6317 0.1412 0.0000
vt 1.7871 0.6841 0.0000
vt 1.6320 0.1369 0.0000
vt 1.5803 0.1369 0.0000
vt 1.5802 0.1411 0.0000
vt 1.5782 0.1450 0.0000
vt 1.5783 0.1604 0.0000
vt 1.7794 0.6841 0.0000
vt 1.4459 0.1604 0.0000
vt 1.4459 0.1448 0.0000
vt 1.4230 0.1448 0.0000
vt 1.4230 0.1604 0.0000
vt 1.7871 0.6554 0.0000
vt 1.7870 0.6173 0.0000
vt 1.7794 0.6173 0.0000
vt 1.7794 0.6555 0.0000
vt 1.5520 0.1449 0.0000
vt 1.5174 0.1449 0.0000
vt 1.5175 0.1604 0.0000
vt 1.5521 0.1604 0.0000
vt 1.7870 0.5791 0.0000
vt 1.7870 0.5503 0.0000
vt 1.7794 0.5503 0.0000
vt 1.7794 0.5791 0.0000
vt 1.4830 0.1448 0.0000
vt 1.4569 0.1448 0.0000
vt 1.4569 0.1604 0.0000
vt 1.4830 0.1604 0.0000
vt 1.5770 0.1369 0.0000
vt 1.5518 0.1369 0.0000
vt 1.7794 0.5410 0.0000
vt 1.4569 0.1369 0.0000
vt 1.4459 0.1369 0.0000
vt 1.7539 0.5410 0.0000
vt 1.7539 0.5503 0.0000
vt 1.7539 0.5791 0.0000
vt 1.7539 0.6173 0.0000
vt 1.7539 0.6555 0.0000
vt 1.7539 0.6841 0.0000
vt 1.7539 0.6936 0.0000
vt 1.7539 0.7190 0.0000
vt 1.9320 0.6936 0.0000
vt 1.9320 0.6841 0.0000
vt 1.7098 0.1604 0.0000
vt 1.7098 0.1458 0.0000
vt 1.9320 0.7190 0.0000
vt 1.7098 0.1413 0.0000
vt 1.6838 0.1369 0.0000
vt 1.4230 0.1369 0.0000
vt 1.5174 0.1369 0.0000
vt 1.4829 0.1369 0.0000
vt 1.7098 0.1369 0.0000
vt 0.7794 1.7190 0.0000
vt 0.7871 1.7190 0.0000
vt 0.7871 1.6936 0.0000
vt 0.7794 1.6936 0.0000
vt 0.8450 1.7190 0.0000
vt 0.8450 1.6936 0.0000
vt 0.9030 1.7190 0.0000
vt 0.9030 1.6936 0.0000
vt 0.8450 1.6841 0.0000
vt 0.9030 1.6841 0.0000
vt 0.6836 1.1458 0.0000
vt 0.6313 1.1457 0.0000
vt 0.6310 1.1604 0.0000
vt 0.6835 1.1604 0.0000
vt 0.6838 1.1412 0.0000
vt 0.6317 1.1412 0.0000
vt 0.7871 1.6841 0.0000
vt 0.6320 1.1369 0.0000
vt 0.5803 1.1369 0.0000
vt 0.5802 1.1411 0.0000
vt 0.5782 1.1450 0.0000
vt 0.5783 1.1604 0.0000
vt 0.7794 1.6841 0.0000
vt 0.4459 1.1604 0.0000
vt 0.4459 1.1448 0.0000
vt 0.4230 1.1448 0.0000
vt 0.4230 1.1604 0.0000
vt 0.7871 1.6554 0.0000
vt 0.7870 1.6173 0.0000
vt 0.7794 1.6173 0.0000
vt 0.7794 1.6555 0.0000
vt 0.5520 1.1449 0.0000
vt 0.5174 1.1449 0.0000
vt 0.5175 1.1604 0.0000
vt 0.5521 1.1604 0.0000
vt 0.7870 1.5791 0.0000
vt 0.7870 1.5503 0.0000
vt 0.7794 1.5503 0.0000
vt 0.7794 1.5791 0.0000
vt 0.4830 1.1448 0.0000
vt 0.4569 1.1448 0.0000
vt 0.4569 1.1604 0.0000
vt 0.4830 1.1604 0.0000
vt 0.5770 1.1369 0.0000
vt 0.5518 1.1369 0.0000
vt 0.7793 1.5410 0.0000
vt 0.4569 1.1369 0.0000
vt 0.4459 1.1369 0.0000
vt 0.7539 1.5410 0.0000
vt 0.7539 1.5503 0.0000
vt 0.7539 1.5791 0.0000
vt 0.7539 1.6173 0.0000
vt 0.7539 1.6555 0.0000
vt 0.7539 1.6841 0.0000
vt 0.7539 1.6936 0.0000
vt 0.7539 1.7190 0.0000
vt 0.9320 1.6936 0.0000
vt 0.9320 1.6841 0.0000
vt 0.7098 1.1604 0.0000
vt 0.7098 1.1458 0.0000
vt 0.9320 1.7190 0.0000
vt 0.7098 1.1413 0.0000
vt 0.6838 1.1369 0.0000
vt 0.4230 1.1369 0.0000
vt 0.5174 1.1369 0.0000
vt 0.4829 1.1369 0.0000
vt 0.7098 1.1369 0.0000
vt 1.7794 1.7190 0.0000
vt 1.7794 1.6936 0.0000
vt 1.7871 1.6936 0.0000
vt 1.7871 1.7190 0.0000
vt 1.8450 1.6936 0.0000
vt 1.8450 1.7190 0.0000
vt 1.9030 1.6936 0.0000
vt 1.9030 1.7190 0.0000
vt 1.8450 1.6841 0.0000
vt 1.9030 1.6841 0.0000
vt 1.6836 1.1458 0.0000
vt 1.6835 1.1604 0.0000
vt 1.6310 1.1604 0.0000
vt 1.6313 1.1457 0.0000
vt 1.6317 1.1412 0.0000
vt 1.6838 1.1412 0.0000
vt 1.7871 1.6841 0.0000
vt 1.5802 1.1411 0.0000
vt 1.5803 1.1369 0.0000
vt 1.6320 1.1369 0.0000
vt 1.5783 1.1604 0.0000
vt 1.5782 1.1450 0.0000
vt 1.7794 1.6841 0.0000
vt 1.4459 1.1604 0.0000
vt 1.4230 1.1604 0.0000
vt 1.4230 1.1448 0.0000
vt 1.4459 1.1448 0.0000
vt 1.7871 1.6554 0.0000
vt 1.7794 1.6555 0.0000
vt 1.7794 1.6173 0.0000
vt 1.7870 1.6173 0.0000
vt 1.5520 1.1449 0.0000
vt 1.5521 1.1604 0.0000
vt 1.5175 1.1604 0.0000
vt 1.5174 1.1449 0.0000
vt 1.7870 1.5791 0.0000
vt 1.7794 1.5791 0.0000
vt 1.7794 1.5503 0.0000
vt 1.7870 1.5503 0.0000
vt 1.4830 1.1448 0.0000
vt 1.4830 1.1604 0.0000
vt 1.4569 1.1604 0.0000
vt 1.4569 1.1448 0.0000
vt 1.5518 1.1369 0.0000
vt 1.5770 1.1369 0.0000
vt 1.7794 1.5410 0.0000
vt 1.4459 1.1369 0.0000
vt 1.4569 1.1369 0.0000
vt 1.7539 1.5503 0.0000
vt 1.7539 1.5410 0.0000
vt 1.7539 1.5791 0.0000
vt 1.7539 1.6173 0.0000
vt 1.7539 1.6555 0.0000
vt 1.7539 1.6841 0.0000
vt 1.7539 1.6936 0.0000
vt 1.7539 1.7190 0.0000
vt 1.9320 1.6841 0.0000
vt 1.9320 1.6936 0.0000
vt 1.7098 1.1458 0.0000
vt 1.7098 1.1604 0.0000
vt 1.9320 1.7190 0.0000
vt 1.7098 1.1413 0.0000
vt 1.6838 1.1369 0.0000
vt 1.4230 1.1369 0.0000
vt 1.5174 1.1369 0.0000
vt 1.4829 1.1369 0.0000
vt 1.7098 1.1369 0.0000
# 268 texture coords

o ground_double_L
g ground_double_L
f 1/1/1 2/2/1 3/3/1 4/4/1 
f 3/3/1 5/5/1 6/6/1 4/4/1 
f 5/5/1 7/7/1 8/8/1 6/6/1 
f 9/9/2 10/10/2 7/7/1 5/5/1 
f 11/11/3 10/12/2 9/13/2 12/14/3 
f 12/14/3 13/15/3 14/16/3 11/11/3 
f 5/5/1 3/3/1 15/17/4 9/9/2 
f 13/15/3 16/18/5 17/19/6 18/20/7 
f 9/13/2 15/21/4 19/22/8 12/14/3 
f 12/14/3 19/22/8 16/18/5 13/15/3 
f 3/3/1 2/2/1 20/23/1 15/17/4 
f 21/24/9 22/25/2 23/26/7 24/27/10 
f 25/28/11 26/29/1 27/30/1 28/31/11 
f 29/32/12 25/33/11 28/34/11 30/35/12 
f 31/36/11 32/37/1 33/38/1 34/39/13 
f 28/31/11 27/30/1 32/37/1 31/36/11 
f 20/23/1 26/29/1 25/28/11 15/17/4 
f 35/40/12 31/41/11 34/42/13 36/43/14 
f 30/35/12 28/34/11 31/41/11 35/40/12 
f 25/33/11 29/32/12 19/22/8 15/21/4 
f 29/32/12 37/44/12 38/45/12 19/22/8 
f 34/39/13 33/38/1 21/46/9 
f 21/24/9 24/27/10 36/43/14 34/42/13 
f 24/27/10 39/47/10 40/48/14 36/43/14 
f 21/46/9 33/38/1 41/49/1 22/50/2 
f 33/38/1 32/37/1 42/51/1 41/49/1 
f 32/37/1 27/30/1 43/52/1 42/51/1 
f 27/30/1 26/29/1 44/53/1 43/52/1 
f 26/29/1 20/23/1 45/54/1 44/53/1 
f 20/23/1 2/2/1 46/55/1 45/54/1 
f 2/2/1 1/1/1 47/56/1 46/55/1 
f 10/10/2 48/57/2 49/58/1 7/7/1 
f 11/11/3 50/59/3 48/60/2 10/12/2 
f 7/7/1 49/58/1 51/61/1 8/8/1 
f 14/16/3 52/62/3 50/59/3 11/11/3 
f 53/63/7 14/16/3 13/15/3 18/20/7 
f 39/47/10 24/27/10 23/26/7 54/64/7 
f 17/19/6 16/18/5 19/22/8 38/45/12 
f 37/44/12 29/32/12 30/35/12 55/65/12 
f 56/66/12 35/40/12 36/43/14 40/48/14 
f 55/65/12 30/35/12 35/40/12 56/66/12 
f 57/67/7 52/62/3 14/16/3 53/63/7 
f 58/68/15 59/69/15 60/70/15 61/71/15 
f 60/70/15 59/69/15 62/72/15 63/73/15 
f 63/73/15 62/72/15 64/74/15 65/75/15 
f 66/76/16 63/73/15 65/75/15 67/77/16 
f 68/78/17 69/79/17 66/80/16 67/81/16 
f 69/79/17 68/78/17 70/82/17 71/83/17 
f 63/73/15 66/76/16 72/84/18 60/70/15 
f 71/83/17 18/85/7 17/86/6 73/87/19 
f 66/80/16 69/79/17 74/88/20 72/89/18 
f 69/79/17 71/83/17 73/87/19 74/88/20 
f 60/70/15 72/84/18 75/90/15 61/71/15 
f 76/91/21 77/92/10 78/93/7 79/94/16 
f 80/95/22 81/96/22 82/97/15 83/98/15 
f 84/99/12 85/100/12 81/101/22 80/102/22 
f 86/103/22 87/104/23 88/105/15 89/106/15 
f 81/96/22 86/103/22 89/106/15 82/97/15 
f 75/90/15 72/84/18 80/95/22 83/98/15 
f 90/107/12 91/108/14 87/109/23 86/110/22 
f 85/100/12 90/107/12 86/110/22 81/101/22 
f 80/102/22 72/89/18 74/88/20 84/99/12 
f 84/99/12 74/88/20 38/111/12 37/112/12 
f 87/104/23 76/113/21 88/105/15 
f 76/91/21 87/109/23 91/108/14 77/92/10 
f 77/92/10 91/108/14 40/114/14 39/115/10 
f 76/113/21 79/116/16 92/117/15 88/105/15 
f 88/105/15 92/117/15 93/118/15 89/106/15 
f 89/106/15 93/118/15 94/119/15 82/97/15 
f 82/97/15 94/119/15 95/120/15 83/98/15 
f 83/98/15 95/120/15 96/121/15 75/90/15 
f 75/90/15 96/121/15 97/122/15 61/71/15 
f 61/71/15 97/122/15 98/123/15 58/68/15 
f 67/77/16 65/75/15 99/124/15 100/125/16 
f 68/78/17 67/81/16 100/126/16 101/127/17 
f 65/75/15 64/74/15 102/128/15 99/124/15 
f 70/82/17 68/78/17 101/127/17 103/129/17 
f 53/130/7 18/85/7 71/83/17 70/82/17 
f 39/115/10 54/131/7 78/93/7 77/92/10 
f 17/86/6 38/111/12 74/88/20 73/87/19 
f 37/112/12 55/132/12 85/100/12 84/99/12 
f 56/133/12 40/114/14 91/108/14 90/107/12 
f 55/132/12 56/133/12 90/107/12 85/100/12 
f 57/134/7 53/130/7 70/82/17 103/129/17 
f 104/135/1 105/136/1 106/137/1 107/138/1 
f 106/137/1 105/136/1 108/139/1 109/140/1 
f 109/140/1 108/139/1 110/141/1 111/142/1 
f 112/143/2 109/140/1 111/142/1 113/144/2 
f 114/145/3 115/146/3 112/147/2 113/148/2 
f 115/146/3 114/145/3 116/149/3 117/150/3 
f 109/140/1 112/143/2 118/151/24 106/137/1 
f 117/150/3 119/152/7 120/153/25 121/154/26 
f 112/147/2 115/146/3 122/155/27 118/156/24 
f 115/146/3 117/150/3 121/154/26 122/155/27 
f 106/137/1 118/151/24 123/157/1 107/138/1 
f 124/158/28 125/159/29 126/160/7 127/161/2 
f 128/162/30 129/163/30 130/164/1 131/165/1 
f 132/166/31 133/167/31 129/168/30 128/169/30 
f 134/170/30 135/171/32 136/172/1 137/173/1 
f 129/163/30 134/170/30 137/173/1 130/164/1 
f 123/157/1 118/151/24 128/162/30 131/165/1 
f 138/174/31 139/175/33 135/176/32 134/177/30 
f 133/167/31 138/174/31 134/177/30 129/168/30 
f 128/169/30 118/156/24 122/155/27 132/166/31 
f 132/166/31 122/155/27 140/178/31 141/179/31 
f 135/171/32 124/180/28 136/172/1 
f 124/158/28 135/176/32 139/175/33 125/159/29 
f 125/159/29 139/175/33 142/181/33 143/182/29 
f 124/180/28 127/183/2 144/184/1 136/172/1 
f 136/172/1 144/184/1 145/185/1 137/173/1 
f 137/173/1 145/185/1 146/186/1 130/164/1 
f 130/164/1 146/186/1 147/187/1 131/165/1 
f 131/165/1 147/187/1 148/188/1 123/157/1 
f 123/157/1 148/188/1 149/189/1 107/138/1 
f 107/138/1 149/189/1 150/190/1 104/135/1 
f 113/144/2 111/142/1 49/191/1 48/192/2 
f 114/145/3 113/148/2 48/193/2 50/194/3 
f 111/142/1 110/141/1 51/195/1 49/191/1 
f 116/149/3 114/145/3 50/194/3 52/196/3 
f 151/197/7 119/152/7 117/150/3 116/149/3 
f 143/182/29 152/198/7 126/160/7 125/159/29 
f 120/153/25 140/178/31 122/155/27 121/154/26 
f 141/179/31 153/199/31 133/167/31 132/166/31 
f 154/200/31 142/181/33 139/175/33 138/174/31 
f 153/199/31 154/200/31 138/174/31 133/167/31 
f 57/201/7 151/197/7 116/149/3 52/196/3 
f 155/202/15 156/203/15 157/204/15 158/205/15 
f 157/204/15 159/206/15 160/207/15 158/205/15 
f 159/206/15 161/208/15 162/209/15 160/207/15 
f 163/210/16 164/211/16 161/208/15 159/206/15 
f 165/212/17 164/213/16 163/214/16 166/215/17 
f 166/215/17 167/216/17 168/217/17 165/212/17 
f 159/206/15 157/204/15 169/218/34 163/210/16 
f 167/216/17 170/219/35 120/220/25 119/221/7 
f 163/214/16 169/222/34 171/223/36 166/215/17 
f 166/215/17 171/223/36 170/219/35 167/216/17 
f 157/204/15 156/203/15 172/224/15 169/218/34 
f 173/225/37 174/226/16 175/227/7 176/228/29 
f 177/229/38 178/230/15 179/231/15 180/232/38 
f 181/233/31 177/234/38 180/235/38 182/236/31 
f 183/237/38 184/238/15 185/239/15 186/240/39 
f 180/232/38 179/231/15 184/238/15 183/237/38 
f 172/224/15 178/230/15 177/229/38 169/218/34 
f 187/241/31 183/242/38 186/243/39 188/244/33 
f 182/236/31 180/235/38 183/242/38 187/241/31 
f 177/234/38 181/233/31 171/223/36 169/222/34 
f 181/233/31 141/245/31 140/246/31 171/223/36 
f 186/240/39 185/239/15 173/247/37 
f 173/225/37 176/228/29 188/244/33 186/243/39 
f 176/228/29 143/248/29 142/249/33 188/244/33 
f 173/247/37 185/239/15 189/250/15 174/251/16 
f 185/239/15 184/238/15 190/252/15 189/250/15 
f 184/238/15 179/231/15 191/253/15 190/252/15 
f 179/231/15 178/230/15 192/254/15 191/253/15 
f 178/230/15 172/224/15 193/255/15 192/254/15 
f 172/224/15 156/203/15 194/256/15 193/255/15 
f 156/203/15 155/202/15 195/257/15 194/256/15 
f 164/211/16 100/258/16 99/259/15 161/208/15 
f 165/212/17 101/260/17 100/261/16 164/213/16 
f 161/208/15 99/259/15 102/262/15 162/209/15 
f 168/217/17 103/263/17 101/260/17 165/212/17 
f 151/264/7 168/217/17 167/216/17 119/221/7 
f 143/248/29 176/228/29 175/227/7 152/265/7 
f 120/220/25 170/219/35 171/223/36 140/246/31 
f 141/245/31 181/233/31 182/236/31 153/266/31 
f 154/267/31 187/241/31 188/244/33 142/249/33 
f 153/266/31 182/236/31 187/241/31 154/267/31 
f 57/268/7 103/263/17 168/217/17 151/264/7 
f 22/50/31 41/49/31 196/49/31 23/50/31 
f 41/49/31 42/51/31 197/51/31 196/49/31 
f 42/51/31 43/52/31 198/52/31 197/51/31 
f 43/52/31 44/53/31 199/53/31 198/52/31 
f 44/53/31 45/54/31 200/54/31 199/53/31 
f 45/54/31 46/55/31 201/55/31 200/54/31 
f 46/55/31 47/56/31 202/56/31 201/55/31 
f 144/184/12 127/183/12 126/183/12 203/184/12 
f 145/185/12 144/184/12 203/184/12 204/185/12 
f 146/186/12 145/185/12 204/185/12 205/186/12 
f 147/187/12 146/186/12 205/186/12 206/187/12 
f 148/188/12 147/187/12 206/187/12 207/188/12 
f 149/189/12 148/188/12 207/188/12 208/189/12 
f 150/190/12 149/189/12 208/189/12 209/190/12 
f 23/50/31 196/49/31 210/49/31 54/50/31 
f 196/49/31 197/51/31 211/51/31 210/49/31 
f 197/51/31 198/52/31 212/52/31 211/51/31 
f 198/52/31 199/53/31 213/53/31 212/52/31 
f 199/53/31 200/54/31 214/54/31 213/53/31 
f 200/54/31 201/55/31 215/55/31 214/54/31 
f 201/55/31 202/56/31 216/56/31 215/55/31 
f 203/184/12 126/183/12 152/183/12 217/184/12 
f 204/185/12 203/184/12 217/184/12 218/185/12 
f 205/186/12 204/185/12 218/185/12 219/186/12 
f 206/187/12 205/186/12 219/186/12 220/187/12 
f 207/188/12 206/187/12 220/187/12 221/188/12 
f 208/189/12 207/188/12 221/188/12 222/189/12 
f 209/190/12 208/189/12 222/189/12 223/190/12 
f 78/50/31 224/49/31 92/49/31 79/50/31 
f 224/49/31 225/51/31 93/51/31 92/49/31 
f 225/51/31 226/52/31 94/52/31 93/51/31 
f 226/52/31 227/53/31 95/53/31 94/52/31 
f 227/53/31 228/54/31 96/54/31 95/53/31 
f 228/54/31 229/55/31 97/55/31 96/54/31 
f 229/55/31 230/56/31 98/56/31 97/55/31 
f 231/184/12 175/183/12 174/183/12 189/184/12 
f 232/185/12 231/184/12 189/184/12 190/185/12 
f 233/186/12 232/185/12 190/185/12 191/186/12 
f 234/187/12 233/186/12 191/186/12 192/187/12 
f 235/188/12 234/187/12 192/187/12 193/188/12 
f 236/189/12 235/188/12 193/188/12 194/189/12 
f 237/190/12 236/189/12 194/189/12 195/190/12 
f 152/183/12 175/183/12 231/184/12 217/184/12 
f 217/184/12 231/184/12 232/185/12 218/185/12 
f 218/185/12 232/185/12 233/186/12 219/186/12 
f 219/186/12 233/186/12 234/187/12 220/187/12 
f 220/187/12 234/187/12 235/188/12 221/188/12 
f 221/188/12 235/188/12 236/189/12 222/189/12 
f 222/189/12 236/189/12 237/190/12 223/190/12 
f 210/49/31 224/49/31 78/50/31 54/50/31 
f 211/51/31 225/51/31 224/49/31 210/49/31 
f 212/52/31 226/52/31 225/51/31 211/51/31 
f 213/53/31 227/53/31 226/52/31 212/52/31 
f 214/54/31 228/54/31 227/53/31 213/53/31 
f 215/55/31 229/55/31 228/54/31 214/54/31 
f 216/56/31 230/56/31 229/55/31 215/55/31 
# 220 polygons - 4 triangles

