# 3ds Max Wavefront OBJ Exporter v0.97b - (c)2007 guruware
# File Created: 24.11.2019 19:40:21

#
# object wall_open_medium
#

v  1.0000 -2.9522 3.0000
v  1.0000 -2.3960 3.0000
v  1.0000 -2.3960 4.5000
v  1.0000 -2.9522 4.5000
v  0.0000 -2.9522 4.5000
v  0.0000 -2.3960 4.5000
v  0.0000 -2.3960 3.0000
v  0.0000 -2.9522 3.0000
v  0.0000 -3.4642 1.5000
v  0.0000 -2.3960 0.3750
v  0.0000 -4.7987 0.3750
v  1.0000 -4.7987 0.0000
v  1.0000 -2.3960 0.0000
v  1.0000 -2.3960 0.3750
v  1.0000 -4.7987 0.3750
v  1.0000 -2.9522 2.0902
v  1.0000 -2.3960 1.5000
v  1.0000 -2.3960 5.6321
v  1.0000 -2.9522 5.6321
v  0.0000 -2.0000 3.0000
v  0.0000 -2.0000 1.5000
v  0.0000 -2.3960 1.5000
v  1.0000 -2.0000 3.0000
v  1.0000 -2.0000 4.5000
v  0.0000 -2.0000 4.5000
v  0.0000 -2.0000 0.3750
v  1.0000 -2.0000 -0.0000
v  1.0000 -2.0000 0.3750
v  1.0000 -2.0000 1.5000
v  1.0000 -2.0000 5.6321
v  0.0000 -2.3960 -0.0000
v  0.0000 -4.7987 -0.0000
v  0.0000 -2.0000 -0.0000
v  0.0000 -2.3960 5.6321
v  0.0000 -2.9522 5.6321
v  0.0000 -2.0000 5.6321
v  0.8208 -3.2850 4.5000
v  0.8208 -3.2850 5.0063
v  0.1792 -3.2850 5.0063
v  0.1792 -3.2850 4.5000
v  0.8208 -3.2850 3.0000
v  0.1792 -3.2850 3.0000
v  0.8208 -3.2850 1.8480
v  0.1792 -3.2850 1.8480
v  1.0000 -3.4642 1.5000
v  0.0000 -1.3333 0.3750
v  0.0000 -1.3333 -0.0000
v  0.0000 -1.3333 3.0000
v  0.0000 -1.3333 1.5000
v  0.0000 -1.3333 4.5000
v  0.0000 -1.3333 5.6321
v  1.0000 -1.3333 3.0000
v  1.0000 -1.3333 4.5000
v  1.0000 -1.3333 1.5000
v  1.0000 -1.3333 0.3750
v  1.0000 -1.3333 0.0000
v  1.0000 -1.3333 5.6321
v  0.0000 -0.6667 0.3750
v  0.0000 -0.6667 -0.0000
v  0.0000 -0.6667 3.0000
v  0.0000 -0.6667 1.5000
v  0.0000 -0.6667 4.5000
v  0.0000 -0.6667 5.6321
v  1.0000 -0.6667 3.0000
v  1.0000 -0.6667 4.5000
v  1.0000 -0.6667 1.5000
v  1.0000 -0.6667 0.3750
v  1.0000 -0.6667 0.0000
v  1.0000 -0.6667 5.6321
v  0.0000 0.0000 0.3750
v  0.0000 0.0000 -0.0000
v  0.0000 0.0000 3.0000
v  0.0000 0.0000 1.5000
v  0.0000 0.0000 4.5000
v  0.0000 0.0000 5.6321
v  1.0000 0.0000 3.0000
v  1.0000 0.0000 4.5000
v  1.0000 0.0000 1.5000
v  1.0000 0.0000 0.3750
v  1.0000 0.0000 0.0000
v  1.0000 0.0000 5.6321
v  1.0000 -6.0000 0.3750
v  1.0000 -6.0000 0.0000
v  0.0000 -6.0000 0.3750
v  0.0000 -6.0000 -0.0000
v  0.0000 -2.9522 2.0902
v  0.1792 -3.0478 2.1258
v  0.1792 -3.0478 3.0000
v  0.1792 -3.0478 4.5000
v  0.1792 -3.0478 5.4529
v  0.8208 -3.0478 5.4529
v  0.8208 -3.0478 4.5000
v  0.8208 -3.0478 3.0000
v  0.8208 -3.0478 2.1258
v  1.0000 -9.0478 3.0000
v  1.0000 -9.0478 4.5000
v  1.0000 -9.6040 4.5000
v  1.0000 -9.6040 3.0000
v  0.0000 -9.0478 4.5000
v  0.0000 -9.0478 3.0000
v  0.0000 -9.6040 3.0000
v  0.0000 -9.6040 4.5000
v  0.0000 -8.5358 1.5000
v  0.0000 -7.2013 0.3750
v  0.0000 -9.6040 0.3750
v  1.0000 -7.2013 0.0000
v  1.0000 -7.2013 0.3750
v  1.0000 -9.6040 0.3750
v  1.0000 -9.6040 0.0000
v  1.0000 -9.0478 2.0902
v  1.0000 -9.6040 1.5000
v  1.0000 -9.0478 5.6321
v  1.0000 -9.6040 5.6321
v  0.0000 -9.6040 1.5000
v  0.0000 -10.0000 1.5000
v  0.0000 -10.0000 3.0000
v  1.0000 -10.0000 4.5000
v  1.0000 -10.0000 3.0000
v  0.0000 -10.0000 4.5000
v  0.0000 -10.0000 0.3750
v  1.0000 -10.0000 0.3750
v  1.0000 -10.0000 -0.0000
v  1.0000 -10.0000 1.5000
v  1.0000 -10.0000 5.6321
v  0.0000 -7.2013 -0.0000
v  0.0000 -9.6040 -0.0000
v  0.0000 -10.0000 -0.0000
v  0.0000 -9.6040 5.6321
v  0.0000 -9.0478 5.6321
v  0.0000 -10.0000 5.6321
v  0.8208 -8.7150 4.5000
v  0.1792 -8.7150 4.5000
v  0.1792 -8.7150 5.0063
v  0.8208 -8.7150 5.0063
v  0.8208 -8.7150 3.0000
v  0.1792 -8.7150 3.0000
v  0.8208 -8.7150 1.8480
v  0.1792 -8.7150 1.8480
v  1.0000 -8.5358 1.5000
v  0.0000 -10.6667 -0.0000
v  0.0000 -10.6667 0.3750
v  0.0000 -10.6667 1.5000
v  0.0000 -10.6667 3.0000
v  0.0000 -10.6667 4.5000
v  0.0000 -10.6667 5.6321
v  1.0000 -10.6667 4.5000
v  1.0000 -10.6667 3.0000
v  1.0000 -10.6667 1.5000
v  1.0000 -10.6667 0.3750
v  1.0000 -10.6667 0.0000
v  1.0000 -10.6667 5.6321
v  0.0000 -11.3333 -0.0000
v  0.0000 -11.3333 0.3750
v  0.0000 -11.3333 1.5000
v  0.0000 -11.3333 3.0000
v  0.0000 -11.3333 4.5000
v  0.0000 -11.3333 5.6321
v  1.0000 -11.3333 4.5000
v  1.0000 -11.3333 3.0000
v  1.0000 -11.3333 1.5000
v  1.0000 -11.3333 0.3750
v  1.0000 -11.3333 0.0000
v  1.0000 -11.3333 5.6321
v  0.0000 -12.0000 -0.0000
v  0.0000 -12.0000 0.3750
v  0.0000 -12.0000 1.5000
v  0.0000 -12.0000 3.0000
v  0.0000 -12.0000 4.5000
v  0.0000 -12.0000 5.6321
v  1.0000 -12.0000 4.5000
v  1.0000 -12.0000 3.0000
v  1.0000 -12.0000 1.5000
v  1.0000 -12.0000 0.3750
v  1.0000 -12.0000 0.0000
v  1.0000 -12.0000 5.6321
v  0.0000 -9.0478 2.0902
v  0.1792 -8.9522 2.1258
v  0.1792 -8.9522 3.0000
v  0.1792 -8.9522 4.5000
v  0.1792 -8.9522 5.4529
v  0.8208 -8.9522 5.4529
v  0.8208 -8.9522 4.5000
v  0.8208 -8.9522 3.0000
v  0.8208 -8.9522 2.1258
# 184 vertices

vn 0.8575 -0.5145 -0.0000
vn 1.0000 0.0000 -0.0000
vn -0.8575 -0.5145 -0.0000
vn -1.0000 0.0000 -0.0000
vn -0.7512 -0.5023 0.4282
vn -0.7931 -0.2090 0.5722
vn 0.7931 -0.2090 0.5722
vn 0.9131 -0.3820 0.1426
vn 0.7071 0.0000 0.7071
vn 0.6229 -0.4732 0.6229
vn -0.7071 0.0000 0.7071
vn -0.6229 -0.4732 0.6229
vn 0.7071 -0.7071 -0.0000
vn 0.6565 -0.7319 0.1824
vn -0.6565 -0.7319 0.1824
vn -0.7071 -0.7071 0.0000
vn 0.3151 -0.8567 0.4085
vn -0.3151 -0.8567 0.4085
vn 0.7512 -0.5023 0.4282
vn -0.9131 -0.3820 0.1426
vn -0.8163 -0.5420 0.1996
vn -0.2639 -0.9148 0.3057
vn 0.2639 -0.9148 0.3057
vn 0.8163 -0.5420 0.1996
vn 0.8575 0.5145 -0.0000
vn -0.8575 0.5145 -0.0000
vn -0.7512 0.5023 0.4282
vn -0.7931 0.2090 0.5722
vn 0.7931 0.2090 0.5722
vn 0.9131 0.3820 0.1426
vn 0.6229 0.4732 0.6229
vn -0.6229 0.4732 0.6229
vn 0.7071 0.7071 -0.0000
vn -0.7071 0.7071 0.0000
vn -0.6565 0.7319 0.1824
vn 0.6565 0.7319 0.1824
vn 0.3151 0.8567 0.4085
vn -0.3151 0.8567 0.4085
vn 0.7512 0.5023 0.4282
vn -0.9131 0.3820 0.1426
vn -0.8163 0.5420 0.1996
vn -0.2639 0.9148 0.3057
vn 0.2639 0.9148 0.3057
vn 0.8163 0.5420 0.1996
# 44 vertex normals

vt 0.5000 0.2596 0.0000
vt 0.5000 0.1000 0.0000
vt 0.2500 0.1000 0.0000
vt 0.2500 0.2579 0.0000
vt 0.7500 0.2538 0.0000
vt 0.7500 0.1000 0.0000
vt 0.5000 0.2536 0.0000
vt 0.2500 0.4000 0.0000
vt 0.1250 0.1000 0.0000
vt 0.1250 0.4000 0.0000
vt 1.0000 0.4000 0.0000
vt 1.0000 0.1000 0.0000
vt 0.8750 0.1000 0.0000
vt 0.8750 0.4000 0.0000
vt 0.6410 0.2606 0.0000
vt 0.1250 0.2566 0.0000
vt 0.5000 0.0000 0.0000
vt 0.2500 0.0000 0.0000
vt 0.7500 0.0000 0.0000
vt 0.1250 0.0000 0.0000
vt 1.0000 0.0000 0.0000
vt 0.8750 0.0000 0.0000
vt 0.0000 0.1000 0.0000
vt 0.0000 0.4000 0.0000
vt 0.0000 0.0000 0.0000
vt 0.8750 0.2539 0.0000
vt 0.5000 0.9000 0.0000
vt 0.7500 0.9000 0.0000
vt 0.2389 0.9000 0.0000
vt 0.7500 0.4896 0.0000
vt 0.0000 0.9000 0.0000
vt 0.2500 1.0000 0.0000
vt 0.7500 1.0000 0.0000
vt 0.5000 0.4000 0.0000
vt 0.3446 0.2535 0.0000
vt 0.7500 0.4000 0.0000
# 36 texture coords

o wall_open_medium
g wall_open_medium
f 1/1/1 2/2/2 3/3/2 4/4/1 
f 5/5/3 6/6/4 7/2/4 8/7/3 
f 9/8/5 10/9/4 11/10/6 
f 12/11/2 13/12/2 14/13/2 14/13/2 15/14/7 
f 16/15/8 17/6/2 2/2/2 1/1/1 
f 4/4/1 3/3/2 18/9/9 19/16/10 
f 7/2/4 20/17/4 21/18/4 22/3/4 
f 2/2/2 23/17/2 24/18/2 3/3/2 
f 6/6/4 25/19/4 20/17/4 7/2/4 
f 22/3/4 21/18/4 26/20/4 10/9/4 
f 13/12/2 27/21/2 28/22/2 14/13/2 
f 17/6/2 29/19/2 23/17/2 2/2/2 
f 3/3/2 24/18/2 30/20/9 18/9/9 
f 10/9/4 31/23/4 32/24/4 11/10/6 
f 26/20/4 33/25/4 31/23/4 10/9/4 
f 28/22/2 29/19/2 17/6/2 14/13/2 
f 34/13/11 6/6/4 5/5/3 35/26/12 
f 36/22/11 25/19/4 6/6/4 34/13/11 
f 18/27/9 30/12/9 36/6/11 34/28/11 
f 19/29/10 18/27/9 34/28/11 35/30/12 
f 37/19/13 38/31/14 39/6/15 40/18/16 
f 41/32/13 37/19/13 40/18/16 42/19/16 
f 43/33/17 41/32/13 42/19/16 44/32/18 
f 15/8/7 45/33/19 9/32/5 11/34/6 
f 33/25/4 26/20/4 46/20/4 47/25/4 
f 21/18/4 20/17/4 48/17/4 49/18/4 
f 20/17/4 25/19/4 50/19/4 48/17/4 
f 25/19/4 36/22/11 51/22/11 50/19/4 
f 24/18/2 23/17/2 52/17/2 53/18/2 
f 23/17/2 29/19/2 54/19/2 52/17/2 
f 29/19/2 28/22/2 55/22/2 54/19/2 
f 26/20/4 21/18/4 49/18/4 46/20/4 
f 28/22/2 27/21/2 56/21/2 55/22/2 
f 30/20/9 24/18/2 53/18/2 57/20/9 
f 36/6/11 30/12/9 57/12/9 51/6/11 
f 47/25/4 46/20/4 58/20/4 59/25/4 
f 49/18/4 48/17/4 60/17/4 61/18/4 
f 48/17/4 50/19/4 62/19/4 60/17/4 
f 50/19/4 51/22/11 63/22/11 62/19/4 
f 53/18/2 52/17/2 64/17/2 65/18/2 
f 52/17/2 54/19/2 66/19/2 64/17/2 
f 54/19/2 55/22/2 67/22/2 66/19/2 
f 46/20/4 49/18/4 61/18/4 58/20/4 
f 55/22/2 56/21/2 68/21/2 67/22/2 
f 57/20/9 53/18/2 65/18/2 69/20/9 
f 51/6/11 57/12/9 69/12/9 63/6/11 
f 59/25/4 58/20/4 70/20/4 71/25/4 
f 61/18/4 60/17/4 72/17/4 73/18/4 
f 60/17/4 62/19/4 74/19/4 72/17/4 
f 62/19/4 63/22/11 75/22/11 74/19/4 
f 65/18/2 64/17/2 76/17/2 77/18/2 
f 64/17/2 66/19/2 78/19/2 76/17/2 
f 66/19/2 67/22/2 79/22/2 78/19/2 
f 58/20/4 61/18/4 73/18/4 70/20/4 
f 67/22/2 68/21/2 80/21/2 79/22/2 
f 69/20/9 65/18/2 77/18/2 81/20/9 
f 63/6/11 69/12/9 81/12/9 75/6/11 
f 12/11/2 15/14/7 82/14/9 83/11/2 
f 15/8/7 11/34/6 84/34/11 82/8/9 
f 84/10/11 11/10/6 32/24/4 85/24/4 
f 22/3/4 10/9/4 9/8/5 86/35/20 
f 87/35/21 44/8/18 42/34/16 88/7/3 
f 88/7/3 42/34/16 40/36/16 89/5/3 
f 89/5/3 40/36/16 39/14/15 90/26/22 
f 90/30/22 39/6/15 38/31/14 91/29/23 
f 91/16/23 38/10/14 37/8/13 92/4/1 
f 92/4/1 37/8/13 41/34/13 93/1/1 
f 45/36/19 14/13/2 14/13/2 17/6/2 16/15/8 
f 94/15/24 93/1/1 41/34/13 43/36/17 
f 45/36/19 15/14/7 14/13/2 
f 86/35/20 8/7/3 7/2/4 22/3/4 
f 9/32/5 45/33/19 43/33/17 44/32/18 
f 45/36/19 16/15/8 94/15/24 43/36/17 
f 16/15/8 1/1/1 93/1/1 94/15/24 
f 1/1/1 4/4/1 92/4/1 93/1/1 
f 4/4/1 19/16/10 91/16/23 92/4/1 
f 19/29/10 35/30/12 90/30/22 91/29/23 
f 35/26/12 5/5/3 89/5/3 90/26/22 
f 5/5/3 8/7/3 88/7/3 89/5/3 
f 8/7/3 86/35/20 87/35/21 88/7/3 
f 86/35/20 9/8/5 44/8/18 87/35/21 
f 95/1/25 96/4/25 97/3/2 98/2/2 
f 99/5/26 100/7/26 101/2/4 102/6/4 
f 103/8/27 104/10/28 105/9/4 
f 106/11/2 107/14/29 108/13/2 108/13/2 109/12/2 
f 110/15/30 95/1/25 98/2/2 111/6/2 
f 96/4/25 112/16/31 113/9/9 97/3/2 
f 101/2/4 114/3/4 115/18/4 116/17/4 
f 98/2/2 97/3/2 117/18/2 118/17/2 
f 102/6/4 101/2/4 116/17/4 119/19/4 
f 114/3/4 105/9/4 120/20/4 115/18/4 
f 109/12/2 108/13/2 121/22/2 122/21/2 
f 111/6/2 98/2/2 118/17/2 123/19/2 
f 97/3/2 113/9/9 124/20/9 117/18/2 
f 105/9/4 104/10/28 125/24/4 126/23/4 
f 120/20/4 105/9/4 126/23/4 127/25/4 
f 121/22/2 108/13/2 111/6/2 123/19/2 
f 128/13/11 129/26/32 99/5/26 102/6/4 
f 130/22/11 128/13/11 102/6/4 119/19/4 
f 113/27/9 128/28/11 130/6/11 124/12/9 
f 112/29/31 129/30/32 128/28/11 113/27/9 
f 131/19/33 132/18/34 133/6/35 134/31/36 
f 135/32/33 136/19/34 132/18/34 131/19/33 
f 137/33/37 138/32/38 136/19/34 135/32/33 
f 107/8/29 104/34/28 103/32/27 139/33/39 
f 127/25/4 140/25/4 141/20/4 120/20/4 
f 115/18/4 142/18/4 143/17/4 116/17/4 
f 116/17/4 143/17/4 144/19/4 119/19/4 
f 119/19/4 144/19/4 145/22/11 130/22/11 
f 117/18/2 146/18/2 147/17/2 118/17/2 
f 118/17/2 147/17/2 148/19/2 123/19/2 
f 123/19/2 148/19/2 149/22/2 121/22/2 
f 120/20/4 141/20/4 142/18/4 115/18/4 
f 121/22/2 149/22/2 150/21/2 122/21/2 
f 124/20/9 151/20/9 146/18/2 117/18/2 
f 130/6/11 145/6/11 151/12/9 124/12/9 
f 140/25/4 152/25/4 153/20/4 141/20/4 
f 142/18/4 154/18/4 155/17/4 143/17/4 
f 143/17/4 155/17/4 156/19/4 144/19/4 
f 144/19/4 156/19/4 157/22/11 145/22/11 
f 146/18/2 158/18/2 159/17/2 147/17/2 
f 147/17/2 159/17/2 160/19/2 148/19/2 
f 148/19/2 160/19/2 161/22/2 149/22/2 
f 141/20/4 153/20/4 154/18/4 142/18/4 
f 149/22/2 161/22/2 162/21/2 150/21/2 
f 151/20/9 163/20/9 158/18/2 146/18/2 
f 145/6/11 157/6/11 163/12/9 151/12/9 
f 152/25/4 164/25/4 165/20/4 153/20/4 
f 154/18/4 166/18/4 167/17/4 155/17/4 
f 155/17/4 167/17/4 168/19/4 156/19/4 
f 156/19/4 168/19/4 169/22/11 157/22/11 
f 158/18/2 170/18/2 171/17/2 159/17/2 
f 159/17/2 171/17/2 172/19/2 160/19/2 
f 160/19/2 172/19/2 173/22/2 161/22/2 
f 153/20/4 165/20/4 166/18/4 154/18/4 
f 161/22/2 173/22/2 174/21/2 162/21/2 
f 163/20/9 175/20/9 170/18/2 158/18/2 
f 157/6/11 169/6/11 175/12/9 163/12/9 
f 106/11/2 83/11/2 82/14/9 107/14/29 
f 107/8/29 82/8/9 84/34/11 104/34/28 
f 84/10/11 85/24/4 125/24/4 104/10/28 
f 114/3/4 176/35/40 103/8/27 105/9/4 
f 177/35/41 178/7/26 136/34/34 138/8/38 
f 178/7/26 179/5/26 132/36/34 136/34/34 
f 179/5/26 180/26/42 133/14/35 132/36/34 
f 180/30/42 181/29/43 134/31/36 133/6/35 
f 181/16/43 182/4/25 131/8/33 134/10/36 
f 182/4/25 183/1/25 135/34/33 131/8/33 
f 139/36/39 110/15/30 111/6/2 108/13/2 108/13/2 
f 184/15/44 137/36/37 135/34/33 183/1/25 
f 139/36/39 108/13/2 107/14/29 
f 176/35/40 114/3/4 101/2/4 100/7/26 
f 103/32/27 138/32/38 137/33/37 139/33/39 
f 139/36/39 137/36/37 184/15/44 110/15/30 
f 110/15/30 184/15/44 183/1/25 95/1/25 
f 95/1/25 183/1/25 182/4/25 96/4/25 
f 96/4/25 182/4/25 181/16/43 112/16/31 
f 112/29/31 181/29/43 180/30/42 129/30/32 
f 129/26/32 180/26/42 179/5/26 99/5/26 
f 99/5/26 179/5/26 178/7/26 100/7/26 
f 100/7/26 178/7/26 177/35/41 176/35/40 
f 176/35/40 177/35/41 138/8/38 103/8/27 
# 158 polygons - 4 triangles

