# 3ds Max Wavefront OBJ Exporter v0.97b - (c)2007 guruware
# File Created: 24.11.2019 19:40:46

#
# object wall_pillar
#

v  1.0000 -2.3960 0.0000
v  1.0000 -2.3960 1.5000
v  1.0000 -4.7987 1.5000
v  1.0000 -4.7987 0.0000
v  0.7131 -2.6845 1.7273
v  0.2869 -2.6845 1.7273
v  0.2869 -4.7987 1.7273
v  0.7131 -4.7987 1.7273
v  0.0000 -7.2013 1.5000
v  0.0000 -4.7987 1.5000
v  0.0000 -4.7987 -0.0000
v  0.0000 -7.2013 -0.0000
v  0.0000 -9.6040 -0.0000
v  0.0000 -9.6040 1.5000
v  1.0000 -7.2013 0.0000
v  1.0000 -7.2013 1.5000
v  1.0000 -9.6040 1.5000
v  1.0000 -9.6040 0.0000
v  0.7131 -7.2013 1.7273
v  0.2869 -7.2013 1.7273
v  0.2869 -9.3171 1.7273
v  0.7131 -9.3171 1.7273
v  0.0000 -10.0000 -0.0000
v  0.0000 -10.0000 1.5000
v  1.0000 -10.0000 1.5000
v  1.0000 -10.0000 0.0000
v  0.0000 -10.6667 -0.0000
v  0.0000 -10.6667 1.5000
v  1.0000 -10.6667 1.5000
v  1.0000 -10.6667 0.0000
v  0.0000 -11.3333 -0.0000
v  0.0000 -11.3333 1.5000
v  1.0000 -11.3333 1.5000
v  1.0000 -11.3333 0.0000
v  0.0000 -12.0000 -0.0000
v  0.0000 -12.0000 1.5000
v  1.0000 -12.0000 1.5000
v  1.0000 -12.0000 0.0000
v  0.0000 -2.3960 1.5000
v  0.1792 -2.5768 1.5000
v  0.8208 -2.5768 1.5000
v  0.1792 -4.7987 1.5000
v  0.1792 -9.4248 1.5000
v  0.1792 -7.2013 1.5000
v  0.8208 -9.4248 1.5000
v  0.8208 -7.2013 1.5000
v  0.8208 -4.7987 1.5000
v  1.0000 -2.0000 0.0000
v  1.0000 -2.0000 1.5000
v  0.0000 -2.3960 -0.0000
v  0.0000 -2.0000 1.5000
v  0.0000 -2.0000 -0.0000
v  1.0000 -1.3333 0.0000
v  1.0000 -1.3333 1.5000
v  0.0000 -1.3333 1.5000
v  0.0000 -1.3333 -0.0000
v  1.0000 -0.6667 0.0000
v  1.0000 -0.6667 1.5000
v  0.0000 -0.6667 1.5000
v  0.0000 -0.6667 -0.0000
v  1.0000 0.0000 0.0000
v  1.0000 0.0000 1.5000
v  0.0000 0.0000 1.5000
v  0.0000 0.0000 -0.0000
# 64 vertices

vn 1.0000 0.0000 -0.0000
vn 0.7071 -0.0000 0.7071
vn 0.4327 0.4327 0.7909
vn -0.4327 0.4327 0.7909
vn -0.5346 0.0000 0.8451
vn 0.5346 0.0000 0.8451
vn -0.7071 0.0000 0.7071
vn -1.0000 0.0000 -0.0000
vn 0.7071 0.0000 0.7071
vn -0.4327 -0.4327 0.7909
vn 0.4327 -0.4327 0.7909
vn -0.7071 -0.0000 0.7071
vn -0.1785 0.1785 0.9676
vn 0.1785 0.1785 0.9676
vn -0.1785 -0.1785 0.9676
vn 0.1785 -0.1785 0.9676
# 16 vertex normals

vt 1.0000 0.4000 0.0000
vt 0.8750 0.4000 0.0000
vt 0.2500 0.4000 0.0000
vt 0.5000 0.4000 0.0000
vt 0.1250 0.4000 0.0000
vt 0.0000 0.4000 0.0000
# 6 texture coords

o wall_pillar
g wall_pillar
f 1/1/1 2/2/2 3/2/2 4/1/1 
f 5/3/3 6/4/4 7/4/5 8/3/6 
f 9/5/7 10/5/7 11/6/8 12/6/8 
f 9/5/7 12/6/8 13/6/8 14/5/7 
f 15/1/1 16/2/9 17/2/2 18/1/1 
f 19/3/6 20/4/5 21/4/10 22/3/11 
f 14/5/7 13/6/8 23/6/8 24/5/7 
f 18/1/1 17/2/2 25/2/9 26/1/1 
f 17/3/2 14/4/7 24/4/7 25/3/9 
f 24/5/7 23/6/8 27/6/8 28/5/7 
f 26/1/1 25/2/9 29/2/9 30/1/1 
f 25/3/9 24/4/7 28/4/7 29/3/9 
f 28/5/7 27/6/8 31/6/8 32/5/7 
f 30/1/1 29/2/9 33/2/9 34/1/1 
f 29/3/9 28/4/7 32/4/7 33/3/9 
f 32/5/7 31/6/8 35/6/8 36/5/7 
f 34/1/1 33/2/9 37/2/9 38/1/1 
f 33/3/9 32/4/7 36/4/7 37/3/9 
f 2/3/2 39/4/12 40/4/13 41/3/14 
f 39/4/12 10/4/7 42/4/5 40/4/13 
f 9/4/7 14/4/7 43/4/15 44/4/5 
f 14/4/7 17/3/2 45/3/16 43/4/15 
f 17/3/2 16/3/9 46/3/6 45/3/16 
f 16/3/9 3/3/2 47/3/6 46/3/6 
f 41/3/14 40/4/13 6/4/4 5/3/3 
f 40/4/13 42/4/5 7/4/5 6/4/4 
f 44/4/5 43/4/15 21/4/10 20/4/5 
f 43/4/15 45/3/16 22/3/11 21/4/10 
f 45/3/16 46/3/6 19/3/6 22/3/11 
f 46/3/6 47/3/6 8/3/6 19/3/6 
f 2/2/2 1/1/1 48/1/1 49/2/9 
f 50/6/8 39/5/12 51/5/7 52/6/8 
f 39/4/12 2/3/2 49/3/9 51/4/7 
f 49/2/9 48/1/1 53/1/1 54/2/9 
f 52/6/8 51/5/7 55/5/7 56/6/8 
f 51/4/7 49/3/9 54/3/9 55/4/7 
f 54/2/9 53/1/1 57/1/1 58/2/9 
f 56/6/8 55/5/7 59/5/7 60/6/8 
f 55/4/7 54/3/9 58/3/9 59/4/7 
f 58/2/9 57/1/1 61/1/1 62/2/9 
f 60/6/8 59/5/7 63/5/7 64/6/8 
f 59/4/7 58/3/9 62/3/9 63/4/7 
f 3/2/2 16/2/9 15/1/1 4/1/1 
f 7/4/5 20/4/5 19/3/6 8/3/6 
f 10/5/7 39/5/12 50/6/8 11/6/8 
f 10/4/7 9/4/7 44/4/5 42/4/5 
f 3/3/2 2/3/2 41/3/14 47/3/6 
f 42/4/5 44/4/5 20/4/5 7/4/5 
f 47/3/6 41/3/14 5/3/3 8/3/6 
# 49 polygons

