# 3ds Max Wavefront OBJ Exporter v0.97b - (c)2007 guruware
# File Created: 24.11.2019 19:40:39

#
# object wall_open_door
#

v  0.0000 -4.7987 -0.0000
v  0.0000 -7.2013 -0.0000
v  0.0000 -7.2013 0.3750
v  0.0000 -4.7987 0.3750
v  1.0000 -7.2013 0.0000
v  1.0000 -4.7987 0.0000
v  1.0000 -4.7987 0.3750
v  1.0000 -7.2013 0.3750
v  0.0000 -2.3960 3.0000
v  0.0000 -2.3960 1.5000
v  0.0000 -4.7987 1.5000
v  0.0000 -4.7987 3.0000
v  1.0000 -6.1145 3.0000
v  1.0000 -4.7987 3.0000
v  1.0000 -4.7987 4.5000
v  1.0000 -6.1145 4.5000
v  0.0000 -6.1145 4.5000
v  0.0000 -4.7987 4.5000
v  0.0000 -6.1145 3.0000
v  0.0000 -9.6040 -0.0000
v  0.0000 -9.6040 0.3750
v  0.0000 -2.3960 0.3750
v  1.0000 -2.3960 0.0000
v  1.0000 -2.3960 0.3750
v  1.0000 -7.2013 1.5000
v  1.0000 -9.6040 1.5000
v  1.0000 -9.6040 0.3750
v  1.0000 -4.7987 1.5000
v  1.0000 -4.7987 5.6321
v  1.0000 -6.1145 5.6321
v  0.0000 -2.0000 3.0000
v  0.0000 -2.0000 1.5000
v  1.0000 -2.3960 3.0000
v  1.0000 -2.0000 3.0000
v  1.0000 -2.0000 4.5000
v  1.0000 -2.3960 4.5000
v  0.0000 -2.3960 4.5000
v  0.0000 -2.0000 4.5000
v  0.0000 -2.0000 0.3750
v  1.0000 -2.0000 0.0000
v  1.0000 -2.0000 0.3750
v  1.0000 -2.3960 1.5000
v  1.0000 -2.0000 1.5000
v  1.0000 -2.0000 5.6321
v  1.0000 -2.3960 5.6321
v  0.0000 -10.0000 -0.0000
v  0.0000 -10.0000 0.3750
v  1.0000 -10.0000 1.5000
v  1.0000 -10.0000 0.3750
v  0.0000 -9.6040 1.5000
v  0.0000 -7.2013 1.5000
v  0.0000 -2.3960 0.0000
v  1.0000 -9.6040 0.0000
v  0.0000 -2.0000 0.0000
v  0.0000 -10.0000 1.5000
v  1.0000 -10.0000 0.0000
v  0.2150 -9.6040 1.2491
v  0.2150 -10.0000 1.2491
v  0.7850 -10.0000 1.2491
v  0.7850 -9.6040 1.2491
v  0.2150 -7.0431 1.2491
v  0.7850 -7.0431 1.2491
v  0.2150 -5.8636 4.5000
v  0.2150 -5.8636 2.9261
v  0.7850 -5.8636 2.9261
v  0.7850 -5.8636 4.5000
v  0.0000 -2.3960 5.6321
v  0.0000 -4.7987 5.6321
v  0.0000 -2.0000 5.6321
v  0.2150 -5.8636 5.4171
v  0.7850 -5.8636 5.4171
v  0.7374 -5.9353 5.3454
v  0.7374 -4.7987 5.3454
v  0.2626 -4.7987 5.3454
v  0.2626 -5.9353 5.3454
v  0.0000 -1.3333 0.3750
v  0.0000 -1.3333 0.0000
v  0.0000 -1.3333 3.0000
v  0.0000 -1.3333 1.5000
v  0.0000 -1.3333 4.5000
v  0.0000 -1.3333 5.6321
v  1.0000 -1.3333 3.0000
v  1.0000 -1.3333 4.5000
v  1.0000 -1.3333 1.5000
v  1.0000 -1.3333 0.3750
v  1.0000 -1.3333 0.0000
v  1.0000 -1.3333 5.6321
v  0.0000 -0.6667 0.3750
v  0.0000 -0.6667 0.0000
v  0.0000 -0.6667 3.0000
v  0.0000 -0.6667 1.5000
v  0.0000 -0.6667 4.5000
v  0.0000 -0.6667 5.6321
v  1.0000 -0.6667 3.0000
v  1.0000 -0.6667 4.5000
v  1.0000 -0.6667 1.5000
v  1.0000 -0.6667 0.3750
v  1.0000 -0.6667 0.0000
v  1.0000 -0.6667 5.6321
v  0.0000 0.0000 0.3750
v  0.0000 0.0000 0.0000
v  0.0000 0.0000 3.0000
v  0.0000 0.0000 1.5000
v  0.0000 0.0000 4.5000
v  0.0000 0.0000 5.6321
v  1.0000 0.0000 3.0000
v  1.0000 0.0000 4.5000
v  1.0000 0.0000 1.5000
v  1.0000 0.0000 0.3750
v  1.0000 0.0000 0.0000
v  1.0000 0.0000 5.6321
v  1.0000 -10.6667 0.3750
v  1.0000 -10.6667 0.0000
v  0.0000 -10.6667 0.3750
v  0.0000 -10.6667 1.5000
v  0.2150 -10.6667 1.2491
v  0.7850 -10.6667 1.2491
v  1.0000 -10.6667 1.5000
v  0.0000 -10.6667 -0.0000
v  1.0000 -11.3333 0.3750
v  1.0000 -11.3333 0.0000
v  0.0000 -11.3333 0.3750
v  0.0000 -11.3333 1.5000
v  0.2150 -11.3333 1.2491
v  0.7850 -11.3333 1.2491
v  1.0000 -11.3333 1.5000
v  0.0000 -11.3333 -0.0000
v  1.0000 -12.0000 0.3750
v  1.0000 -12.0000 0.0000
v  0.0000 -12.0000 0.3750
v  0.0000 -12.0000 1.5000
v  0.2150 -11.7850 1.2491
v  0.7850 -11.7850 1.2491
v  1.0000 -12.0000 1.5000
v  0.0000 -12.0000 -0.0000
v  0.1792 -4.7987 5.6321
v  0.1792 -2.3960 5.6321
v  0.0000 -6.1145 5.6321
v  0.8208 -5.9353 5.6321
v  0.1792 -5.9353 5.6321
v  0.8208 -4.7987 5.6321
v  0.8208 -2.0000 5.6321
v  0.8208 -2.3960 5.6321
v  0.8208 -1.3333 5.6321
v  0.8208 -0.6667 5.6321
v  0.8208 -0.1792 5.6321
v  0.1792 -0.1792 5.6321
v  0.1792 -0.6667 5.6321
v  0.1792 -1.3333 5.6321
v  0.1792 -2.0000 5.6321
v  0.2626 -2.3960 5.3454
v  0.7374 -2.3960 5.3454
v  0.7850 -9.6040 1.5000
v  0.7850 -10.0000 1.5000
v  0.7850 -7.2013 1.5000
v  0.7850 -6.1145 3.0000
v  0.7850 -6.1145 4.5000
v  0.7850 -6.1145 5.4171
v  0.2150 -6.1145 5.4171
v  0.2150 -6.1145 4.5000
v  0.2150 -6.1145 3.0000
v  0.2150 -7.2013 1.5000
v  0.2150 -9.6040 1.5000
v  0.2150 -10.0000 1.5000
v  0.2150 -10.6667 1.5000
v  0.2150 -11.3333 1.5000
v  0.2150 -11.7850 1.5000
v  0.7850 -11.7850 1.5000
v  0.7850 -11.3333 1.5000
v  0.7850 -10.6667 1.5000
# 170 vertices

vn -1.0000 0.0000 -0.0000
vn 1.0000 0.0000 -0.0000
vn 0.7835 -0.5910 0.1916
vn 0.7071 -0.7071 -0.0000
vn -0.7071 -0.7071 0.0000
vn -0.7835 -0.5910 0.1916
vn 0.8250 -0.2569 0.5033
vn 0.7071 -0.0000 0.7071
vn 0.7071 0.0000 0.7071
vn 0.5773 -0.5774 0.5774
vn -0.7071 0.0000 0.7071
vn -0.8250 -0.2569 0.5033
vn 0.6166 -0.3628 0.6987
vn -0.6166 -0.3628 0.6987
vn 0.7071 -0.7071 0.0000
vn 0.6450 -0.7285 0.2306
vn -0.6451 -0.7285 0.2305
vn -0.7071 -0.0000 0.7071
vn 0.5774 -0.5773 -0.5773
vn -0.5773 -0.5774 -0.5774
vn -0.4830 0.5937 0.6436
vn -0.6002 -0.0000 0.7998
vn 0.6002 0.0000 0.7998
vn 0.4830 0.5937 0.6436
vn 0.5773 0.5773 0.5774
vn -0.5774 0.5774 0.5774
vn 0.2732 -0.2333 0.9332
vn -0.5774 -0.5774 0.5773
vn -0.2732 0.2333 0.9332
vn 0.2732 0.2333 0.9332
vn -0.0000 0.0000 1.0000
vn -0.2732 -0.2333 0.9332
vn -0.0000 -0.0000 1.0000
vn 0.4830 -0.5937 0.6436
vn -0.4830 -0.5937 0.6436
vn -0.7071 -0.7071 -0.0000
vn -0.3015 -0.9045 -0.3015
vn 0.3015 -0.9045 -0.3015
vn 0.3015 0.3015 0.9045
vn -0.3015 0.3015 0.9045
# 40 vertex normals

vt 0.0000 0.4000 0.0000
vt 0.0000 0.6000 0.0000
vt 0.1250 0.6000 0.0000
vt 0.1425 0.4000 0.0000
vt 1.0000 0.6000 0.0000
vt 1.0000 0.4000 0.0000
vt 0.8750 0.4000 0.0000
vt 0.8750 0.6000 0.0000
vt 0.5000 0.1000 0.0000
vt 0.2500 0.1000 0.0000
vt 0.2500 0.2698 0.0000
vt 0.4556 0.2500 0.0000
vt 0.5000 0.4000 0.0000
vt 0.5000 0.2500 0.0000
vt 0.2500 0.2500 0.0000
vt 0.2500 0.4000 0.0000
vt 0.7500 0.4000 0.0000
vt 0.7500 0.2500 0.0000
vt 0.4112 0.4000 0.0000
vt 0.0000 0.9000 0.0000
vt 0.1250 0.9000 0.0000
vt 0.1250 0.1000 0.0000
vt 1.0000 0.1000 0.0000
vt 0.8750 0.1000 0.0000
vt 0.7500 0.5403 0.0000
vt 0.7500 0.9000 0.0000
vt 0.8750 0.9000 0.0000
vt 0.7500 0.3201 0.0000
vt 0.1250 0.2500 0.0000
vt 0.1250 0.4000 0.0000
vt 0.3388 0.0000 0.0000
vt 0.2500 0.0000 0.0000
vt 0.5000 0.0000 0.0000
vt 0.7500 0.1000 0.0000
vt 0.7500 0.0000 0.0000
vt 0.1250 0.0000 0.0000
vt 1.0000 0.0000 0.0000
vt 0.8750 0.0000 0.0000
vt 0.0000 1.0000 0.0000
vt 0.1250 1.0000 0.0000
vt 0.7500 1.0000 0.0000
vt 0.8750 1.0000 0.0000
vt 0.2500 0.9000 0.0000
vt 0.2500 0.4396 0.0000
vt 0.0000 0.1000 0.0000
vt 1.0000 0.9000 0.0000
vt 0.0000 0.0000 0.0000
vt 0.2500 1.0000 0.0000
vt 1.0000 1.0000 0.0000
vt 0.6753 0.0000 0.0000
vt 0.3247 1.0000 0.0000
vt 0.8750 0.2500 0.0000
vt 0.1250 0.5000 0.0000
vt 0.6250 0.5000 0.0000
vt 0.8750 0.5000 0.0000
# 55 texture coords

o wall_open_door
g wall_open_door
f 1/1/1 2/2/1 3/3/1 4/4/1 
f 5/5/2 6/6/2 7/7/2 8/8/2 
f 9/9/1 10/10/1 11/11/1 12/12/1 
f 13/13/3 14/14/2 15/15/2 16/16/4 
f 17/17/5 18/18/1 12/12/1 19/19/6 
f 2/2/1 20/20/1 21/21/1 3/3/1 
f 4/4/1 11/11/1 10/10/1 22/22/1 
f 6/6/2 23/23/2 24/24/2 7/7/2 
f 25/25/7 26/26/8 27/27/2 8/8/2 
f 25/25/7 28/28/2 14/14/2 13/13/3 
f 16/16/4 15/15/2 29/29/9 30/30/10 
f 9/9/1 31/31/1 32/32/1 10/10/1 
f 33/9/2 34/33/2 35/32/2 36/10/2 
f 37/34/1 38/35/1 31/31/1 9/9/1 
f 10/10/1 32/32/1 39/36/1 22/22/1 
f 23/23/2 40/37/2 41/38/2 24/24/2 
f 42/34/2 43/35/2 34/33/2 33/9/2 
f 36/10/2 35/32/2 44/36/9 45/22/9 
f 20/20/1 46/39/1 47/40/1 21/21/1 
f 26/26/8 48/41/8 49/42/2 27/27/2 
f 7/7/2 28/28/2 25/25/7 8/8/2 
f 21/21/1 50/43/11 51/44/12 3/3/1 
f 22/22/1 52/45/1 1/1/1 4/4/1 
f 24/24/2 42/34/2 28/28/2 7/7/2 
f 27/27/2 53/46/2 5/5/2 8/8/2 
f 39/36/1 54/47/1 52/45/1 22/22/1 
f 41/38/2 43/35/2 42/34/2 24/24/2 
f 47/40/1 55/48/11 50/43/11 21/21/1 
f 49/42/2 56/49/2 53/46/2 27/27/2 
f 57/1/8 58/49/8 59/37/11 60/1/11 
f 61/50/13 57/1/8 60/1/11 62/51/14 
f 63/32/15 64/31/16 65/41/17 66/32/5 
f 62/51/14 65/41/17 64/31/16 61/50/13 
f 67/24/11 37/34/1 18/18/1 68/52/18 
f 69/38/11 38/35/1 37/34/1 67/24/11 
f 70/53/19 63/32/15 66/32/5 71/54/20 
f 72/34/21 73/55/22 74/9/23 75/9/24 
f 54/47/1 39/36/1 76/36/1 77/47/1 
f 32/32/1 31/31/1 78/31/1 79/32/1 
f 31/31/1 38/35/1 80/35/1 78/31/1 
f 38/35/1 69/38/11 81/38/11 80/35/1 
f 35/32/2 34/33/2 82/33/2 83/32/2 
f 34/33/2 43/35/2 84/35/2 82/33/2 
f 43/35/2 41/38/2 85/38/2 84/35/2 
f 39/36/1 32/32/1 79/32/1 76/36/1 
f 41/38/2 40/37/2 86/37/2 85/38/2 
f 44/36/9 35/32/2 83/32/2 87/36/9 
f 77/47/1 76/36/1 88/36/1 89/47/1 
f 79/32/1 78/31/1 90/31/1 91/32/1 
f 78/31/1 80/35/1 92/35/1 90/31/1 
f 80/35/1 81/38/11 93/38/11 92/35/1 
f 83/32/2 82/33/2 94/33/2 95/32/2 
f 82/33/2 84/35/2 96/35/2 94/33/2 
f 84/35/2 85/38/2 97/38/2 96/35/2 
f 76/36/1 79/32/1 91/32/1 88/36/1 
f 85/38/2 86/37/2 98/37/2 97/38/2 
f 87/36/9 83/32/2 95/32/2 99/36/9 
f 89/47/1 88/36/1 100/36/1 101/47/1 
f 91/32/1 90/31/1 102/31/1 103/32/1 
f 90/31/1 92/35/1 104/35/1 102/31/1 
f 92/35/1 93/38/11 105/38/18 104/35/1 
f 95/32/2 94/33/2 106/33/2 107/32/2 
f 94/33/2 96/35/2 108/35/2 106/33/2 
f 96/35/2 97/38/2 109/38/2 108/35/2 
f 88/36/1 91/32/1 103/32/1 100/36/1 
f 97/38/2 98/37/2 110/37/2 109/38/2 
f 99/36/9 95/32/2 107/32/2 111/36/8 
f 56/49/2 49/42/2 112/42/2 113/49/2 
f 55/48/11 47/40/1 114/40/1 115/48/11 
f 59/37/11 58/49/8 116/49/9 117/37/11 
f 49/42/2 48/41/8 118/41/9 112/42/2 
f 47/40/1 46/39/1 119/39/1 114/40/1 
f 113/49/2 112/42/2 120/42/2 121/49/2 
f 115/48/11 114/40/1 122/40/1 123/48/11 
f 117/37/11 116/49/9 124/49/9 125/37/11 
f 112/42/2 118/41/9 126/41/9 120/42/2 
f 114/40/1 119/39/1 127/39/1 122/40/1 
f 121/49/2 120/42/2 128/42/2 129/49/2 
f 123/48/11 122/40/1 130/40/1 131/48/18 
f 125/37/11 124/49/9 132/49/25 133/37/26 
f 120/42/2 126/41/9 134/41/8 128/42/2 
f 122/40/1 127/39/1 135/39/1 130/40/1 
f 67/9/11 68/9/18 136/9/23 137/9/27 
f 138/9/28 30/34/10 139/34/29 140/9/30 
f 30/34/10 29/55/9 141/55/22 139/34/29 
f 45/46/9 44/45/9 142/45/31 143/46/32 
f 44/45/9 87/45/9 144/45/31 142/45/31 
f 87/45/9 99/45/9 145/45/31 144/45/31 
f 99/45/9 111/45/8 146/45/33 145/45/31 
f 111/45/8 105/34/18 147/34/33 146/45/33 
f 105/34/18 93/34/11 148/34/31 147/34/33 
f 93/34/11 81/34/11 149/34/31 148/34/31 
f 81/34/11 69/34/11 150/34/31 149/34/31 
f 69/34/11 67/9/11 137/9/27 150/34/31 
f 137/9/27 136/9/23 74/9/23 151/9/34 
f 140/9/30 139/34/29 72/34/21 75/9/24 
f 139/34/29 141/55/22 73/55/22 72/34/21 
f 150/37/31 137/47/27 143/31/32 142/32/31 
f 149/38/31 150/37/31 142/32/31 144/35/31 
f 148/35/31 149/38/31 144/35/31 145/38/31 
f 147/32/33 148/35/31 145/38/31 146/33/33 
f 152/46/35 143/46/32 137/47/27 151/9/34 
f 48/37/8 26/1/8 153/1/11 154/37/11 
f 26/1/8 25/51/7 155/51/12 153/1/11 
f 25/51/7 13/41/3 156/41/6 155/51/12 
f 13/41/3 16/32/4 157/32/36 156/41/6 
f 16/32/4 30/54/10 158/54/37 157/32/36 
f 30/54/10 138/53/28 159/53/38 158/54/37 
f 138/53/28 17/32/5 160/32/15 159/53/38 
f 17/32/5 19/31/6 161/31/3 160/32/15 
f 19/31/6 51/50/12 162/50/7 161/31/3 
f 51/50/12 50/1/11 163/1/9 162/50/7 
f 50/1/11 55/49/11 164/49/9 163/1/9 
f 55/49/11 115/49/11 165/49/9 164/49/9 
f 115/49/11 123/49/11 166/49/9 165/49/9 
f 123/49/11 131/49/18 167/49/39 166/49/9 
f 131/49/18 134/37/8 168/37/40 167/49/39 
f 134/37/8 126/37/9 169/37/11 168/37/40 
f 126/37/9 118/37/9 170/37/11 169/37/11 
f 118/37/9 48/37/8 154/37/11 170/37/11 
f 154/37/11 153/1/11 60/1/11 59/37/11 
f 153/1/11 155/51/12 62/51/14 60/1/11 
f 155/51/12 156/41/6 65/41/17 62/51/14 
f 156/41/6 157/32/36 66/32/5 65/41/17 
f 157/32/36 158/54/37 71/54/20 66/32/5 
f 158/54/37 159/53/38 70/53/19 71/54/20 
f 159/53/38 160/32/15 63/32/15 70/53/19 
f 160/32/15 161/31/3 64/31/16 63/32/15 
f 161/31/3 162/50/7 61/50/13 64/31/16 
f 162/50/7 163/1/9 57/1/8 61/50/13 
f 163/1/9 164/49/9 58/49/8 57/1/8 
f 164/49/9 165/49/9 116/49/9 58/49/8 
f 165/49/9 166/49/9 124/49/9 116/49/9 
f 166/49/9 167/49/39 132/49/25 124/49/9 
f 167/49/39 168/37/40 133/37/26 132/49/25 
f 168/37/40 169/37/11 125/37/11 133/37/26 
f 169/37/11 170/37/11 117/37/11 125/37/11 
f 170/37/11 154/37/11 59/37/11 117/37/11 
f 11/11/1 51/44/12 19/19/6 12/12/1 
f 14/14/2 33/9/2 36/10/2 15/15/2 
f 18/18/1 37/34/1 9/9/1 12/12/1 
f 28/28/2 42/34/2 33/9/2 14/14/2 
f 15/15/2 36/10/2 45/22/9 29/29/9 
f 18/18/1 17/17/5 138/7/28 68/52/18 
f 73/55/22 152/46/35 151/9/34 74/9/23 
f 68/9/18 138/9/28 140/9/30 136/9/23 
f 29/55/9 45/46/9 143/46/32 141/55/22 
f 136/9/23 140/9/30 75/9/24 74/9/23 
f 141/55/22 143/46/32 152/46/35 73/55/22 
f 4/4/1 3/3/1 51/44/12 11/11/1 
# 150 polygons

