# 3ds Max Wavefront OBJ Exporter v0.97b - (c)2007 guruware
# File Created: 24.11.2019 19:40:34

#
# object wall_flat_jump
#

v  0.0000 -4.7987 0.0000
v  0.0000 -7.2013 0.0000
v  0.0000 -7.2013 0.3750
v  0.0000 -4.7987 0.3750
v  1.0000 -4.7987 0.0000
v  1.0000 -2.3960 0.0000
v  1.0000 -2.3960 0.3750
v  1.0000 -4.7987 0.3750
v  1.0000 -4.7987 4.5000
v  1.0000 -2.3960 4.5000
v  1.0000 -2.3960 5.6321
v  1.0000 -4.7987 5.6321
v  0.0000 -2.3960 3.0000
v  0.0000 -2.0000 3.0000
v  0.0000 -2.0000 1.5000
v  0.0000 -2.3960 1.5000
v  1.0000 -2.3960 3.0000
v  1.0000 -2.0000 3.0000
v  1.0000 -2.0000 4.5000
v  0.0000 -2.3960 4.5000
v  0.0000 -2.0000 4.5000
v  0.0000 -2.0000 0.3750
v  0.0000 -2.3960 0.3750
v  1.0000 -2.0000 0.0000
v  1.0000 -2.0000 0.3750
v  1.0000 -2.3960 1.5000
v  1.0000 -2.0000 1.5000
v  1.0000 -2.0000 5.6321
v  0.0000 -2.3960 0.0000
v  0.0000 -2.0000 0.0000
v  0.0000 -1.3333 0.3750
v  0.0000 -1.3333 0.0000
v  0.0000 -1.3333 3.0000
v  0.0000 -1.3333 1.5000
v  0.0000 -1.3333 4.5000
v  0.0000 -2.0000 5.6321
v  0.0000 -1.3333 5.6321
v  1.0000 -1.3333 3.0000
v  1.0000 -1.3333 4.5000
v  1.0000 -1.3333 1.5000
v  1.0000 -1.3333 0.3750
v  1.0000 -1.3333 0.0000
v  0.0000 -0.6667 0.3750
v  0.0000 -0.6667 0.0000
v  0.0000 -0.6667 3.0000
v  0.0000 -0.6667 1.5000
v  0.0000 -0.6667 4.5000
v  0.0000 -0.6667 5.6321
v  1.0000 -0.6667 3.0000
v  1.0000 -0.6667 4.5000
v  1.0000 -0.6667 1.5000
v  1.0000 -0.6667 0.3750
v  1.0000 -0.6667 0.0000
v  0.0000 0.0000 0.3750
v  0.0000 0.0000 0.0000
v  0.0000 0.0000 3.0000
v  0.0000 0.0000 1.5000
v  0.0000 0.0000 4.5000
v  0.0000 0.0000 5.6321
v  1.0000 0.0000 3.0000
v  1.0000 0.0000 4.5000
v  1.0000 0.0000 1.5000
v  1.0000 0.0000 0.3750
v  1.0000 0.0000 0.0000
v  1.0000 -7.2013 0.0000
v  1.0000 -7.2013 0.3750
v  1.0000 -9.6040 0.3750
v  1.0000 -9.6040 0.0000
v  1.0000 -7.2013 4.5000
v  1.0000 -7.2013 5.6321
v  1.0000 -9.6040 5.6321
v  1.0000 -9.6040 4.5000
v  0.0000 -9.6040 3.0000
v  0.0000 -9.6040 1.5000
v  0.0000 -10.0000 1.5000
v  0.0000 -10.0000 3.0000
v  1.0000 -9.6040 3.0000
v  1.0000 -10.0000 4.5000
v  1.0000 -10.0000 3.0000
v  0.0000 -9.6040 4.5000
v  0.0000 -10.0000 4.5000
v  0.0000 -9.6040 0.3750
v  0.0000 -10.0000 0.3750
v  1.0000 -10.0000 0.3750
v  1.0000 -10.0000 0.0000
v  1.0000 -9.6040 1.5000
v  1.0000 -10.0000 1.5000
v  1.0000 -10.0000 5.6321
v  0.0000 -9.6040 0.0000
v  0.0000 -10.0000 0.0000
v  0.0000 -10.6667 0.0000
v  0.0000 -10.6667 0.3750
v  0.0000 -10.6667 1.5000
v  0.0000 -10.6667 3.0000
v  0.0000 -10.6667 4.5000
v  0.0000 -10.6667 5.6321
v  0.0000 -10.0000 5.6321
v  1.0000 -10.6667 4.5000
v  1.0000 -10.6667 3.0000
v  1.0000 -10.6667 1.5000
v  1.0000 -10.6667 0.3750
v  1.0000 -10.6667 0.0000
v  0.0000 -11.3333 0.0000
v  0.0000 -11.3333 0.3750
v  0.0000 -11.3333 1.5000
v  0.0000 -11.3333 3.0000
v  0.0000 -11.3333 4.5000
v  0.0000 -11.3333 5.6321
v  1.0000 -11.3333 4.5000
v  1.0000 -11.3333 3.0000
v  1.0000 -11.3333 1.5000
v  1.0000 -11.3333 0.3750
v  1.0000 -11.3333 0.0000
v  0.0000 -12.0000 0.0000
v  0.0000 -12.0000 0.3750
v  0.0000 -12.0000 1.5000
v  0.0000 -12.0000 3.0000
v  0.0000 -12.0000 4.5000
v  0.0000 -12.0000 5.6321
v  1.0000 -12.0000 4.5000
v  1.0000 -12.0000 3.0000
v  1.0000 -12.0000 1.5000
v  1.0000 -12.0000 0.3750
v  1.0000 -12.0000 0.0000
v  0.0000 -2.3960 5.6321
v  0.0000 -4.7987 4.5000
v  0.0000 -4.7987 5.6321
v  1.0000 -1.3333 5.6321
v  1.0000 -0.6667 5.6321
v  1.0000 0.0000 5.6321
v  0.0000 -7.2013 4.5000
v  0.0000 -7.2013 5.6321
v  0.0000 -9.6040 5.6321
v  1.0000 -10.6667 5.6321
v  1.0000 -11.3333 5.6321
v  1.0000 -12.0000 5.6321
v  0.2038 -9.6040 5.6321
v  0.2993 -7.2013 5.4170
v  0.2993 -9.6040 5.4170
v  0.7007 -9.6040 5.4170
v  0.7007 -7.2013 5.4170
v  0.7007 -4.7987 5.4170
v  0.2993 -4.7987 5.4170
v  0.2993 -2.3960 5.4170
v  0.7007 -2.3960 5.4170
v  0.7962 -2.3960 5.6321
v  0.7962 -4.7987 5.6321
v  0.2038 -4.7987 5.6321
v  0.2038 -2.3960 5.6321
v  0.2038 -7.2013 5.6321
v  0.7962 -7.2013 5.6321
v  0.7962 -9.6040 5.6321
v  1.0000 -7.2013 1.5000
v  1.0000 -4.7987 1.5000
v  1.6928 -9.4363 3.0000
v  1.6928 -9.4363 1.6677
v  1.5764 -7.2013 1.6677
v  1.5764 -7.2013 3.0000
v  1.5764 -4.7987 1.6677
v  1.5764 -4.7987 3.0000
v  1.6928 -2.5637 1.6677
v  1.6928 -2.5637 3.0000
v  1.6928 -9.4363 4.3323
v  1.5764 -7.2013 4.3323
v  1.5764 -4.7987 4.3323
v  1.6928 -2.5637 4.3323
v  -0.6928 -9.4363 3.0000
v  -0.6928 -9.4363 4.3323
v  -0.5764 -7.2013 4.3323
v  -0.5764 -7.2013 3.0000
v  -0.5764 -4.7987 4.3323
v  -0.5764 -4.7987 3.0000
v  -0.6928 -2.5637 4.3323
v  -0.6928 -2.5637 3.0000
v  -0.6928 -9.4363 1.6677
v  -0.5764 -7.2013 1.6677
v  -0.5764 -4.7987 1.6677
v  -0.6928 -2.5637 1.6677
v  0.0000 -7.2013 1.5000
v  0.0000 -4.7987 1.5000
# 180 vertices

vn -1.0000 0.0000 -0.0000
vn 1.0000 0.0000 -0.0000
vn 0.7998 0.0000 0.6002
vn 0.9454 0.2304 0.2304
vn 0.7071 0.0000 0.7071
vn -0.7859 0.6184 -0.0000
vn -0.9454 0.2304 -0.2304
vn 0.7859 0.6183 -0.0000
vn 1.0000 0.0000 0.0000
vn -0.9454 0.2304 0.2304
vn 0.9454 0.2304 -0.2304
vn 0.7071 -0.0000 0.7071
vn -0.7071 -0.0000 0.7071
vn -0.7071 0.0000 0.7071
vn 0.9454 -0.2304 0.2304
vn -0.7859 -0.6184 -0.0000
vn -0.9454 -0.2304 -0.2304
vn 0.7859 -0.6183 -0.0000
vn -0.9454 -0.2304 0.2304
vn 0.9454 -0.2304 -0.2304
vn -0.7998 0.0000 0.6002
vn -0.7998 0.0000 0.6003
vn -0.0000 0.0000 1.0000
vn 0.5449 0.0000 0.8385
vn 0.4349 0.6026 0.6692
vn -0.4349 0.6026 0.6692
vn -0.5449 0.0000 0.8385
vn 0.4349 -0.6026 0.6692
vn -0.4349 -0.6026 0.6692
vn -0.2537 -0.2037 0.9456
vn -0.5449 -0.0000 0.8385
vn 0.2537 -0.2037 0.9456
vn 0.4992 0.4009 0.7682
vn -0.4992 0.4009 0.7682
vn 0.7998 0.0000 -0.6002
vn 0.8018 -0.5977 -0.0000
vn 0.7114 -0.4887 -0.5050
vn 0.7959 0.0208 -0.6050
vn 0.9997 0.0260 -0.0000
vn 0.7959 -0.0208 -0.6050
vn 0.9997 -0.0260 -0.0000
vn 0.7114 0.4887 -0.5050
vn 0.8018 0.5977 -0.0000
vn 0.7114 -0.4887 0.5050
vn 0.7959 0.0208 0.6050
vn 0.7959 -0.0208 0.6050
vn 0.7114 0.4887 0.5050
vn -0.8017 -0.5977 -0.0000
vn -0.7114 -0.4887 0.5050
vn -0.7959 0.0208 0.6051
vn -0.9997 0.0260 0.0000
vn -0.7959 -0.0208 0.6050
vn -0.9997 -0.0260 -0.0000
vn -0.7114 0.4887 0.5050
vn -0.8017 0.5977 -0.0000
vn -0.7114 -0.4887 -0.5050
vn -0.7959 0.0208 -0.6051
vn -0.7959 -0.0208 -0.6051
vn -0.7114 0.4887 -0.5050
vn -0.7998 0.0000 -0.6003
# 60 vertex normals

vt 0.0000 0.4000 0.0000
vt 0.1250 0.4000 0.0000
vt 1.0000 0.4000 0.0000
vt 1.0000 0.1000 0.0000
vt 0.8750 0.1000 0.0000
vt 0.8750 0.4000 0.0000
vt 0.2500 0.4000 0.0000
vt 0.2500 0.1000 0.0000
vt 0.1250 0.1000 0.0000
vt 0.5000 0.1000 0.0000
vt 0.5000 0.0000 0.0000
vt 0.2500 0.0000 0.0000
vt 0.7500 0.1000 0.0000
vt 0.7500 0.0000 0.0000
vt 0.1250 0.0000 0.0000
vt 1.0000 0.0000 0.0000
vt 0.8750 0.0000 0.0000
vt 0.0000 0.1000 0.0000
vt 0.0000 0.0000 0.0000
vt 0.7500 0.4000 0.0000
vt 0.1505 0.0000 0.0000
vt 0.1958 0.0000 0.0000
vt 0.8750 0.5000 0.0000
vt 0.2245 0.0000 0.0000
vt 0.0513 0.0000 0.0000
vt 0.5000 0.8000 0.0000
vt 0.8750 0.2000 0.0000
# 27 texture coords

o wall_flat_jump
g wall_flat_jump
f 1/1/1 2/1/1 3/2/1 4/2/1 
f 5/3/2 6/4/2 7/5/2 8/6/2 
f 9/7/3 10/8/4 11/9/5 12/2/5 
f 13/10/6 14/11/1 15/12/1 16/8/7 
f 17/10/8 18/11/2 19/12/9 10/8/4 
f 20/13/10 21/14/1 14/11/1 13/10/6 
f 16/8/7 15/12/1 22/15/1 23/9/1 
f 6/4/2 24/16/2 25/17/2 7/5/2 
f 26/13/11 27/14/2 18/11/2 17/10/8 
f 10/8/4 19/12/9 28/15/12 11/9/5 
f 23/9/1 29/18/1 1/1/1 4/2/1 
f 22/15/1 30/19/1 29/18/1 23/9/1 
f 25/17/2 27/14/2 26/13/11 7/5/2 
f 30/19/1 22/15/1 31/15/1 32/19/1 
f 15/12/1 14/11/1 33/11/1 34/12/1 
f 14/11/1 21/14/1 35/14/1 33/11/1 
f 21/14/1 36/17/13 37/17/14 35/14/1 
f 19/12/9 18/11/2 38/11/2 39/12/9 
f 18/11/2 27/14/2 40/14/2 38/11/2 
f 27/14/2 25/17/2 41/17/2 40/14/2 
f 22/15/1 15/12/1 34/12/1 31/15/1 
f 25/17/2 24/16/2 42/16/2 41/17/2 
f 32/19/1 31/15/1 43/15/1 44/19/1 
f 34/12/1 33/11/1 45/11/1 46/12/1 
f 33/11/1 35/14/1 47/14/1 45/11/1 
f 35/14/1 37/17/14 48/17/14 47/14/1 
f 39/12/9 38/11/2 49/11/2 50/12/9 
f 38/11/2 40/14/2 51/14/2 49/11/2 
f 40/14/2 41/17/2 52/17/2 51/14/2 
f 31/15/1 34/12/1 46/12/1 43/15/1 
f 41/17/2 42/16/2 53/16/2 52/17/2 
f 44/19/1 43/15/1 54/15/1 55/19/1 
f 46/12/1 45/11/1 56/11/1 57/12/1 
f 45/11/1 47/14/1 58/14/1 56/11/1 
f 47/14/1 48/17/14 59/17/14 58/14/1 
f 50/12/9 49/11/2 60/11/2 61/12/9 
f 49/11/2 51/14/2 62/14/2 60/11/2 
f 51/14/2 52/17/2 63/17/2 62/14/2 
f 43/15/1 46/12/1 57/12/1 54/15/1 
f 52/17/2 53/16/2 64/16/2 63/17/2 
f 65/3/2 66/6/2 67/5/2 68/4/2 
f 69/7/3 70/2/5 71/9/5 72/8/15 
f 73/10/16 74/8/17 75/12/1 76/11/1 
f 77/10/18 72/8/15 78/12/9 79/11/2 
f 80/13/19 73/10/16 76/11/1 81/14/1 
f 74/8/17 82/9/1 83/15/1 75/12/1 
f 68/4/2 67/5/2 84/17/2 85/16/2 
f 86/13/20 77/10/18 79/11/2 87/14/2 
f 72/8/15 71/9/5 88/15/5 78/12/9 
f 82/9/1 3/2/1 2/1/1 89/18/1 
f 83/15/1 82/9/1 89/18/1 90/19/1 
f 84/17/2 67/5/2 86/13/20 87/14/2 
f 90/19/1 91/19/1 92/15/1 83/15/1 
f 75/12/1 93/12/1 94/11/1 76/11/1 
f 76/11/1 94/11/1 95/14/1 81/14/1 
f 81/14/1 95/14/1 96/17/14 97/17/14 
f 78/12/9 98/12/9 99/11/2 79/11/2 
f 79/11/2 99/11/2 100/14/2 87/14/2 
f 87/14/2 100/14/2 101/17/2 84/17/2 
f 83/15/1 92/15/1 93/12/1 75/12/1 
f 84/17/2 101/17/2 102/16/2 85/16/2 
f 91/19/1 103/19/1 104/15/1 92/15/1 
f 93/12/1 105/12/1 106/11/1 94/11/1 
f 94/11/1 106/11/1 107/14/1 95/14/1 
f 95/14/1 107/14/1 108/17/14 96/17/14 
f 98/12/9 109/12/9 110/11/2 99/11/2 
f 99/11/2 110/11/2 111/14/2 100/14/2 
f 100/14/2 111/14/2 112/17/2 101/17/2 
f 92/15/1 104/15/1 105/12/1 93/12/1 
f 101/17/2 112/17/2 113/16/2 102/16/2 
f 103/19/1 114/19/1 115/15/1 104/15/1 
f 105/12/1 116/12/1 117/11/1 106/11/1 
f 106/11/1 117/11/1 118/14/1 107/14/1 
f 107/14/1 118/14/1 119/17/14 108/17/14 
f 109/12/9 120/12/9 121/11/2 110/11/2 
f 110/11/2 121/11/2 122/14/2 111/14/2 
f 111/14/2 122/14/2 123/17/2 112/17/2 
f 104/15/1 115/15/1 116/12/1 105/12/1 
f 112/17/2 123/17/2 124/16/2 113/16/2 
f 5/3/2 8/6/2 66/6/2 65/3/2 
f 70/2/5 69/7/3 9/7/3 12/2/5 
f 125/5/14 20/13/10 126/20/21 127/6/14 
f 36/17/13 21/14/1 20/13/10 125/5/14 
f 28/15/12 19/12/9 39/12/9 128/15/5 
f 128/15/5 39/12/9 50/12/9 129/15/5 
f 129/15/5 50/12/9 61/12/9 130/15/5 
f 127/6/14 126/20/21 131/20/22 132/6/14 
f 132/6/14 131/20/22 80/13/19 133/5/14 
f 133/5/14 80/13/19 81/14/1 97/17/14 
f 134/15/5 98/12/9 78/12/9 88/15/5 
f 135/15/5 109/12/9 98/12/9 134/15/5 
f 136/15/5 120/12/9 109/12/9 135/15/5 
f 108/11/14 119/17/14 136/14/5 135/14/5 
f 96/12/14 108/11/14 135/14/5 134/11/5 
f 97/16/14 96/12/14 134/11/5 88/19/5 
f 133/15/14 97/16/14 137/21/23 
f 138/19/24 139/15/25 140/12/26 141/16/27 
f 138/19/24 141/16/27 142/15/27 143/19/24 
f 144/19/28 143/19/24 142/15/27 145/12/29 
f 146/22/30 11/12/5 28/23/12 
f 37/19/14 36/18/13 28/23/12 128/16/5 
f 48/12/14 37/19/14 128/16/5 129/11/5 
f 59/11/14 48/12/14 129/11/5 130/14/5 
f 12/15/5 11/12/5 146/12/30 147/15/31 
f 125/19/14 127/19/14 148/19/24 149/19/32 
f 127/19/14 132/19/14 150/19/24 148/19/24 
f 132/19/14 133/15/14 137/15/33 150/19/24 
f 71/12/5 70/16/5 151/16/27 152/12/34 
f 70/16/5 12/15/5 147/15/31 151/16/27 
f 147/15/31 146/12/30 145/12/29 142/15/27 
f 146/12/30 149/19/32 144/19/28 145/12/29 
f 149/19/32 148/19/24 143/19/24 144/19/28 
f 148/19/24 150/19/24 138/19/24 143/19/24 
f 150/19/24 137/15/33 139/15/25 138/19/24 
f 137/15/33 152/12/34 140/12/26 139/15/25 
f 152/12/34 151/16/27 141/16/27 140/12/26 
f 151/16/27 147/15/31 142/15/27 141/16/27 
f 97/16/14 88/19/5 152/24/23 137/21/23 
f 88/19/5 71/12/5 152/24/23 
f 36/18/13 125/19/14 149/25/32 
f 28/23/12 36/18/13 149/25/32 146/22/30 
f 86/14/20 67/14/2 66/9/2 153/15/35 
f 153/15/35 66/9/2 8/17/2 154/15/35 
f 154/15/35 8/17/2 7/10/2 26/8/11 
f 155/15/36 156/14/37 157/15/38 158/17/39 
f 158/17/39 157/15/38 159/15/40 160/15/41 
f 160/15/41 159/15/40 161/8/42 162/8/43 
f 163/19/44 155/15/36 158/17/39 164/26/45 
f 164/26/45 158/17/39 160/15/41 165/17/46 
f 165/17/46 160/15/41 162/8/43 166/20/47 
f 167/17/48 168/19/49 169/27/50 170/2/51 
f 170/2/51 169/27/50 171/5/52 172/6/53 
f 172/6/53 171/5/52 173/18/54 174/4/55 
f 175/16/56 167/17/48 170/2/51 176/9/57 
f 176/9/57 170/2/51 172/6/53 177/17/58 
f 177/17/58 172/6/53 174/4/55 178/1/59 
f 82/12/1 74/16/17 179/9/60 3/15/1 
f 3/15/1 179/9/60 180/17/60 4/15/1 
f 4/15/1 180/17/60 16/1/7 23/13/1 
f 10/20/4 9/17/3 165/17/46 166/20/47 
f 9/17/3 69/26/3 164/26/45 165/17/46 
f 69/26/3 72/19/15 163/19/44 164/26/45 
f 72/19/15 77/15/18 155/15/36 163/19/44 
f 77/15/18 86/14/20 156/14/37 155/15/36 
f 86/14/20 153/15/35 157/15/38 156/14/37 
f 153/15/35 154/15/35 159/15/40 157/15/38 
f 154/15/35 26/8/11 161/8/42 159/15/40 
f 26/8/11 17/8/8 162/8/43 161/8/42 
f 17/8/8 10/20/4 166/20/47 162/8/43 
f 126/5/21 20/18/10 173/18/54 171/5/52 
f 20/18/10 13/4/6 174/4/55 173/18/54 
f 13/4/6 16/1/7 178/1/59 174/4/55 
f 16/1/7 180/17/60 177/17/58 178/1/59 
f 180/17/60 179/9/60 176/9/57 177/17/58 
f 179/9/60 74/16/17 175/16/56 176/9/57 
f 74/16/17 73/17/16 167/17/48 175/16/56 
f 73/17/16 80/19/19 168/19/49 167/17/48 
f 80/19/19 131/27/22 169/27/50 168/19/49 
f 131/27/22 126/5/21 171/5/52 169/27/50 
# 155 polygons - 4 triangles

