# 3ds Max Wavefront OBJ Exporter v0.97b - (c)2007 guruware
# File Created: 24.11.2019 19:40:10

#
# object wall_open_tall
#

v  1.0000 -2.9522 3.0000
v  1.0000 -2.3960 3.0000
v  1.0000 -2.3960 4.5000
v  1.0000 -2.9522 4.5000
v  0.0000 -2.9522 4.5000
v  0.0000 -2.3960 4.5000
v  0.0000 -2.3960 3.0000
v  0.0000 -2.9522 3.0000
v  0.0000 -3.4642 1.5000
v  0.0000 -2.3960 0.3750
v  0.0000 -4.7987 0.3750
v  1.0000 -4.7987 0.0000
v  1.0000 -2.3960 0.0000
v  1.0000 -2.3960 0.3750
v  1.0000 -4.7987 0.3750
v  1.0000 -2.9522 2.0902
v  1.0000 -2.3960 1.5000
v  1.0000 -2.3960 5.6321
v  1.0000 -2.9522 5.6321
v  0.0000 -2.0000 3.0000
v  0.0000 -2.0000 1.5000
v  0.0000 -2.3960 1.5000
v  1.0000 -2.0000 3.0000
v  1.0000 -2.0000 4.5000
v  0.0000 -2.0000 4.5000
v  0.0000 -2.0000 0.3750
v  1.0000 -2.0000 -0.0000
v  1.0000 -2.0000 0.3750
v  1.0000 -2.0000 1.5000
v  1.0000 -2.0000 5.6321
v  0.0000 -2.3960 -0.0000
v  0.0000 -4.7987 -0.0000
v  0.0000 -2.0000 -0.0000
v  0.0000 -2.3960 5.6321
v  0.0000 -2.9522 5.6321
v  0.0000 -2.0000 5.6321
v  0.8208 -3.2850 4.5000
v  0.8208 -3.2850 5.0063
v  0.1792 -3.2850 5.0063
v  0.1792 -3.2850 4.5000
v  0.8208 -3.2850 3.0000
v  0.1792 -3.2850 3.0000
v  0.8208 -3.2850 1.8480
v  0.1792 -3.2850 1.8480
v  1.0000 -3.4642 1.5000
v  0.0000 -1.3333 0.3750
v  0.0000 -1.3333 -0.0000
v  0.0000 -1.3333 3.0000
v  0.0000 -1.3333 1.5000
v  0.0000 -1.3333 4.5000
v  0.0000 -1.3333 5.6321
v  1.0000 -1.3333 3.0000
v  1.0000 -1.3333 4.5000
v  1.0000 -1.3333 1.5000
v  1.0000 -1.3333 0.3750
v  1.0000 -1.3333 0.0000
v  1.0000 -1.3333 5.6321
v  0.0000 -0.6667 0.3750
v  0.0000 -0.6667 -0.0000
v  0.0000 -0.6667 3.0000
v  0.0000 -0.6667 1.5000
v  0.0000 -0.6667 4.5000
v  0.0000 -0.6667 5.6321
v  1.0000 -0.6667 3.0000
v  1.0000 -0.6667 4.5000
v  1.0000 -0.6667 1.5000
v  1.0000 -0.6667 0.3750
v  1.0000 -0.6667 0.0000
v  1.0000 -0.6667 5.6321
v  0.0000 0.0000 0.3750
v  0.0000 0.0000 -0.0000
v  0.0000 0.0000 3.0000
v  0.0000 0.0000 1.5000
v  0.0000 0.0000 4.5000
v  0.0000 0.0000 5.6321
v  1.0000 0.0000 3.0000
v  1.0000 0.0000 4.5000
v  1.0000 0.0000 1.5000
v  1.0000 0.0000 0.3750
v  1.0000 0.0000 0.0000
v  1.0000 0.0000 5.6321
v  1.0000 -7.2013 0.3750
v  1.0000 -7.2013 0.0000
v  0.7131 -5.0856 0.6020
v  0.2869 -5.0856 0.6020
v  0.2869 -7.2013 0.6020
v  0.7131 -7.2013 0.6020
v  0.0000 -7.2013 0.3750
v  0.0000 -7.2013 -0.0000
v  0.0000 -2.9522 2.0902
v  0.1792 -3.0478 2.1258
v  0.1792 -3.0478 3.0000
v  0.1792 -3.0478 4.5000
v  0.1792 -3.0478 5.4529
v  0.8208 -3.0478 5.4529
v  0.8208 -3.0478 4.5000
v  0.8208 -3.0478 3.0000
v  0.8208 -3.0478 2.1258
v  0.0000 -9.6040 -0.0000
v  0.0000 -9.6040 0.3750
v  1.0000 -9.6040 0.3750
v  1.0000 -9.6040 0.0000
v  0.2869 -9.3171 0.6020
v  0.7131 -9.3171 0.6020
v  0.0000 -10.0000 -0.0000
v  0.0000 -10.0000 0.3750
v  1.0000 -10.0000 0.3750
v  1.0000 -10.0000 0.0000
v  0.0000 -10.6667 -0.0000
v  0.0000 -10.6667 0.3750
v  1.0000 -10.6667 0.3750
v  1.0000 -10.6667 0.0000
v  0.0000 -11.3333 -0.0000
v  0.0000 -11.3333 0.3750
v  1.0000 -11.3333 0.3750
v  1.0000 -11.3333 0.0000
v  0.0000 -12.0000 -0.0000
v  0.0000 -12.0000 0.3750
v  1.0000 -12.0000 0.3750
v  1.0000 -12.0000 0.0000
v  0.1792 -4.9778 0.3750
v  0.8208 -4.9778 0.3750
v  0.1792 -7.2013 0.3750
v  0.1792 -9.4248 0.3750
v  0.8208 -9.4248 0.3750
v  0.8208 -7.2013 0.3750
# 126 vertices

vn 0.8575 -0.5145 -0.0000
vn 1.0000 0.0000 -0.0000
vn -0.8575 -0.5145 -0.0000
vn -1.0000 0.0000 -0.0000
vn -0.7512 -0.5023 0.4282
vn -0.7931 -0.2090 0.5722
vn 0.7931 -0.2090 0.5722
vn 0.9131 -0.3820 0.1426
vn 0.7071 0.0000 0.7071
vn 0.6229 -0.4732 0.6229
vn -0.7071 0.0000 0.7071
vn -0.6229 -0.4732 0.6229
vn 0.7071 -0.7071 -0.0000
vn 0.6565 -0.7319 0.1824
vn -0.6565 -0.7319 0.1824
vn -0.7071 -0.7071 0.0000
vn 0.3151 -0.8567 0.4085
vn -0.3151 -0.8567 0.4085
vn 0.7512 -0.5023 0.4282
vn 0.4325 0.4325 0.7911
vn -0.4325 0.4325 0.7911
vn -0.5344 0.0000 0.8452
vn 0.5344 0.0000 0.8452
vn -0.9131 -0.3820 0.1426
vn -0.8163 -0.5420 0.1996
vn -0.2639 -0.9148 0.3057
vn 0.2639 -0.9148 0.3057
vn 0.8163 -0.5420 0.1996
vn 0.7071 -0.0000 0.7071
vn -0.4325 -0.4325 0.7911
vn 0.4325 -0.4325 0.7911
vn -0.1784 0.1784 0.9677
vn 0.1784 0.1784 0.9676
vn -0.1784 -0.1784 0.9677
vn 0.1784 -0.1784 0.9676
# 35 vertex normals

vt 0.5000 0.2596 0.0000
vt 0.5000 0.1000 0.0000
vt 0.2500 0.1000 0.0000
vt 0.2500 0.2579 0.0000
vt 0.7500 0.2538 0.0000
vt 0.7500 0.1000 0.0000
vt 0.5000 0.2536 0.0000
vt 0.2500 0.4000 0.0000
vt 0.1250 0.1000 0.0000
vt 0.1250 0.4000 0.0000
vt 1.0000 0.4000 0.0000
vt 1.0000 0.1000 0.0000
vt 0.8750 0.1000 0.0000
vt 0.8750 0.4000 0.0000
vt 0.6410 0.2606 0.0000
vt 0.1250 0.2566 0.0000
vt 0.5000 0.0000 0.0000
vt 0.2500 0.0000 0.0000
vt 0.7500 0.0000 0.0000
vt 0.1250 0.0000 0.0000
vt 1.0000 0.0000 0.0000
vt 0.8750 0.0000 0.0000
vt 0.0000 0.1000 0.0000
vt 0.0000 0.4000 0.0000
vt 0.0000 0.0000 0.0000
vt 0.8750 0.2539 0.0000
vt 0.5000 0.9000 0.0000
vt 0.7500 0.9000 0.0000
vt 0.2389 0.9000 0.0000
vt 0.7500 0.4896 0.0000
vt 0.0000 0.9000 0.0000
vt 0.2500 1.0000 0.0000
vt 0.7500 1.0000 0.0000
vt 0.5000 0.4000 0.0000
vt 0.3446 0.2535 0.0000
vt 0.7500 0.4000 0.0000
# 36 texture coords

o wall_open_tall
g wall_open_tall
f 1/1/1 2/2/2 3/3/2 4/4/1 
f 5/5/3 6/6/4 7/2/4 8/7/3 
f 9/8/5 10/9/4 11/10/6 
f 12/11/2 13/12/2 14/13/2 14/13/2 15/14/7 
f 16/15/8 17/6/2 2/2/2 1/1/1 
f 4/4/1 3/3/2 18/9/9 19/16/10 
f 7/2/4 20/17/4 21/18/4 22/3/4 
f 2/2/2 23/17/2 24/18/2 3/3/2 
f 6/6/4 25/19/4 20/17/4 7/2/4 
f 22/3/4 21/18/4 26/20/4 10/9/4 
f 13/12/2 27/21/2 28/22/2 14/13/2 
f 17/6/2 29/19/2 23/17/2 2/2/2 
f 3/3/2 24/18/2 30/20/9 18/9/9 
f 10/9/4 31/23/4 32/24/4 11/10/6 
f 26/20/4 33/25/4 31/23/4 10/9/4 
f 28/22/2 29/19/2 17/6/2 14/13/2 
f 34/13/11 6/6/4 5/5/3 35/26/12 
f 36/22/11 25/19/4 6/6/4 34/13/11 
f 18/27/9 30/12/9 36/6/11 34/28/11 
f 19/29/10 18/27/9 34/28/11 35/30/12 
f 37/19/13 38/31/14 39/6/15 40/18/16 
f 41/32/13 37/19/13 40/18/16 42/19/16 
f 43/33/17 41/32/13 42/19/16 44/32/18 
f 15/8/7 45/33/19 9/32/5 11/34/6 
f 33/25/4 26/20/4 46/20/4 47/25/4 
f 21/18/4 20/17/4 48/17/4 49/18/4 
f 20/17/4 25/19/4 50/19/4 48/17/4 
f 25/19/4 36/22/11 51/22/11 50/19/4 
f 24/18/2 23/17/2 52/17/2 53/18/2 
f 23/17/2 29/19/2 54/19/2 52/17/2 
f 29/19/2 28/22/2 55/22/2 54/19/2 
f 26/20/4 21/18/4 49/18/4 46/20/4 
f 28/22/2 27/21/2 56/21/2 55/22/2 
f 30/20/9 24/18/2 53/18/2 57/20/9 
f 36/6/11 30/12/9 57/12/9 51/6/11 
f 47/25/4 46/20/4 58/20/4 59/25/4 
f 49/18/4 48/17/4 60/17/4 61/18/4 
f 48/17/4 50/19/4 62/19/4 60/17/4 
f 50/19/4 51/22/11 63/22/11 62/19/4 
f 53/18/2 52/17/2 64/17/2 65/18/2 
f 52/17/2 54/19/2 66/19/2 64/17/2 
f 54/19/2 55/22/2 67/22/2 66/19/2 
f 46/20/4 49/18/4 61/18/4 58/20/4 
f 55/22/2 56/21/2 68/21/2 67/22/2 
f 57/20/9 53/18/2 65/18/2 69/20/9 
f 51/6/11 57/12/9 69/12/9 63/6/11 
f 59/25/4 58/20/4 70/20/4 71/25/4 
f 61/18/4 60/17/4 72/17/4 73/18/4 
f 60/17/4 62/19/4 74/19/4 72/17/4 
f 62/19/4 63/22/11 75/22/11 74/19/4 
f 65/18/2 64/17/2 76/17/2 77/18/2 
f 64/17/2 66/19/2 78/19/2 76/17/2 
f 66/19/2 67/22/2 79/22/2 78/19/2 
f 58/20/4 61/18/4 73/18/4 70/20/4 
f 67/22/2 68/21/2 80/21/2 79/22/2 
f 69/20/9 65/18/2 77/18/2 81/20/9 
f 63/6/11 69/12/9 81/12/9 75/6/11 
f 12/11/2 15/14/7 82/14/9 83/11/2 
f 84/8/20 85/34/21 86/34/22 87/8/23 
f 88/10/11 11/10/6 32/24/4 89/24/4 
f 22/3/4 10/9/4 9/8/5 90/35/24 
f 91/35/25 44/8/18 42/34/16 92/7/3 
f 92/7/3 42/34/16 40/36/16 93/5/3 
f 93/5/3 40/36/16 39/14/15 94/26/26 
f 94/30/26 39/6/15 38/31/14 95/29/27 
f 95/16/27 38/10/14 37/8/13 96/4/1 
f 96/4/1 37/8/13 41/34/13 97/1/1 
f 45/36/19 14/13/2 14/13/2 17/6/2 16/15/8 
f 98/15/28 97/1/1 41/34/13 43/36/17 
f 45/36/19 15/14/7 14/13/2 
f 90/35/24 8/7/3 7/2/4 22/3/4 
f 9/32/5 45/33/19 43/33/17 44/32/18 
f 45/36/19 16/15/8 98/15/28 43/36/17 
f 16/15/8 1/1/1 97/1/1 98/15/28 
f 1/1/1 4/4/1 96/4/1 97/1/1 
f 4/4/1 19/16/10 95/16/27 96/4/1 
f 19/29/10 35/30/12 94/30/26 95/29/27 
f 35/26/12 5/5/3 93/5/3 94/26/26 
f 5/5/3 8/7/3 92/7/3 93/5/3 
f 8/7/3 90/35/24 91/35/25 92/7/3 
f 90/35/24 9/8/5 44/8/18 91/35/25 
f 88/10/11 89/24/4 99/24/4 100/10/11 
f 83/11/2 82/14/9 101/14/29 102/11/2 
f 87/8/23 86/34/22 103/34/30 104/8/31 
f 100/10/11 99/24/4 105/24/4 106/10/11 
f 102/11/2 101/14/29 107/14/9 108/11/2 
f 101/8/29 100/34/11 106/34/11 107/8/9 
f 106/10/11 105/24/4 109/24/4 110/10/11 
f 108/11/2 107/14/9 111/14/9 112/11/2 
f 107/8/9 106/34/11 110/34/11 111/8/9 
f 110/10/11 109/24/4 113/24/4 114/10/11 
f 112/11/2 111/14/9 115/14/9 116/11/2 
f 111/8/9 110/34/11 114/34/11 115/8/9 
f 114/10/11 113/24/4 117/24/4 118/10/11 
f 116/11/2 115/14/9 119/14/9 120/11/2 
f 115/8/9 114/34/11 118/34/11 119/8/9 
f 15/8/7 11/34/6 121/34/32 122/8/33 
f 11/34/6 88/34/11 123/34/22 121/34/32 
f 88/34/11 100/34/11 124/34/34 123/34/22 
f 100/34/11 101/8/29 125/8/35 124/34/34 
f 101/8/29 82/8/9 126/8/23 125/8/35 
f 82/8/9 15/8/7 122/8/33 126/8/23 
f 122/8/33 121/34/32 85/34/21 84/8/20 
f 121/34/32 123/34/22 86/34/22 85/34/21 
f 123/34/22 124/34/34 103/34/30 86/34/22 
f 124/34/34 125/8/35 104/8/31 103/34/30 
f 125/8/35 126/8/23 87/8/23 104/8/31 
f 126/8/23 122/8/33 84/8/20 87/8/23 
# 106 polygons - 2 triangles

