# 3ds Max Wavefront OBJ Exporter v0.97b - (c)2007 guruware
# File Created: 24.11.2019 21:22:34

#
# object wall_flat_basic
#

v  0.0000 -4.7987 -0.0000
v  0.0000 -7.2013 -0.0000
v  0.0000 -7.2013 0.3750
v  0.0000 -4.7987 0.3750
v  0.2031 -4.7987 3.0000
v  0.2031 -2.3960 3.0000
v  0.2031 -2.3960 1.5000
v  0.2031 -4.7987 1.5000
v  0.7969 -4.7987 3.0000
v  0.7969 -2.3960 3.0000
v  0.7969 -2.3960 4.2249
v  0.7969 -4.7987 4.2249
v  0.2031 -4.7987 4.2249
v  0.2031 -2.3960 4.2249
v  0.2031 -2.3960 0.6501
v  0.2031 -4.7987 0.6501
v  1.0000 -4.7987 0.0000
v  1.0000 -2.3960 0.0000
v  1.0000 -2.3960 0.3750
v  1.0000 -4.7987 0.3750
v  0.7969 -4.7987 1.5000
v  0.7969 -2.3960 1.5000
v  1.0000 -4.7987 4.5000
v  1.0000 -2.3960 4.5000
v  1.0000 -2.3960 5.6321
v  1.0000 -4.7987 5.6321
v  0.0000 -2.3960 3.0000
v  0.0000 -2.0000 3.0000
v  0.0000 -2.0000 1.5000
v  0.0000 -2.3960 1.5000
v  1.0000 -2.3960 3.0000
v  1.0000 -2.0000 3.0000
v  1.0000 -2.0000 4.5000
v  0.0000 -2.3960 4.5000
v  0.0000 -2.0000 4.5000
v  0.0000 -2.0000 0.3750
v  0.0000 -2.3960 0.3750
v  1.0000 -2.0000 -0.0000
v  1.0000 -2.0000 0.3750
v  1.0000 -2.3960 1.5000
v  1.0000 -2.0000 1.5000
v  1.0000 -2.0000 5.6321
v  0.0000 -2.3960 -0.0000
v  0.7969 -2.3960 0.6501
v  0.7969 -4.7987 0.6501
v  0.0000 -2.0000 -0.0000
v  0.0000 -1.3333 0.3750
v  0.0000 -1.3333 -0.0000
v  0.0000 -1.3333 3.0000
v  0.0000 -1.3333 1.5000
v  0.0000 -1.3333 4.5000
v  0.0000 -2.0000 5.6321
v  0.0000 -1.3333 5.6321
v  1.0000 -1.3333 3.0000
v  1.0000 -1.3333 4.5000
v  1.0000 -1.3333 1.5000
v  1.0000 -1.3333 0.3750
v  1.0000 -1.3333 0.0000
v  0.0000 -0.6667 0.3750
v  0.0000 -0.6667 -0.0000
v  0.0000 -0.6667 3.0000
v  0.0000 -0.6667 1.5000
v  0.0000 -0.6667 4.5000
v  0.0000 -0.6667 5.6321
v  1.0000 -0.6667 3.0000
v  1.0000 -0.6667 4.5000
v  1.0000 -0.6667 1.5000
v  1.0000 -0.6667 0.3750
v  1.0000 -0.6667 0.0000
v  0.0000 0.0000 0.3750
v  0.0000 0.0000 -0.0000
v  0.0000 0.0000 3.0000
v  0.0000 0.0000 1.5000
v  0.0000 0.0000 4.5000
v  0.0000 0.0000 5.6321
v  1.0000 0.0000 3.0000
v  1.0000 0.0000 4.5000
v  1.0000 0.0000 1.5000
v  1.0000 0.0000 0.3750
v  1.0000 0.0000 0.0000
v  0.2031 -7.2013 3.0000
v  0.2031 -7.2013 4.2249
v  0.2031 -7.2013 0.6501
v  0.2031 -7.2013 1.5000
v  0.2031 -9.6040 1.5000
v  0.2031 -9.6040 3.0000
v  0.7969 -7.2013 3.0000
v  0.7969 -7.2013 4.2249
v  0.7969 -9.6040 4.2249
v  0.7969 -9.6040 3.0000
v  0.2031 -9.6040 4.2249
v  0.2031 -9.6040 0.6501
v  1.0000 -7.2013 0.0000
v  1.0000 -7.2013 0.3750
v  1.0000 -9.6040 0.3750
v  1.0000 -9.6040 0.0000
v  0.7969 -7.2013 1.5000
v  0.7969 -9.6040 1.5000
v  1.0000 -7.2013 4.5000
v  1.0000 -7.2013 5.6321
v  1.0000 -9.6040 5.6321
v  1.0000 -9.6040 4.5000
v  0.0000 -9.6040 3.0000
v  0.0000 -9.6040 1.5000
v  0.0000 -10.0000 1.5000
v  0.0000 -10.0000 3.0000
v  1.0000 -9.6040 3.0000
v  1.0000 -10.0000 4.5000
v  1.0000 -10.0000 3.0000
v  0.0000 -9.6040 4.5000
v  0.0000 -10.0000 4.5000
v  0.0000 -9.6040 0.3750
v  0.0000 -10.0000 0.3750
v  1.0000 -10.0000 0.3750
v  1.0000 -10.0000 -0.0000
v  1.0000 -9.6040 1.5000
v  1.0000 -10.0000 1.5000
v  1.0000 -10.0000 5.6321
v  0.7969 -7.2013 0.6501
v  0.0000 -9.6040 -0.0000
v  0.7969 -9.6040 0.6501
v  0.0000 -10.0000 -0.0000
v  0.0000 -10.6667 -0.0000
v  0.0000 -10.6667 0.3750
v  0.0000 -10.6667 1.5000
v  0.0000 -10.6667 3.0000
v  0.0000 -10.6667 4.5000
v  0.0000 -10.6667 5.6321
v  0.0000 -10.0000 5.6321
v  1.0000 -10.6667 4.5000
v  1.0000 -10.6667 3.0000
v  1.0000 -10.6667 1.5000
v  1.0000 -10.6667 0.3750
v  1.0000 -10.6667 0.0000
v  0.0000 -11.3333 -0.0000
v  0.0000 -11.3333 0.3750
v  0.0000 -11.3333 1.5000
v  0.0000 -11.3333 3.0000
v  0.0000 -11.3333 4.5000
v  0.0000 -11.3333 5.6321
v  1.0000 -11.3333 4.5000
v  1.0000 -11.3333 3.0000
v  1.0000 -11.3333 1.5000
v  1.0000 -11.3333 0.3750
v  1.0000 -11.3333 0.0000
v  0.0000 -12.0000 -0.0000
v  0.0000 -12.0000 0.3750
v  0.0000 -12.0000 1.5000
v  0.0000 -12.0000 3.0000
v  0.0000 -12.0000 4.5000
v  0.0000 -12.0000 5.6321
v  1.0000 -12.0000 4.5000
v  1.0000 -12.0000 3.0000
v  1.0000 -12.0000 1.5000
v  1.0000 -12.0000 0.3750
v  1.0000 -12.0000 0.0000
v  0.0000 -2.3960 5.6321
v  0.0000 -4.7987 4.5000
v  0.0000 -4.7987 5.6321
v  1.0000 -1.3333 5.6321
v  1.0000 -0.6667 5.6321
v  1.0000 0.0000 5.6321
v  0.0000 -7.2013 4.5000
v  0.0000 -7.2013 5.6321
v  0.0000 -9.6040 5.6321
v  1.0000 -10.6667 5.6321
v  1.0000 -11.3333 5.6321
v  1.0000 -12.0000 5.6321
v  0.2038 -9.6040 5.6321
v  0.2993 -7.2013 5.4170
v  0.2993 -9.6040 5.4170
v  0.7007 -9.6040 5.4170
v  0.7007 -7.2013 5.4170
v  0.7007 -4.7987 5.4170
v  0.2993 -4.7987 5.4170
v  0.2993 -2.3960 5.4170
v  0.7007 -2.3960 5.4170
v  0.7962 -2.3960 5.6321
v  0.7962 -4.7987 5.6321
v  0.2038 -4.7987 5.6321
v  0.2038 -2.3960 5.6321
v  0.2038 -7.2013 5.6321
v  0.7962 -7.2013 5.6321
v  0.7962 -9.6040 5.6321
# 184 vertices

vn -1.0000 0.0000 -0.0000
vn -0.9499 0.0000 0.3126
vn -0.7071 -0.7071 -0.0000
vn 1.0000 0.0000 -0.0000
vn 0.7071 -0.7071 -0.0000
vn 0.7274 -0.6430 -0.2394
vn 0.9499 0.0000 -0.3126
vn -0.9499 0.0000 -0.3126
vn -0.7274 -0.6430 -0.2394
vn -0.7274 -0.6430 0.2394
vn 0.9826 -0.1046 0.1534
vn 0.9499 0.0000 0.3126
vn 0.9826 -0.1046 -0.1534
vn 0.7071 0.0000 0.7071
vn -0.7071 -0.7071 0.0000
vn -0.9826 -0.1046 -0.1534
vn -0.9826 -0.1046 0.1534
vn 0.7071 -0.0000 0.7071
vn 0.7274 -0.6430 0.2394
vn -0.7071 -0.0000 0.7071
vn -0.7071 0.0000 0.7071
vn -0.7071 0.7071 -0.0000
vn -0.7071 0.7071 0.0000
vn 0.9499 -0.0000 -0.3126
vn 0.7274 0.6430 -0.2394
vn 0.7071 0.7071 -0.0000
vn -0.7274 0.6430 -0.2394
vn -0.7274 0.6430 0.2394
vn 0.9826 0.1046 0.1534
vn 0.9826 0.1046 -0.1534
vn -0.9826 0.1046 -0.1534
vn -0.9826 0.1046 0.1534
vn 0.7274 0.6430 0.2394
vn -0.9499 -0.0000 -0.3126
vn -0.0000 0.0000 1.0000
vn 0.5449 0.0000 0.8385
vn 0.4349 0.6026 0.6692
vn -0.4349 0.6026 0.6692
vn -0.5449 0.0000 0.8385
vn 0.4349 -0.6026 0.6692
vn -0.4349 -0.6026 0.6692
vn -0.2537 -0.2037 0.9456
vn 0.2537 -0.2037 0.9456
vn 0.4992 0.4008 0.7682
vn -0.4992 0.4009 0.7682
# 45 vertex normals

vt 0.0000 0.4000 0.0000
vt 0.1250 0.4000 0.0000
vt 0.5000 0.4000 0.0000
vt 0.5000 0.1000 0.0000
vt 0.2500 0.1000 0.0000
vt 0.2500 0.4000 0.0000
vt 0.7500 0.4000 0.0000
vt 0.7500 0.1000 0.0000
vt 0.1250 0.1000 0.0000
vt 1.0000 0.4000 0.0000
vt 1.0000 0.1000 0.0000
vt 0.8750 0.1000 0.0000
vt 0.8750 0.4000 0.0000
vt 0.5000 0.0000 0.0000
vt 0.2500 0.0000 0.0000
vt 0.7500 0.0000 0.0000
vt 0.1250 0.0000 0.0000
vt 1.0000 0.0000 0.0000
vt 0.8750 0.0000 0.0000
vt 0.0000 0.1000 0.0000
vt 0.0000 0.0000 0.0000
vt 0.1505 0.0000 0.0000
vt 0.1958 0.0000 0.0000
vt 0.8750 0.5000 0.0000
vt 0.2245 0.0000 0.0000
vt 0.0513 0.0000 0.0000
# 26 texture coords

o wall_flat_basic
g wall_flat_basic
f 1/1/1 2/1/1 3/2/2 4/2/2 
f 5/3/1 6/4/3 7/5/3 8/6/1 
f 9/3/4 10/4/5 11/5/6 12/6/7 
f 13/7/8 14/8/9 6/4/3 5/3/1 
f 8/6/1 7/5/3 15/9/10 16/2/2 
f 17/10/4 18/11/4 19/12/11 20/13/12 
f 21/7/4 22/8/5 10/4/5 9/3/4 
f 23/6/7 24/5/13 25/9/14 26/2/14 
f 27/4/15 28/14/1 29/15/1 30/5/3 
f 31/4/5 32/14/4 33/15/4 24/5/13 
f 34/8/16 35/16/1 28/14/1 27/4/15 
f 30/5/3 29/15/1 36/17/1 37/9/17 
f 18/11/4 38/18/4 39/19/4 19/12/11 
f 40/8/5 41/16/4 32/14/4 31/4/5 
f 24/5/13 33/15/4 42/17/18 25/9/14 
f 37/9/17 43/20/1 1/1/1 4/2/2 
f 44/12/19 22/8/5 21/7/4 45/13/12 
f 36/17/1 46/21/1 43/20/1 37/9/17 
f 39/19/4 41/16/4 40/8/5 19/12/11 
f 46/21/1 36/17/1 47/17/1 48/21/1 
f 29/15/1 28/14/1 49/14/1 50/15/1 
f 28/14/1 35/16/1 51/16/1 49/14/1 
f 35/16/1 52/19/20 53/19/21 51/16/1 
f 33/15/4 32/14/4 54/14/4 55/15/4 
f 32/14/4 41/16/4 56/16/4 54/14/4 
f 41/16/4 39/19/4 57/19/4 56/16/4 
f 36/17/1 29/15/1 50/15/1 47/17/1 
f 39/19/4 38/18/4 58/18/4 57/19/4 
f 48/21/1 47/17/1 59/17/1 60/21/1 
f 50/15/1 49/14/1 61/14/1 62/15/1 
f 49/14/1 51/16/1 63/16/1 61/14/1 
f 51/16/1 53/19/21 64/19/21 63/16/1 
f 55/15/4 54/14/4 65/14/4 66/15/4 
f 54/14/4 56/16/4 67/16/4 65/14/4 
f 56/16/4 57/19/4 68/19/4 67/16/4 
f 47/17/1 50/15/1 62/15/1 59/17/1 
f 57/19/4 58/18/4 69/18/4 68/19/4 
f 60/21/1 59/17/1 70/17/1 71/21/1 
f 62/15/1 61/14/1 72/14/1 73/15/1 
f 61/14/1 63/16/1 74/16/1 72/14/1 
f 63/16/1 64/19/21 75/19/21 74/16/1 
f 66/15/4 65/14/4 76/14/4 77/15/4 
f 65/14/4 67/16/4 78/16/4 76/14/4 
f 67/16/4 68/19/4 79/19/4 78/16/4 
f 59/17/1 62/15/1 73/15/1 70/17/1 
f 68/19/4 69/18/4 80/18/4 79/19/4 
f 13/7/8 5/3/1 81/3/1 82/7/8 
f 8/6/1 16/2/2 83/2/2 84/6/1 
f 81/3/1 84/6/1 85/5/22 86/4/23 
f 87/3/4 88/6/24 89/5/25 90/4/26 
f 82/7/8 81/3/1 86/4/23 91/8/27 
f 84/6/1 83/2/2 92/9/28 85/5/22 
f 93/10/4 94/13/12 95/12/29 96/11/4 
f 97/7/4 87/3/4 90/4/26 98/8/26 
f 99/6/24 100/2/14 101/9/14 102/5/30 
f 103/4/23 104/5/22 105/15/1 106/14/1 
f 107/4/26 102/5/30 108/15/4 109/14/4 
f 110/8/31 103/4/23 106/14/1 111/16/1 
f 104/5/22 112/9/32 113/17/1 105/15/1 
f 96/11/4 95/12/29 114/19/4 115/18/4 
f 116/8/26 107/4/26 109/14/4 117/16/4 
f 102/5/30 101/9/14 118/17/14 108/15/4 
f 119/13/12 45/13/12 21/7/4 97/7/4 
f 112/9/32 3/2/2 2/1/1 120/20/1 
f 121/12/33 119/13/12 97/7/4 98/8/26 
f 113/17/1 112/9/32 120/20/1 122/21/1 
f 114/19/4 95/12/29 116/8/26 117/16/4 
f 122/21/1 123/21/1 124/17/1 113/17/1 
f 105/15/1 125/15/1 126/14/1 106/14/1 
f 106/14/1 126/14/1 127/16/1 111/16/1 
f 111/16/1 127/16/1 128/19/21 129/19/21 
f 108/15/4 130/15/4 131/14/4 109/14/4 
f 109/14/4 131/14/4 132/16/4 117/16/4 
f 117/16/4 132/16/4 133/19/4 114/19/4 
f 113/17/1 124/17/1 125/15/1 105/15/1 
f 114/19/4 133/19/4 134/18/4 115/18/4 
f 123/21/1 135/21/1 136/17/1 124/17/1 
f 125/15/1 137/15/1 138/14/1 126/14/1 
f 126/14/1 138/14/1 139/16/1 127/16/1 
f 127/16/1 139/16/1 140/19/21 128/19/21 
f 130/15/4 141/15/4 142/14/4 131/14/4 
f 131/14/4 142/14/4 143/16/4 132/16/4 
f 132/16/4 143/16/4 144/19/4 133/19/4 
f 124/17/1 136/17/1 137/15/1 125/15/1 
f 133/19/4 144/19/4 145/18/4 134/18/4 
f 135/21/1 146/21/1 147/17/1 136/17/1 
f 137/15/1 148/15/1 149/14/1 138/14/1 
f 138/14/1 149/14/1 150/16/1 139/16/1 
f 139/16/1 150/16/1 151/19/21 140/19/21 
f 141/15/4 152/15/4 153/14/4 142/14/4 
f 142/14/4 153/14/4 154/16/4 143/16/4 
f 143/16/4 154/16/4 155/19/4 144/19/4 
f 136/17/1 147/17/1 148/15/1 137/15/1 
f 144/19/4 155/19/4 156/18/4 145/18/4 
f 5/3/1 8/6/1 84/6/1 81/3/1 
f 9/3/4 12/6/7 88/6/24 87/3/4 
f 17/10/4 20/13/12 94/13/12 93/10/4 
f 21/7/4 9/3/4 87/3/4 97/7/4 
f 100/2/14 99/6/24 23/6/7 26/2/14 
f 157/12/21 34/8/16 158/7/8 159/13/21 
f 52/19/20 35/16/1 34/8/16 157/12/21 
f 42/17/18 33/15/4 55/15/4 160/17/14 
f 160/17/14 55/15/4 66/15/4 161/17/14 
f 161/17/14 66/15/4 77/15/4 162/17/14 
f 159/13/21 158/7/8 163/7/34 164/13/21 
f 164/13/21 163/7/34 110/8/31 165/12/21 
f 165/12/21 110/8/31 111/16/1 129/19/21 
f 166/17/14 130/15/4 108/15/4 118/17/14 
f 167/17/14 141/15/4 130/15/4 166/17/14 
f 168/17/14 152/15/4 141/15/4 167/17/14 
f 140/14/21 151/19/21 168/16/14 167/16/14 
f 128/15/21 140/14/21 167/16/14 166/14/14 
f 129/18/21 128/15/21 166/14/14 118/21/14 
f 165/17/21 129/18/21 169/22/35 
f 170/21/36 171/17/37 172/15/38 173/18/39 
f 170/21/36 173/18/39 174/17/39 175/21/36 
f 176/21/40 175/21/36 174/17/39 177/15/41 
f 178/23/42 25/15/14 42/24/18 
f 53/21/21 52/20/20 42/24/18 160/18/14 
f 64/15/21 53/21/21 160/18/14 161/14/14 
f 75/14/21 64/15/21 161/14/14 162/16/14 
f 158/7/8 34/8/16 14/8/9 13/7/8 
f 34/8/16 27/4/15 6/4/3 14/8/9 
f 27/4/15 30/5/3 7/5/3 6/4/3 
f 30/5/3 37/9/17 15/9/10 7/5/3 
f 37/9/17 4/2/2 16/2/2 15/9/10 
f 4/2/2 3/2/2 83/2/2 16/2/2 
f 3/2/2 112/9/32 92/9/28 83/2/2 
f 112/9/32 104/5/22 85/5/22 92/9/28 
f 104/5/22 103/4/23 86/4/23 85/5/22 
f 103/4/23 110/8/31 91/8/27 86/4/23 
f 110/8/31 163/7/34 82/7/8 91/8/27 
f 163/7/34 158/7/8 13/7/8 82/7/8 
f 24/5/13 23/6/7 12/6/7 11/5/6 
f 23/6/7 99/6/24 88/6/24 12/6/7 
f 99/6/24 102/5/30 89/5/25 88/6/24 
f 102/5/30 107/4/26 90/4/26 89/5/25 
f 107/4/26 116/8/26 98/8/26 90/4/26 
f 116/8/26 95/12/29 121/12/33 98/8/26 
f 95/12/29 94/13/12 119/13/12 121/12/33 
f 94/13/12 20/13/12 45/13/12 119/13/12 
f 20/13/12 19/12/11 44/12/19 45/13/12 
f 19/12/11 40/8/5 22/8/5 44/12/19 
f 40/8/5 31/4/5 10/4/5 22/8/5 
f 31/4/5 24/5/13 11/5/6 10/4/5 
f 26/17/14 25/15/14 178/15/42 179/17/39 
f 157/21/21 159/21/21 180/21/36 181/21/43 
f 159/21/21 164/21/21 182/21/36 180/21/36 
f 164/21/21 165/17/21 169/17/44 182/21/36 
f 101/15/14 100/18/14 183/18/39 184/15/45 
f 100/18/14 26/17/14 179/17/39 183/18/39 
f 179/17/39 178/15/42 177/15/41 174/17/39 
f 178/15/42 181/21/43 176/21/40 177/15/41 
f 181/21/43 180/21/36 175/21/36 176/21/40 
f 180/21/36 182/21/36 170/21/36 175/21/36 
f 182/21/36 169/17/44 171/17/37 170/21/36 
f 169/17/44 184/15/45 172/15/38 171/17/37 
f 184/15/45 183/18/39 173/18/39 172/15/38 
f 183/18/39 179/17/39 174/17/39 173/18/39 
f 129/18/21 118/21/14 184/25/35 169/22/35 
f 118/21/14 101/15/14 184/25/35 
f 52/20/20 157/21/21 181/26/43 
f 42/24/18 52/20/20 181/26/43 178/23/42 
# 159 polygons - 4 triangles

