# 3ds Max Wavefront OBJ Exporter v0.97b - (c)2007 guruware
# File Created: 09.12.2019 18:59:25

#
# object enemy_CPU_shield
#

v  115.5308 97.4211 -0.0000
v  -0.0001 97.4211 -0.0000
v  -0.0001 97.4211 47.7734
v  115.5308 97.4211 47.7734
v  115.5308 90.5889 55.3387
v  115.5308 95.7130 53.4474
v  -0.0001 95.7130 53.4474
v  -0.0001 90.5889 55.3387
v  91.0192 -0.0001 48.3880
v  91.0192 79.6196 48.3880
v  -0.0001 79.6196 48.3880
v  -0.0001 -0.0001 48.3880
v  -115.5308 97.4211 -0.0000
v  -115.5308 97.4211 47.7734
v  -115.5308 90.5889 55.3387
v  -115.5308 95.7130 53.4474
v  -91.0192 -0.0001 48.3880
v  -91.0192 79.6196 48.3880
v  115.5308 -97.4212 -0.0002
v  115.5308 -97.4212 47.7734
v  -0.0001 -97.4212 47.7734
v  -0.0001 -97.4212 -0.0002
v  115.5308 -90.5891 55.3387
v  -0.0001 -90.5891 55.3387
v  -0.0001 -95.7130 53.4474
v  115.5308 -95.7130 53.4474
v  -0.0001 -79.6194 48.3880
v  91.0192 -79.6194 48.3880
v  -115.5308 -97.4212 -0.0002
v  -115.5308 -97.4212 47.7734
v  -115.5308 -90.5891 55.3387
v  -115.5308 -95.7130 53.4474
v  -91.0192 -79.6194 48.3880
v  -0.0001 81.3851 55.3387
v  92.7403 81.3851 55.3387
v  -92.7404 81.3851 55.3387
v  -115.5308 -0.0001 55.3387
v  -92.7404 -0.0001 55.3387
v  -92.7404 -81.3851 55.3387
v  -0.0001 -81.3851 55.3387
v  92.7403 -81.3851 55.3387
v  115.5308 -0.0001 55.3387
v  92.7403 -0.0001 55.3387
v  -126.9639 -96.5632 60.4779
v  -103.0973 -96.5632 60.4779
v  -103.0973 96.5634 60.4781
v  -126.9639 96.5634 60.4781
v  -126.9639 -105.4438 -0.0002
v  -103.0973 -105.4438 -0.0002
v  -103.0973 -105.4438 50.6445
v  -126.9639 -105.4438 50.6445
v  -103.0973 105.4438 -0.0002
v  -103.0973 105.4438 50.6447
v  -126.9639 105.4438 -0.0002
v  -126.9639 105.4438 50.6447
v  126.9639 -96.5632 60.4779
v  126.9639 96.5634 60.4781
v  103.0973 96.5634 60.4781
v  103.0973 -96.5632 60.4779
v  126.9639 -105.4438 -0.0002
v  126.9639 -105.4438 50.6445
v  103.0973 -105.4438 50.6445
v  103.0973 -105.4438 -0.0002
v  103.0973 105.4438 50.6447
v  103.0973 105.4438 -0.0002
v  126.9639 105.4438 50.6447
v  126.9639 105.4438 -0.0002
# 67 vertices

vn 0.0000 1.0000 -0.0000
vn 0.0000 0.9893 0.1457
vn 0.0000 0.1759 0.9844
vn 0.0000 0.7284 0.6852
vn -0.6163 -0.0000 0.7875
vn -0.5044 -0.5019 0.7027
vn 0.0000 -0.6139 0.7894
vn 0.0000 -0.0000 1.0000
vn 0.6162 -0.0000 0.7876
vn 0.5044 -0.5019 0.7027
vn 0.0000 -1.0000 -0.0000
vn 0.0000 -0.9893 0.1457
vn 0.0000 -0.1759 0.9844
vn 0.0000 -0.7284 0.6851
vn 0.0000 0.6139 0.7894
vn -0.5044 0.5019 0.7027
vn 0.5044 0.5019 0.7027
vn -0.2278 -0.2285 0.9465
vn 0.2278 -0.2285 0.9465
vn 0.0000 0.0000 1.0000
vn 0.6162 0.0000 0.7876
vn 0.2278 0.2285 0.9465
vn -0.2278 0.2285 0.9465
vn -0.6163 0.0000 0.7875
vn -0.6261 -0.3166 0.7126
vn 0.6261 -0.3166 0.7126
vn 0.6261 0.3166 0.7126
vn -0.6261 0.3166 0.7126
vn -0.7071 -0.7071 -0.0000
vn 0.7071 -0.7071 -0.0000
vn 0.6345 -0.7214 0.2775
vn -0.6345 -0.7214 0.2775
vn 0.7071 0.7071 -0.0000
vn 0.6345 0.7214 0.2775
vn -0.7071 0.7071 -0.0000
vn -0.6345 0.7214 0.2775
# 36 vertex normals

vt 0.2646 0.3538 0.0000
vt 0.1329 0.3538 0.0000
vt 0.1329 0.2961 0.0000
vt 0.2646 0.2961 0.0000
vt 0.2646 0.2823 0.0000
vt 0.2646 0.2890 0.0000
vt 0.1329 0.2890 0.0000
vt 0.1329 0.2823 0.0000
vt 0.2349 0.1775 0.0000
vt 0.2349 0.2668 0.0000
vt 0.1329 0.2668 0.0000
vt 0.1329 0.1775 0.0000
vt 0.0013 0.3538 0.0000
vt 0.0013 0.2961 0.0000
vt 0.0013 0.2823 0.0000
vt 0.0013 0.2890 0.0000
vt 0.0310 0.1775 0.0000
vt 0.0310 0.2668 0.0000
vt 0.2646 0.0013 0.0000
vt 0.2646 0.0590 0.0000
vt 0.1329 0.0590 0.0000
vt 0.1329 0.0013 0.0000
vt 0.2646 0.0728 0.0000
vt 0.1329 0.0728 0.0000
vt 0.1329 0.0660 0.0000
vt 0.2646 0.0660 0.0000
vt 0.1329 0.0883 0.0000
vt 0.2349 0.0883 0.0000
vt 0.0013 0.0013 0.0000
vt 0.0013 0.0590 0.0000
vt 0.0013 0.0728 0.0000
vt 0.0013 0.0660 0.0000
vt 0.0310 0.0883 0.0000
vt 0.1329 0.2720 0.0000
vt 0.2399 0.2720 0.0000
vt 0.0260 0.2720 0.0000
vt 0.0013 0.1775 0.0000
vt 0.0260 0.1775 0.0000
vt 0.0260 0.0830 0.0000
vt 0.1329 0.0830 0.0000
vt 0.2399 0.0830 0.0000
vt 0.2646 0.1775 0.0000
vt 0.2399 0.1775 0.0000
vt 0.2579 0.4257 0.0000
vt 0.2579 0.4528 0.0000
vt 0.0385 0.4528 0.0000
vt 0.0385 0.4257 0.0000
vt 0.2680 0.3569 0.0000
vt 0.2952 0.3569 0.0000
vt 0.2952 0.4145 0.0000
vt 0.2680 0.4145 0.0000
vt 0.2680 0.5215 0.0000
vt 0.0284 0.5215 0.0000
vt 0.0284 0.4639 0.0000
vt 0.2680 0.4639 0.0000
vt 0.0013 0.3569 0.0000
vt 0.0284 0.3569 0.0000
vt 0.0284 0.4145 0.0000
vt 0.0013 0.4145 0.0000
vt 0.2730 0.4257 0.0000
vt 0.2730 0.4528 0.0000
vt 0.0234 0.4528 0.0000
vt 0.0234 0.4257 0.0000
# 63 texture coords

o enemy_CPU_shield
g enemy_CPU_shield
f 1/1/1 2/2/1 3/3/2 4/4/2 
f 5/5/3 6/6/4 7/7/4 8/8/3 
f 6/6/4 4/4/2 3/3/2 7/7/4 
f 9/9/5 10/10/6 11/11/7 12/12/8 
f 13/13/1 14/14/2 3/3/2 2/2/1 
f 15/15/3 8/8/3 7/7/4 16/16/4 
f 16/16/4 7/7/4 3/3/2 14/14/2 
f 17/17/9 12/12/8 11/11/7 18/18/10 
f 19/19/11 20/20/12 21/21/12 22/22/11 
f 23/23/13 24/24/13 25/25/14 26/26/14 
f 26/26/14 25/25/14 21/21/12 20/20/12 
f 9/9/5 12/12/8 27/27/15 28/28/16 
f 29/29/11 22/22/11 21/21/12 30/30/12 
f 31/31/13 32/32/14 25/25/14 24/24/13 
f 32/32/14 30/30/12 21/21/12 25/25/14 
f 17/17/9 33/33/17 27/27/15 12/12/8 
f 5/5/3 8/8/3 34/34/7 35/35/18 
f 8/8/3 15/15/3 36/36/19 34/34/7 
f 15/15/3 37/37/20 38/38/21 36/36/19 
f 37/37/20 31/31/13 39/39/22 38/38/21 
f 31/31/13 24/24/13 40/40/15 39/39/22 
f 24/24/13 23/23/13 41/41/23 40/40/15 
f 23/23/13 42/42/20 43/43/24 41/41/23 
f 42/42/20 5/5/3 35/35/18 43/43/24 
f 35/35/18 34/34/7 11/11/7 10/10/6 
f 34/34/7 36/36/19 18/18/10 11/11/7 
f 36/36/19 38/38/21 17/17/9 18/18/10 
f 38/38/21 39/39/22 33/33/17 17/17/9 
f 39/39/22 40/40/15 27/27/15 33/33/17 
f 40/40/15 41/41/23 28/28/16 27/27/15 
f 41/41/23 43/43/24 9/9/5 28/28/16 
f 43/43/24 35/35/18 10/10/6 9/9/5 
f 44/44/25 45/45/26 46/46/27 47/47/28 
f 48/48/29 49/49/30 50/50/31 51/51/32 
f 49/52/30 52/53/33 53/54/34 50/55/31 
f 52/56/33 54/57/35 55/58/36 53/59/34 
f 54/57/35 48/48/29 51/51/32 55/58/36 
f 44/44/25 51/60/32 50/61/31 45/45/26 
f 46/46/27 53/62/34 55/63/36 47/47/28 
f 51/51/32 44/44/25 47/47/28 55/58/36 
f 53/54/34 46/46/27 45/45/26 50/55/31 
f 56/44/26 57/47/27 58/46/28 59/45/25 
f 60/48/30 61/51/31 62/50/32 63/49/29 
f 63/52/29 62/55/32 64/54/36 65/53/35 
f 65/56/35 64/59/36 66/58/34 67/57/33 
f 67/57/33 66/58/34 61/51/31 60/48/30 
f 56/44/26 59/45/25 62/61/32 61/60/31 
f 58/46/28 57/47/27 66/63/34 64/62/36 
f 61/51/31 66/58/34 57/47/27 56/44/26 
f 64/54/36 62/55/32 59/45/25 58/46/28 
# 50 polygons

