# 3ds Max Wavefront OBJ Exporter v0.97b - (c)2007 guruware
# File Created: 07.12.2019 17:16:11

#
# object sidewalls_blank
#

v  -0.0000 7.2013 -0.0000
v  -0.0000 4.7987 -0.0000
v  -0.0000 4.7987 0.3750
v  -0.0000 7.2013 0.3750
v  0.2031 7.2013 3.0000
v  0.2031 9.6040 3.0000
v  0.2031 9.6040 1.5000
v  0.2031 7.2013 1.5000
v  0.2031 7.2013 4.2249
v  0.2031 9.6040 4.2249
v  0.2031 9.6040 0.6501
v  0.2031 7.2013 0.6501
v  -0.0000 9.6040 3.0000
v  -0.0000 10.0000 3.0000
v  -0.0000 10.0000 1.5000
v  -0.0000 9.6040 1.5000
v  -0.0000 9.6040 4.5000
v  -0.0000 10.0000 4.5000
v  -0.0000 10.0000 0.3750
v  -0.0000 9.6040 0.3750
v  -0.0000 9.6040 -0.0000
v  -0.0000 10.0000 -0.0000
v  -0.0000 10.6667 0.3750
v  -0.0000 10.6667 -0.0000
v  -0.0000 10.6667 3.0000
v  -0.0000 10.6667 1.5000
v  -0.0000 10.6667 4.5000
v  -0.0000 10.0000 5.6321
v  -0.0000 10.6667 5.6321
v  -0.0000 11.3333 0.3750
v  -0.0000 11.3333 -0.0000
v  -0.0000 11.3333 3.0000
v  -0.0000 11.3333 1.5000
v  -0.0000 11.3333 4.5000
v  -0.0000 11.3333 5.6321
v  -0.0000 12.0000 0.3750
v  -0.0000 12.0000 -0.0000
v  -0.0000 12.0000 3.0000
v  -0.0000 12.0000 1.5000
v  -0.0000 12.0000 4.5000
v  -0.0000 12.0000 5.6321
v  0.2031 4.7987 3.0000
v  0.2031 4.7987 4.2249
v  0.2031 4.7987 0.6501
v  0.2031 4.7987 1.5000
v  0.2031 2.3960 1.5000
v  0.2031 2.3960 3.0000
v  0.2031 2.3960 4.2249
v  0.2031 2.3960 0.6501
v  -0.0000 2.3960 3.0000
v  -0.0000 2.3960 1.5000
v  -0.0000 2.0000 1.5000
v  -0.0000 2.0000 3.0000
v  -0.0000 2.3960 4.5000
v  -0.0000 2.0000 4.5000
v  -0.0000 2.3960 0.3750
v  -0.0000 2.0000 0.3750
v  -0.0000 2.3960 -0.0000
v  -0.0000 2.0000 -0.0000
v  -0.0000 1.3333 -0.0000
v  -0.0000 1.3333 0.3750
v  -0.0000 1.3333 1.5000
v  -0.0000 1.3333 3.0000
v  -0.0000 1.3333 4.5000
v  -0.0000 1.3333 5.6321
v  -0.0000 2.0000 5.6321
v  -0.0000 0.6667 -0.0000
v  -0.0000 0.6667 0.3750
v  -0.0000 0.6667 1.5000
v  -0.0000 0.6667 3.0000
v  -0.0000 0.6667 4.5000
v  -0.0000 0.6667 5.6321
v  -0.0000 0.0000 -0.0000
v  -0.0000 0.0000 0.3750
v  -0.0000 0.0000 1.5000
v  -0.0000 0.0000 3.0000
v  -0.0000 0.0000 4.5000
v  -0.0000 0.0000 5.6321
v  -0.0000 9.6040 5.6321
v  -0.0000 7.2013 4.5000
v  -0.0000 7.2013 5.6321
v  -0.0000 4.7987 4.5000
v  -0.0000 4.7987 5.6321
v  -0.0000 2.3960 5.6321
v  0.5000 0.0000 5.6321
v  0.5000 0.6667 5.6321
v  0.5000 1.3333 5.6321
v  0.5000 2.0000 5.6321
v  0.2038 2.3960 5.6321
v  0.2994 4.7987 5.4170
v  0.2994 2.3960 5.4170
v  0.5000 2.3960 5.4170
v  0.5000 4.7987 5.4170
v  0.5000 7.2013 5.4170
v  0.2994 7.2013 5.4170
v  0.2994 9.6040 5.4170
v  0.5000 9.6040 5.4170
v  0.5000 10.0000 5.6321
v  0.5000 10.6667 5.6321
v  0.5000 11.3333 5.6321
v  0.5000 12.0000 5.6321
v  0.2038 7.2013 5.6321
v  0.2038 9.6040 5.6321
v  0.2038 4.7987 5.6321
v  0.5000 2.3960 5.6321
v  0.5000 9.6040 5.6321
v  1.0000 7.2013 -0.0000
v  1.0000 7.2013 0.3750
v  1.0000 4.7987 0.3750
v  1.0000 4.7987 -0.0000
v  0.7969 7.2013 3.0000
v  0.7969 7.2013 1.5000
v  0.7969 9.6040 1.5000
v  0.7969 9.6040 3.0000
v  0.7969 7.2013 4.2249
v  0.7969 9.6040 4.2249
v  0.7969 7.2013 0.6501
v  0.7969 9.6040 0.6501
v  1.0000 9.6040 3.0000
v  1.0000 9.6040 1.5000
v  1.0000 10.0000 1.5000
v  1.0000 10.0000 3.0000
v  1.0000 9.6040 4.5000
v  1.0000 10.0000 4.5000
v  1.0000 9.6040 0.3750
v  1.0000 10.0000 0.3750
v  1.0000 9.6040 -0.0000
v  1.0000 10.0000 -0.0000
v  1.0000 10.6667 -0.0000
v  1.0000 10.6667 0.3750
v  1.0000 10.6667 1.5000
v  1.0000 10.6667 3.0000
v  1.0000 10.6667 4.5000
v  1.0000 10.6667 5.6321
v  1.0000 10.0000 5.6321
v  1.0000 11.3333 -0.0000
v  1.0000 11.3333 0.3750
v  1.0000 11.3333 1.5000
v  1.0000 11.3333 3.0000
v  1.0000 11.3333 4.5000
v  1.0000 11.3333 5.6321
v  1.0000 12.0000 -0.0000
v  1.0000 12.0000 0.3750
v  1.0000 12.0000 1.5000
v  1.0000 12.0000 3.0000
v  1.0000 12.0000 4.5000
v  1.0000 12.0000 5.6321
v  0.7969 4.7987 4.2249
v  0.7969 4.7987 3.0000
v  0.7969 4.7987 1.5000
v  0.7969 4.7987 0.6501
v  0.7969 2.3960 3.0000
v  0.7969 2.3960 1.5000
v  0.7969 2.3960 4.2249
v  0.7969 2.3960 0.6501
v  1.0000 2.3960 3.0000
v  1.0000 2.0000 3.0000
v  1.0000 2.0000 1.5000
v  1.0000 2.3960 1.5000
v  1.0000 2.3960 4.5000
v  1.0000 2.0000 4.5000
v  1.0000 2.0000 0.3750
v  1.0000 2.3960 0.3750
v  1.0000 2.3960 -0.0000
v  1.0000 2.0000 -0.0000
v  1.0000 1.3333 0.3750
v  1.0000 1.3333 -0.0000
v  1.0000 1.3333 3.0000
v  1.0000 1.3333 1.5000
v  1.0000 1.3333 4.5000
v  1.0000 2.0000 5.6321
v  1.0000 1.3333 5.6321
v  1.0000 0.6667 0.3750
v  1.0000 0.6667 -0.0000
v  1.0000 0.6667 3.0000
v  1.0000 0.6667 1.5000
v  1.0000 0.6667 4.5000
v  1.0000 0.6667 5.6321
v  1.0000 0.0000 0.3750
v  1.0000 0.0000 -0.0000
v  1.0000 0.0000 3.0000
v  1.0000 0.0000 1.5000
v  1.0000 0.0000 4.5000
v  1.0000 0.0000 5.6321
v  1.0000 9.6040 5.6321
v  1.0000 7.2013 5.6321
v  1.0000 7.2013 4.5000
v  1.0000 4.7987 5.6321
v  1.0000 4.7987 4.5000
v  1.0000 2.3960 5.6321
v  0.7962 2.3960 5.6321
v  0.7006 4.7987 5.4170
v  0.7006 2.3960 5.4170
v  0.7006 7.2013 5.4170
v  0.7006 9.6040 5.4170
v  0.7962 9.6040 5.6321
v  0.7962 7.2013 5.6321
v  0.7962 4.7987 5.6321
v  0.5000 12.0000 0.3750
v  0.5000 12.0000 -0.0000
v  0.5000 12.0000 3.0000
v  0.5000 12.0000 1.5000
v  0.5000 12.0000 4.5000
v  0.5000 0.0000 -0.0000
v  0.5000 0.0000 0.3750
v  0.5000 0.0000 1.5000
v  0.5000 0.0000 3.0000
v  0.5000 0.0000 4.5000
# 208 vertices

vn -1.0000 0.0000 -0.0000
vn -0.9499 0.0000 0.3126
vn -0.7071 -0.7071 -0.0000
vn -0.9499 0.0000 -0.3126
vn -0.7274 -0.6430 -0.2394
vn -0.7274 -0.6430 0.2394
vn -0.9826 -0.1046 -0.1534
vn -0.9826 -0.1046 0.1534
vn -0.7071 0.0000 0.7071
vn -0.7071 0.7071 -0.0000
vn -0.7274 0.6430 -0.2394
vn -0.7274 0.6430 0.2394
vn -0.9826 0.1046 -0.1534
vn -0.9826 0.1046 0.1534
vn 0.0000 0.0000 1.0000
vn 0.2537 0.2037 0.9456
vn 0.5449 0.0000 0.8385
vn 0.4349 0.6026 0.6692
vn 0.0000 0.7071 0.7071
vn 0.4349 -0.6026 0.6692
vn 0.0000 -0.7071 0.7071
vn 0.2537 -0.2037 0.9456
vn 1.0000 0.0000 -0.0000
vn 0.9499 0.0000 0.3126
vn 0.7071 -0.7071 -0.0000
vn 0.9499 0.0000 -0.3126
vn 0.7274 -0.6430 -0.2394
vn 0.7274 -0.6430 0.2394
vn 0.9826 -0.1046 -0.1534
vn 0.9826 -0.1046 0.1534
vn 0.7071 0.0000 0.7071
vn 1.0000 -0.0000 -0.0000
vn 0.7071 -0.0000 0.7071
vn 0.7071 0.7071 -0.0000
vn 0.7274 0.6430 -0.2394
vn 0.7274 0.6430 0.2394
vn 0.9826 0.1046 -0.1534
vn 0.9826 0.1046 0.1534
vn -0.2537 0.2037 0.9456
vn -0.5449 0.0000 0.8385
vn -0.4349 0.6026 0.6692
vn -0.4349 -0.6026 0.6692
vn -0.2537 -0.2037 0.9456
vn 0.0000 1.0000 -0.0000
vn 0.0000 -1.0000 -0.0000
# 45 vertex normals

vt 0.2500 0.8211 0.0000
vt 0.2500 0.7374 0.0000
vt 0.2621 0.7377 0.0000
vt 0.2621 0.8208 0.0000
vt 0.3536 0.8201 0.0000
vt 0.3534 0.9019 0.0000
vt 0.3023 0.9019 0.0000
vt 0.3024 0.8201 0.0000
vt 0.3955 0.8204 0.0000
vt 0.3948 0.9018 0.0000
vt 0.2737 0.9018 0.0000
vt 0.2735 0.8204 0.0000
vt 0.3535 0.9083 0.0000
vt 0.3535 0.9212 0.0000
vt 0.3018 0.9211 0.0000
vt 0.3021 0.9082 0.0000
vt 0.4052 0.9047 0.0000
vt 0.4052 0.9191 0.0000
vt 0.2631 0.9192 0.0000
vt 0.2632 0.9049 0.0000
vt 0.2500 0.9046 0.0000
vt 0.2500 0.9190 0.0000
vt 0.2629 0.9426 0.0000
vt 0.2500 0.9425 0.0000
vt 0.3535 0.9437 0.0000
vt 0.3017 0.9435 0.0000
vt 0.4052 0.9425 0.0000
vt 0.4441 0.9188 0.0000
vt 0.4440 0.9424 0.0000
vt 0.2629 0.9657 0.0000
vt 0.2500 0.9657 0.0000
vt 0.3535 0.9662 0.0000
vt 0.3017 0.9662 0.0000
vt 0.4051 0.9657 0.0000
vt 0.4440 0.9656 0.0000
vt 0.2629 0.9887 0.0000
vt 0.2500 0.9887 0.0000
vt 0.3535 0.9887 0.0000
vt 0.3017 0.9887 0.0000
vt 0.4052 0.9887 0.0000
vt 0.4441 0.9887 0.0000
vt 0.3536 0.7384 0.0000
vt 0.3955 0.7381 0.0000
vt 0.2735 0.7381 0.0000
vt 0.3024 0.7384 0.0000
vt 0.3023 0.6566 0.0000
vt 0.3534 0.6566 0.0000
vt 0.3948 0.6568 0.0000
vt 0.2737 0.6567 0.0000
vt 0.3535 0.6503 0.0000
vt 0.3021 0.6503 0.0000
vt 0.3018 0.6374 0.0000
vt 0.3535 0.6373 0.0000
vt 0.4052 0.6538 0.0000
vt 0.4052 0.6394 0.0000
vt 0.2632 0.6536 0.0000
vt 0.2631 0.6393 0.0000
vt 0.2500 0.6539 0.0000
vt 0.2500 0.6395 0.0000
vt 0.2500 0.6160 0.0000
vt 0.2629 0.6159 0.0000
vt 0.3017 0.6150 0.0000
vt 0.3535 0.6149 0.0000
vt 0.4052 0.6160 0.0000
vt 0.4440 0.6161 0.0000
vt 0.4441 0.6397 0.0000
vt 0.2500 0.5929 0.0000
vt 0.2629 0.5928 0.0000
vt 0.3017 0.5924 0.0000
vt 0.3535 0.5923 0.0000
vt 0.4051 0.5928 0.0000
vt 0.4440 0.5929 0.0000
vt 0.2500 0.5698 0.0000
vt 0.2629 0.5698 0.0000
vt 0.3017 0.5698 0.0000
vt 0.3535 0.5698 0.0000
vt 0.4052 0.5698 0.0000
vt 0.4441 0.5698 0.0000
vt 0.4444 0.9044 0.0000
vt 0.4070 0.8208 0.0000
vt 0.4457 0.8211 0.0000
vt 0.4070 0.7378 0.0000
vt 0.4457 0.7375 0.0000
vt 0.4444 0.6541 0.0000
vt 0.4613 0.5698 0.0000
vt 0.4613 0.5929 0.0000
vt 0.4613 0.6159 0.0000
vt 0.4613 0.6385 0.0000
vt 0.4518 0.6540 0.0000
vt 0.4607 0.7381 0.0000
vt 0.4587 0.6567 0.0000
vt 0.4650 0.6559 0.0000
vt 0.4677 0.7382 0.0000
vt 0.4677 0.8203 0.0000
vt 0.4607 0.8204 0.0000
vt 0.4587 0.9018 0.0000
vt 0.4650 0.9026 0.0000
vt 0.4613 0.9200 0.0000
vt 0.4613 0.9426 0.0000
vt 0.4613 0.9656 0.0000
vt 0.4613 0.9887 0.0000
vt 0.4527 0.8208 0.0000
vt 0.4518 0.9046 0.0000
vt 0.4527 0.7377 0.0000
vt 0.4613 0.6504 0.0000
vt 0.4613 0.9081 0.0000
vt 1.2500 0.8211 0.0000
vt 1.2621 0.8208 0.0000
vt 1.2621 0.7377 0.0000
vt 1.2500 0.7374 0.0000
vt 1.3536 0.8201 0.0000
vt 1.3024 0.8201 0.0000
vt 1.3023 0.9019 0.0000
vt 1.3534 0.9019 0.0000
vt 1.3955 0.8204 0.0000
vt 1.3948 0.9018 0.0000
vt 1.2735 0.8204 0.0000
vt 1.2737 0.9018 0.0000
vt 1.3535 0.9083 0.0000
vt 1.3021 0.9082 0.0000
vt 1.3018 0.9211 0.0000
vt 1.3535 0.9212 0.0000
vt 1.4052 0.9047 0.0000
vt 1.4052 0.9191 0.0000
vt 1.2632 0.9049 0.0000
vt 1.2631 0.9192 0.0000
vt 1.2500 0.9046 0.0000
vt 1.2500 0.9190 0.0000
vt 1.2500 0.9425 0.0000
vt 1.2629 0.9426 0.0000
vt 1.3017 0.9435 0.0000
vt 1.3535 0.9437 0.0000
vt 1.4052 0.9425 0.0000
vt 1.4440 0.9424 0.0000
vt 1.4441 0.9188 0.0000
vt 1.2500 0.9657 0.0000
vt 1.2629 0.9657 0.0000
vt 1.3017 0.9662 0.0000
vt 1.3535 0.9662 0.0000
vt 1.4051 0.9657 0.0000
vt 1.4440 0.9656 0.0000
vt 1.2500 0.9887 0.0000
vt 1.2629 0.9887 0.0000
vt 1.3017 0.9887 0.0000
vt 1.3535 0.9887 0.0000
vt 1.4052 0.9887 0.0000
vt 1.4441 0.9887 0.0000
vt 1.3955 0.7381 0.0000
vt 1.3536 0.7384 0.0000
vt 1.3024 0.7384 0.0000
vt 1.2735 0.7381 0.0000
vt 1.3534 0.6566 0.0000
vt 1.3023 0.6566 0.0000
vt 1.3948 0.6568 0.0000
vt 1.2737 0.6567 0.0000
vt 1.3535 0.6503 0.0000
vt 1.3535 0.6373 0.0000
vt 1.3018 0.6374 0.0000
vt 1.3021 0.6503 0.0000
vt 1.4052 0.6538 0.0000
vt 1.4052 0.6394 0.0000
vt 1.2631 0.6393 0.0000
vt 1.2632 0.6536 0.0000
vt 1.2500 0.6539 0.0000
vt 1.2500 0.6395 0.0000
vt 1.2629 0.6159 0.0000
vt 1.2500 0.6160 0.0000
vt 1.3535 0.6149 0.0000
vt 1.3017 0.6150 0.0000
vt 1.4052 0.6160 0.0000
vt 1.4441 0.6397 0.0000
vt 1.4440 0.6161 0.0000
vt 1.2629 0.5928 0.0000
vt 1.2500 0.5929 0.0000
vt 1.3535 0.5923 0.0000
vt 1.3017 0.5924 0.0000
vt 1.4051 0.5928 0.0000
vt 1.4440 0.5929 0.0000
vt 1.2629 0.5698 0.0000
vt 1.2500 0.5698 0.0000
vt 1.3535 0.5698 0.0000
vt 1.3017 0.5698 0.0000
vt 1.4052 0.5698 0.0000
vt 1.4441 0.5698 0.0000
vt 1.4444 0.9044 0.0000
vt 1.4457 0.8211 0.0000
vt 1.4070 0.8208 0.0000
vt 1.4457 0.7375 0.0000
vt 1.4070 0.7378 0.0000
vt 1.4444 0.6541 0.0000
vt 1.4613 0.5929 0.0000
vt 1.4613 0.5698 0.0000
vt 1.4613 0.6159 0.0000
vt 1.4613 0.6385 0.0000
vt 1.4518 0.6540 0.0000
vt 1.4607 0.7381 0.0000
vt 1.4677 0.7382 0.0000
vt 1.4650 0.6559 0.0000
vt 1.4587 0.6567 0.0000
vt 1.4607 0.8204 0.0000
vt 1.4677 0.8203 0.0000
vt 1.4587 0.9018 0.0000
vt 1.4650 0.9026 0.0000
vt 1.4613 0.9426 0.0000
vt 1.4613 0.9200 0.0000
vt 1.4613 0.9656 0.0000
vt 1.4613 0.9887 0.0000
vt 1.4518 0.9046 0.0000
vt 1.4527 0.8208 0.0000
vt 1.4527 0.7377 0.0000
vt 1.4613 0.6504 0.0000
vt 1.4613 0.9081 0.0000
# 212 texture coords

o sidewalls_blank
g sidewalls_blank
f 1/1/1 2/2/1 3/3/2 4/4/2 
f 5/5/1 6/6/3 7/7/3 8/8/1 
f 9/9/4 10/10/5 6/6/3 5/5/1 
f 8/8/1 7/7/3 11/11/6 12/12/2 
f 13/13/3 14/14/1 15/15/1 16/16/3 
f 17/17/7 18/18/1 14/14/1 13/13/3 
f 16/16/3 15/15/1 19/19/1 20/20/8 
f 20/20/8 21/21/1 1/1/1 4/4/2 
f 19/19/1 22/22/1 21/21/1 20/20/8 
f 22/22/1 19/19/1 23/23/1 24/24/1 
f 15/15/1 14/14/1 25/25/1 26/26/1 
f 14/14/1 18/18/1 27/27/1 25/25/1 
f 18/18/1 28/28/9 29/29/9 27/27/1 
f 19/19/1 15/15/1 26/26/1 23/23/1 
f 24/24/1 23/23/1 30/30/1 31/31/1 
f 26/26/1 25/25/1 32/32/1 33/33/1 
f 25/25/1 27/27/1 34/34/1 32/32/1 
f 27/27/1 29/29/9 35/35/9 34/34/1 
f 23/23/1 26/26/1 33/33/1 30/30/1 
f 31/31/1 30/30/1 36/36/1 37/37/1 
f 33/33/1 32/32/1 38/38/1 39/39/1 
f 32/32/1 34/34/1 40/40/1 38/38/1 
f 34/34/1 35/35/9 41/41/9 40/40/1 
f 30/30/1 33/33/1 39/39/1 36/36/1 
f 9/9/4 5/5/1 42/42/1 43/43/4 
f 8/8/1 12/12/2 44/44/2 45/45/1 
f 42/42/1 45/45/1 46/46/10 47/47/10 
f 43/43/4 42/42/1 47/47/10 48/48/11 
f 45/45/1 44/44/2 49/49/12 46/46/10 
f 50/50/10 51/51/10 52/52/1 53/53/1 
f 54/54/13 50/50/10 53/53/1 55/55/1 
f 51/51/10 56/56/14 57/57/1 52/52/1 
f 56/56/14 3/3/2 2/2/1 58/58/1 
f 57/57/1 56/56/14 58/58/1 59/59/1 
f 59/59/1 60/60/1 61/61/1 57/57/1 
f 52/52/1 62/62/1 63/63/1 53/53/1 
f 53/53/1 63/63/1 64/64/1 55/55/1 
f 55/55/1 64/64/1 65/65/9 66/66/9 
f 57/57/1 61/61/1 62/62/1 52/52/1 
f 60/60/1 67/67/1 68/68/1 61/61/1 
f 62/62/1 69/69/1 70/70/1 63/63/1 
f 63/63/1 70/70/1 71/71/1 64/64/1 
f 64/64/1 71/71/1 72/72/9 65/65/9 
f 61/61/1 68/68/1 69/69/1 62/62/1 
f 67/67/1 73/73/1 74/74/1 68/68/1 
f 69/69/1 75/75/1 76/76/1 70/70/1 
f 70/70/1 76/76/1 77/77/1 71/71/1 
f 71/71/1 77/77/1 78/78/9 72/72/9 
f 68/68/1 74/74/1 75/75/1 69/69/1 
f 5/5/1 8/8/1 45/45/1 42/42/1 
f 79/79/9 17/17/7 80/80/4 81/81/9 
f 28/28/9 18/18/1 17/17/7 79/79/9 
f 81/81/9 80/80/4 82/82/4 83/83/9 
f 83/83/9 82/82/4 54/54/13 84/84/9 
f 84/84/9 54/54/13 55/55/1 66/66/9 
f 72/72/9 78/78/9 85/85/15 86/86/15 
f 65/65/9 72/72/9 86/86/15 87/87/15 
f 66/66/9 65/65/9 87/87/15 88/88/15 
f 84/84/9 66/66/9 89/89/16 
f 90/90/17 91/91/18 92/92/19 93/93/15 
f 90/90/17 93/93/15 94/94/15 95/95/17 
f 96/96/20 95/95/17 94/94/15 97/97/21 
f 29/29/9 28/28/9 98/98/15 99/99/15 
f 35/35/9 29/29/9 99/99/15 100/100/15 
f 41/41/9 35/35/9 100/100/15 101/101/15 
f 80/80/4 17/17/7 10/10/5 9/9/4 
f 17/17/7 13/13/3 6/6/3 10/10/5 
f 13/13/3 16/16/3 7/7/3 6/6/3 
f 16/16/3 20/20/8 11/11/6 7/7/3 
f 20/20/8 4/4/2 12/12/2 11/11/6 
f 4/4/2 3/3/2 44/44/2 12/12/2 
f 3/3/2 56/56/14 49/49/12 44/44/2 
f 56/56/14 51/51/10 46/46/10 49/49/12 
f 51/51/10 50/50/10 47/47/10 46/46/10 
f 50/50/10 54/54/13 48/48/11 47/47/10 
f 54/54/13 82/82/4 43/43/4 48/48/11 
f 82/82/4 80/80/4 9/9/4 43/43/4 
f 79/79/9 81/81/9 102/102/17 103/103/22 
f 81/81/9 83/83/9 104/104/17 102/102/17 
f 83/83/9 84/84/9 89/89/16 104/104/17 
f 103/103/22 102/102/17 95/95/17 96/96/20 
f 102/102/17 104/104/17 90/90/17 95/95/17 
f 104/104/17 89/89/16 91/91/18 90/90/17 
f 89/89/16 105/105/19 92/92/19 91/91/18 
f 66/66/9 88/88/15 105/105/19 89/89/16 
f 28/28/9 79/79/9 103/103/22 
f 106/106/21 103/103/22 96/96/20 97/97/21 
f 98/98/15 28/28/9 103/103/22 106/106/21 
f 107/107/23 108/108/24 109/109/24 110/110/23 
f 111/111/23 112/112/23 113/113/25 114/114/25 
f 115/115/26 111/111/23 114/114/25 116/116/27 
f 112/112/23 117/117/24 118/118/28 113/113/25 
f 119/119/25 120/120/25 121/121/23 122/122/23 
f 123/123/29 119/119/25 122/122/23 124/124/23 
f 120/120/25 125/125/30 126/126/23 121/121/23 
f 125/125/30 108/108/24 107/107/23 127/127/23 
f 126/126/23 125/125/30 127/127/23 128/128/23 
f 128/128/23 129/129/23 130/130/23 126/126/23 
f 121/121/23 131/131/23 132/132/23 122/122/23 
f 122/122/23 132/132/23 133/133/23 124/124/23 
f 124/124/23 133/133/23 134/134/31 135/135/31 
f 126/126/23 130/130/23 131/131/23 121/121/23 
f 129/129/23 136/136/32 137/137/32 130/130/23 
f 131/131/23 138/138/32 139/139/32 132/132/23 
f 132/132/23 139/139/32 140/140/32 133/133/23 
f 133/133/23 140/140/32 141/141/33 134/134/31 
f 130/130/23 137/137/32 138/138/32 131/131/23 
f 136/136/32 142/142/32 143/143/32 137/137/32 
f 138/138/32 144/144/32 145/145/32 139/139/32 
f 139/139/32 145/145/32 146/146/32 140/140/32 
f 140/140/32 146/146/32 147/147/33 141/141/33 
f 137/137/32 143/143/32 144/144/32 138/138/32 
f 115/115/26 148/148/26 149/149/23 111/111/23 
f 112/112/23 150/150/23 151/151/24 117/117/24 
f 149/149/23 152/152/34 153/153/34 150/150/23 
f 148/148/26 154/154/35 152/152/34 149/149/23 
f 150/150/23 153/153/34 155/155/36 151/151/24 
f 156/156/34 157/157/23 158/158/23 159/159/34 
f 160/160/37 161/161/23 157/157/23 156/156/34 
f 159/159/34 158/158/23 162/162/23 163/163/38 
f 163/163/38 164/164/23 110/110/23 109/109/24 
f 162/162/23 165/165/23 164/164/23 163/163/38 
f 165/165/23 162/162/23 166/166/23 167/167/23 
f 158/158/23 157/157/23 168/168/23 169/169/23 
f 157/157/23 161/161/23 170/170/23 168/168/23 
f 161/161/23 171/171/31 172/172/31 170/170/23 
f 162/162/23 158/158/23 169/169/23 166/166/23 
f 167/167/23 166/166/23 173/173/23 174/174/23 
f 169/169/23 168/168/23 175/175/23 176/176/23 
f 168/168/23 170/170/23 177/177/23 175/175/23 
f 170/170/23 172/172/31 178/178/31 177/177/23 
f 166/166/23 169/169/23 176/176/23 173/173/23 
f 174/174/23 173/173/23 179/179/23 180/180/23 
f 176/176/23 175/175/23 181/181/23 182/182/23 
f 175/175/23 177/177/23 183/183/23 181/181/23 
f 177/177/23 178/178/31 184/184/31 183/183/23 
f 173/173/23 176/176/23 182/182/23 179/179/23 
f 111/111/23 149/149/23 150/150/23 112/112/23 
f 185/185/31 186/186/31 187/187/26 123/123/29 
f 135/135/31 185/185/31 123/123/29 124/124/23 
f 186/186/31 188/188/31 189/189/26 187/187/26 
f 188/188/31 190/190/31 160/160/37 189/189/26 
f 190/190/31 171/171/31 161/161/23 160/160/37 
f 178/178/31 86/191/15 85/192/15 184/184/31 
f 172/172/31 87/193/15 86/191/15 178/178/31 
f 171/171/31 88/194/15 87/193/15 172/172/31 
f 190/190/31 191/195/39 171/171/31 
f 192/196/40 93/197/15 92/198/19 193/199/41 
f 192/196/40 194/200/40 94/201/15 93/197/15 
f 195/202/42 97/203/21 94/201/15 194/200/40 
f 134/134/31 99/204/15 98/205/15 135/135/31 
f 141/141/33 100/206/15 99/204/15 134/134/31 
f 147/147/33 101/207/15 100/206/15 141/141/33 
f 187/187/26 115/115/26 116/116/27 123/123/29 
f 123/123/29 116/116/27 114/114/25 119/119/25 
f 119/119/25 114/114/25 113/113/25 120/120/25 
f 120/120/25 113/113/25 118/118/28 125/125/30 
f 125/125/30 118/118/28 117/117/24 108/108/24 
f 108/108/24 117/117/24 151/151/24 109/109/24 
f 109/109/24 151/151/24 155/155/36 163/163/38 
f 163/163/38 155/155/36 153/153/34 159/159/34 
f 159/159/34 153/153/34 152/152/34 156/156/34 
f 156/156/34 152/152/34 154/154/35 160/160/37 
f 160/160/37 154/154/35 148/148/26 189/189/26 
f 189/189/26 148/148/26 115/115/26 187/187/26 
f 185/185/31 196/208/43 197/209/40 186/186/31 
f 186/186/31 197/209/40 198/210/40 188/188/31 
f 188/188/31 198/210/40 191/195/39 190/190/31 
f 196/208/43 195/202/42 194/200/40 197/209/40 
f 197/209/40 194/200/40 192/196/40 198/210/40 
f 198/210/40 192/196/40 193/199/41 191/195/39 
f 191/195/39 193/199/41 92/198/19 105/211/19 
f 171/171/31 191/195/39 105/211/19 88/194/15 
f 135/135/31 196/208/43 185/185/31 
f 106/212/21 97/203/21 195/202/42 196/208/43 
f 98/205/15 106/212/21 196/208/43 135/135/31 
f 37/37/44 36/36/44 199/36/44 200/37/44 
f 39/39/44 38/38/44 201/38/44 202/39/44 
f 38/38/44 40/40/44 203/40/44 201/38/44 
f 40/40/44 41/41/44 101/41/44 203/40/44 
f 36/36/44 39/39/44 202/39/44 199/36/44 
f 74/74/45 73/73/45 204/73/45 205/74/45 
f 76/76/45 75/75/45 206/75/45 207/76/45 
f 77/77/45 76/76/45 207/76/45 208/77/45 
f 78/78/45 77/77/45 208/77/45 85/78/45 
f 75/75/45 74/74/45 205/74/45 206/75/45 
f 200/37/44 199/36/44 143/36/44 142/37/44 
f 202/39/44 201/38/44 145/38/44 144/39/44 
f 201/38/44 203/40/44 146/40/44 145/38/44 
f 203/40/44 101/41/44 147/41/44 146/40/44 
f 199/36/44 202/39/44 144/39/44 143/36/44 
f 205/74/45 204/73/45 180/73/45 179/74/45 
f 207/76/45 206/75/45 182/75/45 181/76/45 
f 208/77/45 207/76/45 181/76/45 183/77/45 
f 85/78/45 208/77/45 183/77/45 184/78/45 
f 206/75/45 205/74/45 179/74/45 182/75/45 
# 192 polygons - 4 triangles

