# 3ds Max Wavefront OBJ Exporter v0.97b - (c)2007 guruware
# File Created: 07.12.2019 17:16:13

#
# object sidewalls_hightop
#

v  0.0000 9.0478 4.5000
v  0.0000 9.6040 4.5000
v  0.0000 9.6040 3.0000
v  0.0000 9.0478 3.0000
v  0.0000 8.5358 1.4980
v  0.0000 9.6040 0.3750
v  0.0000 7.2013 0.3750
v  0.0000 7.2013 1.5001
v  0.0000 10.0000 3.0000
v  0.0000 10.0000 1.5000
v  0.0000 9.6040 1.5000
v  0.0000 10.0000 4.5000
v  0.0000 10.0000 0.3750
v  0.0000 10.0000 -0.0000
v  0.0000 9.6040 -0.0000
v  0.0000 9.6040 5.6321
v  0.0000 9.0478 5.6321
v  0.0000 10.0000 5.6321
v  0.0000 10.6667 0.3750
v  0.0000 10.6667 -0.0000
v  0.0000 10.6667 3.0000
v  0.0000 10.6667 1.5000
v  0.0000 10.6667 4.5000
v  0.0000 10.6667 5.6321
v  0.5000 10.0000 5.6321
v  0.5000 10.6667 5.6321
v  0.0000 11.3333 0.3750
v  0.0000 11.3333 -0.0000
v  0.0000 11.3333 3.0000
v  0.0000 11.3333 1.5000
v  0.0000 11.3333 4.5000
v  0.0000 11.3333 5.6321
v  0.5000 11.3333 5.6321
v  0.0000 12.0000 0.3750
v  0.0000 12.0000 -0.0000
v  0.0000 12.0000 3.0000
v  0.0000 12.0000 1.5000
v  0.0000 12.0000 4.5000
v  0.0000 12.0000 5.6321
v  0.5000 12.0000 5.6321
v  0.0000 4.7987 1.5001
v  0.0000 4.7987 0.3750
v  0.0000 9.0478 2.0902
v  0.1792 8.9522 2.1258
v  0.1792 8.7150 1.8480
v  0.1792 8.7150 3.0000
v  0.1792 8.9522 3.0000
v  0.1792 8.7150 4.5000
v  0.1792 8.9522 4.5000
v  0.1792 8.7150 5.0063
v  0.1792 8.9522 5.4529
v  0.5000 8.7150 5.0063
v  0.5000 8.9522 5.4529
v  0.5000 8.5358 1.4980
v  0.5000 8.7150 1.8480
v  0.0000 2.3960 0.3750
v  0.0000 2.3960 1.5001
v  0.0000 2.0000 0.3750
v  0.0000 2.0000 1.5001
v  0.0000 1.3333 0.3750
v  0.0000 1.3333 1.5001
v  0.0000 0.6667 0.3750
v  0.0000 0.6667 1.5001
v  0.0000 0.0000 0.3750
v  0.0000 0.0000 1.5001
v  0.1792 4.7987 1.5001
v  0.1792 7.0222 1.5001
v  0.1792 2.5752 1.5001
v  0.5000 2.3960 1.5001
v  0.5000 2.5752 1.5001
v  0.2869 4.7987 1.7272
v  0.2869 6.9144 1.7272
v  0.2869 2.6829 1.7272
v  0.5000 2.6829 1.7272
v  0.0000 7.2013 -0.0000
v  0.0000 4.7987 -0.0000
v  0.0000 2.3960 -0.0000
v  0.0000 2.0000 -0.0000
v  0.0000 1.3333 -0.0000
v  0.0000 0.6667 -0.0000
v  0.0000 0.0000 -0.0000
v  0.5000 9.6040 5.6321
v  0.5000 9.0478 5.6321
v  0.5000 8.7150 4.5000
v  0.5000 8.7150 3.0000
v  0.5000 7.2013 1.5001
v  0.5000 6.9144 1.7272
v  0.5000 4.7987 1.7272
v  0.5000 2.0000 1.5001
v  0.5000 1.3333 1.5001
v  0.5000 0.6667 1.5001
v  0.5000 0.0000 1.5001
v  0.5000 7.0222 1.5001
v  1.0000 9.0478 4.5000
v  1.0000 9.0478 3.0000
v  1.0000 9.6040 3.0000
v  1.0000 9.6040 4.5000
v  1.0000 8.5358 1.4980
v  1.0000 7.2013 1.5001
v  1.0000 7.2013 0.3750
v  1.0000 9.6040 0.3750
v  1.0000 9.6040 1.5000
v  1.0000 10.0000 1.5000
v  1.0000 10.0000 3.0000
v  1.0000 10.0000 4.5000
v  1.0000 10.0000 0.3750
v  1.0000 9.6040 -0.0000
v  1.0000 10.0000 -0.0000
v  1.0000 9.6040 5.6321
v  1.0000 9.0478 5.6321
v  1.0000 10.0000 5.6321
v  1.0000 10.6667 -0.0000
v  1.0000 10.6667 0.3750
v  1.0000 10.6667 1.5000
v  1.0000 10.6667 3.0000
v  1.0000 10.6667 4.5000
v  1.0000 10.6667 5.6321
v  1.0000 11.3333 -0.0000
v  1.0000 11.3333 0.3750
v  1.0000 11.3333 1.5000
v  1.0000 11.3333 3.0000
v  1.0000 11.3333 4.5000
v  1.0000 11.3333 5.6321
v  1.0000 12.0000 -0.0000
v  1.0000 12.0000 0.3750
v  1.0000 12.0000 1.5000
v  1.0000 12.0000 3.0000
v  1.0000 12.0000 4.5000
v  1.0000 12.0000 5.6321
v  1.0000 4.7987 1.5001
v  1.0000 4.7987 0.3750
v  1.0000 9.0478 2.0902
v  0.8208 8.9522 2.1258
v  0.8208 8.9522 3.0000
v  0.8208 8.7150 3.0000
v  0.8208 8.7150 1.8480
v  0.8208 8.9522 4.5000
v  0.8208 8.7150 4.5000
v  0.8208 8.9522 5.4529
v  0.8208 8.7150 5.0063
v  1.0000 2.3960 1.5001
v  1.0000 2.3960 0.3750
v  1.0000 2.0000 1.5001
v  1.0000 2.0000 0.3750
v  1.0000 1.3333 1.5001
v  1.0000 1.3333 0.3750
v  1.0000 0.6667 1.5001
v  1.0000 0.6667 0.3750
v  1.0000 0.0000 1.5001
v  1.0000 0.0000 0.3750
v  0.8208 7.0222 1.5001
v  0.8208 4.7987 1.5001
v  0.8208 2.5752 1.5001
v  0.7131 6.9144 1.7272
v  0.7131 4.7987 1.7272
v  0.7131 2.6829 1.7272
v  1.0000 4.7987 -0.0000
v  1.0000 7.2013 -0.0000
v  1.0000 2.3960 -0.0000
v  1.0000 2.0000 -0.0000
v  1.0000 1.3333 -0.0000
v  1.0000 0.6667 -0.0000
v  1.0000 0.0000 -0.0000
v  0.5000 12.0000 0.3750
v  0.5000 12.0000 -0.0000
v  0.5000 12.0000 3.0000
v  0.5000 12.0000 1.5000
v  0.5000 12.0000 4.5000
v  0.5000 0.0000 0.3750
v  0.5000 0.0000 -0.0000
# 170 vertices

vn -0.8576 -0.5144 -0.0000
vn -1.0000 0.0000 -0.0000
vn -0.8403 -0.2667 0.4720
vn -0.7069 0.0006 0.7073
vn -0.7071 0.0000 0.7071
vn -0.6230 -0.4731 0.6230
vn 0.0000 0.0000 1.0000
vn -0.9130 -0.3824 0.1424
vn -0.8163 -0.5420 0.1997
vn -0.3175 -0.8564 0.4072
vn -0.7071 -0.7071 -0.0000
vn -0.6565 -0.7319 0.1823
vn -0.2639 -0.9148 0.3058
vn 0.0000 -0.9704 0.2417
vn 0.0000 -0.8827 0.4699
vn 0.0000 -0.5209 0.8536
vn 0.0000 -0.9721 0.2344
vn -0.5346 0.0000 0.8451
vn -0.1784 0.1785 0.9676
vn -0.1785 -0.1785 0.9676
vn 0.0000 -0.5346 0.8451
vn -0.4326 0.4325 0.7911
vn -0.4326 -0.4326 0.7910
vn 0.0000 -0.5144 0.8576
vn 0.0000 -1.0000 -0.0000
vn 0.0000 0.0008 1.0000
vn 0.0000 0.5344 0.8452
vn 0.8576 -0.5144 -0.0000
vn 1.0000 0.0000 -0.0000
vn 0.8403 -0.2667 0.4720
vn 0.7069 0.0006 0.7073
vn 0.7071 0.0000 0.7071
vn 0.6230 -0.4731 0.6230
vn 0.9130 -0.3824 0.1424
vn 0.8163 -0.5420 0.1997
vn 0.7071 -0.7071 -0.0000
vn 0.3175 -0.8564 0.4072
vn 0.2639 -0.9148 0.3058
vn 0.6565 -0.7319 0.1823
vn 0.1784 0.1785 0.9676
vn 0.5346 0.0000 0.8451
vn 0.1785 -0.1785 0.9676
vn 0.4326 0.4325 0.7911
vn 0.4326 -0.4326 0.7910
vn 0.0000 1.0000 -0.0000
# 45 vertex normals

vt 0.8613 0.4549 0.0000
vt 0.8609 0.4731 0.0000
vt 0.8089 0.4728 0.0000
vt 0.8095 0.4548 0.0000
vt 0.7568 0.4317 0.0000
vt 0.7179 0.4679 0.0000
vt 0.7171 0.3842 0.0000
vt 0.7552 0.3835 0.0000
vt 0.8086 0.4858 0.0000
vt 0.7567 0.4838 0.0000
vt 0.7569 0.4699 0.0000
vt 0.8606 0.4861 0.0000
vt 0.7178 0.4825 0.0000
vt 0.7044 0.4823 0.0000
vt 0.7044 0.4678 0.0000
vt 0.9000 0.4719 0.0000
vt 0.9011 0.4527 0.0000
vt 0.8997 0.4856 0.0000
vt 0.7176 0.5062 0.0000
vt 0.7044 0.5061 0.0000
vt 0.8084 0.5082 0.0000
vt 0.7565 0.5070 0.0000
vt 0.8603 0.5085 0.0000
vt 0.8995 0.5083 0.0000
vt 0.9169 0.4856 0.0000
vt 0.9169 0.5083 0.0000
vt 0.7175 0.5297 0.0000
vt 0.7044 0.5296 0.0000
vt 0.8082 0.5308 0.0000
vt 0.7564 0.5301 0.0000
vt 0.8601 0.5310 0.0000
vt 0.8993 0.5309 0.0000
vt 0.9169 0.5309 0.0000
vt 0.7175 0.5533 0.0000
vt 0.7045 0.5533 0.0000
vt 0.8081 0.5533 0.0000
vt 0.7563 0.5533 0.0000
vt 0.8601 0.5533 0.0000
vt 0.8993 0.5533 0.0000
vt 0.9169 0.5533 0.0000
vt 0.7553 0.3003 0.0000
vt 0.7169 0.3007 0.0000
vt 0.7776 0.4520 0.0000
vt 0.7802 0.4464 0.0000
vt 0.7711 0.4392 0.0000
vt 0.8108 0.4421 0.0000
vt 0.8100 0.4490 0.0000
vt 0.8615 0.4420 0.0000
vt 0.8615 0.4491 0.0000
vt 0.8781 0.4416 0.0000
vt 0.8942 0.4456 0.0000
vt 0.8784 0.4324 0.0000
vt 0.8953 0.4324 0.0000
vt 0.7722 0.4257 0.0000
vt 0.7757 0.4324 0.0000
vt 0.7171 0.2175 0.0000
vt 0.7556 0.2172 0.0000
vt 0.7170 0.2033 0.0000
vt 0.7554 0.2029 0.0000
vt 0.7170 0.1800 0.0000
vt 0.7555 0.1797 0.0000
vt 0.7170 0.1568 0.0000
vt 0.7555 0.1567 0.0000
vt 0.7170 0.1338 0.0000
vt 0.7555 0.1338 0.0000
vt 0.7613 0.3000 0.0000
vt 0.7615 0.3768 0.0000
vt 0.7621 0.2231 0.0000
vt 0.7727 0.2150 0.0000
vt 0.7727 0.2197 0.0000
vt 0.7699 0.2999 0.0000
vt 0.7687 0.3715 0.0000
vt 0.7695 0.2282 0.0000
vt 0.7762 0.2272 0.0000
vt 0.7044 0.3843 0.0000
vt 0.7044 0.3008 0.0000
vt 0.7044 0.2176 0.0000
vt 0.7044 0.2034 0.0000
vt 0.7044 0.1800 0.0000
vt 0.7044 0.1569 0.0000
vt 0.7044 0.1338 0.0000
vt 0.9169 0.4721 0.0000
vt 0.9169 0.4527 0.0000
vt 0.8615 0.4324 0.0000
vt 0.8114 0.4324 0.0000
vt 0.7722 0.3839 0.0000
vt 0.7755 0.3723 0.0000
vt 0.7773 0.2998 0.0000
vt 0.9011 0.4324 0.0000
vt 0.7727 0.2022 0.0000
vt 0.7727 0.1795 0.0000
vt 0.7726 0.1566 0.0000
vt 0.7726 0.1338 0.0000
vt 0.7722 0.3796 0.0000
vt 1.8613 0.4549 0.0000
vt 1.8095 0.4548 0.0000
vt 1.8089 0.4728 0.0000
vt 1.8609 0.4731 0.0000
vt 1.7568 0.4317 0.0000
vt 1.7552 0.3835 0.0000
vt 1.7171 0.3842 0.0000
vt 1.7179 0.4679 0.0000
vt 1.7569 0.4699 0.0000
vt 1.7567 0.4838 0.0000
vt 1.8086 0.4858 0.0000
vt 1.8606 0.4861 0.0000
vt 1.7178 0.4825 0.0000
vt 1.7044 0.4678 0.0000
vt 1.7044 0.4823 0.0000
vt 1.9000 0.4719 0.0000
vt 1.9011 0.4527 0.0000
vt 1.8997 0.4856 0.0000
vt 1.7044 0.5061 0.0000
vt 1.7176 0.5062 0.0000
vt 1.7565 0.5070 0.0000
vt 1.8084 0.5082 0.0000
vt 1.8603 0.5085 0.0000
vt 1.8995 0.5083 0.0000
vt 1.9169 0.5083 0.0000
vt 1.9169 0.4856 0.0000
vt 1.7044 0.5296 0.0000
vt 1.7175 0.5297 0.0000
vt 1.7564 0.5301 0.0000
vt 1.8082 0.5308 0.0000
vt 1.8601 0.5310 0.0000
vt 1.8993 0.5309 0.0000
vt 1.9169 0.5309 0.0000
vt 1.7045 0.5533 0.0000
vt 1.7175 0.5533 0.0000
vt 1.7563 0.5533 0.0000
vt 1.8081 0.5533 0.0000
vt 1.8601 0.5533 0.0000
vt 1.8993 0.5533 0.0000
vt 1.9169 0.5533 0.0000
vt 1.7553 0.3003 0.0000
vt 1.7169 0.3007 0.0000
vt 1.7776 0.4520 0.0000
vt 1.7802 0.4464 0.0000
vt 1.8100 0.4490 0.0000
vt 1.8108 0.4421 0.0000
vt 1.7711 0.4392 0.0000
vt 1.8615 0.4491 0.0000
vt 1.8615 0.4420 0.0000
vt 1.8942 0.4456 0.0000
vt 1.8781 0.4416 0.0000
vt 1.8953 0.4324 0.0000
vt 1.8784 0.4324 0.0000
vt 1.7757 0.4324 0.0000
vt 1.7722 0.4257 0.0000
vt 1.7556 0.2172 0.0000
vt 1.7171 0.2175 0.0000
vt 1.7554 0.2029 0.0000
vt 1.7170 0.2033 0.0000
vt 1.7555 0.1797 0.0000
vt 1.7170 0.1800 0.0000
vt 1.7555 0.1567 0.0000
vt 1.7170 0.1568 0.0000
vt 1.7555 0.1338 0.0000
vt 1.7170 0.1338 0.0000
vt 1.7615 0.3768 0.0000
vt 1.7613 0.3000 0.0000
vt 1.7621 0.2231 0.0000
vt 1.7727 0.2197 0.0000
vt 1.7727 0.2150 0.0000
vt 1.7687 0.3715 0.0000
vt 1.7699 0.2999 0.0000
vt 1.7695 0.2282 0.0000
vt 1.7762 0.2272 0.0000
vt 1.7044 0.3008 0.0000
vt 1.7044 0.3843 0.0000
vt 1.7044 0.2176 0.0000
vt 1.7044 0.2034 0.0000
vt 1.7044 0.1800 0.0000
vt 1.7044 0.1569 0.0000
vt 1.7044 0.1338 0.0000
vt 1.9169 0.4721 0.0000
vt 1.9169 0.4527 0.0000
vt 1.8615 0.4324 0.0000
vt 1.8114 0.4324 0.0000
vt 1.7722 0.3839 0.0000
vt 1.7755 0.3723 0.0000
vt 1.7773 0.2998 0.0000
vt 1.9011 0.4324 0.0000
vt 1.7727 0.2022 0.0000
vt 1.7727 0.1795 0.0000
vt 1.7726 0.1566 0.0000
vt 1.7726 0.1338 0.0000
vt 1.7722 0.3796 0.0000
# 188 texture coords

o sidewalls_hightop
g sidewalls_hightop
f 1/1/1 2/2/2 3/3/2 4/4/1 
f 5/5/3 6/6/2 7/7/2 8/8/4 
f 3/3/2 9/9/2 10/10/2 11/11/2 
f 2/2/2 12/12/2 9/9/2 3/3/2 
f 11/11/2 10/10/2 13/13/2 6/6/2 
f 13/13/2 14/14/2 15/15/2 6/6/2 
f 16/16/5 2/2/2 1/1/1 17/17/6 
f 18/18/5 12/12/2 2/2/2 16/16/5 
f 14/14/2 13/13/2 19/19/2 20/20/2 
f 10/10/2 9/9/2 21/21/2 22/22/2 
f 9/9/2 12/12/2 23/23/2 21/21/2 
f 12/12/2 18/18/5 24/24/5 23/23/2 
f 13/13/2 10/10/2 22/22/2 19/19/2 
f 18/18/5 25/25/7 26/26/7 24/24/5 
f 20/20/2 19/19/2 27/27/2 28/28/2 
f 22/22/2 21/21/2 29/29/2 30/30/2 
f 21/21/2 23/23/2 31/31/2 29/29/2 
f 23/23/2 24/24/5 32/32/5 31/31/2 
f 19/19/2 22/22/2 30/30/2 27/27/2 
f 24/24/5 26/26/7 33/33/7 32/32/5 
f 28/28/2 27/27/2 34/34/2 35/35/2 
f 30/30/2 29/29/2 36/36/2 37/37/2 
f 29/29/2 31/31/2 38/38/2 36/36/2 
f 31/31/2 32/32/5 39/39/5 38/38/2 
f 27/27/2 30/30/2 37/37/2 34/34/2 
f 32/32/5 33/33/7 40/40/7 39/39/5 
f 41/41/5 8/8/4 7/7/2 42/42/2 
f 11/11/2 6/6/2 5/5/3 43/43/8 
f 44/44/9 45/45/10 46/46/11 47/47/1 
f 47/47/1 46/46/11 48/48/11 49/49/1 
f 49/49/1 48/48/11 50/50/12 51/51/13 
f 51/51/13 50/50/12 52/52/14 53/53/15 
f 43/43/8 4/4/1 3/3/2 11/11/2 
f 5/5/3 54/54/16 55/55/17 45/45/10 
f 17/17/6 1/1/1 49/49/1 51/51/13 
f 1/1/1 4/4/1 47/47/1 49/49/1 
f 4/4/1 43/43/8 44/44/9 47/47/1 
f 43/43/8 5/5/3 45/45/10 44/44/9 
f 41/41/5 42/42/2 56/56/2 57/57/5 
f 57/57/5 56/56/2 58/58/2 59/59/5 
f 59/59/5 58/58/2 60/60/2 61/61/5 
f 61/61/5 60/60/2 62/62/2 63/63/5 
f 63/63/5 62/62/2 64/64/2 65/65/5 
f 8/8/4 41/41/5 66/66/18 67/67/19 
f 41/41/5 57/57/5 68/68/20 66/66/18 
f 57/57/5 69/69/7 70/70/21 68/68/20 
f 67/67/19 66/66/18 71/71/18 72/72/22 
f 66/66/18 68/68/20 73/73/23 71/71/18 
f 68/68/20 70/70/21 74/74/21 73/73/23 
f 7/7/2 75/75/2 76/76/2 42/42/2 
f 42/42/2 76/76/2 77/77/2 56/56/2 
f 56/56/2 77/77/2 78/78/2 58/58/2 
f 58/58/2 78/78/2 79/79/2 60/60/2 
f 60/60/2 79/79/2 80/80/2 62/62/2 
f 62/62/2 80/80/2 81/81/2 64/64/2 
f 6/6/2 15/15/2 75/75/2 7/7/2 
f 25/25/7 18/18/5 16/16/5 82/82/7 
f 82/82/7 16/16/5 17/17/6 83/83/24 
f 52/52/14 50/50/12 48/48/11 84/84/25 
f 84/84/25 48/48/11 46/46/11 85/85/25 
f 85/85/25 46/46/11 45/45/10 55/55/17 
f 54/54/16 5/5/3 8/8/4 86/86/26 
f 87/87/27 72/72/22 71/71/18 88/88/7 
f 83/89/24 17/17/6 51/51/13 53/53/15 
f 88/88/7 71/71/18 73/73/23 74/74/21 
f 69/69/7 57/57/5 59/59/5 89/90/7 
f 89/90/7 59/59/5 61/61/5 90/91/7 
f 90/91/7 61/61/5 63/63/5 91/92/7 
f 91/92/7 63/63/5 65/65/5 92/93/7 
f 86/86/26 8/8/4 67/67/19 93/94/27 
f 93/94/27 67/67/19 72/72/22 87/87/27 
f 94/95/28 95/96/28 96/97/29 97/98/29 
f 98/99/30 99/100/31 100/101/29 101/102/29 
f 96/97/29 102/103/29 103/104/29 104/105/29 
f 97/98/29 96/97/29 104/105/29 105/106/29 
f 102/103/29 101/102/29 106/107/29 103/104/29 
f 106/107/29 101/102/29 107/108/29 108/109/29 
f 109/110/32 110/111/33 94/95/28 97/98/29 
f 111/112/32 109/110/32 97/98/29 105/106/29 
f 108/109/29 112/113/29 113/114/29 106/107/29 
f 103/104/29 114/115/29 115/116/29 104/105/29 
f 104/105/29 115/116/29 116/117/29 105/106/29 
f 105/106/29 116/117/29 117/118/32 111/112/32 
f 106/107/29 113/114/29 114/115/29 103/104/29 
f 111/112/32 117/118/32 26/119/7 25/120/7 
f 112/113/29 118/121/29 119/122/29 113/114/29 
f 114/115/29 120/123/29 121/124/29 115/116/29 
f 115/116/29 121/124/29 122/125/29 116/117/29 
f 116/117/29 122/125/29 123/126/32 117/118/32 
f 113/114/29 119/122/29 120/123/29 114/115/29 
f 117/118/32 123/126/32 33/127/7 26/119/7 
f 118/121/29 124/128/29 125/129/29 119/122/29 
f 120/123/29 126/130/29 127/131/29 121/124/29 
f 121/124/29 127/131/29 128/132/29 122/125/29 
f 122/125/29 128/132/29 129/133/32 123/126/32 
f 119/122/29 125/129/29 126/130/29 120/123/29 
f 123/126/32 129/133/32 40/134/7 33/127/7 
f 130/135/32 131/136/29 100/101/29 99/100/31 
f 102/103/29 132/137/34 98/99/30 101/102/29 
f 133/138/35 134/139/28 135/140/36 136/141/37 
f 134/139/28 137/142/28 138/143/36 135/140/36 
f 137/142/28 139/144/38 140/145/39 138/143/36 
f 139/144/38 53/146/15 52/147/14 140/145/39 
f 132/137/34 102/103/29 96/97/29 95/96/28 
f 98/99/30 136/141/37 55/148/17 54/149/16 
f 110/111/33 139/144/38 137/142/28 94/95/28 
f 94/95/28 137/142/28 134/139/28 95/96/28 
f 95/96/28 134/139/28 133/138/35 132/137/34 
f 132/137/34 133/138/35 136/141/37 98/99/30 
f 130/135/32 141/150/32 142/151/29 131/136/29 
f 141/150/32 143/152/32 144/153/29 142/151/29 
f 143/152/32 145/154/32 146/155/29 144/153/29 
f 145/154/32 147/156/32 148/157/29 146/155/29 
f 147/156/32 149/158/32 150/159/29 148/157/29 
f 99/100/31 151/160/40 152/161/41 130/135/32 
f 130/135/32 152/161/41 153/162/42 141/150/32 
f 141/150/32 153/162/42 70/163/21 69/164/7 
f 151/160/40 154/165/43 155/166/41 152/161/41 
f 152/161/41 155/166/41 156/167/44 153/162/42 
f 153/162/42 156/167/44 74/168/21 70/163/21 
f 100/101/29 131/136/29 157/169/29 158/170/29 
f 131/136/29 142/151/29 159/171/29 157/169/29 
f 142/151/29 144/153/29 160/172/29 159/171/29 
f 144/153/29 146/155/29 161/173/29 160/172/29 
f 146/155/29 148/157/29 162/174/29 161/173/29 
f 148/157/29 150/159/29 163/175/29 162/174/29 
f 101/102/29 100/101/29 158/170/29 107/108/29 
f 25/120/7 82/176/7 109/110/32 111/112/32 
f 82/176/7 83/177/24 110/111/33 109/110/32 
f 52/147/14 84/178/25 138/143/36 140/145/39 
f 84/178/25 85/179/25 135/140/36 138/143/36 
f 85/179/25 55/148/17 136/141/37 135/140/36 
f 54/149/16 86/180/26 99/100/31 98/99/30 
f 87/181/27 88/182/7 155/166/41 154/165/43 
f 83/183/24 53/146/15 139/144/38 110/111/33 
f 88/182/7 74/168/21 156/167/44 155/166/41 
f 69/164/7 89/184/7 143/152/32 141/150/32 
f 89/184/7 90/185/7 145/154/32 143/152/32 
f 90/185/7 91/186/7 147/156/32 145/154/32 
f 91/186/7 92/187/7 149/158/32 147/156/32 
f 86/180/26 93/188/27 151/160/40 99/100/31 
f 93/188/27 87/181/27 154/165/43 151/160/40 
f 35/35/45 34/34/45 164/34/45 165/35/45 
f 37/37/45 36/36/45 166/36/45 167/37/45 
f 36/36/45 38/38/45 168/38/45 166/36/45 
f 38/38/45 39/39/45 40/39/45 168/38/45 
f 34/34/45 37/37/45 167/37/45 164/34/45 
f 65/65/25 64/64/25 169/64/25 92/65/25 
f 64/64/25 81/81/25 170/81/25 169/64/25 
f 165/35/45 164/34/45 125/34/45 124/35/45 
f 167/37/45 166/36/45 127/36/45 126/37/45 
f 166/36/45 168/38/45 128/38/45 127/36/45 
f 168/38/45 40/39/45 129/39/45 128/38/45 
f 164/34/45 167/37/45 126/37/45 125/34/45 
f 92/65/25 169/64/25 150/64/25 149/65/25 
f 169/64/25 170/81/25 163/81/25 150/64/25 
# 156 polygons

