# 3ds Max Wavefront OBJ Exporter v0.97b - (c)2007 guruware
# File Created: 07.12.2019 17:16:12

#
# object sidewalls_hole2
#

v  0.0000 0.6667 5.6321
v  0.5000 0.6667 5.6321
v  0.5000 1.3333 5.6321
v  0.0000 1.3333 5.6321
v  0.0000 10.0000 5.6321
v  0.5000 10.0000 5.6321
v  0.5000 10.6667 5.6321
v  0.0000 10.6667 5.6321
v  0.5000 11.3333 5.6321
v  0.0000 11.3333 5.6321
v  0.0000 7.2013 -0.0000
v  0.0000 7.2013 0.3750
v  0.0000 9.6040 0.3750
v  0.0000 9.6040 -0.0000
v  0.0000 7.2013 4.6194
v  0.0000 7.2013 5.6321
v  0.0000 9.6040 5.6321
v  0.0000 9.6040 4.6194
v  0.0000 9.7235 3.0000
v  0.0000 9.7235 4.5000
v  0.0000 10.0000 4.5000
v  0.0000 10.0000 3.0000
v  0.0000 10.0000 0.3750
v  0.0000 10.0000 -0.0000
v  0.0000 9.7235 1.5000
v  0.0000 10.0000 1.5000
v  0.0000 9.6040 1.3805
v  0.0000 10.6667 4.5000
v  0.0000 10.6667 3.0000
v  0.0000 10.6667 1.5000
v  0.0000 10.6667 0.3750
v  0.0000 10.6667 -0.0000
v  0.0000 11.3333 4.5000
v  0.0000 11.3333 3.0000
v  0.0000 11.3333 1.5000
v  0.0000 11.3333 0.3750
v  0.0000 11.3333 -0.0000
v  0.0000 12.0000 4.5000
v  0.0000 12.0000 3.0000
v  0.0000 12.0000 1.5000
v  0.0000 12.0000 0.3750
v  0.0000 12.0000 -0.0000
v  0.0000 6.0000 -0.0000
v  0.0000 6.0000 0.3750
v  0.0000 4.7987 -0.0000
v  0.0000 2.3960 -0.0000
v  0.0000 2.3960 0.3750
v  0.0000 4.7987 0.3750
v  0.0000 4.7987 4.6194
v  0.0000 2.3960 4.6194
v  0.0000 2.3960 5.6321
v  0.0000 4.7987 5.6321
v  0.0000 2.2765 3.0000
v  0.0000 2.0000 3.0000
v  0.0000 2.0000 4.5000
v  0.0000 2.2765 4.5000
v  0.0000 2.0000 -0.0000
v  0.0000 2.0000 0.3750
v  0.0000 2.2765 1.5000
v  0.0000 2.0000 1.5000
v  0.0000 2.0000 5.6321
v  0.0000 2.3960 1.3805
v  0.0000 1.3333 3.0000
v  0.0000 1.3333 4.5000
v  0.0000 1.3333 1.5000
v  0.0000 1.3333 0.3750
v  0.0000 1.3333 -0.0000
v  0.0000 0.6667 3.0000
v  0.0000 0.6667 4.5000
v  0.0000 0.6667 1.5000
v  0.0000 0.6667 0.3750
v  0.0000 0.6667 -0.0000
v  0.0000 0.0000 3.0000
v  0.0000 0.0000 4.5000
v  0.0000 0.0000 1.5000
v  0.0000 0.0000 0.3750
v  0.0000 0.0000 -0.0000
v  0.0000 6.0000 5.6321
v  0.0000 6.0000 4.6194
v  0.0000 12.0000 5.6321
v  0.0000 0.0000 5.6321
v  0.2038 9.6040 5.6321
v  0.2038 6.0000 5.6321
v  0.2038 7.2013 5.6321
v  0.2038 2.3960 5.6321
v  0.2038 4.7987 5.6321
v  0.2994 6.0000 5.4170
v  0.2994 7.2013 5.4170
v  0.2994 9.6040 5.4170
v  0.2994 2.3960 5.4170
v  0.2994 4.7987 5.4170
v  0.0000 7.2013 1.3805
v  0.0000 6.0000 1.3805
v  0.0000 4.7987 1.3805
v  0.5000 0.0000 5.6321
v  0.5000 2.0000 5.6321
v  0.5000 2.3960 5.4170
v  0.5000 4.7987 5.4170
v  0.5000 6.0000 5.4170
v  0.5000 7.2013 5.4170
v  0.5000 9.6040 5.4170
v  0.5000 12.0000 5.6321
v  0.5000 2.3960 5.6321
v  0.1195 9.6040 4.5000
v  0.1195 9.6040 1.5000
v  0.1195 2.3960 4.5000
v  0.1195 2.3960 1.5000
v  0.1195 7.2013 4.5000
v  0.1195 9.6040 3.0000
v  0.1195 4.7987 4.5000
v  0.1195 2.3960 3.0000
v  0.1195 6.0000 4.5000
v  0.1195 7.2013 1.5000
v  0.1195 6.0000 1.5000
v  0.1195 4.7987 1.5000
v  0.5000 9.6040 5.6321
v  0.5000 2.3960 1.5000
v  0.5000 4.7987 1.5000
v  0.5000 6.0000 1.5000
v  0.5000 9.6040 1.5000
v  0.5000 9.6040 3.0000
v  0.5000 9.6040 4.5000
v  0.5000 7.2013 4.5000
v  0.5000 2.3960 4.5000
v  0.5000 2.3960 3.0000
v  0.5000 7.2013 1.5000
v  0.5000 6.0000 4.5000
v  0.5000 4.7987 4.5000
v  1.0000 0.6667 5.6321
v  1.0000 1.3333 5.6321
v  1.0000 10.0000 5.6321
v  1.0000 10.6667 5.6321
v  1.0000 11.3333 5.6321
v  1.0000 7.2013 -0.0000
v  1.0000 9.6040 -0.0000
v  1.0000 9.6040 0.3750
v  1.0000 7.2013 0.3750
v  1.0000 7.2013 4.6194
v  1.0000 9.6040 4.6194
v  1.0000 9.6040 5.6321
v  1.0000 7.2013 5.6321
v  1.0000 9.7235 3.0000
v  1.0000 10.0000 3.0000
v  1.0000 10.0000 4.5000
v  1.0000 9.7235 4.5000
v  1.0000 10.0000 -0.0000
v  1.0000 10.0000 0.3750
v  1.0000 9.7235 1.5000
v  1.0000 10.0000 1.5000
v  1.0000 9.6040 1.3805
v  1.0000 10.6667 3.0000
v  1.0000 10.6667 4.5000
v  1.0000 10.6667 1.5000
v  1.0000 10.6667 0.3750
v  1.0000 10.6667 -0.0000
v  1.0000 11.3333 3.0000
v  1.0000 11.3333 4.5000
v  1.0000 11.3333 1.5000
v  1.0000 11.3333 0.3750
v  1.0000 11.3333 -0.0000
v  1.0000 12.0000 3.0000
v  1.0000 12.0000 4.5000
v  1.0000 12.0000 1.5000
v  1.0000 12.0000 0.3750
v  1.0000 12.0000 -0.0000
v  1.0000 6.0000 -0.0000
v  1.0000 6.0000 0.3750
v  1.0000 4.7987 -0.0000
v  1.0000 4.7987 0.3750
v  1.0000 2.3960 0.3750
v  1.0000 2.3960 -0.0000
v  1.0000 4.7987 4.6194
v  1.0000 4.7987 5.6321
v  1.0000 2.3960 5.6321
v  1.0000 2.3960 4.6194
v  1.0000 2.2765 3.0000
v  1.0000 2.2765 4.5000
v  1.0000 2.0000 4.5000
v  1.0000 2.0000 3.0000
v  1.0000 2.0000 0.3750
v  1.0000 2.0000 -0.0000
v  1.0000 2.2765 1.5000
v  1.0000 2.0000 1.5000
v  1.0000 2.0000 5.6321
v  1.0000 2.3960 1.3805
v  1.0000 1.3333 4.5000
v  1.0000 1.3333 3.0000
v  1.0000 1.3333 1.5000
v  1.0000 1.3333 0.3750
v  1.0000 1.3333 -0.0000
v  1.0000 0.6667 4.5000
v  1.0000 0.6667 3.0000
v  1.0000 0.6667 1.5000
v  1.0000 0.6667 0.3750
v  1.0000 0.6667 -0.0000
v  1.0000 0.0000 4.5000
v  1.0000 0.0000 3.0000
v  1.0000 0.0000 1.5000
v  1.0000 0.0000 0.3750
v  1.0000 0.0000 -0.0000
v  1.0000 6.0000 5.6321
v  1.0000 6.0000 4.6194
v  1.0000 12.0000 5.6321
v  1.0000 0.0000 5.6321
v  0.7962 9.6040 5.6321
v  0.7962 7.2013 5.6321
v  0.7962 6.0000 5.6321
v  0.7962 4.7987 5.6321
v  0.7962 2.3960 5.6321
v  0.7006 7.2013 5.4170
v  0.7006 6.0000 5.4170
v  0.7006 9.6040 5.4170
v  0.7006 4.7987 5.4170
v  0.7006 2.3960 5.4170
v  1.0000 7.2013 1.3805
v  1.0000 6.0000 1.3805
v  1.0000 4.7987 1.3805
v  0.8805 9.6040 4.5000
v  0.8805 9.6040 1.5000
v  0.8805 2.3960 4.5000
v  0.8805 2.3960 1.5000
v  0.8805 7.2013 4.5000
v  0.8805 9.6040 3.0000
v  0.8805 4.7987 4.5000
v  0.8805 2.3960 3.0000
v  0.8805 6.0000 4.5000
v  0.8805 7.2013 1.5000
v  0.8805 6.0000 1.5000
v  0.8805 4.7987 1.5000
v  0.5000 12.0000 4.5000
v  0.5000 12.0000 3.0000
v  0.5000 12.0000 1.5000
v  0.5000 12.0000 0.3750
v  0.5000 12.0000 -0.0000
v  0.5000 0.0000 3.0000
v  0.5000 0.0000 4.5000
v  0.5000 0.0000 1.5000
v  0.5000 0.0000 0.3750
v  0.5000 0.0000 -0.0000
# 239 vertices

vn -0.7071 0.0000 0.7071
vn 0.0000 0.0000 1.0000
vn -1.0000 0.0000 -0.0000
vn -0.9238 0.0000 -0.3829
vn -0.9517 -0.1020 -0.2896
vn -0.9239 -0.3827 -0.0000
vn -0.9518 -0.2893 -0.1020
vn -0.9518 -0.2893 0.1020
vn -0.9518 -0.1020 0.2893
vn -0.9517 0.1020 -0.2896
vn -0.9239 0.3826 -0.0000
vn -0.9518 0.2893 -0.1020
vn -0.9518 0.2893 0.1020
vn -0.9518 0.1020 0.2893
vn 0.2536 -0.2037 0.9456
vn 0.5449 0.0000 0.8385
vn 0.2536 0.2037 0.9456
vn 0.4348 -0.6026 0.6692
vn 0.4348 0.6026 0.6692
vn -0.9239 0.0000 0.3826
vn 0.0000 0.7071 0.7071
vn 0.0000 -0.7071 0.7071
vn -0.5195 -0.6041 -0.6043
vn -0.5196 -0.6042 0.6042
vn -0.5194 0.6041 -0.6043
vn -0.5195 0.6042 0.6042
vn -0.3825 0.0000 -0.9240
vn -0.3827 -0.9239 -0.0000
vn -0.3826 0.9239 -0.0000
vn -0.3826 0.0000 0.9239
vn 0.0000 -1.0000 -0.0000
vn 0.0000 -0.7071 -0.7071
vn 0.0000 0.0000 -1.0000
vn 0.0000 0.7071 -0.7071
vn 0.0000 1.0000 -0.0000
vn 0.7071 0.0000 0.7071
vn 1.0000 0.0000 -0.0000
vn 0.9238 0.0000 -0.3829
vn 0.9517 -0.1020 -0.2896
vn 0.9239 -0.3827 -0.0000
vn 0.9518 -0.2893 -0.1020
vn 0.9518 -0.2893 0.1020
vn 0.9518 -0.1020 0.2893
vn 0.9517 0.1020 -0.2896
vn 0.9239 0.3827 -0.0000
vn 0.9518 0.2893 -0.1020
vn 0.9518 0.2893 0.1020
vn 0.9518 0.1020 0.2893
vn -0.2537 -0.2037 0.9456
vn -0.5449 0.0000 0.8385
vn -0.2537 0.2037 0.9456
vn -0.4349 -0.6026 0.6692
vn -0.4349 0.6026 0.6692
vn 0.9239 0.0000 0.3826
vn 0.5195 -0.6041 -0.6043
vn 0.5196 -0.6042 0.6042
vn 0.5195 0.6041 -0.6043
vn 0.5196 0.6042 0.6042
vn 0.3825 0.0000 -0.9240
vn 0.3827 -0.9239 -0.0000
vn 0.3827 0.9239 -0.0000
vn 0.3826 0.0000 0.9239
# 62 vertex normals

vt 0.2032 0.5929 0.0000
vt 0.2211 0.5928 0.0000
vt 0.2211 0.6160 0.0000
vt 0.2034 0.6164 0.0000
vt 0.2042 0.9244 0.0000
vt 0.2211 0.9261 0.0000
vt 0.2211 0.9490 0.0000
vt 0.2034 0.9486 0.0000
vt 0.2211 0.9722 0.0000
vt 0.2033 0.9720 0.0000
vt 0.0057 0.8258 0.0000
vt 0.0162 0.8258 0.0000
vt 0.0189 0.9098 0.0000
vt 0.0058 0.9099 0.0000
vt 0.1811 0.8247 0.0000
vt 0.2153 0.8260 0.0000
vt 0.2059 0.9096 0.0000
vt 0.1709 0.9085 0.0000
vt 0.1123 0.9200 0.0000
vt 0.1652 0.9143 0.0000
vt 0.1644 0.9246 0.0000
vt 0.1119 0.9282 0.0000
vt 0.0197 0.9246 0.0000
vt 0.0058 0.9247 0.0000
vt 0.0594 0.9150 0.0000
vt 0.0594 0.9251 0.0000
vt 0.0539 0.9094 0.0000
vt 0.1641 0.9486 0.0000
vt 0.1116 0.9503 0.0000
vt 0.0591 0.9488 0.0000
vt 0.0196 0.9484 0.0000
vt 0.0058 0.9484 0.0000
vt 0.1638 0.9721 0.0000
vt 0.1115 0.9728 0.0000
vt 0.0590 0.9722 0.0000
vt 0.0195 0.9719 0.0000
vt 0.0058 0.9719 0.0000
vt 0.1638 0.9951 0.0000
vt 0.1114 0.9951 0.0000
vt 0.0589 0.9951 0.0000
vt 0.0195 0.9951 0.0000
vt 0.0058 0.9951 0.0000
vt 0.0057 0.7825 0.0000
vt 0.0159 0.7825 0.0000
vt 0.0057 0.7392 0.0000
vt 0.0057 0.6551 0.0000
vt 0.0189 0.6552 0.0000
vt 0.0162 0.7392 0.0000
vt 0.1811 0.7402 0.0000
vt 0.1709 0.6565 0.0000
vt 0.2059 0.6554 0.0000
vt 0.2153 0.7390 0.0000
vt 0.1123 0.6449 0.0000
vt 0.1119 0.6367 0.0000
vt 0.1644 0.6404 0.0000
vt 0.1651 0.6507 0.0000
vt 0.0057 0.6403 0.0000
vt 0.0197 0.6404 0.0000
vt 0.0594 0.6500 0.0000
vt 0.0594 0.6398 0.0000
vt 0.2041 0.6405 0.0000
vt 0.0538 0.6555 0.0000
vt 0.1116 0.6147 0.0000
vt 0.1641 0.6164 0.0000
vt 0.0591 0.6161 0.0000
vt 0.0196 0.6165 0.0000
vt 0.0057 0.6166 0.0000
vt 0.1114 0.5922 0.0000
vt 0.1638 0.5929 0.0000
vt 0.0589 0.5928 0.0000
vt 0.0195 0.5931 0.0000
vt 0.0057 0.5931 0.0000
vt 0.1114 0.5698 0.0000
vt 0.1637 0.5698 0.0000
vt 0.0589 0.5698 0.0000
vt 0.0195 0.5698 0.0000
vt 0.0057 0.5698 0.0000
vt 0.2167 0.7825 0.0000
vt 0.1824 0.7825 0.0000
vt 0.2032 0.9951 0.0000
vt 0.2032 0.5698 0.0000
vt 0.2129 0.9094 0.0000
vt 0.2236 0.7825 0.0000
vt 0.2223 0.8253 0.0000
vt 0.2128 0.6555 0.0000
vt 0.2223 0.7396 0.0000
vt 0.2316 0.7825 0.0000
vt 0.2305 0.8249 0.0000
vt 0.2202 0.9064 0.0000
vt 0.2201 0.6585 0.0000
vt 0.2305 0.7400 0.0000
vt 0.0490 0.8252 0.0000
vt 0.0485 0.7825 0.0000
vt 0.0490 0.7397 0.0000
vt 0.2211 0.5698 0.0000
vt 0.2211 0.6389 0.0000
vt 0.2262 0.6570 0.0000
vt 0.2374 0.7399 0.0000
vt 0.2385 0.7825 0.0000
vt 0.2374 0.8251 0.0000
vt 0.2263 0.9079 0.0000
vt 0.2211 0.9951 0.0000
vt 0.2211 0.6513 0.0000
vt 0.1661 0.9088 0.0000
vt 0.0593 0.9093 0.0000
vt 0.1661 0.6562 0.0000
vt 0.0593 0.6556 0.0000
vt 0.1762 0.8245 0.0000
vt 0.1127 0.9159 0.0000
vt 0.1762 0.7404 0.0000
vt 0.1127 0.6490 0.0000
vt 0.1772 0.7825 0.0000
vt 0.0528 0.8248 0.0000
vt 0.0524 0.7825 0.0000
vt 0.0528 0.7402 0.0000
vt 0.2211 0.9137 0.0000
vt 0.0642 0.6607 0.0000
vt 0.0640 0.7410 0.0000
vt 0.0638 0.7825 0.0000
vt 0.0642 0.9042 0.0000
vt 0.1131 0.9046 0.0000
vt 0.1621 0.9039 0.0000
vt 0.1642 0.8237 0.0000
vt 0.1620 0.6611 0.0000
vt 0.1131 0.6604 0.0000
vt 0.0640 0.8239 0.0000
vt 0.1646 0.7825 0.0000
vt 0.1642 0.7412 0.0000
vt 1.2032 0.5929 0.0000
vt 1.2034 0.6164 0.0000
vt 1.2211 0.6160 0.0000
vt 1.2211 0.5928 0.0000
vt 1.2042 0.9244 0.0000
vt 1.2034 0.9486 0.0000
vt 1.2211 0.9490 0.0000
vt 1.2211 0.9261 0.0000
vt 1.2033 0.9720 0.0000
vt 1.2211 0.9722 0.0000
vt 1.0057 0.8258 0.0000
vt 1.0058 0.9099 0.0000
vt 1.0189 0.9098 0.0000
vt 1.0162 0.8258 0.0000
vt 1.1811 0.8247 0.0000
vt 1.1709 0.9085 0.0000
vt 1.2059 0.9096 0.0000
vt 1.2153 0.8260 0.0000
vt 1.1123 0.9200 0.0000
vt 1.1119 0.9282 0.0000
vt 1.1644 0.9246 0.0000
vt 1.1652 0.9143 0.0000
vt 1.0058 0.9247 0.0000
vt 1.0197 0.9246 0.0000
vt 1.0594 0.9150 0.0000
vt 1.0594 0.9251 0.0000
vt 1.0539 0.9094 0.0000
vt 1.1116 0.9503 0.0000
vt 1.1641 0.9486 0.0000
vt 1.0591 0.9488 0.0000
vt 1.0196 0.9484 0.0000
vt 1.0058 0.9484 0.0000
vt 1.1114 0.9728 0.0000
vt 1.1638 0.9721 0.0000
vt 1.0590 0.9722 0.0000
vt 1.0195 0.9719 0.0000
vt 1.0058 0.9719 0.0000
vt 1.1114 0.9951 0.0000
vt 1.1638 0.9951 0.0000
vt 1.0589 0.9951 0.0000
vt 1.0195 0.9951 0.0000
vt 1.0058 0.9951 0.0000
vt 1.0057 0.7825 0.0000
vt 1.0159 0.7825 0.0000
vt 1.0057 0.7392 0.0000
vt 1.0162 0.7392 0.0000
vt 1.0189 0.6552 0.0000
vt 1.0057 0.6551 0.0000
vt 1.1811 0.7402 0.0000
vt 1.2153 0.7390 0.0000
vt 1.2059 0.6554 0.0000
vt 1.1709 0.6565 0.0000
vt 1.1123 0.6449 0.0000
vt 1.1651 0.6507 0.0000
vt 1.1644 0.6404 0.0000
vt 1.1119 0.6367 0.0000
vt 1.0197 0.6404 0.0000
vt 1.0057 0.6403 0.0000
vt 1.0594 0.6500 0.0000
vt 1.0594 0.6398 0.0000
vt 1.2041 0.6405 0.0000
vt 1.0538 0.6555 0.0000
vt 1.1641 0.6164 0.0000
vt 1.1116 0.6147 0.0000
vt 1.0591 0.6161 0.0000
vt 1.0196 0.6165 0.0000
vt 1.0057 0.6166 0.0000
vt 1.1638 0.5929 0.0000
vt 1.1114 0.5922 0.0000
vt 1.0589 0.5928 0.0000
vt 1.0195 0.5931 0.0000
vt 1.0057 0.5931 0.0000
vt 1.1637 0.5698 0.0000
vt 1.1114 0.5698 0.0000
vt 1.0589 0.5698 0.0000
vt 1.0195 0.5698 0.0000
vt 1.0057 0.5698 0.0000
vt 1.2167 0.7825 0.0000
vt 1.1824 0.7825 0.0000
vt 1.2032 0.9951 0.0000
vt 1.2032 0.5698 0.0000
vt 1.2129 0.9094 0.0000
vt 1.2223 0.8253 0.0000
vt 1.2236 0.7825 0.0000
vt 1.2223 0.7396 0.0000
vt 1.2128 0.6555 0.0000
vt 1.2305 0.8249 0.0000
vt 1.2316 0.7825 0.0000
vt 1.2202 0.9064 0.0000
vt 1.2305 0.7400 0.0000
vt 1.2201 0.6585 0.0000
vt 1.0490 0.8252 0.0000
vt 1.0485 0.7825 0.0000
vt 1.0490 0.7397 0.0000
vt 1.2211 0.5698 0.0000
vt 1.2211 0.6389 0.0000
vt 1.2374 0.7399 0.0000
vt 1.2262 0.6570 0.0000
vt 1.2385 0.7825 0.0000
vt 1.2374 0.8251 0.0000
vt 1.2263 0.9079 0.0000
vt 1.2211 0.9951 0.0000
vt 1.2211 0.6513 0.0000
vt 1.1661 0.9088 0.0000
vt 1.0593 0.9093 0.0000
vt 1.1661 0.6562 0.0000
vt 1.0592 0.6556 0.0000
vt 1.1762 0.8245 0.0000
vt 1.1127 0.9159 0.0000
vt 1.1762 0.7404 0.0000
vt 1.1127 0.6490 0.0000
vt 1.1772 0.7825 0.0000
vt 1.0528 0.8248 0.0000
vt 1.0524 0.7825 0.0000
vt 1.0528 0.7402 0.0000
vt 1.2211 0.9137 0.0000
vt 1.0642 0.6607 0.0000
vt 1.0640 0.7410 0.0000
vt 1.0638 0.7825 0.0000
vt 1.0642 0.9042 0.0000
vt 1.1131 0.9046 0.0000
vt 1.1621 0.9039 0.0000
vt 1.1642 0.8237 0.0000
vt 1.1620 0.6611 0.0000
vt 1.1131 0.6604 0.0000
vt 1.0640 0.8239 0.0000
vt 1.1646 0.7825 0.0000
vt 1.1642 0.7412 0.0000
# 256 texture coords

o sidewalls_hole2
g sidewalls_hole2
f 1/1/1 2/2/2 3/3/2 4/4/1 
f 5/5/1 6/6/2 7/7/2 8/8/1 
f 8/8/1 7/7/2 9/9/2 10/10/1 
f 11/11/3 12/12/3 13/13/3 14/14/3 
f 15/15/4 16/16/1 17/17/1 18/18/5 
f 19/19/6 20/20/7 21/21/3 22/22/3 
f 14/14/3 13/13/3 23/23/3 24/24/3 
f 25/25/8 19/19/6 22/22/3 26/26/3 
f 20/20/7 18/18/5 5/5/1 21/21/3 
f 23/23/3 13/13/3 27/27/9 
f 21/21/3 28/28/3 29/29/3 22/22/3 
f 22/22/3 29/29/3 30/30/3 26/26/3 
f 26/26/3 30/30/3 31/31/3 23/23/3 
f 23/23/3 31/31/3 32/32/3 24/24/3 
f 28/28/3 33/33/3 34/34/3 29/29/3 
f 29/29/3 34/34/3 35/35/3 30/30/3 
f 30/30/3 35/35/3 36/36/3 31/31/3 
f 31/31/3 36/36/3 37/37/3 32/32/3 
f 33/33/3 38/38/3 39/39/3 34/34/3 
f 34/34/3 39/39/3 40/40/3 35/35/3 
f 35/35/3 40/40/3 41/41/3 36/36/3 
f 36/36/3 41/41/3 42/42/3 37/37/3 
f 43/43/3 44/44/3 12/12/3 11/11/3 
f 45/45/3 46/46/3 47/47/3 48/48/3 
f 49/49/4 50/50/10 51/51/1 52/52/1 
f 53/53/11 54/54/3 55/55/3 56/56/12 
f 46/46/3 57/57/3 58/58/3 47/47/3 
f 59/59/13 60/60/3 54/54/3 53/53/11 
f 50/50/10 61/61/1 51/51/1 
f 58/58/3 60/60/3 59/59/13 62/62/14 
f 55/55/3 54/54/3 63/63/3 64/64/3 
f 54/54/3 60/60/3 65/65/3 63/63/3 
f 60/60/3 58/58/3 66/66/3 65/65/3 
f 58/58/3 57/57/3 67/67/3 66/66/3 
f 64/64/3 63/63/3 68/68/3 69/69/3 
f 63/63/3 65/65/3 70/70/3 68/68/3 
f 65/65/3 66/66/3 71/71/3 70/70/3 
f 66/66/3 67/67/3 72/72/3 71/71/3 
f 69/69/3 68/68/3 73/73/3 74/74/3 
f 68/68/3 70/70/3 75/75/3 73/73/3 
f 70/70/3 71/71/3 76/76/3 75/75/3 
f 71/71/3 72/72/3 77/77/3 76/76/3 
f 43/43/3 45/45/3 48/48/3 44/44/3 
f 78/78/1 16/16/1 15/15/4 79/79/4 
f 5/5/1 8/8/1 28/28/3 21/21/3 
f 8/8/1 10/10/1 33/33/3 28/28/3 
f 10/10/1 80/80/1 38/38/3 33/33/3 
f 52/52/1 78/78/1 79/79/4 49/49/4 
f 4/4/1 61/61/1 55/55/3 64/64/3 
f 1/1/1 4/4/1 64/64/3 69/69/3 
f 81/81/1 1/1/1 69/69/3 74/74/3 
f 82/82/15 5/5/1 17/17/1 
f 78/78/1 83/83/16 84/84/16 16/16/1 
f 16/16/1 84/84/16 82/82/15 17/17/1 
f 51/51/1 85/85/17 86/86/16 52/52/1 
f 52/52/1 86/86/16 83/83/16 78/78/1 
f 83/83/16 87/87/16 88/88/16 84/84/16 
f 84/84/16 88/88/16 89/89/18 82/82/15 
f 85/85/17 90/90/19 91/91/16 86/86/16 
f 86/86/16 91/91/16 87/87/16 83/83/16 
f 61/61/1 85/85/17 51/51/1 
f 12/12/3 92/92/20 27/27/9 13/13/3 
f 44/44/3 93/93/20 92/92/20 12/12/3 
f 48/48/3 94/94/20 93/93/20 44/44/3 
f 47/47/3 62/62/14 94/94/20 48/48/3 
f 81/81/1 95/95/2 2/2/2 1/1/1 
f 4/4/1 3/3/2 96/96/2 61/61/1 
f 90/90/19 97/97/21 98/98/2 91/91/16 
f 91/91/16 98/98/2 99/99/2 87/87/16 
f 87/87/16 99/99/2 100/100/2 88/88/16 
f 88/88/16 100/100/2 101/101/22 89/89/18 
f 10/10/1 9/9/2 102/102/2 80/80/1 
f 85/85/17 103/103/21 97/97/21 90/90/19 
f 61/61/1 96/96/2 103/103/21 85/85/17 
f 104/104/23 18/18/5 20/20/7 
f 105/105/24 25/25/8 27/27/9 
f 106/106/25 56/56/12 50/50/10 
f 107/107/26 62/62/14 59/59/13 
f 18/18/5 104/104/23 108/108/27 15/15/4 
f 19/19/6 109/109/28 104/104/23 20/20/7 
f 25/25/8 105/105/24 109/109/28 19/19/6 
f 49/49/4 110/110/27 106/106/25 50/50/10 
f 56/56/12 106/106/25 111/111/29 53/53/11 
f 53/53/11 111/111/29 107/107/26 59/59/13 
f 15/15/4 108/108/27 112/112/27 79/79/4 
f 79/79/4 112/112/27 110/110/27 49/49/4 
f 92/92/20 113/113/30 105/105/24 27/27/9 
f 93/93/20 114/114/30 113/113/30 92/92/20 
f 94/94/20 115/115/30 114/114/30 93/93/20 
f 62/62/14 107/107/26 115/115/30 94/94/20 
f 62/62/14 47/47/3 58/58/3 
f 50/50/10 56/56/12 55/55/3 61/61/1 
f 18/18/5 17/17/1 5/5/1 
f 27/27/9 25/25/8 26/26/3 23/23/3 
f 101/101/22 116/116/22 82/82/15 89/89/18 
f 116/116/22 6/6/2 5/5/1 82/82/15 
f 117/117/21 118/118/2 115/115/30 107/107/26 
f 118/118/2 119/119/2 114/114/30 115/115/30 
f 120/120/22 121/121/31 109/109/28 105/105/24 
f 121/121/31 122/122/32 104/104/23 109/109/28 
f 122/122/32 123/123/33 108/108/27 104/104/23 
f 124/124/34 125/125/35 111/111/29 106/106/25 
f 125/125/35 117/117/21 107/107/26 111/111/29 
f 119/119/2 126/126/2 113/113/30 114/114/30 
f 126/126/2 120/120/22 105/105/24 113/113/30 
f 123/123/33 127/127/33 112/112/27 108/108/27 
f 127/127/33 128/128/33 110/110/27 112/112/27 
f 128/128/33 124/124/34 106/106/25 110/110/27 
f 129/129/36 130/130/36 3/131/2 2/132/2 
f 131/133/36 132/134/36 7/135/2 6/136/2 
f 132/134/36 133/137/36 9/138/2 7/135/2 
f 134/139/37 135/140/37 136/141/37 137/142/37 
f 138/143/38 139/144/39 140/145/36 141/146/36 
f 142/147/40 143/148/37 144/149/37 145/150/41 
f 135/140/37 146/151/37 147/152/37 136/141/37 
f 148/153/42 149/154/37 143/148/37 142/147/40 
f 145/150/41 144/149/37 131/133/36 139/144/39 
f 147/152/37 150/155/43 136/141/37 
f 144/149/37 143/148/37 151/156/37 152/157/37 
f 143/148/37 149/154/37 153/158/37 151/156/37 
f 149/154/37 147/152/37 154/159/37 153/158/37 
f 147/152/37 146/151/37 155/160/37 154/159/37 
f 152/157/37 151/156/37 156/161/37 157/162/37 
f 151/156/37 153/158/37 158/163/37 156/161/37 
f 153/158/37 154/159/37 159/164/37 158/163/37 
f 154/159/37 155/160/37 160/165/37 159/164/37 
f 157/162/37 156/161/37 161/166/37 162/167/37 
f 156/161/37 158/163/37 163/168/37 161/166/37 
f 158/163/37 159/164/37 164/169/37 163/168/37 
f 159/164/37 160/165/37 165/170/37 164/169/37 
f 166/171/37 134/139/37 137/142/37 167/172/37 
f 168/173/37 169/174/37 170/175/37 171/176/37 
f 172/177/38 173/178/36 174/179/36 175/180/44 
f 176/181/45 177/182/46 178/183/37 179/184/37 
f 171/176/37 170/175/37 180/185/37 181/186/37 
f 182/187/47 176/181/45 179/184/37 183/188/37 
f 175/180/44 174/179/36 184/189/36 
f 180/185/37 185/190/48 182/187/47 183/188/37 
f 178/183/37 186/191/37 187/192/37 179/184/37 
f 179/184/37 187/192/37 188/193/37 183/188/37 
f 183/188/37 188/193/37 189/194/37 180/185/37 
f 180/185/37 189/194/37 190/195/37 181/186/37 
f 186/191/37 191/196/37 192/197/37 187/192/37 
f 187/192/37 192/197/37 193/198/37 188/193/37 
f 188/193/37 193/198/37 194/199/37 189/194/37 
f 189/194/37 194/199/37 195/200/37 190/195/37 
f 191/196/37 196/201/37 197/202/37 192/197/37 
f 192/197/37 197/202/37 198/203/37 193/198/37 
f 193/198/37 198/203/37 199/204/37 194/199/37 
f 194/199/37 199/204/37 200/205/37 195/200/37 
f 166/171/37 167/172/37 169/174/37 168/173/37 
f 201/206/36 202/207/38 138/143/38 141/146/36 
f 131/133/36 144/149/37 152/157/37 132/134/36 
f 132/134/36 152/157/37 157/162/37 133/137/36 
f 133/137/36 157/162/37 162/167/37 203/208/36 
f 173/178/36 172/177/38 202/207/38 201/206/36 
f 130/130/36 186/191/37 178/183/37 184/189/36 
f 129/129/36 191/196/37 186/191/37 130/130/36 
f 204/209/36 196/201/37 191/196/37 129/129/36 
f 205/210/49 140/145/36 131/133/36 
f 201/206/36 141/146/36 206/211/50 207/212/50 
f 141/146/36 140/145/36 205/210/49 206/211/50 
f 174/179/36 173/178/36 208/213/50 209/214/51 
f 173/178/36 201/206/36 207/212/50 208/213/50 
f 207/212/50 206/211/50 210/215/50 211/216/50 
f 206/211/50 205/210/49 212/217/52 210/215/50 
f 209/214/51 208/213/50 213/218/50 214/219/53 
f 208/213/50 207/212/50 211/216/50 213/218/50 
f 184/189/36 174/179/36 209/214/51 
f 137/142/37 136/141/37 150/155/43 215/220/54 
f 167/172/37 137/142/37 215/220/54 216/221/54 
f 169/174/37 167/172/37 216/221/54 217/222/54 
f 170/175/37 169/174/37 217/222/54 185/190/48 
f 204/209/36 129/129/36 2/132/2 95/223/2 
f 130/130/36 184/189/36 96/224/2 3/131/2 
f 214/219/53 213/218/50 98/225/2 97/226/21 
f 213/218/50 211/216/50 99/227/2 98/225/2 
f 211/216/50 210/215/50 100/228/2 99/227/2 
f 210/215/50 212/217/52 101/229/22 100/228/2 
f 133/137/36 203/208/36 102/230/2 9/138/2 
f 209/214/51 214/219/53 97/226/21 103/231/21 
f 184/189/36 209/214/51 103/231/21 96/224/2 
f 218/232/55 145/150/41 139/144/39 
f 219/233/56 150/155/43 148/153/42 
f 220/234/57 175/180/44 177/182/46 
f 221/235/58 182/187/47 185/190/48 
f 139/144/39 138/143/38 222/236/59 218/232/55 
f 142/147/40 145/150/41 218/232/55 223/237/60 
f 148/153/42 142/147/40 223/237/60 219/233/56 
f 172/177/38 175/180/44 220/234/57 224/238/59 
f 177/182/46 176/181/45 225/239/61 220/234/57 
f 176/181/45 182/187/47 221/235/58 225/239/61 
f 138/143/38 202/207/38 226/240/59 222/236/59 
f 202/207/38 172/177/38 224/238/59 226/240/59 
f 215/220/54 150/155/43 219/233/56 227/241/62 
f 216/221/54 215/220/54 227/241/62 228/242/62 
f 217/222/54 216/221/54 228/242/62 229/243/62 
f 185/190/48 217/222/54 229/243/62 221/235/58 
f 185/190/48 180/185/37 170/175/37 
f 175/180/44 184/189/36 178/183/37 177/182/46 
f 139/144/39 131/133/36 140/145/36 
f 150/155/43 147/152/37 149/154/37 148/153/42 
f 101/229/22 212/217/52 205/210/49 116/244/22 
f 116/244/22 205/210/49 131/133/36 6/136/2 
f 117/245/21 221/235/58 229/243/62 118/246/2 
f 118/246/2 229/243/62 228/242/62 119/247/2 
f 120/248/22 219/233/56 223/237/60 121/249/31 
f 121/249/31 223/237/60 218/232/55 122/250/32 
f 122/250/32 218/232/55 222/236/59 123/251/33 
f 124/252/34 220/234/57 225/239/61 125/253/35 
f 125/253/35 225/239/61 221/235/58 117/245/21 
f 119/247/2 228/242/62 227/241/62 126/254/2 
f 126/254/2 227/241/62 219/233/56 120/248/22 
f 123/251/33 222/236/59 226/240/59 127/255/33 
f 127/255/33 226/240/59 224/238/59 128/256/33 
f 128/256/33 224/238/59 220/234/57 124/252/34 
f 39/39/35 38/38/35 230/38/35 231/39/35 
f 40/40/35 39/39/35 231/39/35 232/40/35 
f 41/41/35 40/40/35 232/40/35 233/41/35 
f 42/42/35 41/41/35 233/41/35 234/42/35 
f 74/74/31 73/73/31 235/73/31 236/74/31 
f 73/73/31 75/75/31 237/75/31 235/73/31 
f 75/75/31 76/76/31 238/76/31 237/75/31 
f 76/76/31 77/77/31 239/77/31 238/76/31 
f 38/38/35 80/80/35 102/80/35 230/38/35 
f 81/81/31 74/74/31 236/74/31 95/81/31 
f 231/39/35 230/38/35 162/38/35 161/39/35 
f 232/40/35 231/39/35 161/39/35 163/40/35 
f 233/41/35 232/40/35 163/40/35 164/41/35 
f 234/42/35 233/41/35 164/41/35 165/42/35 
f 236/74/31 235/73/31 197/73/31 196/74/31 
f 235/73/31 237/75/31 198/75/31 197/73/31 
f 237/75/31 238/76/31 199/76/31 198/75/31 
f 238/76/31 239/77/31 200/77/31 199/76/31 
f 230/38/35 102/80/35 203/80/35 162/38/35 
f 95/81/31 236/74/31 196/74/31 204/81/31 
# 216 polygons - 20 triangles

