# 3ds Max Wavefront OBJ Exporter v0.97b - (c)2007 guruware
# File Created: 07.12.2019 15:15:56

#
# object backwalls_hole_single
#

v  -0.0000 5.2013 -0.0000
v  -0.0000 2.7987 -0.0000
v  -0.0000 2.7987 1.0000
v  -0.0000 5.2013 1.0000
v  1.0000 2.7987 1.0000
v  1.0000 5.2013 1.0000
v  1.3026 2.7987 1.0000
v  1.3026 5.2013 1.0000
v  -0.0000 0.3960 -0.0000
v  -0.0000 0.0000 -0.0000
v  -0.0000 0.0000 1.0000
v  -0.0000 0.3960 1.0000
v  -0.0000 7.6040 1.0000
v  -0.0000 8.0000 1.0000
v  -0.0000 8.0000 -0.0000
v  -0.0000 7.6040 -0.0000
v  4.4620 0.0000 1.0000
v  5.8605 0.0000 1.0000
v  5.8605 0.3960 1.0000
v  4.4620 0.3960 1.0000
v  1.0000 0.0000 1.0000
v  1.0000 0.3960 1.0000
v  1.0000 7.6040 1.0000
v  1.0000 8.0000 1.0000
v  1.3026 0.0000 1.0000
v  1.3026 0.3960 1.0000
v  1.3026 7.6040 1.0000
v  1.3026 8.0000 1.0000
v  4.4620 5.2013 1.0000
v  3.5816 5.2013 1.0000
v  3.5816 2.7987 1.0000
v  4.4620 2.7987 1.0000
v  4.4620 8.0000 1.0000
v  3.5816 8.0000 1.0000
v  3.5816 7.6040 1.0000
v  4.4620 7.6040 1.0000
v  5.8605 8.0000 1.0000
v  5.8605 7.6040 1.0000
v  3.5816 0.3960 1.0000
v  3.5816 0.0000 1.0000
v  4.6412 0.5752 0.6536
v  5.8605 0.5752 0.6536
v  5.8605 0.5752 0.3464
v  4.6412 0.5752 0.3464
v  7.0000 0.5752 0.6536
v  7.0000 0.5752 0.3464
v  5.8605 7.4248 0.6536
v  4.6412 7.4248 0.6536
v  4.6412 7.4248 0.3464
v  5.8605 7.4248 0.3464
v  4.6412 5.2013 0.6536
v  4.6412 5.2013 0.3464
v  4.6412 2.7987 0.6536
v  4.6412 2.7987 0.3464
v  4.4620 7.6040 0.7969
v  5.8605 7.6040 0.7969
v  4.4620 5.2013 0.7969
v  4.4620 2.7987 0.7969
v  4.4620 0.3960 0.7969
v  5.8605 0.3960 0.7969
v  5.8605 0.3960 -0.0000
v  4.4620 0.3960 -0.0000
v  4.4620 0.3960 0.2031
v  5.8605 0.3960 0.2031
v  4.4620 2.7987 -0.0000
v  4.4620 2.7987 0.2031
v  4.4620 5.2013 -0.0000
v  4.4620 5.2013 0.2031
v  4.4620 7.6040 -0.0000
v  4.4620 7.6040 0.2031
v  5.8605 7.6040 -0.0000
v  5.8605 7.6040 0.2031
v  7.0000 0.3960 0.7969
v  7.0000 7.6040 1.0000
v  7.0000 8.0000 1.0000
v  7.0000 7.4248 0.3464
v  7.0000 7.4248 0.6536
v  7.0000 0.3960 0.2031
v  7.0000 0.3960 -0.0000
v  7.0000 7.6040 0.7969
v  7.0000 0.3960 1.0000
v  7.0000 0.0000 1.0000
v  7.0000 7.6040 0.2031
v  7.0000 7.6040 -0.0000
v  14.0000 5.2013 -0.0000
v  14.0000 5.2013 1.0000
v  14.0000 2.7987 1.0000
v  14.0000 2.7987 -0.0000
v  13.0000 5.2013 1.0000
v  13.0000 2.7987 1.0000
v  12.6974 5.2013 1.0000
v  12.6974 2.7987 1.0000
v  14.0000 0.3960 -0.0000
v  14.0000 0.3960 1.0000
v  14.0000 0.0000 1.0000
v  14.0000 0.0000 -0.0000
v  14.0000 7.6040 1.0000
v  14.0000 7.6040 -0.0000
v  14.0000 8.0000 -0.0000
v  14.0000 8.0000 1.0000
v  9.5380 0.0000 1.0000
v  9.5380 0.3960 1.0000
v  8.1395 0.3960 1.0000
v  8.1395 0.0000 1.0000
v  13.0000 0.3960 1.0000
v  13.0000 0.0000 1.0000
v  13.0000 7.6040 1.0000
v  13.0000 8.0000 1.0000
v  12.6974 0.3960 1.0000
v  12.6974 0.0000 1.0000
v  12.6974 7.6040 1.0000
v  12.6974 8.0000 1.0000
v  9.5380 5.2013 1.0000
v  9.5380 2.7987 1.0000
v  10.4184 2.7987 1.0000
v  10.4184 5.2013 1.0000
v  9.5380 8.0000 1.0000
v  9.5380 7.6040 1.0000
v  10.4184 7.6040 1.0000
v  10.4184 8.0000 1.0000
v  8.1395 8.0000 1.0000
v  8.1395 7.6040 1.0000
v  10.4184 0.0000 1.0000
v  10.4184 0.3960 1.0000
v  9.3588 0.5752 0.6536
v  9.3588 0.5752 0.3464
v  8.1395 0.5752 0.3464
v  8.1395 0.5752 0.6536
v  8.1395 7.4248 0.6536
v  8.1395 7.4248 0.3464
v  9.3588 7.4248 0.3464
v  9.3588 7.4248 0.6536
v  9.3588 5.2013 0.3464
v  9.3588 5.2013 0.6536
v  9.3588 2.7987 0.3464
v  9.3588 2.7987 0.6536
v  8.1395 7.6040 0.7969
v  9.5380 7.6040 0.7969
v  9.5380 5.2013 0.7969
v  9.5380 2.7987 0.7969
v  9.5380 0.3960 0.7969
v  8.1395 0.3960 0.7969
v  8.1395 0.3960 -0.0000
v  8.1395 0.3960 0.2031
v  9.5380 0.3960 0.2031
v  9.5380 0.3960 -0.0000
v  9.5380 2.7987 0.2031
v  9.5380 2.7987 -0.0000
v  9.5380 5.2013 0.2031
v  9.5380 5.2013 -0.0000
v  9.5380 7.6040 0.2031
v  9.5380 7.6040 -0.0000
v  8.1395 7.6040 0.2031
v  8.1395 7.6040 -0.0000
# 154 vertices

vn -1.0000 0.0000 -0.0000
vn -0.7071 0.0000 0.7071
vn 0.0000 0.0000 1.0000
vn 0.0000 0.7071 0.7071
vn 0.3015 0.3015 0.9045
vn 0.7071 0.0000 0.7071
vn 0.3015 -0.3015 0.9045
vn 0.0000 -0.7071 0.7071
vn 0.5436 0.5436 0.6395
vn -0.0000 0.9013 0.4333
vn -0.0000 0.9013 -0.4333
vn 0.5436 0.5436 -0.6395
vn 0.0000 -0.9013 0.4332
vn 0.5436 -0.5436 0.6395
vn 0.5436 -0.5436 -0.6395
vn 0.0000 -0.9013 -0.4332
vn 0.9013 0.0000 0.4332
vn 0.9013 0.0000 -0.4332
vn 0.6402 -0.6402 0.4246
vn 0.6402 0.6402 0.4246
vn 0.0000 0.9013 0.4333
vn 0.0000 1.0000 -0.0000
vn 0.7071 0.7071 -0.0000
vn 0.6402 0.6402 -0.4246
vn 0.0000 0.9013 -0.4333
vn 1.0000 0.0000 -0.0000
vn 0.7071 -0.7071 -0.0000
vn 0.6402 -0.6402 -0.4246
vn 0.0000 -1.0000 -0.0000
vn -0.3015 0.3015 0.9045
vn -0.3015 -0.3015 0.9045
vn -0.5436 0.5436 0.6395
vn -0.5436 0.5436 -0.6395
vn 0.0000 0.9013 -0.4332
vn 0.0000 0.9013 0.4332
vn -0.5436 -0.5436 -0.6395
vn -0.5436 -0.5436 0.6395
vn -0.9013 0.0000 -0.4332
vn -0.9013 0.0000 0.4332
vn -0.6402 -0.6402 0.4246
vn -0.6402 0.6402 0.4246
vn -0.6402 0.6402 -0.4246
vn -0.7071 0.7071 -0.0000
vn -0.6402 -0.6402 -0.4246
vn -0.7071 -0.7071 -0.0000
# 45 vertex normals

vt 0.3089 0.2820 0.0000
vt 0.3088 0.1936 0.0000
vt 0.3456 0.1936 0.0000
vt 0.3456 0.2820 0.0000
vt 0.3824 0.1936 0.0000
vt 0.3824 0.2820 0.0000
vt 0.3935 0.1936 0.0000
vt 0.3935 0.2819 0.0000
vt 0.3088 0.1053 0.0000
vt 0.3088 0.0907 0.0000
vt 0.3455 0.0907 0.0000
vt 0.3455 0.1052 0.0000
vt 0.3456 0.3703 0.0000
vt 0.3456 0.3849 0.0000
vt 0.3088 0.3849 0.0000
vt 0.3088 0.3703 0.0000
vt 0.5096 0.0906 0.0000
vt 0.5610 0.0904 0.0000
vt 0.5611 0.1049 0.0000
vt 0.5097 0.1051 0.0000
vt 0.3823 0.0906 0.0000
vt 0.3823 0.1052 0.0000
vt 0.3824 0.3703 0.0000
vt 0.3824 0.3849 0.0000
vt 0.3934 0.0907 0.0000
vt 0.3935 0.1052 0.0000
vt 0.3935 0.3703 0.0000
vt 0.3935 0.3849 0.0000
vt 0.5098 0.2819 0.0000
vt 0.4774 0.2819 0.0000
vt 0.4773 0.1936 0.0000
vt 0.5097 0.1935 0.0000
vt 0.5097 0.3849 0.0000
vt 0.4773 0.3849 0.0000
vt 0.4773 0.3703 0.0000
vt 0.5097 0.3703 0.0000
vt 0.5611 0.3851 0.0000
vt 0.5612 0.3705 0.0000
vt 0.4773 0.1052 0.0000
vt 0.4773 0.0906 0.0000
vt 0.2928 0.0611 0.0000
vt 0.3329 0.0611 0.0000
vt 0.3329 0.0703 0.0000
vt 0.2928 0.0703 0.0000
vt 0.3671 0.0611 0.0000
vt 0.3671 0.0703 0.0000
vt 0.0403 0.0611 0.0000
vt 0.0804 0.0611 0.0000
vt 0.0804 0.0703 0.0000
vt 0.0403 0.0703 0.0000
vt 0.1506 0.0611 0.0000
vt 0.1506 0.0703 0.0000
vt 0.2226 0.0611 0.0000
vt 0.2226 0.0703 0.0000
vt 0.0403 0.0481 0.0000
vt 0.0804 0.0481 0.0000
vt 0.0804 0.0542 0.0000
vt 0.0403 0.0542 0.0000
vt 0.1506 0.0481 0.0000
vt 0.1506 0.0542 0.0000
vt 0.2226 0.0481 0.0000
vt 0.2226 0.0542 0.0000
vt 0.2928 0.0481 0.0000
vt 0.2928 0.0542 0.0000
vt 0.3329 0.0481 0.0000
vt 0.3329 0.0542 0.0000
vt 0.3329 0.0833 0.0000
vt 0.2928 0.0833 0.0000
vt 0.2928 0.0772 0.0000
vt 0.3329 0.0772 0.0000
vt 0.2226 0.0833 0.0000
vt 0.2226 0.0772 0.0000
vt 0.1506 0.0833 0.0000
vt 0.1506 0.0772 0.0000
vt 0.0804 0.0833 0.0000
vt 0.0804 0.0772 0.0000
vt 0.0403 0.0833 0.0000
vt 0.0403 0.0772 0.0000
vt 0.3671 0.0542 0.0000
vt 0.6031 0.3708 0.0000
vt 0.6030 0.3853 0.0000
vt 0.0061 0.0703 0.0000
vt 0.0061 0.0611 0.0000
vt 0.3671 0.0772 0.0000
vt 0.3671 0.0833 0.0000
vt 0.0061 0.0542 0.0000
vt 0.0061 0.0481 0.0000
vt 0.6030 0.1047 0.0000
vt 0.6029 0.0901 0.0000
vt 0.3671 0.0481 0.0000
vt 0.0061 0.0772 0.0000
vt 0.0061 0.0833 0.0000
vt 1.3089 0.2820 0.0000
vt 1.3456 0.2820 0.0000
vt 1.3456 0.1936 0.0000
vt 1.3088 0.1936 0.0000
vt 1.3824 0.2820 0.0000
vt 1.3824 0.1936 0.0000
vt 1.3935 0.2819 0.0000
vt 1.3935 0.1936 0.0000
vt 1.3088 0.1053 0.0000
vt 1.3455 0.1052 0.0000
vt 1.3455 0.0907 0.0000
vt 1.3088 0.0907 0.0000
vt 1.3456 0.3703 0.0000
vt 1.3088 0.3703 0.0000
vt 1.3088 0.3849 0.0000
vt 1.3456 0.3849 0.0000
vt 1.5096 0.0906 0.0000
vt 1.5097 0.1051 0.0000
vt 1.5611 0.1049 0.0000
vt 1.5610 0.0904 0.0000
vt 1.3823 0.1052 0.0000
vt 1.3823 0.0906 0.0000
vt 1.3824 0.3703 0.0000
vt 1.3824 0.3849 0.0000
vt 1.3935 0.1052 0.0000
vt 1.3934 0.0907 0.0000
vt 1.3935 0.3703 0.0000
vt 1.3935 0.3849 0.0000
vt 1.5098 0.2819 0.0000
vt 1.5097 0.1935 0.0000
vt 1.4773 0.1936 0.0000
vt 1.4774 0.2819 0.0000
vt 1.5097 0.3849 0.0000
vt 1.5097 0.3703 0.0000
vt 1.4773 0.3703 0.0000
vt 1.4773 0.3849 0.0000
vt 1.5611 0.3851 0.0000
vt 1.5612 0.3705 0.0000
vt 1.4773 0.0906 0.0000
vt 1.4773 0.1052 0.0000
vt 1.2928 0.0611 0.0000
vt 1.2928 0.0703 0.0000
vt 1.3329 0.0703 0.0000
vt 1.3329 0.0611 0.0000
vt 1.3671 0.0703 0.0000
vt 1.3671 0.0611 0.0000
vt 1.0403 0.0611 0.0000
vt 1.0403 0.0703 0.0000
vt 1.0804 0.0703 0.0000
vt 1.0804 0.0611 0.0000
vt 1.1506 0.0703 0.0000
vt 1.1506 0.0611 0.0000
vt 1.2226 0.0703 0.0000
vt 1.2226 0.0611 0.0000
vt 1.0403 0.0481 0.0000
vt 1.0403 0.0542 0.0000
vt 1.0804 0.0542 0.0000
vt 1.0804 0.0481 0.0000
vt 1.1506 0.0542 0.0000
vt 1.1506 0.0481 0.0000
vt 1.2226 0.0542 0.0000
vt 1.2226 0.0481 0.0000
vt 1.2928 0.0542 0.0000
vt 1.2928 0.0481 0.0000
vt 1.3329 0.0542 0.0000
vt 1.3329 0.0481 0.0000
vt 1.3329 0.0833 0.0000
vt 1.3329 0.0772 0.0000
vt 1.2928 0.0772 0.0000
vt 1.2928 0.0833 0.0000
vt 1.2226 0.0772 0.0000
vt 1.2226 0.0833 0.0000
vt 1.1506 0.0772 0.0000
vt 1.1506 0.0833 0.0000
vt 1.0804 0.0772 0.0000
vt 1.0804 0.0833 0.0000
vt 1.0403 0.0772 0.0000
vt 1.0403 0.0833 0.0000
vt 1.3671 0.0542 0.0000
vt 1.6030 0.3853 0.0000
vt 1.6031 0.3708 0.0000
vt 1.0061 0.0611 0.0000
vt 1.0061 0.0703 0.0000
vt 1.3671 0.0833 0.0000
vt 1.3671 0.0772 0.0000
vt 1.0061 0.0542 0.0000
vt 1.0061 0.0481 0.0000
vt 1.6030 0.1047 0.0000
vt 1.6029 0.0901 0.0000
vt 1.3671 0.0481 0.0000
vt 1.0061 0.0772 0.0000
vt 1.0061 0.0833 0.0000
# 184 texture coords

o backwalls_hole_single
g backwalls_hole_single
f 1/1/1 2/2/1 3/3/2 4/4/2 
f 4/4/2 3/3/2 5/5/3 6/6/3 
f 6/6/3 5/5/3 7/7/3 8/8/3 
f 9/9/1 10/10/1 11/11/2 12/12/2 
f 2/2/1 9/9/1 12/12/2 3/3/2 
f 13/13/2 14/14/2 15/15/1 16/16/1 
f 4/4/2 13/13/2 16/16/1 1/1/1 
f 17/17/3 18/18/3 19/19/4 20/20/5 
f 12/12/2 11/11/2 21/21/3 22/22/3 
f 3/3/2 12/12/2 22/22/3 5/5/3 
f 23/23/3 24/24/3 14/14/2 13/13/2 
f 6/6/3 23/23/3 13/13/2 4/4/2 
f 22/22/3 21/21/3 25/25/3 26/26/3 
f 5/5/3 22/22/3 26/26/3 7/7/3 
f 27/27/3 28/28/3 24/24/3 23/23/3 
f 8/8/3 27/27/3 23/23/3 6/6/3 
f 29/29/6 30/30/3 31/31/3 32/32/6 
f 33/33/3 34/34/3 35/35/3 36/36/7 
f 37/37/3 33/33/3 36/36/7 38/38/8 
f 36/36/7 35/35/3 30/30/3 29/29/6 
f 20/20/5 39/39/3 40/40/3 17/17/3 
f 32/32/6 31/31/3 39/39/3 20/20/5 
f 41/41/9 42/42/10 43/43/11 44/44/12 
f 42/42/10 45/45/10 46/46/11 43/43/11 
f 47/47/13 48/48/14 49/49/15 50/50/16 
f 48/48/14 51/51/17 52/52/18 49/49/15 
f 51/51/17 53/53/17 54/54/18 52/52/18 
f 53/53/17 41/41/9 44/44/12 54/54/18 
f 38/55/8 36/56/7 55/57/19 56/58/13 
f 36/56/7 29/59/6 57/60/17 55/57/19 
f 29/59/6 32/61/6 58/62/17 57/60/17 
f 32/61/6 20/63/5 59/64/20 58/62/17 
f 20/63/5 19/65/4 60/66/21 59/64/20 
f 61/67/22 62/68/23 63/69/24 64/70/25 
f 62/68/23 65/71/26 66/72/18 63/69/24 
f 65/71/26 67/73/26 68/74/18 66/72/18 
f 67/73/26 69/75/27 70/76/28 68/74/18 
f 69/75/27 71/77/29 72/78/16 70/76/28 
f 56/58/13 55/57/19 48/48/14 47/47/13 
f 55/57/19 57/60/17 51/51/17 48/48/14 
f 57/60/17 58/62/17 53/53/17 51/51/17 
f 58/62/17 59/64/20 41/41/9 53/53/17 
f 59/64/20 60/66/21 42/42/10 41/41/9 
f 60/66/21 73/79/21 45/45/10 42/42/10 
f 64/70/25 63/69/24 44/44/12 43/43/11 
f 63/69/24 66/72/18 54/54/18 44/44/12 
f 66/72/18 68/74/18 52/52/18 54/54/18 
f 68/74/18 70/76/28 49/49/15 52/52/18 
f 70/76/28 72/78/16 50/50/16 49/49/15 
f 37/37/3 38/38/8 74/80/8 75/81/3 
f 47/47/13 50/50/16 76/82/16 77/83/13 
f 61/67/22 64/70/25 78/84/25 79/85/22 
f 56/58/13 47/47/13 77/83/13 80/86/13 
f 64/70/25 43/43/11 46/46/11 78/84/25 
f 38/55/8 56/58/13 80/86/13 74/87/8 
f 30/30/3 8/8/3 7/7/3 31/31/3 
f 34/34/3 28/28/3 27/27/3 35/35/3 
f 35/35/3 27/27/3 8/8/3 30/30/3 
f 39/39/3 26/26/3 25/25/3 40/40/3 
f 31/31/3 7/7/3 26/26/3 39/39/3 
f 81/88/4 19/19/4 18/18/3 82/89/3 
f 73/79/21 60/66/21 19/65/4 81/90/4 
f 83/91/16 72/78/16 71/77/29 84/92/29 
f 76/82/16 50/50/16 72/78/16 83/91/16 
f 85/93/26 86/94/6 87/95/6 88/96/26 
f 86/94/6 89/97/3 90/98/3 87/95/6 
f 89/97/3 91/99/3 92/100/3 90/98/3 
f 93/101/26 94/102/6 95/103/6 96/104/26 
f 88/96/26 87/95/6 94/102/6 93/101/26 
f 97/105/6 98/106/26 99/107/26 100/108/6 
f 86/94/6 85/93/26 98/106/26 97/105/6 
f 101/109/3 102/110/30 103/111/4 104/112/3 
f 94/102/6 105/113/3 106/114/3 95/103/6 
f 87/95/6 90/98/3 105/113/3 94/102/6 
f 107/115/3 97/105/6 100/108/6 108/116/3 
f 89/97/3 86/94/6 97/105/6 107/115/3 
f 105/113/3 109/117/3 110/118/3 106/114/3 
f 90/98/3 92/100/3 109/117/3 105/113/3 
f 111/119/3 107/115/3 108/116/3 112/120/3 
f 91/99/3 89/97/3 107/115/3 111/119/3 
f 113/121/2 114/122/2 115/123/3 116/124/3 
f 117/125/3 118/126/31 119/127/3 120/128/3 
f 121/129/3 122/130/8 118/126/31 117/125/3 
f 118/126/31 113/121/2 116/124/3 119/127/3 
f 102/110/30 101/109/3 123/131/3 124/132/3 
f 114/122/2 102/110/30 124/132/3 115/123/3 
f 125/133/32 126/134/33 127/135/34 128/136/35 
f 128/136/35 127/135/34 46/137/11 45/138/10 
f 129/139/13 130/140/16 131/141/36 132/142/37 
f 132/142/37 131/141/36 133/143/38 134/144/39 
f 134/144/39 133/143/38 135/145/38 136/146/39 
f 136/146/39 135/145/38 126/134/33 125/133/32 
f 122/147/8 137/148/13 138/149/40 118/150/31 
f 118/150/31 138/149/40 139/151/39 113/152/2 
f 113/152/2 139/151/39 140/153/39 114/154/2 
f 114/154/2 140/153/39 141/155/41 102/156/30 
f 102/156/30 141/155/41 142/157/35 103/158/4 
f 143/159/22 144/160/34 145/161/42 146/162/43 
f 146/162/43 145/161/42 147/163/38 148/164/1 
f 148/164/1 147/163/38 149/165/38 150/166/1 
f 150/166/1 149/165/38 151/167/44 152/168/45 
f 152/168/45 151/167/44 153/169/16 154/170/29 
f 137/148/13 129/139/13 132/142/37 138/149/40 
f 138/149/40 132/142/37 134/144/39 139/151/39 
f 139/151/39 134/144/39 136/146/39 140/153/39 
f 140/153/39 136/146/39 125/133/32 141/155/41 
f 141/155/41 125/133/32 128/136/35 142/157/35 
f 142/157/35 128/136/35 45/138/10 73/171/21 
f 144/160/34 127/135/34 126/134/33 145/161/42 
f 145/161/42 126/134/33 135/145/38 147/163/38 
f 147/163/38 135/145/38 133/143/38 149/165/38 
f 149/165/38 133/143/38 131/141/36 151/167/44 
f 151/167/44 131/141/36 130/140/16 153/169/16 
f 121/129/3 75/172/3 74/173/8 122/130/8 
f 129/139/13 77/174/13 76/175/16 130/140/16 
f 143/159/22 79/176/22 78/177/25 144/160/34 
f 137/148/13 80/178/13 77/174/13 129/139/13 
f 144/160/34 78/177/25 46/137/11 127/135/34 
f 122/147/8 74/179/8 80/178/13 137/148/13 
f 116/124/3 115/123/3 92/100/3 91/99/3 
f 120/128/3 119/127/3 111/119/3 112/120/3 
f 119/127/3 116/124/3 91/99/3 111/119/3 
f 124/132/3 123/131/3 110/118/3 109/117/3 
f 115/123/3 124/132/3 109/117/3 92/100/3 
f 81/180/4 82/181/3 104/112/3 103/111/4 
f 73/171/21 81/182/4 103/158/4 142/157/35 
f 83/183/16 84/184/29 154/170/29 153/169/16 
f 76/175/16 83/183/16 153/169/16 130/140/16 
# 128 polygons

