# 3ds Max Wavefront OBJ Exporter v0.97b - (c)2007 guruware
# File Created: 07.12.2019 15:15:55

#
# object backwalls_checker
#

v  0.0000 5.2013 -0.0000
v  0.0000 2.7987 -0.0000
v  0.0000 2.7987 1.0000
v  0.0000 5.2013 1.0000
v  1.0000 2.7987 1.0000
v  1.0000 5.2013 1.0000
v  1.3026 2.7987 1.0000
v  1.3026 5.2013 1.0000
v  0.0000 0.3960 -0.0000
v  0.0000 -0.0000 -0.0000
v  0.0000 -0.0000 1.0000
v  0.0000 0.3960 1.0000
v  0.0000 7.6040 1.0000
v  0.0000 8.0000 1.0000
v  0.0000 8.0000 -0.0000
v  0.0000 7.6040 -0.0000
v  3.5816 -0.0000 1.0000
v  5.8605 -0.0000 1.0000
v  5.8605 0.3960 1.0000
v  3.5816 0.3960 1.0000
v  5.8605 2.7987 1.0000
v  3.5816 2.7987 1.0000
v  1.0000 -0.0000 1.0000
v  1.0000 0.3960 1.0000
v  1.0000 7.6040 1.0000
v  1.0000 8.0000 1.0000
v  1.3026 -0.0000 1.0000
v  1.3026 0.3960 1.0000
v  1.3026 7.6040 1.0000
v  1.3026 8.0000 1.0000
v  3.5816 5.2013 1.0000
v  5.6100 4.9508 0.1582
v  3.8321 4.9508 0.1582
v  3.8321 3.0492 0.1582
v  5.6100 3.0492 0.1582
v  3.5816 8.0000 1.0000
v  3.5816 7.6040 1.0000
v  5.8605 8.0000 1.0000
v  5.8605 7.6040 1.0000
v  3.3311 7.3535 0.1621
v  1.5531 7.3535 0.1621
v  1.5531 5.4518 0.1621
v  3.3311 5.4518 0.1621
v  5.8605 5.2013 1.0000
v  7.0000 -0.0000 1.0000
v  7.0000 0.3960 1.0000
v  6.1110 0.6465 -0.5327
v  7.0000 0.6465 -0.5327
v  7.0000 2.5482 -0.5327
v  6.1110 2.5482 -0.5327
v  3.3311 2.5482 0.6776
v  1.5531 2.5482 0.6776
v  1.5531 0.6465 0.6776
v  3.3311 0.6465 0.6776
v  6.1110 5.4518 1.0000
v  6.1110 7.3535 1.0000
v  7.0000 5.2013 1.0000
v  7.0000 5.4518 1.0000
v  3.8321 4.9508 1.0000
v  5.6100 4.9508 1.0000
v  3.8321 3.0492 1.0000
v  5.6100 3.0492 1.0000
v  1.5531 5.4518 1.0000
v  1.5531 7.3535 1.0000
v  3.3311 5.4518 1.0000
v  3.3311 7.3535 1.0000
v  7.0000 0.6465 1.0000
v  6.1110 0.6465 1.0000
v  6.1110 2.5482 1.0000
v  1.5531 0.6465 1.0000
v  1.5531 2.5482 1.0000
v  3.3311 0.6465 1.0000
v  3.3311 2.5482 1.0000
v  6.1110 5.4518 -0.4928
v  6.1110 7.3535 -0.4928
v  7.0000 5.4518 -0.4928
v  7.0000 2.7987 1.0000
v  7.0000 8.0000 1.0000
v  7.0000 7.6040 1.0000
v  7.0000 7.3535 -0.4928
v  7.0000 7.3535 1.0000
v  7.0000 2.5482 1.0000
v  14.0000 5.2013 -0.0000
v  14.0000 5.2013 1.0000
v  14.0000 2.7987 1.0000
v  14.0000 2.7987 -0.0000
v  13.0000 5.2013 1.0000
v  13.0000 2.7987 1.0000
v  12.6974 5.2013 1.0000
v  12.6974 2.7987 1.0000
v  14.0000 0.3960 -0.0000
v  14.0000 0.3960 1.0000
v  14.0000 -0.0000 1.0000
v  14.0000 -0.0000 -0.0000
v  14.0000 7.6040 1.0000
v  14.0000 7.6040 -0.0000
v  14.0000 8.0000 -0.0000
v  14.0000 8.0000 1.0000
v  10.4184 -0.0000 1.0000
v  10.4184 0.3960 1.0000
v  8.1395 0.3960 1.0000
v  8.1395 -0.0000 1.0000
v  10.4184 2.7987 1.0000
v  8.1395 2.7987 1.0000
v  13.0000 0.3960 1.0000
v  13.0000 -0.0000 1.0000
v  13.0000 7.6040 1.0000
v  13.0000 8.0000 1.0000
v  12.6974 0.3960 1.0000
v  12.6974 -0.0000 1.0000
v  12.6974 7.6040 1.0000
v  12.6974 8.0000 1.0000
v  10.4184 5.2013 1.0000
v  8.3900 4.9508 0.1582
v  8.3900 3.0492 0.1582
v  10.1679 3.0492 0.1582
v  10.1679 4.9508 0.1582
v  10.4184 8.0000 1.0000
v  10.4184 7.6040 1.0000
v  8.1395 8.0000 1.0000
v  8.1395 7.6040 1.0000
v  10.6689 7.3535 0.1621
v  10.6689 5.4518 0.1621
v  12.4469 5.4518 0.1621
v  12.4469 7.3535 0.1621
v  8.1395 5.2013 1.0000
v  7.8890 0.6465 -0.5327
v  7.8890 2.5482 -0.5327
v  10.6689 2.5482 0.6776
v  10.6689 0.6465 0.6776
v  12.4469 0.6465 0.6776
v  12.4469 2.5482 0.6776
v  7.8890 7.3535 1.0000
v  7.8890 5.4518 1.0000
v  8.3900 4.9508 1.0000
v  10.1679 4.9508 1.0000
v  10.1679 3.0492 1.0000
v  8.3900 3.0492 1.0000
v  12.4469 7.3535 1.0000
v  12.4469 5.4518 1.0000
v  10.6689 5.4518 1.0000
v  10.6689 7.3535 1.0000
v  7.8890 0.6465 1.0000
v  7.8890 2.5482 1.0000
v  12.4469 2.5482 1.0000
v  12.4469 0.6465 1.0000
v  10.6689 0.6465 1.0000
v  10.6689 2.5482 1.0000
v  7.8890 7.3535 -0.4928
v  7.8890 5.4518 -0.4928
# 150 vertices

vn -1.0000 0.0000 -0.0000
vn -0.7071 0.0000 0.7071
vn 0.0000 0.0000 1.0000
vn -0.5774 -0.5774 0.5774
vn 0.5774 -0.5774 0.5774
vn 0.5774 0.5774 0.5774
vn -0.5774 0.5774 0.5774
vn -0.0000 0.7071 0.7071
vn 0.0000 -0.7071 0.7071
vn 0.3015 0.3015 0.9045
vn 0.3015 -0.3015 0.9045
vn 0.0000 0.7071 0.7071
vn -0.3015 -0.3015 0.9045
vn -0.3015 0.3015 0.9045
vn 1.0000 0.0000 -0.0000
vn 0.7071 0.0000 0.7071
# 16 vertex normals

vt 0.3058 0.8912 0.0000
vt 0.3058 0.8030 0.0000
vt 0.3425 0.8030 0.0000
vt 0.3425 0.8912 0.0000
vt 0.3792 0.8030 0.0000
vt 0.3792 0.8912 0.0000
vt 0.3903 0.8030 0.0000
vt 0.3903 0.8912 0.0000
vt 0.3058 0.7149 0.0000
vt 0.3058 0.7003 0.0000
vt 0.3425 0.7003 0.0000
vt 0.3425 0.7149 0.0000
vt 0.3425 0.9793 0.0000
vt 0.3425 0.9939 0.0000
vt 0.3058 0.9939 0.0000
vt 0.3058 0.9793 0.0000
vt 0.4739 0.7003 0.0000
vt 0.5575 0.7004 0.0000
vt 0.5575 0.7149 0.0000
vt 0.4739 0.7149 0.0000
vt 0.5575 0.8030 0.0000
vt 0.4739 0.8030 0.0000
vt 0.3792 0.7003 0.0000
vt 0.3792 0.7149 0.0000
vt 0.3792 0.9793 0.0000
vt 0.3792 0.9939 0.0000
vt 0.3903 0.7003 0.0000
vt 0.3903 0.7149 0.0000
vt 0.3903 0.9793 0.0000
vt 0.3903 0.9939 0.0000
vt 0.4739 0.8912 0.0000
vt 0.7529 0.8837 0.0000
vt 0.6850 0.8837 0.0000
vt 0.6850 0.8110 0.0000
vt 0.7529 0.8110 0.0000
vt 0.4739 0.9939 0.0000
vt 0.4739 0.9793 0.0000
vt 0.5575 0.9939 0.0000
vt 0.5575 0.9793 0.0000
vt 0.2392 0.2707 0.0000
vt 0.1713 0.2707 0.0000
vt 0.1713 0.1981 0.0000
vt 0.2392 0.1981 0.0000
vt 0.5575 0.8912 0.0000
vt 0.5993 0.7004 0.0000
vt 0.5993 0.7149 0.0000
vt 0.9329 0.5014 0.0000
vt 0.8989 0.5014 0.0000
vt 0.8989 0.4287 0.0000
vt 0.9329 0.4287 0.0000
vt 0.2745 0.6520 0.0000
vt 0.2066 0.6519 0.0000
vt 0.2066 0.5793 0.0000
vt 0.2745 0.5793 0.0000
vt 0.5667 0.9004 0.0000
vt 0.5667 0.9702 0.0000
vt 0.5993 0.8912 0.0000
vt 0.5993 0.9004 0.0000
vt 0.4831 0.8820 0.0000
vt 0.5484 0.8820 0.0000
vt 0.4831 0.8122 0.0000
vt 0.5484 0.8122 0.0000
vt 0.3995 0.9004 0.0000
vt 0.3995 0.9702 0.0000
vt 0.4647 0.9004 0.0000
vt 0.4647 0.9701 0.0000
vt 0.5993 0.7241 0.0000
vt 0.5667 0.7241 0.0000
vt 0.5667 0.7938 0.0000
vt 0.3995 0.7241 0.0000
vt 0.3995 0.7938 0.0000
vt 0.4647 0.7241 0.0000
vt 0.4647 0.7938 0.0000
vt 0.9004 0.6570 0.0000
vt 0.9004 0.5843 0.0000
vt 0.9574 0.5843 0.0000
vt 0.9574 0.6570 0.0000
vt 0.9004 0.5504 0.0000
vt 0.9574 0.5503 0.0000
vt 0.7529 0.9158 0.0000
vt 0.6850 0.9158 0.0000
vt 0.6528 0.8837 0.0000
vt 0.6528 0.8110 0.0000
vt 0.6850 0.7789 0.0000
vt 0.7529 0.7789 0.0000
vt 0.7850 0.8110 0.0000
vt 0.7850 0.8837 0.0000
vt 0.1393 0.2707 0.0000
vt 0.1393 0.1981 0.0000
vt 0.1713 0.1661 0.0000
vt 0.2392 0.1661 0.0000
vt 0.2712 0.1981 0.0000
vt 0.2712 0.2707 0.0000
vt 0.2392 0.3027 0.0000
vt 0.1713 0.3027 0.0000
vt 0.9914 0.5014 0.0000
vt 0.9914 0.5353 0.0000
vt 0.9329 0.5354 0.0000
vt 0.9914 0.4287 0.0000
vt 0.1943 0.6519 0.0000
vt 0.1943 0.5793 0.0000
vt 0.2066 0.5670 0.0000
vt 0.2745 0.5670 0.0000
vt 0.2868 0.5793 0.0000
vt 0.2868 0.6520 0.0000
vt 0.2745 0.6643 0.0000
vt 0.2066 0.6643 0.0000
vt 0.5994 0.8030 0.0000
vt 0.5993 0.9939 0.0000
vt 0.5994 0.9794 0.0000
vt 0.9914 0.6570 0.0000
vt 0.9914 0.5843 0.0000
vt 0.5994 0.9702 0.0000
vt 0.5994 0.7938 0.0000
vt 0.9004 0.6909 0.0000
vt 0.9574 0.6909 0.0000
vt 0.9914 0.3948 0.0000
vt 0.9329 0.3948 0.0000
vt 1.3058 0.8912 0.0000
vt 1.3425 0.8912 0.0000
vt 1.3425 0.8030 0.0000
vt 1.3058 0.8030 0.0000
vt 1.3792 0.8912 0.0000
vt 1.3792 0.8030 0.0000
vt 1.3903 0.8912 0.0000
vt 1.3903 0.8030 0.0000
vt 1.3058 0.7149 0.0000
vt 1.3425 0.7149 0.0000
vt 1.3425 0.7003 0.0000
vt 1.3058 0.7003 0.0000
vt 1.3425 0.9793 0.0000
vt 1.3058 0.9793 0.0000
vt 1.3058 0.9939 0.0000
vt 1.3425 0.9939 0.0000
vt 1.4739 0.7003 0.0000
vt 1.4739 0.7149 0.0000
vt 1.5575 0.7149 0.0000
vt 1.5575 0.7004 0.0000
vt 1.4739 0.8030 0.0000
vt 1.5575 0.8030 0.0000
vt 1.3792 0.7149 0.0000
vt 1.3792 0.7003 0.0000
vt 1.3792 0.9793 0.0000
vt 1.3792 0.9939 0.0000
vt 1.3903 0.7149 0.0000
vt 1.3903 0.7003 0.0000
vt 1.3903 0.9793 0.0000
vt 1.3903 0.9939 0.0000
vt 1.4739 0.8912 0.0000
vt 1.7529 0.8837 0.0000
vt 1.7529 0.8110 0.0000
vt 1.6850 0.8110 0.0000
vt 1.6850 0.8837 0.0000
vt 1.4739 0.9939 0.0000
vt 1.4739 0.9793 0.0000
vt 1.5575 0.9939 0.0000
vt 1.5575 0.9793 0.0000
vt 1.2392 0.2707 0.0000
vt 1.2392 0.1981 0.0000
vt 1.1713 0.1981 0.0000
vt 1.1713 0.2707 0.0000
vt 1.5575 0.8912 0.0000
vt 1.5993 0.7149 0.0000
vt 1.5993 0.7004 0.0000
vt 1.9329 0.5014 0.0000
vt 1.9329 0.4287 0.0000
vt 1.8989 0.4287 0.0000
vt 1.8989 0.5014 0.0000
vt 1.2745 0.6520 0.0000
vt 1.2745 0.5793 0.0000
vt 1.2066 0.5793 0.0000
vt 1.2066 0.6519 0.0000
vt 1.5667 0.9702 0.0000
vt 1.5667 0.9004 0.0000
vt 1.5993 0.9004 0.0000
vt 1.5993 0.8912 0.0000
vt 1.5484 0.8820 0.0000
vt 1.4831 0.8820 0.0000
vt 1.4831 0.8122 0.0000
vt 1.5484 0.8122 0.0000
vt 1.3995 0.9702 0.0000
vt 1.3995 0.9004 0.0000
vt 1.4647 0.9004 0.0000
vt 1.4647 0.9701 0.0000
vt 1.5667 0.7241 0.0000
vt 1.5993 0.7241 0.0000
vt 1.5667 0.7938 0.0000
vt 1.3995 0.7938 0.0000
vt 1.3995 0.7241 0.0000
vt 1.4647 0.7241 0.0000
vt 1.4647 0.7938 0.0000
vt 1.9004 0.6570 0.0000
vt 1.9574 0.6570 0.0000
vt 1.9574 0.5843 0.0000
vt 1.9004 0.5843 0.0000
vt 1.9574 0.5503 0.0000
vt 1.9004 0.5504 0.0000
vt 1.7529 0.9158 0.0000
vt 1.6850 0.9158 0.0000
vt 1.6528 0.8837 0.0000
vt 1.6528 0.8110 0.0000
vt 1.6850 0.7789 0.0000
vt 1.7529 0.7789 0.0000
vt 1.7850 0.8110 0.0000
vt 1.7850 0.8837 0.0000
vt 1.1393 0.2707 0.0000
vt 1.1393 0.1981 0.0000
vt 1.1713 0.1661 0.0000
vt 1.2392 0.1661 0.0000
vt 1.2712 0.1981 0.0000
vt 1.2712 0.2707 0.0000
vt 1.2392 0.3027 0.0000
vt 1.1713 0.3027 0.0000
vt 1.9914 0.5014 0.0000
vt 1.9329 0.5354 0.0000
vt 1.9914 0.5353 0.0000
vt 1.9914 0.4287 0.0000
vt 1.1943 0.6519 0.0000
vt 1.1943 0.5793 0.0000
vt 1.2066 0.5670 0.0000
vt 1.2745 0.5670 0.0000
vt 1.2868 0.5793 0.0000
vt 1.2868 0.6520 0.0000
vt 1.2745 0.6643 0.0000
vt 1.2066 0.6643 0.0000
vt 1.5994 0.8030 0.0000
vt 1.5993 0.9939 0.0000
vt 1.5994 0.9794 0.0000
vt 1.9914 0.6570 0.0000
vt 1.9914 0.5843 0.0000
vt 1.5994 0.9702 0.0000
vt 1.5994 0.7938 0.0000
vt 1.9004 0.6909 0.0000
vt 1.9574 0.6909 0.0000
vt 1.9914 0.3948 0.0000
vt 1.9329 0.3948 0.0000
# 236 texture coords

o backwalls_checker
g backwalls_checker
f 1/1/1 2/2/1 3/3/2 4/4/2 
f 4/4/2 3/3/2 5/5/3 6/6/3 
f 6/6/3 5/5/3 7/7/3 8/8/3 
f 9/9/1 10/10/1 11/11/2 12/12/2 
f 2/2/1 9/9/1 12/12/2 3/3/2 
f 13/13/2 14/14/2 15/15/1 16/16/1 
f 4/4/2 13/13/2 16/16/1 1/1/1 
f 17/17/3 18/18/3 19/19/3 20/20/3 
f 20/20/3 19/19/3 21/21/3 22/22/3 
f 12/12/2 11/11/2 23/23/3 24/24/3 
f 3/3/2 12/12/2 24/24/3 5/5/3 
f 25/25/3 26/26/3 14/14/2 13/13/2 
f 6/6/3 25/25/3 13/13/2 4/4/2 
f 24/24/3 23/23/3 27/27/3 28/28/3 
f 5/5/3 24/24/3 28/28/3 7/7/3 
f 29/29/3 30/30/3 26/26/3 25/25/3 
f 8/8/3 29/29/3 25/25/3 6/6/3 
f 31/31/3 8/8/3 7/7/3 22/22/3 
f 32/32/4 33/33/5 34/34/6 35/35/7 
f 36/36/3 30/30/3 29/29/3 37/37/3 
f 38/38/3 36/36/3 37/37/3 39/39/3 
f 40/40/4 41/41/5 42/42/6 43/43/7 
f 39/39/3 37/37/3 31/31/3 44/44/3 
f 18/18/3 45/45/3 46/46/3 19/19/3 
f 20/20/3 28/28/3 27/27/3 17/17/3 
f 47/47/6 48/48/8 49/49/9 50/50/5 
f 51/51/4 52/52/5 53/53/6 54/54/7 
f 39/39/3 44/44/3 55/55/10 56/56/11 
f 44/44/3 57/57/3 58/58/12 55/55/10 
f 44/44/3 31/31/3 59/59/11 60/60/13 
f 31/31/3 22/22/3 61/61/10 59/59/11 
f 22/22/3 21/21/3 62/62/14 61/61/10 
f 21/21/3 44/44/3 60/60/13 62/62/14 
f 29/29/3 8/8/3 63/63/10 64/64/11 
f 8/8/3 31/31/3 65/65/14 63/63/10 
f 31/31/3 37/37/3 66/66/13 65/65/14 
f 37/37/3 29/29/3 64/64/11 66/66/13 
f 19/19/3 46/46/3 67/67/8 68/68/10 
f 21/21/3 19/19/3 68/68/10 69/69/11 
f 7/7/3 28/28/3 70/70/10 71/71/11 
f 28/28/3 20/20/3 72/72/14 70/70/10 
f 20/20/3 22/22/3 73/73/13 72/72/14 
f 22/22/3 7/7/3 71/71/11 73/73/13 
f 56/74/11 55/75/10 74/76/6 75/77/5 
f 55/75/10 58/78/12 76/79/12 74/76/6 
f 60/80/13 59/81/11 33/33/5 32/32/4 
f 59/82/11 61/83/10 34/34/6 33/33/5 
f 61/84/10 62/85/14 35/35/7 34/34/6 
f 62/86/14 60/87/13 32/32/4 35/35/7 
f 64/88/11 63/89/10 42/42/6 41/41/5 
f 63/90/10 65/91/14 43/43/7 42/42/6 
f 65/92/14 66/93/13 40/40/4 43/43/7 
f 66/94/13 64/95/11 41/41/5 40/40/4 
f 68/96/10 67/97/8 48/98/8 47/47/6 
f 69/99/11 68/96/10 47/47/6 50/50/5 
f 71/100/11 70/101/10 53/53/6 52/52/5 
f 70/102/10 72/103/14 54/54/7 53/53/6 
f 72/104/14 73/105/13 51/51/4 54/54/7 
f 73/106/13 71/107/11 52/52/5 51/51/4 
f 57/57/3 44/44/3 21/21/3 77/108/3 
f 78/109/3 38/38/3 39/39/3 79/110/3 
f 80/111/9 75/77/5 74/76/6 76/112/12 
f 79/110/3 39/39/3 56/56/11 81/113/9 
f 77/108/3 21/21/3 69/69/11 82/114/9 
f 81/115/9 56/74/11 75/77/5 80/116/9 
f 82/117/9 69/99/11 50/50/5 49/118/9 
f 83/119/15 84/120/16 85/121/16 86/122/15 
f 84/120/16 87/123/3 88/124/3 85/121/16 
f 87/123/3 89/125/3 90/126/3 88/124/3 
f 91/127/15 92/128/16 93/129/16 94/130/15 
f 86/122/15 85/121/16 92/128/16 91/127/15 
f 95/131/16 96/132/15 97/133/15 98/134/16 
f 84/120/16 83/119/15 96/132/15 95/131/16 
f 99/135/3 100/136/3 101/137/3 102/138/3 
f 100/136/3 103/139/3 104/140/3 101/137/3 
f 92/128/16 105/141/3 106/142/3 93/129/16 
f 85/121/16 88/124/3 105/141/3 92/128/16 
f 107/143/3 95/131/16 98/134/16 108/144/3 
f 87/123/3 84/120/16 95/131/16 107/143/3 
f 105/141/3 109/145/3 110/146/3 106/142/3 
f 88/124/3 90/126/3 109/145/3 105/141/3 
f 111/147/3 107/143/3 108/144/3 112/148/3 
f 89/125/3 87/123/3 107/143/3 111/147/3 
f 113/149/3 103/139/3 90/126/3 89/125/3 
f 114/150/5 115/151/6 116/152/7 117/153/4 
f 118/154/3 119/155/3 111/147/3 112/148/3 
f 120/156/3 121/157/3 119/155/3 118/154/3 
f 122/158/5 123/159/6 124/160/7 125/161/4 
f 121/157/3 126/162/3 113/149/3 119/155/3 
f 102/138/3 101/137/3 46/163/3 45/164/3 
f 100/136/3 99/135/3 110/146/3 109/145/3 
f 127/165/7 128/166/4 49/167/9 48/168/8 
f 129/169/5 130/170/6 131/171/7 132/172/4 
f 121/157/3 133/173/13 134/174/14 126/162/3 
f 126/162/3 134/174/14 58/175/12 57/176/3 
f 126/162/3 135/177/11 136/178/13 113/149/3 
f 113/149/3 136/178/13 137/179/14 103/139/3 
f 103/139/3 137/179/14 138/180/10 104/140/3 
f 104/140/3 138/180/10 135/177/11 126/162/3 
f 111/147/3 139/181/13 140/182/14 89/125/3 
f 89/125/3 140/182/14 141/183/10 113/149/3 
f 113/149/3 141/183/10 142/184/11 119/155/3 
f 119/155/3 142/184/11 139/181/13 111/147/3 
f 101/137/3 143/185/14 67/186/8 46/163/3 
f 104/140/3 144/187/13 143/185/14 101/137/3 
f 90/126/3 145/188/13 146/189/14 109/145/3 
f 109/145/3 146/189/14 147/190/10 100/136/3 
f 100/136/3 147/190/10 148/191/11 103/139/3 
f 103/139/3 148/191/11 145/188/13 90/126/3 
f 133/192/13 149/193/4 150/194/7 134/195/14 
f 134/195/14 150/194/7 76/196/12 58/197/12 
f 135/198/11 114/150/5 117/153/4 136/199/13 
f 136/200/13 117/153/4 116/152/7 137/201/14 
f 137/202/14 116/152/7 115/151/6 138/203/10 
f 138/204/10 115/151/6 114/150/5 135/205/11 
f 139/206/13 125/161/4 124/160/7 140/207/14 
f 140/208/14 124/160/7 123/159/6 141/209/10 
f 141/210/10 123/159/6 122/158/5 142/211/11 
f 142/212/11 122/158/5 125/161/4 139/213/13 
f 143/214/14 127/165/7 48/215/8 67/216/8 
f 144/217/13 128/166/4 127/165/7 143/214/14 
f 145/218/13 132/172/4 131/171/7 146/219/14 
f 146/220/14 131/171/7 130/170/6 147/221/10 
f 147/222/10 130/170/6 129/169/5 148/223/11 
f 148/224/11 129/169/5 132/172/4 145/225/13 
f 57/176/3 77/226/3 104/140/3 126/162/3 
f 78/227/3 79/228/3 121/157/3 120/156/3 
f 80/229/9 76/230/12 150/194/7 149/193/4 
f 79/228/3 81/231/9 133/173/13 121/157/3 
f 77/226/3 82/232/9 144/187/13 104/140/3 
f 81/233/9 80/234/9 149/193/4 133/192/13 
f 82/235/9 49/236/9 128/166/4 144/217/13 
# 132 polygons

