# 3ds Max Wavefront OBJ Exporter v0.97b - (c)2007 guruware
# File Created: 07.12.2019 15:15:55

#
# object backwalls_pillars
#

v  -0.0000 5.2013 -0.0000
v  -0.0000 2.7987 -0.0000
v  -0.0000 2.7987 1.0000
v  -0.0000 5.2013 1.0000
v  1.0000 2.7987 1.0000
v  1.0000 5.2013 1.0000
v  1.3026 2.7987 1.0000
v  1.3026 5.2013 1.0000
v  -0.0000 0.3960 -0.0000
v  -0.0000 -0.0000 -0.0000
v  -0.0000 -0.0000 1.0000
v  -0.0000 0.3960 1.0000
v  -0.0000 7.6040 1.0000
v  -0.0000 8.0000 1.0000
v  -0.0000 8.0000 -0.0000
v  -0.0000 7.6040 -0.0000
v  3.5816 -0.0000 1.0000
v  5.8605 -0.0000 1.0000
v  5.8605 0.3960 1.0000
v  3.5816 0.3960 1.0000
v  3.9008 0.3960 1.5614
v  5.5413 0.3960 1.5614
v  5.5413 2.7987 1.5614
v  3.9008 2.7987 1.5614
v  1.0000 -0.0000 1.0000
v  1.0000 0.3960 1.0000
v  1.0000 7.6040 1.0000
v  1.0000 8.0000 1.0000
v  1.3026 -0.0000 1.0000
v  1.3026 0.3960 1.0000
v  1.3026 7.6040 1.0000
v  1.3026 8.0000 1.0000
v  3.5816 5.2013 1.0000
v  3.5816 2.7987 1.0000
v  5.5413 5.2013 1.5614
v  3.9008 5.2013 1.5614
v  3.5816 8.0000 1.0000
v  3.5816 7.6040 1.0000
v  5.8605 8.0000 1.0000
v  5.8605 7.6040 1.0000
v  5.5413 7.6040 1.5614
v  3.9008 7.6040 1.5614
v  7.0000 -0.0000 1.0000
v  7.0000 0.3960 1.0000
v  7.0000 2.7987 1.0000
v  5.8605 2.7987 1.0000
v  5.8605 5.2013 1.0000
v  7.0000 5.2013 1.0000
v  7.0000 8.0000 1.0000
v  7.0000 7.6040 1.0000
v  14.0000 5.2013 -0.0000
v  14.0000 5.2013 1.0000
v  14.0000 2.7987 1.0000
v  14.0000 2.7987 -0.0000
v  13.0000 5.2013 1.0000
v  13.0000 2.7987 1.0000
v  12.6974 5.2013 1.0000
v  12.6974 2.7987 1.0000
v  14.0000 0.3960 -0.0000
v  14.0000 0.3960 1.0000
v  14.0000 -0.0000 1.0000
v  14.0000 -0.0000 -0.0000
v  14.0000 7.6040 1.0000
v  14.0000 7.6040 -0.0000
v  14.0000 8.0000 -0.0000
v  14.0000 8.0000 1.0000
v  10.4184 -0.0000 1.0000
v  10.4184 0.3960 1.0000
v  8.1395 0.3960 1.0000
v  8.1395 -0.0000 1.0000
v  10.0992 0.3960 1.5614
v  10.0992 2.7987 1.5614
v  8.4587 2.7987 1.5614
v  8.4587 0.3960 1.5614
v  13.0000 0.3960 1.0000
v  13.0000 -0.0000 1.0000
v  13.0000 7.6040 1.0000
v  13.0000 8.0000 1.0000
v  12.6974 0.3960 1.0000
v  12.6974 -0.0000 1.0000
v  12.6974 7.6040 1.0000
v  12.6974 8.0000 1.0000
v  10.4184 5.2013 1.0000
v  10.4184 2.7987 1.0000
v  8.4587 5.2013 1.5614
v  10.0992 5.2013 1.5614
v  10.4184 8.0000 1.0000
v  10.4184 7.6040 1.0000
v  8.1395 8.0000 1.0000
v  8.1395 7.6040 1.0000
v  8.4587 7.6040 1.5614
v  10.0992 7.6040 1.5614
v  8.1395 2.7987 1.0000
v  8.1395 5.2013 1.0000
# 94 vertices

vn -1.0000 0.0000 -0.0000
vn -0.7071 0.0000 0.7071
vn 0.0000 0.0000 1.0000
vn 0.2373 -0.1832 0.9540
vn -0.2373 -0.1832 0.9540
vn -0.3987 -0.6095 0.6852
vn 0.3987 -0.6095 0.6852
vn 0.5029 0.0000 0.8644
vn -0.5029 0.0000 0.8644
vn -0.2373 0.1832 0.9540
vn 0.2373 0.1832 0.9540
vn 0.3987 0.6095 0.6852
vn -0.3987 0.6095 0.6852
vn 1.0000 0.0000 -0.0000
vn 0.7071 0.0000 0.7071
# 15 vertex normals

vt 0.0036 0.8904 0.0000
vt 0.0036 0.8036 0.0000
vt 0.0395 0.8036 0.0000
vt 0.0395 0.8904 0.0000
vt 0.0757 0.8036 0.0000
vt 0.0757 0.8904 0.0000
vt 0.0870 0.8036 0.0000
vt 0.0870 0.8904 0.0000
vt 0.0036 0.7147 0.0000
vt 0.0036 0.7003 0.0000
vt 0.0398 0.7003 0.0000
vt 0.0398 0.7147 0.0000
vt 0.0398 0.9792 0.0000
vt 0.0398 0.9936 0.0000
vt 0.0036 0.9936 0.0000
vt 0.0036 0.9792 0.0000
vt 0.1702 0.7003 0.0000
vt 0.2580 0.7003 0.0000
vt 0.2580 0.7147 0.0000
vt 0.1702 0.7147 0.0000
vt 0.1863 0.7243 0.0000
vt 0.2421 0.7243 0.0000
vt 0.2413 0.8036 0.0000
vt 0.1870 0.8036 0.0000
vt 0.0762 0.7003 0.0000
vt 0.0762 0.7147 0.0000
vt 0.0762 0.9793 0.0000
vt 0.0762 0.9936 0.0000
vt 0.0879 0.7003 0.0000
vt 0.0878 0.7147 0.0000
vt 0.0878 0.9793 0.0000
vt 0.0879 0.9936 0.0000
vt 0.1702 0.8904 0.0000
vt 0.1702 0.8036 0.0000
vt 0.2413 0.8904 0.0000
vt 0.1870 0.8904 0.0000
vt 0.1702 0.9936 0.0000
vt 0.1702 0.9793 0.0000
vt 0.2580 0.9936 0.0000
vt 0.2579 0.9793 0.0000
vt 0.2421 0.9697 0.0000
vt 0.1863 0.9697 0.0000
vt 0.2991 0.7003 0.0000
vt 0.2991 0.7147 0.0000
vt 0.2991 0.8036 0.0000
vt 0.2580 0.8036 0.0000
vt 0.2580 0.8904 0.0000
vt 0.2991 0.8904 0.0000
vt 0.2991 0.9936 0.0000
vt 0.2991 0.9793 0.0000
vt 1.0036 0.8904 0.0000
vt 1.0395 0.8904 0.0000
vt 1.0395 0.8036 0.0000
vt 1.0036 0.8036 0.0000
vt 1.0757 0.8904 0.0000
vt 1.0757 0.8036 0.0000
vt 1.0870 0.8904 0.0000
vt 1.0870 0.8036 0.0000
vt 1.0036 0.7147 0.0000
vt 1.0398 0.7147 0.0000
vt 1.0398 0.7003 0.0000
vt 1.0036 0.7003 0.0000
vt 1.0398 0.9792 0.0000
vt 1.0036 0.9792 0.0000
vt 1.0036 0.9936 0.0000
vt 1.0398 0.9936 0.0000
vt 1.1702 0.7003 0.0000
vt 1.1702 0.7147 0.0000
vt 1.2580 0.7147 0.0000
vt 1.2580 0.7003 0.0000
vt 1.1863 0.7243 0.0000
vt 1.1870 0.8036 0.0000
vt 1.2413 0.8036 0.0000
vt 1.2421 0.7243 0.0000
vt 1.0762 0.7147 0.0000
vt 1.0762 0.7003 0.0000
vt 1.0762 0.9793 0.0000
vt 1.0762 0.9936 0.0000
vt 1.0878 0.7147 0.0000
vt 1.0879 0.7003 0.0000
vt 1.0878 0.9793 0.0000
vt 1.0879 0.9936 0.0000
vt 1.1702 0.8904 0.0000
vt 1.1702 0.8036 0.0000
vt 1.2413 0.8904 0.0000
vt 1.1870 0.8904 0.0000
vt 1.1702 0.9936 0.0000
vt 1.1702 0.9793 0.0000
vt 1.2580 0.9936 0.0000
vt 1.2579 0.9793 0.0000
vt 1.2421 0.9697 0.0000
vt 1.1863 0.9697 0.0000
vt 1.2991 0.7147 0.0000
vt 1.2991 0.7003 0.0000
vt 1.2580 0.8036 0.0000
vt 1.2991 0.8036 0.0000
vt 1.2580 0.8904 0.0000
vt 1.2991 0.8904 0.0000
vt 1.2991 0.9936 0.0000
vt 1.2991 0.9793 0.0000
# 100 texture coords

o backwalls_pillars
g backwalls_pillars
f 1/1/1 2/2/1 3/3/2 4/4/2 
f 4/4/2 3/3/2 5/5/3 6/6/3 
f 6/6/3 5/5/3 7/7/3 8/8/3 
f 9/9/1 10/10/1 11/11/2 12/12/2 
f 2/2/1 9/9/1 12/12/2 3/3/2 
f 13/13/2 14/14/2 15/15/1 16/16/1 
f 4/4/2 13/13/2 16/16/1 1/1/1 
f 17/17/3 18/18/3 19/19/4 20/20/5 
f 21/21/6 22/22/7 23/23/8 24/24/9 
f 12/12/2 11/11/2 25/25/3 26/26/3 
f 3/3/2 12/12/2 26/26/3 5/5/3 
f 27/27/3 28/28/3 14/14/2 13/13/2 
f 6/6/3 27/27/3 13/13/2 4/4/2 
f 26/26/3 25/25/3 29/29/3 30/30/3 
f 5/5/3 26/26/3 30/30/3 7/7/3 
f 31/31/3 32/32/3 28/28/3 27/27/3 
f 8/8/3 31/31/3 27/27/3 6/6/3 
f 33/33/9 8/8/3 7/7/3 34/34/9 
f 35/35/8 36/36/9 24/24/9 23/23/8 
f 37/37/3 32/32/3 31/31/3 38/38/10 
f 39/39/3 37/37/3 38/38/10 40/40/11 
f 38/38/10 31/31/3 8/8/3 33/33/9 
f 41/41/12 42/42/13 36/36/9 35/35/8 
f 18/18/3 43/43/3 44/44/3 19/19/4 
f 20/20/5 30/30/3 29/29/3 17/17/3 
f 19/19/4 44/44/3 45/45/3 46/46/8 
f 34/34/9 7/7/3 30/30/3 20/20/5 
f 40/40/11 38/38/10 42/42/13 41/41/12 
f 38/38/10 33/33/9 36/36/9 42/42/13 
f 33/33/9 34/34/9 24/24/9 36/36/9 
f 34/34/9 20/20/5 21/21/6 24/24/9 
f 20/20/5 19/19/4 22/22/7 21/21/6 
f 19/19/4 46/46/8 23/23/8 22/22/7 
f 46/46/8 47/47/8 35/35/8 23/23/8 
f 47/47/8 40/40/11 41/41/12 35/35/8 
f 48/48/3 47/47/8 46/46/8 45/45/3 
f 49/49/3 39/39/3 40/40/11 50/50/3 
f 50/50/3 40/40/11 47/47/8 48/48/3 
f 51/51/14 52/52/15 53/53/15 54/54/14 
f 52/52/15 55/55/3 56/56/3 53/53/15 
f 55/55/3 57/57/3 58/58/3 56/56/3 
f 59/59/14 60/60/15 61/61/15 62/62/14 
f 54/54/14 53/53/15 60/60/15 59/59/14 
f 63/63/15 64/64/14 65/65/14 66/66/15 
f 52/52/15 51/51/14 64/64/14 63/63/15 
f 67/67/3 68/68/4 69/69/5 70/70/3 
f 71/71/7 72/72/8 73/73/9 74/74/6 
f 60/60/15 75/75/3 76/76/3 61/61/15 
f 53/53/15 56/56/3 75/75/3 60/60/15 
f 77/77/3 63/63/15 66/66/15 78/78/3 
f 55/55/3 52/52/15 63/63/15 77/77/3 
f 75/75/3 79/79/3 80/80/3 76/76/3 
f 56/56/3 58/58/3 79/79/3 75/75/3 
f 81/81/3 77/77/3 78/78/3 82/82/3 
f 57/57/3 55/55/3 77/77/3 81/81/3 
f 83/83/8 84/84/8 58/58/3 57/57/3 
f 85/85/9 73/73/9 72/72/8 86/86/8 
f 87/87/3 88/88/11 81/81/3 82/82/3 
f 89/89/3 90/90/10 88/88/11 87/87/3 
f 88/88/11 83/83/8 57/57/3 81/81/3 
f 91/91/13 85/85/9 86/86/8 92/92/12 
f 70/70/3 69/69/5 44/93/3 43/94/3 
f 68/68/4 67/67/3 80/80/3 79/79/3 
f 69/69/5 93/95/9 45/96/3 44/93/3 
f 84/84/8 68/68/4 79/79/3 58/58/3 
f 90/90/10 91/91/13 92/92/12 88/88/11 
f 88/88/11 92/92/12 86/86/8 83/83/8 
f 83/83/8 86/86/8 72/72/8 84/84/8 
f 84/84/8 72/72/8 71/71/7 68/68/4 
f 68/68/4 71/71/7 74/74/6 69/69/5 
f 69/69/5 74/74/6 73/73/9 93/95/9 
f 93/95/9 73/73/9 85/85/9 94/97/9 
f 94/97/9 85/85/9 91/91/13 90/90/10 
f 48/98/3 45/96/3 93/95/9 94/97/9 
f 49/99/3 50/100/3 90/90/10 89/89/3 
f 50/100/3 48/98/3 94/97/9 90/90/10 
# 76 polygons

