# 3ds Max Wavefront OBJ Exporter v0.97b - (c)2007 guruware
# File Created: 07.12.2019 15:15:56

#
# object backwalls_blank
#

v  0.0000 5.2013 -0.0000
v  0.0000 2.7987 -0.0000
v  0.0000 2.7987 1.0000
v  0.0000 5.2013 1.0000
v  1.0000 2.7987 1.0000
v  1.0000 5.2013 1.0000
v  1.3026 2.7987 1.0000
v  1.3026 5.2013 1.0000
v  0.0000 0.3960 -0.0000
v  0.0000 0.0000 -0.0000
v  0.0000 0.0000 1.0000
v  0.0000 0.3960 1.0000
v  0.0000 7.6040 1.0000
v  0.0000 8.0000 1.0000
v  0.0000 8.0000 -0.0000
v  0.0000 7.6040 -0.0000
v  3.5816 0.0000 1.0000
v  5.8605 0.0000 1.0000
v  5.8605 0.3960 1.0000
v  3.5816 0.3960 1.0000
v  3.5816 0.3960 0.7140
v  5.8605 0.3960 0.7140
v  5.8605 2.7987 0.7140
v  3.5816 2.7987 0.7140
v  1.0000 0.0000 1.0000
v  1.0000 0.3960 1.0000
v  1.0000 7.6040 1.0000
v  1.0000 8.0000 1.0000
v  1.3026 0.0000 1.0000
v  1.3026 0.3960 1.0000
v  1.3026 7.6040 1.0000
v  1.3026 8.0000 1.0000
v  3.5816 5.2013 0.7140
v  1.3026 5.2013 0.7140
v  1.3026 2.7987 0.7140
v  5.8605 5.2013 0.7140
v  3.5816 8.0000 1.0000
v  3.5816 7.6040 1.0000
v  5.8605 8.0000 1.0000
v  5.8605 7.6040 1.0000
v  3.5816 7.6040 0.7140
v  1.3026 7.6040 0.7140
v  5.8605 7.6040 0.7140
v  7.0000 0.0000 1.0000
v  7.0000 0.3960 1.0000
v  7.0000 0.3960 0.7140
v  7.0000 2.7987 0.7140
v  1.3026 0.3960 0.7140
v  7.0000 5.2013 0.7140
v  7.0000 8.0000 1.0000
v  7.0000 7.6040 1.0000
v  7.0000 7.6040 0.7140
v  14.0000 5.2013 -0.0000
v  14.0000 5.2013 1.0000
v  14.0000 2.7987 1.0000
v  14.0000 2.7987 -0.0000
v  13.0000 5.2013 1.0000
v  13.0000 2.7987 1.0000
v  12.6974 5.2013 1.0000
v  12.6974 2.7987 1.0000
v  14.0000 0.3960 -0.0000
v  14.0000 0.3960 1.0000
v  14.0000 0.0000 1.0000
v  14.0000 0.0000 -0.0000
v  14.0000 7.6040 1.0000
v  14.0000 7.6040 -0.0000
v  14.0000 8.0000 -0.0000
v  14.0000 8.0000 1.0000
v  10.4184 0.0000 1.0000
v  10.4184 0.3960 1.0000
v  8.1395 0.3960 1.0000
v  8.1395 0.0000 1.0000
v  10.4184 0.3960 0.7140
v  10.4184 2.7987 0.7140
v  8.1395 2.7987 0.7140
v  8.1395 0.3960 0.7140
v  13.0000 0.3960 1.0000
v  13.0000 0.0000 1.0000
v  13.0000 7.6040 1.0000
v  13.0000 8.0000 1.0000
v  12.6974 0.3960 1.0000
v  12.6974 0.0000 1.0000
v  12.6974 7.6040 1.0000
v  12.6974 8.0000 1.0000
v  10.4184 5.2013 0.7140
v  12.6974 2.7987 0.7140
v  12.6974 5.2013 0.7140
v  8.1395 5.2013 0.7140
v  10.4184 8.0000 1.0000
v  10.4184 7.6040 1.0000
v  8.1395 8.0000 1.0000
v  8.1395 7.6040 1.0000
v  10.4184 7.6040 0.7140
v  12.6974 7.6040 0.7140
v  8.1395 7.6040 0.7140
v  12.6974 0.3960 0.7140
# 96 vertices

vn -1.0000 0.0000 -0.0000
vn -0.7071 0.0000 0.7071
vn 0.0000 0.0000 1.0000
vn 0.7071 0.0000 0.7071
vn 0.0000 0.7071 0.7071
vn 0.3015 0.3015 0.9045
vn 0.3015 -0.3015 0.9045
vn 0.0000 -0.7071 0.7071
vn 0.5774 -0.5774 0.5774
vn 0.5774 0.5774 0.5774
vn 1.0000 0.0000 -0.0000
vn -0.3015 0.3015 0.9045
vn -0.3015 -0.3015 0.9045
vn -0.5774 -0.5774 0.5774
vn -0.5774 0.5774 0.5774
# 15 vertex normals

vt 0.0055 0.2826 0.0000
vt 0.0055 0.1941 0.0000
vt 0.0424 0.1941 0.0000
vt 0.0424 0.2826 0.0000
vt 0.0792 0.1941 0.0000
vt 0.0792 0.2826 0.0000
vt 0.0903 0.1941 0.0000
vt 0.0903 0.2826 0.0000
vt 0.0055 0.1056 0.0000
vt 0.0055 0.0910 0.0000
vt 0.0424 0.0910 0.0000
vt 0.0424 0.1056 0.0000
vt 0.0424 0.3710 0.0000
vt 0.0424 0.3856 0.0000
vt 0.0055 0.3856 0.0000
vt 0.0055 0.3710 0.0000
vt 0.1742 0.0910 0.0000
vt 0.2582 0.0911 0.0000
vt 0.2582 0.1056 0.0000
vt 0.1742 0.1056 0.0000
vt 0.7108 0.1103 0.0000
vt 0.7927 0.1103 0.0000
vt 0.7927 0.1966 0.0000
vt 0.7108 0.1966 0.0000
vt 0.0792 0.0910 0.0000
vt 0.0792 0.1056 0.0000
vt 0.0792 0.3710 0.0000
vt 0.0792 0.3856 0.0000
vt 0.0903 0.0910 0.0000
vt 0.0903 0.1056 0.0000
vt 0.0903 0.3710 0.0000
vt 0.0903 0.3856 0.0000
vt 0.7108 0.2830 0.0000
vt 0.6289 0.2829 0.0000
vt 0.6289 0.1966 0.0000
vt 0.7927 0.2830 0.0000
vt 0.1742 0.3856 0.0000
vt 0.1742 0.3710 0.0000
vt 0.2581 0.3856 0.0000
vt 0.2581 0.3710 0.0000
vt 0.7108 0.3693 0.0000
vt 0.6289 0.3693 0.0000
vt 0.7927 0.3693 0.0000
vt 0.3001 0.0910 0.0000
vt 0.3001 0.1056 0.0000
vt 0.8336 0.1103 0.0000
vt 0.8337 0.1966 0.0000
vt 0.6289 0.1103 0.0000
vt 0.7927 0.3796 0.0000
vt 0.7108 0.3796 0.0000
vt 0.6289 0.3795 0.0000
vt 0.6186 0.3693 0.0000
vt 0.6187 0.2829 0.0000
vt 0.6187 0.1966 0.0000
vt 0.6186 0.1103 0.0000
vt 0.6289 0.1000 0.0000
vt 0.7108 0.1000 0.0000
vt 0.7927 0.1000 0.0000
vt 0.8336 0.1000 0.0000
vt 0.8337 0.2830 0.0000
vt 0.3001 0.3856 0.0000
vt 0.3001 0.3710 0.0000
vt 0.8336 0.3693 0.0000
vt 0.8336 0.3796 0.0000
vt 1.0055 0.2826 0.0000
vt 1.0424 0.2826 0.0000
vt 1.0424 0.1941 0.0000
vt 1.0055 0.1941 0.0000
vt 1.0792 0.2826 0.0000
vt 1.0792 0.1941 0.0000
vt 1.0903 0.2826 0.0000
vt 1.0903 0.1941 0.0000
vt 1.0055 0.1056 0.0000
vt 1.0424 0.1056 0.0000
vt 1.0424 0.0910 0.0000
vt 1.0055 0.0910 0.0000
vt 1.0424 0.3710 0.0000
vt 1.0055 0.3710 0.0000
vt 1.0055 0.3856 0.0000
vt 1.0424 0.3856 0.0000
vt 1.1742 0.0910 0.0000
vt 1.1742 0.1056 0.0000
vt 1.2582 0.1056 0.0000
vt 1.2582 0.0911 0.0000
vt 1.7108 0.1103 0.0000
vt 1.7108 0.1966 0.0000
vt 1.7927 0.1966 0.0000
vt 1.7927 0.1103 0.0000
vt 1.0792 0.1056 0.0000
vt 1.0792 0.0910 0.0000
vt 1.0792 0.3710 0.0000
vt 1.0792 0.3856 0.0000
vt 1.0903 0.1056 0.0000
vt 1.0903 0.0910 0.0000
vt 1.0903 0.3710 0.0000
vt 1.0903 0.3856 0.0000
vt 1.7108 0.2830 0.0000
vt 1.6289 0.1966 0.0000
vt 1.6289 0.2829 0.0000
vt 1.7927 0.2830 0.0000
vt 1.1742 0.3856 0.0000
vt 1.1742 0.3710 0.0000
vt 1.2581 0.3856 0.0000
vt 1.2581 0.3710 0.0000
vt 1.7108 0.3693 0.0000
vt 1.6289 0.3693 0.0000
vt 1.7927 0.3693 0.0000
vt 1.3001 0.1056 0.0000
vt 1.3001 0.0910 0.0000
vt 1.8337 0.1966 0.0000
vt 1.8336 0.1103 0.0000
vt 1.6289 0.1103 0.0000
vt 1.7927 0.3796 0.0000
vt 1.7108 0.3796 0.0000
vt 1.6289 0.3795 0.0000
vt 1.6186 0.3693 0.0000
vt 1.6187 0.2829 0.0000
vt 1.6187 0.1966 0.0000
vt 1.6186 0.1103 0.0000
vt 1.6289 0.1000 0.0000
vt 1.7108 0.1000 0.0000
vt 1.7927 0.1000 0.0000
vt 1.8336 0.1000 0.0000
vt 1.8337 0.2830 0.0000
vt 1.3001 0.3856 0.0000
vt 1.3001 0.3710 0.0000
vt 1.8336 0.3693 0.0000
vt 1.8336 0.3796 0.0000
# 128 texture coords

o backwalls_blank
g backwalls_blank
f 1/1/1 2/2/1 3/3/2 4/4/2 
f 4/4/2 3/3/2 5/5/3 6/6/3 
f 6/6/3 5/5/3 7/7/4 8/8/4 
f 9/9/1 10/10/1 11/11/2 12/12/2 
f 2/2/1 9/9/1 12/12/2 3/3/2 
f 13/13/2 14/14/2 15/15/1 16/16/1 
f 4/4/2 13/13/2 16/16/1 1/1/1 
f 17/17/3 18/18/3 19/19/5 20/20/5 
f 21/21/5 22/22/5 23/23/3 24/24/3 
f 12/12/2 11/11/2 25/25/3 26/26/3 
f 3/3/2 12/12/2 26/26/3 5/5/3 
f 27/27/3 28/28/3 14/14/2 13/13/2 
f 6/6/3 27/27/3 13/13/2 4/4/2 
f 26/26/3 25/25/3 29/29/3 30/30/6 
f 5/5/3 26/26/3 30/30/6 7/7/4 
f 31/31/7 32/32/3 28/28/3 27/27/3 
f 8/8/4 31/31/7 27/27/3 6/6/3 
f 33/33/3 34/34/4 35/35/4 24/24/3 
f 36/36/3 33/33/3 24/24/3 23/23/3 
f 37/37/3 32/32/3 31/31/7 38/38/8 
f 39/39/3 37/37/3 38/38/8 40/40/8 
f 41/41/8 42/42/9 34/34/4 33/33/3 
f 43/43/8 41/41/8 33/33/3 36/36/3 
f 18/18/3 44/44/3 45/45/5 19/19/5 
f 20/20/5 30/30/6 29/29/3 17/17/3 
f 22/22/5 46/46/5 47/47/3 23/23/3 
f 24/24/3 35/35/4 48/48/10 21/21/5 
f 40/49/8 38/50/8 41/41/8 43/43/8 
f 38/50/8 31/51/7 42/42/9 41/41/8 
f 31/52/7 8/53/4 34/34/4 42/42/9 
f 8/53/4 7/54/4 35/35/4 34/34/4 
f 7/54/4 30/55/6 48/48/10 35/35/4 
f 30/56/6 20/57/5 21/21/5 48/48/10 
f 20/57/5 19/58/5 22/22/5 21/21/5 
f 19/58/5 45/59/5 46/46/5 22/22/5 
f 49/60/3 36/36/3 23/23/3 47/47/3 
f 50/61/3 39/39/3 40/40/8 51/62/8 
f 52/63/8 43/43/8 36/36/3 49/60/3 
f 51/64/8 40/49/8 43/43/8 52/63/8 
f 53/65/11 54/66/4 55/67/4 56/68/11 
f 54/66/4 57/69/3 58/70/3 55/67/4 
f 57/69/3 59/71/2 60/72/2 58/70/3 
f 61/73/11 62/74/4 63/75/4 64/76/11 
f 56/68/11 55/67/4 62/74/4 61/73/11 
f 65/77/4 66/78/11 67/79/11 68/80/4 
f 54/66/4 53/65/11 66/78/11 65/77/4 
f 69/81/3 70/82/5 71/83/5 72/84/3 
f 73/85/5 74/86/3 75/87/3 76/88/5 
f 62/74/4 77/89/3 78/90/3 63/75/4 
f 55/67/4 58/70/3 77/89/3 62/74/4 
f 79/91/3 65/77/4 68/80/4 80/92/3 
f 57/69/3 54/66/4 65/77/4 79/91/3 
f 77/89/3 81/93/12 82/94/3 78/90/3 
f 58/70/3 60/72/2 81/93/12 77/89/3 
f 83/95/13 79/91/3 80/92/3 84/96/3 
f 59/71/2 57/69/3 79/91/3 83/95/13 
f 85/97/3 74/86/3 86/98/2 87/99/2 
f 88/100/3 75/87/3 74/86/3 85/97/3 
f 89/101/3 90/102/8 83/95/13 84/96/3 
f 91/103/3 92/104/8 90/102/8 89/101/3 
f 93/105/8 85/97/3 87/99/2 94/106/14 
f 95/107/8 88/100/3 85/97/3 93/105/8 
f 72/84/3 71/83/5 45/108/5 44/109/3 
f 70/82/5 69/81/3 82/94/3 81/93/12 
f 76/88/5 75/87/3 47/110/3 46/111/5 
f 74/86/3 73/85/5 96/112/15 86/98/2 
f 92/113/8 95/107/8 93/105/8 90/114/8 
f 90/114/8 93/105/8 94/106/14 83/115/13 
f 83/116/13 94/106/14 87/99/2 59/117/2 
f 59/117/2 87/99/2 86/98/2 60/118/2 
f 60/118/2 86/98/2 96/112/15 81/119/12 
f 81/120/12 96/112/15 73/85/5 70/121/5 
f 70/121/5 73/85/5 76/88/5 71/122/5 
f 71/122/5 76/88/5 46/111/5 45/123/5 
f 49/124/3 47/110/3 75/87/3 88/100/3 
f 50/125/3 51/126/8 92/104/8 91/103/3 
f 52/127/8 49/124/3 88/100/3 95/107/8 
f 51/128/8 52/127/8 95/107/8 92/113/8 
# 78 polygons

