# 3ds Max Wavefront OBJ Exporter v0.97b - (c)2007 guruware
# File Created: 07.12.2019 15:15:54

#
# object backwalls_inset1
#

v  -0.0000 5.2013 -0.0000
v  -0.0000 2.7987 -0.0000
v  -0.0000 2.7987 1.0000
v  -0.0000 5.2013 1.0000
v  1.0000 2.7987 1.0000
v  1.0000 5.2013 1.0000
v  1.3026 2.7987 1.0000
v  1.3026 5.2013 1.0000
v  -0.0000 0.3960 -0.0000
v  -0.0000 0.0000 -0.0000
v  -0.0000 0.0000 1.0000
v  -0.0000 0.3960 1.0000
v  -0.0000 7.6040 1.0000
v  -0.0000 8.0000 1.0000
v  -0.0000 8.0000 -0.0000
v  -0.0000 7.6040 -0.0000
v  3.5816 0.0000 1.0000
v  5.8605 0.0000 1.0000
v  5.8605 0.3960 1.0000
v  3.5816 0.3960 1.0000
v  3.5816 0.3960 0.2003
v  5.8605 0.3960 0.2003
v  5.8605 2.7987 0.2003
v  3.5816 2.7987 0.2003
v  1.0000 0.0000 1.0000
v  1.0000 0.3960 1.0000
v  1.0000 7.6040 1.0000
v  1.0000 8.0000 1.0000
v  1.3026 0.0000 1.0000
v  1.3026 0.3960 1.0000
v  1.3026 7.6040 1.0000
v  1.3026 8.0000 1.0000
v  3.5816 5.2013 1.0000
v  3.5816 2.7987 1.0000
v  5.8605 5.2013 1.0000
v  5.8605 2.7987 1.0000
v  3.5816 8.0000 1.0000
v  3.5816 7.6040 1.0000
v  5.8605 8.0000 1.0000
v  5.8605 7.6040 1.0000
v  3.5816 7.6040 0.2003
v  1.4459 7.6040 0.2003
v  1.4459 5.2013 0.2003
v  3.5816 5.2013 0.2003
v  5.8605 7.6040 0.2003
v  5.8605 5.2013 0.2003
v  7.0000 0.0000 1.0000
v  7.0000 0.3960 1.0000
v  7.0000 0.3960 0.2003
v  7.0000 2.7987 0.2003
v  1.4459 2.7987 0.2003
v  1.4459 0.3960 0.2003
v  7.0000 5.2013 1.0000
v  7.0000 5.2013 0.2003
v  7.0000 2.7987 1.0000
v  7.0000 8.0000 1.0000
v  7.0000 7.6040 1.0000
v  7.0000 7.6040 0.2003
v  14.0000 5.2013 -0.0000
v  14.0000 5.2013 1.0000
v  14.0000 2.7987 1.0000
v  14.0000 2.7987 -0.0000
v  13.0000 5.2013 1.0000
v  13.0000 2.7987 1.0000
v  12.6974 5.2013 1.0000
v  12.6974 2.7987 1.0000
v  14.0000 0.3960 -0.0000
v  14.0000 0.3960 1.0000
v  14.0000 0.0000 1.0000
v  14.0000 0.0000 -0.0000
v  14.0000 7.6040 1.0000
v  14.0000 7.6040 -0.0000
v  14.0000 8.0000 -0.0000
v  14.0000 8.0000 1.0000
v  10.4184 0.0000 1.0000
v  10.4184 0.3960 1.0000
v  8.1395 0.3960 1.0000
v  8.1395 0.0000 1.0000
v  10.4184 0.3960 0.2003
v  10.4184 2.7987 0.2003
v  8.1395 2.7987 0.2003
v  8.1395 0.3960 0.2003
v  13.0000 0.3960 1.0000
v  13.0000 0.0000 1.0000
v  13.0000 7.6040 1.0000
v  13.0000 8.0000 1.0000
v  12.6974 0.3960 1.0000
v  12.6974 0.0000 1.0000
v  12.6974 7.6040 1.0000
v  12.6974 8.0000 1.0000
v  10.4184 5.2013 1.0000
v  10.4184 2.7987 1.0000
v  8.1395 5.2013 1.0000
v  8.1395 2.7987 1.0000
v  10.4184 8.0000 1.0000
v  10.4184 7.6040 1.0000
v  8.1395 8.0000 1.0000
v  8.1395 7.6040 1.0000
v  10.4184 7.6040 0.2003
v  10.4184 5.2013 0.2003
v  12.5541 5.2013 0.2003
v  12.5541 7.6040 0.2003
v  8.1395 7.6040 0.2003
v  8.1395 5.2013 0.2003
v  12.5541 0.3960 0.2003
v  12.5541 2.7987 0.2003
# 106 vertices

vn -1.0000 0.0000 -0.0000
vn -0.7071 0.0000 0.7071
vn 0.0000 0.0000 1.0000
vn 0.2860 -0.2578 0.9229
vn 0.2860 0.2578 0.9229
vn 0.0000 0.7071 0.7071
vn 0.0000 -0.7071 0.7071
vn 0.5194 -0.5873 0.6208
vn 0.5194 0.5873 0.6208
vn 1.0000 0.0000 -0.0000
vn 0.7071 0.0000 0.7071
vn -0.2860 0.2578 0.9229
vn -0.2860 -0.2578 0.9229
vn -0.5194 0.5873 0.6208
vn -0.5194 -0.5873 0.6208
# 15 vertex normals

vt 0.3060 0.5851 0.0000
vt 0.3060 0.5060 0.0000
vt 0.3382 0.5060 0.0000
vt 0.3382 0.5851 0.0000
vt 0.3710 0.5060 0.0000
vt 0.3710 0.5851 0.0000
vt 0.3823 0.5060 0.0000
vt 0.3823 0.5851 0.0000
vt 0.3060 0.4126 0.0000
vt 0.3060 0.3988 0.0000
vt 0.3385 0.3988 0.0000
vt 0.3383 0.4126 0.0000
vt 0.3383 0.6785 0.0000
vt 0.3385 0.6923 0.0000
vt 0.3060 0.6923 0.0000
vt 0.3060 0.6785 0.0000
vt 0.4600 0.3988 0.0000
vt 0.5348 0.3988 0.0000
vt 0.5351 0.4126 0.0000
vt 0.4610 0.4126 0.0000
vt 0.4624 0.4265 0.0000
vt 0.5354 0.4267 0.0000
vt 0.5354 0.4929 0.0000
vt 0.4623 0.4926 0.0000
vt 0.3717 0.3988 0.0000
vt 0.3713 0.4126 0.0000
vt 0.3713 0.6785 0.0000
vt 0.3717 0.6923 0.0000
vt 0.3837 0.3988 0.0000
vt 0.3828 0.4126 0.0000
vt 0.3828 0.6785 0.0000
vt 0.3837 0.6923 0.0000
vt 0.4606 0.5851 0.0000
vt 0.4606 0.5060 0.0000
vt 0.5352 0.5851 0.0000
vt 0.5352 0.5060 0.0000
vt 0.4600 0.6923 0.0000
vt 0.4610 0.6785 0.0000
vt 0.5348 0.6923 0.0000
vt 0.5351 0.6785 0.0000
vt 0.4624 0.6646 0.0000
vt 0.3972 0.6660 0.0000
vt 0.3970 0.5977 0.0000
vt 0.4623 0.5985 0.0000
vt 0.5354 0.6644 0.0000
vt 0.5354 0.5981 0.0000
vt 0.5720 0.3988 0.0000
vt 0.5720 0.4126 0.0000
vt 0.5720 0.4266 0.0000
vt 0.5720 0.4929 0.0000
vt 0.3970 0.4934 0.0000
vt 0.3972 0.4250 0.0000
vt 0.5720 0.5851 0.0000
vt 0.5720 0.5981 0.0000
vt 0.5720 0.5060 0.0000
vt 0.5720 0.6923 0.0000
vt 0.5720 0.6785 0.0000
vt 0.5720 0.6644 0.0000
vt 1.3060 0.5851 0.0000
vt 1.3382 0.5851 0.0000
vt 1.3382 0.5060 0.0000
vt 1.3060 0.5060 0.0000
vt 1.3710 0.5851 0.0000
vt 1.3710 0.5060 0.0000
vt 1.3823 0.5851 0.0000
vt 1.3823 0.5060 0.0000
vt 1.3060 0.4126 0.0000
vt 1.3383 0.4126 0.0000
vt 1.3385 0.3988 0.0000
vt 1.3060 0.3988 0.0000
vt 1.3383 0.6785 0.0000
vt 1.3060 0.6785 0.0000
vt 1.3060 0.6923 0.0000
vt 1.3385 0.6923 0.0000
vt 1.4600 0.3988 0.0000
vt 1.4610 0.4126 0.0000
vt 1.5351 0.4126 0.0000
vt 1.5348 0.3988 0.0000
vt 1.4624 0.4265 0.0000
vt 1.4623 0.4926 0.0000
vt 1.5354 0.4929 0.0000
vt 1.5354 0.4267 0.0000
vt 1.3713 0.4126 0.0000
vt 1.3717 0.3988 0.0000
vt 1.3713 0.6785 0.0000
vt 1.3717 0.6923 0.0000
vt 1.3828 0.4126 0.0000
vt 1.3837 0.3988 0.0000
vt 1.3828 0.6785 0.0000
vt 1.3837 0.6923 0.0000
vt 1.4606 0.5851 0.0000
vt 1.4606 0.5060 0.0000
vt 1.5352 0.5851 0.0000
vt 1.5352 0.5060 0.0000
vt 1.4600 0.6923 0.0000
vt 1.4610 0.6785 0.0000
vt 1.5348 0.6923 0.0000
vt 1.5351 0.6785 0.0000
vt 1.4624 0.6646 0.0000
vt 1.4623 0.5985 0.0000
vt 1.3970 0.5977 0.0000
vt 1.3972 0.6660 0.0000
vt 1.5354 0.6644 0.0000
vt 1.5354 0.5981 0.0000
vt 1.5720 0.4126 0.0000
vt 1.5720 0.3988 0.0000
vt 1.5720 0.4929 0.0000
vt 1.5720 0.4266 0.0000
vt 1.3972 0.4250 0.0000
vt 1.3970 0.4934 0.0000
vt 1.5720 0.5981 0.0000
vt 1.5720 0.5851 0.0000
vt 1.5720 0.5060 0.0000
vt 1.5720 0.6923 0.0000
vt 1.5720 0.6785 0.0000
vt 1.5720 0.6644 0.0000
# 116 texture coords

o backwalls_inset1
g backwalls_inset1
f 1/1/1 2/2/1 3/3/2 4/4/2 
f 4/4/2 3/3/2 5/5/3 6/6/3 
f 6/6/3 5/5/3 7/7/4 8/8/5 
f 9/9/1 10/10/1 11/11/2 12/12/2 
f 2/2/1 9/9/1 12/12/2 3/3/2 
f 13/13/2 14/14/2 15/15/1 16/16/1 
f 4/4/2 13/13/2 16/16/1 1/1/1 
f 17/17/3 18/18/3 19/19/6 20/20/6 
f 21/21/6 22/22/6 23/23/7 24/24/7 
f 12/12/2 11/11/2 25/25/3 26/26/3 
f 3/3/2 12/12/2 26/26/3 5/5/3 
f 27/27/3 28/28/3 14/14/2 13/13/2 
f 6/6/3 27/27/3 13/13/2 4/4/2 
f 26/26/3 25/25/3 29/29/3 30/30/5 
f 5/5/3 26/26/3 30/30/5 7/7/4 
f 31/31/4 32/32/3 28/28/3 27/27/3 
f 8/8/5 31/31/4 27/27/3 6/6/3 
f 33/33/6 8/8/5 7/7/4 34/34/7 
f 35/35/6 33/33/6 34/34/7 36/36/7 
f 37/37/3 32/32/3 31/31/4 38/38/7 
f 39/39/3 37/37/3 38/38/7 40/40/7 
f 41/41/7 42/42/8 43/43/9 44/44/6 
f 45/45/7 41/41/7 44/44/6 46/46/6 
f 18/18/3 47/47/3 48/48/6 19/19/6 
f 20/20/6 30/30/5 29/29/3 17/17/3 
f 22/22/6 49/49/6 50/50/7 23/23/7 
f 24/24/7 51/51/8 52/52/9 21/21/6 
f 40/40/7 38/38/7 41/41/7 45/45/7 
f 38/38/7 31/31/4 42/42/8 41/41/7 
f 31/31/4 8/8/5 43/43/9 42/42/8 
f 8/8/5 33/33/6 44/44/6 43/43/9 
f 33/33/6 35/35/6 46/46/6 44/44/6 
f 35/35/6 53/53/6 54/54/6 46/46/6 
f 36/36/7 34/34/7 24/24/7 23/23/7 
f 34/34/7 7/7/4 51/51/8 24/24/7 
f 7/7/4 30/30/5 52/52/9 51/51/8 
f 30/30/5 20/20/6 21/21/6 52/52/9 
f 20/20/6 19/19/6 22/22/6 21/21/6 
f 19/19/6 48/48/6 49/49/6 22/22/6 
f 53/53/6 35/35/6 36/36/7 55/55/7 
f 56/56/3 39/39/3 40/40/7 57/57/7 
f 58/58/7 45/45/7 46/46/6 54/54/6 
f 57/57/7 40/40/7 45/45/7 58/58/7 
f 55/55/7 36/36/7 23/23/7 50/50/7 
f 59/59/10 60/60/11 61/61/11 62/62/10 
f 60/60/11 63/63/3 64/64/3 61/61/11 
f 63/63/3 65/65/12 66/66/13 64/64/3 
f 67/67/10 68/68/11 69/69/11 70/70/10 
f 62/62/10 61/61/11 68/68/11 67/67/10 
f 71/71/11 72/72/10 73/73/10 74/74/11 
f 60/60/11 59/59/10 72/72/10 71/71/11 
f 75/75/3 76/76/6 77/77/6 78/78/3 
f 79/79/6 80/80/7 81/81/7 82/82/6 
f 68/68/11 83/83/3 84/84/3 69/69/11 
f 61/61/11 64/64/3 83/83/3 68/68/11 
f 85/85/3 71/71/11 74/74/11 86/86/3 
f 63/63/3 60/60/11 71/71/11 85/85/3 
f 83/83/3 87/87/12 88/88/3 84/84/3 
f 64/64/3 66/66/13 87/87/12 83/83/3 
f 89/89/13 85/85/3 86/86/3 90/90/3 
f 65/65/12 63/63/3 85/85/3 89/89/13 
f 91/91/6 92/92/7 66/66/13 65/65/12 
f 93/93/6 94/94/7 92/92/7 91/91/6 
f 95/95/3 96/96/7 89/89/13 90/90/3 
f 97/97/3 98/98/7 96/96/7 95/95/3 
f 99/99/7 100/100/6 101/101/14 102/102/15 
f 103/103/7 104/104/6 100/100/6 99/99/7 
f 78/78/3 77/77/6 48/105/6 47/106/3 
f 76/76/6 75/75/3 88/88/3 87/87/12 
f 82/82/6 81/81/7 50/107/7 49/108/6 
f 80/80/7 79/79/6 105/109/14 106/110/15 
f 98/98/7 103/103/7 99/99/7 96/96/7 
f 96/96/7 99/99/7 102/102/15 89/89/13 
f 89/89/13 102/102/15 101/101/14 65/65/12 
f 65/65/12 101/101/14 100/100/6 91/91/6 
f 91/91/6 100/100/6 104/104/6 93/93/6 
f 93/93/6 104/104/6 54/111/6 53/112/6 
f 94/94/7 81/81/7 80/80/7 92/92/7 
f 92/92/7 80/80/7 106/110/15 66/66/13 
f 66/66/13 106/110/15 105/109/14 87/87/12 
f 87/87/12 105/109/14 79/79/6 76/76/6 
f 76/76/6 79/79/6 82/82/6 77/77/6 
f 77/77/6 82/82/6 49/108/6 48/105/6 
f 53/112/6 55/113/7 94/94/7 93/93/6 
f 56/114/3 57/115/7 98/98/7 97/97/3 
f 58/116/7 54/111/6 104/104/6 103/103/7 
f 57/115/7 58/116/7 103/103/7 98/98/7 
f 55/113/7 50/107/7 81/81/7 94/94/7 
# 88 polygons

