# 3ds Max Wavefront OBJ Exporter v0.97b - (c)2007 guruware
# File Created: 24.11.2019 19:40:55

#
# object cable_base
#

v  4.5579 -4.8053 -2.7971
v  4.5579 -4.8053 -0.0000
v  3.4184 -4.8053 -0.0000
v  3.4184 -4.8053 -2.7971
v  -0.0000 -4.2832 -2.7971
v  0.0000 -4.2832 -0.0000
v  0.0000 -3.5359 -0.0000
v  -0.0000 -3.5359 -2.7971
v  -0.0000 0.0000 -2.7971
v  0.0000 0.0000 -0.0000
v  1.1395 0.0000 -0.0000
v  1.1395 0.0000 -2.7971
v  4.5579 0.0000 -2.7971
v  4.5579 0.0000 -0.0000
v  4.5579 -1.2013 -0.0000
v  4.5579 -1.2013 -2.7971
v  0.0000 -2.4027 1.4200
v  0.0000 -1.2013 1.4200
v  0.0000 -1.2013 -0.0000
v  0.0000 -2.4027 -0.0000
v  4.5579 -2.4027 1.4200
v  4.5579 -3.5359 1.4200
v  4.5579 -3.5359 -0.0000
v  4.5579 -2.4027 -0.0000
v  1.7568 -4.8053 1.4200
v  1.1395 -4.8053 1.4200
v  1.1395 -4.8053 -0.0000
v  1.7568 -4.8053 -0.0000
v  2.2790 0.0000 1.4200
v  3.4184 0.0000 1.4200
v  3.4184 0.0000 -0.0000
v  2.2790 0.0000 -0.0000
v  0.5222 -4.8053 1.4200
v  0.0000 -4.2832 1.4200
v  0.5222 -4.8053 -0.0000
v  2.2790 -4.2832 1.4200
v  2.2790 -4.2832 -0.0000
v  2.2790 -4.8053 1.4200
v  2.2790 -4.8053 -0.0000
v  4.5579 -4.2832 1.4200
v  4.5579 -4.8053 1.4200
v  4.5579 -4.2832 -0.0000
v  1.1395 -4.5904 1.4200
v  0.6112 -4.5904 1.4200
v  2.0641 -4.1941 1.4200
v  1.6678 -4.5904 1.4200
v  2.2790 -3.5359 1.4200
v  2.0641 -3.5359 1.4200
v  2.2790 -2.4027 1.4200
v  1.1395 -2.4027 1.4200
v  1.1395 -2.6176 1.4200
v  2.0641 -2.6176 1.4200
v  0.0000 -3.5359 1.4200
v  0.2149 -3.5359 1.4200
v  0.2149 -2.6176 1.4200
v  0.2149 -4.1941 1.4200
v  4.3430 -4.2832 1.4200
v  4.3430 -4.5904 1.4200
v  4.3430 -3.5359 1.4200
v  3.4184 -2.4027 1.4200
v  3.4184 -2.6176 1.4200
v  4.3430 -2.6176 1.4200
v  2.4939 -3.5359 1.4200
v  2.4939 -2.6176 1.4200
v  2.4939 -4.5904 1.4200
v  2.4939 -4.2832 1.4200
v  3.4184 -4.8053 1.4200
v  3.4184 -4.5904 1.4200
v  4.5579 -1.2013 1.4200
v  4.3430 -1.2013 1.4200
v  4.3430 -2.1878 1.4200
v  4.5579 0.0000 1.4200
v  3.4184 -0.2149 1.4200
v  4.3430 -0.2149 1.4200
v  2.2790 -1.2013 1.4200
v  2.4939 -1.2013 1.4200
v  2.4939 -0.2149 1.4200
v  3.4184 -2.1878 1.4200
v  2.4939 -2.1878 1.4200
v  1.1395 0.0000 1.4200
v  1.1395 -0.2149 1.4200
v  2.0641 -0.2149 1.4200
v  0.0000 0.0000 1.4200
v  0.2149 -1.2013 1.4200
v  0.2149 -0.2149 1.4200
v  1.1395 -2.1878 1.4200
v  0.2149 -2.1878 1.4200
v  2.0641 -1.2013 1.4200
v  2.0641 -2.1878 1.4200
v  4.3430 -4.2832 -0.2246
v  4.3430 -4.5904 -0.2246
v  4.3430 -3.5359 -0.2246
v  3.4184 -2.6176 -0.2246
v  4.3430 -2.6176 -0.2246
v  2.4939 -3.5359 -0.2246
v  2.4939 -2.6176 -0.2246
v  2.4939 -4.5904 -0.2246
v  2.4939 -4.2832 -0.2246
v  3.4184 -4.5904 -0.2246
v  4.3430 -1.2013 -0.2246
v  4.3430 -2.1878 -0.2246
v  3.4184 -0.2149 -0.2246
v  4.3430 -0.2149 -0.2246
v  2.4939 -1.2013 -0.2246
v  2.4939 -0.2149 -0.2246
v  3.4184 -2.1878 -0.2246
v  2.4939 -2.1878 -0.2246
v  1.1395 -4.5904 -0.2246
v  0.6112 -4.5904 -0.2246
v  2.0641 -4.1941 -0.2246
v  1.6678 -4.5904 -0.2246
v  2.0641 -3.5359 -0.2246
v  1.1395 -2.6176 -0.2246
v  2.0641 -2.6176 -0.2246
v  0.2149 -3.5359 -0.2246
v  0.2149 -2.6176 -0.2246
v  0.2149 -4.1941 -0.2246
v  1.1395 -0.2149 -0.2246
v  2.0641 -0.2149 -0.2246
v  0.2149 -1.2013 -0.2246
v  0.2149 -0.2149 -0.2246
v  1.1395 -2.1878 -0.2246
v  0.2149 -2.1878 -0.2246
v  2.0641 -1.2013 -0.2246
v  2.0641 -2.1878 -0.2246
v  3.4184 -4.2832 -0.2246
v  3.4184 -1.2013 -0.2246
v  1.1395 -4.1941 -0.2246
v  1.1395 -1.2013 -0.2246
v  1.1395 -3.5359 -0.2246
v  3.4184 -3.5359 -0.2246
v  1.4689 -1.2013 -0.2246
v  1.4060 -1.0077 -0.2246
v  1.4060 -1.0077 0.8042
v  1.4689 -1.2013 0.8042
v  1.2413 -0.8880 -0.2246
v  1.2413 -0.8880 0.8042
v  1.0377 -0.8880 -0.2246
v  1.0377 -0.8880 0.8042
v  0.8730 -1.0077 -0.2246
v  0.8730 -1.0077 0.8042
v  0.8101 -1.2013 -0.2246
v  0.8101 -1.2013 0.8042
v  0.8730 -1.3950 -0.2246
v  0.8730 -1.3950 0.8042
v  1.0377 -1.5146 -0.2246
v  1.0377 -1.5146 0.8042
v  1.2413 -1.5146 -0.2246
v  1.2413 -1.5146 0.8042
v  1.4060 -1.3950 -0.2246
v  1.4060 -1.3950 0.8042
v  1.1395 -1.2013 0.8042
v  1.4689 -3.5359 -0.2246
v  1.4060 -3.3423 -0.2246
v  1.4060 -3.3423 0.8042
v  1.4689 -3.5359 0.8042
v  1.2413 -3.2226 -0.2246
v  1.2413 -3.2226 0.8042
v  1.0377 -3.2226 -0.2246
v  1.0377 -3.2226 0.8042
v  0.8730 -3.3423 -0.2246
v  0.8730 -3.3423 0.8042
v  0.8101 -3.5359 -0.2246
v  0.8101 -3.5359 0.8042
v  0.8730 -3.7295 -0.2246
v  0.8730 -3.7295 0.8042
v  1.0377 -3.8492 -0.2246
v  1.0377 -3.8492 0.8042
v  1.2413 -3.8492 -0.2246
v  1.2413 -3.8492 0.8042
v  1.4060 -3.7295 -0.2246
v  1.4060 -3.7295 0.8042
v  1.1395 -3.5359 0.8042
v  3.7479 -3.5359 -0.2246
v  3.6849 -3.3423 -0.2246
v  3.6849 -3.3423 0.8042
v  3.7479 -3.5359 0.8042
v  3.5202 -3.2226 -0.2246
v  3.5202 -3.2226 0.8042
v  3.3166 -3.2226 -0.2246
v  3.3166 -3.2226 0.8042
v  3.1519 -3.3423 -0.2246
v  3.1519 -3.3423 0.8042
v  3.0890 -3.5359 -0.2246
v  3.0890 -3.5359 0.8042
v  3.1519 -3.7295 -0.2246
v  3.1519 -3.7295 0.8042
v  3.3166 -3.8492 -0.2246
v  3.3166 -3.8492 0.8042
v  3.5202 -3.8492 -0.2246
v  3.5202 -3.8492 0.8042
v  3.6849 -3.7295 -0.2246
v  3.6849 -3.7295 0.8042
v  3.4184 -3.5359 0.8042
v  3.7479 -1.2013 -0.2246
v  3.6849 -1.0077 -0.2246
v  3.6849 -1.0077 0.8042
v  3.7479 -1.2013 0.8042
v  3.5202 -0.8880 -0.2246
v  3.5202 -0.8880 0.8042
v  3.3166 -0.8880 -0.2246
v  3.3166 -0.8880 0.8042
v  3.1519 -1.0077 -0.2246
v  3.1519 -1.0077 0.8042
v  3.0890 -1.2013 -0.2246
v  3.0890 -1.2013 0.8042
v  3.1519 -1.3950 -0.2246
v  3.1519 -1.3950 0.8042
v  3.3166 -1.5146 -0.2246
v  3.3166 -1.5146 0.8042
v  3.5202 -1.5146 -0.2246
v  3.5202 -1.5146 0.8042
v  3.6849 -1.3950 -0.2246
v  3.6849 -1.3950 0.8042
v  3.4184 -1.2013 0.8042
v  1.7259 0.2832 0.6582
v  2.8320 0.2832 0.6582
v  2.8320 0.2832 -0.0745
v  1.7259 0.2832 -0.0745
v  1.7259 -0.0473 1.2283
v  2.8320 -0.0473 1.2283
v  2.8320 -0.0473 -0.0745
v  1.7259 -0.0473 -0.0745
v  -0.0000 -1.2013 -2.7971
v  -0.0000 -2.4027 -2.7971
v  4.5579 -3.5359 -2.7971
v  4.5579 -2.4027 -2.7971
v  1.1395 -4.8053 -2.7971
v  1.7568 -4.8053 -2.7971
v  3.4184 0.0000 -2.7971
v  2.2790 0.0000 -2.7971
v  0.5222 -4.8053 -2.7971
v  2.2790 -4.2832 -2.7971
v  2.2790 -4.8053 -2.7971
v  4.5579 -4.2832 -2.7971
# 235 vertices

vn 0.7071 -0.7071 -0.0000
vn 0.0000 -1.0000 0.0000
vn -0.9239 -0.3826 0.0000
vn -0.9239 -0.3827 0.0000
vn -1.0000 0.0000 0.0000
vn -0.7071 0.7071 0.0000
vn 0.0000 1.0000 0.0000
vn 0.0000 1.0000 -0.0000
vn 0.7071 0.7071 -0.0000
vn 1.0000 0.0000 -0.0000
vn -0.7071 -0.0000 0.7071
vn -0.7071 0.0000 0.7071
vn 0.7071 0.0000 0.7071
vn 0.2971 -0.7173 0.6303
vn 0.0000 -0.7071 0.7071
vn 0.3827 -0.9239 -0.0000
vn 0.0000 0.7071 0.7071
vn -0.2971 -0.7173 0.6303
vn -0.7173 -0.2971 0.6303
vn -0.3827 -0.9239 0.0000
vn -0.0818 -0.1973 0.9769
vn -0.5773 -0.5774 0.5774
vn -0.7071 -0.7071 0.0000
vn 0.7071 -0.0000 0.7071
vn 0.5773 -0.5774 0.5774
vn 0.2275 0.5492 0.8042
vn -0.5491 0.2274 0.8042
vn -0.2275 0.5492 0.8042
vn 0.0000 0.0000 1.0000
vn -0.3015 -0.3015 0.9045
vn 0.3015 -0.3015 0.9045
vn 0.5491 0.2274 0.8042
vn -0.3015 0.3015 0.9045
vn 0.3015 0.3015 0.9045
vn 0.5774 0.5774 0.5774
vn -0.5773 0.5774 0.5774
vn 0.5774 -0.5774 0.5774
vn 0.5774 0.5774 0.5773
vn -0.5774 -0.5774 0.5774
vn 0.5774 -0.5773 0.5774
vn 0.2971 0.7173 0.6303
vn -0.7173 0.2971 0.6303
vn -0.2971 0.7173 0.6303
vn -0.5773 -0.5773 0.5774
vn 0.7173 0.2971 0.6303
vn 0.5774 0.5773 0.5773
vn -0.5774 0.5774 0.5774
vn 0.8090 0.5878 0.0000
vn 0.6191 0.4498 0.6438
vn 0.7653 0.0000 0.6437
vn 0.3090 0.9511 0.0000
vn 0.2365 0.7278 0.6437
vn -0.3090 0.9511 0.0000
vn -0.2365 0.7278 0.6437
vn -0.8090 0.5878 0.0000
vn -0.6191 0.4498 0.6438
vn -1.0000 0.0000 -0.0000
vn -0.7653 0.0000 0.6437
vn -0.8090 -0.5878 -0.0000
vn -0.6191 -0.4499 0.6437
vn -0.3091 -0.9510 -0.0000
vn -0.2364 -0.7278 0.6438
vn 0.3091 -0.9510 -0.0000
vn 0.2364 -0.7278 0.6438
vn 0.8090 -0.5878 -0.0000
vn 0.6191 -0.4499 0.6437
vn 0.3090 0.9511 -0.0000
vn 0.2364 0.7278 0.6438
vn -0.3090 0.9511 -0.0000
vn -0.2364 0.7278 0.6438
vn -0.3090 -0.9511 -0.0000
vn -0.6531 0.7313 0.1967
vn 0.6531 0.7313 0.1967
vn 0.5774 0.5774 -0.5774
vn -0.5774 0.5774 -0.5774
vn -0.3172 0.8205 0.4756
vn 0.3172 0.8205 0.4756
vn 0.7071 0.0000 -0.7071
vn -0.7071 0.0000 -0.7071
vn 1.0000 -0.0000 -0.0000
vn 0.3826 -0.9239 -0.0000
vn -0.0000 1.0000 -0.0000
vn -0.3824 -0.9240 0.0000
# 83 vertex normals

vt 0.0000 0.0000 0.0000
vt 0.0000 0.5000 0.0000
vt 0.1927 0.5000 0.0000
vt 0.1927 0.0000 0.0000
vt 0.1087 0.0000 0.0000
vt 0.1087 0.5000 0.0000
vt 0.3043 0.5000 0.0000
vt 0.3043 0.0000 0.0000
vt 0.2500 0.5000 0.0000
vt 0.2500 0.0000 0.0000
vt 0.5000 1.0000 0.0000
vt 0.7500 1.0000 0.0000
vt 0.7500 0.5000 0.0000
vt 0.5000 0.5000 0.0000
vt 0.6250 1.0000 0.0000
vt 0.6250 0.5000 0.0000
vt 0.6146 1.0000 0.0000
vt 0.6146 0.5000 0.0000
vt 0.6489 1.0000 0.0000
vt 0.1087 1.0000 0.0000
vt 0.6489 0.5000 0.0000
vt 0.0000 1.0000 0.0000
vt 1.0000 1.0000 0.0000
vt 0.5543 0.5000 0.0000
vt 1.0000 0.5000 0.0000
vt 0.8854 0.0000 0.0000
vt 0.7500 0.0000 0.0000
vt 0.6146 0.0000 0.0000
vt 0.5000 0.1087 0.0000
vt 0.5000 0.3043 0.0000
vt 1.0000 0.3043 0.0000
vt 1.0000 0.1087 0.0000
vt 0.0000 0.2500 0.0000
vt 0.0000 0.3750 0.0000
vt 0.3854 0.0000 0.0000
vt 0.0000 0.7500 0.0000
vt 0.2500 1.0000 0.0000
vt 0.5000 0.7500 0.0000
vt 1.0000 0.7500 0.0000
vt 0.2500 0.1793 0.0000
vt 0.2500 0.7500 0.0000
vt 0.7500 0.1087 0.0000
vt 0.7500 0.7500 0.0000
vt 0.7500 0.3043 0.0000
vt 0.2500 0.3397 0.0000
vt 0.8854 1.0000 0.0000
vt 0.8854 0.5000 0.0000
vt 0.1927 1.0000 0.0000
vt 0.3854 1.0000 0.0000
vt 0.3854 0.5000 0.0000
vt 0.3043 1.0000 0.0000
vt 0.7500 0.0000 1.0000
vt 0.8500 0.0000 1.0000
vt 0.8500 1.0000 1.0000
vt 0.7500 1.0000 1.0000
vt 0.9500 0.0000 1.0000
vt 0.9500 1.0000 1.0000
vt -0.0500 0.0000 1.0000
vt 0.0500 0.0000 1.0000
vt 0.0500 1.0000 1.0000
vt -0.0500 1.0000 1.0000
vt 0.1500 0.0000 1.0000
vt 0.1500 1.0000 1.0000
vt 0.2500 0.0000 1.0000
vt 0.2500 1.0000 1.0000
vt 0.3500 0.0000 1.0000
vt 0.3500 1.0000 1.0000
vt 0.4500 0.0000 1.0000
vt 0.4500 1.0000 1.0000
vt 0.5500 0.0000 1.0000
vt 0.5500 1.0000 1.0000
vt 0.6500 0.0000 1.0000
vt 0.6500 1.0000 1.0000
vt 0.8781 1.0000 0.6180
vt 0.6618 1.0000 -0.0000
vt 0.3837 1.0000 -0.6180
vt 0.1500 1.0000 -1.0000
vt 0.0500 1.0000 -1.0000
vt 0.1219 1.0000 -0.6180
vt 1.0000 0.0000 0.0000
vt 0.5000 0.0000 0.0000
vt 0.6250 0.0000 0.0000
vt 0.6489 0.0000 0.0000
# 83 texture coords

o cable_base
g cable_base
f 1/1/1 2/2/1 3/3/2 4/4/2 
f 5/5/3 6/6/4 7/7/5 8/8/5 
f 9/1/6 10/2/6 11/9/7 12/10/8 
f 13/1/9 14/2/9 15/9/10 16/10/10 
f 17/11/11 18/12/12 19/13/5 20/14/5 
f 21/11/13 22/15/13 23/16/10 24/14/10 
f 25/17/14 26/12/15 27/13/2 28/18/16 
f 29/11/17 30/12/17 31/13/7 32/14/7 
f 33/19/18 34/20/19 6/6/4 35/21/20 
f 36/22/21 25/23/14 28/14/16 37/14/20 
f 38/23/22 36/22/21 37/14/20 39/24/23 
f 40/12/24 41/23/25 2/25/1 42/13/10 
f 33/26/18 26/27/15 43/27/17 44/26/26 
f 25/28/14 36/29/21 45/29/27 46/28/28 
f 36/29/21 47/30/29 48/30/12 45/29/27 
f 49/14/29 50/13/29 51/13/15 52/14/30 
f 17/25/11 53/31/12 54/31/13 55/25/31 
f 34/32/19 33/26/18 44/26/26 56/32/32 
f 41/1/25 40/33/24 57/33/12 58/1/33 
f 40/33/24 22/34/13 59/34/11 57/33/12 
f 21/2/13 60/9/29 61/9/15 62/2/30 
f 49/14/29 47/30/29 63/30/13 64/14/31 
f 36/29/21 38/35/22 65/35/34 66/29/13 
f 38/35/22 67/4/15 68/4/17 65/35/34 
f 21/2/13 69/36/13 70/36/12 71/2/33 
f 72/22/35 30/37/17 73/37/15 74/22/30 
f 29/11/17 75/38/29 76/38/13 77/11/31 
f 49/14/29 60/9/29 78/9/17 79/14/34 
f 29/11/17 80/12/17 81/12/15 82/11/30 
f 83/23/36 18/39/12 84/39/13 85/23/31 
f 17/25/11 50/13/29 86/13/17 87/25/34 
f 49/14/29 75/38/29 88/38/12 89/14/33 
f 58/1/33 57/33/12 90/33/12 91/1/36 
f 57/33/12 59/34/11 92/34/12 90/33/12 
f 62/2/30 61/9/15 93/9/15 94/2/22 
f 64/14/31 63/30/13 95/30/13 96/14/37 
f 66/29/13 65/35/34 97/35/38 98/29/13 
f 65/35/34 68/4/17 99/4/17 97/35/38 
f 71/2/33 70/36/12 100/36/12 101/2/36 
f 74/22/30 73/37/15 102/37/15 103/22/39 
f 77/11/31 76/38/13 104/38/13 105/11/40 
f 79/14/34 78/9/17 106/9/17 107/14/35 
f 44/26/26 43/27/17 108/27/17 109/26/41 
f 46/28/28 45/29/27 110/29/42 111/28/43 
f 45/29/27 48/30/12 112/30/12 110/29/42 
f 52/14/30 51/13/15 113/13/15 114/14/44 
f 55/25/31 54/31/13 115/31/13 116/25/40 
f 56/32/32 44/26/26 109/26/41 117/32/45 
f 82/11/30 81/12/15 118/12/15 119/11/39 
f 85/23/31 84/39/13 120/39/13 121/23/40 
f 87/25/34 86/13/17 122/13/17 123/25/46 
f 89/14/33 88/38/12 124/38/12 125/14/47 
f 90/33/12 126/40/29 99/4/17 91/1/36 
f 103/22/39 102/37/15 127/41/29 100/36/12 
f 111/28/43 110/29/42 128/42/29 108/27/17 
f 121/23/40 120/39/13 129/43/29 118/12/15 
f 110/29/42 112/30/12 130/44/29 128/42/29 
f 90/33/12 92/34/12 131/45/29 126/40/29 
f 69/37/13 21/11/13 24/14/10 15/9/10 
f 18/12/12 83/23/36 10/25/6 19/13/5 
f 69/36/13 72/22/35 74/22/30 70/36/12 
f 75/38/29 49/14/29 79/14/34 76/38/13 
f 18/39/12 17/25/11 87/25/34 84/39/13 
f 75/38/29 29/11/17 82/11/30 88/38/12 
f 70/36/12 74/22/30 103/22/39 100/36/12 
f 76/38/13 79/14/34 107/14/35 104/38/13 
f 84/39/13 87/25/34 123/25/46 120/39/13 
f 88/38/12 82/11/30 119/11/39 124/38/12 
f 104/38/13 107/14/35 106/9/17 127/41/29 
f 120/39/13 123/25/46 122/13/17 129/43/29 
f 80/37/17 29/11/17 32/14/7 11/9/7 
f 26/12/15 33/46/18 35/47/20 27/13/2 
f 26/27/15 25/28/14 46/28/28 43/27/17 
f 50/13/29 17/25/11 55/25/31 51/13/15 
f 80/12/17 83/23/36 85/23/31 81/12/15 
f 50/13/29 49/14/29 89/14/33 86/13/17 
f 43/27/17 46/28/28 111/28/43 108/27/17 
f 51/13/15 55/25/31 116/25/40 113/13/15 
f 81/12/15 85/23/31 121/23/40 118/12/15 
f 86/13/17 89/14/33 125/14/47 122/13/17 
f 128/42/29 117/32/45 109/26/41 108/27/17 
f 129/43/29 124/38/12 119/11/39 118/12/15 
f 113/13/15 116/25/40 115/31/13 130/44/29 
f 122/13/17 125/14/47 124/38/12 129/43/29 
f 67/48/15 38/49/22 39/50/23 3/3/2 
f 30/12/17 72/23/35 14/25/9 31/13/7 
f 60/9/29 49/14/29 64/14/31 61/9/15 
f 67/4/15 41/1/25 58/1/33 68/4/17 
f 30/37/17 29/11/17 77/11/31 73/37/15 
f 60/9/29 21/2/13 71/2/33 78/9/17 
f 61/9/15 64/14/31 96/14/37 93/9/15 
f 68/4/17 58/1/33 91/1/36 99/4/17 
f 73/37/15 77/11/31 105/11/40 102/37/15 
f 78/9/17 71/2/33 101/2/36 106/9/17 
f 126/40/29 98/29/13 97/35/38 99/4/17 
f 102/37/15 105/11/40 104/38/13 127/41/29 
f 93/9/15 96/14/37 95/30/13 131/45/29 
f 106/9/17 101/2/36 100/36/12 127/41/29 
f 53/51/12 17/11/11 20/14/5 7/7/5 
f 22/15/13 40/12/24 42/13/10 23/16/10 
f 47/30/29 49/14/29 52/14/30 48/30/12 
f 53/31/12 34/32/19 56/32/32 54/31/13 
f 22/34/13 21/2/13 62/2/30 59/34/11 
f 47/30/29 36/29/21 66/29/13 63/30/13 
f 59/34/11 62/2/30 94/2/22 92/34/12 
f 63/30/13 66/29/13 98/29/13 95/30/13 
f 48/30/12 52/14/30 114/14/44 112/30/12 
f 54/31/13 56/32/32 117/32/45 115/31/13 
f 112/30/12 114/14/44 113/13/15 130/44/29 
f 92/34/12 94/2/22 93/9/15 131/45/29 
f 115/31/13 117/32/45 128/42/29 130/44/29 
f 95/30/13 98/29/13 126/40/29 131/45/29 
f 132/52/10 133/53/48 134/54/49 135/55/50 
f 133/53/48 136/56/51 137/57/52 134/54/49 
f 136/58/51 138/59/53 139/60/54 137/61/52 
f 138/59/53 140/62/55 141/63/56 139/60/54 
f 140/62/55 142/64/57 143/65/58 141/63/56 
f 142/64/57 144/66/59 145/67/60 143/65/58 
f 144/66/59 146/68/61 147/69/62 145/67/60 
f 146/68/61 148/70/63 149/71/64 147/69/62 
f 148/70/63 150/72/65 151/73/66 149/71/64 
f 150/72/65 132/52/10 135/55/50 151/73/66 
f 151/73/66 135/55/50 152/11/29 
f 135/55/50 134/54/49 152/11/29 
f 134/54/49 137/57/52 152/11/29 
f 137/57/52 139/74/54 152/11/29 
f 139/74/54 141/75/56 152/11/29 
f 141/75/56 143/76/58 152/11/29 
f 143/76/58 145/77/60 152/11/29 
f 145/77/60 147/78/62 152/11/29 
f 147/78/62 149/79/64 152/11/29 
f 149/79/64 151/73/66 152/11/29 
f 153/52/10 154/53/48 155/54/49 156/55/50 
f 154/53/48 157/56/67 158/57/68 155/54/49 
f 157/58/67 159/59/69 160/60/70 158/61/68 
f 159/59/69 161/62/55 162/63/56 160/60/70 
f 161/62/55 163/64/5 164/65/58 162/63/56 
f 163/64/5 165/66/59 166/67/60 164/65/58 
f 165/66/59 167/68/71 168/69/62 166/67/60 
f 167/68/71 169/70/63 170/71/64 168/69/62 
f 169/70/63 171/72/65 172/73/66 170/71/64 
f 171/72/65 153/52/10 156/55/50 172/73/66 
f 172/73/66 156/55/50 173/11/29 
f 156/55/50 155/54/49 173/11/29 
f 155/54/49 158/57/68 173/11/29 
f 158/57/68 160/74/70 173/11/29 
f 160/74/70 162/75/56 173/11/29 
f 162/75/56 164/76/58 173/11/29 
f 164/76/58 166/77/60 173/11/29 
f 166/77/60 168/78/62 173/11/29 
f 168/78/62 170/79/64 173/11/29 
f 170/79/64 172/73/66 173/11/29 
f 174/52/10 175/53/48 176/54/49 177/55/50 
f 175/53/48 178/56/67 179/57/68 176/54/49 
f 178/58/67 180/59/69 181/60/70 179/61/68 
f 180/59/69 182/62/55 183/63/56 181/60/70 
f 182/62/55 184/64/5 185/65/58 183/63/56 
f 184/64/5 186/66/59 187/67/60 185/65/58 
f 186/66/59 188/68/71 189/69/62 187/67/60 
f 188/68/71 190/70/63 191/71/64 189/69/62 
f 190/70/63 192/72/65 193/73/66 191/71/64 
f 192/72/65 174/52/10 177/55/50 193/73/66 
f 193/73/66 177/55/50 194/11/29 
f 177/55/50 176/54/49 194/11/29 
f 176/54/49 179/57/68 194/11/29 
f 179/57/68 181/74/70 194/11/29 
f 181/74/70 183/75/56 194/11/29 
f 183/75/56 185/76/58 194/11/29 
f 185/76/58 187/77/60 194/11/29 
f 187/77/60 189/78/62 194/11/29 
f 189/78/62 191/79/64 194/11/29 
f 191/79/64 193/73/66 194/11/29 
f 195/52/10 196/53/48 197/54/49 198/55/50 
f 196/53/48 199/56/51 200/57/52 197/54/49 
f 199/58/51 201/59/53 202/60/54 200/61/52 
f 201/59/53 203/62/55 204/63/56 202/60/54 
f 203/62/55 205/64/57 206/65/58 204/63/56 
f 205/64/57 207/66/59 208/67/60 206/65/58 
f 207/66/59 209/68/61 210/69/62 208/67/60 
f 209/68/61 211/70/63 212/71/64 210/69/62 
f 211/70/63 213/72/65 214/73/66 212/71/64 
f 213/72/65 195/52/10 198/55/50 214/73/66 
f 214/73/66 198/55/50 215/11/29 
f 198/55/50 197/54/49 215/11/29 
f 197/54/49 200/57/52 215/11/29 
f 200/57/52 202/74/54 215/11/29 
f 202/74/54 204/75/56 215/11/29 
f 204/75/56 206/76/58 215/11/29 
f 206/76/58 208/77/60 215/11/29 
f 208/77/60 210/78/62 215/11/29 
f 210/78/62 212/79/64 215/11/29 
f 212/79/64 214/73/66 215/11/29 
f 216/1/72 217/80/73 218/23/74 219/22/75 
f 220/1/76 221/80/77 217/23/73 216/22/72 
f 221/1/77 222/80/78 218/23/74 217/22/73 
f 222/1/78 223/80/79 219/23/75 218/22/74 
f 223/1/79 220/80/76 216/23/72 219/22/75 
f 2/2/1 41/22/25 67/48/15 3/3/2 
f 6/6/4 34/20/19 53/51/12 7/7/5 
f 10/2/6 83/22/36 80/37/17 11/9/7 
f 14/2/9 72/22/35 69/37/13 15/9/10 
f 19/13/5 224/27/5 225/81/5 20/14/5 
f 23/16/10 226/82/80 227/81/10 24/14/10 
f 27/13/2 228/27/2 229/28/81 28/18/16 
f 31/13/7 230/27/82 231/81/8 32/14/7 
f 6/6/4 5/5/3 232/83/20 35/21/20 
f 28/14/16 229/1/81 233/80/83 37/14/20 
f 37/14/20 233/80/83 234/5/23 39/24/23 
f 2/25/1 1/80/1 235/27/80 42/13/10 
f 24/14/10 227/81/10 16/10/10 15/9/10 
f 10/25/6 9/80/6 224/27/5 19/13/5 
f 32/14/7 231/81/8 12/10/8 11/9/7 
f 35/47/20 232/26/20 228/27/2 27/13/2 
f 39/50/23 234/35/23 4/4/2 3/3/2 
f 14/25/9 13/80/9 230/27/82 31/13/7 
f 20/14/5 225/81/5 8/8/5 7/7/5 
f 42/13/10 235/27/80 226/82/80 23/16/10 
# 177 polygons - 40 triangles

