# 3ds Max Wavefront OBJ Exporter v0.97b - (c)2007 guruware
# File Created: 24.11.2019 19:40:26

#
# object fan_blades
#

v  0.3182 -0.1772 0.0628
v  0.3180 -0.1772 -0.0638
v  0.3180 0.2369 -0.0638
v  0.3182 0.2369 0.0628
v  0.2694 -0.1772 -0.1806
v  0.2694 0.2369 -0.1806
v  0.1798 -0.1772 -0.2700
v  0.1798 0.2369 -0.2700
v  0.0628 -0.1772 -0.3182
v  0.0628 0.2369 -0.3182
v  -0.0638 -0.1772 -0.3180
v  -0.0638 0.2369 -0.3180
v  -0.1806 -0.1772 -0.2694
v  -0.1806 0.2369 -0.2694
v  -0.2700 -0.1772 -0.1798
v  -0.2700 0.2369 -0.1798
v  -0.3182 -0.1772 -0.0628
v  -0.3182 0.2369 -0.0628
v  -0.3180 -0.1772 0.0638
v  -0.3180 0.2369 0.0638
v  -0.2694 -0.1772 0.1806
v  -0.2694 0.2369 0.1806
v  -0.1798 -0.1772 0.2700
v  -0.1798 0.2369 0.2700
v  -0.0628 -0.1772 0.3182
v  -0.0628 0.2369 0.3182
v  0.0638 -0.1772 0.3180
v  0.0638 0.2369 0.3180
v  0.1806 -0.1772 0.2694
v  0.1806 0.2369 0.2694
v  0.2700 -0.1772 0.1798
v  0.2700 0.2369 0.1798
v  0.2203 -0.2369 0.1467
v  0.1474 -0.2369 0.2198
v  0.0000 -0.2369 -0.0000
v  0.0520 -0.2369 0.2595
v  -0.0512 -0.2369 0.2596
v  -0.1467 -0.2369 0.2203
v  -0.2198 -0.2369 0.1474
v  -0.2595 -0.2369 0.0520
v  -0.2596 -0.2369 -0.0512
v  -0.2203 -0.2369 -0.1467
v  -0.1474 -0.2369 -0.2198
v  -0.0520 -0.2369 -0.2595
v  0.0512 -0.2369 -0.2596
v  0.1467 -0.2369 -0.2203
v  0.2198 -0.2369 -0.1474
v  0.2595 -0.2369 -0.0520
v  0.2596 -0.2369 0.0512
v  0.5239 0.0680 -0.4563
v  1.0573 0.0663 -0.9996
v  0.5234 -0.1367 -1.3954
v  0.2033 -0.0640 -0.6551
v  1.0112 0.0130 -1.2613
v  0.7202 -0.1152 -1.4677
v  0.0649 -0.0053 -0.1773
v  0.1533 0.0676 -0.0882
v  0.1774 -0.0715 -0.0642
v  0.5479 -0.0710 -0.4323
v  1.0813 -0.0727 -0.9756
v  1.0353 -0.1260 -1.2373
v  0.7305 -0.1746 -1.4575
v  0.5336 -0.1961 -1.3851
v  0.2136 -0.1235 -0.6448
v  0.0752 -0.0648 -0.1670
v  0.6931 0.0680 0.0478
v  1.4545 0.0663 0.0408
v  1.3567 -0.1367 -0.6166
v  0.6070 -0.0640 -0.3194
v  1.6069 0.0130 -0.1768
v  1.5471 -0.1152 -0.5286
v  0.1713 -0.0053 -0.0795
v  0.1708 0.0676 0.0460
v  0.1708 -0.0715 0.0800
v  0.6931 -0.0710 0.0818
v  1.4545 -0.0727 0.0748
v  1.6069 -0.1260 -0.1428
v  1.5471 -0.1746 -0.5140
v  1.3567 -0.1961 -0.6021
v  0.6070 -0.1235 -0.3049
v  0.1713 -0.0648 -0.0650
v  0.4563 0.0680 0.5239
v  0.9996 0.0663 1.0573
v  1.3954 -0.1367 0.5234
v  0.6551 -0.0640 0.2033
v  1.2613 0.0130 1.0112
v  1.4677 -0.1152 0.7202
v  0.1773 -0.0053 0.0649
v  0.0882 0.0676 0.1533
v  0.0642 -0.0715 0.1774
v  0.4323 -0.0710 0.5479
v  0.9756 -0.0727 1.0813
v  1.2373 -0.1260 1.0353
v  1.4575 -0.1746 0.7305
v  1.3851 -0.1961 0.5336
v  0.6448 -0.1235 0.2136
v  0.1670 -0.0648 0.0752
v  -0.0478 0.0680 0.6931
v  -0.0408 0.0663 1.4545
v  0.6166 -0.1367 1.3567
v  0.3194 -0.0640 0.6070
v  0.1768 0.0130 1.6069
v  0.5286 -0.1152 1.5471
v  0.0795 -0.0053 0.1713
v  -0.0460 0.0676 0.1708
v  -0.0800 -0.0715 0.1708
v  -0.0818 -0.0710 0.6931
v  -0.0748 -0.0727 1.4545
v  0.1428 -0.1260 1.6069
v  0.5140 -0.1746 1.5471
v  0.6021 -0.1961 1.3567
v  0.3049 -0.1235 0.6070
v  0.0650 -0.0648 0.1713
v  -0.5239 0.0680 0.4563
v  -1.0573 0.0663 0.9996
v  -0.5234 -0.1367 1.3954
v  -0.2033 -0.0640 0.6551
v  -1.0112 0.0130 1.2613
v  -0.7202 -0.1152 1.4677
v  -0.0649 -0.0053 0.1773
v  -0.1533 0.0676 0.0882
v  -0.1774 -0.0715 0.0642
v  -0.5479 -0.0710 0.4323
v  -1.0813 -0.0727 0.9756
v  -1.0353 -0.1260 1.2373
v  -0.7305 -0.1746 1.4575
v  -0.5336 -0.1961 1.3851
v  -0.2136 -0.1235 0.6448
v  -0.0752 -0.0648 0.1670
v  -0.6931 0.0680 -0.0478
v  -1.4545 0.0663 -0.0408
v  -1.3567 -0.1367 0.6166
v  -0.6070 -0.0640 0.3194
v  -1.6069 0.0130 0.1768
v  -1.5471 -0.1152 0.5286
v  -0.1713 -0.0053 0.0795
v  -0.1708 0.0676 -0.0460
v  -0.1708 -0.0715 -0.0800
v  -0.6931 -0.0710 -0.0818
v  -1.4545 -0.0727 -0.0748
v  -1.6069 -0.1260 0.1428
v  -1.5471 -0.1746 0.5140
v  -1.3567 -0.1961 0.6021
v  -0.6070 -0.1235 0.3049
v  -0.1713 -0.0648 0.0650
v  -0.4563 0.0680 -0.5239
v  -0.9996 0.0663 -1.0573
v  -1.3954 -0.1367 -0.5234
v  -0.6551 -0.0640 -0.2033
v  -1.2613 0.0130 -1.0112
v  -1.4677 -0.1152 -0.7202
v  -0.1773 -0.0053 -0.0649
v  -0.0882 0.0676 -0.1533
v  -0.0642 -0.0715 -0.1774
v  -0.4323 -0.0710 -0.5479
v  -0.9756 -0.0727 -1.0813
v  -1.2373 -0.1260 -1.0353
v  -1.4575 -0.1746 -0.7305
v  -1.3851 -0.1961 -0.5336
v  -0.6448 -0.1235 -0.2136
v  -0.1670 -0.0648 -0.0752
v  0.0478 0.0680 -0.6931
v  0.0408 0.0663 -1.4545
v  -0.6166 -0.1367 -1.3567
v  -0.3194 -0.0640 -0.6070
v  -0.1768 0.0130 -1.6070
v  -0.5286 -0.1152 -1.5471
v  -0.0795 -0.0053 -0.1713
v  0.0460 0.0676 -0.1708
v  0.0800 -0.0715 -0.1708
v  0.0818 -0.0710 -0.6931
v  0.0748 -0.0727 -1.4545
v  -0.1428 -0.1260 -1.6070
v  -0.5140 -0.1746 -1.5471
v  -0.6021 -0.1961 -1.3567
v  -0.3049 -0.1235 -0.6070
v  -0.0650 -0.0648 -0.1713
# 177 vertices

vn 0.9127 -0.3669 0.1801
vn 0.9121 -0.3668 -0.1829
vn 0.9805 0.0000 -0.1966
vn 0.9811 0.0000 0.1936
vn 0.7727 -0.3669 -0.5180
vn 0.8306 0.0000 -0.5569
vn 0.5156 -0.3668 -0.7743
vn 0.5542 0.0000 -0.8324
vn 0.1801 -0.3668 -0.9127
vn 0.1936 0.0000 -0.9811
vn -0.1829 -0.3668 -0.9121
vn -0.1966 0.0000 -0.9805
vn -0.5180 -0.3668 -0.7727
vn -0.5569 0.0000 -0.8306
vn -0.7743 -0.3668 -0.5156
vn -0.8323 0.0000 -0.5543
vn -0.9127 -0.3669 -0.1801
vn -0.9811 0.0000 -0.1936
vn -0.9121 -0.3668 0.1829
vn -0.9805 0.0000 0.1966
vn -0.7727 -0.3669 0.5180
vn -0.8306 0.0000 0.5569
vn -0.5156 -0.3668 0.7743
vn -0.5542 0.0000 0.8324
vn -0.1801 -0.3668 0.9127
vn -0.1936 0.0000 0.9811
vn 0.1829 -0.3668 0.9121
vn 0.1966 0.0000 0.9805
vn 0.5180 -0.3668 0.7727
vn 0.5569 0.0000 0.8306
vn 0.7743 -0.3668 0.5156
vn 0.8323 0.0000 0.5543
vn 0.3512 -0.9066 0.2339
vn 0.2350 -0.9066 0.3505
vn 0.0000 -1.0000 -0.0000
vn 0.0830 -0.9066 0.4137
vn -0.0817 -0.9066 0.4140
vn -0.2339 -0.9066 0.3512
vn -0.3505 -0.9066 0.2350
vn -0.4137 -0.9066 0.0830
vn -0.4140 -0.9066 -0.0817
vn -0.3512 -0.9066 -0.2339
vn -0.2350 -0.9066 -0.3505
vn -0.0830 -0.9066 -0.4137
vn 0.0817 -0.9066 -0.4140
vn 0.2339 -0.9066 -0.3512
vn 0.3505 -0.9066 -0.2350
vn 0.4137 -0.9066 -0.0830
vn 0.4140 -0.9066 0.0817
vn 0.3374 0.8799 0.3346
vn 0.6205 0.7777 0.1010
vn -0.6321 0.4021 -0.6624
vn -0.8096 0.4754 -0.3444
vn 0.4779 0.6995 -0.5312
vn 0.0108 0.4289 -0.9033
vn -0.8224 0.4847 -0.2978
vn 0.2753 0.9202 0.2782
vn 0.5446 -0.6353 0.5475
vn 0.5867 -0.5612 0.5839
vn 0.8335 -0.4545 0.3142
vn 0.7094 -0.6378 -0.2999
vn 0.2012 -0.6718 -0.7129
vn -0.4278 -0.7792 -0.4581
vn -0.5893 -0.7983 -0.1241
vn -0.6009 -0.7957 -0.0764
vn 0.0020 0.8799 0.4752
vn 0.3673 0.7777 0.5102
vn 0.0215 0.4021 -0.9154
vn -0.3290 0.4754 -0.8160
vn 0.7136 0.6995 -0.0376
vn 0.6464 0.4289 -0.6311
vn -0.3709 0.4848 -0.7921
vn -0.0020 0.9202 0.3915
vn -0.0020 -0.6353 0.7723
vn 0.0020 -0.5612 0.8277
vn 0.3672 -0.4545 0.8116
vn 0.7136 -0.6379 0.2895
vn 0.6464 -0.6718 -0.3619
vn 0.0214 -0.7792 -0.6264
vn -0.3289 -0.7984 -0.5044
vn -0.3709 -0.7956 -0.4790
vn -0.3346 0.8799 0.3374
vn -0.1011 0.7778 0.6204
vn 0.6624 0.4022 -0.6320
vn 0.3444 0.4753 -0.8096
vn 0.5312 0.6995 0.4780
vn 0.9033 0.4289 0.0108
vn 0.2978 0.4847 -0.8224
vn -0.2782 0.9202 0.2753
vn -0.5474 -0.6355 0.5445
vn -0.5839 -0.5612 0.5867
vn -0.3141 -0.4544 0.8336
vn 0.2999 -0.6379 0.7093
vn 0.7129 -0.6718 0.2012
vn 0.4581 -0.7792 -0.4278
vn 0.1241 -0.7983 -0.5893
vn 0.0764 -0.7956 -0.6010
vn -0.4752 0.8799 0.0020
vn -0.5102 0.7777 0.3673
vn 0.9154 0.4020 0.0214
vn 0.8160 0.4754 -0.3289
vn 0.0376 0.6995 0.7136
vn 0.6311 0.4289 0.6464
vn 0.7921 0.4847 -0.3709
vn -0.3916 0.9202 -0.0020
vn -0.7722 -0.6354 -0.0020
vn -0.8277 -0.5612 0.0020
vn -0.8116 -0.4545 0.3672
vn -0.2895 -0.6379 0.7136
vn 0.3619 -0.6717 0.6464
vn 0.6263 -0.7793 0.0214
vn 0.5045 -0.7983 -0.3290
vn 0.4790 -0.7956 -0.3709
vn -0.3374 0.8799 -0.3346
vn -0.6204 0.7778 -0.1012
vn 0.6321 0.4021 0.6624
vn 0.8096 0.4754 0.3444
vn -0.4780 0.6995 0.5312
vn -0.0108 0.4289 0.9033
vn 0.8224 0.4847 0.2978
vn -0.2753 0.9202 -0.2782
vn -0.5446 -0.6353 -0.5475
vn -0.5867 -0.5611 -0.5839
vn -0.8335 -0.4545 -0.3141
vn -0.7093 -0.6379 0.2999
vn -0.2012 -0.6718 0.7129
vn 0.4278 -0.7792 0.4581
vn 0.5893 -0.7983 0.1241
vn 0.6010 -0.7956 0.0764
vn -0.0020 0.8799 -0.4752
vn -0.3673 0.7777 -0.5102
vn -0.0215 0.4021 0.9154
vn 0.3290 0.4754 0.8160
vn -0.7136 0.6995 0.0376
vn -0.6464 0.4289 0.6311
vn 0.3709 0.4848 0.7921
vn 0.0020 0.9202 -0.3915
vn 0.0020 -0.6353 -0.7723
vn -0.0020 -0.5612 -0.8277
vn -0.3672 -0.4545 -0.8116
vn -0.7136 -0.6379 -0.2895
vn -0.6464 -0.6718 0.3619
vn -0.0214 -0.7792 0.6264
vn 0.3289 -0.7984 0.5044
vn 0.3709 -0.7956 0.4790
vn 0.3346 0.8799 -0.3374
vn 0.1011 0.7778 -0.6204
vn -0.6624 0.4022 0.6321
vn -0.3444 0.4753 0.8096
vn -0.5312 0.6995 -0.4780
vn -0.9033 0.4288 -0.0108
vn -0.2978 0.4847 0.8224
vn 0.2783 0.9202 -0.2754
vn 0.5475 -0.6354 -0.5446
vn 0.5839 -0.5611 -0.5867
vn 0.3141 -0.4544 -0.8336
vn -0.2999 -0.6379 -0.7093
vn -0.7129 -0.6718 -0.2012
vn -0.4581 -0.7792 0.4278
vn -0.1241 -0.7983 0.5893
vn -0.0764 -0.7956 0.6010
vn 0.4752 0.8799 -0.0020
vn 0.5102 0.7777 -0.3673
vn -0.9154 0.4020 -0.0214
vn -0.8160 0.4754 0.3289
vn -0.0376 0.6995 -0.7136
vn -0.6311 0.4289 -0.6464
vn -0.7921 0.4847 0.3709
vn 0.3916 0.9202 0.0020
vn 0.7720 -0.6356 0.0020
vn 0.8277 -0.5612 -0.0020
vn 0.8116 -0.4545 -0.3672
vn 0.2895 -0.6379 -0.7136
vn -0.3619 -0.6717 -0.6464
vn -0.6263 -0.7793 -0.0214
vn -0.5045 -0.7983 0.3290
vn -0.4790 -0.7956 0.3709
# 177 vertex normals

vt 0.7500 0.1119 1.0000
vt 0.8125 0.1119 1.0000
vt 0.8125 0.8881 1.0000
vt 0.7500 0.8881 1.0000
vt 0.8750 0.1119 1.0000
vt 0.8750 0.8881 1.0000
vt 0.9375 0.1119 1.0000
vt 0.9375 0.8881 1.0000
vt -0.0625 0.1119 1.0000
vt 0.0000 0.1119 1.0000
vt 0.0000 0.8881 1.0000
vt -0.0625 0.8881 1.0000
vt 0.0625 0.1119 1.0000
vt 0.0625 0.8881 1.0000
vt 0.1250 0.1119 1.0000
vt 0.1250 0.8881 1.0000
vt 0.1875 0.1119 1.0000
vt 0.1875 0.8881 1.0000
vt 0.2500 0.1119 1.0000
vt 0.2500 0.8881 1.0000
vt 0.3125 0.1119 1.0000
vt 0.3125 0.8881 1.0000
vt 0.3750 0.1119 1.0000
vt 0.3750 0.8881 1.0000
vt 0.4375 0.1119 1.0000
vt 0.4375 0.8881 1.0000
vt 0.5000 0.1119 1.0000
vt 0.5000 0.8881 1.0000
vt 0.5625 0.1119 1.0000
vt 0.5625 0.8881 1.0000
vt 0.6250 0.1119 1.0000
vt 0.6250 0.8881 1.0000
vt 0.6875 0.1119 1.0000
vt 0.6875 0.8881 1.0000
vt 0.4518 0.0000 0.2022
vt 0.3200 0.0000 -0.1224
vt 0.5765 0.0000 0.2168
vt 0.2177 0.0000 -0.4222
vt 0.1605 0.0000 -0.6517
vt 0.1572 0.0000 -0.7759
vt 0.2081 0.0000 -0.7759
vt 0.3057 0.0000 -0.6517
vt 0.4350 0.0000 -0.4222
vt 0.5763 0.0000 -0.1224
vt 0.7082 0.0000 0.2022
vt 0.8105 0.0000 0.5021
vt 0.8677 0.0000 0.7316
vt 0.8710 0.0000 0.8558
vt 0.8200 0.0000 0.8558
vt 0.7690 0.0000 0.8558
vt 0.7181 0.0000 0.8558
vt -0.0058 0.1277 1.0000
vt -0.0567 0.1277 1.0000
vt 0.0567 0.1277 1.0000
vt 0.0058 0.1277 1.0000
vt 0.1192 0.1277 1.0000
vt 0.0683 0.1277 1.0000
vt 0.1817 0.1277 1.0000
vt 0.1308 0.1277 1.0000
vt 0.2442 0.1277 1.0000
vt 0.1933 0.1277 1.0000
vt 0.3067 0.1277 1.0000
vt 0.2558 0.1277 1.0000
vt 0.3692 0.1277 1.0000
vt 0.3183 0.1277 1.0000
vt 0.4317 0.1277 1.0000
vt 0.3808 0.1277 1.0000
vt 0.4942 0.1277 1.0000
vt 0.4433 0.1277 1.0000
vt 0.5567 0.1277 1.0000
vt 0.5058 0.1277 1.0000
vt 0.6192 0.1277 1.0000
vt 0.5683 0.1277 1.0000
vt 0.6817 0.1277 1.0000
vt 0.6308 0.1277 1.0000
vt 0.7442 0.1277 1.0000
vt 0.6933 0.1277 1.0000
vt 0.0478 0.6931 0.1590
vt 0.0408 1.4545 0.1573
vt -0.6166 1.3567 -0.0457
vt -0.3194 0.6070 0.0270
vt -0.1768 1.6069 0.1041
vt -0.5286 1.5471 -0.0241
vt -0.0795 0.1713 0.0857
vt 0.0460 0.1708 0.1586
vt 0.0800 0.1708 0.0196
vt 0.0818 0.6931 0.0200
vt 0.0748 1.4545 0.0183
vt -0.1428 1.6069 -0.0349
vt -0.5140 1.5471 -0.0836
vt -0.6021 1.3567 -0.1051
vt -0.3049 0.6070 -0.0324
vt -0.0650 0.1713 0.0263
# 93 texture coords

o fan_blades
g fan_blades
f 1/1/1 2/2/2 3/3/3 4/4/4 
f 2/2/2 5/5/5 6/6/6 3/3/3 
f 5/5/5 7/7/7 8/8/8 6/6/6 
f 7/9/7 9/10/9 10/11/10 8/12/8 
f 9/10/9 11/13/11 12/14/12 10/11/10 
f 11/13/11 13/15/13 14/16/14 12/14/12 
f 13/15/13 15/17/15 16/18/16 14/16/14 
f 15/17/15 17/19/17 18/20/18 16/18/16 
f 17/19/17 19/21/19 20/22/20 18/20/18 
f 19/21/19 21/23/21 22/24/22 20/22/20 
f 21/23/21 23/25/23 24/26/24 22/24/22 
f 23/25/23 25/27/25 26/28/26 24/26/24 
f 25/27/25 27/29/27 28/30/28 26/28/26 
f 27/29/27 29/31/29 30/32/30 28/30/28 
f 29/31/29 31/33/31 32/34/32 30/32/30 
f 31/33/31 1/1/1 4/4/4 32/34/32 
f 33/35/33 34/36/34 35/37/35 
f 34/36/34 36/38/36 35/37/35 
f 36/38/36 37/39/37 35/37/35 
f 37/39/37 38/40/38 35/37/35 
f 38/40/38 39/41/39 35/37/35 
f 39/41/39 40/42/40 35/37/35 
f 40/42/40 41/43/41 35/37/35 
f 41/43/41 42/44/42 35/37/35 
f 42/44/42 43/45/43 35/37/35 
f 43/45/43 44/46/44 35/37/35 
f 44/46/44 45/47/45 35/37/35 
f 45/47/45 46/48/46 35/37/35 
f 46/48/46 47/49/47 35/37/35 
f 47/49/47 48/50/48 35/37/35 
f 48/50/48 49/51/49 35/37/35 
f 49/51/49 33/35/33 35/37/35 
f 48/50/48 2/2/2 1/1/1 49/51/49 
f 47/49/47 5/5/5 2/2/2 48/50/48 
f 46/48/46 7/7/7 5/5/5 47/49/47 
f 45/52/45 9/10/9 7/9/7 46/53/46 
f 44/54/44 11/13/11 9/10/9 45/55/45 
f 43/56/43 13/15/13 11/13/11 44/57/44 
f 42/58/42 15/17/15 13/15/13 43/59/43 
f 41/60/41 17/19/17 15/17/15 42/61/42 
f 40/62/40 19/21/19 17/19/17 41/63/41 
f 39/64/39 21/23/21 19/21/19 40/65/40 
f 38/66/38 23/25/23 21/23/21 39/67/39 
f 37/68/37 25/27/25 23/25/23 38/69/38 
f 36/70/36 27/29/27 25/27/25 37/71/37 
f 34/72/34 29/31/29 27/29/27 36/73/36 
f 33/74/33 31/33/31 29/31/29 34/75/34 
f 49/76/49 1/1/1 31/33/31 33/77/33 
f 50/78/50 51/79/51 52/80/52 53/81/53 
f 51/79/51 54/82/54 55/83/55 52/80/52 
f 53/81/53 56/84/56 57/85/57 50/78/50 
f 58/86/58 59/87/59 50/78/50 57/85/57 
f 59/87/59 60/88/60 51/79/51 50/78/50 
f 60/88/60 61/89/61 54/82/54 51/79/51 
f 61/89/61 62/90/62 55/83/55 54/82/54 
f 62/90/62 63/91/63 52/80/52 55/83/55 
f 63/91/63 64/92/64 53/81/53 52/80/52 
f 64/92/64 65/93/65 56/84/56 53/81/53 
f 63/91/63 62/90/62 61/89/61 60/88/60 
f 64/92/64 63/91/63 60/88/60 59/87/59 
f 65/93/65 64/92/64 59/87/59 58/86/58 
f 66/78/66 67/79/67 68/80/68 69/81/69 
f 67/79/67 70/82/70 71/83/71 68/80/68 
f 69/81/69 72/84/72 73/85/73 66/78/66 
f 74/86/74 75/87/75 66/78/66 73/85/73 
f 75/87/75 76/88/76 67/79/67 66/78/66 
f 76/88/76 77/89/77 70/82/70 67/79/67 
f 77/89/77 78/90/78 71/83/71 70/82/70 
f 78/90/78 79/91/79 68/80/68 71/83/71 
f 79/91/79 80/92/80 69/81/69 68/80/68 
f 80/92/80 81/93/81 72/84/72 69/81/69 
f 79/91/79 78/90/78 77/89/77 76/88/76 
f 80/92/80 79/91/79 76/88/76 75/87/75 
f 81/93/81 80/92/80 75/87/75 74/86/74 
f 82/78/82 83/79/83 84/80/84 85/81/85 
f 83/79/83 86/82/86 87/83/87 84/80/84 
f 85/81/85 88/84/88 89/85/89 82/78/82 
f 90/86/90 91/87/91 82/78/82 89/85/89 
f 91/87/91 92/88/92 83/79/83 82/78/82 
f 92/88/92 93/89/93 86/82/86 83/79/83 
f 93/89/93 94/90/94 87/83/87 86/82/86 
f 94/90/94 95/91/95 84/80/84 87/83/87 
f 95/91/95 96/92/96 85/81/85 84/80/84 
f 96/92/96 97/93/97 88/84/88 85/81/85 
f 95/91/95 94/90/94 93/89/93 92/88/92 
f 96/92/96 95/91/95 92/88/92 91/87/91 
f 97/93/97 96/92/96 91/87/91 90/86/90 
f 98/78/98 99/79/99 100/80/100 101/81/101 
f 99/79/99 102/82/102 103/83/103 100/80/100 
f 101/81/101 104/84/104 105/85/105 98/78/98 
f 106/86/106 107/87/107 98/78/98 105/85/105 
f 107/87/107 108/88/108 99/79/99 98/78/98 
f 108/88/108 109/89/109 102/82/102 99/79/99 
f 109/89/109 110/90/110 103/83/103 102/82/102 
f 110/90/110 111/91/111 100/80/100 103/83/103 
f 111/91/111 112/92/112 101/81/101 100/80/100 
f 112/92/112 113/93/113 104/84/104 101/81/101 
f 111/91/111 110/90/110 109/89/109 108/88/108 
f 112/92/112 111/91/111 108/88/108 107/87/107 
f 113/93/113 112/92/112 107/87/107 106/86/106 
f 114/78/114 115/79/115 116/80/116 117/81/117 
f 115/79/115 118/82/118 119/83/119 116/80/116 
f 117/81/117 120/84/120 121/85/121 114/78/114 
f 122/86/122 123/87/123 114/78/114 121/85/121 
f 123/87/123 124/88/124 115/79/115 114/78/114 
f 124/88/124 125/89/125 118/82/118 115/79/115 
f 125/89/125 126/90/126 119/83/119 118/82/118 
f 126/90/126 127/91/127 116/80/116 119/83/119 
f 127/91/127 128/92/128 117/81/117 116/80/116 
f 128/92/128 129/93/129 120/84/120 117/81/117 
f 127/91/127 126/90/126 125/89/125 124/88/124 
f 128/92/128 127/91/127 124/88/124 123/87/123 
f 129/93/129 128/92/128 123/87/123 122/86/122 
f 130/78/130 131/79/131 132/80/132 133/81/133 
f 131/79/131 134/82/134 135/83/135 132/80/132 
f 133/81/133 136/84/136 137/85/137 130/78/130 
f 138/86/138 139/87/139 130/78/130 137/85/137 
f 139/87/139 140/88/140 131/79/131 130/78/130 
f 140/88/140 141/89/141 134/82/134 131/79/131 
f 141/89/141 142/90/142 135/83/135 134/82/134 
f 142/90/142 143/91/143 132/80/132 135/83/135 
f 143/91/143 144/92/144 133/81/133 132/80/132 
f 144/92/144 145/93/145 136/84/136 133/81/133 
f 143/91/143 142/90/142 141/89/141 140/88/140 
f 144/92/144 143/91/143 140/88/140 139/87/139 
f 145/93/145 144/92/144 139/87/139 138/86/138 
f 146/78/146 147/79/147 148/80/148 149/81/149 
f 147/79/147 150/82/150 151/83/151 148/80/148 
f 149/81/149 152/84/152 153/85/153 146/78/146 
f 154/86/154 155/87/155 146/78/146 153/85/153 
f 155/87/155 156/88/156 147/79/147 146/78/146 
f 156/88/156 157/89/157 150/82/150 147/79/147 
f 157/89/157 158/90/158 151/83/151 150/82/150 
f 158/90/158 159/91/159 148/80/148 151/83/151 
f 159/91/159 160/92/160 149/81/149 148/80/148 
f 160/92/160 161/93/161 152/84/152 149/81/149 
f 159/91/159 158/90/158 157/89/157 156/88/156 
f 160/92/160 159/91/159 156/88/156 155/87/155 
f 161/93/161 160/92/160 155/87/155 154/86/154 
f 162/78/162 163/79/163 164/80/164 165/81/165 
f 163/79/163 166/82/166 167/83/167 164/80/164 
f 165/81/165 168/84/168 169/85/169 162/78/162 
f 170/86/170 171/87/171 162/78/162 169/85/169 
f 171/87/171 172/88/172 163/79/163 162/78/162 
f 172/88/172 173/89/173 166/82/166 163/79/163 
f 173/89/173 174/90/174 167/83/167 166/82/166 
f 174/90/174 175/91/175 164/80/164 167/83/167 
f 175/91/175 176/92/176 165/81/165 164/80/164 
f 176/92/176 177/93/177 168/84/168 165/81/165 
f 175/91/175 174/90/174 173/89/173 172/88/172 
f 176/92/176 175/91/175 172/88/172 171/87/171 
f 177/93/177 176/92/176 171/87/171 170/86/170 
# 136 polygons - 16 triangles

