# 3ds Max Wavefront OBJ Exporter v0.97b - (c)2007 guruware
# File Created: 24.11.2019 19:40:32

#
# object platform1
#

v  -2.2790 0.0000 0.9927
v  -2.2790 -1.0000 0.9927
v  -1.7809 -1.0000 1.5000
v  -1.7809 0.0000 1.5000
v  -2.2790 -1.0000 0.8030
v  -2.2790 0.0000 0.8030
v  -2.0968 -0.8611 0.6363
v  -2.0968 -0.1389 0.6363
v  -1.6136 -0.8328 1.5000
v  -1.6136 -0.1672 1.5000
v  -1.6136 -0.7249 1.3474
v  -1.6136 -0.2751 1.3474
v  -2.0968 -0.1389 -0.0000
v  -2.0968 -0.8611 -0.0000
v  -2.2790 0.0000 -0.9927
v  -1.7809 0.0000 -1.5000
v  -1.7809 -1.0000 -1.5000
v  -2.2790 -1.0000 -0.9927
v  -2.2790 -1.0000 -0.8030
v  -2.2790 0.0000 -0.8030
v  -2.0968 -0.8611 -0.6363
v  -2.0968 -0.1389 -0.6363
v  -1.6136 -0.1672 -1.5000
v  -1.6136 -0.8328 -1.5000
v  -1.6136 -0.2751 -1.3474
v  -1.6136 -0.7249 -1.3474
v  -0.0000 0.0000 -0.8030
v  -0.0000 0.0000 -0.9927
v  -0.0000 -1.0000 -0.8030
v  -0.1822 -0.8611 -0.6363
v  -0.6653 -0.8328 -1.5000
v  -0.4981 -1.0000 -1.5000
v  -0.6653 -0.7249 -1.3474
v  -0.1822 -0.1389 -0.0000
v  -0.1822 -0.1389 -0.6363
v  -0.0000 0.0000 0.9927
v  -0.0000 0.0000 0.8030
v  -0.0000 -1.0000 0.9927
v  -0.4981 -1.0000 1.5000
v  -0.6653 -0.7249 1.3474
v  -0.6653 -0.2751 1.3474
v  -0.6653 -0.8328 1.5000
v  -0.6653 -0.1672 1.5000
v  -0.1822 -0.8611 -0.0000
v  -0.1822 -0.8611 0.6363
v  -0.4981 0.0000 1.5000
v  -0.0000 -1.0000 0.8030
v  -0.1822 -0.1389 0.6363
v  -0.0000 -1.0000 -0.9927
v  -0.4981 0.0000 -1.5000
v  -0.6653 -0.1672 -1.5000
v  -0.6653 -0.2751 -1.3474
# 52 vertices

vn -0.7181 0.6310 0.2936
vn -0.7181 -0.6310 0.2936
vn -0.3006 -0.6295 0.7165
vn -0.3006 0.6295 0.7165
vn -0.6586 -0.6459 -0.3860
vn -0.6586 0.6459 -0.3860
vn -0.5549 -0.6177 -0.5573
vn -0.5549 0.6177 -0.5573
vn 0.1636 0.2196 0.9618
vn 0.1635 -0.2196 0.9618
vn 0.6168 0.3619 0.6990
vn 0.6168 -0.3619 0.6990
vn -0.7071 0.7071 -0.0000
vn -0.7071 -0.7071 -0.0000
vn -0.7181 0.6310 -0.2936
vn -0.3006 0.6295 -0.7165
vn -0.3006 -0.6295 -0.7165
vn -0.7181 -0.6310 -0.2936
vn -0.6586 -0.6459 0.3860
vn -0.6586 0.6459 0.3860
vn -0.5549 -0.6177 0.5573
vn -0.5549 0.6177 0.5573
vn 0.1636 -0.2196 -0.9618
vn 0.1636 0.2196 -0.9618
vn 0.6168 -0.3619 -0.6990
vn 0.6168 0.3619 -0.6990
vn 0.6586 0.6459 0.3860
vn 0.7181 0.6310 -0.2936
vn 0.6586 -0.6459 0.3860
vn 0.5549 -0.6177 0.5573
vn -0.1636 0.2196 -0.9618
vn 0.3006 -0.6295 -0.7165
vn -0.6168 0.3619 -0.6990
vn 0.7071 0.7071 -0.0000
vn 0.5549 0.6177 0.5573
vn 0.7181 0.6310 0.2936
vn 0.6586 0.6459 -0.3860
vn 0.7181 -0.6310 0.2936
vn 0.3006 -0.6295 0.7165
vn -0.6168 0.3619 0.6990
vn -0.6168 -0.3619 0.6990
vn -0.1636 0.2196 0.9618
vn -0.1635 -0.2196 0.9618
vn 0.7071 -0.7071 -0.0000
vn 0.5549 -0.6177 -0.5573
vn 0.3006 0.6295 0.7165
vn 0.6586 -0.6459 -0.3860
vn 0.5549 0.6177 -0.5573
vn 0.7181 -0.6310 -0.2936
vn 0.3006 0.6295 -0.7165
vn -0.1636 -0.2196 -0.9618
vn -0.6168 -0.3619 -0.6990
# 52 vertex normals

vt 0.1208 1.0000 0.0000
vt -0.4860 1.0000 0.0000
vt 0.1667 1.0000 0.0000
vt 0.2071 1.0000 0.0000
vt 0.9563 1.0000 0.0000
vt 0.5000 1.0000 0.0000
vt 0.0000 0.8792 0.0000
vt 0.0000 0.8333 0.0000
vt 0.0000 0.7929 0.0000
vt 0.0000 0.5000 0.0000
vt 0.0437 1.0000 0.0000
# 11 texture coords

o platform1
g platform1
f 1/1/1 2/1/2 3/2/3 4/2/4 
f 5/3/5 2/1/2 1/1/1 6/3/6 
f 7/4/7 5/3/5 6/3/6 8/4/8 
f 3/5/3 9/5/9 10/5/10 4/5/4 
f 9/5/9 11/5/11 12/5/12 10/5/10 
f 13/6/13 14/6/14 7/4/7 8/4/8 
f 15/1/15 16/2/16 17/2/17 18/1/18 
f 19/3/19 20/3/20 15/1/15 18/1/18 
f 21/4/21 22/4/22 20/3/20 19/3/19 
f 17/5/17 16/5/16 23/5/23 24/5/24 
f 24/5/24 23/5/23 25/5/25 26/5/26 
f 15/7/15 20/8/20 27/8/27 28/7/28 
f 21/9/21 19/8/19 29/8/29 30/9/30 
f 17/5/17 24/5/24 31/5/31 32/5/32 
f 24/5/24 26/5/26 33/5/33 31/5/31 
f 13/6/13 22/4/22 21/4/21 14/6/14 
f 22/9/22 13/10/13 34/10/34 35/9/35 
f 6/8/6 1/7/1 36/7/36 37/8/37 
f 3/11/3 2/7/2 38/7/38 39/11/39 
f 12/5/12 11/5/11 40/5/40 41/5/41 
f 9/5/9 3/5/3 39/5/39 42/5/42 
f 10/5/10 12/5/12 41/5/41 43/5/43 
f 7/9/7 14/10/14 44/10/44 45/9/45 
f 36/1/36 46/2/46 39/2/39 38/1/38 
f 47/3/47 37/3/37 36/1/36 38/1/38 
f 45/4/45 48/4/48 37/3/37 47/3/47 
f 39/5/39 46/5/46 43/5/43 42/5/42 
f 42/5/42 43/5/43 41/5/41 40/5/40 
f 34/6/34 48/4/48 45/4/45 44/6/44 
f 28/1/28 49/1/49 32/2/32 50/2/50 
f 29/3/29 49/1/49 28/1/28 27/3/27 
f 30/4/30 29/3/29 27/3/27 35/4/35 
f 32/5/32 31/5/31 51/5/51 50/5/50 
f 31/5/31 33/5/33 52/5/52 51/5/51 
f 27/8/27 20/8/20 22/9/22 35/9/35 
f 49/7/49 18/7/18 17/11/17 32/11/32 
f 29/8/29 19/8/19 18/7/18 49/7/49 
f 52/5/52 25/5/25 23/5/23 51/5/51 
f 34/6/34 44/6/44 30/4/30 35/4/35 
f 50/11/50 16/11/16 15/7/15 28/7/28 
f 33/5/33 26/5/26 25/5/25 52/5/52 
f 51/5/51 23/5/23 16/5/16 50/5/50 
f 1/7/1 4/11/4 46/11/46 36/7/36 
f 8/9/8 6/8/6 37/8/37 48/9/48 
f 5/8/5 7/9/7 45/9/45 47/8/47 
f 4/5/4 10/5/10 43/5/43 46/5/46 
f 13/10/13 8/9/8 48/9/48 34/10/34 
f 2/7/2 5/8/5 47/8/47 38/7/38 
f 11/5/11 9/5/9 42/5/42 40/5/40 
f 14/10/14 21/9/21 30/9/30 44/10/44 
# 50 polygons

