# 3ds Max Wavefront OBJ Exporter v0.97b - (c)2007 guruware
# File Created: 24.11.2019 19:40:36

#
# object platform_crumbling
#

v  2.2790 0.0000 1.4281
v  2.2790 0.0000 -0.0000
v  0.0000 0.0000 -0.0000
v  0.0000 0.0000 1.4281
v  2.2790 -0.5948 1.5000
v  2.2790 -0.0719 1.5000
v  0.0000 -0.0719 1.5000
v  0.0000 -0.5948 1.5000
v  2.2790 -0.6667 -1.4281
v  2.2790 -0.6667 -0.0000
v  0.0000 -0.6667 -0.0000
v  0.0000 -0.6667 -1.4281
v  2.2790 0.0000 -1.4281
v  0.0000 0.0000 -1.4281
v  2.2790 -0.6667 1.4281
v  0.0000 -0.6667 1.4281
v  2.2790 -0.0719 -1.5000
v  0.0000 -0.0719 -1.5000
v  2.2790 -0.5948 -1.5000
v  0.0000 -0.5948 -1.5000
v  2.1237 -0.5231 1.3564
v  2.1237 -0.5231 -0.0000
v  2.1237 -0.1436 -0.0000
v  2.1237 -0.1436 1.3564
v  2.1237 -0.1436 -1.3564
v  2.1237 -0.5231 -1.3564
v  2.2790 -0.5231 -0.0000
v  2.2790 -0.5231 1.3564
v  2.2790 -0.5231 -1.3564
v  2.2790 -0.1436 -1.3564
v  2.2790 -0.1436 -0.0000
v  2.2790 -0.1436 1.3564
v  0.1553 -0.5231 1.3564
v  0.1553 -0.1436 1.3564
v  0.1553 -0.1436 -0.0000
v  0.1553 -0.5231 -0.0000
v  0.1553 -0.1436 -1.3564
v  0.1553 -0.5231 -1.3564
v  0.0000 -0.5231 1.3564
v  0.0000 -0.5231 -0.0000
v  0.0000 -0.5231 -1.3564
v  0.0000 -0.1436 -1.3564
v  0.0000 -0.1436 -0.0000
v  0.0000 -0.1436 1.3564
# 44 vertices

vn 0.6303 0.7173 0.2971
vn 0.7071 0.7071 -0.0000
vn -0.7071 0.7071 -0.0000
vn -0.6303 0.7173 0.2971
vn 0.6303 -0.2971 0.7173
vn 0.6303 0.2971 0.7173
vn -0.6303 0.2971 0.7173
vn -0.6303 -0.2971 0.7173
vn 0.6303 -0.7173 -0.2971
vn 0.7071 -0.7071 -0.0000
vn -0.7071 -0.7071 -0.0000
vn -0.6303 -0.7173 -0.2971
vn 0.6303 0.7173 -0.2971
vn -0.6303 0.7173 -0.2971
vn 0.5774 -0.5774 0.5774
vn -0.5774 -0.5774 0.5774
vn 0.6303 0.2971 -0.7173
vn -0.6303 0.2971 -0.7173
vn 0.6303 -0.2971 -0.7173
vn -0.6303 -0.2971 -0.7173
vn 0.5774 0.5774 -0.5774
vn 0.5774 -0.5774 -0.5774
vn 0.5774 0.5774 0.5774
vn 1.0000 0.0000 -0.0000
vn 0.9045 0.3015 -0.3015
vn 0.9045 0.3015 0.3015
vn 0.9045 -0.3015 0.3015
vn 0.9045 -0.3015 -0.3015
vn -0.5774 0.5774 -0.5774
vn -0.5774 -0.5774 -0.5774
vn -0.5774 0.5774 0.5774
vn -1.0000 0.0000 -0.0000
vn -0.9045 0.3015 -0.3015
vn -0.9045 0.3015 0.3015
vn -0.9045 -0.3015 0.3015
vn -0.9045 -0.3015 -0.3015
# 36 vertex normals

vt 0.6250 0.5120 0.0000
vt 0.6250 0.7500 0.0000
vt 0.6250 0.5539 0.0000
vt 0.6250 0.9461 0.0000
vt 0.6190 0.3333 0.0000
vt 0.5000 0.3333 0.0000
vt 0.6250 0.9880 0.0000
vt 0.3800 0.3493 0.0000
vt 0.6250 0.0203 0.0000
vt 0.6250 0.0359 0.0000
vt 0.6250 0.2974 0.0000
vt 0.2680 0.7155 0.0000
vt 0.6250 0.9717 0.0000
vt 0.6130 0.0196 0.0000
vt 0.3864 0.9416 0.0000
vt 0.5054 0.3183 0.0000
vt 0.6250 0.5340 0.0000
vt 0.2500 0.5539 0.0000
vt 0.7500 0.0196 0.0000
vt 0.7500 0.9880 0.0000
vt 0.2500 0.9717 0.0000
vt 0.3750 0.2974 0.0000
# 22 texture coords

o platform_crumbling
g platform_crumbling
f 1/1/1 2/2/2 3/2/3 4/1/4 
f 5/3/5 6/4/6 7/4/7 8/3/8 
f 9/5/9 10/6/10 11/6/11 12/5/12 
f 2/2/2 13/7/13 14/7/14 3/2/3 
f 10/6/10 15/8/15 16/8/16 11/6/11 
f 13/9/13 17/10/17 18/10/18 14/9/14 
f 19/11/19 9/5/9 12/5/12 20/11/20 
f 21/12/21 22/13/2 23/14/10 24/15/22 
f 25/16/15 23/14/10 22/13/2 26/17/23 
f 15/18/24 15/18/15 10/19/10 27/13/2 28/12/25 
f 9/5/9 19/1/19 29/17/26 
f 19/1/19 17/6/17 30/16/27 29/17/26 
f 13/20/13 2/21/2 31/14/10 30/16/27 
f 2/21/2 1/4/1 32/15/28 31/14/10 
f 6/15/6 5/12/5 28/12/25 32/15/28 
f 28/12/25 27/13/2 22/13/2 21/12/21 
f 27/13/2 29/17/26 26/17/23 22/13/2 
f 29/17/26 30/16/27 25/16/15 26/17/23 
f 30/16/27 31/14/10 23/14/10 25/16/15 
f 31/14/10 32/15/28 24/15/22 23/14/10 
f 32/15/28 28/12/25 21/12/21 24/15/22 
f 17/10/17 19/11/19 20/11/20 18/10/18 
f 1/4/1 6/15/6 32/15/28 
f 28/12/25 5/12/5 15/18/24 
f 29/17/26 27/13/2 10/19/10 9/5/9 
f 30/16/27 17/6/17 13/20/13 
f 33/12/29 34/15/30 35/14/11 36/13/3 
f 37/16/16 38/17/31 36/13/3 35/14/11 
f 16/18/32 39/12/33 40/13/3 11/19/11 16/18/16 
f 12/5/12 41/17/34 20/1/20 
f 20/1/20 41/17/34 42/16/35 18/6/18 
f 14/20/14 42/16/35 43/14/11 3/21/3 
f 3/21/3 43/14/11 44/15/36 4/4/4 
f 7/15/7 44/15/36 39/12/33 8/12/8 
f 39/12/33 33/12/29 36/13/3 40/13/3 
f 40/13/3 36/13/3 38/17/31 41/17/34 
f 41/17/34 38/17/31 37/16/16 42/16/35 
f 42/16/35 37/16/16 35/14/11 43/14/11 
f 43/14/11 35/14/11 34/15/30 44/15/36 
f 44/15/36 34/15/30 33/12/29 39/12/33 
f 6/4/6 1/13/1 4/13/4 7/4/7 
f 15/8/15 15/8/24 5/22/5 8/22/8 16/8/32 16/8/16 
f 4/4/4 44/15/36 7/15/7 
f 39/12/33 16/18/32 8/12/8 
f 41/17/34 12/5/12 11/19/11 40/13/3 
f 42/16/35 14/20/14 18/6/18 
# 38 polygons - 8 triangles

