# 3ds Max Wavefront OBJ Exporter v0.97b - (c)2007 guruware
# File Created: 24.11.2019 19:40:29

#
# object platform4
#

v  -2.2790 0.0000 0.9927
v  -2.2790 -1.0000 0.9927
v  -1.7809 -1.0000 1.5000
v  -1.7809 0.0000 1.5000
v  -2.2790 -1.0000 0.8030
v  -2.2790 0.0000 0.8030
v  -2.0968 -0.8611 0.6363
v  -2.0968 -0.1389 0.6363
v  -1.6136 -0.8328 1.5000
v  -1.6136 -0.1672 1.5000
v  -1.6136 -0.7249 1.3474
v  -1.6136 -0.2751 1.3474
v  4.5579 0.0000 0.9927
v  2.2790 0.0000 0.9927
v  2.2790 0.0000 1.5000
v  4.5579 0.0000 1.5000
v  4.5579 0.0000 0.8030
v  2.2790 0.0000 0.8030
v  4.5579 -0.1389 0.6363
v  2.2790 -0.1389 0.6363
v  4.5579 -1.0000 0.8030
v  2.2790 -1.0000 0.8030
v  2.2790 -0.8611 0.6363
v  4.5579 -0.8611 0.6363
v  2.2790 -0.1672 1.5000
v  4.5579 -0.1672 1.5000
v  -2.0968 -0.1389 -0.0000
v  -2.0968 -0.8611 -0.0000
v  -2.2790 0.0000 -0.9927
v  -1.7809 0.0000 -1.5000
v  -1.7809 -1.0000 -1.5000
v  -2.2790 -1.0000 -0.9927
v  -2.2790 -1.0000 -0.8030
v  -2.2790 0.0000 -0.8030
v  -2.0968 -0.8611 -0.6363
v  -2.0968 -0.1389 -0.6363
v  -1.6136 -0.1672 -1.5000
v  -1.6136 -0.8328 -1.5000
v  -1.6136 -0.2751 -1.3474
v  -1.6136 -0.7249 -1.3474
v  0.0000 0.0000 -0.8030
v  2.2790 0.0000 -0.8030
v  2.2790 0.0000 -0.9927
v  0.0000 0.0000 -0.9927
v  0.0000 -0.1389 -0.6363
v  2.2790 -0.1389 -0.6363
v  0.0000 -1.0000 -1.5000
v  2.2790 -1.0000 -1.5000
v  2.2790 -1.0000 -0.9927
v  0.0000 -1.0000 -0.9927
v  2.2790 -1.0000 -0.8030
v  0.0000 -1.0000 -0.8030
v  2.2790 -0.8611 -0.6363
v  0.0000 -0.8611 -0.6363
v  0.0000 -0.8328 -1.5000
v  2.2790 -0.8328 -1.5000
v  0.0000 -0.1672 -1.5000
v  2.2790 -0.1672 -1.5000
v  2.2790 -0.2751 -1.3474
v  0.0000 -0.2751 -1.3474
v  0.0000 -0.7249 -1.3474
v  2.2790 -0.7249 -1.3474
v  6.8369 0.0000 0.9927
v  6.3388 0.0000 1.5000
v  6.3388 -1.0000 1.5000
v  6.8369 -1.0000 0.9927
v  6.8369 -1.0000 0.8030
v  6.8369 0.0000 0.8030
v  6.6547 -0.8611 0.6363
v  6.6547 -0.1389 0.6363
v  6.1715 -0.1672 1.5000
v  6.1715 -0.8328 1.5000
v  6.1715 -0.2751 1.3474
v  6.1715 -0.7249 1.3474
v  4.5579 -0.1389 -0.0000
v  2.2790 -0.1389 -0.0000
v  4.5579 -1.0000 1.5000
v  2.2790 -1.0000 1.5000
v  2.2790 -1.0000 0.9927
v  4.5579 -1.0000 0.9927
v  4.5579 -0.2751 1.3474
v  2.2790 -0.2751 1.3474
v  2.2790 -0.7249 1.3474
v  4.5579 -0.7249 1.3474
v  4.5579 -0.8328 1.5000
v  2.2790 -0.8328 1.5000
v  6.6547 -0.1389 -0.0000
v  6.6547 -0.8611 -0.0000
v  2.2790 -0.8611 -0.0000
v  4.5579 -0.8611 -0.0000
v  6.8369 0.0000 -0.9927
v  6.8369 -1.0000 -0.9927
v  6.3388 -1.0000 -1.5000
v  6.3388 0.0000 -1.5000
v  6.8369 -1.0000 -0.8030
v  6.8369 0.0000 -0.8030
v  6.6547 -0.8611 -0.6363
v  6.6547 -0.1389 -0.6363
v  6.1715 -0.8328 -1.5000
v  6.1715 -0.1672 -1.5000
v  6.1715 -0.7249 -1.3474
v  6.1715 -0.2751 -1.3474
v  0.0000 -0.1389 -0.0000
v  2.2790 0.0000 -1.5000
v  0.0000 0.0000 -1.5000
v  4.5579 -0.8611 -0.6363
v  0.0000 0.0000 0.9927
v  0.0000 0.0000 1.5000
v  0.0000 0.0000 0.8030
v  0.0000 -0.1389 0.6363
v  0.0000 -1.0000 0.8030
v  0.0000 -0.8611 0.6363
v  0.0000 -0.1672 1.5000
v  4.5579 0.0000 -0.8030
v  4.5579 0.0000 -0.9927
v  4.5579 -0.1389 -0.6363
v  4.5579 -1.0000 -1.5000
v  4.5579 -1.0000 -0.9927
v  4.5579 -1.0000 -0.8030
v  4.5579 -0.8328 -1.5000
v  4.5579 -0.1672 -1.5000
v  4.5579 -0.2751 -1.3474
v  4.5579 -0.7249 -1.3474
v  0.0000 -1.0000 1.5000
v  0.0000 -1.0000 0.9927
v  0.0000 -0.2751 1.3474
v  0.0000 -0.7249 1.3474
v  0.0000 -0.8328 1.5000
v  0.0000 -0.8611 -0.0000
v  4.5579 0.0000 -1.5000
# 130 vertices

vn -0.7181 0.6310 0.2936
vn -0.7181 -0.6310 0.2936
vn -0.3006 -0.6295 0.7165
vn -0.3006 0.6295 0.7165
vn -0.6586 -0.6459 -0.3860
vn -0.6586 0.6459 -0.3860
vn -0.5549 -0.6177 -0.5573
vn -0.5549 0.6177 -0.5573
vn 0.1636 0.2196 0.9618
vn 0.1635 -0.2196 0.9618
vn 0.6168 0.3619 0.6990
vn 0.6168 -0.3619 0.6990
vn 0.0000 1.0000 -0.0000
vn 0.0000 0.7071 0.7071
vn 0.0000 0.9402 -0.3405
vn 0.0000 -0.9402 -0.3405
vn 0.0000 -0.4598 0.8880
vn -0.7071 0.7071 -0.0000
vn -0.7071 -0.7071 -0.0000
vn -0.7181 0.6310 -0.2936
vn -0.3006 0.6295 -0.7165
vn -0.3006 -0.6295 -0.7165
vn -0.7181 -0.6310 -0.2936
vn -0.6586 -0.6459 0.3860
vn -0.6586 0.6459 0.3860
vn -0.5549 -0.6177 0.5573
vn -0.5549 0.6177 0.5573
vn 0.1636 -0.2196 -0.9618
vn 0.1636 0.2196 -0.9618
vn 0.6168 -0.3619 -0.6990
vn 0.6168 0.3619 -0.6990
vn 0.0000 0.9402 0.3405
vn 0.0000 -0.7071 -0.7071
vn 0.0000 -1.0000 -0.0000
vn 0.0000 -0.9402 0.3405
vn 0.0000 0.4598 -0.8880
vn 0.0000 -0.4598 -0.8880
vn 0.7181 0.6310 0.2936
vn 0.3006 0.6295 0.7165
vn 0.3006 -0.6295 0.7165
vn 0.7181 -0.6310 0.2936
vn 0.6586 -0.6459 -0.3860
vn 0.6586 0.6459 -0.3860
vn 0.5549 -0.6177 -0.5573
vn 0.5549 0.6177 -0.5573
vn -0.1635 -0.2196 0.9618
vn -0.1636 0.2196 0.9618
vn -0.6168 -0.3619 0.6990
vn -0.6168 0.3619 0.6990
vn 0.0000 -0.7071 0.7071
vn 0.0000 0.4598 0.8880
vn 0.7071 0.7071 -0.0000
vn 0.7071 -0.7071 -0.0000
vn 0.7181 0.6310 -0.2936
vn 0.7181 -0.6310 -0.2936
vn 0.3006 -0.6295 -0.7165
vn 0.3006 0.6295 -0.7165
vn 0.6586 -0.6459 0.3860
vn 0.6586 0.6459 0.3860
vn 0.5549 -0.6177 0.5573
vn 0.5549 0.6177 0.5573
vn -0.1636 0.2196 -0.9618
vn -0.1636 -0.2196 -0.9618
vn -0.6168 0.3619 -0.6990
vn -0.6168 -0.3619 -0.6990
vn 0.0000 0.7071 -0.7071
# 66 vertex normals

vt 0.1208 1.0000 0.0000
vt -0.4860 1.0000 0.0000
vt 0.1667 1.0000 0.0000
vt 0.2071 1.0000 0.0000
vt 0.9563 1.0000 0.0000
vt 0.0000 0.8792 0.0000
vt 0.0437 1.0000 0.0000
vt 0.0000 0.8333 0.0000
vt 0.0000 0.7929 0.0000
vt 0.5000 1.0000 0.0000
vt 0.0000 0.5000 0.0000
# 11 texture coords

o platform4
g platform4
f 1/1/1 2/1/2 3/2/3 4/2/4 
f 5/3/5 2/1/2 1/1/1 6/3/6 
f 7/4/7 5/3/5 6/3/6 8/4/8 
f 3/5/3 9/5/9 10/5/10 4/5/4 
f 9/5/9 11/5/11 12/5/12 10/5/10 
f 13/6/13 14/6/13 15/7/14 16/7/14 
f 17/8/15 18/8/15 14/6/13 13/6/13 
f 19/9/15 20/9/15 18/8/15 17/8/15 
f 21/8/16 22/8/16 23/9/16 24/9/16 
f 16/5/14 15/5/14 25/5/17 26/5/17 
f 27/10/18 28/10/19 7/4/7 8/4/8 
f 29/1/20 30/2/21 31/2/22 32/1/23 
f 33/3/24 34/3/25 29/1/20 32/1/23 
f 35/4/26 36/4/27 34/3/25 33/3/24 
f 31/5/22 30/5/21 37/5/28 38/5/29 
f 38/5/29 37/5/28 39/5/30 40/5/31 
f 41/8/32 42/8/32 43/6/13 44/6/13 
f 45/9/32 46/9/32 42/8/32 41/8/32 
f 47/7/33 48/7/33 49/6/34 50/6/34 
f 50/6/34 49/6/34 51/8/35 52/8/35 
f 52/8/35 51/8/35 53/9/35 54/9/35 
f 55/5/36 56/5/36 48/5/33 47/5/33 
f 57/5/37 58/5/37 59/5/37 60/5/37 
f 61/5/36 62/5/36 56/5/36 55/5/36 
f 27/10/18 36/4/27 35/4/26 28/10/19 
f 63/1/38 64/2/39 65/2/40 66/1/41 
f 67/3/42 68/3/43 63/1/38 66/1/41 
f 69/4/44 70/4/45 68/3/43 67/3/42 
f 65/5/40 64/5/39 71/5/46 72/5/47 
f 72/5/47 71/5/46 73/5/48 74/5/49 
f 75/11/13 76/11/13 20/9/15 19/9/15 
f 77/7/50 78/7/50 79/6/34 80/6/34 
f 81/5/17 82/5/17 83/5/51 84/5/51 
f 80/6/34 79/6/34 22/8/16 21/8/16 
f 85/5/51 86/5/51 78/5/50 77/5/50 
f 26/5/17 25/5/17 82/5/17 81/5/17 
f 84/5/51 83/5/51 86/5/51 85/5/51 
f 87/10/52 70/4/45 69/4/44 88/10/53 
f 24/9/16 23/9/16 89/11/34 90/11/34 
f 91/1/54 92/1/55 93/2/56 94/2/57 
f 95/3/58 92/1/55 91/1/54 96/3/59 
f 97/4/60 95/3/58 96/3/59 98/4/61 
f 93/5/56 99/5/62 100/5/63 94/5/57 
f 99/5/62 101/5/64 102/5/65 100/5/63 
f 103/11/13 76/11/13 46/9/32 45/9/32 
f 44/6/13 43/6/13 104/7/66 105/7/66 
f 60/5/37 59/5/37 62/5/36 61/5/36 
f 105/5/66 104/5/66 58/5/37 57/5/37 
f 87/10/52 88/10/53 97/4/60 98/4/61 
f 90/11/34 89/11/34 53/9/35 106/9/35 
f 107/6/13 1/6/1 4/7/4 108/7/14 
f 14/6/13 107/6/13 108/7/14 15/7/14 
f 16/7/14 64/7/39 63/6/38 13/6/13 
f 109/8/15 6/8/6 1/6/1 107/6/13 
f 18/8/15 109/8/15 107/6/13 14/6/13 
f 13/6/13 63/6/38 68/8/43 17/8/15 
f 110/9/15 8/9/8 6/8/6 109/8/15 
f 20/9/15 110/9/15 109/8/15 18/8/15 
f 17/8/15 68/8/43 70/9/45 19/9/15 
f 111/8/16 5/8/5 7/9/7 112/9/16 
f 22/8/16 111/8/16 112/9/16 23/9/16 
f 24/9/16 69/9/44 67/8/42 21/8/16 
f 108/5/14 4/5/4 10/5/10 113/5/17 
f 15/5/14 108/5/14 113/5/17 25/5/17 
f 26/5/17 71/5/46 64/5/39 16/5/14 
f 114/8/32 96/8/59 91/6/54 115/6/13 
f 42/8/32 114/8/32 115/6/13 43/6/13 
f 44/6/13 29/6/20 34/8/25 41/8/32 
f 116/9/32 98/9/61 96/8/59 114/8/32 
f 46/9/32 116/9/32 114/8/32 42/8/32 
f 41/8/32 34/8/25 36/9/27 45/9/32 
f 117/7/33 93/7/56 92/6/55 118/6/34 
f 48/7/33 117/7/33 118/6/34 49/6/34 
f 50/6/34 32/6/23 31/7/22 47/7/33 
f 118/6/34 92/6/55 95/8/58 119/8/35 
f 49/6/34 118/6/34 119/8/35 51/8/35 
f 52/8/35 33/8/24 32/6/23 50/6/34 
f 119/8/35 95/8/58 97/9/60 106/9/35 
f 51/8/35 119/8/35 106/9/35 53/9/35 
f 54/9/35 35/9/26 33/8/24 52/8/35 
f 120/5/36 99/5/62 93/5/56 117/5/33 
f 56/5/36 120/5/36 117/5/33 48/5/33 
f 47/5/33 31/5/22 38/5/29 55/5/36 
f 121/5/37 100/5/63 102/5/65 122/5/37 
f 58/5/37 121/5/37 122/5/37 59/5/37 
f 60/5/37 39/5/30 37/5/28 57/5/37 
f 123/5/36 101/5/64 99/5/62 120/5/36 
f 62/5/36 123/5/36 120/5/36 56/5/36 
f 55/5/36 38/5/29 40/5/31 61/5/36 
f 103/11/13 27/11/18 8/9/8 110/9/15 
f 76/11/13 103/11/13 110/9/15 20/9/15 
f 19/9/15 70/9/45 87/11/52 75/11/13 
f 124/7/50 3/7/3 2/6/2 125/6/34 
f 78/7/50 124/7/50 125/6/34 79/6/34 
f 80/6/34 66/6/41 65/7/40 77/7/50 
f 126/5/17 12/5/12 11/5/11 127/5/51 
f 82/5/17 126/5/17 127/5/51 83/5/51 
f 84/5/51 74/5/49 73/5/48 81/5/17 
f 125/6/34 2/6/2 5/8/5 111/8/16 
f 79/6/34 125/6/34 111/8/16 22/8/16 
f 21/8/16 67/8/42 66/6/41 80/6/34 
f 128/5/51 9/5/9 3/5/3 124/5/50 
f 86/5/51 128/5/51 124/5/50 78/5/50 
f 77/5/50 65/5/40 72/5/47 85/5/51 
f 113/5/17 10/5/10 12/5/12 126/5/17 
f 25/5/17 113/5/17 126/5/17 82/5/17 
f 81/5/17 73/5/48 71/5/46 26/5/17 
f 127/5/51 11/5/11 9/5/9 128/5/51 
f 83/5/51 127/5/51 128/5/51 86/5/51 
f 85/5/51 72/5/47 74/5/49 84/5/51 
f 112/9/16 7/9/7 28/11/19 129/11/34 
f 23/9/16 112/9/16 129/11/34 89/11/34 
f 90/11/34 88/11/53 69/9/44 24/9/16 
f 75/11/13 87/11/52 98/9/61 116/9/32 
f 76/11/13 75/11/13 116/9/32 46/9/32 
f 45/9/32 36/9/27 27/11/18 103/11/13 
f 115/6/13 91/6/54 94/7/57 130/7/66 
f 43/6/13 115/6/13 130/7/66 104/7/66 
f 105/7/66 30/7/21 29/6/20 44/6/13 
f 122/5/37 102/5/65 101/5/64 123/5/36 
f 59/5/37 122/5/37 123/5/36 62/5/36 
f 61/5/36 40/5/31 39/5/30 60/5/37 
f 130/5/66 94/5/57 100/5/63 121/5/37 
f 104/5/66 130/5/66 121/5/37 58/5/37 
f 57/5/37 37/5/28 30/5/21 105/5/66 
f 129/11/34 28/11/19 35/9/26 54/9/35 
f 89/11/34 129/11/34 54/9/35 53/9/35 
f 106/9/35 97/9/60 88/11/53 90/11/34 
# 128 polygons

