# 3ds Max Wavefront OBJ Exporter v0.97b - (c)2007 guruware
# File Created: 24.11.2019 19:40:48

#
# object ramp_long
#

v  -2.2790 2.0577 4.1250
v  -0.0000 0.0000 4.1250
v  -0.0000 0.0000 2.6250
v  -2.2790 2.0577 2.6250
v  -2.2790 2.0577 1.1250
v  -0.0000 0.0000 1.1250
v  -0.0000 0.0000 0.0000
v  -2.2790 2.0577 0.0000
v  -2.2790 2.0577 5.2571
v  -0.0000 0.0000 5.2571
v  -2.2790 0.0000 5.2571
v  -3.4666 1.2850 5.2571
v  -2.2790 0.0000 0.0000
v  -3.4666 1.2850 0.0000
v  -4.5579 2.0577 4.1250
v  -4.5579 2.0577 5.2571
v  -4.5579 2.0577 2.6250
v  -4.5579 2.0577 1.1250
v  -4.5579 2.0577 0.0000
v  -4.5579 1.2850 0.0000
v  -4.5579 1.2850 5.2571
v  -4.5579 1.2850 1.1250
v  -3.4666 1.2850 1.1250
v  -4.5579 1.2850 2.6250
v  -3.4666 1.2850 2.6250
v  -4.5579 1.2850 4.1250
v  -3.4666 1.2850 4.1250
v  -2.2790 0.0000 1.1250
v  -2.2790 0.0000 2.6250
v  -2.2790 0.0000 4.1250
v  -6.8369 2.0577 4.1250
v  -6.8369 2.0577 5.2571
v  -6.8369 2.0577 2.6250
v  -6.8369 2.0577 1.1250
v  -6.8369 2.0577 0.0000
v  -6.8369 1.4628 0.0000
v  -6.8369 1.4628 5.2571
v  -6.6590 1.2850 5.2571
v  -6.6590 1.2850 1.1250
v  -6.6590 1.2850 0.0000
v  -6.6590 1.2850 2.6250
v  -6.6590 1.2850 4.1250
v  -6.8369 1.4628 4.1250
v  -6.8369 1.4628 2.6250
v  -6.8369 1.4628 1.1250
# 45 vertices

vn 0.3590 0.9333 0.0000
vn 0.6702 0.7422 -0.0000
vn 0.6071 0.6724 -0.4235
vn 0.2775 0.7214 -0.6345
vn 0.2775 0.7214 0.6345
vn 0.6071 0.6724 0.4235
vn -0.4120 -0.3808 0.8278
vn -0.2353 -0.5381 0.8094
vn -0.4122 -0.3810 -0.8276
vn -0.2353 -0.5381 -0.8094
vn 0.0000 1.0000 -0.0000
vn -0.0000 0.7071 0.7071
vn 0.0000 0.7071 -0.7071
vn 0.0000 -0.7071 -0.7071
vn -0.0000 -0.7071 0.7071
vn 0.0000 -1.0000 -0.0000
vn -0.4008 -0.9162 0.0000
vn -0.4008 -0.9162 -0.0000
vn -0.7344 -0.6788 -0.0000
vn -0.7071 0.7071 -0.0000
vn -0.5774 0.5774 0.5774
vn -0.5774 0.5774 -0.5774
vn -0.7173 -0.2971 -0.6303
vn -0.7173 -0.2971 0.6303
vn -0.2971 -0.7173 0.6303
vn -0.3827 -0.9239 -0.0000
vn -0.2971 -0.7173 -0.6303
vn -0.9239 -0.3827 -0.0000
# 28 vertex normals

vt 0.3039 0.5814 0.0000
vt 0.3039 0.7442 0.0000
vt 0.5553 0.7442 0.0000
vt 0.5553 0.5814 0.0000
vt 0.8067 0.5814 0.0000
vt 0.8067 0.7442 0.0000
vt 0.8792 0.7442 0.0000
vt 0.8792 0.5814 0.0000
vt 0.0526 0.5814 0.0000
vt 0.0526 0.7442 0.0000
vt 0.5439 0.5900 0.0000
vt 0.5065 0.4100 0.0000
vt 0.2558 0.6667 0.0000
vt 0.4186 0.3333 0.0000
vt 0.6693 0.4100 0.0000
vt 0.4186 0.6667 0.0000
vt 0.7816 0.6667 0.0000
vt 0.9070 0.6667 0.0000
vt 0.2445 0.3333 0.0000
vt 0.9070 0.3333 0.0000
vt 0.8125 0.6667 0.0000
vt 0.1693 0.3333 0.0000
vt 0.7188 0.4205 0.0000
vt 0.7569 0.7278 0.0000
vt 0.5270 0.6407 0.0000
vt 0.6770 0.3593 0.0000
vt 0.6113 0.3863 0.0000
vt 0.6240 0.6677 0.0000
# 28 texture coords

o ramp_long
g ramp_long
f 1/1/1 2/2/2 3/3/2 4/4/1 
f 5/5/1 6/6/2 7/7/3 8/8/4 
f 4/4/1 3/3/2 6/6/2 5/5/1 
f 9/9/5 10/10/6 2/2/2 1/1/1 
f 11/9/7 10/10/6 9/9/5 12/9/8 
f 13/8/9 14/8/10 8/8/4 7/7/3 
f 9/9/5 1/1/1 15/1/11 16/9/12 
f 1/1/1 4/4/1 17/4/11 15/1/11 
f 4/4/1 5/5/1 18/5/11 17/4/11 
f 5/5/1 8/8/4 19/8/13 18/5/11 
f 8/8/4 14/8/10 20/8/14 19/8/13 
f 12/9/8 9/9/5 16/9/12 21/9/15 
f 22/5/16 20/8/14 14/8/10 23/5/17 
f 24/4/16 22/5/16 23/5/17 25/4/18 
f 26/1/16 24/4/16 25/4/18 27/1/18 
f 21/9/15 26/1/16 27/1/18 12/9/8 
f 23/5/17 14/8/10 13/8/9 28/5/19 
f 25/4/18 23/5/17 28/5/19 29/4/19 
f 27/1/18 25/4/18 29/4/19 30/1/19 
f 12/9/8 27/1/18 30/1/19 11/9/7 
f 16/9/12 15/1/11 31/1/20 32/9/21 
f 15/1/11 17/4/11 33/4/20 31/1/20 
f 17/4/11 18/5/11 34/5/20 33/4/20 
f 18/5/11 19/8/13 35/8/22 34/5/20 
f 19/8/13 36/8/23 35/8/22 
f 21/9/15 16/9/12 37/9/24 38/9/25 
f 20/8/14 22/5/16 39/5/26 40/8/27 
f 22/5/16 24/4/16 41/4/26 39/5/26 
f 24/4/16 26/1/16 42/1/26 41/4/26 
f 26/1/16 21/9/15 38/9/25 42/1/26 
f 43/11/28 37/12/24 32/13/21 31/14/20 
f 44/15/28 43/11/28 31/14/20 33/16/20 
f 45/17/28 44/15/28 33/16/20 34/18/20 
f 36/19/23 45/17/28 34/18/20 35/20/22 
f 39/21/26 45/17/28 36/19/23 40/22/27 
f 41/23/26 44/15/28 45/17/28 39/24/26 
f 42/25/26 43/11/28 44/15/28 41/26/26 
f 38/27/25 37/12/24 43/11/28 42/28/26 
f 16/9/12 32/9/21 37/9/24 
f 19/8/13 20/8/14 40/8/27 36/8/23 
# 38 polygons - 2 triangles

