# 3ds Max Wavefront OBJ Exporter v0.97b - (c)2007 guruware
# File Created: 24.11.2019 19:40:16

#
# object server_medium
#

v  -0.0000 1.0000 -0.0000
v  2.2790 1.0000 -0.0000
v  2.2790 1.4863 -0.0000
v  -0.0000 1.4863 -0.0000
v  2.2790 1.0000 -1.3143
v  2.2790 1.0000 -2.6285
v  2.2790 2.0000 -2.6285
v  2.2790 2.0000 -1.3143
v  2.2790 1.0000 -5.2571
v  -0.0000 1.0000 -5.2571
v  -0.0000 1.4863 -5.2571
v  2.2790 1.4863 -5.2571
v  -0.0000 1.0000 -3.9428
v  -0.0000 1.0000 -2.6285
v  -0.0000 2.0000 -2.6285
v  -0.0000 2.0000 -3.9428
v  -0.0000 0.0000 -0.0000
v  2.2790 0.0000 -0.0000
v  2.2790 0.0000 -1.3143
v  2.2790 0.0000 -2.6285
v  2.2790 0.0000 -5.2571
v  -0.0000 0.0000 -5.2571
v  -0.0000 0.0000 -3.9428
v  -0.0000 0.0000 -2.6285
v  -0.0000 2.0000 -1.3143
v  2.2790 1.0000 -3.9428
v  2.2790 2.0000 -4.7434
v  2.2790 2.0000 -3.9428
v  2.2790 2.0000 -0.5137
v  -0.0000 1.0000 -1.3143
v  -0.0000 2.0000 -0.5137
v  -0.0000 2.0000 -4.7434
v  2.2790 0.0000 -3.9428
v  -0.0000 0.0000 -1.3143
# 34 vertices

vn -0.7071 0.0000 0.7071
vn 0.7071 0.0000 0.7071
vn 0.6303 0.2971 0.7173
vn -0.6303 0.2971 0.7173
vn 1.0000 0.0000 -0.0000
vn 0.7071 0.7071 -0.0000
vn 0.7071 0.0000 -0.7071
vn -0.7071 0.0000 -0.7071
vn -0.6303 0.2971 -0.7173
vn 0.6303 0.2971 -0.7173
vn -1.0000 0.0000 -0.0000
vn -0.7071 0.7071 -0.0000
vn 0.6303 0.7173 -0.2971
vn 0.6303 0.7173 0.2971
vn -0.6303 0.7173 0.2971
vn -0.6303 0.7173 -0.2971
# 16 vertex normals

vt 0.0000 0.0000 0.0000
vt 1.0000 0.0000 0.0000
vt 1.0000 0.4863 0.0000
vt 0.0000 0.4863 0.0000
vt 0.2500 0.0000 0.0000
vt 0.5000 0.0000 0.0000
vt 0.5000 1.0000 0.0000
vt 0.2500 1.0000 0.0000
vt 1.0000 1.0000 0.0000
vt 0.0000 1.0000 0.0000
vt 0.7500 0.0000 0.0000
vt 0.9023 1.0000 0.0000
vt 0.7500 1.0000 0.0000
vt 0.0977 1.0000 0.0000
vt 1.0977 0.8038 0.0000
vt 1.0977 1.0000 0.0000
vt 0.8716 0.8038 0.0000
# 17 texture coords

o server_medium
g server_medium
f 1/1/1 2/2/2 3/3/3 4/4/4 
f 5/5/5 6/6/5 7/7/6 8/8/6 
f 9/1/7 10/2/8 11/3/9 12/4/10 
f 13/5/11 14/6/11 15/7/12 16/8/12 
f 17/1/1 18/2/2 2/9/2 1/10/1 
f 19/5/5 20/6/5 6/7/5 5/8/5 
f 21/1/7 22/2/8 10/9/8 9/10/7 
f 23/5/11 24/6/11 14/7/11 13/8/11 
f 8/9/6 7/9/6 15/9/12 25/9/12 
f 26/11/5 27/12/13 28/13/6 
f 6/6/5 26/11/5 28/13/6 7/7/6 
f 8/8/6 29/14/14 5/5/5 
f 30/11/11 1/2/1 4/3/4 31/12/15 30/11/11 
f 14/6/11 30/11/11 30/11/11 25/13/12 15/7/12 
f 16/8/12 32/14/16 13/5/11 
f 33/11/5 21/2/7 9/9/7 26/13/5 
f 20/6/5 33/11/5 26/13/5 6/7/5 
f 5/8/5 2/10/2 18/1/2 19/5/5 
f 34/11/11 17/2/1 1/9/1 30/13/11 
f 24/6/11 34/11/11 30/13/11 14/7/11 
f 13/8/11 10/10/8 22/1/8 23/5/11 
f 28/9/6 27/12/13 32/9/16 16/9/12 
f 7/9/6 28/9/6 16/9/12 15/9/12 
f 25/9/12 31/12/15 29/9/14 8/9/6 
f 3/9/3 29/9/14 31/9/15 4/9/4 
f 11/15/9 32/16/16 27/12/13 12/17/10 
f 31/12/15 25/13/12 30/11/11 
f 32/14/16 11/4/9 10/1/8 13/5/11 
f 29/14/14 3/4/3 2/1/2 5/5/5 
f 26/11/5 9/2/7 12/3/10 27/12/13 
# 26 polygons - 4 triangles

