# 3ds Max Wavefront OBJ Exporter v0.97b - (c)2007 guruware
# File Created: 24.11.2019 19:40:17

#
# object server_tall
#

v  2.2790 2.0000 -1.3143
v  2.2790 2.0000 -2.6285
v  2.2790 3.0000 -2.6285
v  2.2790 3.0000 -1.3143
v  0.0000 2.0000 -3.9428
v  0.0000 2.0000 -2.6285
v  0.0000 3.0000 -2.6285
v  0.0000 3.0000 -3.9428
v  0.0000 1.0000 -0.0000
v  2.2790 1.0000 -0.0000
v  2.2790 2.0000 -0.0000
v  0.0000 2.0000 -0.0000
v  2.2790 1.0000 -1.3143
v  2.2790 1.0000 -2.6285
v  2.2790 1.0000 -5.2571
v  0.0000 1.0000 -5.2571
v  0.0000 2.0000 -5.2571
v  2.2790 2.0000 -5.2571
v  0.0000 1.0000 -3.9428
v  0.0000 1.0000 -2.6285
v  0.0000 0.0000 -0.0000
v  2.2790 0.0000 -0.0000
v  2.2790 0.0000 -1.3143
v  2.2790 0.0000 -2.6285
v  2.2790 0.0000 -5.2571
v  0.0000 0.0000 -5.2571
v  0.0000 0.0000 -3.9428
v  0.0000 0.0000 -2.6285
v  0.0000 3.0000 -1.3143
v  2.2790 2.0000 -3.9428
v  2.2790 3.0000 -4.2093
v  2.2790 3.0000 -3.9428
v  2.2790 3.0000 -1.0478
v  0.0000 2.0000 -1.3143
v  0.0000 3.0000 -1.0478
v  0.0000 3.0000 -4.2093
v  2.2790 1.0000 -3.9428
v  0.0000 1.0000 -1.3143
v  2.2790 0.0000 -3.9428
v  0.0000 0.0000 -1.3143
# 40 vertices

vn 1.0000 0.0000 -0.0000
vn 0.7071 0.7071 -0.0000
vn -1.0000 0.0000 -0.0000
vn -0.7071 0.7071 -0.0000
vn -0.7071 0.0000 0.7071
vn 0.7071 0.0000 0.7071
vn 0.6284 0.3060 0.7152
vn -0.6284 0.3060 0.7152
vn 0.7071 0.0000 -0.7071
vn -0.7071 0.0000 -0.7071
vn -0.6284 0.3060 -0.7152
vn 0.6283 0.3061 -0.7152
vn 0.6322 0.7192 -0.2881
vn 0.6322 0.7192 0.2881
vn -0.6322 0.7192 0.2881
vn -0.6322 0.7192 -0.2881
# 16 vertex normals

vt 0.2500 0.0000 0.0000
vt 0.5000 0.0000 0.0000
vt 0.5000 1.0000 0.0000
vt 0.2500 1.0000 0.0000
vt 0.0000 0.0000 0.0000
vt 1.0000 0.0000 0.0000
vt 1.0000 1.0000 0.0000
vt 0.0000 1.0000 0.0000
vt 0.7500 0.0000 0.0000
vt 0.8007 1.0000 0.0000
vt 0.7500 1.0000 0.0000
vt 0.1993 1.0000 0.0000
vt 1.1799 0.6181 0.0000
vt 1.1799 1.0000 0.0000
vt 0.7500 0.6181 0.0000
# 15 texture coords

o server_tall
g server_tall
f 1/1/1 2/2/1 3/3/2 4/4/2 
f 5/1/3 6/2/3 7/3/4 8/4/4 
f 9/5/5 10/6/6 11/7/7 12/8/8 
f 13/1/1 14/2/1 2/3/1 1/4/1 
f 15/5/9 16/6/10 17/7/11 18/8/12 
f 19/1/3 20/2/3 6/3/3 5/4/3 
f 21/5/5 22/6/6 10/7/6 9/8/5 
f 23/1/1 24/2/1 14/3/1 13/4/1 
f 25/5/9 26/6/10 16/7/10 15/8/9 
f 27/1/3 28/2/3 20/3/3 19/4/3 
f 4/7/2 3/7/2 7/7/4 29/7/4 
f 30/9/1 18/6/12 31/10/13 32/11/2 
f 2/2/1 30/9/1 32/11/2 3/3/2 
f 4/4/2 33/12/14 11/5/7 1/1/1 
f 34/9/3 12/6/8 35/10/15 29/11/4 
f 6/2/3 34/9/3 29/11/4 7/3/4 
f 8/4/4 36/12/16 17/5/11 5/1/3 
f 37/9/1 15/6/9 18/7/12 30/11/1 
f 14/2/1 37/9/1 30/11/1 2/3/1 
f 1/4/1 11/8/7 10/5/6 13/1/1 
f 38/9/3 9/6/5 12/7/8 34/11/3 
f 20/2/3 38/9/3 34/11/3 6/3/3 
f 5/4/3 17/8/11 16/5/10 19/1/3 
f 39/9/1 25/6/9 15/7/9 37/11/1 
f 24/2/1 39/9/1 37/11/1 14/3/1 
f 13/4/1 10/8/6 22/5/6 23/1/1 
f 40/9/3 21/6/5 9/7/5 38/11/3 
f 28/2/3 40/9/3 38/11/3 20/3/3 
f 19/4/3 16/8/10 26/5/10 27/1/3 
f 32/7/2 31/10/13 36/7/16 8/7/4 
f 3/7/2 32/7/2 8/7/4 7/7/4 
f 29/7/4 35/10/15 33/7/14 4/7/2 
f 17/13/11 36/14/16 31/10/13 18/15/12 
f 11/7/7 33/7/14 35/7/15 12/7/8 
# 34 polygons

