# 3ds Max Wavefront OBJ Exporter v0.97b - (c)2007 guruware
# File Created: 24.11.2019 19:40:37

#
# object usb_drive
#

v  -8.6321 3.5047 1.2466
v  -8.6321 3.3494 1.4019
v  0.0000 3.3494 1.4019
v  0.0000 3.5047 1.2466
v  0.0000 3.2350 1.1322
v  0.0000 -0.0000 1.4019
v  0.0000 -0.0000 1.1322
v  -2.3475 -0.0000 1.1322
v  -2.3475 -0.0000 -0.0000
v  -2.3475 3.2350 -0.0000
v  -2.3475 3.2350 1.1322
v  -8.6321 -0.0000 1.4019
v  -2.1187 1.3013 1.4019
v  -2.1187 2.0480 1.4019
v  -1.5344 2.0480 1.4019
v  -1.5344 1.3013 1.4019
v  -8.6321 3.5047 -0.0000
v  0.0000 3.5047 -0.0000
v  0.0000 3.2350 -0.0000
v  -2.1187 1.3013 1.1322
v  -2.1187 2.0480 1.1322
v  -1.5344 1.3013 1.1322
v  -1.5344 2.0480 1.1322
v  -8.6321 3.5047 -1.2466
v  0.0000 3.5047 -1.2466
v  0.0000 3.3494 -1.4019
v  -8.6321 3.3494 -1.4019
v  0.0000 3.2350 -1.1322
v  0.0000 -0.0000 -1.4019
v  0.0000 -0.0000 -1.1322
v  -2.3475 -0.0000 -1.1322
v  -2.3475 3.2350 -1.1322
v  -8.6321 -0.0000 -1.4019
v  -2.4299 -0.0000 -1.0658
v  -2.4299 3.1697 -1.0658
v  -0.0719 3.1697 -1.0658
v  -0.0719 -0.0000 -1.0658
v  -2.4299 -0.0000 -0.0000
v  -0.0719 -0.0000 -0.0000
v  -0.0719 3.1697 -0.0000
v  -2.4299 3.1697 -0.0000
v  -8.6321 -3.5047 1.2466
v  0.0000 -3.5047 1.2466
v  0.0000 -3.3494 1.4019
v  -8.6321 -3.3494 1.4019
v  0.0000 -3.2350 1.1322
v  -2.3475 -3.2350 1.1322
v  -2.3475 -3.2350 -0.0000
v  -2.1187 -2.0480 1.4019
v  -2.1187 -1.3013 1.4019
v  -1.5344 -1.3013 1.4019
v  -1.5344 -2.0480 1.4019
v  -8.6321 -3.5047 -0.0000
v  0.0000 -3.5047 -0.0000
v  0.0000 -3.2350 -0.0000
v  -2.1187 -2.0480 1.1322
v  -2.1187 -1.3013 1.1322
v  -1.5344 -1.3013 1.1322
v  -1.5344 -2.0480 1.1322
v  -8.6321 -3.5047 -1.2466
v  -8.6321 -3.3494 -1.4019
v  0.0000 -3.3494 -1.4019
v  0.0000 -3.5047 -1.2466
v  0.0000 -3.2350 -1.1322
v  -2.3475 -3.2350 -1.1322
v  -0.0719 -3.1697 -1.0658
v  -2.4299 -3.1697 -1.0658
v  -2.4299 -3.1697 -0.0000
v  -0.0719 -3.1697 -0.0000
# 69 vertices

vn -0.0000 0.9239 0.3827
vn 0.0000 0.3827 0.9239
vn 0.6303 0.2971 0.7173
vn 0.6303 0.7173 0.2971
vn 0.9045 -0.3015 -0.3015
vn 0.7071 0.0000 0.7071
vn 0.7071 0.0000 -0.7071
vn 1.0000 0.0000 0.0000
vn 0.7071 -0.7071 0.0000
vn 0.5774 -0.5774 -0.5774
vn 0.0000 0.0000 1.0000
vn 0.3015 0.3015 0.9045
vn 0.3015 -0.3015 0.9045
vn -0.3015 -0.3015 0.9045
vn -0.3015 0.3015 0.9045
vn -0.0000 1.0000 -0.0000
vn 0.7071 0.7071 -0.0000
vn 0.7071 -0.7071 -0.0000
vn 0.3015 0.3015 -0.9045
vn 0.3015 -0.3015 -0.9045
vn -0.3015 0.3015 -0.9045
vn -0.3015 -0.3015 -0.9045
vn 0.0000 0.9239 -0.3827
vn 0.6303 0.7173 -0.2971
vn 0.6303 0.2971 -0.7173
vn 0.0000 0.3826 -0.9239
vn 0.9045 -0.3015 0.3015
vn 0.5773 -0.5773 0.5774
vn 0.0000 0.0000 -1.0000
vn 0.0000 0.7071 -0.7071
vn 0.5774 0.5774 -0.5774
vn 0.5774 0.5773 0.5774
vn 0.0000 0.7071 0.7071
vn -0.0000 -0.9239 0.3826
vn 0.6302 -0.7173 0.2972
vn 0.6303 -0.2971 0.7173
vn 0.0000 -0.3827 0.9239
vn 0.9045 0.3015 -0.3015
vn 0.0000 -1.0000 -0.0000
vn 0.0000 -0.9239 -0.3827
vn 0.0000 -0.3826 -0.9239
vn 0.6302 -0.2972 -0.7173
vn 0.6303 -0.7173 -0.2971
vn 0.9045 0.3015 0.3015
vn 0.5774 0.5774 0.5774
vn 0.0000 -0.7071 -0.7071
vn 0.0000 -0.7071 0.7071
vn 0.5774 -0.5774 0.5774
# 48 vertex normals

vt 0.0554 1.0000 0.0000
vt 0.0028 1.0000 0.0000
vt 0.0028 -0.0000 0.0000
vt 0.0554 0.0000 0.0000
vt 0.0000 0.9778 0.0000
vt 0.0277 0.9889 0.0000
vt 0.0000 0.5000 0.0000
vt 0.0277 0.5000 0.0000
vt 0.5000 0.5000 0.0000
vt 0.5000 0.9889 0.0000
vt 0.5000 1.0000 0.0000
vt 0.6857 0.2584 0.0000
vt 0.7922 0.2584 0.0000
vt 0.9778 1.0000 0.0000
vt 0.9778 0.0000 0.0000
vt 0.7922 0.1907 0.0000
vt 0.6857 0.1907 0.0000
vt 0.5000 0.0000 0.0000
vt 0.0277 0.8115 0.0000
vt 0.0277 0.8158 0.0000
vt 0.0277 0.6918 0.0000
vt 0.0277 0.6940 0.0000
vt 1.0000 0.0000 0.0000
vt 1.0000 1.0000 0.0000
vt 0.0000 1.0000 0.0000
vt 0.0000 0.0000 0.0000
# 26 texture coords

o usb_drive
g usb_drive
f 1/1/1 2/2/2 3/3/3 4/4/4 
f 4/1/4 3/5/3 5/6/5 
f 6/7/6 7/8/7 5/6/5 3/5/3 
f 8/8/7 9/9/8 10/10/9 11/6/10 
f 12/11/11 13/12/12 14/13/13 2/14/2 
f 3/15/3 15/16/14 16/17/15 6/18/6 
f 13/12/12 12/11/11 6/18/6 16/17/15 
f 15/16/14 3/15/3 2/14/2 14/13/13 
f 17/11/16 1/1/1 4/4/4 18/18/17 
f 18/11/17 4/1/4 5/6/5 19/10/18 
f 19/10/18 5/6/5 11/6/10 10/10/9 
f 14/13/13 13/12/12 20/12/19 21/13/20 
f 13/12/12 16/17/15 22/17/21 20/12/19 
f 16/17/15 15/16/14 23/16/22 22/17/21 
f 15/16/14 14/13/13 21/13/20 23/16/22 
f 11/6/10 5/6/5 23/19/22 21/20/20 
f 21/20/20 20/21/19 8/8/7 11/6/10 
f 22/22/21 23/19/22 5/6/5 7/8/7 
f 20/21/19 22/22/21 7/8/7 8/8/7 
f 24/1/23 25/4/24 26/3/25 27/2/26 
f 25/1/24 28/6/27 26/5/25 
f 29/7/7 26/5/25 28/6/27 30/8/6 
f 31/8/6 32/6/28 10/10/9 9/9/8 
f 17/11/16 18/18/17 25/4/24 24/1/23 
f 18/11/17 19/10/18 28/6/27 25/1/24 
f 19/10/18 10/10/9 32/6/28 28/6/27 
f 27/2/26 26/3/25 29/3/7 33/2/29 
f 28/6/27 32/6/28 31/6/6 30/6/6 
f 34/23/29 35/24/30 36/25/31 37/26/7 
f 38/26/11 39/23/6 40/24/32 41/25/33 
f 37/26/7 36/23/31 40/24/32 39/25/6 
f 36/26/31 35/23/30 41/24/33 40/25/32 
f 42/1/34 43/4/35 44/3/36 45/2/37 
f 43/1/35 46/6/38 44/5/36 
f 6/7/6 44/5/36 46/6/38 7/8/7 
f 8/8/7 47/6/31 48/10/17 9/9/8 
f 12/11/11 45/14/37 49/13/12 50/12/13 
f 44/15/36 6/18/6 51/17/14 52/16/15 
f 50/12/13 51/17/14 6/18/6 12/11/11 
f 52/16/15 49/13/12 45/14/37 44/15/36 
f 53/11/39 54/18/18 43/4/35 42/1/34 
f 54/11/18 55/10/17 46/6/38 43/1/35 
f 55/10/17 48/10/17 47/6/31 46/6/38 
f 49/13/12 56/13/19 57/12/20 50/12/13 
f 50/12/13 57/12/20 58/17/22 51/17/14 
f 51/17/14 58/17/22 59/16/21 52/16/15 
f 52/16/15 59/16/21 56/13/19 49/13/12 
f 47/6/31 56/20/19 59/19/21 46/6/38 
f 56/20/19 47/6/31 8/8/7 57/21/20 
f 58/22/22 7/8/7 46/6/38 59/19/21 
f 57/21/20 8/8/7 7/8/7 58/22/22 
f 60/1/40 61/2/41 62/3/42 63/4/43 
f 63/1/43 62/5/42 64/6/44 
f 29/7/7 30/8/6 64/6/44 62/5/42 
f 31/8/6 9/9/8 48/10/17 65/6/45 
f 53/11/39 60/1/40 63/4/43 54/18/18 
f 54/11/18 63/1/43 64/6/44 55/10/17 
f 55/10/17 64/6/44 65/6/45 48/10/17 
f 61/2/41 33/2/29 29/3/7 62/3/42 
f 64/6/44 30/6/6 31/6/6 65/6/45 
f 34/23/29 37/26/7 66/25/10 67/24/46 
f 38/26/11 68/25/47 69/24/48 39/23/6 
f 37/26/7 39/25/6 69/24/48 66/23/10 
f 66/26/10 69/25/48 68/24/47 67/23/46 
# 60 polygons - 4 triangles

