# 3ds Max Wavefront OBJ Exporter v0.97b - (c)2007 guruware
# File Created: 16.11.2019 17:48:12

#
# object level_wall_open
#

v  -1.8441 7.2463 5.7840
v  -1.8441 5.8958 5.7840
v  -1.8441 5.8958 7.8032
v  -1.8441 7.2463 7.8032
v  0.0000 7.2463 7.8032
v  0.0000 5.8958 7.8032
v  0.0000 5.8958 5.7840
v  0.0000 7.2463 5.7840
v  -1.7636 11.7916 1.9665
v  -1.7636 11.7916 3.7648
v  -1.2294 11.7916 3.7648
v  -1.2294 11.7916 1.9665
v  -1.7636 11.7916 5.5630
v  -1.2294 11.7916 5.5630
v  -1.8441 11.7916 5.7840
v  -1.8441 11.7916 7.8032
v  -1.2294 11.7916 7.8032
v  -1.2294 11.7916 5.7840
v  -0.6147 11.7916 3.7648
v  -0.6147 11.7916 1.9665
v  -0.6147 11.7916 5.5630
v  -0.6147 11.7916 7.8032
v  -0.6147 11.7916 5.7840
v  -0.0805 11.7916 3.7648
v  -0.0805 11.7916 1.9665
v  -0.0805 11.7916 5.5630
v  0.0000 11.7916 7.8032
v  0.0000 11.7916 5.7840
v  -1.8441 10.5622 1.7456
v  -1.8441 11.1769 1.7456
v  -1.8441 11.1769 0.1887
v  -1.8441 10.5622 0.1887
v  -1.7636 10.5622 3.7648
v  -1.7636 11.1769 3.7648
v  -1.7636 11.1769 1.9665
v  -1.7636 10.5622 1.9665
v  -1.7636 10.5622 5.5630
v  -1.7636 11.1769 5.5630
v  -1.8441 10.5622 7.8032
v  -1.8441 11.1769 7.8032
v  -1.8441 11.1769 5.7840
v  -1.8441 10.5622 5.7840
v  0.0000 10.5622 0.1887
v  0.0000 11.1769 0.1887
v  0.0000 11.1769 1.7456
v  0.0000 10.5622 1.7456
v  -0.0805 10.5622 1.9665
v  -0.0805 11.1769 1.9665
v  -0.0805 11.1769 3.7648
v  -0.0805 10.5622 3.7648
v  -0.0805 11.1769 5.5630
v  -0.0805 10.5622 5.5630
v  0.0000 10.5622 5.7840
v  0.0000 11.1769 5.7840
v  0.0000 11.1769 7.8032
v  0.0000 10.5622 7.8032
v  -1.6710 10.5622 -0.0000
v  -1.6710 11.1769 -0.0000
v  -1.2294 11.1769 -0.0000
v  -1.2294 10.5622 -0.0000
v  -1.1138 10.5622 0.1947
v  -1.1138 11.1769 0.1947
v  -0.7303 11.1769 0.1947
v  -0.7303 10.5622 0.1947
v  -0.6147 10.5622 -0.0000
v  -0.6147 11.1769 -0.0000
v  -0.1731 11.1769 -0.0000
v  -0.1731 10.5622 -0.0000
v  -1.8441 7.2463 1.7456
v  -1.8441 9.9475 1.7456
v  -1.8441 9.9475 0.1887
v  -1.8441 7.2463 0.1887
v  -1.7636 7.2463 3.7648
v  -1.7636 9.9475 3.7648
v  -1.7636 9.9475 1.9665
v  -1.7636 7.2463 1.9665
v  -1.7636 7.2463 5.5630
v  -1.7636 9.9475 5.5630
v  -1.8441 9.9475 7.8032
v  -1.8441 9.9475 5.7840
v  0.0000 7.2463 0.1887
v  0.0000 9.9475 0.1887
v  0.0000 9.9475 1.7456
v  0.0000 7.2463 1.7456
v  -0.0805 7.2463 1.9665
v  -0.0805 9.9475 1.9665
v  -0.0805 9.9475 3.7648
v  -0.0805 7.2463 3.7648
v  -0.0805 9.9475 5.5630
v  -0.0805 7.2463 5.5630
v  0.0000 9.9475 5.7840
v  0.0000 9.9475 7.8032
v  -1.6710 7.2463 -0.0000
v  -1.6710 9.9475 -0.0000
v  -1.2294 9.9475 -0.0000
v  -1.2294 7.2463 -0.0000
v  -1.1138 7.2463 0.1947
v  -1.1138 9.9475 0.1947
v  -0.7303 9.9475 0.1947
v  -0.7303 7.2463 0.1947
v  -0.6147 7.2463 -0.0000
v  -0.6147 9.9475 -0.0000
v  -0.1731 9.9475 -0.0000
v  -0.1731 7.2463 -0.0000
v  -1.8441 11.7916 1.7456
v  -1.8441 11.7916 0.1887
v  0.0000 11.7916 0.1887
v  0.0000 11.7916 1.7456
v  -1.6710 11.7916 -0.0000
v  -1.2294 11.7916 -0.0000
v  -1.1138 11.7916 0.1947
v  -0.7303 11.7916 0.1947
v  -0.6147 11.7916 -0.0000
v  -0.1731 11.7916 -0.0000
v  -1.2294 11.7916 1.7456
v  -0.6147 11.7916 1.7456
v  -1.8441 4.5452 5.7840
v  -1.8441 4.5452 7.8032
v  0.0000 4.5452 7.8032
v  0.0000 4.5452 5.7840
v  -1.7636 -0.0000 1.9665
v  -1.2294 -0.0000 1.9665
v  -1.2294 -0.0000 3.7648
v  -1.7636 -0.0000 3.7648
v  -1.2294 -0.0000 5.5630
v  -1.7636 -0.0000 5.5630
v  -1.8441 -0.0000 5.7840
v  -1.2294 -0.0000 5.7840
v  -1.2294 -0.0000 7.8032
v  -1.8441 -0.0000 7.8032
v  -0.6147 -0.0000 1.9665
v  -0.6147 -0.0000 3.7648
v  -0.6147 -0.0000 5.5630
v  -0.6147 -0.0000 5.7840
v  -0.6147 -0.0000 7.8032
v  -0.0805 -0.0000 1.9665
v  -0.0805 -0.0000 3.7648
v  -0.0805 -0.0000 5.5630
v  0.0000 -0.0000 5.7840
v  0.0000 -0.0000 7.8032
v  -1.8441 1.2294 1.7456
v  -1.8441 1.2294 0.1887
v  -1.8441 0.6147 0.1887
v  -1.8441 0.6147 1.7456
v  -1.7636 1.2294 3.7648
v  -1.7636 1.2294 1.9665
v  -1.7636 0.6147 1.9665
v  -1.7636 0.6147 3.7648
v  -1.7636 1.2294 5.5630
v  -1.7636 0.6147 5.5630
v  -1.8441 1.2294 7.8032
v  -1.8441 1.2294 5.7840
v  -1.8441 0.6147 5.7840
v  -1.8441 0.6147 7.8032
v  0.0000 1.2294 0.1887
v  0.0000 1.2294 1.7456
v  0.0000 0.6147 1.7456
v  0.0000 0.6147 0.1887
v  -0.0805 1.2294 1.9665
v  -0.0805 1.2294 3.7648
v  -0.0805 0.6147 3.7648
v  -0.0805 0.6147 1.9665
v  -0.0805 1.2294 5.5630
v  -0.0805 0.6147 5.5630
v  0.0000 1.2294 5.7840
v  0.0000 1.2294 7.8032
v  0.0000 0.6147 7.8032
v  0.0000 0.6147 5.7840
v  -1.6710 1.2294 -0.0000
v  -1.2294 1.2294 -0.0000
v  -1.2294 0.6147 -0.0000
v  -1.6710 0.6147 -0.0000
v  -1.1138 1.2294 0.1947
v  -0.7303 1.2294 0.1947
v  -0.7303 0.6147 0.1947
v  -1.1138 0.6147 0.1947
v  -0.6147 1.2294 -0.0000
v  -0.1731 1.2294 -0.0000
v  -0.1731 0.6147 -0.0000
v  -0.6147 0.6147 -0.0000
v  -1.8441 1.8441 5.7840
v  -1.8441 1.8441 7.8032
v  0.0000 1.8441 7.8032
v  0.0000 1.8441 5.7840
v  -1.8441 -0.0000 0.1887
v  -1.8441 -0.0000 1.7456
v  0.0000 -0.0000 1.7456
v  0.0000 -0.0000 0.1887
v  -1.2294 -0.0000 -0.0000
v  -1.6710 -0.0000 -0.0000
v  -0.7303 -0.0000 0.1947
v  -1.1138 -0.0000 0.1947
v  -0.1731 -0.0000 -0.0000
v  -0.6147 -0.0000 -0.0000
v  -1.2294 -0.0000 1.7456
v  -0.6147 -0.0000 1.7456
v  -0.0805 5.8958 5.5630
v  -0.0805 4.5452 5.5630
v  -0.0805 1.8441 5.5630
v  -1.7636 1.8441 5.5630
v  -1.7636 4.5452 5.5630
v  -1.7636 5.8958 5.5630
v  -0.6147 1.2294 1.7456
v  -1.2294 1.2294 1.7456
v  -0.6415 1.2294 1.9665
v  -1.2026 1.2294 1.9665
v  -0.6415 1.2294 3.7648
v  -1.2026 1.2294 3.7648
v  -0.6415 1.2294 5.5630
v  -1.2026 1.2294 5.5630
v  -0.6415 7.2463 5.5630
v  -0.6415 7.2463 3.7648
v  -1.2026 7.2463 5.5630
v  -1.2026 7.2463 3.7648
v  -0.6415 7.2463 1.9665
v  -1.2026 7.2463 1.9665
v  -0.6147 7.2463 1.7456
v  -1.2294 7.2463 1.7456
v  -1.2026 5.8958 5.5630
v  -0.6415 5.8958 5.5630
v  -1.2026 4.5452 5.5630
v  -0.6415 4.5452 5.5630
v  -1.2026 1.8441 5.5630
v  -0.6415 1.8441 5.5630
# 224 vertices

vn -0.9822 -0.0000 -0.1879
vn -0.9822 0.0000 -0.1879
vn -1.0000 0.0000 -0.0000
vn -1.0000 -0.0000 -0.0000
vn 1.0000 -0.0000 0.0000
vn 0.9822 -0.0000 -0.1879
vn -0.6475 0.7519 0.1239
vn -0.7071 0.7071 -0.0000
vn 0.0000 1.0000 0.0000
vn -0.6475 0.7519 -0.1239
vn -0.7316 0.6672 -0.1400
vn 0.7071 0.7071 0.0000
vn 0.6475 0.7519 0.1239
vn 0.6475 0.7519 -0.1239
vn 0.7316 0.6672 -0.1400
vn -0.9822 0.0000 0.1879
vn -0.9239 -0.0000 -0.3827
vn -0.9822 -0.0000 0.1879
vn 0.9239 -0.0000 -0.3827
vn 0.9822 -0.0000 0.1879
vn -0.3827 -0.0000 -0.9239
vn 0.4778 -0.0000 -0.8785
vn -0.4778 -0.0000 -0.8785
vn 0.3827 -0.0000 -0.9239
vn -0.7316 -0.6672 0.1400
vn -0.7173 -0.6303 -0.2971
vn -0.7071 -0.7071 -0.0000
vn -0.6475 -0.7519 0.1239
vn -0.8187 -0.2864 -0.4978
vn 0.7173 -0.6303 -0.2971
vn 0.7316 -0.6672 0.1400
vn 0.6475 -0.7519 0.1239
vn 0.7071 -0.7071 0.0000
vn 0.8187 -0.2864 -0.4978
vn -0.2971 -0.6303 -0.7173
vn 0.3773 -0.6137 -0.6936
vn 0.2651 -0.8319 -0.4874
vn -0.4778 0.0000 -0.8785
vn -0.2651 -0.8319 -0.4874
vn -0.3773 -0.6137 -0.6936
vn 0.2971 -0.6303 -0.7173
vn -0.7316 0.6672 0.1400
vn -0.7173 0.6303 -0.2971
vn 0.7173 0.6303 -0.2971
vn 0.7316 0.6672 0.1400
vn -0.2971 0.6303 -0.7173
vn 0.3772 0.6138 -0.6936
vn 0.2652 0.8319 -0.4874
vn -0.2651 0.8319 -0.4874
vn -0.3773 0.6137 -0.6936
vn 0.2971 0.6303 -0.7173
vn -0.0000 -1.0000 0.0000
vn -0.0000 -1.0000 -0.0000
vn -0.6475 -0.7519 -0.1239
vn -0.7316 -0.6672 -0.1400
vn 0.6475 -0.7519 -0.1239
vn 0.7316 -0.6672 -0.1400
vn -0.9239 0.0000 -0.3827
vn -0.7071 0.7071 0.0000
vn -0.8187 0.2864 -0.4978
vn 0.9239 0.0000 -0.3827
vn 0.8187 0.2864 -0.4978
vn 0.3773 0.6137 -0.6936
vn 0.4778 0.0000 -0.8785
vn -0.3827 0.0000 -0.9239
vn 0.2651 0.8320 -0.4874
vn 0.3827 0.0000 -0.9239
vn -0.7316 -0.6672 0.1399
vn 0.7316 -0.6672 0.1399
vn 0.3772 -0.6138 -0.6936
vn 0.2652 -0.8319 -0.4874
vn 0.5617 -0.0000 -0.8274
vn -0.5617 0.0000 -0.8274
vn -0.0000 1.0000 0.0000
vn -0.0000 1.0000 -0.0000
vn -0.0000 0.7071 -0.7071
vn 0.0000 -0.7071 -0.7071
vn -0.0000 -0.7071 -0.7071
vn 0.0000 0.0000 -1.0000
# 79 vertex normals

vt 0.2500 0.4167 0.0000
vt 0.2500 0.5000 0.0000
vt 0.0000 0.5000 0.0000
vt 0.0000 0.4167 0.0000
vt 1.0000 0.4167 0.0000
vt 1.0000 0.5000 0.0000
vt 0.7500 0.5000 0.0000
vt 0.7500 0.4167 0.0000
vt 0.2500 0.0000 0.0000
vt 0.5000 0.0000 0.0000
vt 0.5000 0.3333 0.0000
vt 0.2500 0.3333 0.0000
vt 0.7500 0.0000 0.0000
vt 0.7500 0.3333 0.0000
vt 1.0000 0.0000 0.0000
vt 1.0000 0.3333 0.0000
vt 0.5000 0.6667 0.0000
vt 0.2500 0.6667 0.0000
vt 0.7500 0.6667 0.0000
vt 1.0000 0.6667 0.0000
vt 0.5000 1.0000 0.0000
vt 0.2500 1.0000 0.0000
vt 0.7500 1.0000 0.0000
vt 1.0000 1.0000 0.0000
vt 0.7500 0.1667 0.0000
vt 0.7500 0.0833 0.0000
vt 0.9730 0.0833 0.0000
vt 0.9730 0.1667 0.0000
vt 0.5000 0.1667 0.0000
vt 0.5000 0.0833 0.0000
vt 0.2500 0.1667 0.0000
vt 0.2500 0.0833 0.0000
vt 0.0000 0.1667 0.0000
vt 0.0000 0.0833 0.0000
vt 0.0270 0.1667 0.0000
vt 0.0270 0.0833 0.0000
vt 1.0000 0.0833 0.0000
vt 1.0000 0.1667 0.0000
vt 0.8333 0.0939 0.0000
vt 0.9167 0.0939 0.0000
vt 0.9167 0.3333 0.0000
vt 0.8333 0.3333 0.0000
vt 0.9167 0.6667 0.0000
vt 0.8333 0.6667 0.0000
vt 0.9167 0.9061 0.0000
vt 0.8333 0.9061 0.0000
vt 0.7500 0.2500 0.0000
vt 0.9730 0.2500 0.0000
vt 0.9730 0.4167 0.0000
vt 0.5000 0.4167 0.0000
vt 0.5000 0.2500 0.0000
vt 0.2500 0.2500 0.0000
vt 0.0000 0.2500 0.0000
vt 0.0270 0.4167 0.0000
vt 0.0270 0.2500 0.0000
vt 1.0000 0.2500 0.0000
vt 0.5833 0.0939 0.0000
vt 0.7500 0.0939 0.0000
vt 0.5833 0.3333 0.0000
vt 0.5833 0.6667 0.0000
vt 0.7500 0.9061 0.0000
vt 0.5833 0.9061 0.0000
vt 0.9730 0.0000 0.0000
vt 0.0000 0.0000 0.0000
vt 0.0270 0.0000 0.0000
vt 1.0000 0.0939 0.0000
vt 1.0000 0.9061 0.0000
vt 1.0000 -0.0039 0.0000
vt 0.9167 -0.0039 0.0000
vt 0.7500 0.0178 0.0000
vt 0.5833 0.0178 0.0000
vt 0.7500 1.0039 0.0000
vt 0.8333 1.0039 0.0000
vt 0.5833 0.9822 0.0000
vt 0.7500 0.9822 0.0000
vt 0.8333 -0.0039 0.0000
vt 0.7500 -0.0039 0.0000
vt 0.9167 1.0039 0.0000
vt 1.0000 1.0039 0.0000
# 79 texture coords

o level_wall_open
g level_wall_open
f 1/1/1 2/2/2 3/3/3 4/4/4 
f 5/5/5 6/6/5 7/7/6 8/8/6 
f 9/9/7 10/10/8 11/11/9 12/12/9 
f 10/10/8 13/13/10 14/14/9 11/11/9 
f 15/13/11 16/15/8 17/16/9 18/14/9 
f 12/12/9 11/11/9 19/17/9 20/18/9 
f 11/11/9 14/14/9 21/19/9 19/17/9 
f 18/14/9 17/16/9 22/20/9 23/19/9 
f 20/18/9 19/17/9 24/21/12 25/22/13 
f 19/17/9 21/19/9 26/23/14 24/21/12 
f 23/19/9 22/20/9 27/24/12 28/23/15 
f 29/25/16 30/26/16 31/27/17 32/28/17 
f 33/29/3 34/30/4 35/26/18 36/25/16 
f 37/31/2 38/32/1 34/30/4 33/29/3 
f 39/33/3 40/34/3 41/32/2 42/31/2 
f 43/35/19 44/36/19 45/32/20 46/31/20 
f 47/31/20 48/32/20 49/30/5 50/29/5 
f 50/29/5 49/30/5 51/26/6 52/25/6 
f 53/25/6 54/26/6 55/37/5 56/38/5 
f 57/39/21 58/40/21 59/41/22 60/42/22 
f 61/42/22 62/41/22 63/43/23 64/44/23 
f 65/44/23 66/43/23 67/45/24 68/46/24 
f 69/8/25 70/47/16 71/48/17 72/49/26 
f 73/50/27 74/51/3 75/47/16 76/8/28 
f 77/1/29 78/52/2 74/51/3 73/50/27 
f 4/4/4 79/53/3 80/52/2 1/1/1 
f 81/54/30 82/55/19 83/52/20 84/1/31 
f 85/1/32 86/52/20 87/51/5 88/50/33 
f 88/50/33 87/51/5 89/47/6 90/8/34 
f 8/8/6 91/47/6 92/56/5 5/5/5 
f 93/57/35 94/58/21 95/14/22 96/59/36 
f 97/59/37 98/14/22 99/19/38 100/60/39 
f 101/60/40 102/19/38 103/61/24 104/62/41 
f 30/26/16 105/13/42 106/63/43 31/27/17 
f 32/28/17 71/48/17 70/47/16 29/25/16 
f 34/30/4 10/10/8 9/13/7 35/26/18 
f 36/25/16 75/47/16 74/51/3 33/29/3 
f 38/32/1 13/9/10 10/10/8 34/30/4 
f 33/29/3 74/51/3 78/52/2 37/31/2 
f 40/34/3 16/64/8 15/9/11 41/32/2 
f 42/31/2 80/52/2 79/53/3 39/33/3 
f 44/36/19 107/65/44 108/9/45 45/32/20 
f 46/31/20 83/52/20 82/55/19 43/35/19 
f 48/32/20 25/9/13 24/10/12 49/30/5 
f 50/29/5 87/51/5 86/52/20 47/31/20 
f 49/30/5 24/10/12 26/13/14 51/26/6 
f 52/25/6 89/47/6 87/51/5 50/29/5 
f 54/26/6 28/13/15 27/15/12 55/37/5 
f 56/38/5 92/56/5 91/47/6 53/25/6 
f 58/40/21 109/66/46 110/16/47 59/41/22 
f 60/42/22 95/14/22 94/58/21 57/39/21 
f 62/41/22 111/16/48 112/20/49 63/43/23 
f 64/44/23 99/19/38 98/14/22 61/42/22 
f 66/43/23 113/20/50 114/67/51 67/45/24 
f 68/46/24 103/61/24 102/19/38 65/44/23 
f 106/68/43 109/66/46 58/40/21 31/69/17 
f 71/70/17 94/58/21 93/57/35 72/71/26 
f 82/72/19 103/61/24 68/46/24 43/73/19 
f 81/74/30 104/62/41 103/61/24 82/75/19 
f 31/69/17 58/40/21 57/39/21 32/76/17 
f 32/76/17 57/39/21 94/58/21 71/77/17 
f 43/73/19 68/46/24 67/45/24 44/78/19 
f 44/78/19 67/45/24 114/67/51 107/79/44 
f 113/20/50 66/43/23 63/43/23 112/20/49 
f 66/43/23 65/44/23 64/44/23 63/43/23 
f 65/44/23 102/19/38 99/19/38 64/44/23 
f 102/19/38 101/60/40 100/60/39 99/19/38 
f 96/59/36 95/14/22 98/14/22 97/59/37 
f 95/14/22 60/42/22 61/42/22 98/14/22 
f 60/42/22 59/41/22 62/41/22 61/42/22 
f 59/41/22 110/16/47 111/16/48 62/41/22 
f 113/11/50 112/32/49 107/65/44 114/38/51 
f 111/31/48 110/9/47 109/37/46 106/63/43 
f 111/31/48 106/63/43 105/13/42 115/10/9 
f 112/32/49 111/31/48 115/10/9 116/14/9 
f 107/65/44 112/32/49 116/14/9 108/9/45 
f 117/1/2 118/4/3 3/3/3 2/2/2 
f 119/5/5 120/8/6 7/7/6 6/6/5 
f 121/9/28 122/12/52 123/11/53 124/10/27 
f 124/10/27 123/11/53 125/14/53 126/13/54 
f 127/13/55 128/14/53 129/16/53 130/15/27 
f 122/12/52 131/18/52 132/17/53 123/11/53 
f 123/11/53 132/17/53 133/19/53 125/14/53 
f 128/14/53 134/19/53 135/20/53 129/16/53 
f 131/18/52 136/22/32 137/21/33 132/17/53 
f 132/17/53 137/21/33 138/23/56 133/19/53 
f 134/19/53 139/23/57 140/24/33 135/20/53 
f 141/25/42 142/28/43 143/27/58 144/26/16 
f 145/29/59 146/25/7 147/26/16 148/30/3 
f 149/31/60 145/29/59 148/30/3 150/32/1 
f 151/33/3 152/31/1 153/32/1 154/34/3 
f 155/35/44 156/31/45 157/32/20 158/36/61 
f 159/31/13 160/29/12 161/30/5 162/32/20 
f 160/29/12 163/25/62 164/26/6 161/30/5 
f 165/25/6 166/38/5 167/37/5 168/26/6 
f 169/39/46 170/42/63 171/41/64 172/40/65 
f 173/42/66 174/44/49 175/43/38 176/41/64 
f 177/44/50 178/46/51 179/45/67 180/43/38 
f 118/4/3 117/1/2 181/52/2 182/53/3 
f 120/8/6 119/5/5 183/56/5 184/47/6 
f 144/26/16 143/27/58 185/63/26 186/13/68 
f 148/30/3 147/26/16 121/13/28 124/10/27 
f 150/32/1 148/30/3 124/10/27 126/9/54 
f 154/34/3 153/32/1 127/9/55 130/64/27 
f 152/31/1 151/33/3 182/53/3 181/52/2 
f 158/36/61 157/32/20 187/9/69 188/65/30 
f 162/32/20 161/30/5 137/10/33 136/9/32 
f 161/30/5 164/26/6 138/13/56 137/10/33 
f 168/26/6 167/37/5 140/15/33 139/13/57 
f 166/38/5 165/25/6 184/47/6 183/56/5 
f 172/40/65 171/41/64 189/16/70 190/66/35 
f 176/41/64 175/43/38 191/20/39 192/16/71 
f 180/43/38 179/45/67 193/67/41 194/20/40 
f 185/68/26 143/69/58 172/40/65 190/66/35 
f 143/69/58 142/76/43 169/39/46 172/40/65 
f 155/73/44 158/78/61 179/45/67 178/46/51 
f 158/78/61 188/79/30 193/67/41 179/45/67 
f 194/20/40 191/20/39 175/43/38 180/43/38 
f 180/43/38 175/43/38 174/44/49 177/44/50 
f 170/42/63 173/42/66 176/41/64 171/41/64 
f 171/41/64 176/41/64 192/16/71 189/16/70 
f 194/11/40 193/38/41 188/65/30 191/32/39 
f 192/31/71 185/63/26 190/37/35 189/9/70 
f 192/31/71 195/10/52 186/13/68 185/63/26 
f 191/32/39 196/14/52 195/10/52 192/31/71 
f 188/65/30 187/9/69 196/14/52 191/32/39 
f 45/32/20 108/9/45 25/9/13 48/32/20 
f 108/22/45 116/18/9 20/18/9 25/22/13 
f 116/18/9 115/12/9 12/12/9 20/18/9 
f 115/12/9 105/9/42 9/9/7 12/12/9 
f 105/13/42 30/26/16 35/26/18 9/13/7 
f 30/26/16 29/25/16 36/25/16 35/26/18 
f 29/25/16 70/47/16 75/47/16 36/25/16 
f 70/47/16 69/8/25 76/8/28 75/47/16 
f 141/25/42 144/26/16 147/26/16 146/25/7 
f 144/26/16 186/13/68 121/13/28 147/26/16 
f 186/9/68 195/12/52 122/12/52 121/9/28 
f 195/12/52 196/18/52 131/18/52 122/12/52 
f 196/18/52 187/22/69 136/22/32 131/18/52 
f 187/9/69 157/32/20 162/32/20 136/9/32 
f 157/32/20 156/31/45 159/31/13 162/32/20 
f 84/1/31 83/52/20 86/52/20 85/1/32 
f 83/52/20 46/31/20 47/31/20 86/52/20 
f 46/31/20 45/32/20 48/32/20 47/31/20 
f 28/13/15 54/26/6 51/26/6 26/13/14 
f 54/26/6 53/25/6 52/25/6 51/26/6 
f 53/25/6 91/47/6 89/47/6 52/25/6 
f 91/47/6 8/8/6 90/8/34 89/47/6 
f 8/8/6 7/7/6 197/7/72 90/8/34 
f 7/7/6 120/8/6 198/8/72 197/7/72 
f 120/8/6 184/47/6 199/47/72 198/8/72 
f 184/47/6 165/25/6 163/25/62 199/47/72 
f 165/25/6 168/26/6 164/26/6 163/25/62 
f 168/26/6 139/13/57 138/13/56 164/26/6 
f 139/23/57 134/19/53 133/19/53 138/23/56 
f 134/19/53 128/14/53 125/14/53 133/19/53 
f 128/14/53 127/13/55 126/13/54 125/14/53 
f 127/9/55 153/32/1 150/32/1 126/9/54 
f 153/32/1 152/31/1 149/31/60 150/32/1 
f 152/31/1 181/52/2 200/52/73 149/31/60 
f 181/52/2 117/1/2 201/1/73 200/52/73 
f 117/1/2 2/2/2 202/2/73 201/1/73 
f 2/2/2 1/1/1 77/1/29 202/2/73 
f 1/1/1 80/52/2 78/52/2 77/1/29 
f 80/52/2 42/31/2 37/31/2 78/52/2 
f 42/31/2 41/32/2 38/32/1 37/31/2 
f 41/32/2 15/9/11 13/9/10 38/32/1 
f 15/13/11 18/14/9 14/14/9 13/13/10 
f 18/14/9 23/19/9 21/19/9 14/14/9 
f 23/19/9 28/23/15 26/23/14 21/19/9 
f 156/10/45 155/5/44 174/9/49 203/18/74 
f 203/18/74 174/9/49 173/12/66 204/13/74 
f 204/13/74 173/12/66 142/6/43 141/2/42 
f 159/52/13 156/10/45 203/18/74 205/9/75 
f 205/9/75 203/18/74 204/13/74 206/26/74 
f 206/26/74 204/13/74 141/2/42 146/41/7 
f 160/12/12 159/52/13 205/9/75 207/25/74 
f 207/25/74 205/9/75 206/26/74 208/47/75 
f 208/47/75 206/26/74 146/41/7 145/2/59 
f 163/13/62 160/12/12 207/25/74 209/8/76 
f 209/8/76 207/25/74 208/47/75 210/25/76 
f 210/25/76 208/47/75 145/2/59 149/67/60 
f 169/39/46 142/76/43 173/12/66 170/42/63 
f 177/44/50 174/44/49 155/5/44 178/46/51 
f 88/51/33 90/10/34 211/8/77 212/25/53 
f 212/25/53 211/8/77 213/26/78 214/13/53 
f 214/13/53 213/26/78 77/69/29 73/52/27 
f 85/46/32 88/51/33 212/25/53 215/9/53 
f 215/9/53 212/25/53 214/13/53 216/12/52 
f 216/12/52 214/13/53 73/52/27 76/41/28 
f 84/55/31 85/46/32 215/9/53 217/18/52 
f 217/18/52 215/9/53 216/12/52 218/22/52 
f 218/22/52 216/12/52 76/41/28 69/51/25 
f 81/61/30 84/55/31 217/18/52 100/9/39 
f 100/9/39 217/18/52 218/22/52 97/32/37 
f 97/32/37 218/22/52 69/51/25 72/43/26 
f 96/59/36 97/59/37 72/43/26 93/57/35 
f 104/62/41 81/74/30 100/9/39 101/60/40 
f 202/20/73 77/67/29 213/9/78 219/32/79 
f 219/32/79 213/9/78 211/31/77 220/1/79 
f 220/1/79 211/31/77 90/13/34 197/63/72 
f 201/20/73 202/20/73 219/32/79 221/52/79 
f 221/52/79 219/32/79 220/1/79 222/31/79 
f 222/31/79 220/1/79 197/63/72 198/10/72 
f 200/16/73 201/20/73 221/52/79 223/23/79 
f 223/23/79 221/52/79 222/31/79 224/13/79 
f 224/13/79 222/31/79 198/10/72 199/9/72 
f 149/16/60 200/16/73 223/23/79 210/26/76 
f 210/26/76 223/23/79 224/13/79 209/25/76 
f 209/25/76 224/13/79 199/9/72 163/64/62 
# 210 polygons

