# 3ds Max Wavefront OBJ Exporter v0.97b - (c)2007 guruware
# File Created: 16.11.2019 17:10:06

#
# object level_wall_basic
#

v  46.9221 502.4940 469.0273
v  46.9221 617.1183 469.0273
v  46.9221 617.1183 275.4329
v  46.9221 502.4939 275.4329
v  -31.6807 252.4269 450.6989
v  -31.6807 252.4269 279.0409
v  -31.6807 -0.0000 279.0411
v  -31.6807 -0.0000 450.6989
v  -0.0000 475.7536 150.3326
v  0.0000 617.1183 150.3326
v  0.0000 617.1183 21.6498
v  0.0000 475.7536 21.6498
v  -0.0000 0.0001 150.3326
v  -0.0000 284.4313 150.3326
v  -0.0000 284.4313 21.6498
v  -0.0000 0.0000 21.6498
v  124.2956 475.7536 741.6617
v  124.2956 617.1183 741.6617
v  124.2956 617.1183 560.5751
v  124.2956 475.7536 560.5751
v  12.2392 0.0000 450.6989
v  12.2392 0.0000 257.1046
v  205.2638 0.0000 257.1046
v  205.2637 0.0000 450.6989
v  12.2392 475.7536 257.1044
v  12.2392 374.0282 257.1044
v  12.2392 374.0282 450.6989
v  12.2392 475.7536 450.6989
v  46.9221 449.0133 542.2467
v  46.9221 374.0282 542.2467
v  46.9221 374.0282 759.9901
v  46.9221 449.0133 759.9901
v  12.2392 475.7536 150.3326
v  12.2392 617.1183 257.1046
v  12.2392 617.1183 150.3326
v  205.2637 0.0000 150.3326
v  12.2392 0.0000 150.3326
v  12.2392 284.4313 257.1044
v  12.2392 284.4313 150.3326
v  46.9221 449.0133 796.5999
v  46.9221 617.1183 796.5999
v  46.9221 617.1183 759.9901
v  46.9221 617.1183 542.2467
v  46.9221 374.0282 469.0273
v  205.2638 475.7536 -0.0001
v  205.2638 374.0282 -0.0001
v  14.7086 374.0282 -0.0001
v  14.7086 475.7536 -0.0001
v  205.2637 0.0000 -0.0001
v  14.7086 0.0000 -0.0001
v  14.7086 284.4313 -0.0001
v  205.2638 284.4312 -0.0001
v  0.0000 374.0282 21.6498
v  12.2392 284.4313 450.6989
v  -0.0000 374.0282 150.3326
v  12.2392 374.0282 150.3326
v  46.9221 374.0282 796.5999
v  205.2637 617.1183 -0.0001
v  14.7086 617.1183 -0.0001
v  12.2392 374.0282 542.2467
v  12.2392 374.0282 759.9901
v  12.2392 374.0282 796.5999
v  12.2392 284.4313 542.2467
v  12.2392 284.4313 759.9901
v  12.2392 284.4313 796.5999
v  12.2392 0.0000 759.9901
v  12.2392 0.0000 542.2467
v  205.2637 0.0000 542.2467
v  205.2637 0.0000 759.9901
v  12.2392 0.0000 796.5999
v  205.2637 0.0000 796.5999
v  -31.6806 252.4269 542.2467
v  -31.6806 -0.0000 542.2467
v  -31.6806 -0.0000 759.9901
v  -31.6806 252.4269 759.9901
v  -31.6806 0.0000 796.5999
v  -31.6806 252.4269 796.5999
v  46.9221 731.7427 469.0273
v  46.9221 731.7427 275.4329
v  -31.6806 1234.2367 450.6989
v  -31.6806 1234.2366 279.0411
v  -31.6806 1041.2123 279.0409
v  -31.6806 1041.2124 450.6989
v  0.0000 758.4830 21.6498
v  0.0000 758.4830 150.3326
v  0.0000 1041.2124 150.3326
v  0.0000 1234.2366 150.3326
v  0.0000 1234.2365 21.6498
v  0.0000 1041.2124 21.6498
v  124.2956 758.4830 741.6617
v  124.2956 758.4830 560.5751
v  12.2392 1234.2367 450.6989
v  205.2638 1234.2367 450.6989
v  205.2638 1234.2366 257.1046
v  12.2392 1234.2366 257.1046
v  12.2392 758.4830 257.1044
v  12.2392 758.4830 450.6989
v  12.2392 860.2085 450.6989
v  12.2392 860.2084 257.1044
v  0.0000 949.8054 21.6498
v  0.0000 949.8054 150.3326
v  46.9221 785.2234 542.2467
v  46.9221 785.2234 759.9901
v  46.9221 860.2085 759.9901
v  46.9221 860.2085 542.2467
v  12.2392 758.4830 150.3326
v  12.2392 1234.2367 150.3326
v  205.2638 1234.2367 150.3326
v  12.2392 1041.2124 150.3326
v  12.2392 1041.2123 257.1044
v  12.2392 949.8054 150.3326
v  12.2392 949.8054 257.1044
v  46.9221 785.2234 796.5999
v  46.9221 860.2085 469.0273
v  14.7086 758.4830 -0.0001
v  14.7086 860.2084 -0.0001
v  205.2638 860.2084 -0.0001
v  205.2638 758.4830 -0.0001
v  14.7086 1234.2365 -0.0001
v  205.2638 1234.2365 -0.0001
v  205.2638 1041.2124 -0.0001
v  14.7086 1041.2124 -0.0001
v  0.0000 860.2085 21.6498
v  12.2392 949.8054 450.6989
v  0.0000 860.2085 150.3326
v  12.2392 860.2085 150.3326
v  46.9221 860.2085 796.5999
v  14.7086 949.8054 -0.0001
v  205.2638 949.8054 -0.0001
v  12.2392 860.2085 759.9901
v  12.2392 860.2085 542.2467
v  12.2392 860.2085 796.5999
v  12.2392 949.8054 759.9901
v  12.2392 949.8054 542.2467
v  12.2392 949.8054 796.5999
v  -31.6806 1041.2124 759.9901
v  -31.6806 1234.2367 759.9901
v  -31.6806 1234.2367 542.2467
v  -31.6806 1041.2124 542.2467
v  -31.6806 1041.2124 796.5999
v  -31.6806 1234.2367 796.5999
v  12.2393 1234.2367 759.9901
v  205.2638 1234.2367 759.9901
v  205.2637 1234.2367 542.2467
v  12.2393 1234.2367 542.2467
v  12.2393 1234.2367 796.5999
v  205.2638 1234.2367 796.5999
v  -31.6806 981.8097 279.0409
v  -31.6806 981.8097 450.6989
v  -31.6806 981.8097 542.2467
v  -31.6806 981.8097 759.9901
v  -31.6806 981.8097 796.5999
v  46.9221 502.4940 1124.1725
v  46.9220 502.4939 1317.7668
v  46.9220 617.1183 1317.7668
v  46.9221 617.1183 1124.1725
v  -31.6807 252.4269 1142.5007
v  -31.6807 -0.0000 1142.5007
v  -31.6807 -0.0000 1314.1587
v  -31.6807 252.4269 1314.1588
v  -0.0001 475.7536 1442.8669
v  -0.0001 475.7536 1571.5499
v  -0.0001 617.1183 1571.5499
v  -0.0001 617.1183 1442.8669
v  -0.0001 0.0001 1442.8669
v  -0.0001 -0.0000 1571.5499
v  -0.0001 284.4313 1571.5499
v  -0.0001 284.4313 1442.8669
v  124.2956 475.7536 851.5380
v  124.2956 475.7536 1032.6246
v  124.2956 617.1183 1032.6246
v  124.2956 617.1183 851.5380
v  12.2392 -0.0000 1142.5007
v  205.2637 -0.0000 1142.5007
v  205.2637 -0.0000 1336.0952
v  12.2391 -0.0000 1336.0952
v  12.2392 475.7536 1336.0952
v  12.2392 475.7536 1142.5007
v  12.2392 374.0282 1142.5007
v  12.2392 374.0281 1336.0952
v  46.9221 449.0133 1050.9530
v  46.9221 449.0133 833.2097
v  46.9221 374.0282 833.2097
v  46.9221 374.0282 1050.9530
v  12.2392 475.7536 1442.8669
v  12.2392 617.1183 1442.8669
v  12.2392 617.1183 1336.0951
v  205.2637 -0.0000 1442.8669
v  12.2391 -0.0000 1442.8669
v  12.2391 284.4313 1442.8669
v  12.2392 284.4313 1336.0952
v  46.9221 617.1183 833.2096
v  46.9221 617.1183 1050.9530
v  46.9220 374.0282 1124.1725
v  205.2637 475.7536 1593.1998
v  14.7085 475.7536 1593.1997
v  14.7085 374.0282 1593.1997
v  205.2637 374.0281 1593.1998
v  205.2637 -0.0000 1593.1998
v  205.2637 284.4312 1593.1998
v  14.7085 284.4313 1593.1997
v  14.7085 -0.0000 1593.1997
v  -0.0001 374.0282 1571.5499
v  12.2392 284.4313 1142.5007
v  -0.0001 374.0282 1442.8669
v  12.2392 374.0282 1442.8669
v  205.2637 617.1183 1593.1998
v  14.7085 617.1183 1593.1997
v  12.2392 374.0282 833.2097
v  12.2392 374.0282 1050.9530
v  12.2392 284.4313 833.2097
v  12.2392 284.4313 1050.9530
v  12.2392 -0.0000 833.2097
v  205.2637 -0.0000 833.2097
v  205.2637 -0.0000 1050.9530
v  12.2392 -0.0000 1050.9530
v  -31.6807 252.4269 1050.9530
v  -31.6807 252.4269 833.2097
v  -31.6806 -0.0000 833.2097
v  -31.6807 -0.0000 1050.9530
v  46.9221 731.7427 1124.1725
v  46.9220 731.7427 1317.7668
v  -31.6806 1234.2367 1142.5007
v  -31.6807 1041.2124 1142.5007
v  -31.6807 1041.2123 1314.1588
v  -31.6807 1234.2366 1314.1587
v  -0.0001 758.4830 1571.5499
v  -0.0000 758.4830 1442.8669
v  -0.0000 1041.2124 1442.8669
v  -0.0000 1041.2124 1571.5499
v  -0.0000 1234.2365 1571.5499
v  -0.0000 1234.2366 1442.8669
v  124.2956 758.4830 851.5380
v  124.2956 758.4830 1032.6246
v  12.2392 1234.2367 1142.5007
v  12.2392 1234.2366 1336.0952
v  205.2637 1234.2366 1336.0952
v  205.2637 1234.2367 1142.5007
v  12.2392 758.4830 1336.0952
v  12.2392 860.2084 1336.0952
v  12.2392 860.2085 1142.5007
v  12.2392 758.4830 1142.5007
v  -0.0000 949.8054 1442.8669
v  -0.0000 949.8054 1571.5499
v  46.9221 785.2234 1050.9530
v  46.9221 860.2085 1050.9530
v  46.9221 860.2085 833.2097
v  46.9221 785.2234 833.2097
v  12.2392 758.4830 1442.8669
v  12.2392 1234.2367 1442.8669
v  205.2637 1234.2367 1442.8669
v  12.2392 1041.2124 1442.8669
v  12.2392 1041.2123 1336.0952
v  12.2392 949.8054 1336.0952
v  12.2392 949.8054 1442.8669
v  46.9221 860.2085 1124.1725
v  14.7085 758.4830 1593.1997
v  205.2637 758.4830 1593.1998
v  205.2637 860.2084 1593.1998
v  14.7085 860.2084 1593.1997
v  14.7085 1234.2365 1593.1997
v  14.7086 1041.2124 1593.1997
v  205.2637 1041.2124 1593.1998
v  205.2637 1234.2365 1593.1998
v  -0.0000 860.2085 1571.5499
v  12.2392 949.8054 1142.5007
v  -0.0000 860.2085 1442.8669
v  12.2392 860.2085 1442.8669
v  205.2637 949.8054 1593.1998
v  14.7085 949.8054 1593.1997
v  12.2392 860.2085 1050.9530
v  12.2392 860.2085 833.2097
v  12.2392 949.8054 1050.9530
v  12.2392 949.8054 833.2097
v  -31.6806 1041.2124 833.2097
v  -31.6806 1041.2124 1050.9530
v  -31.6806 1234.2367 1050.9530
v  -31.6806 1234.2367 833.2097
v  12.2393 1234.2367 833.2097
v  12.2392 1234.2367 1050.9530
v  205.2637 1234.2367 1050.9530
v  205.2638 1234.2367 833.2097
v  -31.6807 981.8097 1314.1588
v  -31.6807 981.8097 1142.5007
v  -31.6806 981.8097 1050.9530
v  -31.6806 981.8097 833.2097
# 286 vertices

vn -0.9684 0.1765 0.1765
vn -1.0000 0.0000 -0.0000
vn -0.8475 -0.0000 0.5308
vn -0.7945 0.4294 0.4294
vn -0.8416 0.5401 0.0000
vn -0.7856 0.4375 -0.4375
vn -0.6712 -0.6034 -0.4306
vn -0.7071 -0.7071 0.0000
vn -0.7071 0.0000 0.7071
vn -0.9497 0.0000 -0.3133
vn -0.5774 -0.5773 0.5773
vn -0.7274 -0.6429 -0.2400
vn -0.6872 0.5137 -0.5137
vn -0.7786 0.0000 -0.6275
vn -0.7786 0.0000 0.6275
vn -0.6872 0.5137 0.5137
vn 0.0000 -1.0000 -0.0000
vn -0.4421 -0.8509 -0.2838
vn -0.0000 -1.0000 -0.0000
vn -0.9485 0.1967 0.2484
vn -0.9422 0.2369 0.2369
vn -0.7071 0.7071 -0.0000
vn -0.7071 0.7071 0.0000
vn -0.9422 0.2369 -0.2369
vn -0.8474 0.0000 0.5309
vn -0.3015 -0.9045 0.3015
vn -0.9665 0.1815 -0.1815
vn -0.6748 0.6049 0.4228
vn -0.0000 -0.0000 -1.0000
vn -0.0000 0.0000 -1.0000
vn -0.4500 0.0000 -0.8930
vn -0.4500 -0.0000 -0.8930
vn -0.0000 -0.7071 -0.7071
vn -0.3536 -0.6185 -0.7018
vn -0.8416 0.5401 -0.0000
vn -0.7071 -0.7071 -0.0000
vn -0.9684 -0.1765 0.1765
vn -0.7945 -0.4294 0.4294
vn -0.6712 0.6034 -0.4306
vn -0.8416 0.0000 -0.5401
vn -1.0000 0.0000 0.0000
vn -0.5774 0.5773 0.5773
vn -0.7274 0.6429 -0.2400
vn -0.9497 -0.0000 -0.3133
vn -0.6872 -0.5137 -0.5137
vn -0.6872 -0.5137 0.5137
vn 0.0000 1.0000 -0.0000
vn 0.0000 1.0000 0.0000
vn -0.4421 0.8509 -0.2838
vn -0.9485 -0.1967 0.2484
vn -0.9422 -0.2369 0.2369
vn -0.9422 -0.2369 -0.2369
vn -0.3015 0.9045 0.3015
vn -0.9665 -0.1815 -0.1815
vn -0.6748 -0.6049 0.4228
vn -0.3536 0.6185 -0.7018
vn -0.0000 0.7071 -0.7071
vn -0.8416 -0.5401 0.0000
vn -0.8416 -0.5401 -0.0000
vn -0.7856 -0.4375 -0.4375
vn -0.9684 0.1765 -0.1765
vn -0.7945 0.4294 -0.4294
vn -0.8475 -0.0000 -0.5308
vn -0.6712 -0.6034 0.4306
vn -0.7856 0.4375 0.4375
vn -0.7071 0.0000 -0.7071
vn -0.9497 0.0000 0.3133
vn -0.5774 -0.5773 -0.5773
vn -0.7274 -0.6429 0.2400
vn -0.4421 -0.8509 0.2838
vn -0.9485 0.1967 -0.2484
vn -0.8474 0.0000 -0.5309
vn -0.3015 -0.9045 -0.3015
vn -0.9665 0.1815 0.1815
vn -0.6748 0.6049 -0.4228
vn -0.0000 -0.0000 1.0000
vn -0.4500 -0.0000 0.8930
vn -0.4500 0.0000 0.8930
vn -0.0000 0.0000 1.0000
vn -0.0000 -0.7071 0.7071
vn -0.3536 -0.6185 0.7018
vn -0.9684 -0.1765 -0.1765
vn -0.7945 -0.4294 -0.4294
vn -0.8416 0.0000 0.5401
vn -0.6712 0.6034 0.4306
vn -0.9497 -0.0000 0.3133
vn -0.7274 0.6429 0.2400
vn -0.5774 0.5773 -0.5773
vn -0.4421 0.8509 0.2838
vn -0.9485 -0.1967 -0.2484
vn -0.3015 0.9045 -0.3015
vn -0.9665 -0.1815 0.1815
vn -0.6748 -0.6049 -0.4228
vn -0.3536 0.6185 0.7018
vn -0.0000 0.7071 0.7071
vn -0.7856 -0.4375 0.4375
# 96 vertex normals

vt 0.6486 0.5833 0.0000
vt 0.6486 0.4833 0.0000
vt 0.7500 0.4833 0.0000
vt 0.7500 0.5833 0.0000
vt 0.5550 -0.1283 0.0000
vt 0.6564 0.2050 0.0000
vt 0.3695 1.6667 0.0000
vt 0.9528 1.8333 0.0000
vt 0.8333 0.5833 0.0000
vt 0.8333 0.4833 0.0000
vt 0.9792 0.4833 0.0000
vt 0.9792 0.5833 0.0000
vt 0.8333 1.0000 0.0000
vt 0.8333 0.6995 0.0000
vt 0.9792 0.6995 0.0000
vt 0.9792 1.0000 0.0000
vt 0.5236 0.5833 0.0000
vt 0.5236 0.4833 0.0000
vt 0.6014 0.4833 0.0000
vt 0.6014 0.5833 0.0000
vt 0.6486 0.0000 0.0000
vt 0.7500 0.0000 0.0000
vt 0.7500 1.0000 0.0000
vt 0.6486 1.0000 0.0000
vt 0.7500 0.6500 0.0000
vt 0.6486 0.6500 0.0000
vt 0.6014 0.6500 0.0000
vt 0.5236 0.6500 0.0000
vt 0.8333 0.0000 0.0000
vt 0.7500 0.6995 0.0000
vt 0.5000 0.5833 0.0000
vt 0.5000 0.4833 0.0000
vt 0.4167 1.0000 0.0000
vt 0.3500 1.0000 0.0000
vt 0.3500 0.0128 0.0000
vt 0.4167 0.0128 0.0000
vt -0.0252 1.0000 0.0000
vt -0.0252 0.0128 0.0000
vt 0.3005 0.0128 0.0000
vt 0.3005 1.0000 0.0000
vt 0.9792 0.1667 0.0000
vt 0.8333 0.3333 0.0000
vt 0.6014 0.9167 0.0000
vt 0.5960 0.0000 0.0000
vt 0.5519 0.9167 0.0000
vt 0.5059 0.0208 0.0000
vt 0.4167 0.0129 0.0000
vt 0.3500 0.0129 0.0000
vt 0.3005 0.0129 0.0000
vt 0.1434 0.0128 0.0000
vt 0.1434 0.0129 0.0000
vt 0.6486 0.6995 0.0000
vt 0.8333 0.6500 0.0000
vt 0.9792 0.6500 0.0000
vt 0.5332 0.5753 0.0000
vt 0.5167 1.0000 0.0000
vt 0.5167 0.0128 0.0000
vt 0.5167 0.0129 0.0000
vt 0.7500 0.8566 0.0000
vt 0.7500 0.7500 0.0000
vt 0.6486 0.7500 0.0000
vt 0.8333 0.7500 0.0000
vt 0.9792 0.7500 0.0000
vt 0.2500 1.0000 0.0000
vt 0.2500 0.0128 0.0000
vt 0.0000 -0.0142 0.0000
vt 0.0000 0.0128 0.0000
vt 0.2500 -0.0142 0.0000
vt 0.2500 0.0129 0.0000
# 69 texture coords

o level_wall_basic
g level_wall_basic
f 1/1/1 2/2/2 3/3/3 4/4/4 
f 5/5/5 6/6/6 7/7/7 8/8/8 
f 9/9/9 10/10/9 11/11/10 12/12/10 
f 13/13/11 14/14/9 15/15/10 16/16/12 
f 17/17/13 18/18/14 19/19/15 20/20/16 
f 21/21/17 22/22/18 23/23/19 24/24/19 
f 25/4/1 26/25/2 27/26/20 28/1/4 
f 29/20/21 30/27/22 31/28/23 32/17/24 
f 33/9/9 25/4/1 34/3/25 35/10/9 
f 36/13/19 23/23/19 22/22/18 37/29/26 
f 37/13/26 22/23/18 38/30/27 39/14/9 
f 32/17/24 40/31/2 41/32/2 42/18/14 
f 1/1/1 29/20/21 43/19/15 2/2/2 
f 25/4/1 28/1/4 1/1/1 4/4/4 
f 28/1/4 27/26/20 44/26/28 1/1/1 
f 17/17/13 20/20/16 29/20/21 32/17/24 
f 20/20/16 19/19/15 43/19/15 29/20/21 
f 45/33/29 46/34/30 47/35/31 48/36/32 
f 49/37/33 50/38/34 51/39/31 52/40/30 
f 37/13/26 39/14/9 14/14/9 13/13/11 
f 33/9/9 35/10/9 10/10/9 9/9/9 
f 49/41/33 36/42/19 37/43/26 50/44/34 
f 37/43/26 13/45/11 16/46/12 50/44/34 
f 12/47/10 48/36/32 47/35/31 53/48/10 
f 15/49/10 51/39/31 50/50/34 16/51/12 
f 26/25/2 38/30/27 54/52/5 27/26/20 
f 55/53/9 9/9/9 12/12/10 53/54/10 
f 26/25/2 25/4/1 33/9/9 56/53/9 
f 57/55/22 40/31/2 32/17/24 31/28/23 
f 30/27/22 29/20/21 1/1/1 44/26/28 
f 46/34/30 52/40/30 51/39/31 47/35/31 
f 56/53/9 33/9/9 9/9/9 55/53/9 
f 47/35/31 51/39/31 15/49/10 53/48/10 
f 34/3/25 25/4/1 4/4/4 3/3/3 
f 18/18/14 17/17/13 32/17/24 42/18/14 
f 58/56/29 45/33/29 48/36/32 59/57/31 
f 59/57/31 48/36/32 12/47/10 11/58/10 
f 31/28/23 30/27/22 60/27/23 61/28/23 
f 57/55/22 31/28/23 61/28/23 62/55/22 
f 30/27/22 44/26/28 27/26/20 60/27/23 
f 61/28/23 60/27/23 63/27/5 64/28/35 
f 62/55/22 61/28/23 64/28/35 65/55/35 
f 60/27/23 27/26/20 54/26/5 63/27/5 
f 66/28/17 67/27/17 68/27/19 69/28/19 
f 70/55/19 66/28/17 69/28/19 71/55/19 
f 67/27/17 21/26/17 24/26/19 68/27/19 
f 14/14/9 55/53/9 53/54/10 15/15/10 
f 38/30/27 26/25/2 56/53/9 39/14/9 
f 39/14/9 56/53/9 55/53/9 14/14/9 
f 72/27/5 73/27/8 74/28/8 75/28/35 
f 75/28/35 74/28/8 76/55/36 77/55/35 
f 5/26/5 8/26/8 73/27/8 72/27/5 
f 22/23/18 21/24/17 8/24/8 7/23/7 
f 21/26/17 67/27/17 73/27/8 8/26/8 
f 67/27/17 66/28/17 74/28/8 73/27/8 
f 66/28/17 70/55/19 76/55/36 74/28/8 
f 65/55/35 64/28/35 75/28/35 77/55/35 
f 64/28/35 63/27/5 72/27/5 75/28/35 
f 63/27/5 54/26/5 5/26/5 72/27/5 
f 54/52/5 38/30/27 6/30/6 5/52/5 
f 38/30/27 22/59/18 7/59/7 6/30/6 
f 78/1/37 79/4/38 3/3/3 2/2/2 
f 80/24/22 81/23/39 82/60/40 83/61/41 
f 84/12/10 11/11/10 10/10/9 85/9/9 
f 86/62/9 87/13/42 88/16/43 89/63/44 
f 90/17/45 91/20/46 19/19/15 18/18/14 
f 92/21/47 93/24/47 94/23/48 95/22/49 
f 96/4/37 97/1/38 98/26/50 99/25/2 
f 89/63/44 100/15/10 101/14/9 86/62/9 
f 102/20/51 103/17/52 104/28/36 105/27/36 
f 106/9/9 35/10/9 34/3/25 96/4/37 
f 107/29/53 95/22/49 94/23/48 108/13/47 
f 109/62/9 110/60/40 95/23/49 107/13/53 
f 109/62/9 111/14/9 112/30/54 110/60/40 
f 103/17/52 42/18/14 41/32/2 113/31/2 
f 78/1/37 2/2/2 43/19/15 102/20/51 
f 96/4/37 79/4/38 78/1/37 97/1/38 
f 97/1/38 78/1/37 114/26/55 98/26/50 
f 90/17/45 103/17/52 102/20/51 91/20/46 
f 91/20/46 102/20/51 43/19/15 19/19/15 
f 115/36/31 116/35/31 117/34/30 118/33/30 
f 119/38/56 120/37/57 121/64/29 122/65/31 
f 107/13/53 87/13/42 86/62/9 109/62/9 
f 109/62/9 86/62/9 101/14/9 111/14/9 
f 106/9/9 85/9/9 10/10/9 35/10/9 
f 119/44/56 107/43/53 108/42/47 120/41/57 
f 119/44/56 88/46/43 87/45/42 107/43/53 
f 84/47/10 123/48/10 116/35/31 115/36/31 
f 88/66/43 119/67/56 122/65/31 89/68/44 
f 99/25/2 98/26/50 124/52/58 112/30/54 
f 125/53/9 123/54/10 84/12/10 85/9/9 
f 99/25/2 126/53/9 106/9/9 96/4/37 
f 127/55/36 104/28/36 103/17/52 113/31/2 
f 105/27/36 114/26/55 78/1/37 102/20/51 
f 116/35/31 128/39/31 129/40/30 117/34/30 
f 126/53/9 125/53/9 85/9/9 106/9/9 
f 116/35/31 123/48/10 100/49/10 128/39/31 
f 34/3/25 3/3/3 79/4/38 96/4/37 
f 18/18/14 42/18/14 103/17/52 90/17/45 
f 59/57/31 115/36/31 118/33/30 58/56/29 
f 59/57/31 11/58/10 84/47/10 115/36/31 
f 104/28/36 130/28/36 131/27/8 105/27/36 
f 127/55/36 132/55/36 130/28/36 104/28/36 
f 105/27/36 131/27/8 98/26/50 114/26/55 
f 130/28/36 133/28/59 134/27/58 131/27/8 
f 132/55/36 135/55/59 133/28/59 130/28/36 
f 131/27/8 134/27/58 124/26/58 98/26/50 
f 136/28/2 137/28/22 138/27/23 139/27/41 
f 140/55/2 141/55/22 137/28/22 136/28/2 
f 139/27/41 138/27/23 80/26/22 83/26/41 
f 142/28/48 143/28/48 144/27/48 145/27/48 
f 146/55/48 147/55/48 143/28/48 142/28/48 
f 145/27/48 144/27/48 93/26/47 92/26/47 
f 101/14/9 100/15/10 123/54/10 125/53/9 
f 112/30/54 111/14/9 126/53/9 99/25/2 
f 111/14/9 101/14/9 125/53/9 126/53/9 
f 148/30/60 149/52/58 83/61/41 82/60/40 
f 128/39/31 122/65/31 121/64/29 129/40/30 
f 128/39/31 100/49/10 89/69/44 122/65/31 
f 150/27/58 151/28/59 136/28/2 139/27/41 
f 151/28/59 152/55/59 140/55/2 136/28/2 
f 149/26/58 150/27/58 139/27/41 83/26/41 
f 95/23/49 81/23/39 80/24/22 92/24/47 
f 92/26/47 80/26/22 138/27/23 145/27/48 
f 145/27/48 138/27/23 137/28/22 142/28/48 
f 142/28/48 137/28/22 141/55/22 146/55/48 
f 135/55/59 152/55/59 151/28/59 133/28/59 
f 133/28/59 151/28/59 150/27/58 134/27/58 
f 134/27/58 150/27/58 149/26/58 124/26/58 
f 124/52/58 149/52/58 148/30/60 112/30/54 
f 112/30/54 148/30/60 82/60/40 110/60/40 
f 110/60/40 82/60/40 81/23/39 95/23/49 
f 153/1/61 154/4/62 155/3/63 156/2/2 
f 157/5/35 158/8/36 159/7/64 160/6/65 
f 161/9/66 162/12/67 163/11/67 164/10/66 
f 165/13/68 166/16/69 167/15/67 168/14/66 
f 169/17/16 170/20/13 171/19/14 172/18/15 
f 173/21/19 174/24/19 175/23/19 176/22/70 
f 177/4/61 178/1/62 179/26/71 180/25/2 
f 181/20/24 182/17/21 183/28/22 184/27/22 
f 185/9/66 186/10/66 187/3/72 177/4/61 
f 188/13/19 189/29/73 176/22/70 175/23/19 
f 189/13/73 190/14/66 191/30/74 176/23/70 
f 182/17/21 192/18/15 41/32/2 40/31/2 
f 153/1/61 156/2/2 193/19/14 181/20/24 
f 177/4/61 154/4/62 153/1/61 178/1/62 
f 178/1/62 153/1/61 194/26/75 179/26/71 
f 169/17/16 182/17/21 181/20/24 170/20/13 
f 170/20/13 181/20/24 193/19/14 171/19/14 
f 195/33/76 196/36/77 197/35/78 198/34/79 
f 199/37/80 200/40/79 201/39/78 202/38/81 
f 189/13/73 165/13/68 168/14/66 190/14/66 
f 185/9/66 161/9/66 164/10/66 186/10/66 
f 199/41/80 202/44/81 189/43/73 188/42/19 
f 189/43/73 202/44/81 166/46/69 165/45/68 
f 162/47/67 203/48/67 197/35/78 196/36/77 
f 167/49/67 166/51/69 202/50/81 201/39/78 
f 180/25/2 179/26/71 204/52/35 191/30/74 
f 205/53/66 203/54/67 162/12/67 161/9/66 
f 180/25/2 206/53/66 185/9/66 177/4/61 
f 57/55/22 183/28/22 182/17/21 40/31/2 
f 184/27/22 194/26/75 153/1/61 181/20/24 
f 198/34/79 197/35/78 201/39/78 200/40/79 
f 206/53/66 205/53/66 161/9/66 185/9/66 
f 197/35/78 203/48/67 167/49/67 201/39/78 
f 187/3/72 155/3/63 154/4/62 177/4/61 
f 172/18/15 192/18/15 182/17/21 169/17/16 
f 207/56/76 208/57/78 196/36/77 195/33/76 
f 208/57/78 163/58/67 162/47/67 196/36/77 
f 183/28/22 209/28/22 210/27/22 184/27/22 
f 57/55/22 62/55/22 209/28/22 183/28/22 
f 184/27/22 210/27/22 179/26/71 194/26/75 
f 209/28/22 211/28/35 212/27/35 210/27/22 
f 62/55/22 65/55/35 211/28/35 209/28/22 
f 210/27/22 212/27/35 204/26/35 179/26/71 
f 213/28/19 214/28/19 215/27/19 216/27/19 
f 70/55/19 71/55/19 214/28/19 213/28/19 
f 216/27/19 215/27/19 174/26/19 173/26/19 
f 168/14/66 167/15/67 203/54/67 205/53/66 
f 191/30/74 190/14/66 206/53/66 180/25/2 
f 190/14/66 168/14/66 205/53/66 206/53/66 
f 217/27/35 218/28/35 219/28/36 220/27/36 
f 218/28/35 77/55/35 76/55/36 219/28/36 
f 157/26/35 217/27/35 220/27/36 158/26/36 
f 176/23/70 159/23/64 158/24/36 173/24/19 
f 173/26/19 158/26/36 220/27/36 216/27/19 
f 216/27/19 220/27/36 219/28/36 213/28/19 
f 213/28/19 219/28/36 76/55/36 70/55/19 
f 65/55/35 77/55/35 218/28/35 211/28/35 
f 211/28/35 218/28/35 217/27/35 212/27/35 
f 212/27/35 217/27/35 157/26/35 204/26/35 
f 204/52/35 157/52/35 160/30/65 191/30/74 
f 191/30/74 160/30/65 159/59/64 176/59/70 
f 221/1/82 156/2/2 155/3/63 222/4/83 
f 223/24/22 224/61/2 225/60/84 226/23/85 
f 227/12/67 228/9/66 164/10/66 163/11/67 
f 229/62/66 230/63/86 231/16/87 232/13/88 
f 233/17/46 172/18/15 171/19/14 234/20/45 
f 235/21/48 236/22/89 237/23/47 238/24/48 
f 239/4/82 240/25/2 241/26/90 242/1/83 
f 230/63/86 229/62/66 243/14/66 244/15/67 
f 245/20/52 246/27/36 247/28/36 248/17/51 
f 249/9/66 239/4/82 187/3/72 186/10/66 
f 250/29/91 251/13/48 237/23/47 236/22/89 
f 252/62/66 250/13/91 236/23/89 253/60/84 
f 252/62/66 253/60/84 254/30/92 255/14/66 
f 248/17/51 113/31/2 41/32/2 192/18/15 
f 221/1/82 245/20/52 193/19/14 156/2/2 
f 239/4/82 242/1/83 221/1/82 222/4/83 
f 242/1/83 241/26/90 256/26/93 221/1/82 
f 233/17/46 234/20/45 245/20/52 248/17/51 
f 234/20/45 171/19/14 193/19/14 245/20/52 
f 257/36/78 258/33/79 259/34/79 260/35/78 
f 261/38/94 262/65/78 263/64/76 264/37/95 
f 250/13/91 252/62/66 229/62/66 232/13/88 
f 252/62/66 255/14/66 243/14/66 229/62/66 
f 249/9/66 186/10/66 164/10/66 228/9/66 
f 261/44/94 264/41/95 251/42/48 250/43/91 
f 261/44/94 250/43/91 232/45/88 231/46/87 
f 227/47/67 257/36/78 260/35/78 265/48/67 
f 231/66/87 230/68/86 262/65/78 261/67/94 
f 240/25/2 254/30/92 266/52/59 241/26/90 
f 267/53/66 228/9/66 227/12/67 265/54/67 
f 240/25/2 239/4/82 249/9/66 268/53/66 
f 127/55/36 113/31/2 248/17/51 247/28/36 
f 246/27/36 245/20/52 221/1/82 256/26/93 
f 260/35/78 259/34/79 269/40/79 270/39/78 
f 268/53/66 249/9/66 228/9/66 267/53/66 
f 260/35/78 270/39/78 244/49/67 265/48/67 
f 187/3/72 239/4/82 222/4/83 155/3/63 
f 172/18/15 233/17/46 248/17/51 192/18/15 
f 208/57/78 207/56/76 258/33/79 257/36/78 
f 208/57/78 257/36/78 227/47/67 163/58/67 
f 247/28/36 246/27/36 271/27/36 272/28/36 
f 127/55/36 247/28/36 272/28/36 132/55/36 
f 246/27/36 256/26/93 241/26/90 271/27/36 
f 272/28/36 271/27/36 273/27/59 274/28/59 
f 132/55/36 272/28/36 274/28/59 135/55/59 
f 271/27/36 241/26/90 266/26/59 273/27/59 
f 275/28/2 276/27/2 277/27/22 278/28/22 
f 140/55/2 275/28/2 278/28/22 141/55/22 
f 276/27/2 224/26/2 223/26/22 277/27/22 
f 279/28/48 280/27/48 281/27/48 282/28/48 
f 146/55/48 279/28/48 282/28/48 147/55/48 
f 280/27/48 235/26/48 238/26/48 281/27/48 
f 243/14/66 267/53/66 265/54/67 244/15/67 
f 254/30/92 240/25/2 268/53/66 255/14/66 
f 255/14/66 268/53/66 267/53/66 243/14/66 
f 283/30/96 225/60/84 224/61/2 284/52/59 
f 270/39/78 269/40/79 263/64/76 262/65/78 
f 270/39/78 262/65/78 230/69/86 244/49/67 
f 285/27/59 276/27/2 275/28/2 286/28/59 
f 286/28/59 275/28/2 140/55/2 152/55/59 
f 284/26/59 224/26/2 276/27/2 285/27/59 
f 236/23/89 235/24/48 223/24/22 226/23/85 
f 235/26/48 280/27/48 277/27/22 223/26/22 
f 280/27/48 279/28/48 278/28/22 277/27/22 
f 279/28/48 146/55/48 141/55/22 278/28/22 
f 135/55/59 274/28/59 286/28/59 152/55/59 
f 274/28/59 273/27/59 285/27/59 286/28/59 
f 273/27/59 266/26/59 284/26/59 285/27/59 
f 266/52/59 254/30/92 283/30/96 284/52/59 
f 254/30/92 253/60/84 225/60/84 283/30/96 
f 253/60/84 236/23/89 226/23/85 225/60/84 
# 264 polygons

