# 3ds Max Wavefront OBJ Exporter v0.97b - (c)2007 guruware
# File Created: 16.11.2019 17:47:33

#
# object level_floor_endcap
#

v  -2.2303 0.1111 4.1595
v  -2.2303 0.1111 6.1787
v  -3.4374 0.1111 6.1787
v  -3.4374 0.1111 4.1595
v  -2.2303 0.1111 8.3189
v  -3.4374 0.1111 8.3189
v  0.0000 0.7685 6.0273
v  0.0000 0.7685 4.1169
v  0.0000 1.2978 4.1169
v  0.0000 1.2978 6.0273
v  0.0000 0.7685 2.2065
v  0.0000 1.2978 2.2065
v  -0.8215 0.1918 -0.0000
v  -1.4362 0.1918 -0.0000
v  -1.4362 0.7258 -0.0000
v  -0.8215 0.7258 -0.0000
v  -1.4362 1.3405 -0.0000
v  -0.8215 1.3405 -0.0000
v  -1.4362 1.8745 -0.0000
v  -0.8215 1.8745 -0.0000
v  -1.4362 0.0000 0.2091
v  -0.8215 0.0000 0.2091
v  -0.8215 0.0000 2.1403
v  -1.4362 0.0000 2.1403
v  -0.8215 0.0000 4.1595
v  -1.4362 0.0000 4.1595
v  -0.8215 0.0000 6.1787
v  -1.4362 0.0000 6.1787
v  -0.8215 0.0000 8.3189
v  -1.4362 0.0000 8.3189
v  -1.4362 2.0663 2.1403
v  -0.8215 2.0663 2.1403
v  -0.8215 2.0663 0.2091
v  -1.4362 2.0663 0.2091
v  -1.4362 2.0663 4.1595
v  -0.8215 2.0663 4.1595
v  -1.4362 2.0663 6.1787
v  -0.8215 2.0663 6.1787
v  -1.4362 2.0663 8.3189
v  -0.8215 2.0663 8.3189
v  -2.0509 0.1918 -0.0000
v  -2.0509 0.7258 -0.0000
v  -0.2068 0.7258 -0.0000
v  -0.2068 0.1918 -0.0000
v  -2.0509 1.3405 -0.0000
v  -0.2068 1.3405 -0.0000
v  -2.0509 1.8745 -0.0000
v  -0.2068 1.8745 -0.0000
v  -0.2068 0.0000 0.2091
v  -0.2068 0.0000 2.1403
v  -2.0509 0.0000 2.1403
v  -2.0509 0.0000 0.2091
v  -0.2068 0.0000 4.1595
v  -2.0509 0.0000 4.1595
v  -0.2068 0.0000 6.1787
v  -2.0509 0.0000 6.1787
v  -0.2068 0.0000 8.3189
v  -2.0509 0.0000 8.3189
v  -0.2068 2.0663 2.1403
v  -0.2068 2.0663 0.2091
v  -2.0509 2.0663 0.2091
v  -2.0509 2.0663 2.1403
v  -0.2068 2.0663 4.1595
v  -2.0509 2.0663 4.1595
v  -0.2068 2.0663 6.1787
v  -2.0509 2.0663 6.1787
v  -0.2068 2.0663 8.3189
v  -2.0509 2.0663 8.3189
v  0.0000 0.1435 4.1169
v  0.0000 0.1435 2.2065
v  0.0000 0.1435 6.0273
v  0.0000 0.1435 8.3189
v  0.0000 0.7685 8.3189
v  0.0000 1.2978 8.3189
v  0.0000 1.9229 6.0273
v  0.0000 1.9229 8.3189
v  0.0000 1.9229 4.1169
v  0.0000 1.9229 2.2065
v  0.0000 1.7577 0.1816
v  0.0000 1.9229 0.3794
v  0.0000 1.2978 0.3794
v  0.0000 1.2978 0.1816
v  0.0000 0.7685 0.3794
v  0.0000 0.7685 0.1816
v  0.0000 0.1435 0.3794
v  0.0000 0.3087 0.1816
v  -2.2303 0.1111 2.1403
v  -2.2303 0.1111 0.3302
v  -2.2303 0.3030 0.1211
v  -2.2303 0.7258 0.1211
v  -2.2303 1.3405 0.1211
v  -2.2303 1.7634 0.1211
v  -2.2303 1.9552 0.3302
v  -2.2303 1.9552 2.1403
v  -2.2303 1.9552 4.1595
v  -2.2303 1.9552 6.1787
v  -2.2303 1.9552 8.3189
v  -4.6446 0.1111 0.3302
v  -4.6446 0.3030 0.1211
v  -3.4374 0.3030 0.1211
v  -3.4374 0.1111 0.3302
v  -3.4374 1.7634 0.1211
v  -3.4374 1.9552 0.3302
v  -3.4374 0.1111 2.1403
v  -4.6446 1.9552 0.3302
v  -4.6446 1.9552 2.1403
v  -3.4374 1.9552 2.1403
v  -4.6446 1.9552 4.1595
v  -3.4374 1.9552 4.1595
v  -4.6446 1.9552 6.1787
v  -3.4374 1.9552 6.1787
v  -4.6446 1.9552 8.3189
v  -3.4374 1.9552 8.3189
v  -6.8749 0.7685 6.0273
v  -6.8749 1.2978 6.0273
v  -6.8749 1.2978 4.1169
v  -6.8749 0.7685 4.1169
v  -6.8749 1.2978 2.2065
v  -6.8749 0.7685 2.2065
v  -6.0533 0.1918 -0.0000
v  -6.0533 0.7258 -0.0000
v  -5.4386 0.7258 -0.0000
v  -5.4386 0.1918 -0.0000
v  -6.0533 1.3405 -0.0000
v  -5.4386 1.3405 -0.0000
v  -6.0533 1.8745 -0.0000
v  -5.4386 1.8745 -0.0000
v  -5.4386 0.0000 0.2091
v  -5.4386 0.0000 2.1403
v  -6.0533 0.0000 2.1403
v  -6.0533 0.0000 0.2091
v  -5.4386 0.0000 4.1595
v  -6.0533 0.0000 4.1595
v  -5.4386 0.0000 6.1787
v  -6.0533 0.0000 6.1787
v  -5.4386 0.0000 8.3189
v  -6.0533 0.0000 8.3189
v  -5.4386 2.0663 2.1403
v  -5.4386 2.0663 0.2091
v  -6.0533 2.0663 0.2091
v  -6.0533 2.0663 2.1403
v  -5.4386 2.0663 4.1595
v  -6.0533 2.0663 4.1595
v  -5.4386 2.0663 6.1787
v  -6.0533 2.0663 6.1787
v  -5.4386 2.0663 8.3189
v  -6.0533 2.0663 8.3189
v  -4.6446 0.7258 0.1211
v  -3.4374 0.7258 0.1211
v  -4.6446 1.3405 0.1211
v  -3.4374 1.3405 0.1211
v  -4.6446 1.7634 0.1211
v  -4.8239 0.7258 -0.0000
v  -4.8239 0.1918 -0.0000
v  -6.6680 0.1918 -0.0000
v  -6.6680 0.7258 -0.0000
v  -4.8239 1.3405 -0.0000
v  -6.6680 1.3405 -0.0000
v  -4.8239 1.8745 -0.0000
v  -6.6680 1.8745 -0.0000
v  -6.6680 0.0000 2.1403
v  -6.6680 0.0000 0.2091
v  -4.8239 0.0000 0.2091
v  -4.8239 0.0000 2.1403
v  -6.6680 0.0000 4.1595
v  -4.8239 0.0000 4.1595
v  -6.6680 0.0000 6.1787
v  -4.8239 0.0000 6.1787
v  -6.6680 0.0000 8.3189
v  -4.8239 0.0000 8.3189
v  -6.6680 2.0663 0.2091
v  -6.6680 2.0663 2.1403
v  -4.8239 2.0663 2.1403
v  -4.8239 2.0663 0.2091
v  -6.6680 2.0663 4.1595
v  -4.8239 2.0663 4.1595
v  -6.6680 2.0663 6.1787
v  -4.8239 2.0663 6.1787
v  -6.6680 2.0663 8.3189
v  -4.8239 2.0663 8.3189
v  -6.8749 0.1435 2.2065
v  -6.8749 0.1435 4.1169
v  -6.8749 0.1435 6.0273
v  -6.8749 0.1435 8.3189
v  -6.8749 0.7685 8.3189
v  -6.8749 1.2978 8.3189
v  -6.8749 1.9229 8.3189
v  -6.8749 1.9229 6.0273
v  -6.8749 1.9229 4.1169
v  -6.8749 1.9229 2.2065
v  -6.8749 1.7577 0.1816
v  -6.8749 1.2978 0.1816
v  -6.8749 1.2978 0.3794
v  -6.8749 1.9229 0.3794
v  -6.8749 0.7685 0.3794
v  -6.8749 0.7685 0.1816
v  -6.8749 0.1435 0.3794
v  -6.8749 0.3087 0.1816
v  -4.6446 0.1111 2.1403
v  -4.6446 0.1111 8.3189
v  -4.6446 0.1111 6.1787
v  -4.6446 0.1111 4.1595
# 202 vertices

vn -0.3792 -0.9253 -0.0000
vn 0.0000 -1.0000 -0.0000
vn 1.0000 0.0000 0.0000
vn 0.0000 -0.3827 -0.9239
vn 0.0000 0.0000 -1.0000
vn 0.0000 0.3827 -0.9239
vn 0.0000 -0.9239 -0.3827
vn 0.0000 1.0000 -0.0000
vn 0.0000 0.9239 -0.3827
vn -0.4065 -0.3667 -0.8368
vn -0.3792 0.0000 -0.9253
vn 0.4385 0.0000 -0.8987
vn 0.4339 -0.3538 -0.8286
vn -0.4065 0.3667 -0.8368
vn 0.4339 0.3538 -0.8286
vn 0.4324 -0.8253 -0.3632
vn 0.4051 -0.9143 0.0000
vn -0.4065 -0.8368 -0.3667
vn 0.4051 0.9143 0.0000
vn 0.4324 0.8253 -0.3632
vn -0.4065 0.8368 -0.3667
vn -0.3792 0.9253 -0.0000
vn 0.9330 -0.3600 0.0000
vn 0.9330 0.3600 0.0000
vn 0.9351 0.1229 -0.3325
vn 0.9273 0.3629 -0.0915
vn 0.9456 0.0000 -0.3254
vn 0.9273 -0.3629 -0.0915
vn 0.9351 -0.1229 -0.3325
vn -0.4757 -0.8276 -0.2979
vn -0.4758 -0.2980 -0.8276
vn -0.4758 0.2979 -0.8276
vn -0.4758 0.8276 -0.2979
vn 0.4758 -0.8276 -0.2979
vn 0.4758 -0.2979 -0.8276
vn -0.0000 -0.9239 -0.3827
vn -0.0000 0.9239 -0.3827
vn 0.4758 0.8276 -0.2979
vn 0.3792 0.9253 0.0000
vn 0.3792 0.9253 -0.0000
vn -1.0000 0.0000 -0.0000
vn 0.0000 -0.3826 -0.9239
vn 0.0000 -0.9239 -0.3826
vn 0.3792 0.0000 -0.9253
vn 0.4758 0.2979 -0.8276
vn 0.4065 -0.3667 -0.8368
vn -0.4340 -0.3537 -0.8286
vn -0.4385 0.0000 -0.8987
vn 0.4065 0.3667 -0.8368
vn -0.4339 0.3538 -0.8286
vn -0.4051 -0.9143 -0.0000
vn -0.4325 -0.8253 -0.3631
vn 0.4065 -0.8368 -0.3667
vn 0.3792 -0.9253 0.0000
vn -0.4324 0.8253 -0.3632
vn -0.4051 0.9143 -0.0000
vn 0.4065 0.8368 -0.3667
vn -0.9330 -0.3600 -0.0000
vn -0.9330 0.3600 -0.0000
vn -0.9351 0.1229 -0.3325
vn -0.9456 0.0000 -0.3254
vn -0.9273 0.3629 -0.0915
vn -0.9273 -0.3629 -0.0915
vn -0.9351 -0.1229 -0.3325
vn 0.3792 -0.9253 -0.0000
# 65 vertex normals

vt 0.5000 0.8750 0.0000
vt 0.2500 0.8750 0.0000
vt 0.0000 0.8750 0.0000
vt 0.2500 0.3333 0.0000
vt 0.5000 0.3333 0.0000
vt 0.5000 0.6667 0.0000
vt 0.2500 0.6667 0.0000
vt 0.7500 0.3333 0.0000
vt 0.7500 0.6667 0.0000
vt 0.0417 0.0881 0.0000
vt 0.0833 0.0881 0.0000
vt 0.0833 0.3333 0.0000
vt 0.0417 0.3333 0.0000
vt 0.0833 0.6667 0.0000
vt 0.0417 0.6667 0.0000
vt 0.0833 0.9119 0.0000
vt 0.0417 0.9119 0.0000
vt 0.9756 0.9167 0.0000
vt 0.9756 0.9583 0.0000
vt 0.7500 0.9583 0.0000
vt 0.7500 0.9167 0.0000
vt 0.5000 0.9583 0.0000
vt 0.5000 0.9167 0.0000
vt 0.2500 0.9583 0.0000
vt 0.2500 0.9167 0.0000
vt 0.0000 0.9583 0.0000
vt 0.0000 0.9167 0.0000
vt 0.0244 0.9583 0.0000
vt 0.0244 0.9167 0.0000
vt 1.0000 0.9167 0.0000
vt 1.0000 0.9583 0.0000
vt 0.1250 0.0881 0.0000
vt 0.1250 0.3333 0.0000
vt 0.0000 0.3333 0.0000
vt 0.0000 0.0881 0.0000
vt 0.1250 0.6667 0.0000
vt 0.0000 0.6667 0.0000
vt 0.1250 0.9119 0.0000
vt 0.0000 0.9119 0.0000
vt 0.9756 1.0000 0.0000
vt 0.7500 1.0000 0.0000
vt 0.7500 0.8750 0.0000
vt 0.9756 0.8750 0.0000
vt 0.5000 1.0000 0.0000
vt 0.2500 1.0000 0.0000
vt 0.0000 1.0000 0.0000
vt 0.0244 1.0000 0.0000
vt 0.0244 0.8750 0.0000
vt 1.0000 1.0000 0.0000
vt 1.0000 0.8750 0.0000
vt 0.5000 -0.0603 0.0000
vt 0.7500 -0.0603 0.0000
vt 0.2500 -0.0603 0.0000
vt -0.0150 -0.0603 0.0000
vt -0.0150 0.3333 0.0000
vt -0.0150 0.6667 0.0000
vt 0.2500 1.0603 0.0000
vt -0.0150 1.0603 0.0000
vt 0.5000 1.0603 0.0000
vt 0.7500 1.0603 0.0000
vt 1.0150 0.9562 0.0000
vt 0.9891 1.0603 0.0000
vt 0.9891 0.6667 0.0000
vt 1.0150 0.6667 0.0000
vt 0.9891 0.3333 0.0000
vt 1.0150 0.3333 0.0000
vt 0.9891 -0.0603 0.0000
vt 1.0150 0.0438 0.0000
vt 0.9741 0.8750 0.0000
vt 0.1250 0.1040 0.0000
vt 0.1250 0.8960 0.0000
vt 0.0259 0.8750 0.0000
vt 0.1250 0.0191 0.0000
vt 0.0000 0.9895 0.0000
vt 0.0417 0.9895 0.0000
vt 0.1250 0.0105 0.0000
vt 0.0833 0.0105 0.0000
vt 0.1250 0.9809 0.0000
vt 0.0833 0.9895 0.0000
vt 0.1250 0.9895 0.0000
vt 0.0417 0.0105 0.0000
vt 0.0000 0.0105 0.0000
vt 0.1250 0.0345 0.0000
vt 0.1250 0.0326 0.0000
vt 0.0780 0.8750 0.0000
vt 0.0661 0.8750 0.0000
# 86 texture coords

o level_floor_endcap
g level_floor_endcap
f 1/1/1 2/2/1 3/2/2 4/1/2 
f 2/2/1 5/3/1 6/3/2 3/2/2 
f 7/4/3 8/5/3 9/6/3 10/7/3 
f 8/5/3 11/8/3 12/9/3 9/6/3 
f 13/10/4 14/11/4 15/12/5 16/13/5 
f 16/13/5 15/12/5 17/14/5 18/15/5 
f 18/15/5 17/14/5 19/16/6 20/17/6 
f 21/18/7 22/19/7 23/20/2 24/21/2 
f 24/21/2 23/20/2 25/22/2 26/23/2 
f 26/23/2 25/22/2 27/24/2 28/25/2 
f 28/25/2 27/24/2 29/26/2 30/27/2 
f 31/25/8 32/24/8 33/28/9 34/29/9 
f 35/23/8 36/22/8 32/24/8 31/25/8 
f 37/21/8 38/20/8 36/22/8 35/23/8 
f 39/30/8 40/31/8 38/20/8 37/21/8 
f 14/11/4 41/32/10 42/33/11 15/12/5 
f 16/13/5 43/34/12 44/35/13 13/10/4 
f 15/12/5 42/33/11 45/36/11 17/14/5 
f 18/15/5 46/37/12 43/34/12 16/13/5 
f 17/14/5 45/36/11 47/38/14 19/16/6 
f 20/17/6 48/39/15 46/37/12 18/15/5 
f 22/19/7 49/40/16 50/41/17 23/20/2 
f 24/21/2 51/42/1 52/43/18 21/18/7 
f 23/20/2 50/41/17 53/44/17 25/22/2 
f 26/23/2 54/1/1 51/42/1 24/21/2 
f 25/22/2 53/44/17 55/45/17 27/24/2 
f 28/25/2 56/2/1 54/1/1 26/23/2 
f 27/24/2 55/45/17 57/46/17 29/26/2 
f 30/27/2 58/3/1 56/2/1 28/25/2 
f 32/24/8 59/45/19 60/47/20 33/28/9 
f 34/29/9 61/48/21 62/2/22 31/25/8 
f 36/22/8 63/44/19 59/45/19 32/24/8 
f 31/25/8 62/2/22 64/1/22 35/23/8 
f 38/20/8 65/41/19 63/44/19 36/22/8 
f 35/23/8 64/1/22 66/42/22 37/21/8 
f 40/31/8 67/49/19 65/41/19 38/20/8 
f 37/21/8 66/42/22 68/50/22 39/30/8 
f 11/8/3 8/5/3 69/51/23 70/52/23 
f 8/5/3 7/4/3 71/53/23 69/51/23 
f 72/54/23 71/53/23 7/4/3 73/55/3 
f 7/4/3 10/7/3 74/56/3 73/55/3 
f 10/7/3 75/57/24 76/58/24 74/56/3 
f 10/7/3 9/6/3 77/59/24 75/57/24 
f 9/6/3 12/9/3 78/60/24 77/59/24 
f 79/61/25 80/62/26 81/63/3 82/64/27 
f 83/65/3 84/66/27 82/64/27 81/63/3 
f 85/67/28 86/68/29 84/66/27 83/65/3 
f 87/42/1 88/69/30 52/43/18 51/42/1 
f 89/70/31 90/33/11 42/33/11 41/32/10 
f 90/33/11 91/36/11 45/36/11 42/33/11 
f 91/36/11 92/71/32 47/38/14 45/36/11 
f 93/72/33 94/2/22 62/2/22 61/48/21 
f 94/2/22 95/1/22 64/1/22 62/2/22 
f 95/1/22 96/42/22 66/42/22 64/1/22 
f 96/42/22 97/50/22 68/50/22 66/42/22 
f 5/3/1 2/2/1 56/2/1 58/3/1 
f 2/2/1 1/1/1 54/1/1 56/2/1 
f 1/1/1 87/42/1 51/42/1 54/1/1 
f 98/73/34 99/70/35 100/70/4 101/73/36 
f 60/74/20 48/39/15 20/17/6 33/75/9 
f 52/76/18 41/32/10 14/11/4 21/77/7 
f 93/78/33 92/71/32 102/71/6 103/78/37 
f 33/75/9 20/17/6 19/16/6 34/79/9 
f 34/79/9 19/16/6 47/38/14 61/80/21 
f 21/77/7 14/11/4 13/10/4 22/81/7 
f 22/81/7 13/10/4 44/35/13 49/82/16 
f 88/83/30 89/70/31 41/32/10 52/84/18 
f 92/85/32 93/72/33 61/48/21 47/86/14 
f 80/62/26 78/60/24 12/9/3 81/63/3 
f 81/63/3 12/9/3 11/8/3 83/65/3 
f 83/65/3 11/8/3 70/52/23 85/67/28 
f 50/52/17 49/67/16 85/67/28 70/52/23 
f 49/67/16 44/68/13 86/68/29 85/67/28 
f 44/68/13 43/66/12 84/66/27 86/68/29 
f 43/66/12 46/64/12 82/64/27 84/66/27 
f 46/64/12 48/61/15 79/61/25 82/64/27 
f 48/61/15 60/62/20 80/62/26 79/61/25 
f 60/62/20 59/60/19 78/60/24 80/62/26 
f 59/60/19 63/59/19 77/59/24 78/60/24 
f 63/59/19 65/57/19 75/57/24 77/59/24 
f 65/57/19 67/58/19 76/58/24 75/57/24 
f 57/54/17 55/53/17 71/53/23 72/54/23 
f 55/53/17 53/51/17 69/51/23 71/53/23 
f 53/51/17 50/52/17 70/52/23 69/51/23 
f 88/69/30 87/42/1 104/42/2 101/69/36 
f 87/42/1 1/1/1 4/1/2 104/42/2 
f 105/72/38 106/2/39 107/2/8 103/72/37 
f 106/2/39 108/1/39 109/1/8 107/2/8 
f 108/1/39 110/42/40 111/42/8 109/1/8 
f 110/42/40 112/50/40 113/50/8 111/42/8 
f 114/4/41 115/7/41 116/6/41 117/5/41 
f 117/5/41 116/6/41 118/9/41 119/8/41 
f 120/10/42 121/13/5 122/12/5 123/11/42 
f 121/13/5 124/15/5 125/14/5 122/12/5 
f 124/15/5 126/17/6 127/16/6 125/14/5 
f 128/18/43 129/21/2 130/20/2 131/19/43 
f 129/21/2 132/23/2 133/22/2 130/20/2 
f 132/23/2 134/25/2 135/24/2 133/22/2 
f 134/25/2 136/27/2 137/26/2 135/24/2 
f 138/25/8 139/29/9 140/28/9 141/24/8 
f 142/23/8 138/25/8 141/24/8 143/22/8 
f 144/21/8 142/23/8 143/22/8 145/20/8 
f 146/30/8 144/21/8 145/20/8 147/31/8 
f 99/70/35 148/33/44 149/33/5 100/70/4 
f 148/33/44 150/36/44 151/36/5 149/33/5 
f 150/36/44 152/71/45 102/71/6 151/36/5 
f 123/11/42 122/12/5 153/33/44 154/32/46 
f 121/13/5 120/10/42 155/35/47 156/34/48 
f 122/12/5 125/14/5 157/36/44 153/33/44 
f 124/15/5 121/13/5 156/34/48 158/37/48 
f 125/14/5 127/16/6 159/38/49 157/36/44 
f 126/17/6 124/15/5 158/37/48 160/39/50 
f 131/19/43 130/20/2 161/41/51 162/40/52 
f 129/21/2 128/18/43 163/43/53 164/42/54 
f 130/20/2 133/22/2 165/44/51 161/41/51 
f 132/23/2 129/21/2 164/42/54 166/1/54 
f 133/22/2 135/24/2 167/45/51 165/44/51 
f 134/25/2 132/23/2 166/1/54 168/2/54 
f 135/24/2 137/26/2 169/46/51 167/45/51 
f 136/27/2 134/25/2 168/2/54 170/3/54 
f 141/24/8 140/28/9 171/47/55 172/45/56 
f 139/29/9 138/25/8 173/2/39 174/48/57 
f 143/22/8 141/24/8 172/45/56 175/44/56 
f 138/25/8 142/23/8 176/1/39 173/2/39 
f 145/20/8 143/22/8 175/44/56 177/41/56 
f 142/23/8 144/21/8 178/42/39 176/1/39 
f 147/31/8 145/20/8 177/41/56 179/49/56 
f 144/21/8 146/30/8 180/50/39 178/42/39 
f 119/8/41 181/52/58 182/51/58 117/5/41 
f 117/5/41 182/51/58 183/53/58 114/4/41 
f 184/54/58 185/55/41 114/4/41 183/53/58 
f 114/4/41 185/55/41 186/56/41 115/7/41 
f 115/7/41 186/56/41 187/58/59 188/57/59 
f 115/7/41 188/57/59 189/59/59 116/6/41 
f 116/6/41 189/59/59 190/60/59 118/9/41 
f 191/61/60 192/64/61 193/63/41 194/62/62 
f 195/65/41 193/63/41 192/64/61 196/66/61 
f 197/67/63 195/65/41 196/66/61 198/68/64 
f 199/42/54 164/42/54 163/43/53 98/69/34 
f 99/70/35 154/32/46 153/33/44 148/33/44 
f 148/33/44 153/33/44 157/36/44 150/36/44 
f 150/36/44 157/36/44 159/38/49 152/71/45 
f 105/72/38 174/48/57 173/2/39 106/2/39 
f 106/2/39 173/2/39 176/1/39 108/1/39 
f 108/1/39 176/1/39 178/42/39 110/42/40 
f 110/42/40 178/42/39 180/50/39 112/50/40 
f 200/3/65 170/3/54 168/2/54 201/2/65 
f 201/2/65 168/2/54 166/1/54 202/1/54 
f 202/1/54 166/1/54 164/42/54 199/42/54 
f 171/74/55 140/75/9 126/17/6 160/39/50 
f 163/76/53 128/77/43 123/11/42 154/32/46 
f 140/75/9 139/79/9 127/16/6 126/17/6 
f 139/79/9 174/80/57 159/38/49 127/16/6 
f 128/77/43 131/81/43 120/10/42 123/11/42 
f 131/81/43 162/82/52 155/35/47 120/10/42 
f 98/83/34 163/84/53 154/32/46 99/70/35 
f 152/85/45 159/86/49 174/48/57 105/72/38 
f 194/62/62 193/63/41 118/9/41 190/60/59 
f 193/63/41 195/65/41 119/8/41 118/9/41 
f 195/65/41 197/67/63 181/52/58 119/8/41 
f 161/52/51 181/52/58 197/67/63 162/67/52 
f 162/67/52 197/67/63 198/68/64 155/68/47 
f 155/68/47 198/68/64 196/66/61 156/66/48 
f 156/66/48 196/66/61 192/64/61 158/64/48 
f 158/64/48 192/64/61 191/61/60 160/61/50 
f 160/61/50 191/61/60 194/62/62 171/62/55 
f 171/62/55 194/62/62 190/60/59 172/60/56 
f 172/60/56 190/60/59 189/59/59 175/59/56 
f 175/59/56 189/59/59 188/57/59 177/57/56 
f 177/57/56 188/57/59 187/58/59 179/58/56 
f 169/54/51 184/54/58 183/53/58 167/53/51 
f 167/53/51 183/53/58 182/51/58 165/51/51 
f 165/51/51 182/51/58 181/52/58 161/52/51 
f 3/2/2 201/2/65 202/1/54 4/1/2 
f 6/3/2 200/3/65 201/2/65 3/2/2 
f 100/70/4 89/70/31 88/73/30 101/73/36 
f 102/71/6 152/71/45 105/78/38 103/78/37 
f 104/42/2 199/42/54 98/69/34 101/69/36 
f 4/1/2 202/1/54 199/42/54 104/42/2 
f 107/2/8 94/2/22 93/72/33 103/72/37 
f 109/1/8 95/1/22 94/2/22 107/2/8 
f 111/42/8 96/42/22 95/1/22 109/1/8 
f 113/50/8 97/50/22 96/42/22 111/42/8 
f 149/33/5 90/33/11 89/70/31 100/70/4 
f 151/36/5 91/36/11 90/33/11 149/33/5 
f 102/71/6 92/71/32 91/36/11 151/36/5 
# 186 polygons

