# 3ds Max Wavefront OBJ Exporter v0.97b - (c)2007 guruware
# File Created: 16.11.2019 18:23:24

#
# object level_wall_basic
#

v  -4.4810 4.8007 0.4483
v  -4.4810 5.8958 0.4483
v  -2.6314 5.8958 0.4483
v  -2.6314 4.8007 0.4483
v  -4.3059 2.4116 -0.3027
v  -2.6659 2.4116 -0.3027
v  -2.6659 -0.0000 -0.3027
v  -4.3059 -0.0000 -0.3027
v  -1.4362 4.5452 -0.0000
v  -1.4362 5.8958 -0.0000
v  -0.2068 5.8958 0.0000
v  -0.2068 4.5452 0.0000
v  -1.4362 0.0000 -0.0000
v  -1.4362 2.7174 -0.0000
v  -0.2068 2.7174 -0.0000
v  -0.2068 0.0000 -0.0000
v  -9.8654 4.5452 1.1875
v  -9.8654 5.8958 1.1875
v  -7.6105 5.8958 1.1875
v  -7.6105 4.5452 1.1875
v  -4.3059 0.0000 0.1169
v  -2.4563 0.0000 0.1169
v  -2.4563 0.0000 1.9610
v  -4.3059 0.0000 1.9610
v  -2.4563 4.5452 0.1169
v  -2.4563 3.5734 0.1169
v  -4.3059 3.5734 0.1169
v  -4.3059 4.5452 0.1169
v  -5.1805 4.2898 0.4483
v  -5.1805 3.6961 0.4483
v  -7.6105 3.6961 0.4483
v  -7.6105 4.2898 0.4483
v  -1.4362 4.5452 0.1169
v  -2.4563 5.8958 0.1169
v  -1.4362 5.8958 0.1169
v  -1.4362 0.0000 1.9610
v  -1.4362 0.0000 0.1169
v  -2.4563 2.7174 0.1169
v  -1.4362 2.7174 0.1169
v  -5.1805 5.8958 0.4483
v  -4.4810 3.6961 0.4483
v  -5.3556 4.5452 1.1875
v  -5.3556 5.8958 1.1875
v  0.0000 4.5452 1.9610
v  0.0000 3.5734 1.9610
v  0.0000 3.5734 0.1405
v  0.0000 4.5452 0.1405
v  0.0000 0.0000 1.9610
v  0.0000 0.0000 0.1405
v  0.0000 2.7174 0.1405
v  0.0000 2.7174 1.9610
v  -0.2068 3.5734 0.0000
v  -4.3059 2.7174 0.1169
v  -1.4362 3.5734 -0.0000
v  -1.4362 3.5734 0.1169
v  0.0000 5.8958 0.1405
v  -5.1805 3.5734 0.1169
v  -5.1805 2.7174 0.1169
v  -5.1805 0.0000 0.1169
v  -5.1805 0.0000 1.9610
v  -7.6105 0.0000 1.9610
v  -7.6105 0.0000 0.1169
v  -5.1805 2.4116 -0.3027
v  -5.1805 -0.0000 -0.3027
v  -7.6105 -0.0000 -0.3027
v  -7.6105 2.4116 -0.3027
v  -4.3059 11.7916 0.1169
v  -4.3059 11.7916 1.9610
v  -2.4563 11.7916 1.9610
v  -2.4563 11.7916 0.1169
v  -2.4563 7.2463 0.1169
v  -4.3059 7.2463 0.1169
v  -4.3059 8.2182 0.1169
v  -2.4563 8.2182 0.1169
v  -0.2068 9.0742 0.0000
v  -1.4362 9.0742 0.0000
v  -1.4362 11.7916 0.0000
v  -0.2068 11.7916 0.0000
v  -5.1805 7.5018 0.4483
v  -7.6105 7.5018 0.4483
v  -7.6105 8.0972 0.4483
v  -5.1805 8.0972 0.4483
v  -1.4362 11.7916 0.1169
v  -1.4362 11.7916 1.9610
v  -1.4362 9.0742 0.1169
v  -2.4563 9.0742 0.1169
v  -2.6314 6.9909 0.4483
v  -4.4810 6.9909 0.4483
v  -4.4810 8.0972 0.4483
v  -9.8654 7.2463 1.1875
v  -10.0405 7.5018 0.4483
v  -7.6105 7.2463 1.1875
v  0.0000 7.2463 0.1405
v  0.0000 8.2182 0.1405
v  0.0000 8.2182 1.9610
v  0.0000 7.2463 1.9610
v  0.0000 11.7916 0.1405
v  0.0000 11.7916 1.9610
v  -0.2068 7.2463 0.0000
v  -0.2068 8.2182 0.0000
v  0.0000 9.0742 0.1405
v  -4.3059 9.0742 0.1169
v  -1.4362 8.2182 0.0000
v  -1.4362 7.2463 0.0000
v  -1.4362 8.2182 0.1169
v  -1.4362 7.2463 0.1169
v  0.0000 9.0742 1.9610
v  0.0000 5.8958 1.9610
v  -10.0405 8.0972 0.4483
v  -10.0405 8.2182 0.1169
v  -7.6105 8.2182 0.1169
v  -5.1805 8.2182 0.1169
v  -5.1805 9.0742 0.1169
v  -10.0405 11.7916 0.1169
v  -10.0405 11.7916 1.9610
v  -7.6105 11.7916 1.9610
v  -7.6105 11.7916 0.1169
v  -5.1805 11.7916 0.1169
v  -5.1805 11.7916 1.9610
v  -2.6659 9.3799 -0.3027
v  -4.3059 9.3799 -0.3027
v  -4.3059 11.7916 -0.3027
v  -2.6659 11.7916 -0.3027
v  -5.1805 9.3799 -0.3027
v  -5.1805 11.7916 -0.3027
v  -7.6105 11.7916 -0.3027
v  -10.0405 9.0742 0.1169
v  -10.0405 9.3799 -0.3027
v  -7.6105 9.3799 -0.3027
v  -7.6105 9.0742 0.1169
v  -10.7400 4.8007 0.4483
v  -12.5896 4.8007 0.4483
v  -12.5896 5.8958 0.4483
v  -10.7400 5.8958 0.4483
v  -10.9151 2.4116 -0.3027
v  -10.9151 -0.0000 -0.3027
v  -12.5551 -0.0000 -0.3027
v  -12.5551 2.4116 -0.3027
v  -13.7848 4.5452 -0.0000
v  -15.0142 4.5452 -0.0000
v  -15.0142 5.8958 -0.0000
v  -13.7848 5.8958 -0.0000
v  -13.7848 0.0000 -0.0000
v  -15.0142 -0.0000 -0.0000
v  -15.0142 2.7174 -0.0000
v  -13.7848 2.7174 -0.0000
v  -10.9151 -0.0000 0.1169
v  -10.9151 -0.0000 1.9610
v  -12.7647 -0.0000 1.9610
v  -12.7647 -0.0000 0.1169
v  -12.7647 4.5452 0.1169
v  -10.9151 4.5452 0.1169
v  -10.9151 3.5734 0.1169
v  -12.7647 3.5734 0.1169
v  -13.7848 4.5452 0.1169
v  -13.7848 5.8958 0.1169
v  -12.7647 5.8958 0.1169
v  -13.7848 -0.0000 1.9610
v  -13.7848 -0.0000 0.1169
v  -13.7848 2.7174 0.1169
v  -12.7647 2.7174 0.1169
v  -10.0405 5.8958 0.4483
v  -10.0405 4.2898 0.4483
v  -10.7400 3.6961 0.4483
v  -15.2210 4.5452 1.9610
v  -15.2210 4.5452 0.1405
v  -15.2210 3.5734 0.1405
v  -15.2210 3.5734 1.9610
v  -15.2210 -0.0000 1.9610
v  -15.2210 2.7174 1.9610
v  -15.2210 2.7174 0.1405
v  -15.2210 -0.0000 0.1405
v  -15.0142 3.5734 -0.0000
v  -10.9151 2.7174 0.1169
v  -13.7848 3.5734 -0.0000
v  -13.7848 3.5734 0.1169
v  -10.0405 3.6961 0.4483
v  -15.2210 7.2463 0.1405
v  -15.0142 7.2463 -0.0000
v  -15.2210 5.8958 0.1405
v  -7.6105 3.5734 0.1169
v  -10.0405 3.5734 0.1169
v  -7.6105 2.7174 0.1169
v  -10.0405 2.7174 0.1169
v  -10.0405 -0.0000 0.1169
v  -10.0405 -0.0000 1.9610
v  -10.0405 2.4116 -0.3027
v  -10.0405 -0.0000 -0.3027
v  -10.9151 11.7916 0.1169
v  -12.7647 11.7916 0.1169
v  -12.7647 11.7916 1.9610
v  -10.9151 11.7916 1.9610
v  -12.7647 7.2463 0.1169
v  -12.7647 8.2182 0.1169
v  -10.9151 8.2182 0.1169
v  -10.9151 7.2463 0.1169
v  -15.0142 11.7916 -0.0000
v  -13.7848 11.7916 -0.0000
v  -13.7848 9.0742 -0.0000
v  -15.0142 9.0742 -0.0000
v  -13.7848 11.7916 0.1169
v  -13.7848 11.7916 1.9610
v  -12.7647 9.0742 0.1169
v  -13.7848 9.0742 0.1169
v  -10.7400 6.9909 0.4483
v  -12.5896 6.9909 0.4483
v  -10.7400 8.0972 0.4483
v  -15.2210 7.2463 1.9610
v  -15.2210 8.2182 1.9610
v  -15.2210 8.2182 0.1405
v  -15.2210 11.7916 0.1405
v  -15.2210 11.7916 1.9610
v  -15.0142 8.2182 -0.0000
v  -15.2210 9.0742 0.1405
v  -10.9151 9.0742 0.1169
v  -13.7848 8.2182 -0.0000
v  -13.7848 7.2463 -0.0000
v  -13.7848 7.2463 0.1169
v  -13.7848 8.2182 0.1169
v  -15.2210 9.0742 1.9610
v  -15.2210 5.8958 1.9610
v  -12.5551 9.3799 -0.3027
v  -12.5551 11.7916 -0.3027
v  -10.9151 11.7916 -0.3027
v  -10.9151 9.3799 -0.3027
v  -10.0405 11.7916 -0.3027
v  -5.3556 7.2463 1.1875
# 227 vertices

vn -0.1765 0.1765 -0.9684
vn 0.0000 0.0000 -1.0000
vn -0.5309 -0.0000 -0.8474
vn -0.4294 0.4294 -0.7945
vn -0.0000 0.5401 -0.8416
vn 0.4375 0.4375 -0.7856
vn 0.4306 -0.6034 -0.6712
vn -0.0000 -0.7071 -0.7071
vn -0.7071 0.0000 -0.7071
vn 0.3133 0.0000 -0.9497
vn -0.5773 -0.5773 -0.5774
vn 0.2400 -0.6429 -0.7274
vn 0.5137 0.5137 -0.6872
vn 0.6275 0.0000 -0.7786
vn 0.0000 0.6275 -0.7786
vn 0.0000 -1.0000 0.0000
vn 0.2838 -0.8509 -0.4421
vn 0.0000 -1.0000 -0.0000
vn -0.2115 0.1896 -0.9588
vn -0.2369 0.2369 -0.9422
vn 0.0000 0.6217 -0.7832
vn -0.5309 0.0000 -0.8474
vn -0.3015 -0.9045 -0.3015
vn 0.1815 0.1815 -0.9665
vn -0.6275 0.0000 -0.7786
vn -0.4236 0.5190 -0.7424
vn -0.5137 0.5137 -0.6872
vn 1.0000 0.0000 -0.0000
vn 0.8930 0.0000 -0.4500
vn 0.8930 -0.0000 -0.4500
vn 0.7071 -0.7071 -0.0000
vn 0.7018 -0.6185 -0.3536
vn -0.0000 0.6217 -0.7832
vn 0.0000 -0.7071 -0.7071
vn 0.0000 0.5401 -0.8416
vn 0.0000 1.0000 0.0000
vn -0.0000 1.0000 0.0000
vn 0.2838 0.8509 -0.4421
vn -0.1765 -0.1765 -0.9684
vn -0.4294 -0.4294 -0.7945
vn -0.2120 -0.1897 -0.9587
vn -0.5773 0.5773 -0.5774
vn 0.2400 0.6429 -0.7274
vn -0.2369 -0.2369 -0.9422
vn 0.0000 -0.6275 -0.7786
vn 0.0000 -0.6229 -0.7823
vn 0.0000 -0.6230 -0.7822
vn -0.3015 0.9045 -0.3015
vn 0.1815 -0.1815 -0.9665
vn -0.4236 -0.5203 -0.7416
vn 0.5137 -0.5137 -0.6872
vn 0.2369 -0.2369 -0.9422
vn 0.7018 0.6185 -0.3536
vn 0.7071 0.7071 -0.0000
vn -0.0000 -0.5401 -0.8416
vn 1.0000 -0.0000 -0.0000
vn -0.0000 -0.6230 -0.7822
vn -0.0000 -0.5400 -0.8417
vn 0.4375 -0.4375 -0.7856
vn 0.0000 0.7071 -0.7071
vn 0.4306 0.6034 -0.6712
vn -0.0000 0.7071 -0.7071
vn 0.0000 -0.5400 -0.8417
vn 0.0000 -0.5401 -0.8416
vn 0.1765 0.1765 -0.9684
vn 0.4294 0.4294 -0.7945
vn 0.5309 -0.0000 -0.8474
vn -0.4306 -0.6034 -0.6712
vn -0.4375 0.4375 -0.7856
vn 0.7071 0.0000 -0.7071
vn -0.3133 0.0000 -0.9497
vn 0.5773 -0.5773 -0.5774
vn -0.2400 -0.6429 -0.7274
vn -0.2838 -0.8509 -0.4421
vn 0.2115 0.1896 -0.9588
vn 0.5309 0.0000 -0.8474
vn 0.3015 -0.9045 -0.3015
vn -0.1815 0.1815 -0.9665
vn 0.2369 0.2369 -0.9422
vn 0.4236 0.5190 -0.7424
vn -1.0000 0.0000 -0.0000
vn -0.8930 -0.0000 -0.4500
vn -0.8930 0.0000 -0.4500
vn -0.7071 -0.7071 -0.0000
vn -0.7018 -0.6185 -0.3536
vn -0.2838 0.8509 -0.4421
vn 0.1765 -0.1765 -0.9684
vn 0.2120 -0.1897 -0.9587
vn 0.4294 -0.4294 -0.7945
vn -0.2400 0.6429 -0.7274
vn 0.5773 0.5773 -0.5774
vn 0.3015 0.9045 -0.3015
vn -0.1815 -0.1815 -0.9665
vn 0.4236 -0.5203 -0.7416
vn -0.7018 0.6185 -0.3536
vn -0.7071 0.7071 -0.0000
vn -1.0000 -0.0000 -0.0000
vn -0.4375 -0.4375 -0.7856
vn -0.4306 0.6034 -0.6712
vn -0.5137 -0.5137 -0.6872
# 100 vertex normals

vt 0.6486 0.5833 0.0000
vt 0.7500 0.5833 0.0000
vt 0.5550 -0.1283 0.0000
vt 0.6564 0.2050 0.0000
vt 0.3695 1.6667 0.0000
vt 0.9528 1.8333 0.0000
vt 0.8333 0.5833 0.0000
vt 0.9792 0.5833 0.0000
vt 0.8333 1.0000 0.0000
vt 0.8333 0.6995 0.0000
vt 0.9792 0.6995 0.0000
vt 0.9792 1.0000 0.0000
vt 0.6014 0.5833 0.0000
vt 0.5000 0.5833 0.0000
vt 0.6486 0.0000 0.0000
vt 0.7500 0.0000 0.0000
vt 0.7500 1.0000 0.0000
vt 0.6486 1.0000 0.0000
vt 0.7500 0.6500 0.0000
vt 0.6486 0.6500 0.0000
vt 0.6014 0.6500 0.0000
vt 0.8333 0.0000 0.0000
vt 0.7500 0.6995 0.0000
vt 0.4196 0.5833 0.0000
vt 0.5105 0.5833 0.0000
vt 0.4167 1.0000 0.0000
vt 0.3500 1.0000 0.0000
vt 0.3500 0.0128 0.0000
vt 0.4167 0.0128 0.0000
vt -0.0252 1.0000 0.0000
vt -0.0252 0.0128 0.0000
vt 0.3005 0.0128 0.0000
vt 0.3005 1.0000 0.0000
vt 0.9792 0.1667 0.0000
vt 0.8333 0.3333 0.0000
vt 0.6014 0.9167 0.0000
vt 0.5960 0.0000 0.0000
vt 0.5519 0.9167 0.0000
vt 0.5059 0.0208 0.0000
vt 0.4167 0.0129 0.0000
vt 0.3500 0.0129 0.0000
vt 0.3005 0.0129 0.0000
vt 0.1434 0.0128 0.0000
vt 0.1434 0.0129 0.0000
vt 0.6486 0.6995 0.0000
vt 0.8333 0.6500 0.0000
vt 0.9792 0.6500 0.0000
vt 0.7500 0.8566 0.0000
vt 0.0000 -0.0142 0.0000
vt 0.0000 0.0128 0.0000
vt 0.3684 0.0128 0.0000
vt 0.3684 -0.0142 0.0000
vt 0.3986 0.5833 0.0000
# 53 texture coords

o level_wall_basic
g level_wall_basic
f 1/1/1 2/1/2 3/2/3 4/2/4 
f 5/3/5 6/4/6 7/5/7 8/6/8 
f 9/7/9 10/7/9 11/8/10 12/8/10 
f 13/9/11 14/10/9 15/11/10 16/12/12 
f 17/13/13 18/13/14 19/14/2 20/14/15 
f 21/15/16 22/16/17 23/17/18 24/18/18 
f 25/2/1 26/19/2 27/20/19 28/1/4 
f 29/13/20 30/21/21 31/21/21 32/13/15 
f 33/7/9 25/2/1 34/2/22 35/7/9 
f 36/9/18 23/17/18 22/16/17 37/22/23 
f 37/9/23 22/17/17 38/23/24 39/10/9 
f 1/1/1 29/13/20 40/13/25 2/1/2 
f 25/2/1 28/1/4 1/1/1 4/2/4 
f 28/1/4 27/20/19 41/20/26 1/1/1 
f 42/24/27 29/24/20 32/25/15 20/25/15 
f 42/13/27 43/13/25 40/13/25 29/13/20 
f 44/26/28 45/27/28 46/28/29 47/29/30 
f 48/30/31 49/31/32 50/32/29 51/33/28 
f 37/9/23 39/10/9 14/10/9 13/9/11 
f 33/7/9 35/7/9 10/7/9 9/7/9 
f 48/34/31 36/35/18 37/36/23 49/37/32 
f 37/36/23 13/38/11 16/39/12 49/37/32 
f 12/40/10 47/29/30 46/28/29 52/41/10 
f 15/42/10 50/32/29 49/43/32 16/44/12 
f 26/19/2 38/23/24 53/45/5 27/20/19 
f 54/46/9 9/7/9 12/8/10 52/47/10 
f 26/19/2 25/2/1 33/7/9 55/46/9 
f 30/21/21 29/13/20 1/1/1 41/20/26 
f 45/27/28 51/33/28 50/32/29 46/28/29 
f 55/46/9 33/7/9 9/7/9 54/46/9 
f 46/28/29 50/32/29 15/42/10 52/41/10 
f 47/29/30 12/40/10 11/40/10 56/29/29 
f 30/21/21 41/20/26 27/20/19 57/21/33 
f 57/21/33 27/20/19 53/20/5 58/21/5 
f 59/21/16 60/21/18 61/21/18 62/21/16 
f 59/21/16 21/20/16 24/20/18 60/21/18 
f 14/10/9 54/46/9 52/47/10 15/11/10 
f 38/23/24 26/19/2 55/46/9 39/10/9 
f 39/10/9 55/46/9 54/46/9 14/10/9 
f 63/21/5 64/21/8 65/21/34 66/21/35 
f 5/20/5 8/20/8 64/21/8 63/21/5 
f 22/17/17 21/18/16 8/18/8 7/17/7 
f 21/20/16 59/21/16 64/21/8 8/20/8 
f 59/21/16 62/21/16 65/21/34 64/21/8 
f 58/21/5 53/20/5 5/20/5 63/21/5 
f 53/45/5 38/23/24 6/23/6 5/45/5 
f 38/23/24 22/48/17 7/48/7 6/23/6 
f 67/15/36 68/18/36 69/17/37 70/16/38 
f 71/2/39 72/1/40 73/20/41 74/19/2 
f 75/11/10 76/10/9 77/9/42 78/12/43 
f 79/13/44 80/13/45 81/21/46 82/21/47 
f 83/22/48 70/16/38 69/17/37 84/9/36 
f 85/10/9 86/23/49 70/17/38 83/9/48 
f 71/2/39 87/2/40 88/1/39 72/1/40 
f 72/1/40 88/1/39 89/20/50 73/20/41 
f 90/13/51 91/13/52 80/25/45 92/25/45 
f 93/29/29 94/28/29 95/27/28 96/26/28 
f 83/9/48 77/9/42 76/10/9 85/10/9 
f 97/37/53 83/36/48 84/35/36 98/34/54 
f 97/37/53 78/39/43 77/38/42 83/36/48 
f 99/40/10 100/41/10 94/28/29 93/29/29 
f 78/49/43 97/50/53 101/51/30 75/52/10 
f 74/19/2 73/20/41 102/45/55 86/23/49 
f 103/46/9 100/47/10 99/8/10 104/7/9 
f 74/19/2 105/46/9 106/7/9 71/2/39 
f 82/21/47 89/20/50 88/1/39 79/13/44 
f 94/28/29 101/32/30 107/33/28 95/27/28 
f 105/46/9 103/46/9 104/7/9 106/7/9 
f 94/28/29 100/41/10 75/42/10 101/32/30 
f 25/2/1 4/2/4 3/2/3 34/2/22 
f 93/29/29 96/26/28 108/26/56 56/29/29 
f 109/21/47 110/21/47 111/21/46 81/21/46 
f 82/21/47 112/21/57 73/20/41 89/20/50 
f 112/21/57 113/21/58 102/20/55 73/20/41 
f 114/21/37 115/21/37 116/21/37 117/21/37 
f 118/21/37 119/21/37 68/20/36 67/20/36 
f 76/10/9 75/11/10 100/47/10 103/46/9 
f 86/23/49 85/10/9 105/46/9 74/19/2 
f 85/10/9 76/10/9 103/46/9 105/46/9 
f 120/23/59 121/45/55 122/18/60 123/17/61 
f 101/32/30 97/31/53 98/30/54 107/33/28 
f 121/20/55 124/21/55 125/21/62 122/20/60 
f 70/17/38 123/17/61 122/18/60 67/18/36 
f 67/20/36 122/20/60 125/21/62 118/21/37 
f 118/21/37 125/21/62 126/21/60 117/21/37 
f 127/21/63 128/21/64 129/21/63 130/21/63 
f 113/21/58 124/21/55 121/20/55 102/20/55 
f 102/45/55 121/45/55 120/23/59 86/23/49 
f 86/23/49 120/23/59 123/17/61 70/17/38 
f 131/1/65 132/2/66 133/2/67 134/1/2 
f 135/3/35 136/6/34 137/5/68 138/4/69 
f 139/7/70 140/8/71 141/8/71 142/7/70 
f 143/9/72 144/12/73 145/11/71 146/10/70 
f 147/15/18 148/18/18 149/17/18 150/16/74 
f 151/2/65 152/1/66 153/20/75 154/19/2 
f 155/7/70 156/7/70 157/2/76 151/2/65 
f 158/9/18 159/22/77 150/16/74 149/17/18 
f 159/9/77 160/10/70 161/23/78 150/17/74 
f 131/1/65 134/1/2 162/13/14 163/13/79 
f 151/2/65 132/2/66 131/1/65 152/1/66 
f 152/1/66 131/1/65 164/20/80 153/20/75 
f 17/13/13 163/13/79 162/13/14 18/13/14 
f 165/26/81 166/29/82 167/28/83 168/27/81 
f 169/30/84 170/33/81 171/32/83 172/31/85 
f 159/9/77 143/9/72 146/10/70 160/10/70 
f 155/7/70 139/7/70 142/7/70 156/7/70 
f 169/34/84 172/37/85 159/36/77 158/35/18 
f 159/36/77 172/37/85 144/39/73 143/38/72 
f 140/40/71 173/41/71 167/28/83 166/29/82 
f 145/42/71 144/44/73 172/43/85 171/32/83 
f 154/19/2 153/20/75 174/45/35 161/23/78 
f 175/46/70 173/47/71 140/8/71 139/7/70 
f 154/19/2 176/46/70 155/7/70 151/2/65 
f 177/21/21 164/20/80 131/1/65 163/13/79 
f 168/27/81 167/28/83 171/32/83 170/33/81 
f 176/46/70 175/46/70 139/7/70 155/7/70 
f 167/28/83 173/41/71 145/42/71 171/32/83 
f 178/29/83 179/40/71 141/40/71 180/29/83 
f 30/21/21 57/21/33 181/21/21 31/21/21 
f 177/21/21 182/21/21 153/20/75 164/20/80 
f 57/21/33 58/21/5 183/21/35 181/21/21 
f 182/21/21 184/21/35 174/20/35 153/20/75 
f 185/21/18 186/21/18 148/20/18 147/20/18 
f 146/10/70 145/11/71 173/47/71 175/46/70 
f 161/23/78 160/10/70 176/46/70 154/19/2 
f 160/10/70 146/10/70 175/46/70 176/46/70 
f 135/20/35 187/21/35 188/21/34 136/20/34 
f 150/17/74 137/17/68 136/18/34 147/18/18 
f 147/20/18 136/20/34 188/21/34 185/21/18 
f 58/21/5 63/21/5 66/21/35 183/21/35 
f 184/21/35 187/21/35 135/20/35 174/20/35 
f 174/45/35 135/45/35 138/23/69 161/23/78 
f 161/23/78 138/23/69 137/48/68 150/48/74 
f 189/15/37 190/16/86 191/17/36 192/18/37 
f 193/2/87 194/19/2 195/20/88 196/1/89 
f 197/12/90 198/9/91 199/10/70 200/11/71 
f 201/22/92 202/9/37 191/17/36 190/16/86 
f 201/9/92 190/17/86 203/23/93 204/10/70 
f 193/2/87 196/1/89 205/1/87 206/2/89 
f 196/1/89 195/20/88 207/20/94 205/1/87 
f 178/29/83 208/26/81 209/27/81 210/28/83 
f 201/9/92 204/10/70 199/10/70 198/9/91 
f 211/37/95 212/34/96 202/35/37 201/36/92 
f 211/37/95 201/36/92 198/38/91 197/39/90 
f 179/40/71 178/29/83 210/28/83 213/41/71 
f 197/49/90 200/52/71 214/51/82 211/50/95 
f 194/19/2 203/23/93 215/45/64 195/20/88 
f 216/46/70 217/7/70 179/8/71 213/47/71 
f 194/19/2 193/2/87 218/7/70 219/46/70 
f 109/21/47 91/13/52 205/1/87 207/20/94 
f 210/28/83 209/27/81 220/33/81 214/32/82 
f 219/46/70 218/7/70 217/7/70 216/46/70 
f 210/28/83 214/32/82 200/42/71 213/41/71 
f 193/2/87 206/2/89 133/2/67 157/2/76 
f 166/29/82 165/26/81 221/26/97 180/29/83 
f 109/21/47 207/20/94 195/20/88 110/21/47 
f 110/21/47 127/21/63 130/21/63 111/21/46 
f 110/21/47 195/20/88 215/20/64 127/21/63 
f 114/21/37 189/20/37 192/20/37 115/21/37 
f 199/10/70 216/46/70 213/47/71 200/11/71 
f 203/23/93 194/19/2 219/46/70 204/10/70 
f 204/10/70 219/46/70 216/46/70 199/10/70 
f 222/23/98 223/17/99 224/18/60 225/45/64 
f 214/32/82 220/33/81 212/30/96 211/31/95 
f 128/21/64 226/21/60 126/21/60 129/21/63 
f 225/20/64 224/20/60 226/21/60 128/21/64 
f 190/17/86 189/18/37 224/18/60 223/17/99 
f 189/20/37 114/21/37 226/21/60 224/20/60 
f 127/21/63 215/20/64 225/20/64 128/21/64 
f 215/45/64 203/23/93 222/23/98 225/45/64 
f 203/23/93 190/17/86 223/17/99 222/23/98 
f 2/1/2 88/1/39 87/2/40 3/2/3 
f 10/7/9 104/7/9 99/8/10 11/8/10 
f 18/13/14 90/13/51 92/14/45 19/14/2 
f 34/2/22 71/2/39 106/7/9 35/7/9 
f 40/13/25 79/13/44 88/1/39 2/1/2 
f 43/13/25 227/13/100 79/13/44 40/13/25 
f 35/7/9 106/7/9 104/7/9 10/7/9 
f 11/40/10 99/40/10 93/29/29 56/29/29 
f 3/2/3 87/2/40 71/2/39 34/2/22 
f 108/26/56 44/26/28 47/29/30 56/29/29 
f 133/2/67 206/2/89 205/1/87 134/1/2 
f 141/8/71 179/8/71 217/7/70 142/7/70 
f 156/7/70 218/7/70 193/2/87 157/2/76 
f 134/1/2 205/1/87 91/13/52 162/13/14 
f 162/13/14 91/13/52 90/13/51 18/13/14 
f 142/7/70 217/7/70 218/7/70 156/7/70 
f 141/40/71 140/40/71 166/29/82 180/29/83 
f 133/2/67 132/2/66 151/2/65 157/2/76 
f 221/26/97 208/26/81 178/29/83 180/29/83 
f 19/14/2 43/53/25 42/53/27 20/14/15 
f 31/21/21 177/21/21 163/13/79 32/13/15 
f 32/25/15 163/13/79 17/13/13 20/25/15 
f 61/21/18 186/21/18 185/21/18 62/21/16 
f 65/21/34 188/21/34 187/21/35 66/21/35 
f 62/21/16 185/21/18 188/21/34 65/21/34 
f 80/13/45 91/13/52 109/21/47 81/21/46 
f 80/25/45 79/24/44 227/24/100 92/25/45 
f 111/21/46 112/21/57 82/21/47 81/21/46 
f 116/21/37 119/21/37 118/21/37 117/21/37 
f 126/21/60 226/21/60 114/21/37 117/21/37 
f 129/21/63 124/21/55 113/21/58 130/21/63 
f 181/21/21 182/21/21 177/21/21 31/21/21 
f 183/21/35 184/21/35 182/21/21 181/21/21 
f 66/21/35 187/21/35 184/21/35 183/21/35 
f 130/21/63 113/21/58 112/21/57 111/21/46 
f 126/21/60 125/21/62 124/21/55 129/21/63 
f 92/14/45 227/53/100 43/53/25 19/14/2 
# 208 polygons

