# 3ds Max Wavefront OBJ Exporter v0.97b - (c)2007 guruware
# File Created: 16.11.2019 17:09:40

#
# object level_floor_endcap
#

v  435.3763 11.6308 233.4468
v  646.7269 11.6308 233.4468
v  646.7269 11.6308 359.8008
v  435.3763 11.6308 359.8008
v  870.7523 11.6308 233.4469
v  870.7523 11.6308 359.8008
v  630.8812 80.4398 -0.0001
v  430.9198 80.4398 -0.0001
v  430.9198 135.8463 -0.0001
v  630.8812 135.8463 -0.0001
v  230.9584 80.4398 -0.0001
v  230.9584 135.8463 -0.0001
v  0.0000 20.0799 85.9915
v  0.0000 20.0799 150.3329
v  0.0000 75.9723 150.3329
v  0.0000 75.9723 85.9915
v  0.0000 140.3138 150.3329
v  0.0000 140.3138 85.9915
v  0.0000 196.2062 150.3329
v  0.0000 196.2062 85.9915
v  21.8827 0.0000 150.3329
v  21.8827 0.0000 85.9915
v  224.0256 0.0000 85.9915
v  224.0256 0.0000 150.3329
v  435.3763 0.0000 85.9915
v  435.3763 0.0000 150.3329
v  646.7269 0.0000 85.9915
v  646.7269 0.0000 150.3329
v  870.7525 0.0000 85.9915
v  870.7525 0.0000 150.3329
v  224.0256 216.2861 150.3329
v  224.0256 216.2861 85.9915
v  21.8827 216.2861 85.9915
v  21.8827 216.2861 150.3329
v  435.3763 216.2861 150.3329
v  435.3763 216.2861 85.9915
v  646.7269 216.2861 150.3329
v  646.7269 216.2861 85.9915
v  870.7525 216.2861 150.3329
v  870.7525 216.2861 85.9915
v  0.0000 20.0799 214.6744
v  0.0000 75.9723 214.6744
v  0.0000 75.9723 21.6500
v  0.0000 20.0799 21.6500
v  0.0000 140.3138 214.6744
v  0.0000 140.3138 21.6500
v  0.0000 196.2062 214.6744
v  0.0000 196.2062 21.6500
v  21.8827 0.0000 21.6500
v  224.0256 0.0000 21.6500
v  224.0256 0.0000 214.6744
v  21.8827 0.0000 214.6744
v  435.3763 0.0000 21.6500
v  435.3763 0.0000 214.6744
v  646.7269 0.0000 21.6500
v  646.7269 0.0000 214.6744
v  870.7525 0.0000 21.6500
v  870.7525 0.0000 214.6744
v  224.0256 216.2861 21.6500
v  21.8827 216.2861 21.6500
v  21.8827 216.2861 214.6744
v  224.0256 216.2861 214.6744
v  435.3763 216.2861 21.6500
v  435.3763 216.2861 214.6744
v  646.7269 216.2861 21.6500
v  646.7269 216.2861 214.6744
v  870.7525 216.2861 21.6500
v  870.7525 216.2861 214.6744
v  430.9198 15.0178 -0.0001
v  230.9584 15.0178 -0.0001
v  630.8812 15.0178 -0.0001
v  870.7524 15.0178 -0.0001
v  870.7524 80.4398 -0.0001
v  870.7524 135.8463 -0.0001
v  630.8812 201.2683 -0.0001
v  870.7524 201.2683 -0.0001
v  430.9198 201.2683 -0.0001
v  230.9584 201.2683 -0.0001
v  19.0050 183.9769 -0.0001
v  39.7085 201.2683 -0.0001
v  39.7085 135.8463 -0.0001
v  19.0050 135.8463 -0.0001
v  39.7085 80.4398 -0.0001
v  19.0050 80.4398 -0.0001
v  39.7085 15.0178 -0.0001
v  19.0050 32.3092 -0.0001
v  224.0256 11.6308 233.4468
v  34.5577 11.6308 233.4468
v  12.6750 31.7107 233.4468
v  12.6750 75.9723 233.4468
v  12.6750 140.3138 233.4468
v  12.6750 184.5754 233.4468
v  34.5577 204.6553 233.4468
v  224.0256 204.6553 233.4468
v  435.3763 204.6553 233.4468
v  646.7269 204.6553 233.4468
v  870.7523 204.6553 233.4469
v  34.5577 11.6308 486.1548
v  12.6750 31.7107 486.1548
v  12.6750 31.7107 359.8008
v  34.5577 11.6308 359.8008
v  12.6750 184.5754 359.8008
v  34.5577 204.6553 359.8008
v  224.0256 11.6308 359.8008
v  34.5577 204.6553 486.1548
v  224.0256 204.6553 486.1548
v  224.0256 204.6553 359.8008
v  435.3763 204.6553 486.1548
v  435.3763 204.6553 359.8008
v  646.7269 204.6553 486.1548
v  646.7269 204.6553 359.8008
v  870.7523 204.6553 486.1547
v  870.7523 204.6553 359.8008
v  630.8812 80.4398 719.6016
v  630.8812 135.8463 719.6016
v  430.9198 135.8463 719.6016
v  430.9198 80.4398 719.6016
v  230.9584 135.8463 719.6016
v  230.9584 80.4398 719.6016
v  0.0000 20.0799 633.6101
v  0.0000 75.9723 633.6101
v  0.0000 75.9723 569.2686
v  0.0000 20.0799 569.2686
v  0.0000 140.3138 633.6101
v  0.0000 140.3138 569.2686
v  0.0000 196.2062 633.6101
v  0.0000 196.2062 569.2686
v  21.8827 0.0000 569.2686
v  224.0256 0.0000 569.2686
v  224.0256 0.0000 633.6101
v  21.8827 0.0000 633.6101
v  435.3763 0.0000 569.2686
v  435.3763 0.0000 633.6101
v  646.7269 0.0000 569.2686
v  646.7269 0.0000 633.6101
v  870.7525 0.0000 569.2686
v  870.7525 0.0000 633.6101
v  224.0256 216.2861 569.2686
v  21.8827 216.2861 569.2686
v  21.8827 216.2861 633.6101
v  224.0256 216.2861 633.6101
v  435.3763 216.2861 569.2686
v  435.3763 216.2861 633.6101
v  646.7269 216.2861 569.2686
v  646.7269 216.2861 633.6101
v  870.7525 216.2861 569.2686
v  870.7525 216.2861 633.6101
v  12.6750 75.9723 486.1548
v  12.6750 75.9723 359.8008
v  12.6750 140.3138 486.1548
v  12.6750 140.3138 359.8008
v  12.6750 184.5754 486.1548
v  0.0000 75.9723 504.9271
v  0.0000 20.0799 504.9271
v  0.0000 20.0799 697.9516
v  0.0000 75.9723 697.9516
v  0.0000 140.3138 504.9271
v  0.0000 140.3138 697.9516
v  0.0000 196.2062 504.9271
v  0.0000 196.2062 697.9516
v  224.0256 0.0000 697.9516
v  21.8827 0.0000 697.9516
v  21.8827 0.0000 504.9271
v  224.0256 0.0000 504.9271
v  435.3763 0.0000 697.9516
v  435.3763 0.0000 504.9271
v  646.7269 0.0000 697.9516
v  646.7269 0.0000 504.9271
v  870.7525 0.0000 697.9516
v  870.7525 0.0000 504.9271
v  21.8827 216.2861 697.9516
v  224.0256 216.2861 697.9516
v  224.0256 216.2861 504.9271
v  21.8827 216.2861 504.9271
v  435.3763 216.2861 697.9516
v  435.3763 216.2861 504.9271
v  646.7269 216.2861 697.9516
v  646.7269 216.2861 504.9271
v  870.7525 216.2861 697.9516
v  870.7525 216.2861 504.9271
v  230.9584 15.0178 719.6016
v  430.9198 15.0178 719.6016
v  630.8812 15.0178 719.6016
v  870.7524 15.0178 719.6016
v  870.7524 80.4398 719.6016
v  870.7524 135.8463 719.6016
v  870.7524 201.2683 719.6016
v  630.8812 201.2683 719.6016
v  430.9198 201.2683 719.6016
v  230.9584 201.2683 719.6016
v  19.0050 183.9769 719.6016
v  19.0050 135.8463 719.6016
v  39.7085 135.8463 719.6016
v  39.7085 201.2683 719.6016
v  39.7085 80.4398 719.6016
v  19.0050 80.4398 719.6016
v  39.7085 15.0178 719.6016
v  19.0050 32.3092 719.6016
v  224.0256 11.6308 486.1548
v  870.7523 11.6308 486.1547
v  646.7269 11.6308 486.1548
v  435.3763 11.6308 486.1548
# 202 vertices

vn 0.0000 -0.9253 0.3792
vn -0.0000 -0.9253 0.3792
vn 0.0000 -1.0000 -0.0000
vn 0.0000 0.0000 -1.0000
vn -0.9239 -0.3827 -0.0000
vn -1.0000 0.0000 -0.0000
vn -0.9239 0.3827 -0.0000
vn -0.3827 -0.9239 -0.0000
vn -0.0000 -1.0000 -0.0000
vn 0.0000 1.0000 -0.0000
vn -0.3827 0.9239 -0.0000
vn -0.8368 -0.3667 0.4065
vn -0.9253 0.0000 0.3792
vn -0.8987 0.0000 -0.4385
vn -0.8286 -0.3538 -0.4339
vn -0.8368 0.3667 0.4065
vn -0.8286 0.3538 -0.4339
vn -0.3632 -0.8253 -0.4324
vn -0.0000 -0.9143 -0.4051
vn -0.3667 -0.8368 0.4065
vn 0.0000 -0.9143 -0.4051
vn 0.0000 0.9143 -0.4051
vn -0.3632 0.8253 -0.4324
vn -0.3667 0.8368 0.4065
vn 0.0000 0.9253 0.3792
vn 0.0000 -0.3600 -0.9330
vn 0.0000 0.3600 -0.9330
vn -0.3325 0.1229 -0.9351
vn -0.0915 0.3629 -0.9273
vn -0.3254 0.0000 -0.9456
vn -0.0915 -0.3629 -0.9273
vn -0.3325 -0.1229 -0.9351
vn -0.2979 -0.8276 0.4757
vn -0.8276 -0.2980 0.4758
vn -0.8276 0.2979 0.4758
vn -0.2979 0.8276 0.4758
vn -0.0000 0.9253 0.3792
vn -0.2979 -0.8276 -0.4758
vn -0.8276 -0.2979 -0.4758
vn -0.3827 -0.9239 0.0000
vn -0.3827 0.9239 0.0000
vn -0.2979 0.8276 -0.4758
vn 0.0000 0.9253 -0.3792
vn -0.0000 0.9253 -0.3792
vn 0.0000 0.0000 1.0000
vn -0.9239 -0.3826 -0.0000
vn -0.3826 -0.9239 -0.0000
vn -0.9253 0.0000 -0.3792
vn -0.8276 0.2979 -0.4758
vn -0.8368 -0.3667 -0.4065
vn -0.8286 -0.3537 0.4340
vn -0.8987 0.0000 0.4385
vn -0.8368 0.3667 -0.4065
vn -0.8286 0.3538 0.4339
vn 0.0000 -0.9143 0.4051
vn -0.3631 -0.8253 0.4325
vn -0.3667 -0.8368 -0.4065
vn 0.0000 -0.9253 -0.3792
vn -0.3632 0.8253 0.4324
vn 0.0000 0.9143 0.4051
vn -0.3667 0.8368 -0.4065
vn 0.0000 -0.3600 0.9330
vn 0.0000 0.3600 0.9330
vn -0.3325 0.1229 0.9351
vn -0.3254 0.0000 0.9456
vn -0.0915 0.3629 0.9273
vn -0.0915 -0.3629 0.9273
vn -0.3325 -0.1229 0.9351
vn -0.0000 -0.9253 -0.3792
# 69 vertex normals

vt 0.5000 0.8750 0.0000
vt 0.2500 0.8750 0.0000
vt 0.0000 0.8750 0.0000
vt 0.2500 0.3333 0.0000
vt 0.5000 0.3333 0.0000
vt 0.5000 0.6667 0.0000
vt 0.2500 0.6667 0.0000
vt 0.7500 0.3333 0.0000
vt 0.7500 0.6667 0.0000
vt 0.0417 0.0881 0.0000
vt 0.0833 0.0881 0.0000
vt 0.0833 0.3333 0.0000
vt 0.0417 0.3333 0.0000
vt 0.0833 0.6667 0.0000
vt 0.0417 0.6667 0.0000
vt 0.0833 0.9119 0.0000
vt 0.0417 0.9119 0.0000
vt 0.9756 0.9167 0.0000
vt 0.9756 0.9583 0.0000
vt 0.7500 0.9583 0.0000
vt 0.7500 0.9167 0.0000
vt 0.5000 0.9583 0.0000
vt 0.5000 0.9167 0.0000
vt 0.2500 0.9583 0.0000
vt 0.2500 0.9167 0.0000
vt 0.0000 0.9583 0.0000
vt 0.0000 0.9167 0.0000
vt 0.0244 0.9583 0.0000
vt 0.0244 0.9167 0.0000
vt 1.0000 0.9167 0.0000
vt 1.0000 0.9583 0.0000
vt 0.1250 0.0881 0.0000
vt 0.1250 0.3333 0.0000
vt 0.0000 0.3333 0.0000
vt 0.0000 0.0881 0.0000
vt 0.1250 0.6667 0.0000
vt 0.0000 0.6667 0.0000
vt 0.1250 0.9119 0.0000
vt 0.0000 0.9119 0.0000
vt 0.9756 1.0000 0.0000
vt 0.7500 1.0000 0.0000
vt 0.7500 0.8750 0.0000
vt 0.9756 0.8750 0.0000
vt 0.5000 1.0000 0.0000
vt 0.2500 1.0000 0.0000
vt 0.0000 1.0000 0.0000
vt 0.0244 1.0000 0.0000
vt 0.0244 0.8750 0.0000
vt 1.0000 1.0000 0.0000
vt 1.0000 0.8750 0.0000
vt 0.5000 -0.0603 0.0000
vt 0.7500 -0.0603 0.0000
vt 0.2500 -0.0603 0.0000
vt -0.0150 -0.0603 0.0000
vt -0.0150 0.3333 0.0000
vt -0.0150 0.6667 0.0000
vt 0.2500 1.0603 0.0000
vt -0.0150 1.0603 0.0000
vt 0.5000 1.0603 0.0000
vt 0.7500 1.0603 0.0000
vt 1.0150 0.9562 0.0000
vt 0.9891 1.0603 0.0000
vt 0.9891 0.6667 0.0000
vt 1.0150 0.6667 0.0000
vt 0.9891 0.3333 0.0000
vt 1.0150 0.3333 0.0000
vt 0.9891 -0.0603 0.0000
vt 1.0150 0.0438 0.0000
vt 0.9741 0.8750 0.0000
vt 0.1250 0.1040 0.0000
vt 0.1250 0.8960 0.0000
vt 0.0259 0.8750 0.0000
vt 0.1250 0.0191 0.0000
vt 0.0000 0.9895 0.0000
vt 0.0417 0.9895 0.0000
vt 0.1250 0.0105 0.0000
vt 0.0833 0.0105 0.0000
vt 0.1250 0.9809 0.0000
vt 0.0833 0.9895 0.0000
vt 0.1250 0.9895 0.0000
vt 0.0417 0.0105 0.0000
vt 0.0000 0.0105 0.0000
vt 0.1250 0.0345 0.0000
vt 0.1250 0.0326 0.0000
vt 0.0780 0.8750 0.0000
vt 0.0661 0.8750 0.0000
# 86 texture coords

o level_floor_endcap
g level_floor_endcap
f 1/1/1 2/2/2 3/2/3 4/1/3 
f 2/2/2 5/3/2 6/3/3 3/2/3 
f 7/4/4 8/5/4 9/6/4 10/7/4 
f 8/5/4 11/8/4 12/9/4 9/6/4 
f 13/10/5 14/11/5 15/12/6 16/13/6 
f 16/13/6 15/12/6 17/14/6 18/15/6 
f 18/15/6 17/14/6 19/16/7 20/17/7 
f 21/18/8 22/19/8 23/20/9 24/21/3 
f 24/21/3 23/20/9 25/22/3 26/23/3 
f 26/23/3 25/22/3 27/24/3 28/25/3 
f 28/25/3 27/24/3 29/26/3 30/27/3 
f 31/25/10 32/24/10 33/28/11 34/29/11 
f 35/23/10 36/22/10 32/24/10 31/25/10 
f 37/21/10 38/20/10 36/22/10 35/23/10 
f 39/30/10 40/31/10 38/20/10 37/21/10 
f 14/11/5 41/32/12 42/33/13 15/12/6 
f 16/13/6 43/34/14 44/35/15 13/10/5 
f 15/12/6 42/33/13 45/36/13 17/14/6 
f 18/15/6 46/37/14 43/34/14 16/13/6 
f 17/14/6 45/36/13 47/38/16 19/16/7 
f 20/17/7 48/39/17 46/37/14 18/15/6 
f 22/19/8 49/40/18 50/41/19 23/20/9 
f 24/21/3 51/42/1 52/43/20 21/18/8 
f 23/20/9 50/41/19 53/44/21 25/22/3 
f 26/23/3 54/1/1 51/42/1 24/21/3 
f 25/22/3 53/44/21 55/45/21 27/24/3 
f 28/25/3 56/2/1 54/1/1 26/23/3 
f 27/24/3 55/45/21 57/46/21 29/26/3 
f 30/27/3 58/3/1 56/2/1 28/25/3 
f 32/24/10 59/45/22 60/47/23 33/28/11 
f 34/29/11 61/48/24 62/2/25 31/25/10 
f 36/22/10 63/44/22 59/45/22 32/24/10 
f 31/25/10 62/2/25 64/1/25 35/23/10 
f 38/20/10 65/41/22 63/44/22 36/22/10 
f 35/23/10 64/1/25 66/42/25 37/21/10 
f 40/31/10 67/49/22 65/41/22 38/20/10 
f 37/21/10 66/42/25 68/50/25 39/30/10 
f 11/8/4 8/5/4 69/51/26 70/52/26 
f 8/5/4 7/4/4 71/53/26 69/51/26 
f 72/54/26 71/53/26 7/4/4 73/55/4 
f 7/4/4 10/7/4 74/56/4 73/55/4 
f 10/7/4 75/57/27 76/58/27 74/56/4 
f 10/7/4 9/6/4 77/59/27 75/57/27 
f 9/6/4 12/9/4 78/60/27 77/59/27 
f 79/61/28 80/62/29 81/63/4 82/64/30 
f 83/65/4 84/66/30 82/64/30 81/63/4 
f 85/67/31 86/68/32 84/66/30 83/65/4 
f 87/42/1 88/69/33 52/43/20 51/42/1 
f 89/70/34 90/33/13 42/33/13 41/32/12 
f 90/33/13 91/36/13 45/36/13 42/33/13 
f 91/36/13 92/71/35 47/38/16 45/36/13 
f 93/72/36 94/2/25 62/2/25 61/48/24 
f 94/2/25 95/1/25 64/1/25 62/2/25 
f 95/1/25 96/42/37 66/42/25 64/1/25 
f 96/42/37 97/50/37 68/50/25 66/42/25 
f 5/3/2 2/2/2 56/2/1 58/3/1 
f 2/2/2 1/1/1 54/1/1 56/2/1 
f 1/1/1 87/42/1 51/42/1 54/1/1 
f 98/73/38 99/70/39 100/70/5 101/73/40 
f 60/74/23 48/39/17 20/17/7 33/75/11 
f 52/76/20 41/32/12 14/11/5 21/77/8 
f 93/78/36 92/71/35 102/71/7 103/78/41 
f 33/75/11 20/17/7 19/16/7 34/79/11 
f 34/79/11 19/16/7 47/38/16 61/80/24 
f 21/77/8 14/11/5 13/10/5 22/81/8 
f 22/81/8 13/10/5 44/35/15 49/82/18 
f 88/83/33 89/70/34 41/32/12 52/84/20 
f 92/85/35 93/72/36 61/48/24 47/86/16 
f 80/62/29 78/60/27 12/9/4 81/63/4 
f 81/63/4 12/9/4 11/8/4 83/65/4 
f 83/65/4 11/8/4 70/52/26 85/67/31 
f 50/52/19 49/67/18 85/67/31 70/52/26 
f 49/67/18 44/68/15 86/68/32 85/67/31 
f 44/68/15 43/66/14 84/66/30 86/68/32 
f 43/66/14 46/64/14 82/64/30 84/66/30 
f 46/64/14 48/61/17 79/61/28 82/64/30 
f 48/61/17 60/62/23 80/62/29 79/61/28 
f 60/62/23 59/60/22 78/60/27 80/62/29 
f 59/60/22 63/59/22 77/59/27 78/60/27 
f 63/59/22 65/57/22 75/57/27 77/59/27 
f 65/57/22 67/58/22 76/58/27 75/57/27 
f 57/54/21 55/53/21 71/53/26 72/54/26 
f 55/53/21 53/51/21 69/51/26 71/53/26 
f 53/51/21 50/52/19 70/52/26 69/51/26 
f 88/69/33 87/42/1 104/42/3 101/69/40 
f 87/42/1 1/1/1 4/1/3 104/42/3 
f 105/72/42 106/2/43 107/2/10 103/72/41 
f 106/2/43 108/1/43 109/1/10 107/2/10 
f 108/1/43 110/42/44 111/42/10 109/1/10 
f 110/42/44 112/50/44 113/50/10 111/42/10 
f 114/4/45 115/7/45 116/6/45 117/5/45 
f 117/5/45 116/6/45 118/9/45 119/8/45 
f 120/10/46 121/13/6 122/12/6 123/11/46 
f 121/13/6 124/15/6 125/14/6 122/12/6 
f 124/15/6 126/17/7 127/16/7 125/14/6 
f 128/18/47 129/21/3 130/20/3 131/19/47 
f 129/21/3 132/23/3 133/22/3 130/20/3 
f 132/23/3 134/25/3 135/24/3 133/22/3 
f 134/25/3 136/27/3 137/26/3 135/24/3 
f 138/25/10 139/29/11 140/28/11 141/24/10 
f 142/23/10 138/25/10 141/24/10 143/22/10 
f 144/21/10 142/23/10 143/22/10 145/20/10 
f 146/30/10 144/21/10 145/20/10 147/31/10 
f 99/70/39 148/33/48 149/33/6 100/70/5 
f 148/33/48 150/36/48 151/36/6 149/33/6 
f 150/36/48 152/71/49 102/71/7 151/36/6 
f 123/11/46 122/12/6 153/33/48 154/32/50 
f 121/13/6 120/10/46 155/35/51 156/34/52 
f 122/12/6 125/14/6 157/36/48 153/33/48 
f 124/15/6 121/13/6 156/34/52 158/37/52 
f 125/14/6 127/16/7 159/38/53 157/36/48 
f 126/17/7 124/15/6 158/37/52 160/39/54 
f 131/19/47 130/20/3 161/41/55 162/40/56 
f 129/21/3 128/18/47 163/43/57 164/42/58 
f 130/20/3 133/22/3 165/44/55 161/41/55 
f 132/23/3 129/21/3 164/42/58 166/1/58 
f 133/22/3 135/24/3 167/45/55 165/44/55 
f 134/25/3 132/23/3 166/1/58 168/2/58 
f 135/24/3 137/26/3 169/46/55 167/45/55 
f 136/27/3 134/25/3 168/2/58 170/3/58 
f 141/24/10 140/28/11 171/47/59 172/45/60 
f 139/29/11 138/25/10 173/2/43 174/48/61 
f 143/22/10 141/24/10 172/45/60 175/44/60 
f 138/25/10 142/23/10 176/1/43 173/2/43 
f 145/20/10 143/22/10 175/44/60 177/41/60 
f 142/23/10 144/21/10 178/42/43 176/1/43 
f 147/31/10 145/20/10 177/41/60 179/49/60 
f 144/21/10 146/30/10 180/50/43 178/42/43 
f 119/8/45 181/52/62 182/51/62 117/5/45 
f 117/5/45 182/51/62 183/53/62 114/4/45 
f 184/54/62 185/55/45 114/4/45 183/53/62 
f 114/4/45 185/55/45 186/56/45 115/7/45 
f 115/7/45 186/56/45 187/58/63 188/57/63 
f 115/7/45 188/57/63 189/59/63 116/6/45 
f 116/6/45 189/59/63 190/60/63 118/9/45 
f 191/61/64 192/64/65 193/63/45 194/62/66 
f 195/65/45 193/63/45 192/64/65 196/66/65 
f 197/67/67 195/65/45 196/66/65 198/68/68 
f 199/42/58 164/42/58 163/43/57 98/69/38 
f 99/70/39 154/32/50 153/33/48 148/33/48 
f 148/33/48 153/33/48 157/36/48 150/36/48 
f 150/36/48 157/36/48 159/38/53 152/71/49 
f 105/72/42 174/48/61 173/2/43 106/2/43 
f 106/2/43 173/2/43 176/1/43 108/1/43 
f 108/1/43 176/1/43 178/42/43 110/42/44 
f 110/42/44 178/42/43 180/50/43 112/50/44 
f 200/3/69 170/3/58 168/2/58 201/2/69 
f 201/2/69 168/2/58 166/1/58 202/1/58 
f 202/1/58 166/1/58 164/42/58 199/42/58 
f 171/74/59 140/75/11 126/17/7 160/39/54 
f 163/76/57 128/77/47 123/11/46 154/32/50 
f 140/75/11 139/79/11 127/16/7 126/17/7 
f 139/79/11 174/80/61 159/38/53 127/16/7 
f 128/77/47 131/81/47 120/10/46 123/11/46 
f 131/81/47 162/82/56 155/35/51 120/10/46 
f 98/83/38 163/84/57 154/32/50 99/70/39 
f 152/85/49 159/86/53 174/48/61 105/72/42 
f 194/62/66 193/63/45 118/9/45 190/60/63 
f 193/63/45 195/65/45 119/8/45 118/9/45 
f 195/65/45 197/67/67 181/52/62 119/8/45 
f 161/52/55 181/52/62 197/67/67 162/67/56 
f 162/67/56 197/67/67 198/68/68 155/68/51 
f 155/68/51 198/68/68 196/66/65 156/66/52 
f 156/66/52 196/66/65 192/64/65 158/64/52 
f 158/64/52 192/64/65 191/61/64 160/61/54 
f 160/61/54 191/61/64 194/62/66 171/62/59 
f 171/62/59 194/62/66 190/60/63 172/60/60 
f 172/60/60 190/60/63 189/59/63 175/59/60 
f 175/59/60 189/59/63 188/57/63 177/57/60 
f 177/57/60 188/57/63 187/58/63 179/58/60 
f 169/54/55 184/54/62 183/53/62 167/53/55 
f 167/53/55 183/53/62 182/51/62 165/51/55 
f 165/51/55 182/51/62 181/52/62 161/52/55 
f 3/2/3 201/2/69 202/1/58 4/1/3 
f 6/3/3 200/3/69 201/2/69 3/2/3 
f 100/70/5 89/70/34 88/73/33 101/73/40 
f 102/71/7 152/71/49 105/78/42 103/78/41 
f 104/42/3 199/42/58 98/69/38 101/69/40 
f 4/1/3 202/1/58 199/42/58 104/42/3 
f 107/2/10 94/2/25 93/72/36 103/72/41 
f 109/1/10 95/1/25 94/2/25 107/2/10 
f 111/42/10 96/42/37 95/1/25 109/1/10 
f 113/50/10 97/50/37 96/42/37 111/42/10 
f 149/33/6 90/33/13 89/70/34 100/70/5 
f 151/36/6 91/36/13 90/33/13 149/33/6 
f 102/71/7 92/71/35 91/36/13 151/36/6 
# 186 polygons

