# 3ds Max Wavefront OBJ Exporter v0.97b - (c)2007 guruware
# File Created: 16.11.2019 17:10:19

#
# object level_wall_closed
#

v  19.7501 758.4833 193.0245
v  19.7501 617.1186 193.0245
v  182.7138 617.1186 193.0245
v  182.7138 758.4833 193.0245
v  205.8405 758.4833 184.5969
v  205.8405 617.1186 184.5969
v  394.0644 617.1186 184.5969
v  394.0644 758.4833 184.5969
v  582.2883 617.1186 184.5969
v  582.2883 758.4833 184.5969
v  605.4150 758.4833 193.0245
v  605.4150 617.1186 193.0245
v  816.7656 617.1186 193.0245
v  816.7656 758.4833 193.0245
v  182.7138 758.4833 -0.0000
v  182.7138 617.1185 -0.0000
v  19.7501 617.1185 -0.0000
v  19.7501 758.4833 -0.0000
v  394.0644 758.4833 8.4276
v  394.0644 617.1185 8.4276
v  205.8405 617.1185 8.4276
v  205.8405 758.4833 8.4276
v  582.2883 758.4833 8.4276
v  582.2883 617.1185 8.4276
v  816.7656 758.4833 -0.0000
v  816.7656 617.1185 -0.0000
v  605.4150 617.1185 -0.0000
v  605.4150 758.4833 -0.0000
v  205.8405 1234.2372 184.5969
v  394.0644 1234.2372 184.5969
v  394.0644 1234.2372 128.6830
v  205.8405 1234.2372 128.6830
v  582.2883 1234.2372 184.5969
v  582.2883 1234.2372 128.6830
v  605.4150 1234.2372 193.0245
v  816.7656 1234.2372 193.0245
v  816.7656 1234.2372 128.6830
v  605.4150 1234.2372 128.6830
v  394.0644 1234.2372 64.3415
v  205.8405 1234.2372 64.3415
v  582.2883 1234.2372 64.3415
v  816.7656 1234.2372 64.3414
v  605.4150 1234.2372 64.3414
v  394.0644 1234.2372 8.4276
v  205.8405 1234.2372 8.4276
v  582.2883 1234.2372 8.4276
v  816.7656 1234.2372 -0.0001
v  605.4150 1234.2372 -0.0001
v  182.7138 1105.5542 193.0245
v  182.7138 1169.8956 193.0245
v  19.7501 1169.8955 193.0245
v  19.7501 1105.5541 193.0245
v  394.0644 1105.5542 184.5969
v  394.0644 1169.8956 184.5969
v  205.8405 1169.8956 184.5969
v  205.8405 1105.5542 184.5969
v  582.2883 1105.5542 184.5969
v  582.2883 1169.8956 184.5969
v  816.7656 1105.5542 193.0245
v  816.7656 1169.8956 193.0245
v  605.4150 1169.8956 193.0245
v  605.4150 1105.5542 193.0245
v  19.7501 1105.5541 -0.0001
v  19.7501 1169.8955 -0.0001
v  182.7138 1169.8956 -0.0001
v  182.7138 1105.5541 -0.0001
v  205.8405 1105.5541 8.4276
v  205.8405 1169.8956 8.4276
v  394.0644 1169.8956 8.4276
v  394.0644 1105.5541 8.4276
v  582.2883 1169.8956 8.4276
v  582.2883 1105.5541 8.4276
v  605.4150 1105.5541 -0.0001
v  605.4150 1169.8956 -0.0001
v  816.7656 1169.8956 -0.0001
v  816.7656 1105.5541 -0.0001
v  0.0000 1105.5541 174.9015
v  0.0000 1169.8955 174.9015
v  0.0000 1169.8955 128.6830
v  0.0000 1105.5541 128.6830
v  20.3805 1105.5540 116.5785
v  20.3804 1169.8955 116.5785
v  20.3804 1169.8955 76.4459
v  20.3805 1105.5540 76.4459
v  0.0000 1105.5541 64.3415
v  0.0000 1169.8955 64.3414
v  0.0000 1169.8955 18.1229
v  0.0000 1105.5541 18.1229
v  182.7138 1041.2126 193.0245
v  19.7501 1041.2126 193.0245
v  394.0644 1041.2126 184.5969
v  205.8405 1041.2126 184.5969
v  582.2883 1041.2126 184.5969
v  816.7656 1041.2126 193.0245
v  605.4150 1041.2126 193.0245
v  19.7501 1041.2126 -0.0001
v  182.7138 1041.2126 -0.0001
v  205.8405 1041.2126 8.4276
v  394.0644 1041.2126 8.4276
v  582.2883 1041.2126 8.4276
v  605.4150 1041.2126 -0.0001
v  816.7656 1041.2126 -0.0001
v  0.0000 758.4833 174.9015
v  0.0000 1041.2126 174.9015
v  0.0000 1041.2126 128.6830
v  0.0000 758.4833 128.6830
v  20.3805 758.4832 116.5785
v  20.3805 1041.2125 116.5785
v  20.3805 1041.2125 76.4459
v  20.3805 758.4832 76.4459
v  0.0000 758.4833 64.3415
v  0.0000 1041.2126 64.3415
v  0.0000 1041.2126 18.1229
v  0.0000 758.4833 18.1230
v  182.7138 1234.2372 193.0245
v  19.7501 1234.2372 193.0245
v  19.7501 1234.2372 -0.0001
v  182.7138 1234.2372 -0.0001
v  0.0000 1234.2372 174.9015
v  0.0000 1234.2372 128.6830
v  20.3804 1234.2372 116.5785
v  20.3804 1234.2372 76.4459
v  0.0000 1234.2372 64.3414
v  0.0000 1234.2372 18.1229
v  0.0000 617.1186 174.9015
v  0.0000 617.1186 64.3415
v  20.3805 617.1186 76.4459
v  0.0000 617.1186 128.6830
v  20.3805 617.1186 116.5785
v  0.0000 617.1185 18.1230
v  182.7138 1234.2372 128.6830
v  182.7138 1234.2372 64.3414
v  19.7501 475.7539 193.0245
v  182.7138 475.7538 193.0245
v  205.8405 475.7538 184.5969
v  394.0644 475.7538 184.5969
v  582.2883 475.7538 184.5969
v  605.4150 475.7538 193.0245
v  816.7656 475.7538 193.0245
v  182.7138 475.7539 -0.0000
v  19.7501 475.7539 -0.0000
v  394.0644 475.7539 8.4276
v  205.8405 475.7539 8.4276
v  582.2883 475.7539 8.4276
v  816.7656 475.7539 -0.0000
v  605.4150 475.7539 -0.0000
v  205.8405 0.0001 184.5969
v  205.8405 0.0001 128.6830
v  394.0644 0.0001 128.6830
v  394.0644 0.0001 184.5969
v  582.2883 0.0001 128.6830
v  582.2883 0.0001 184.5969
v  605.4150 0.0000 193.0245
v  605.4150 0.0000 128.6830
v  816.7656 0.0000 128.6830
v  816.7656 0.0000 193.0245
v  205.8405 0.0001 64.3415
v  394.0644 0.0001 64.3415
v  582.2883 0.0001 64.3415
v  605.4150 0.0000 64.3415
v  816.7656 0.0000 64.3415
v  205.8405 0.0001 8.4276
v  394.0644 0.0001 8.4276
v  582.2883 0.0001 8.4276
v  605.4150 0.0000 -0.0000
v  816.7656 0.0000 -0.0000
v  182.7138 128.6830 193.0245
v  19.7501 128.6831 193.0245
v  19.7501 64.3416 193.0245
v  182.7138 64.3415 193.0245
v  394.0644 128.6830 184.5969
v  205.8405 128.6830 184.5969
v  205.8405 64.3415 184.5969
v  394.0644 64.3415 184.5969
v  582.2883 128.6830 184.5969
v  582.2883 64.3415 184.5969
v  816.7656 128.6830 193.0245
v  605.4150 128.6830 193.0245
v  605.4150 64.3415 193.0245
v  816.7656 64.3415 193.0245
v  19.7501 128.6830 -0.0000
v  182.7138 128.6830 -0.0000
v  182.7138 64.3415 -0.0000
v  19.7501 64.3416 -0.0000
v  205.8405 128.6830 8.4276
v  394.0644 128.6830 8.4276
v  394.0644 64.3415 8.4276
v  205.8405 64.3415 8.4276
v  582.2883 128.6830 8.4276
v  582.2883 64.3415 8.4276
v  605.4150 128.6830 -0.0000
v  816.7656 128.6830 -0.0000
v  816.7656 64.3415 -0.0000
v  605.4150 64.3415 -0.0000
v  0.0000 128.6831 174.9015
v  0.0000 128.6831 128.6830
v  0.0000 64.3416 128.6830
v  0.0000 64.3416 174.9015
v  20.3805 128.6832 116.5785
v  20.3805 128.6832 76.4460
v  20.3804 64.3417 76.4460
v  20.3804 64.3417 116.5785
v  0.0000 128.6831 64.3415
v  0.0000 128.6830 18.1230
v  0.0000 64.3416 18.1230
v  0.0000 64.3416 64.3415
v  19.7501 193.0245 193.0245
v  182.7138 193.0245 193.0245
v  205.8405 193.0245 184.5969
v  394.0644 193.0245 184.5969
v  582.2883 193.0245 184.5969
v  605.4150 193.0245 193.0245
v  816.7656 193.0245 193.0245
v  182.7138 193.0245 -0.0000
v  19.7501 193.0245 -0.0000
v  394.0644 193.0245 8.4276
v  205.8405 193.0245 8.4276
v  582.2883 193.0245 8.4276
v  816.7656 193.0245 -0.0000
v  605.4150 193.0245 -0.0000
v  0.0000 475.7539 174.9015
v  0.0000 475.7539 128.6830
v  0.0000 193.0245 128.6830
v  0.0000 193.0245 174.9015
v  20.3805 475.7539 116.5785
v  20.3805 475.7539 76.4459
v  20.3805 193.0246 76.4460
v  20.3805 193.0246 116.5785
v  0.0000 475.7539 64.3415
v  0.0000 475.7539 18.1230
v  0.0000 193.0245 18.1230
v  0.0000 193.0245 64.3415
v  19.7501 0.0000 193.0245
v  182.7138 0.0000 193.0245
v  182.7138 0.0000 -0.0000
v  19.7501 0.0000 -0.0000
v  0.0000 0.0000 128.6830
v  0.0000 0.0000 174.9015
v  20.3804 0.0000 76.4460
v  20.3804 0.0000 116.5785
v  0.0000 0.0000 18.1230
v  0.0000 0.0000 64.3415
v  182.7138 0.0000 128.6830
v  182.7138 0.0000 64.3415
# 244 vertices

vn -0.3827 0.0000 0.9239
vn 0.1879 0.0000 0.9822
vn 0.1879 -0.0000 0.9822
vn 0.0000 0.0000 1.0000
vn 0.0000 -0.0000 1.0000
vn -0.1879 0.0000 0.9822
vn -0.1879 -0.0000 0.9822
vn 0.1879 -0.0000 -0.9822
vn -0.3827 -0.0000 -0.9239
vn 0.0000 -0.0000 -1.0000
vn -0.1879 -0.0000 -0.9822
vn 0.1239 0.7519 0.6475
vn 0.0000 0.7071 0.7071
vn 0.0000 1.0000 -0.0000
vn -0.1239 0.7519 0.6475
vn -0.1400 0.6672 0.7316
vn 0.0000 0.7071 -0.7071
vn 0.1239 0.7519 -0.6475
vn -0.1239 0.7519 -0.6475
vn -0.1400 0.6672 -0.7316
vn -0.3827 -0.0000 0.9239
vn -0.9239 -0.0000 0.3827
vn -0.8785 -0.0000 -0.4778
vn -0.8785 -0.0000 0.4778
vn -0.9239 -0.0000 -0.3827
vn -0.9239 0.0000 0.3827
vn -0.8785 0.0000 -0.4778
vn -0.8785 0.0000 0.4778
vn 0.1400 0.6672 0.7316
vn -0.2971 0.6303 0.7173
vn -0.2971 0.6303 -0.7173
vn 0.1400 0.6672 -0.7316
vn -0.7173 0.6303 0.2971
vn -0.6936 0.6138 -0.3772
vn -0.4874 0.8319 -0.2652
vn -0.4874 0.8319 0.2651
vn -0.6936 0.6137 0.3773
vn -0.7173 0.6303 -0.2971
vn 0.1239 -0.7519 0.6475
vn 0.0000 -1.0000 0.0000
vn 0.0000 -0.7071 0.7071
vn -0.0000 -1.0000 0.0000
vn -0.1239 -0.7519 0.6475
vn -0.1400 -0.6672 0.7316
vn 0.1239 -0.7519 -0.6475
vn 0.0000 -0.7071 -0.7071
vn -0.1239 -0.7519 -0.6475
vn -0.1400 -0.6672 -0.7316
vn -0.0000 0.0000 1.0000
vn -0.3827 0.0000 -0.9239
vn -0.9239 0.0000 -0.3827
vn -0.2971 -0.6303 0.7173
vn 0.1399 -0.6672 0.7316
vn 0.1399 -0.6672 -0.7316
vn -0.2971 -0.6303 -0.7173
vn -0.6936 -0.6138 -0.3772
vn -0.7173 -0.6303 0.2971
vn -0.4874 -0.8319 0.2651
vn -0.4874 -0.8319 -0.2652
vn -0.7173 -0.6303 -0.2971
vn -0.6936 -0.6137 0.3773
# 61 vertex normals

vt 0.9730 0.4167 0.0000
vt 0.9730 0.5000 0.0000
vt 0.7500 0.5000 0.0000
vt 0.7500 0.4167 0.0000
vt 0.5000 0.5000 0.0000
vt 0.5000 0.4167 0.0000
vt 0.2500 0.5000 0.0000
vt 0.2500 0.4167 0.0000
vt 0.0000 0.5000 0.0000
vt 0.0000 0.4167 0.0000
vt 0.0270 0.5000 0.0000
vt 0.0270 0.4167 0.0000
vt 1.0000 0.4167 0.0000
vt 1.0000 0.5000 0.0000
vt 0.2500 0.0000 0.0000
vt 0.5000 0.0000 0.0000
vt 0.5000 0.3333 0.0000
vt 0.2500 0.3333 0.0000
vt 0.7500 0.0000 0.0000
vt 0.7500 0.3333 0.0000
vt 1.0000 0.0000 0.0000
vt 1.0000 0.3333 0.0000
vt 0.5000 0.6667 0.0000
vt 0.2500 0.6667 0.0000
vt 0.7500 0.6667 0.0000
vt 1.0000 0.6667 0.0000
vt 0.5000 1.0000 0.0000
vt 0.2500 1.0000 0.0000
vt 0.7500 1.0000 0.0000
vt 1.0000 1.0000 0.0000
vt 0.7500 0.1667 0.0000
vt 0.7500 0.0833 0.0000
vt 0.9730 0.0833 0.0000
vt 0.9730 0.1667 0.0000
vt 0.5000 0.1667 0.0000
vt 0.5000 0.0833 0.0000
vt 0.2500 0.1667 0.0000
vt 0.2500 0.0833 0.0000
vt 0.0000 0.1667 0.0000
vt 0.0000 0.0833 0.0000
vt 0.0270 0.1667 0.0000
vt 0.0270 0.0833 0.0000
vt 1.0000 0.0833 0.0000
vt 1.0000 0.1667 0.0000
vt 0.8333 0.0939 0.0000
vt 0.9167 0.0939 0.0000
vt 0.9167 0.3333 0.0000
vt 0.8333 0.3333 0.0000
vt 0.9167 0.6667 0.0000
vt 0.8333 0.6667 0.0000
vt 0.9167 0.9061 0.0000
vt 0.8333 0.9061 0.0000
vt 0.7500 0.2500 0.0000
vt 0.9730 0.2500 0.0000
vt 0.5000 0.2500 0.0000
vt 0.2500 0.2500 0.0000
vt 0.0000 0.2500 0.0000
vt 0.0270 0.2500 0.0000
vt 1.0000 0.2500 0.0000
vt 0.5833 0.0939 0.0000
vt 0.7500 0.0939 0.0000
vt 0.5833 0.3333 0.0000
vt 0.5833 0.6667 0.0000
vt 0.7500 0.9061 0.0000
vt 0.5833 0.9061 0.0000
vt 0.9730 0.0000 0.0000
vt 0.0000 0.0000 0.0000
vt 0.0270 0.0000 0.0000
vt 1.0000 0.0939 0.0000
vt 1.0000 0.9061 0.0000
vt 1.0000 -0.0039 0.0000
vt 0.9167 -0.0039 0.0000
vt 0.7500 0.0178 0.0000
vt 0.5833 0.0178 0.0000
vt 0.7500 1.0039 0.0000
vt 0.8333 1.0039 0.0000
vt 0.5000 0.0939 0.0000
vt 0.5000 0.0178 0.0000
vt 0.5833 0.9822 0.0000
vt 0.7500 0.9822 0.0000
vt 0.8333 -0.0039 0.0000
vt 0.7500 -0.0039 0.0000
vt 0.9167 1.0039 0.0000
vt 1.0000 1.0039 0.0000
vt 0.5000 0.9061 0.0000
vt 0.5000 0.9822 0.0000
# 86 texture coords

o level_wall_closed
g level_wall_closed
f 1/1/1 2/2/1 3/3/2 4/4/3 
f 5/4/3 6/3/2 7/5/4 8/6/5 
f 8/6/5 7/5/4 9/7/6 10/8/7 
f 11/8/7 12/7/6 13/9/4 14/10/5 
f 15/8/8 16/7/8 17/11/9 18/12/9 
f 19/6/10 20/5/10 21/7/8 22/8/8 
f 23/4/11 24/3/11 20/5/10 19/6/10 
f 25/13/10 26/14/10 27/3/11 28/4/11 
f 29/15/12 30/16/13 31/17/14 32/18/14 
f 30/16/13 33/19/15 34/20/14 31/17/14 
f 35/19/16 36/21/13 37/22/14 38/20/14 
f 32/18/14 31/17/14 39/23/14 40/24/14 
f 31/17/14 34/20/14 41/25/14 39/23/14 
f 38/20/14 37/22/14 42/26/14 43/25/14 
f 40/24/14 39/23/14 44/27/17 45/28/18 
f 39/23/14 41/25/14 46/29/19 44/27/17 
f 43/25/14 42/26/14 47/30/17 48/29/20 
f 49/31/2 50/32/2 51/33/21 52/34/21 
f 53/35/4 54/36/5 55/32/3 56/31/2 
f 57/37/6 58/38/7 54/36/5 53/35/4 
f 59/39/4 60/40/4 61/38/6 62/37/6 
f 63/41/9 64/42/9 65/38/8 66/37/8 
f 67/37/8 68/38/8 69/36/10 70/35/10 
f 70/35/10 69/36/10 71/32/11 72/31/11 
f 73/31/11 74/32/11 75/43/10 76/44/10 
f 77/45/22 78/46/22 79/47/23 80/48/23 
f 81/48/23 82/47/23 83/49/24 84/50/24 
f 85/50/24 86/49/24 87/51/25 88/52/25 
f 4/4/3 89/53/2 90/54/21 1/1/1 
f 8/6/5 91/55/4 92/53/2 5/4/3 
f 10/8/7 93/56/6 91/55/4 8/6/5 
f 14/10/5 94/57/4 95/56/6 11/8/7 
f 18/12/9 96/58/9 97/56/8 15/8/8 
f 22/8/8 98/56/8 99/55/10 19/6/10 
f 19/6/10 99/55/10 100/53/11 23/4/11 
f 28/4/11 101/53/11 102/59/10 25/13/10 
f 103/60/26 104/61/22 105/20/23 106/62/23 
f 107/62/27 108/20/23 109/25/28 110/63/28 
f 111/63/28 112/25/28 113/64/25 114/65/25 
f 50/32/2 115/19/29 116/66/30 51/33/21 
f 52/34/21 90/54/21 89/53/2 49/31/2 
f 54/36/5 30/16/13 29/19/12 55/32/3 
f 56/31/2 92/53/2 91/55/4 53/35/4 
f 58/38/7 33/15/15 30/16/13 54/36/5 
f 53/35/4 91/55/4 93/56/6 57/37/6 
f 60/40/4 36/67/13 35/15/16 61/38/6 
f 62/37/6 95/56/6 94/57/4 59/39/4 
f 64/42/9 117/68/31 118/15/32 65/38/8 
f 66/37/8 97/56/8 96/58/9 63/41/9 
f 68/38/8 45/15/18 44/16/17 69/36/10 
f 70/35/10 99/55/10 98/56/8 67/37/8 
f 69/36/10 44/16/17 46/19/19 71/32/11 
f 72/31/11 100/53/11 99/55/10 70/35/10 
f 74/32/11 48/19/20 47/21/17 75/43/10 
f 76/44/10 102/59/10 101/53/11 73/31/11 
f 78/46/22 119/69/33 120/22/34 79/47/23 
f 80/48/23 105/20/23 104/61/22 77/45/22 
f 82/47/23 121/22/35 122/26/36 83/49/24 
f 84/50/24 109/25/28 108/20/23 81/48/23 
f 86/49/24 123/26/37 124/70/38 87/51/25 
f 88/52/25 113/64/25 112/25/28 85/50/24 
f 116/71/30 119/69/33 78/46/22 51/72/21 
f 90/73/21 104/61/22 103/60/26 1/74/1 
f 96/75/9 113/64/25 88/52/25 63/76/9 
f 1/74/1 103/60/26 125/77/26 2/78/1 
f 18/79/9 114/65/25 113/64/25 96/80/9 
f 51/72/21 78/46/22 77/45/22 52/81/21 
f 52/81/21 77/45/22 104/61/22 90/82/21 
f 63/76/9 88/52/25 87/51/25 64/83/9 
f 64/83/9 87/51/25 124/70/38 117/84/31 
f 123/26/37 86/49/24 83/49/24 122/26/36 
f 86/49/24 85/50/24 84/50/24 83/49/24 
f 85/50/24 112/25/28 109/25/28 84/50/24 
f 112/25/28 111/63/28 110/63/28 109/25/28 
f 111/63/28 126/23/28 127/23/28 110/63/28 
f 106/62/23 105/20/23 108/20/23 107/62/27 
f 105/20/23 80/48/23 81/48/23 108/20/23 
f 80/48/23 79/47/23 82/47/23 81/48/23 
f 79/47/23 120/22/34 121/22/35 82/47/23 
f 125/77/26 103/60/26 106/62/23 128/17/23 
f 129/17/23 107/62/27 110/63/28 127/23/28 
f 126/23/28 111/63/28 114/65/25 130/85/25 
f 130/85/25 114/65/25 18/79/9 17/86/9 
f 128/17/23 106/62/23 107/62/27 129/17/23 
f 123/17/37 122/38/36 117/68/31 124/44/38 
f 121/37/35 120/15/34 119/43/33 116/66/30 
f 121/37/35 116/66/30 115/19/29 131/16/14 
f 122/38/36 121/37/35 131/16/14 132/20/14 
f 117/68/31 122/38/36 132/20/14 118/15/32 
f 133/1/1 134/4/2 3/3/2 2/2/1 
f 135/4/2 136/6/4 7/5/4 6/3/2 
f 136/6/4 137/8/6 9/7/6 7/5/4 
f 138/8/6 139/10/4 13/9/4 12/7/6 
f 140/8/8 141/12/9 17/11/9 16/7/8 
f 142/6/10 143/8/8 21/7/8 20/5/10 
f 144/4/11 142/6/10 20/5/10 24/3/11 
f 145/13/10 146/4/11 27/3/11 26/14/10 
f 147/15/39 148/18/40 149/17/40 150/16/41 
f 150/16/41 149/17/40 151/20/42 152/19/43 
f 153/19/44 154/20/42 155/22/40 156/21/41 
f 148/18/40 157/24/40 158/23/40 149/17/40 
f 149/17/40 158/23/40 159/25/42 151/20/42 
f 154/20/42 160/25/42 161/26/40 155/22/40 
f 157/24/40 162/28/45 163/27/46 158/23/40 
f 158/23/40 163/27/46 164/29/47 159/25/42 
f 160/25/42 165/29/48 166/30/46 161/26/40 
f 167/31/2 168/34/1 169/33/1 170/32/2 
f 171/35/49 172/31/3 173/32/2 174/36/49 
f 175/37/7 171/35/49 174/36/49 176/38/7 
f 177/39/4 178/37/7 179/38/7 180/40/4 
f 181/41/50 182/37/8 183/38/8 184/42/50 
f 185/37/8 186/35/10 187/36/10 188/38/8 
f 186/35/10 189/31/11 190/32/11 187/36/10 
f 191/31/11 192/44/10 193/43/10 194/32/11 
f 195/45/26 196/48/27 197/47/27 198/46/26 
f 199/48/27 200/50/28 201/49/28 202/47/27 
f 203/50/28 204/52/51 205/51/51 206/49/28 
f 134/4/2 133/1/1 207/54/1 208/53/2 
f 136/6/4 135/4/2 209/53/2 210/55/4 
f 137/8/6 136/6/4 210/55/4 211/56/6 
f 139/10/4 138/8/6 212/56/6 213/57/4 
f 141/12/9 140/8/8 214/56/8 215/58/9 
f 143/8/8 142/6/10 216/55/10 217/56/8 
f 142/6/10 144/4/11 218/53/11 216/55/10 
f 146/4/11 145/13/10 219/59/10 220/53/11 
f 221/60/26 222/62/23 223/20/23 224/61/26 
f 225/62/23 226/63/28 227/25/28 228/20/23 
f 229/63/28 230/65/25 231/64/25 232/25/28 
f 170/32/2 169/33/1 233/66/52 234/19/53 
f 168/34/1 167/31/2 208/53/2 207/54/1 
f 174/36/49 173/32/2 147/19/39 150/16/41 
f 172/31/3 171/35/49 210/55/4 209/53/2 
f 176/38/7 174/36/49 150/16/41 152/15/43 
f 171/35/49 175/37/7 211/56/6 210/55/4 
f 180/40/4 179/38/7 153/15/44 156/67/41 
f 178/37/7 177/39/4 213/57/4 212/56/6 
f 184/42/50 183/38/8 235/15/54 236/68/55 
f 182/37/8 181/41/50 215/58/9 214/56/8 
f 188/38/8 187/36/10 163/16/46 162/15/45 
f 186/35/10 185/37/8 217/56/8 216/55/10 
f 187/36/10 190/32/11 164/19/47 163/16/46 
f 189/31/11 186/35/10 216/55/10 218/53/11 
f 194/32/11 193/43/10 166/21/46 165/19/48 
f 192/44/10 191/31/11 220/53/11 219/59/10 
f 198/46/26 197/47/27 237/22/56 238/69/57 
f 196/48/27 195/45/26 224/61/26 223/20/23 
f 202/47/27 201/49/28 239/26/58 240/22/59 
f 200/50/28 199/48/27 228/20/23 227/25/28 
f 206/49/28 205/51/51 241/70/60 242/26/61 
f 204/52/51 203/50/28 232/25/28 231/64/25 
f 233/71/52 169/72/1 198/46/26 238/69/57 
f 207/73/1 133/74/1 221/60/26 224/61/26 
f 215/75/9 181/76/50 204/52/51 231/64/25 
f 133/74/1 2/78/1 125/77/26 221/60/26 
f 141/79/9 215/80/9 231/64/25 230/65/25 
f 169/72/1 168/81/1 195/45/26 198/46/26 
f 168/81/1 207/82/1 224/61/26 195/45/26 
f 181/76/50 184/83/50 205/51/51 204/52/51 
f 184/83/50 236/84/55 241/70/60 205/51/51 
f 242/26/61 239/26/58 201/49/28 206/49/28 
f 206/49/28 201/49/28 200/50/28 203/50/28 
f 203/50/28 200/50/28 227/25/28 232/25/28 
f 232/25/28 227/25/28 226/63/28 229/63/28 
f 229/63/28 226/63/28 127/23/28 126/23/28 
f 222/62/23 225/62/23 228/20/23 223/20/23 
f 223/20/23 228/20/23 199/48/27 196/48/27 
f 196/48/27 199/48/27 202/47/27 197/47/27 
f 197/47/27 202/47/27 240/22/59 237/22/56 
f 125/77/26 128/17/23 222/62/23 221/60/26 
f 129/17/23 127/23/28 226/63/28 225/62/23 
f 126/23/28 130/85/25 230/65/25 229/63/28 
f 130/85/25 17/86/9 141/79/9 230/65/25 
f 128/17/23 129/17/23 225/62/23 222/62/23 
f 242/17/61 241/44/60 236/68/55 239/38/58 
f 240/37/59 233/66/52 238/43/57 237/15/56 
f 240/37/59 243/16/40 234/19/53 233/66/52 
f 239/38/58 244/20/40 243/16/40 240/37/59 
f 236/68/55 235/15/54 244/20/40 239/38/58 
f 65/38/8 118/15/32 45/15/18 68/38/8 
f 118/28/32 132/24/14 40/24/14 45/28/18 
f 132/24/14 131/18/14 32/18/14 40/24/14 
f 131/18/14 115/15/29 29/15/12 32/18/14 
f 115/19/29 50/32/2 55/32/3 29/19/12 
f 50/32/2 49/31/2 56/31/2 55/32/3 
f 49/31/2 89/53/2 92/53/2 56/31/2 
f 89/53/2 4/4/3 5/4/3 92/53/2 
f 4/4/3 3/3/2 6/3/2 5/4/3 
f 3/3/2 134/4/2 135/4/2 6/3/2 
f 134/4/2 208/53/2 209/53/2 135/4/2 
f 208/53/2 167/31/2 172/31/3 209/53/2 
f 167/31/2 170/32/2 173/32/2 172/31/3 
f 170/32/2 234/19/53 147/19/39 173/32/2 
f 234/15/53 243/18/40 148/18/40 147/15/39 
f 243/18/40 244/24/40 157/24/40 148/18/40 
f 244/24/40 235/28/54 162/28/45 157/24/40 
f 235/15/54 183/38/8 188/38/8 162/15/45 
f 183/38/8 182/37/8 185/37/8 188/38/8 
f 182/37/8 214/56/8 217/56/8 185/37/8 
f 214/56/8 140/8/8 143/8/8 217/56/8 
f 140/8/8 16/7/8 21/7/8 143/8/8 
f 16/7/8 15/8/8 22/8/8 21/7/8 
f 15/8/8 97/56/8 98/56/8 22/8/8 
f 97/56/8 66/37/8 67/37/8 98/56/8 
f 66/37/8 65/38/8 68/38/8 67/37/8 
f 48/19/20 74/32/11 71/32/11 46/19/19 
f 74/32/11 73/31/11 72/31/11 71/32/11 
f 73/31/11 101/53/11 100/53/11 72/31/11 
f 101/53/11 28/4/11 23/4/11 100/53/11 
f 28/4/11 27/3/11 24/3/11 23/4/11 
f 27/3/11 146/4/11 144/4/11 24/3/11 
f 146/4/11 220/53/11 218/53/11 144/4/11 
f 220/53/11 191/31/11 189/31/11 218/53/11 
f 191/31/11 194/32/11 190/32/11 189/31/11 
f 194/32/11 165/19/48 164/19/47 190/32/11 
f 165/29/48 160/25/42 159/25/42 164/29/47 
f 160/25/42 154/20/42 151/20/42 159/25/42 
f 154/20/42 153/19/44 152/19/43 151/20/42 
f 153/15/44 179/38/7 176/38/7 152/15/43 
f 179/38/7 178/37/7 175/37/7 176/38/7 
f 178/37/7 212/56/6 211/56/6 175/37/7 
f 212/56/6 138/8/6 137/8/6 211/56/6 
f 138/8/6 12/7/6 9/7/6 137/8/6 
f 12/7/6 11/8/7 10/8/7 9/7/6 
f 11/8/7 95/56/6 93/56/6 10/8/7 
f 95/56/6 62/37/6 57/37/6 93/56/6 
f 62/37/6 61/38/6 58/38/7 57/37/6 
f 61/38/6 35/15/16 33/15/15 58/38/7 
f 35/19/16 38/20/14 34/20/14 33/19/15 
f 38/20/14 43/25/14 41/25/14 34/20/14 
f 43/25/14 48/29/20 46/29/19 41/25/14 
# 230 polygons

