# 3ds Max Wavefront OBJ Exporter v0.97b - (c)2007 guruware
# File Created: 16.11.2019 17:09:52

#
# object level_floor_closed
#

v  -400.8186 -193.0246 -0.0001
v  -400.8186 -193.0246 -290.9629
v  -211.3506 -193.0246 -290.9629
v  -211.3506 -193.0246 -0.0001
v  0.0000 -193.0246 -290.9629
v  0.0000 -193.0246 -0.0001
v  211.3506 -193.0246 -290.9629
v  211.3506 -193.0246 -0.0001
v  435.3761 -193.0246 -290.9629
v  435.3761 -193.0246 -0.0001
v  -400.8185 -193.0246 -563.1531
v  -211.3506 -193.0246 -563.1531
v  0.0000 -193.0246 -563.1531
v  211.3506 -193.0246 -563.1531
v  435.3760 -193.0246 -563.1531
v  -400.8186 -0.0000 -0.0001
v  -211.3506 -0.0000 -0.0001
v  -211.3506 -0.0000 -290.9629
v  -400.8186 -0.0000 -290.9629
v  0.0000 -0.0000 -0.0001
v  0.0000 -0.0000 -290.9629
v  211.3506 -0.0000 -0.0001
v  211.3506 -0.0000 -290.9629
v  435.3761 -0.0000 -0.0001
v  435.3761 -0.0000 -290.9629
v  -211.3506 -0.0000 -563.1531
v  -400.8185 -0.0000 -563.1531
v  0.0000 -0.0000 -563.1531
v  211.3506 -0.0000 -563.1531
v  435.3760 -0.0000 -563.1531
v  195.5050 -124.2155 -796.6000
v  -4.4564 -124.2155 -796.6000
v  -4.4564 -68.8091 -796.6000
v  195.5050 -68.8091 -796.6000
v  -204.4179 -124.2155 -796.6000
v  -204.4179 -68.8091 -796.6000
v  -435.3763 -184.5754 -710.6085
v  -435.3763 -184.5754 -646.2670
v  -435.3763 -128.6830 -646.2670
v  -435.3763 -128.6830 -710.6085
v  -422.7013 -172.9447 -290.9629
v  -422.7013 -172.9447 -0.0001
v  -422.7013 -128.6831 -0.0001
v  -422.7013 -128.6830 -290.9629
v  -435.3763 -64.3415 -646.2670
v  -435.3763 -64.3415 -710.6085
v  -422.7013 -64.3415 -0.0001
v  -422.7013 -64.3415 -290.9629
v  -435.3763 -8.4492 -646.2670
v  -435.3763 -8.4492 -710.6085
v  -422.7013 -20.0799 -0.0001
v  -422.7013 -20.0799 -290.9629
v  -413.4936 -204.6553 -646.2670
v  -413.4936 -204.6553 -710.6085
v  -211.3506 -204.6553 -710.6085
v  -211.3506 -204.6553 -646.2670
v  0.0000 -204.6553 -710.6085
v  0.0000 -204.6553 -646.2670
v  211.3506 -204.6553 -710.6085
v  211.3506 -204.6553 -646.2670
v  435.3763 -204.6553 -710.6085
v  435.3763 -204.6553 -646.2670
v  -211.3506 11.6308 -646.2670
v  -211.3506 11.6308 -710.6085
v  -413.4936 11.6308 -710.6085
v  -413.4936 11.6308 -646.2670
v  0.0000 11.6308 -646.2670
v  0.0000 11.6308 -710.6085
v  211.3506 11.6308 -646.2670
v  211.3506 11.6308 -710.6085
v  435.3763 11.6308 -646.2670
v  435.3763 11.6308 -710.6085
v  -422.7012 -172.9447 -563.1531
v  -422.7012 -128.6830 -563.1531
v  -422.7012 -64.3415 -563.1531
v  -422.7012 -20.0799 -563.1531
v  -435.3763 -184.5754 -581.9255
v  -435.3763 -128.6830 -581.9255
v  -435.3763 -128.6830 -774.9500
v  -435.3763 -184.5754 -774.9500
v  -435.3763 -64.3415 -581.9255
v  -435.3763 -64.3415 -774.9500
v  -435.3763 -8.4492 -581.9255
v  -435.3763 -8.4492 -774.9500
v  -413.4936 -204.6553 -774.9500
v  -211.3506 -204.6553 -774.9500
v  -211.3506 -204.6553 -581.9255
v  -413.4936 -204.6553 -581.9255
v  0.0000 -204.6553 -774.9500
v  0.0000 -204.6553 -581.9255
v  211.3506 -204.6553 -774.9500
v  211.3506 -204.6553 -581.9255
v  435.3763 -204.6553 -774.9500
v  435.3763 -204.6553 -581.9255
v  -211.3506 11.6308 -774.9500
v  -413.4936 11.6308 -774.9500
v  -413.4936 11.6308 -581.9255
v  -211.3506 11.6308 -581.9255
v  0.0000 11.6308 -774.9500
v  0.0000 11.6308 -581.9255
v  211.3506 11.6308 -774.9500
v  211.3506 11.6308 -581.9255
v  435.3763 11.6308 -774.9500
v  435.3763 11.6308 -581.9255
v  -4.4564 -189.6376 -796.6000
v  -204.4179 -189.6376 -796.6000
v  195.5050 -189.6376 -796.6000
v  435.3762 -189.6376 -796.6000
v  435.3762 -124.2155 -796.6000
v  435.3762 -68.8091 -796.6000
v  195.5050 -3.3870 -796.6000
v  435.3762 -3.3870 -796.6000
v  -4.4564 -3.3870 -796.6000
v  -204.4179 -3.3870 -796.6000
v  -416.3712 -20.6784 -796.6000
v  -395.6678 -3.3870 -796.6000
v  -395.6678 -68.8091 -796.6000
v  -416.3712 -68.8091 -796.6000
v  -395.6678 -124.2155 -796.6000
v  -416.3712 -124.2155 -796.6000
v  -395.6678 -189.6376 -796.6000
v  -416.3712 -172.3461 -796.6000
v  -211.3506 -193.0246 290.9628
v  -400.8186 -193.0246 290.9628
v  0.0000 -193.0246 290.9628
v  211.3507 -193.0246 290.9628
v  435.3761 -193.0246 290.9628
v  -211.3506 -193.0246 563.1530
v  -400.8185 -193.0246 563.1530
v  0.0000 -193.0246 563.1530
v  211.3506 -193.0246 563.1530
v  435.3760 -193.0246 563.1530
v  -400.8186 -0.0000 290.9628
v  -211.3506 -0.0000 290.9628
v  0.0000 -0.0000 290.9628
v  211.3507 -0.0000 290.9628
v  435.3761 -0.0000 290.9628
v  -400.8185 -0.0000 563.1530
v  -211.3506 -0.0000 563.1530
v  0.0000 -0.0000 563.1530
v  211.3506 -0.0000 563.1530
v  435.3760 -0.0000 563.1530
v  195.5050 -124.2155 796.5999
v  195.5050 -68.8091 796.5999
v  -4.4564 -68.8091 796.5999
v  -4.4564 -124.2155 796.5999
v  -204.4179 -68.8091 796.5999
v  -204.4179 -124.2155 796.5999
v  -435.3763 -184.5754 710.6084
v  -435.3763 -128.6831 710.6084
v  -435.3763 -128.6831 646.2669
v  -435.3763 -184.5754 646.2669
v  -422.7013 -172.9447 290.9628
v  -422.7013 -128.6831 290.9628
v  -435.3763 -64.3415 710.6084
v  -435.3763 -64.3415 646.2669
v  -422.7013 -64.3415 290.9628
v  -435.3763 -8.4492 710.6083
v  -435.3763 -8.4492 646.2669
v  -422.7013 -20.0799 290.9628
v  -413.4935 -204.6553 646.2669
v  -211.3506 -204.6553 646.2669
v  -211.3506 -204.6553 710.6083
v  -413.4935 -204.6553 710.6084
v  0.0000 -204.6553 646.2669
v  0.0000 -204.6553 710.6083
v  211.3506 -204.6553 646.2669
v  211.3506 -204.6553 710.6083
v  435.3763 -204.6553 646.2669
v  435.3763 -204.6553 710.6083
v  -211.3506 11.6308 646.2669
v  -413.4935 11.6308 646.2669
v  -413.4935 11.6308 710.6083
v  -211.3506 11.6308 710.6084
v  0.0000 11.6308 646.2669
v  0.0000 11.6308 710.6084
v  211.3506 11.6308 646.2669
v  211.3506 11.6308 710.6084
v  435.3763 11.6308 646.2669
v  435.3763 11.6308 710.6084
v  -422.7012 -172.9447 563.1530
v  -422.7012 -128.6831 563.1530
v  -422.7012 -64.3415 563.1530
v  -422.7012 -20.0799 563.1530
v  -435.3763 -128.6831 581.9254
v  -435.3763 -184.5754 581.9254
v  -435.3763 -184.5754 774.9499
v  -435.3763 -128.6831 774.9499
v  -435.3763 -64.3415 581.9254
v  -435.3763 -64.3415 774.9499
v  -435.3763 -8.4492 581.9254
v  -435.3763 -8.4492 774.9499
v  -211.3506 -204.6553 774.9499
v  -413.4935 -204.6553 774.9499
v  -413.4935 -204.6553 581.9254
v  -211.3506 -204.6553 581.9254
v  0.0000 -204.6553 774.9499
v  0.0000 -204.6553 581.9254
v  211.3506 -204.6553 774.9499
v  211.3506 -204.6553 581.9254
v  435.3763 -204.6553 774.9499
v  435.3763 -204.6553 581.9254
v  -413.4935 11.6308 774.9499
v  -211.3506 11.6308 774.9499
v  -211.3506 11.6308 581.9254
v  -413.4935 11.6308 581.9254
v  0.0000 11.6308 774.9499
v  0.0000 11.6308 581.9254
v  211.3506 11.6308 774.9499
v  211.3506 11.6308 581.9254
v  435.3763 11.6308 774.9499
v  435.3763 11.6308 581.9254
v  -204.4179 -189.6376 796.5999
v  -4.4564 -189.6376 796.5999
v  195.5050 -189.6376 796.5999
v  435.3762 -189.6376 796.5999
v  435.3762 -124.2155 796.5999
v  435.3762 -68.8091 796.5999
v  435.3762 -3.3870 796.5999
v  195.5050 -3.3870 796.5999
v  -4.4564 -3.3870 796.5999
v  -204.4179 -3.3870 796.5999
v  -416.3712 -20.6784 796.5999
v  -416.3712 -68.8091 796.5999
v  -395.6677 -68.8091 796.5999
v  -395.6677 -3.3870 796.5999
v  -395.6677 -124.2155 796.5999
v  -416.3712 -124.2155 796.5999
v  -395.6677 -189.6376 796.5999
v  -416.3712 -172.3461 796.5999
# 230 vertices

vn -0.3827 -0.9239 0.0000
vn -0.3827 -0.9239 -0.0000
vn 0.0000 -1.0000 -0.0000
vn -0.2979 -0.8276 0.4757
vn 0.0000 -0.9253 0.3792
vn -0.0000 -0.9253 0.3792
vn -0.3827 0.9239 0.0000
vn 0.0000 1.0000 -0.0000
vn -0.3827 0.9239 -0.0000
vn 0.0000 0.9253 0.3792
vn -0.2979 0.8276 0.4758
vn -0.0000 0.9253 0.3792
vn 0.0000 0.0000 -1.0000
vn -0.9239 -0.3827 -0.0000
vn -1.0000 0.0000 -0.0000
vn -0.9239 0.3827 -0.0000
vn -0.0000 -1.0000 -0.0000
vn -0.8276 -0.2980 0.4758
vn -0.9253 0.0000 0.3792
vn -0.8276 0.2979 0.4758
vn -0.8368 -0.3667 0.4065
vn -0.8987 0.0000 -0.4385
vn -0.8286 -0.3538 -0.4339
vn -0.8368 0.3667 0.4065
vn -0.8286 0.3538 -0.4339
vn -0.3632 -0.8253 -0.4324
vn -0.0000 -0.9143 -0.4051
vn -0.3667 -0.8368 0.4065
vn 0.0000 -0.9143 -0.4051
vn 0.0000 0.9143 -0.4051
vn -0.3632 0.8253 -0.4324
vn -0.3667 0.8368 0.4065
vn 0.0000 -0.3600 -0.9330
vn 0.0000 0.3600 -0.9330
vn -0.3325 0.1229 -0.9351
vn -0.0915 0.3629 -0.9273
vn -0.3254 0.0000 -0.9456
vn -0.0915 -0.3629 -0.9273
vn -0.3325 -0.1229 -0.9351
vn 0.0000 -0.9253 -0.3792
vn -0.2979 -0.8276 -0.4758
vn -0.0000 -0.9253 -0.3792
vn -0.2979 0.8276 -0.4758
vn 0.0000 0.9253 -0.3792
vn -0.0000 0.9253 -0.3792
vn 0.0000 0.0000 1.0000
vn -0.9239 -0.3826 -0.0000
vn -0.9239 -0.3827 0.0000
vn -1.0000 0.0000 0.0000
vn -0.9239 0.3827 0.0000
vn -0.3826 -0.9239 -0.0000
vn -0.8276 -0.2979 -0.4758
vn -0.9253 0.0000 -0.3792
vn -0.8276 0.2979 -0.4758
vn -0.8368 -0.3667 -0.4065
vn -0.8286 -0.3537 0.4340
vn -0.8987 0.0000 0.4385
vn -0.8368 0.3667 -0.4065
vn -0.8286 0.3538 0.4339
vn 0.0000 -0.9143 0.4051
vn -0.3631 -0.8253 0.4325
vn -0.3667 -0.8368 -0.4065
vn -0.3632 0.8253 0.4324
vn 0.0000 0.9143 0.4051
vn -0.3667 0.8368 -0.4065
vn 0.0000 -0.3600 0.9330
vn 0.0000 0.3600 0.9330
vn -0.3325 0.1229 0.9351
vn -0.3254 0.0000 0.9456
vn -0.0915 0.3629 0.9273
vn -0.0915 -0.3629 0.9273
vn -0.3325 -0.1229 0.9351
# 72 vertex normals

vt 0.9741 0.5000 0.0000
vt 0.9741 0.7500 0.0000
vt 0.7500 0.7500 0.0000
vt 0.7500 0.5000 0.0000
vt 0.5000 0.7500 0.0000
vt 0.5000 0.5000 0.0000
vt 0.2500 0.7500 0.0000
vt 0.2500 0.5000 0.0000
vt 0.0000 0.7500 0.0000
vt 0.0000 0.5000 0.0000
vt 0.9741 0.8750 0.0000
vt 0.7500 0.8750 0.0000
vt 0.5000 0.8750 0.0000
vt 0.2500 0.8750 0.0000
vt 0.0000 0.8750 0.0000
vt 0.0259 0.5000 0.0000
vt 0.0259 0.7500 0.0000
vt 1.0000 0.5000 0.0000
vt 1.0000 0.7500 0.0000
vt 0.0259 0.8750 0.0000
vt 1.0000 0.8750 0.0000
vt 0.2500 0.3333 0.0000
vt 0.5000 0.3333 0.0000
vt 0.5000 0.6667 0.0000
vt 0.2500 0.6667 0.0000
vt 0.7500 0.3333 0.0000
vt 0.7500 0.6667 0.0000
vt 0.0417 0.0881 0.0000
vt 0.0833 0.0881 0.0000
vt 0.0833 0.3333 0.0000
vt 0.0417 0.3333 0.0000
vt 0.2500 0.1040 0.0000
vt 0.5000 0.1040 0.0000
vt 0.0833 0.6667 0.0000
vt 0.0417 0.6667 0.0000
vt 0.0833 0.9119 0.0000
vt 0.0417 0.9119 0.0000
vt 0.5000 0.8960 0.0000
vt 0.2500 0.8960 0.0000
vt 0.9756 0.9167 0.0000
vt 0.9756 0.9583 0.0000
vt 0.7500 0.9583 0.0000
vt 0.7500 0.9167 0.0000
vt 0.5000 0.9583 0.0000
vt 0.5000 0.9167 0.0000
vt 0.2500 0.9583 0.0000
vt 0.2500 0.9167 0.0000
vt 0.0000 0.9583 0.0000
vt 0.0000 0.9167 0.0000
vt 0.0244 0.9583 0.0000
vt 0.0244 0.9167 0.0000
vt 1.0000 0.9167 0.0000
vt 1.0000 0.9583 0.0000
vt 0.1250 0.1040 0.0000
vt 0.1250 0.3333 0.0000
vt 0.1250 0.6667 0.0000
vt 0.1250 0.8960 0.0000
vt 0.1250 0.0881 0.0000
vt 0.0000 0.3333 0.0000
vt 0.0000 0.0881 0.0000
vt 0.0000 0.6667 0.0000
vt 0.1250 0.9119 0.0000
vt 0.0000 0.9119 0.0000
vt 0.9756 1.0000 0.0000
vt 0.7500 1.0000 0.0000
vt 0.9756 0.8750 0.0000
vt 0.5000 1.0000 0.0000
vt 0.2500 1.0000 0.0000
vt 0.0000 1.0000 0.0000
vt 0.0244 1.0000 0.0000
vt 0.0244 0.8750 0.0000
vt 1.0000 1.0000 0.0000
vt 0.5000 -0.0603 0.0000
vt 0.7500 -0.0603 0.0000
vt 0.2500 -0.0603 0.0000
vt -0.0150 -0.0603 0.0000
vt -0.0150 0.3333 0.0000
vt -0.0150 0.6667 0.0000
vt 0.2500 1.0603 0.0000
vt -0.0150 1.0603 0.0000
vt 0.5000 1.0603 0.0000
vt 0.7500 1.0603 0.0000
vt 1.0150 0.9562 0.0000
vt 0.9891 1.0603 0.0000
vt 0.9891 0.6667 0.0000
vt 1.0150 0.6667 0.0000
vt 0.9891 0.3333 0.0000
vt 1.0150 0.3333 0.0000
vt 0.9891 -0.0603 0.0000
vt 1.0150 0.0438 0.0000
vt 0.5000 0.0056 0.0000
vt 0.2500 0.0056 0.0000
vt 0.2500 0.0191 0.0000
vt 0.1250 0.0191 0.0000
vt 0.2500 0.9944 0.0000
vt 0.5000 0.9944 0.0000
vt 0.0000 0.9895 0.0000
vt 0.0417 0.9895 0.0000
vt 0.1250 0.0105 0.0000
vt 0.0833 0.0105 0.0000
vt 0.1250 0.9809 0.0000
vt 0.2500 0.9809 0.0000
vt 0.0833 0.9895 0.0000
vt 0.1250 0.9895 0.0000
vt 0.0417 0.0105 0.0000
vt 0.0000 0.0105 0.0000
vt 0.1250 0.0345 0.0000
vt 0.1250 0.0326 0.0000
vt 0.0780 0.8750 0.0000
vt 0.0661 0.8750 0.0000
# 110 texture coords

o level_floor_closed
g level_floor_closed
f 1/1/1 2/2/2 3/3/3 4/4/3 
f 4/4/3 3/3/3 5/5/3 6/6/3 
f 6/6/3 5/5/3 7/7/3 8/8/3 
f 8/8/3 7/7/3 9/9/3 10/10/3 
f 2/2/2 11/11/4 12/12/5 3/3/3 
f 3/3/3 12/12/5 13/13/5 5/5/3 
f 5/5/3 13/13/5 14/14/6 7/7/3 
f 7/7/3 14/14/6 15/15/6 9/9/3 
f 16/16/7 17/8/8 18/7/8 19/17/9 
f 17/8/8 20/6/8 21/5/8 18/7/8 
f 20/6/8 22/4/8 23/3/8 21/5/8 
f 22/4/8 24/18/8 25/19/8 23/3/8 
f 19/17/9 18/7/8 26/14/10 27/20/11 
f 18/7/8 21/5/8 28/13/10 26/14/10 
f 21/5/8 23/3/8 29/12/12 28/13/10 
f 23/3/8 25/19/8 30/21/12 29/12/12 
f 31/22/13 32/23/13 33/24/13 34/25/13 
f 32/23/13 35/26/13 36/27/13 33/24/13 
f 37/28/14 38/29/14 39/30/15 40/31/15 
f 41/32/14 42/33/14 43/23/15 44/22/15 
f 40/31/15 39/30/15 45/34/15 46/35/15 
f 44/22/15 43/23/15 47/24/15 48/25/15 
f 46/35/15 45/34/15 49/36/16 50/37/16 
f 48/25/15 47/24/15 51/38/16 52/39/16 
f 53/40/2 54/41/2 55/42/17 56/43/3 
f 56/43/3 55/42/17 57/44/3 58/45/3 
f 58/45/3 57/44/3 59/46/3 60/47/3 
f 60/47/3 59/46/3 61/48/3 62/49/3 
f 63/47/8 64/46/8 65/50/9 66/51/9 
f 67/45/8 68/44/8 64/46/8 63/47/8 
f 69/43/8 70/42/8 68/44/8 67/45/8 
f 71/52/8 72/53/8 70/42/8 69/43/8 
f 73/54/18 41/32/14 44/22/15 74/55/19 
f 74/55/19 44/22/15 48/25/15 75/56/19 
f 75/56/19 48/25/15 52/39/16 76/57/20 
f 38/29/14 77/58/21 78/55/19 39/30/15 
f 40/31/15 79/59/22 80/60/23 37/28/14 
f 39/30/15 78/55/19 81/56/19 45/34/15 
f 46/35/15 82/61/22 79/59/22 40/31/15 
f 45/34/15 81/56/19 83/62/24 49/36/16 
f 50/37/16 84/63/25 82/61/22 46/35/15 
f 54/41/2 85/64/26 86/65/27 55/42/17 
f 56/43/3 87/12/5 88/66/28 53/40/2 
f 55/42/17 86/65/27 89/67/29 57/44/3 
f 58/45/3 90/13/5 87/12/5 56/43/3 
f 57/44/3 89/67/29 91/68/29 59/46/3 
f 60/47/3 92/14/5 90/13/5 58/45/3 
f 59/46/3 91/68/29 93/69/29 61/48/3 
f 62/49/3 94/15/5 92/14/5 60/47/3 
f 64/46/8 95/68/30 96/70/31 65/50/9 
f 66/51/9 97/71/32 98/14/10 63/47/8 
f 68/44/8 99/67/30 95/68/30 64/46/8 
f 63/47/8 98/14/10 100/13/10 67/45/8 
f 70/42/8 101/65/30 99/67/30 68/44/8 
f 67/45/8 100/13/10 102/12/10 69/43/8 
f 72/53/8 103/72/30 101/65/30 70/42/8 
f 69/43/8 102/12/10 104/21/10 71/52/8 
f 35/26/13 32/23/13 105/73/33 106/74/33 
f 32/23/13 31/22/13 107/75/33 105/73/33 
f 108/76/33 107/75/33 31/22/13 109/77/13 
f 31/22/13 34/25/13 110/78/13 109/77/13 
f 34/25/13 111/79/34 112/80/34 110/78/13 
f 34/25/13 33/24/13 113/81/34 111/79/34 
f 33/24/13 36/27/13 114/82/34 113/81/34 
f 115/83/35 116/84/36 117/85/13 118/86/37 
f 119/87/13 120/88/37 118/86/37 117/85/13 
f 121/89/38 122/90/39 120/88/37 119/87/13 
f 12/12/5 11/11/4 88/66/28 87/12/5 
f 73/54/18 74/55/19 78/55/19 77/58/21 
f 74/55/19 75/56/19 81/56/19 78/55/19 
f 75/56/19 76/57/20 83/62/24 81/56/19 
f 27/20/11 26/14/10 98/14/10 97/71/32 
f 26/14/10 28/13/10 100/13/10 98/14/10 
f 28/13/10 29/12/12 102/12/10 100/13/10 
f 29/12/12 30/21/12 104/21/10 102/12/10 
f 15/15/6 14/14/6 92/14/5 94/15/5 
f 14/14/6 13/13/5 90/13/5 92/14/5 
f 13/13/5 12/12/5 87/12/5 90/13/5 
f 1/91/1 42/33/14 41/32/14 2/92/2 
f 2/93/2 41/32/14 73/54/18 11/94/4 
f 19/95/9 52/39/16 51/38/16 16/96/7 
f 96/97/31 84/63/25 50/37/16 65/98/9 
f 88/99/28 77/58/21 38/29/14 53/100/2 
f 27/101/11 76/57/20 52/39/16 19/102/9 
f 65/98/9 50/37/16 49/36/16 66/103/9 
f 66/103/9 49/36/16 83/62/24 97/104/32 
f 53/100/2 38/29/14 37/28/14 54/105/2 
f 54/105/2 37/28/14 80/60/23 85/106/26 
f 11/107/4 73/54/18 77/58/21 88/108/28 
f 76/109/20 27/20/11 97/71/32 83/110/24 
f 116/84/36 114/82/34 36/27/13 117/85/13 
f 117/85/13 36/27/13 35/26/13 119/87/13 
f 119/87/13 35/26/13 106/74/33 121/89/38 
f 86/74/27 85/89/26 121/89/38 106/74/33 
f 85/89/26 80/90/23 122/90/39 121/89/38 
f 80/90/23 79/88/22 120/88/37 122/90/39 
f 79/88/22 82/86/22 118/86/37 120/88/37 
f 82/86/22 84/83/25 115/83/35 118/86/37 
f 84/83/25 96/84/31 116/84/36 115/83/35 
f 96/84/31 95/82/30 114/82/34 116/84/36 
f 95/82/30 99/81/30 113/81/34 114/82/34 
f 99/81/30 101/79/30 111/79/34 113/81/34 
f 101/79/30 103/80/30 112/80/34 111/79/34 
f 93/76/29 91/75/29 107/75/33 108/76/33 
f 91/75/29 89/73/29 105/73/33 107/75/33 
f 89/73/29 86/74/27 106/74/33 105/73/33 
f 1/1/1 4/4/3 123/3/3 124/2/1 
f 4/4/3 6/6/3 125/5/3 123/3/3 
f 6/6/3 8/8/3 126/7/3 125/5/3 
f 8/8/3 10/10/3 127/9/3 126/7/3 
f 124/2/1 123/3/3 128/12/40 129/11/41 
f 123/3/3 125/5/3 130/13/40 128/12/40 
f 125/5/3 126/7/3 131/14/42 130/13/40 
f 126/7/3 127/9/3 132/15/42 131/14/42 
f 16/16/7 133/17/7 134/7/8 17/8/8 
f 17/8/8 134/7/8 135/5/8 20/6/8 
f 20/6/8 135/5/8 136/3/8 22/4/8 
f 22/4/8 136/3/8 137/19/8 24/18/8 
f 133/17/7 138/20/43 139/14/44 134/7/8 
f 134/7/8 139/14/44 140/13/44 135/5/8 
f 135/5/8 140/13/44 141/12/45 136/3/8 
f 136/3/8 141/12/45 142/21/45 137/19/8 
f 143/22/46 144/25/46 145/24/46 146/23/46 
f 146/23/46 145/24/46 147/27/46 148/26/46 
f 149/28/47 150/31/15 151/30/15 152/29/47 
f 153/32/48 154/22/49 43/23/15 42/33/14 
f 150/31/15 155/35/15 156/34/15 151/30/15 
f 154/22/49 157/25/49 47/24/15 43/23/15 
f 155/35/15 158/37/16 159/36/16 156/34/15 
f 157/25/49 160/39/50 51/38/16 47/24/15 
f 161/40/51 162/43/3 163/42/3 164/41/51 
f 162/43/3 165/45/3 166/44/3 163/42/3 
f 165/45/3 167/47/3 168/46/3 166/44/3 
f 167/47/3 169/49/3 170/48/3 168/46/3 
f 171/47/8 172/51/9 173/50/9 174/46/8 
f 175/45/8 171/47/8 174/46/8 176/44/8 
f 177/43/8 175/45/8 176/44/8 178/42/8 
f 179/52/8 177/43/8 178/42/8 180/53/8 
f 181/54/52 182/55/53 154/22/49 153/32/48 
f 182/55/53 183/56/53 157/25/49 154/22/49 
f 183/56/53 184/57/54 160/39/50 157/25/49 
f 152/29/47 151/30/15 185/55/53 186/58/55 
f 150/31/15 149/28/47 187/60/56 188/59/57 
f 151/30/15 156/34/15 189/56/53 185/55/53 
f 155/35/15 150/31/15 188/59/57 190/61/57 
f 156/34/15 159/36/16 191/62/58 189/56/53 
f 158/37/16 155/35/15 190/61/57 192/63/59 
f 164/41/51 163/42/3 193/65/60 194/64/61 
f 162/43/3 161/40/51 195/66/62 196/12/40 
f 163/42/3 166/44/3 197/67/60 193/65/60 
f 165/45/3 162/43/3 196/12/40 198/13/40 
f 166/44/3 168/46/3 199/68/60 197/67/60 
f 167/47/3 165/45/3 198/13/40 200/14/40 
f 168/46/3 170/48/3 201/69/60 199/68/60 
f 169/49/3 167/47/3 200/14/40 202/15/40 
f 174/46/8 173/50/9 203/70/63 204/68/64 
f 172/51/9 171/47/8 205/14/44 206/71/65 
f 176/44/8 174/46/8 204/68/64 207/67/64 
f 171/47/8 175/45/8 208/13/44 205/14/44 
f 178/42/8 176/44/8 207/67/64 209/65/64 
f 175/45/8 177/43/8 210/12/44 208/13/44 
f 180/53/8 178/42/8 209/65/64 211/72/64 
f 177/43/8 179/52/8 212/21/44 210/12/44 
f 148/26/46 213/74/66 214/73/66 146/23/46 
f 146/23/46 214/73/66 215/75/66 143/22/46 
f 216/76/66 217/77/46 143/22/46 215/75/66 
f 143/22/46 217/77/46 218/78/46 144/25/46 
f 144/25/46 218/78/46 219/80/67 220/79/67 
f 144/25/46 220/79/67 221/81/67 145/24/46 
f 145/24/46 221/81/67 222/82/67 147/27/46 
f 223/83/68 224/86/69 225/85/46 226/84/70 
f 227/87/46 225/85/46 224/86/69 228/88/69 
f 229/89/71 227/87/46 228/88/69 230/90/72 
f 128/12/40 196/12/40 195/66/62 129/11/41 
f 181/54/52 186/58/55 185/55/53 182/55/53 
f 182/55/53 185/55/53 189/56/53 183/56/53 
f 183/56/53 189/56/53 191/62/58 184/57/54 
f 138/20/43 206/71/65 205/14/44 139/14/44 
f 139/14/44 205/14/44 208/13/44 140/13/44 
f 140/13/44 208/13/44 210/12/44 141/12/45 
f 141/12/45 210/12/44 212/21/44 142/21/45 
f 132/15/42 202/15/40 200/14/40 131/14/42 
f 131/14/42 200/14/40 198/13/40 130/13/40 
f 130/13/40 198/13/40 196/12/40 128/12/40 
f 1/91/1 124/92/1 153/32/48 42/33/14 
f 124/93/1 129/94/41 181/54/52 153/32/48 
f 133/95/7 16/96/7 51/38/16 160/39/50 
f 203/97/63 173/98/9 158/37/16 192/63/59 
f 195/99/62 161/100/51 152/29/47 186/58/55 
f 138/101/43 133/102/7 160/39/50 184/57/54 
f 173/98/9 172/103/9 159/36/16 158/37/16 
f 172/103/9 206/104/65 191/62/58 159/36/16 
f 161/100/51 164/105/51 149/28/47 152/29/47 
f 164/105/51 194/106/61 187/60/56 149/28/47 
f 129/107/41 195/108/62 186/58/55 181/54/52 
f 184/109/54 191/110/58 206/71/65 138/20/43 
f 226/84/70 225/85/46 147/27/46 222/82/67 
f 225/85/46 227/87/46 148/26/46 147/27/46 
f 227/87/46 229/89/71 213/74/66 148/26/46 
f 193/74/60 213/74/66 229/89/71 194/89/61 
f 194/89/61 229/89/71 230/90/72 187/90/56 
f 187/90/56 230/90/72 228/88/69 188/88/57 
f 188/88/57 228/88/69 224/86/69 190/86/57 
f 190/86/57 224/86/69 223/83/68 192/83/59 
f 192/83/59 223/83/68 226/84/70 203/84/63 
f 203/84/63 226/84/70 222/82/67 204/82/64 
f 204/82/64 222/82/67 221/81/67 207/81/64 
f 207/81/64 221/81/67 220/79/67 209/79/64 
f 209/79/64 220/79/67 219/80/67 211/80/64 
f 201/76/60 216/76/66 215/75/66 199/75/60 
f 199/75/60 215/75/66 214/73/66 197/73/60 
f 197/73/60 214/73/66 213/74/66 193/74/60 
# 212 polygons

