# 3ds Max Wavefront OBJ Exporter v0.97b - (c)2007 guruware
# File Created: 07.12.2019 15:44:54

#
# object deco_chip
#

v  0.8602 0.9068 -0.0000
v  -0.0000 0.9068 -0.0000
v  -0.0000 -0.0000 -0.0000
v  0.8602 -0.0000 -0.0000
v  -0.8601 0.9068 -0.0000
v  -0.0000 0.9068 -0.2689
v  -0.8601 0.9068 -0.2689
v  -0.8601 -0.9068 -0.0000
v  -0.8601 -0.0000 -0.0000
v  -0.8601 -0.0000 -0.2689
v  -0.8601 -0.9068 -0.2689
v  0.8602 -0.9068 -0.0000
v  -0.0000 -0.9068 -0.0000
v  -0.0000 -0.9068 -0.2689
v  0.8602 -0.9068 -0.2689
v  0.8602 -0.0000 -0.2689
v  0.8602 0.9068 -0.2689
v  -0.5679 0.7805 -0.1463
v  -0.5679 0.9833 -0.1463
v  -0.7302 0.9833 -0.1463
v  -0.7302 0.7805 -0.1463
v  -0.7302 1.0746 -0.4288
v  -0.7302 0.8443 -0.4288
v  -0.5679 0.8443 -0.4288
v  -0.5679 1.0746 -0.4288
v  -0.5679 1.1321 -0.6723
v  -0.5679 1.3687 -0.6723
v  -0.5679 1.3687 -0.4753
v  -0.7302 1.3687 -0.6723
v  -0.7302 1.3687 -0.4753
v  -0.7302 1.1321 -0.6723
v  -0.7302 0.9017 -0.6723
v  -0.5679 0.9017 -0.6723
v  -0.2434 0.7805 -0.1463
v  -0.2434 0.9833 -0.1463
v  -0.4057 0.9833 -0.1463
v  -0.4057 0.7805 -0.1463
v  -0.4057 1.0746 -0.4288
v  -0.4057 0.8443 -0.4288
v  -0.2434 0.8443 -0.4288
v  -0.2434 1.0746 -0.4288
v  -0.2434 1.1321 -0.6723
v  -0.2434 1.3687 -0.6723
v  -0.2434 1.3687 -0.4753
v  -0.4057 1.3687 -0.6723
v  -0.4057 1.3687 -0.4753
v  -0.4057 1.1321 -0.6723
v  -0.4057 0.9017 -0.6723
v  -0.2434 0.9017 -0.6723
v  0.0811 0.7805 -0.1463
v  0.0811 0.9833 -0.1463
v  -0.0812 0.9833 -0.1463
v  -0.0812 0.7805 -0.1463
v  -0.0812 1.0746 -0.4288
v  -0.0812 0.8443 -0.4288
v  0.0811 0.8443 -0.4288
v  0.0811 1.0746 -0.4288
v  0.0811 1.1321 -0.6723
v  0.0811 1.3687 -0.6723
v  0.0811 1.3687 -0.4753
v  -0.0812 1.3687 -0.6723
v  -0.0812 1.3687 -0.4753
v  -0.0812 1.1321 -0.6723
v  -0.0812 0.9017 -0.6723
v  0.0811 0.9017 -0.6723
v  0.4057 0.7805 -0.1463
v  0.4057 0.9833 -0.1463
v  0.2434 0.9833 -0.1463
v  0.2434 0.7805 -0.1463
v  0.2434 1.0746 -0.4288
v  0.2434 0.8443 -0.4288
v  0.4057 0.8443 -0.4288
v  0.4057 1.0746 -0.4288
v  0.4057 1.1321 -0.6723
v  0.4057 1.3687 -0.6723
v  0.4057 1.3687 -0.4753
v  0.2434 1.3687 -0.6723
v  0.2434 1.3687 -0.4753
v  0.2434 1.1321 -0.6723
v  0.2434 0.9017 -0.6723
v  0.4057 0.9017 -0.6723
v  0.7302 0.7805 -0.1463
v  0.7302 0.9833 -0.1463
v  0.5679 0.9833 -0.1463
v  0.5679 0.7805 -0.1463
v  0.5679 1.0746 -0.4288
v  0.5679 0.8443 -0.4288
v  0.7302 0.8443 -0.4288
v  0.7302 1.0746 -0.4288
v  0.7302 1.1321 -0.6723
v  0.7302 1.3687 -0.6723
v  0.7302 1.3687 -0.4753
v  0.5679 1.3687 -0.6723
v  0.5679 1.3687 -0.4753
v  0.5679 1.1321 -0.6723
v  0.5679 0.9017 -0.6723
v  0.7302 0.9017 -0.6723
v  0.7319 0.5679 -0.1463
v  0.9347 0.5679 -0.1463
v  0.9347 0.7302 -0.1463
v  0.7319 0.7302 -0.1463
v  1.0260 0.7302 -0.4288
v  0.7957 0.7302 -0.4288
v  0.7957 0.5679 -0.4288
v  1.0260 0.5679 -0.4288
v  1.0835 0.5679 -0.6723
v  1.3201 0.5679 -0.6723
v  1.3201 0.5679 -0.4753
v  1.3201 0.7302 -0.6723
v  1.3201 0.7302 -0.4753
v  1.0835 0.7302 -0.6723
v  0.8531 0.7302 -0.6723
v  0.8531 0.5679 -0.6723
v  0.7319 0.2434 -0.1463
v  0.9347 0.2434 -0.1463
v  0.9347 0.4057 -0.1463
v  0.7319 0.4057 -0.1463
v  1.0260 0.4057 -0.4288
v  0.7957 0.4057 -0.4288
v  0.7957 0.2434 -0.4288
v  1.0260 0.2434 -0.4288
v  1.0835 0.2434 -0.6723
v  1.3201 0.2434 -0.6723
v  1.3201 0.2434 -0.4753
v  1.3201 0.4057 -0.6723
v  1.3201 0.4057 -0.4753
v  1.0835 0.4057 -0.6723
v  0.8531 0.4057 -0.6723
v  0.8531 0.2434 -0.6723
v  0.7319 -0.0811 -0.1463
v  0.9347 -0.0811 -0.1463
v  0.9347 0.0812 -0.1463
v  0.7319 0.0812 -0.1463
v  1.0260 0.0812 -0.4288
v  0.7957 0.0812 -0.4288
v  0.7957 -0.0811 -0.4288
v  1.0260 -0.0811 -0.4288
v  1.0835 -0.0811 -0.6723
v  1.3201 -0.0811 -0.6723
v  1.3201 -0.0811 -0.4753
v  1.3201 0.0812 -0.6723
v  1.3201 0.0812 -0.4753
v  1.0835 0.0812 -0.6723
v  0.8531 0.0812 -0.6723
v  0.8531 -0.0811 -0.6723
v  0.7319 -0.4057 -0.1463
v  0.9347 -0.4057 -0.1463
v  0.9347 -0.2434 -0.1463
v  0.7319 -0.2434 -0.1463
v  1.0260 -0.2434 -0.4288
v  0.7957 -0.2434 -0.4288
v  0.7957 -0.4057 -0.4288
v  1.0260 -0.4057 -0.4288
v  1.0835 -0.4057 -0.6723
v  1.3201 -0.4057 -0.6723
v  1.3201 -0.4057 -0.4753
v  1.3201 -0.2434 -0.6723
v  1.3201 -0.2434 -0.4753
v  1.0835 -0.2434 -0.6723
v  0.8531 -0.2434 -0.6723
v  0.8531 -0.4057 -0.6723
v  0.7319 -0.7302 -0.1463
v  0.9347 -0.7302 -0.1463
v  0.9347 -0.5679 -0.1463
v  0.7319 -0.5679 -0.1463
v  1.0260 -0.5679 -0.4288
v  0.7957 -0.5679 -0.4288
v  0.7957 -0.7302 -0.4288
v  1.0260 -0.7302 -0.4288
v  1.0835 -0.7302 -0.6723
v  1.3201 -0.7302 -0.6723
v  1.3201 -0.7302 -0.4753
v  1.3201 -0.5679 -0.6723
v  1.3201 -0.5679 -0.4753
v  1.0835 -0.5679 -0.6723
v  0.8531 -0.5679 -0.6723
v  0.8531 -0.7302 -0.6723
v  -0.7268 0.7302 -0.1463
v  -0.9296 0.7302 -0.1463
v  -0.9296 0.5679 -0.1463
v  -0.7268 0.5679 -0.1463
v  -1.0209 0.5679 -0.4288
v  -0.7906 0.5679 -0.4288
v  -0.7906 0.7302 -0.4288
v  -1.0209 0.7302 -0.4288
v  -1.0784 0.7302 -0.6723
v  -1.3150 0.7302 -0.6723
v  -1.3150 0.7302 -0.4753
v  -1.3150 0.5679 -0.6723
v  -1.3150 0.5679 -0.4753
v  -1.0784 0.5679 -0.6723
v  -0.8480 0.5679 -0.6723
v  -0.8480 0.7302 -0.6723
v  -0.7268 0.4057 -0.1463
v  -0.9296 0.4057 -0.1463
v  -0.9296 0.2434 -0.1463
v  -0.7268 0.2434 -0.1463
v  -1.0209 0.2434 -0.4288
v  -0.7906 0.2434 -0.4288
v  -0.7906 0.4057 -0.4288
v  -1.0209 0.4057 -0.4288
v  -1.0784 0.4057 -0.6723
v  -1.3150 0.4057 -0.6723
v  -1.3150 0.4057 -0.4753
v  -1.3150 0.2434 -0.6723
v  -1.3150 0.2434 -0.4753
v  -1.0784 0.2434 -0.6723
v  -0.8480 0.2434 -0.6723
v  -0.8480 0.4057 -0.6723
v  -0.7268 0.0812 -0.1463
v  -0.9296 0.0812 -0.1463
v  -0.9296 -0.0811 -0.1463
v  -0.7268 -0.0811 -0.1463
v  -1.0209 -0.0811 -0.4288
v  -0.7906 -0.0811 -0.4288
v  -0.7906 0.0812 -0.4288
v  -1.0209 0.0812 -0.4288
v  -1.0784 0.0812 -0.6723
v  -1.3150 0.0812 -0.6723
v  -1.3150 0.0812 -0.4753
v  -1.3150 -0.0811 -0.6723
v  -1.3150 -0.0811 -0.4753
v  -1.0784 -0.0811 -0.6723
v  -0.8480 -0.0811 -0.6723
v  -0.8480 0.0812 -0.6723
v  -0.7268 -0.2434 -0.1463
v  -0.9296 -0.2434 -0.1463
v  -0.9296 -0.4057 -0.1463
v  -0.7268 -0.4057 -0.1463
v  -1.0209 -0.4057 -0.4288
v  -0.7906 -0.4057 -0.4288
v  -0.7906 -0.2434 -0.4288
v  -1.0209 -0.2434 -0.4288
v  -1.0784 -0.2434 -0.6723
v  -1.3150 -0.2434 -0.6723
v  -1.3150 -0.2434 -0.4753
v  -1.3150 -0.4057 -0.6723
v  -1.3150 -0.4057 -0.4753
v  -1.0784 -0.4057 -0.6723
v  -0.8480 -0.4057 -0.6723
v  -0.8480 -0.2434 -0.6723
v  -0.7268 -0.5679 -0.1463
v  -0.9296 -0.5679 -0.1463
v  -0.9296 -0.7302 -0.1463
v  -0.7268 -0.7302 -0.1463
v  -1.0209 -0.7302 -0.4288
v  -0.7906 -0.7302 -0.4288
v  -0.7906 -0.5679 -0.4288
v  -1.0209 -0.5679 -0.4288
v  -1.0784 -0.5679 -0.6723
v  -1.3150 -0.5679 -0.6723
v  -1.3150 -0.5679 -0.4753
v  -1.3150 -0.7302 -0.6723
v  -1.3150 -0.7302 -0.4753
v  -1.0784 -0.7302 -0.6723
v  -0.8480 -0.7302 -0.6723
v  -0.8480 -0.5679 -0.6723
v  -0.7302 -0.7690 -0.1463
v  -0.7302 -0.9718 -0.1463
v  -0.5679 -0.9718 -0.1463
v  -0.5679 -0.7690 -0.1463
v  -0.5679 -1.0631 -0.4288
v  -0.5679 -0.8328 -0.4288
v  -0.7302 -0.8328 -0.4288
v  -0.7302 -1.0631 -0.4288
v  -0.7302 -1.1206 -0.6723
v  -0.7302 -1.3572 -0.6723
v  -0.7302 -1.3572 -0.4753
v  -0.5679 -1.3572 -0.6723
v  -0.5679 -1.3572 -0.4753
v  -0.5679 -1.1206 -0.6723
v  -0.5679 -0.8902 -0.6723
v  -0.7302 -0.8902 -0.6723
v  -0.4057 -0.7690 -0.1463
v  -0.4057 -0.9718 -0.1463
v  -0.2434 -0.9718 -0.1463
v  -0.2434 -0.7690 -0.1463
v  -0.2434 -1.0631 -0.4288
v  -0.2434 -0.8328 -0.4288
v  -0.4057 -0.8328 -0.4288
v  -0.4057 -1.0631 -0.4288
v  -0.4057 -1.1206 -0.6723
v  -0.4057 -1.3572 -0.6723
v  -0.4057 -1.3572 -0.4753
v  -0.2434 -1.3572 -0.6723
v  -0.2434 -1.3572 -0.4753
v  -0.2434 -1.1206 -0.6723
v  -0.2434 -0.8902 -0.6723
v  -0.4057 -0.8902 -0.6723
v  -0.0812 -0.7690 -0.1463
v  -0.0812 -0.9718 -0.1463
v  0.0812 -0.9718 -0.1463
v  0.0812 -0.7690 -0.1463
v  0.0812 -1.0631 -0.4288
v  0.0812 -0.8328 -0.4288
v  -0.0812 -0.8328 -0.4288
v  -0.0812 -1.0631 -0.4288
v  -0.0812 -1.1206 -0.6723
v  -0.0812 -1.3572 -0.6723
v  -0.0812 -1.3572 -0.4753
v  0.0812 -1.3572 -0.6723
v  0.0812 -1.3572 -0.4753
v  0.0812 -1.1206 -0.6723
v  0.0812 -0.8902 -0.6723
v  -0.0812 -0.8902 -0.6723
v  0.2434 -0.7690 -0.1463
v  0.2434 -0.9718 -0.1463
v  0.4057 -0.9718 -0.1463
v  0.4057 -0.7690 -0.1463
v  0.4057 -1.0631 -0.4288
v  0.4057 -0.8328 -0.4288
v  0.2434 -0.8328 -0.4288
v  0.2434 -1.0631 -0.4288
v  0.2434 -1.1206 -0.6723
v  0.2434 -1.3572 -0.6723
v  0.2434 -1.3572 -0.4753
v  0.4057 -1.3572 -0.6723
v  0.4057 -1.3572 -0.4753
v  0.4057 -1.1206 -0.6723
v  0.4057 -0.8902 -0.6723
v  0.2434 -0.8902 -0.6723
v  0.5679 -0.7690 -0.1463
v  0.5679 -0.9718 -0.1463
v  0.7302 -0.9718 -0.1463
v  0.7302 -0.7690 -0.1463
v  0.7302 -1.0631 -0.4288
v  0.7302 -0.8328 -0.4288
v  0.5679 -0.8328 -0.4288
v  0.5679 -1.0631 -0.4288
v  0.5679 -1.1206 -0.6723
v  0.5679 -1.3572 -0.6723
v  0.5679 -1.3572 -0.4753
v  0.7302 -1.3572 -0.6723
v  0.7302 -1.3572 -0.4753
v  0.7302 -1.1206 -0.6723
v  0.7302 -0.8902 -0.6723
v  0.5679 -0.8902 -0.6723
# 337 vertices

vn 0.5774 0.5774 0.5774
vn 0.0000 0.7071 0.7071
vn 0.0000 0.0000 1.0000
vn 0.7071 0.0000 0.7071
vn -0.5774 0.5774 0.5774
vn 0.0000 1.0000 -0.0000
vn -0.7071 0.7071 -0.0000
vn -0.5774 -0.5774 0.5774
vn -0.7071 0.0000 0.7071
vn -1.0000 0.0000 -0.0000
vn -0.7071 -0.7071 -0.0000
vn 0.5774 -0.5774 0.5774
vn 0.0000 -0.7071 0.7071
vn 0.0000 -1.0000 -0.0000
vn 0.7071 -0.7071 -0.0000
vn 1.0000 0.0000 -0.0000
vn 0.7071 0.7071 -0.0000
vn 0.6514 0.0000 0.7587
vn 0.5956 0.4727 0.6495
vn -0.5956 0.4727 0.6495
vn -0.6514 0.0000 0.7587
vn -0.8457 0.3468 0.4055
vn 0.8457 0.3468 0.4055
vn 0.5860 0.6161 0.5263
vn -0.5860 0.6161 0.5263
vn 0.0000 -0.6514 0.7587
vn 0.4727 -0.5956 0.6495
vn 0.4727 0.5956 0.6495
vn 0.0000 0.6514 0.7587
vn 0.3468 0.8457 0.4055
vn 0.3468 -0.8457 0.4055
vn 0.6161 -0.5860 0.5263
vn 0.6161 0.5860 0.5263
vn -0.4727 0.5956 0.6495
vn -0.4727 -0.5956 0.6495
vn -0.3468 -0.8457 0.4055
vn -0.3468 0.8457 0.4055
vn -0.6161 0.5860 0.5263
vn -0.6161 -0.5860 0.5263
vn -0.5956 -0.4727 0.6495
vn 0.5956 -0.4727 0.6495
vn 0.8457 -0.3468 0.4055
vn -0.8457 -0.3468 0.4055
vn -0.5860 -0.6161 0.5263
vn 0.5860 -0.6161 0.5263
# 45 vertex normals

vt 0.2293 0.9883 0.0000
vt 0.2035 0.9883 0.0000
vt 0.2035 0.9611 0.0000
vt 0.2293 0.9611 0.0000
vt 0.1777 0.9883 0.0000
vt 0.2035 0.9964 0.0000
vt 0.1777 0.9964 0.0000
vt 0.1777 0.9339 0.0000
vt 0.1777 0.9611 0.0000
vt 0.1696 0.9611 0.0000
vt 0.1696 0.9339 0.0000
vt 0.2293 0.9339 0.0000
vt 0.2035 0.9339 0.0000
vt 0.2035 0.9259 0.0000
vt 0.2293 0.9259 0.0000
vt 0.2373 0.9611 0.0000
vt 0.2373 0.9883 0.0000
vt 0.2293 0.9964 0.0000
vt 0.1777 0.9259 0.0000
vt 0.1696 0.9883 0.0000
vt 0.2373 0.9339 0.0000
vt 0.3842 0.3970 0.0000
vt 0.3846 0.3894 0.0000
vt 0.3899 0.3894 0.0000
vt 0.3903 0.3970 0.0000
vt 0.3956 0.3933 0.0000
vt 0.3911 0.3779 0.0000
vt 0.3983 0.3838 0.0000
vt 0.3789 0.3933 0.0000
vt 0.3762 0.3838 0.0000
vt 0.3833 0.3779 0.0000
vt 0.3759 0.3712 0.0000
vt 0.3786 0.3637 0.0000
vt 0.3846 0.3665 0.0000
vt 0.3842 0.3591 0.0000
vt 0.3903 0.3591 0.0000
vt 0.3898 0.3665 0.0000
vt 0.3986 0.3712 0.0000
vt 0.4034 0.3772 0.0000
vt 0.3710 0.3772 0.0000
vt 0.3958 0.3637 0.0000
# 41 texture coords

o deco_chip
g deco_chip
f 1/1/1 2/2/2 3/3/3 4/4/4 
f 5/5/5 2/2/2 6/6/6 7/7/7 
f 8/8/8 9/9/9 10/10/10 11/11/11 
f 12/12/12 13/13/13 14/14/14 15/15/15 
f 1/1/1 4/4/4 16/16/16 17/17/17 
f 2/2/2 5/5/5 9/9/9 3/3/3 
f 2/2/2 1/1/1 17/18/17 6/6/6 
f 13/13/13 8/8/8 11/19/11 14/14/14 
f 3/3/3 13/13/13 12/12/12 4/4/4 
f 9/9/9 5/5/5 7/20/7 10/10/10 
f 4/4/4 12/12/12 15/21/15 16/16/16 
f 9/9/9 8/8/8 13/13/13 3/3/3 
f 18/22/18 19/23/19 20/24/20 21/25/21 
f 21/26/21 20/24/20 22/27/22 23/28/10 
f 19/23/19 18/29/18 24/30/16 25/31/23 
f 25/31/23 26/32/16 27/33/17 28/34/24 
f 28/34/24 27/35/17 29/36/7 30/37/25 
f 22/27/22 31/38/10 32/39/10 23/28/10 
f 24/30/16 33/40/16 26/32/16 25/31/23 
f 30/37/25 29/41/7 31/38/10 22/27/22 
f 22/27/22 20/24/20 19/23/19 25/31/23 
f 30/37/25 22/27/22 25/31/23 28/34/24 
f 34/22/18 35/23/19 36/24/20 37/25/21 
f 37/26/21 36/24/20 38/27/22 39/28/10 
f 35/23/19 34/29/18 40/30/16 41/31/23 
f 41/31/23 42/32/16 43/33/17 44/34/24 
f 44/34/24 43/35/17 45/36/7 46/37/25 
f 38/27/22 47/38/10 48/39/10 39/28/10 
f 40/30/16 49/40/16 42/32/16 41/31/23 
f 46/37/25 45/41/7 47/38/10 38/27/22 
f 38/27/22 36/24/20 35/23/19 41/31/23 
f 46/37/25 38/27/22 41/31/23 44/34/24 
f 50/22/18 51/23/19 52/24/20 53/25/21 
f 53/26/21 52/24/20 54/27/22 55/28/10 
f 51/23/19 50/29/18 56/30/16 57/31/23 
f 57/31/23 58/32/16 59/33/17 60/34/24 
f 60/34/24 59/35/17 61/36/7 62/37/25 
f 54/27/22 63/38/10 64/39/10 55/28/10 
f 56/30/16 65/40/16 58/32/16 57/31/23 
f 62/37/25 61/41/7 63/38/10 54/27/22 
f 54/27/22 52/24/20 51/23/19 57/31/23 
f 62/37/25 54/27/22 57/31/23 60/34/24 
f 66/22/18 67/23/19 68/24/20 69/25/21 
f 69/26/21 68/24/20 70/27/22 71/28/10 
f 67/23/19 66/29/18 72/30/16 73/31/23 
f 73/31/23 74/32/16 75/33/17 76/34/24 
f 76/34/24 75/35/17 77/36/7 78/37/25 
f 70/27/22 79/38/10 80/39/10 71/28/10 
f 72/30/16 81/40/16 74/32/16 73/31/23 
f 78/37/25 77/41/7 79/38/10 70/27/22 
f 70/27/22 68/24/20 67/23/19 73/31/23 
f 78/37/25 70/27/22 73/31/23 76/34/24 
f 82/22/18 83/23/19 84/24/20 85/25/21 
f 85/26/21 84/24/20 86/27/22 87/28/10 
f 83/23/19 82/29/18 88/30/16 89/31/23 
f 89/31/23 90/32/16 91/33/17 92/34/24 
f 92/34/24 91/35/17 93/36/7 94/37/25 
f 86/27/22 95/38/10 96/39/10 87/28/10 
f 88/30/16 97/40/16 90/32/16 89/31/23 
f 94/37/25 93/41/7 95/38/10 86/27/22 
f 86/27/22 84/24/20 83/23/19 89/31/23 
f 94/37/25 86/27/22 89/31/23 92/34/24 
f 98/22/26 99/23/27 100/24/28 101/25/29 
f 101/26/29 100/24/28 102/27/30 103/28/6 
f 99/23/27 98/29/26 104/30/14 105/31/31 
f 105/31/31 106/32/14 107/33/15 108/34/32 
f 108/34/32 107/35/15 109/36/17 110/37/33 
f 102/27/30 111/38/6 112/39/6 103/28/6 
f 104/30/14 113/40/14 106/32/14 105/31/31 
f 110/37/33 109/41/17 111/38/6 102/27/30 
f 102/27/30 100/24/28 99/23/27 105/31/31 
f 110/37/33 102/27/30 105/31/31 108/34/32 
f 114/22/26 115/23/27 116/24/28 117/25/29 
f 117/26/29 116/24/28 118/27/30 119/28/6 
f 115/23/27 114/29/26 120/30/14 121/31/31 
f 121/31/31 122/32/14 123/33/15 124/34/32 
f 124/34/32 123/35/15 125/36/17 126/37/33 
f 118/27/30 127/38/6 128/39/6 119/28/6 
f 120/30/14 129/40/14 122/32/14 121/31/31 
f 126/37/33 125/41/17 127/38/6 118/27/30 
f 118/27/30 116/24/28 115/23/27 121/31/31 
f 126/37/33 118/27/30 121/31/31 124/34/32 
f 130/22/26 131/23/27 132/24/28 133/25/29 
f 133/26/29 132/24/28 134/27/30 135/28/6 
f 131/23/27 130/29/26 136/30/14 137/31/31 
f 137/31/31 138/32/14 139/33/15 140/34/32 
f 140/34/32 139/35/15 141/36/17 142/37/33 
f 134/27/30 143/38/6 144/39/6 135/28/6 
f 136/30/14 145/40/14 138/32/14 137/31/31 
f 142/37/33 141/41/17 143/38/6 134/27/30 
f 134/27/30 132/24/28 131/23/27 137/31/31 
f 142/37/33 134/27/30 137/31/31 140/34/32 
f 146/22/26 147/23/27 148/24/28 149/25/29 
f 149/26/29 148/24/28 150/27/30 151/28/6 
f 147/23/27 146/29/26 152/30/14 153/31/31 
f 153/31/31 154/32/14 155/33/15 156/34/32 
f 156/34/32 155/35/15 157/36/17 158/37/33 
f 150/27/30 159/38/6 160/39/6 151/28/6 
f 152/30/14 161/40/14 154/32/14 153/31/31 
f 158/37/33 157/41/17 159/38/6 150/27/30 
f 150/27/30 148/24/28 147/23/27 153/31/31 
f 158/37/33 150/27/30 153/31/31 156/34/32 
f 162/22/26 163/23/27 164/24/28 165/25/29 
f 165/26/29 164/24/28 166/27/30 167/28/6 
f 163/23/27 162/29/26 168/30/14 169/31/31 
f 169/31/31 170/32/14 171/33/15 172/34/32 
f 172/34/32 171/35/15 173/36/17 174/37/33 
f 166/27/30 175/38/6 176/39/6 167/28/6 
f 168/30/14 177/40/14 170/32/14 169/31/31 
f 174/37/33 173/41/17 175/38/6 166/27/30 
f 166/27/30 164/24/28 163/23/27 169/31/31 
f 174/37/33 166/27/30 169/31/31 172/34/32 
f 178/22/29 179/23/34 180/24/35 181/25/26 
f 181/26/26 180/24/35 182/27/36 183/28/14 
f 179/23/34 178/29/29 184/30/6 185/31/37 
f 185/31/37 186/32/6 187/33/7 188/34/38 
f 188/34/38 187/35/7 189/36/11 190/37/39 
f 182/27/36 191/38/14 192/39/14 183/28/14 
f 184/30/6 193/40/6 186/32/6 185/31/37 
f 190/37/39 189/41/11 191/38/14 182/27/36 
f 182/27/36 180/24/35 179/23/34 185/31/37 
f 190/37/39 182/27/36 185/31/37 188/34/38 
f 194/22/29 195/23/34 196/24/35 197/25/26 
f 197/26/26 196/24/35 198/27/36 199/28/14 
f 195/23/34 194/29/29 200/30/6 201/31/37 
f 201/31/37 202/32/6 203/33/7 204/34/38 
f 204/34/38 203/35/7 205/36/11 206/37/39 
f 198/27/36 207/38/14 208/39/14 199/28/14 
f 200/30/6 209/40/6 202/32/6 201/31/37 
f 206/37/39 205/41/11 207/38/14 198/27/36 
f 198/27/36 196/24/35 195/23/34 201/31/37 
f 206/37/39 198/27/36 201/31/37 204/34/38 
f 210/22/29 211/23/34 212/24/35 213/25/26 
f 213/26/26 212/24/35 214/27/36 215/28/14 
f 211/23/34 210/29/29 216/30/6 217/31/37 
f 217/31/37 218/32/6 219/33/7 220/34/38 
f 220/34/38 219/35/7 221/36/11 222/37/39 
f 214/27/36 223/38/14 224/39/14 215/28/14 
f 216/30/6 225/40/6 218/32/6 217/31/37 
f 222/37/39 221/41/11 223/38/14 214/27/36 
f 214/27/36 212/24/35 211/23/34 217/31/37 
f 222/37/39 214/27/36 217/31/37 220/34/38 
f 226/22/29 227/23/34 228/24/35 229/25/26 
f 229/26/26 228/24/35 230/27/36 231/28/14 
f 227/23/34 226/29/29 232/30/6 233/31/37 
f 233/31/37 234/32/6 235/33/7 236/34/38 
f 236/34/38 235/35/7 237/36/11 238/37/39 
f 230/27/36 239/38/14 240/39/14 231/28/14 
f 232/30/6 241/40/6 234/32/6 233/31/37 
f 238/37/39 237/41/11 239/38/14 230/27/36 
f 230/27/36 228/24/35 227/23/34 233/31/37 
f 238/37/39 230/27/36 233/31/37 236/34/38 
f 242/22/29 243/23/34 244/24/35 245/25/26 
f 245/26/26 244/24/35 246/27/36 247/28/14 
f 243/23/34 242/29/29 248/30/6 249/31/37 
f 249/31/37 250/32/6 251/33/7 252/34/38 
f 252/34/38 251/35/7 253/36/11 254/37/39 
f 246/27/36 255/38/14 256/39/14 247/28/14 
f 248/30/6 257/40/6 250/32/6 249/31/37 
f 254/37/39 253/41/11 255/38/14 246/27/36 
f 246/27/36 244/24/35 243/23/34 249/31/37 
f 254/37/39 246/27/36 249/31/37 252/34/38 
f 258/22/21 259/23/40 260/24/41 261/25/18 
f 261/26/18 260/24/41 262/27/42 263/28/16 
f 259/23/40 258/29/21 264/30/10 265/31/43 
f 265/31/43 266/32/10 267/33/11 268/34/44 
f 268/34/44 267/35/11 269/36/15 270/37/45 
f 262/27/42 271/38/16 272/39/16 263/28/16 
f 264/30/10 273/40/10 266/32/10 265/31/43 
f 270/37/45 269/41/15 271/38/16 262/27/42 
f 262/27/42 260/24/41 259/23/40 265/31/43 
f 270/37/45 262/27/42 265/31/43 268/34/44 
f 274/22/21 275/23/40 276/24/41 277/25/18 
f 277/26/18 276/24/41 278/27/42 279/28/16 
f 275/23/40 274/29/21 280/30/10 281/31/43 
f 281/31/43 282/32/10 283/33/11 284/34/44 
f 284/34/44 283/35/11 285/36/15 286/37/45 
f 278/27/42 287/38/16 288/39/16 279/28/16 
f 280/30/10 289/40/10 282/32/10 281/31/43 
f 286/37/45 285/41/15 287/38/16 278/27/42 
f 278/27/42 276/24/41 275/23/40 281/31/43 
f 286/37/45 278/27/42 281/31/43 284/34/44 
f 290/22/21 291/23/40 292/24/41 293/25/18 
f 293/26/18 292/24/41 294/27/42 295/28/16 
f 291/23/40 290/29/21 296/30/10 297/31/43 
f 297/31/43 298/32/10 299/33/11 300/34/44 
f 300/34/44 299/35/11 301/36/15 302/37/45 
f 294/27/42 303/38/16 304/39/16 295/28/16 
f 296/30/10 305/40/10 298/32/10 297/31/43 
f 302/37/45 301/41/15 303/38/16 294/27/42 
f 294/27/42 292/24/41 291/23/40 297/31/43 
f 302/37/45 294/27/42 297/31/43 300/34/44 
f 306/22/21 307/23/40 308/24/41 309/25/18 
f 309/26/18 308/24/41 310/27/42 311/28/16 
f 307/23/40 306/29/21 312/30/10 313/31/43 
f 313/31/43 314/32/10 315/33/11 316/34/44 
f 316/34/44 315/35/11 317/36/15 318/37/45 
f 310/27/42 319/38/16 320/39/16 311/28/16 
f 312/30/10 321/40/10 314/32/10 313/31/43 
f 318/37/45 317/41/15 319/38/16 310/27/42 
f 310/27/42 308/24/41 307/23/40 313/31/43 
f 318/37/45 310/27/42 313/31/43 316/34/44 
f 322/22/21 323/23/40 324/24/41 325/25/18 
f 325/26/18 324/24/41 326/27/42 327/28/16 
f 323/23/40 322/29/21 328/30/10 329/31/43 
f 329/31/43 330/32/10 331/33/11 332/34/44 
f 332/34/44 331/35/11 333/36/15 334/37/45 
f 326/27/42 335/38/16 336/39/16 327/28/16 
f 328/30/10 337/40/10 330/32/10 329/31/43 
f 334/37/45 333/41/15 335/38/16 326/27/42 
f 326/27/42 324/24/41 323/23/40 329/31/43 
f 334/37/45 326/27/42 329/31/43 332/34/44 
# 212 polygons

