# 3ds Max Wavefront OBJ Exporter v0.97b - (c)2007 guruware
# File Created: 07.12.2019 15:44:53

#
# object deco_cable_base
#

v  0.0000 -4.2831 -0.0000
v  0.0000 -4.2831 2.7971
v  0.0000 -3.5359 2.7971
v  0.0000 -3.5359 -0.0000
v  0.0000 -0.0000 -0.0000
v  0.0000 -0.0000 2.7971
v  1.1395 -0.0000 2.7971
v  1.1395 -0.0000 -0.0000
v  0.0000 -2.4026 4.2171
v  0.0000 -1.2013 4.2171
v  0.0000 -1.2013 2.7971
v  0.0000 -2.4026 2.7971
v  1.7568 -4.8053 4.2171
v  1.1395 -4.8053 4.2171
v  1.1395 -4.8053 2.7971
v  1.7568 -4.8053 2.7971
v  0.5222 -4.8053 4.2171
v  0.0000 -4.2831 4.2171
v  0.5222 -4.8053 2.7971
v  2.2790 -4.2831 4.2171
v  2.2790 -4.2831 2.7971
v  1.1395 -4.5904 4.2171
v  0.6112 -4.5904 4.2171
v  2.0641 -4.1941 4.2171
v  1.6678 -4.5904 4.2171
v  2.2790 -3.5359 4.2171
v  2.0641 -3.5359 4.2171
v  2.2790 -2.4026 4.2171
v  1.1395 -2.4026 4.2171
v  1.1395 -2.6175 4.2171
v  2.0641 -2.6175 4.2171
v  0.0000 -3.5359 4.2171
v  0.2149 -3.5359 4.2171
v  0.2149 -2.6175 4.2171
v  0.2149 -4.1941 4.2171
v  2.2790 -0.0000 4.2171
v  1.1395 -0.0000 4.2171
v  1.1395 -0.2149 4.2171
v  2.0641 -0.2149 4.2171
v  0.0000 -0.0000 4.2171
v  0.2149 -1.2013 4.2171
v  0.2149 -0.2149 4.2171
v  1.1395 -2.1877 4.2171
v  0.2149 -2.1877 4.2171
v  2.2790 -1.2013 4.2171
v  2.0641 -1.2013 4.2171
v  2.0641 -2.1877 4.2171
v  1.1395 -4.5904 2.5725
v  0.6112 -4.5904 2.5725
v  2.0641 -4.1941 2.5725
v  1.6678 -4.5904 2.5725
v  2.0641 -3.5359 2.5725
v  1.1395 -2.6175 2.5725
v  2.0641 -2.6175 2.5725
v  0.2149 -3.5359 2.5725
v  0.2149 -2.6175 2.5725
v  0.2149 -4.1941 2.5725
v  1.1395 -0.2149 2.5725
v  2.0641 -0.2149 2.5725
v  0.2149 -1.2013 2.5725
v  0.2149 -0.2149 2.5725
v  1.1395 -2.1877 2.5725
v  0.2149 -2.1877 2.5725
v  2.0641 -1.2013 2.5725
v  2.0641 -2.1877 2.5725
v  1.1395 -4.1941 2.5725
v  1.1395 -1.2013 2.5725
v  1.1395 -3.5359 2.5725
v  2.2790 -0.0236 2.7599
v  1.4690 -3.5359 2.5725
v  1.4060 -3.3422 2.5725
v  1.4060 -3.3422 3.6013
v  1.4690 -3.5359 3.6013
v  1.2413 -3.2226 2.5725
v  1.2413 -3.2226 3.6013
v  1.0377 -3.2226 2.5725
v  1.0377 -3.2226 3.6013
v  0.8730 -3.3422 2.5725
v  0.8730 -3.3422 3.6013
v  0.8101 -3.5359 2.5725
v  0.8101 -3.5359 3.6013
v  0.8730 -3.7295 2.5725
v  0.8730 -3.7295 3.6013
v  1.0377 -3.8491 2.5725
v  1.0377 -3.8492 3.6013
v  1.2413 -3.8491 2.5725
v  1.2413 -3.8492 3.6013
v  1.4060 -3.7295 2.5725
v  1.4060 -3.7295 3.6013
v  1.1395 -3.5359 3.6013
v  1.7259 0.2832 3.4554
v  2.2790 0.2832 3.4554
v  2.2790 0.2832 2.7227
v  1.7259 0.2832 2.7227
v  1.7259 -0.0473 4.0254
v  2.2790 -0.0473 4.0254
v  1.7259 -0.0473 2.7227
v  0.0000 -1.2013 -0.0000
v  0.0000 -2.4026 -0.0000
v  1.1395 -4.8053 -0.0000
v  1.7568 -4.8053 -0.0000
v  0.5222 -4.8053 -0.0000
v  2.2790 -4.2831 -0.0000
v  2.2790 -0.0000 -0.0000
v  1.4690 -1.2013 2.5725
v  1.4060 -1.0076 2.5725
v  1.4060 -1.0076 3.6013
v  1.4690 -1.2013 3.6013
v  1.2413 -0.8880 2.5725
v  1.2413 -0.8880 3.6013
v  1.0377 -0.8880 2.5725
v  1.0377 -0.8880 3.6013
v  0.8730 -1.0076 2.5725
v  0.8730 -1.0076 3.6013
v  0.8101 -1.2013 2.5725
v  0.8101 -1.2013 3.6013
v  0.8730 -1.3949 2.5725
v  0.8730 -1.3949 3.6013
v  1.0377 -1.5145 2.5725
v  1.0377 -1.5146 3.6013
v  1.2413 -1.5145 2.5725
v  1.2413 -1.5146 3.6013
v  1.4060 -1.3949 2.5725
v  1.4060 -1.3949 3.6013
v  1.1395 -1.2013 3.6013
v  4.5580 -4.2831 -0.0000
v  4.5580 -3.5359 -0.0000
v  4.5580 -3.5359 2.7971
v  4.5580 -4.2831 2.7971
v  4.5580 -0.0000 -0.0000
v  3.4185 -0.0000 -0.0000
v  3.4185 -0.0000 2.7971
v  4.5580 -0.0000 2.7971
v  4.5580 -2.4026 4.2171
v  4.5580 -2.4026 2.7971
v  4.5580 -1.2013 2.7971
v  4.5580 -1.2013 4.2171
v  2.8012 -4.8053 4.2171
v  2.8012 -4.8053 2.7971
v  3.4185 -4.8053 2.7971
v  3.4185 -4.8053 4.2171
v  4.0358 -4.8053 4.2171
v  4.0358 -4.8053 2.7971
v  4.5580 -4.2831 4.2171
v  3.9468 -4.5904 4.2171
v  3.4185 -4.5904 4.2171
v  2.8902 -4.5904 4.2171
v  2.4939 -4.1941 4.2171
v  2.4939 -3.5359 4.2171
v  2.4939 -2.6175 4.2171
v  3.4185 -2.6175 4.2171
v  3.4185 -2.4026 4.2171
v  4.3431 -2.6175 4.2171
v  4.3431 -3.5359 4.2171
v  4.5580 -3.5359 4.2171
v  4.3431 -4.1941 4.2171
v  2.4939 -0.2149 4.2171
v  3.4185 -0.2149 4.2171
v  3.4185 -0.0000 4.2171
v  4.5580 -0.0000 4.2171
v  4.3431 -0.2149 4.2171
v  4.3431 -1.2013 4.2171
v  4.3431 -2.1877 4.2171
v  3.4185 -2.1877 4.2171
v  2.4939 -2.1877 4.2171
v  2.4939 -1.2013 4.2171
v  3.9468 -4.5904 2.5725
v  3.4185 -4.5904 2.5725
v  2.8902 -4.5904 2.5725
v  2.4939 -4.1941 2.5725
v  2.4939 -3.5359 2.5725
v  2.4939 -2.6175 2.5725
v  3.4185 -2.6175 2.5725
v  4.3431 -2.6175 2.5725
v  4.3431 -3.5359 2.5725
v  4.3431 -4.1941 2.5725
v  2.4939 -0.2149 2.5725
v  3.4185 -0.2149 2.5725
v  4.3431 -0.2149 2.5725
v  4.3431 -1.2013 2.5725
v  4.3431 -2.1877 2.5725
v  3.4185 -2.1877 2.5725
v  2.4939 -2.1877 2.5725
v  2.4939 -1.2013 2.5725
v  3.4185 -4.1941 2.5725
v  3.4185 -1.2013 2.5725
v  3.4185 -3.5359 2.5725
v  3.0890 -3.5359 2.5725
v  3.0890 -3.5359 3.6013
v  3.1520 -3.3422 3.6013
v  3.1520 -3.3422 2.5725
v  3.3167 -3.2226 3.6013
v  3.3167 -3.2226 2.5725
v  3.5203 -3.2226 3.6013
v  3.5203 -3.2226 2.5725
v  3.6850 -3.3422 3.6013
v  3.6850 -3.3422 2.5725
v  3.7479 -3.5359 3.6013
v  3.7479 -3.5359 2.5725
v  3.6850 -3.7295 3.6013
v  3.6850 -3.7295 2.5725
v  3.5203 -3.8492 3.6013
v  3.5203 -3.8491 2.5725
v  3.3167 -3.8492 3.6013
v  3.3167 -3.8491 2.5725
v  3.1520 -3.7295 3.6013
v  3.1520 -3.7295 2.5725
v  3.4185 -3.5359 3.6013
v  2.8321 0.2832 3.4554
v  2.8321 0.2832 2.7227
v  2.8321 -0.0473 4.0254
v  2.8321 -0.0473 2.7227
v  4.5580 -2.4026 -0.0000
v  4.5580 -1.2013 -0.0000
v  2.8012 -4.8053 -0.0000
v  3.4185 -4.8053 -0.0000
v  4.0358 -4.8053 -0.0000
v  3.0890 -1.2013 2.5725
v  3.0890 -1.2013 3.6013
v  3.1520 -1.0076 3.6013
v  3.1520 -1.0076 2.5725
v  3.3167 -0.8880 3.6013
v  3.3167 -0.8880 2.5725
v  3.5203 -0.8880 3.6013
v  3.5203 -0.8880 2.5725
v  3.6850 -1.0076 3.6013
v  3.6850 -1.0076 2.5725
v  3.7479 -1.2013 3.6013
v  3.7479 -1.2013 2.5725
v  3.6850 -1.3949 3.6013
v  3.6850 -1.3949 2.5725
v  3.5203 -1.5146 3.6013
v  3.5203 -1.5145 2.5725
v  3.3167 -1.5146 3.6013
v  3.3167 -1.5145 2.5725
v  3.1520 -1.3949 3.6013
v  3.1520 -1.3949 2.5725
v  3.4185 -1.2013 3.6013
# 238 vertices

vn -0.9239 -0.3827 -0.0000
vn -1.0000 0.0000 -0.0000
vn -0.7071 0.7071 -0.0000
vn 0.0104 0.9999 -0.0000
vn 0.0000 1.0000 -0.0000
vn -0.7071 0.0000 0.7071
vn 0.2971 -0.7173 0.6303
vn 0.0000 -0.7071 0.7071
vn 0.0000 -1.0000 -0.0000
vn 0.3827 -0.9239 -0.0000
vn -0.2971 -0.7173 0.6303
vn -0.7173 -0.2971 0.6303
vn -0.3827 -0.9239 -0.0000
vn 0.0000 -0.4264 0.9046
vn 0.0001 -1.0000 -0.0000
vn 0.0000 0.7071 0.7071
vn 0.2275 0.5491 0.8042
vn -0.5491 0.2275 0.8042
vn -0.2275 0.5491 0.8042
vn 0.0000 0.0000 1.0000
vn -0.3015 -0.3015 0.9045
vn 0.7071 0.0000 0.7071
vn 0.3015 -0.3015 0.9045
vn 0.5491 0.2275 0.8042
vn 0.0000 0.7127 0.7014
vn -0.5774 0.5774 0.5774
vn 0.3015 0.3015 0.9045
vn -0.3015 0.3015 0.9045
vn 0.2971 0.7173 0.6303
vn -0.7173 0.2971 0.6303
vn -0.2971 0.7173 0.6303
vn -0.5774 -0.5774 0.5774
vn 0.5774 -0.5774 0.5774
vn 0.7173 0.2971 0.6303
vn 0.5774 0.5774 0.5774
vn 0.0000 0.8788 -0.4772
vn 1.0000 -0.0001 -0.0000
vn 0.8089 0.5880 -0.0000
vn 0.6190 0.4500 0.6437
vn 0.7653 -0.0001 0.6437
vn 0.3089 0.9511 -0.0000
vn 0.2364 0.7278 0.6437
vn -0.3089 0.9511 -0.0000
vn -0.2364 0.7278 0.6437
vn -0.8090 0.5878 -0.0000
vn -0.6191 0.4499 0.6437
vn -1.0000 -0.0001 -0.0000
vn -0.7652 -0.0001 0.6437
vn -0.8090 -0.5879 -0.0000
vn -0.6191 -0.4497 0.6438
vn -0.3089 -0.9511 -0.0001
vn -0.2365 -0.7278 0.6437
vn 0.3089 -0.9511 -0.0001
vn 0.2365 -0.7278 0.6437
vn 0.8088 -0.5881 -0.0000
vn 0.6190 -0.4498 0.6438
vn -0.6531 0.7313 0.1967
vn 0.0000 0.9657 0.2597
vn 0.0000 0.6633 -0.7484
vn -0.5774 0.5774 -0.5774
vn -0.3172 0.8204 0.4757
vn 0.0000 0.8651 0.5016
vn -0.6937 0.0000 -0.7203
vn 0.0000 1.0000 0.0086
vn 0.9239 -0.3826 -0.0000
vn 1.0000 0.0000 -0.0000
vn 0.7071 0.7071 -0.0000
vn -0.0104 0.9999 -0.0000
vn -0.3826 -0.9239 -0.0000
vn 0.3826 -0.9239 -0.0000
vn 0.7173 -0.2971 0.6303
vn -0.7653 -0.0001 0.6437
vn -0.6190 0.4500 0.6437
vn -0.8089 0.5880 -0.0000
vn 0.6191 0.4499 0.6437
vn 0.8090 0.5878 -0.0000
vn 0.7652 -0.0001 0.6437
vn 0.6191 -0.4497 0.6438
vn 0.8090 -0.5879 -0.0000
vn -0.6190 -0.4498 0.6438
vn -0.8088 -0.5881 -0.0000
vn 0.6531 0.7313 0.1967
vn 0.5774 0.5774 -0.5774
vn 0.3172 0.8204 0.4757
vn 0.6937 0.0000 -0.7203
# 85 vertex normals

vt 0.4893 0.8273 0.0000
vt 0.5620 0.8273 0.0000
vt 0.5620 0.8461 0.0000
vt 0.4893 0.8461 0.0000
vt 0.4893 0.9379 0.0000
vt 0.5620 0.9379 0.0000
vt 0.5620 0.9675 0.0000
vt 0.4893 0.9675 0.0000
vt 0.5991 0.8755 0.0000
vt 0.5991 0.9067 0.0000
vt 0.5620 0.9067 0.0000
vt 0.5620 0.8755 0.0000
vt 0.5991 0.7755 0.0000
vt 0.5991 0.7916 0.0000
vt 0.5620 0.7916 0.0000
vt 0.5620 0.7755 0.0000
vt 0.5991 0.8078 0.0000
vt 0.5991 0.8273 0.0000
vt 0.5620 0.8078 0.0000
vt 0.5991 0.7563 0.0000
vt 0.5620 0.7563 0.0000
vt 0.6142 0.8127 0.0000
vt 0.6292 0.8127 0.0000
vt 0.6292 0.8187 0.0000
vt 0.6142 0.8187 0.0000
vt 0.6441 0.8127 0.0000
vt 0.6589 0.8276 0.0000
vt 0.6532 0.8276 0.0000
vt 0.6441 0.8187 0.0000
vt 0.6589 0.8459 0.0000
vt 0.6532 0.8459 0.0000
vt 0.6589 0.8755 0.0000
vt 0.6291 0.8755 0.0000
vt 0.6291 0.8698 0.0000
vt 0.6532 0.8698 0.0000
vt 0.5991 0.8461 0.0000
vt 0.6048 0.8461 0.0000
vt 0.6048 0.8698 0.0000
vt 0.6048 0.8273 0.0000
vt 0.6589 0.9379 0.0000
vt 0.6291 0.9379 0.0000
vt 0.6291 0.9323 0.0000
vt 0.6533 0.9323 0.0000
vt 0.5991 0.9379 0.0000
vt 0.6048 0.9067 0.0000
vt 0.6048 0.9323 0.0000
vt 0.6291 0.8810 0.0000
vt 0.6048 0.8810 0.0000
vt 0.6589 0.9066 0.0000
vt 0.6533 0.9066 0.0000
vt 0.6533 0.8810 0.0000
vt 0.7071 0.5123 0.0000
vt 0.6934 0.5123 0.0000
vt 0.6934 0.4695 0.0000
vt 0.7071 0.4695 0.0000
vt 0.6796 0.5123 0.0000
vt 0.6651 0.5123 0.0000
vt 0.6650 0.4695 0.0000
vt 0.6796 0.4695 0.0000
vt 0.6265 0.4592 0.0000
vt 0.6265 0.4420 0.0000
vt 0.6693 0.4421 0.0000
vt 0.6693 0.4592 0.0000
vt 0.6693 0.3754 0.0000
vt 0.6934 0.3753 0.0000
vt 0.6934 0.4182 0.0000
vt 0.6693 0.4182 0.0000
vt 0.7602 0.4181 0.0000
vt 0.7603 0.4420 0.0000
vt 0.7175 0.4421 0.0000
vt 0.7174 0.4182 0.0000
vt 0.7217 0.5123 0.0000
vt 0.7217 0.4695 0.0000
vt 0.4172 0.7635 0.0000
vt 0.3931 0.7635 0.0000
vt 0.3931 0.7207 0.0000
vt 0.4172 0.7207 0.0000
vt 0.3262 0.7207 0.0000
vt 0.3262 0.6950 0.0000
vt 0.3690 0.6950 0.0000
vt 0.3690 0.7207 0.0000
vt 0.3690 0.6265 0.0000
vt 0.3931 0.6265 0.0000
vt 0.3931 0.6693 0.0000
vt 0.3690 0.6693 0.0000
vt 0.4600 0.6693 0.0000
vt 0.4600 0.6950 0.0000
vt 0.4172 0.6950 0.0000
vt 0.4172 0.6693 0.0000
vt 0.6934 0.4592 0.0000
vt 0.3931 0.6950 0.0000
vt 0.6934 0.4421 0.0000
vt 0.3262 0.6693 0.0000
vt 0.4600 0.7207 0.0000
vt 0.5991 0.9675 0.0000
vt 0.5991 0.9971 0.0000
vt 0.5620 0.9971 0.0000
vt 0.7174 0.3753 0.0000
vt 0.3690 0.7635 0.0000
vt 0.4172 0.6265 0.0000
vt 0.7175 0.4592 0.0000
vt 0.6265 0.4181 0.0000
vt 0.7603 0.4592 0.0000
vt 0.3608 0.2958 0.0000
vt 0.3684 0.2958 0.0000
vt 0.3684 0.3343 0.0000
vt 0.3608 0.3343 0.0000
vt 0.3761 0.2958 0.0000
vt 0.3761 0.3343 0.0000
vt 0.3837 0.2958 0.0000
vt 0.3837 0.3343 0.0000
vt 0.3913 0.2958 0.0000
vt 0.3913 0.3343 0.0000
vt 0.3989 0.2958 0.0000
vt 0.3989 0.3343 0.0000
vt 0.4066 0.2958 0.0000
vt 0.4066 0.3343 0.0000
vt 0.4142 0.2958 0.0000
vt 0.4142 0.3343 0.0000
vt 0.4218 0.2958 0.0000
vt 0.4218 0.3343 0.0000
vt 0.4294 0.2958 0.0000
vt 0.4294 0.3343 0.0000
vt 0.3532 0.2958 0.0000
vt 0.3532 0.3343 0.0000
vt 0.3988 0.3578 0.0000
vt 0.3911 0.3577 0.0000
vt 0.3950 0.3460 0.0000
vt 0.3850 0.3532 0.0000
vt 0.3827 0.3459 0.0000
vt 0.3851 0.3387 0.0000
vt 0.4051 0.3388 0.0000
vt 0.4074 0.3461 0.0000
vt 0.4050 0.3534 0.0000
vt 0.4302 0.3763 0.0000
vt 0.4095 0.3763 0.0000
vt 0.4095 0.3488 0.0000
vt 0.4302 0.3488 0.0000
vt 0.4302 0.4009 0.0000
vt 0.4095 0.4009 0.0000
vt 0.4426 0.3488 0.0000
vt 0.4426 0.3976 0.0000
vt 0.4893 0.9067 0.0000
vt 0.4893 0.8755 0.0000
vt 0.4893 0.7916 0.0000
vt 0.4893 0.7755 0.0000
vt 0.4893 0.8078 0.0000
vt 0.4893 0.7563 0.0000
vt 0.4893 0.9971 0.0000
vt 0.4095 0.3373 0.0000
vt 0.4302 0.3365 0.0000
vt 1.4893 0.8273 0.0000
vt 1.4893 0.8461 0.0000
vt 1.5620 0.8461 0.0000
vt 1.5620 0.8273 0.0000
vt 1.4893 0.9379 0.0000
vt 1.4893 0.9675 0.0000
vt 1.5620 0.9675 0.0000
vt 1.5620 0.9379 0.0000
vt 1.5991 0.8755 0.0000
vt 1.5620 0.8755 0.0000
vt 1.5620 0.9067 0.0000
vt 1.5991 0.9067 0.0000
vt 1.5991 0.7755 0.0000
vt 1.5620 0.7755 0.0000
vt 1.5620 0.7916 0.0000
vt 1.5991 0.7916 0.0000
vt 1.5991 0.8078 0.0000
vt 1.5620 0.8078 0.0000
vt 1.5991 0.8273 0.0000
vt 1.5991 0.7563 0.0000
vt 1.5620 0.7563 0.0000
vt 1.6142 0.8127 0.0000
vt 1.6142 0.8187 0.0000
vt 1.6292 0.8187 0.0000
vt 1.6292 0.8127 0.0000
vt 1.6441 0.8127 0.0000
vt 1.6441 0.8187 0.0000
vt 1.6532 0.8276 0.0000
vt 1.6589 0.8276 0.0000
vt 1.6532 0.8459 0.0000
vt 1.6589 0.8459 0.0000
vt 1.6589 0.8755 0.0000
vt 1.6532 0.8698 0.0000
vt 1.6291 0.8698 0.0000
vt 1.6291 0.8755 0.0000
vt 1.6048 0.8698 0.0000
vt 1.6048 0.8461 0.0000
vt 1.5991 0.8461 0.0000
vt 1.6048 0.8273 0.0000
vt 1.6589 0.9379 0.0000
vt 1.6533 0.9323 0.0000
vt 1.6291 0.9323 0.0000
vt 1.6291 0.9379 0.0000
vt 1.5991 0.9379 0.0000
vt 1.6048 0.9323 0.0000
vt 1.6048 0.9067 0.0000
vt 1.6048 0.8810 0.0000
vt 1.6291 0.8810 0.0000
vt 1.6533 0.8810 0.0000
vt 1.6533 0.9066 0.0000
vt 1.6589 0.9066 0.0000
vt 1.7071 0.5123 0.0000
vt 1.7071 0.4695 0.0000
vt 1.6934 0.4695 0.0000
vt 1.6934 0.5123 0.0000
vt 1.6796 0.5123 0.0000
vt 1.6796 0.4695 0.0000
vt 1.6650 0.4695 0.0000
vt 1.6651 0.5123 0.0000
vt 1.6265 0.4592 0.0000
vt 1.6693 0.4592 0.0000
vt 1.6693 0.4421 0.0000
vt 1.6265 0.4420 0.0000
vt 1.6693 0.3754 0.0000
vt 1.6693 0.4182 0.0000
vt 1.6934 0.4182 0.0000
vt 1.6934 0.3753 0.0000
vt 1.7602 0.4181 0.0000
vt 1.7174 0.4182 0.0000
vt 1.7175 0.4421 0.0000
vt 1.7603 0.4420 0.0000
vt 1.7217 0.5123 0.0000
vt 1.7217 0.4695 0.0000
vt 1.4172 0.7635 0.0000
vt 1.4172 0.7207 0.0000
vt 1.3931 0.7207 0.0000
vt 1.3931 0.7635 0.0000
vt 1.3262 0.7207 0.0000
vt 1.3690 0.7207 0.0000
vt 1.3690 0.6950 0.0000
vt 1.3262 0.6950 0.0000
vt 1.3690 0.6265 0.0000
vt 1.3690 0.6693 0.0000
vt 1.3931 0.6693 0.0000
vt 1.3931 0.6265 0.0000
vt 1.4600 0.6693 0.0000
vt 1.4172 0.6693 0.0000
vt 1.4172 0.6950 0.0000
vt 1.4600 0.6950 0.0000
vt 1.6934 0.4592 0.0000
vt 1.3931 0.6950 0.0000
vt 1.6934 0.4421 0.0000
vt 1.3262 0.6693 0.0000
vt 1.4600 0.7207 0.0000
vt 1.5991 0.9675 0.0000
vt 1.5620 0.9971 0.0000
vt 1.5991 0.9971 0.0000
vt 1.7174 0.3753 0.0000
vt 1.3690 0.7635 0.0000
vt 1.4172 0.6265 0.0000
vt 1.7175 0.4592 0.0000
vt 1.6265 0.4181 0.0000
vt 1.7603 0.4592 0.0000
vt 1.3608 0.2958 0.0000
vt 1.3608 0.3343 0.0000
vt 1.3684 0.3343 0.0000
vt 1.3684 0.2958 0.0000
vt 1.3761 0.3343 0.0000
vt 1.3761 0.2958 0.0000
vt 1.3837 0.3343 0.0000
vt 1.3837 0.2958 0.0000
vt 1.3913 0.3343 0.0000
vt 1.3913 0.2958 0.0000
vt 1.3989 0.3343 0.0000
vt 1.3989 0.2958 0.0000
vt 1.4066 0.3343 0.0000
vt 1.4066 0.2958 0.0000
vt 1.4142 0.3343 0.0000
vt 1.4142 0.2958 0.0000
vt 1.4218 0.3343 0.0000
vt 1.4218 0.2958 0.0000
vt 1.4294 0.3343 0.0000
vt 1.4294 0.2958 0.0000
vt 1.3532 0.2958 0.0000
vt 1.3532 0.3343 0.0000
vt 1.3988 0.3578 0.0000
vt 1.3950 0.3460 0.0000
vt 1.3911 0.3577 0.0000
vt 1.3850 0.3532 0.0000
vt 1.3827 0.3459 0.0000
vt 1.3851 0.3387 0.0000
vt 1.4051 0.3388 0.0000
vt 1.4074 0.3461 0.0000
vt 1.4050 0.3534 0.0000
vt 1.4302 0.3763 0.0000
vt 1.4302 0.3488 0.0000
vt 1.4095 0.3488 0.0000
vt 1.4095 0.3763 0.0000
vt 1.4302 0.4009 0.0000
vt 1.4095 0.4009 0.0000
vt 1.4426 0.3488 0.0000
vt 1.4426 0.3976 0.0000
vt 1.4893 0.8755 0.0000
vt 1.4893 0.9067 0.0000
vt 1.4893 0.7755 0.0000
vt 1.4893 0.7916 0.0000
vt 1.4893 0.8078 0.0000
vt 1.4893 0.7563 0.0000
vt 1.4893 0.9971 0.0000
vt 1.4095 0.3373 0.0000
vt 1.4302 0.3365 0.0000
# 302 texture coords

o deco_cable_base
g deco_cable_base
f 1/1/1 2/2/1 3/3/2 4/4/2 
f 5/5/3 6/6/3 7/7/4 8/8/5 
f 9/9/6 10/10/6 11/11/2 12/12/2 
f 13/13/7 14/14/8 15/15/9 16/16/10 
f 17/17/11 18/18/12 2/2/1 19/19/13 
f 20/20/14 13/13/7 16/16/10 21/21/15 
f 17/22/11 14/23/8 22/24/16 23/25/17 
f 13/26/7 20/27/14 24/28/18 25/29/19 
f 20/27/14 26/30/20 27/31/6 24/28/18 
f 28/32/20 29/33/20 30/34/8 31/35/21 
f 9/9/6 32/36/6 33/37/22 34/38/23 
f 18/18/12 17/22/11 23/25/17 35/39/24 
f 36/40/25 37/41/16 38/42/8 39/43/21 
f 40/44/26 10/10/6 41/45/22 42/46/23 
f 9/9/6 29/33/20 43/47/16 44/48/27 
f 28/32/20 45/49/20 46/50/6 47/51/28 
f 23/52/17 22/53/16 48/54/16 49/55/29 
f 25/56/19 24/57/18 50/58/30 51/59/31 
f 24/60/18 27/61/6 52/62/6 50/63/30 
f 31/64/21 30/65/8 53/66/8 54/67/32 
f 34/68/23 33/69/22 55/70/22 56/71/33 
f 35/72/24 23/52/17 49/55/29 57/73/34 
f 39/74/21 38/75/8 58/76/8 59/77/32 
f 42/78/23 41/79/22 60/80/22 61/81/33 
f 44/82/27 43/83/16 62/84/16 63/85/35 
f 47/86/28 46/87/6 64/88/6 65/89/26 
f 51/59/31 50/63/30 66/90/20 48/54/16 
f 61/81/33 60/80/22 67/91/20 58/76/8 
f 50/63/30 52/62/6 68/92/20 66/90/20 
f 10/10/6 40/44/26 6/6/3 11/11/2 
f 10/10/6 9/9/6 44/48/27 41/45/22 
f 45/49/20 36/40/25 39/43/21 46/50/6 
f 41/79/22 44/93/27 63/85/35 60/80/22 
f 46/87/6 39/94/21 59/77/32 64/88/6 
f 60/80/22 63/85/35 62/84/16 67/91/20 
f 37/95/16 36/96/25 69/97/36 7/7/4 
f 14/14/8 17/17/11 19/19/13 15/15/9 
f 14/23/8 13/26/7 25/29/19 22/24/16 
f 29/33/20 9/9/6 34/38/23 30/34/8 
f 37/41/16 40/44/26 42/46/23 38/42/8 
f 29/33/20 28/32/20 47/51/28 43/47/16 
f 22/53/16 25/56/19 51/59/31 48/54/16 
f 30/65/8 34/98/23 56/71/33 53/66/8 
f 38/75/8 42/99/23 61/81/33 58/76/8 
f 43/83/16 47/100/28 65/89/26 62/84/16 
f 66/90/20 57/101/34 49/55/29 48/54/16 
f 67/91/20 64/88/6 59/77/32 58/76/8 
f 53/66/8 56/71/33 55/70/22 68/92/20 
f 62/84/16 65/89/26 64/88/6 67/91/20 
f 32/36/6 9/9/6 12/12/2 3/3/2 
f 26/30/20 28/32/20 31/35/21 27/31/6 
f 32/36/6 18/18/12 35/39/24 33/37/22 
f 27/61/6 31/102/21 54/67/32 52/62/6 
f 33/69/22 35/103/24 57/101/34 55/70/22 
f 52/62/6 54/67/32 53/66/8 68/92/20 
f 55/70/22 57/101/34 66/90/20 68/92/20 
f 70/104/37 71/105/38 72/106/39 73/107/40 
f 71/105/38 74/108/41 75/109/42 72/106/39 
f 74/108/41 76/110/43 77/111/44 75/109/42 
f 76/110/43 78/112/45 79/113/46 77/111/44 
f 78/112/45 80/114/47 81/115/48 79/113/46 
f 80/114/47 82/116/49 83/117/50 81/115/48 
f 82/116/49 84/118/51 85/119/52 83/117/50 
f 84/118/51 86/120/53 87/121/54 85/119/52 
f 86/120/53 88/122/55 89/123/56 87/121/54 
f 88/124/55 70/104/37 73/107/40 89/125/56 
f 89/126/56 73/127/40 90/128/20 
f 73/127/40 72/129/39 90/128/20 
f 72/129/39 75/130/42 90/128/20 
f 75/130/42 77/131/44 90/128/20 
f 77/131/44 79/113/46 90/128/20 
f 79/113/46 81/115/48 90/128/20 
f 81/115/48 83/132/50 90/128/20 
f 83/132/50 85/133/52 90/128/20 
f 85/133/52 87/134/54 90/128/20 
f 87/134/54 89/126/56 90/128/20 
f 91/135/57 92/136/58 93/137/59 94/138/60 
f 95/139/61 96/140/62 92/136/58 91/135/57 
f 97/141/63 95/142/61 91/135/57 94/138/60 
f 2/2/1 18/18/12 32/36/6 3/3/2 
f 6/6/3 40/44/26 37/95/16 7/7/4 
f 11/11/2 98/143/2 99/144/2 12/12/2 
f 15/15/9 100/145/9 101/146/10 16/16/10 
f 2/2/1 1/1/1 102/147/13 19/19/13 
f 16/16/10 101/146/10 103/148/15 21/21/15 
f 6/6/3 5/5/3 98/143/2 11/11/2 
f 69/97/36 104/149/64 8/8/5 7/7/4 
f 19/19/13 102/147/13 100/145/9 15/15/9 
f 12/12/2 99/144/2 4/4/2 3/3/2 
f 69/150/36 97/151/63 94/138/60 93/137/59 
f 105/104/37 106/105/38 107/106/39 108/107/40 
f 106/105/38 109/108/41 110/109/42 107/106/39 
f 109/108/41 111/110/43 112/111/44 110/109/42 
f 111/110/43 113/112/45 114/113/46 112/111/44 
f 113/112/45 115/114/47 116/115/48 114/113/46 
f 115/114/47 117/116/49 118/117/50 116/115/48 
f 117/116/49 119/118/51 120/119/52 118/117/50 
f 119/118/51 121/120/53 122/121/54 120/119/52 
f 121/120/53 123/122/55 124/123/56 122/121/54 
f 123/124/55 105/104/37 108/107/40 124/125/56 
f 124/126/56 108/127/40 125/128/20 
f 108/127/40 107/129/39 125/128/20 
f 107/129/39 110/130/42 125/128/20 
f 110/130/42 112/131/44 125/128/20 
f 112/131/44 114/113/46 125/128/20 
f 114/113/46 116/115/48 125/128/20 
f 116/115/48 118/132/50 125/128/20 
f 118/132/50 120/133/52 125/128/20 
f 120/133/52 122/134/54 125/128/20 
f 122/134/54 124/126/56 125/128/20 
f 126/152/65 127/153/66 128/154/66 129/155/65 
f 130/156/67 131/157/5 132/158/68 133/159/67 
f 134/160/22 135/161/66 136/162/66 137/163/22 
f 138/164/11 139/165/69 140/166/9 141/167/8 
f 142/168/7 143/169/70 129/155/65 144/170/71 
f 20/171/14 21/172/15 139/165/69 138/164/11 
f 142/173/7 145/174/19 146/175/16 141/176/8 
f 138/177/11 147/178/17 148/179/24 20/180/14 
f 20/180/14 148/179/24 149/181/22 26/182/20 
f 28/183/20 150/184/23 151/185/8 152/186/20 
f 134/160/22 153/187/21 154/188/6 155/189/22 
f 144/170/71 156/190/18 145/174/19 142/173/7 
f 36/191/25 157/192/23 158/193/8 159/194/16 
f 160/195/35 161/196/21 162/197/6 137/163/22 
f 134/160/22 163/198/28 164/199/16 152/186/20 
f 28/183/20 165/200/27 166/201/22 45/202/20 
f 145/203/19 167/204/31 168/205/16 146/206/16 
f 147/207/17 169/208/29 170/209/34 148/210/24 
f 148/211/24 170/212/34 171/213/22 149/214/22 
f 150/215/23 172/216/33 173/217/8 151/218/8 
f 153/219/21 174/220/32 175/221/6 154/222/6 
f 156/223/18 176/224/30 167/204/31 145/203/19 
f 157/225/23 177/226/33 178/227/8 158/228/8 
f 161/229/21 179/230/32 180/231/6 162/232/6 
f 163/233/28 181/234/26 182/235/16 164/236/16 
f 165/237/27 183/238/35 184/239/22 166/240/22 
f 169/208/29 168/205/16 185/241/20 170/212/34 
f 179/230/32 178/227/8 186/242/20 180/231/6 
f 170/212/34 185/241/20 187/243/20 171/213/22 
f 137/163/22 136/162/66 133/159/67 160/195/35 
f 137/163/22 162/197/6 163/198/28 134/160/22 
f 45/202/20 166/201/22 157/192/23 36/191/25 
f 162/232/6 180/231/6 181/234/26 163/244/28 
f 166/240/22 184/239/22 177/226/33 157/245/23 
f 180/231/6 186/242/20 182/235/16 181/234/26 
f 159/246/16 132/158/68 69/247/36 36/248/25 
f 141/167/8 140/166/9 143/169/70 142/168/7 
f 141/176/8 146/175/16 147/178/17 138/177/11 
f 152/186/20 151/185/8 153/187/21 134/160/22 
f 159/194/16 158/193/8 161/196/21 160/195/35 
f 152/186/20 164/199/16 165/200/27 28/183/20 
f 146/206/16 168/205/16 169/208/29 147/207/17 
f 151/218/8 173/217/8 174/220/32 153/249/21 
f 158/228/8 178/227/8 179/230/32 161/250/21 
f 164/236/16 182/235/16 183/238/35 165/251/27 
f 185/241/20 168/205/16 167/204/31 176/252/30 
f 186/242/20 178/227/8 177/226/33 184/239/22 
f 173/217/8 187/243/20 175/221/6 174/220/32 
f 182/235/16 186/242/20 184/239/22 183/238/35 
f 155/189/22 128/154/66 135/161/66 134/160/22 
f 26/182/20 149/181/22 150/184/23 28/183/20 
f 155/189/22 154/188/6 156/190/18 144/170/71 
f 149/214/22 171/213/22 172/216/33 150/253/23 
f 154/222/6 175/221/6 176/252/30 156/254/18 
f 171/213/22 187/243/20 173/217/8 172/216/33 
f 175/221/6 187/243/20 185/241/20 176/252/30 
f 188/255/47 189/256/72 190/257/73 191/258/74 
f 191/258/74 190/257/73 192/259/44 193/260/43 
f 193/260/43 192/259/44 194/261/42 195/262/41 
f 195/262/41 194/261/42 196/263/75 197/264/76 
f 197/264/76 196/263/75 198/265/77 199/266/37 
f 199/266/37 198/265/77 200/267/78 201/268/79 
f 201/268/79 200/267/78 202/269/54 203/270/53 
f 203/270/53 202/269/54 204/271/52 205/272/51 
f 205/272/51 204/271/52 206/273/80 207/274/81 
f 207/275/81 206/276/80 189/256/72 188/255/47 
f 206/277/80 208/278/20 189/279/72 
f 189/279/72 208/278/20 190/280/73 
f 190/280/73 208/278/20 192/281/44 
f 192/281/44 208/278/20 194/282/42 
f 194/282/42 208/278/20 196/263/75 
f 196/263/75 208/278/20 198/265/77 
f 198/265/77 208/278/20 200/283/78 
f 200/283/78 208/278/20 202/284/54 
f 202/284/54 208/278/20 204/285/52 
f 204/285/52 208/278/20 206/277/80 
f 209/286/82 210/287/83 93/288/59 92/289/58 
f 211/290/84 209/286/82 92/289/58 96/291/62 
f 212/292/85 210/287/83 209/286/82 211/293/84 
f 129/155/65 128/154/66 155/189/22 144/170/71 
f 133/159/67 132/158/68 159/246/16 160/195/35 
f 136/162/66 135/161/66 213/294/66 214/295/66 
f 140/166/9 139/165/69 215/296/69 216/297/9 
f 129/155/65 143/169/70 217/298/70 126/152/65 
f 139/165/69 21/172/15 103/299/15 215/296/69 
f 133/159/67 136/162/66 214/295/66 130/156/67 
f 69/247/36 132/158/68 131/157/5 104/300/64 
f 143/169/70 140/166/9 216/297/9 217/298/70 
f 135/161/66 128/154/66 127/153/66 213/294/66 
f 69/301/36 93/288/59 210/287/83 212/302/85 
f 218/255/47 219/256/72 220/257/73 221/258/74 
f 221/258/74 220/257/73 222/259/44 223/260/43 
f 223/260/43 222/259/44 224/261/42 225/262/41 
f 225/262/41 224/261/42 226/263/75 227/264/76 
f 227/264/76 226/263/75 228/265/77 229/266/37 
f 229/266/37 228/265/77 230/267/78 231/268/79 
f 231/268/79 230/267/78 232/269/54 233/270/53 
f 233/270/53 232/269/54 234/271/52 235/272/51 
f 235/272/51 234/271/52 236/273/80 237/274/81 
f 237/275/81 236/276/80 219/256/72 218/255/47 
f 236/277/80 238/278/20 219/279/72 
f 219/279/72 238/278/20 220/280/73 
f 220/280/73 238/278/20 222/281/44 
f 222/281/44 238/278/20 224/282/42 
f 224/282/42 238/278/20 226/263/75 
f 226/263/75 238/278/20 228/265/77 
f 228/265/77 238/278/20 230/283/78 
f 230/283/78 238/278/20 232/284/54 
f 232/284/54 238/278/20 234/285/52 
f 234/285/52 238/278/20 236/277/80 
# 180 polygons - 40 triangles

