# 3ds Max Wavefront OBJ Exporter v0.97b - (c)2007 guruware
# File Created: 07.12.2019 15:44:50

#
# object deco_platform_short
#

v  -0.1822 0.8611 -0.9927
v  0.3159 0.8611 -1.5000
v  0.3159 0.3611 -1.5000
v  -0.1822 0.3611 -0.9927
v  -0.1822 0.8611 -0.8030
v  2.0967 0.8611 -0.8030
v  2.0967 0.8611 -0.9927
v  0.0000 0.7222 0.0000
v  0.0000 0.7222 -0.6363
v  0.0000 0.3611 -0.6363
v  0.0000 0.3611 0.0000
v  1.9146 0.7222 0.0000
v  1.9146 0.7222 -0.6363
v  2.0967 0.3611 -0.9927
v  1.5986 0.3611 -1.5000
v  1.5986 0.8611 -1.5000
v  1.4314 0.5860 -1.3474
v  0.4831 0.5860 -1.3474
v  0.4831 0.6939 -1.5000
v  1.4314 0.6939 -1.5000
v  1.9146 0.3611 0.0000
v  1.9146 0.3611 -0.6363
v  -0.1822 0.3611 -0.8030
v  0.4831 0.3611 -1.5000
v  0.4831 0.3611 -1.3474
v  2.0967 0.3611 -0.8030
v  1.4314 0.3611 -1.5000
v  1.4314 0.3611 -1.3474
v  -0.1822 0.8611 0.9927
v  -0.1822 0.3611 0.9927
v  0.3159 0.3611 1.5000
v  0.3159 0.8611 1.5000
v  2.0967 0.8611 0.9927
v  2.0967 0.8611 0.8030
v  -0.1822 0.8611 0.8030
v  0.0000 0.3611 0.6363
v  0.0000 0.7222 0.6363
v  1.9146 0.7222 0.6363
v  1.5986 0.8611 1.5000
v  1.5986 0.3611 1.5000
v  2.0967 0.3611 0.9927
v  1.4314 0.5860 1.3474
v  1.4314 0.6939 1.5000
v  0.4831 0.6939 1.5000
v  0.4831 0.5860 1.3474
v  1.9146 0.3611 0.6363
v  -0.1822 0.3611 0.8030
v  0.4831 0.3611 1.5000
v  0.4831 0.3611 1.3474
v  2.0967 0.3611 0.8030
v  1.4314 0.3611 1.5000
v  1.4314 0.3611 1.3474
v  -0.1822 -0.1389 -0.9927
v  0.3159 -0.1389 -1.5000
v  2.0967 -0.1389 -0.9927
v  2.0967 -0.1389 -0.8030
v  -0.1822 -0.1389 -0.8030
v  0.0000 0.0000 0.0000
v  0.0000 0.0000 -0.6363
v  1.9146 0.0000 -0.6363
v  1.9146 0.0000 0.0000
v  1.5986 -0.1389 -1.5000
v  1.4314 0.1362 -1.3474
v  1.4314 0.0283 -1.5000
v  0.4831 0.0283 -1.5000
v  0.4831 0.1362 -1.3474
v  -0.1822 -0.1389 0.9927
v  0.3159 -0.1389 1.5000
v  -0.1822 -0.1389 0.8030
v  2.0967 -0.1389 0.8030
v  2.0967 -0.1389 0.9927
v  0.0000 0.0000 0.6363
v  1.9146 0.0000 0.6363
v  1.5986 -0.1389 1.5000
v  1.4314 0.1362 1.3474
v  0.4831 0.1362 1.3474
v  0.4831 0.0283 1.5000
v  1.4314 0.0283 1.5000
# 78 vertices

vn -0.7181 0.6310 -0.2936
vn -0.3006 0.6295 -0.7165
vn -0.3869 0.0000 -0.9221
vn -0.9256 0.0000 -0.3785
vn -0.6587 0.6459 0.3860
vn 0.6587 0.6459 0.3860
vn 0.7181 0.6310 -0.2936
vn -0.7071 0.7071 -0.0000
vn -0.5549 0.6177 0.5572
vn -0.9152 0.0000 0.4031
vn -1.0000 0.0000 -0.0000
vn 0.7071 0.7071 -0.0000
vn 0.5550 0.6177 0.5572
vn 0.9256 0.0000 -0.3785
vn 0.3869 0.0000 -0.9221
vn 0.3006 0.6295 -0.7165
vn -0.6168 -0.3618 -0.6990
vn 0.6168 -0.3618 -0.6990
vn 0.1635 -0.2195 -0.9618
vn -0.1635 -0.2195 -0.9618
vn 1.0000 0.0000 -0.0000
vn 0.9152 0.0000 0.4030
vn 0.7071 0.0000 -0.7071
vn -0.7071 0.0000 -0.7071
vn -0.7181 0.6310 0.2936
vn -0.9256 0.0000 0.3785
vn -0.3869 0.0000 0.9221
vn -0.3006 0.6295 0.7165
vn 0.7181 0.6310 0.2936
vn 0.6587 0.6459 -0.3860
vn -0.6587 0.6459 -0.3860
vn -0.9152 0.0000 -0.4031
vn -0.5549 0.6177 -0.5572
vn 0.5550 0.6177 -0.5572
vn 0.3006 0.6295 0.7165
vn 0.3869 0.0000 0.9221
vn 0.9256 0.0000 0.3785
vn -0.6168 -0.3618 0.6990
vn -0.1635 -0.2195 0.9618
vn 0.1635 -0.2195 0.9618
vn 0.6168 -0.3618 0.6990
vn 0.9152 0.0000 -0.4030
vn 0.7071 0.0000 0.7071
vn -0.7071 0.0000 0.7071
vn -0.7181 -0.6310 -0.2936
vn -0.3006 -0.6295 -0.7165
vn 0.7181 -0.6310 -0.2936
vn 0.6587 -0.6459 0.3860
vn -0.6587 -0.6459 0.3860
vn -0.7071 -0.7071 -0.0000
vn -0.5549 -0.6177 0.5572
vn 0.5550 -0.6177 0.5572
vn 0.7071 -0.7071 -0.0000
vn 0.3006 -0.6295 -0.7165
vn -0.6168 0.3618 -0.6990
vn -0.1635 0.2195 -0.9618
vn 0.1635 0.2195 -0.9618
vn 0.6168 0.3618 -0.6990
vn -0.7181 -0.6310 0.2936
vn -0.3006 -0.6295 0.7165
vn -0.6587 -0.6459 -0.3860
vn 0.6587 -0.6459 -0.3860
vn 0.7181 -0.6310 0.2936
vn -0.5549 -0.6177 -0.5572
vn 0.5550 -0.6177 -0.5572
vn 0.3006 -0.6295 0.7165
vn -0.6168 0.3618 0.6990
vn 0.6168 0.3618 0.6990
vn 0.1635 0.2195 0.9618
vn -0.1635 0.2195 0.9618
# 70 vertex normals

vt 0.4360 1.2637 0.0000
vt 0.4243 1.2501 0.0000
vt 0.4363 1.2428 0.0000
vt 0.4470 1.2598 0.0000
vt 0.4357 1.2672 0.0000
vt 0.3787 1.2672 0.0000
vt 0.3784 1.2637 0.0000
vt 0.4320 1.2897 0.0000
vt 0.4336 1.2731 0.0000
vt 0.4443 1.2749 0.0000
vt 0.4412 1.2911 0.0000
vt 0.3824 1.2897 0.0000
vt 0.3808 1.2731 0.0000
vt 0.3674 1.2598 0.0000
vt 0.3781 1.2428 0.0000
vt 0.3901 1.2501 0.0000
vt 0.3954 1.2410 0.0000
vt 0.4190 1.2410 0.0000
vt 0.4202 1.2453 0.0000
vt 0.3942 1.2453 0.0000
vt 0.3732 1.2911 0.0000
vt 0.3701 1.2749 0.0000
vt 0.4474 1.2675 0.0000
vt 0.4272 1.2378 0.0000
vt 0.4232 1.2367 0.0000
vt 0.4196 1.2354 0.0000
vt 0.3670 1.2675 0.0000
vt 0.3912 1.2367 0.0000
vt 0.3872 1.2378 0.0000
vt 0.3948 1.2354 0.0000
vt 0.4360 0.2637 0.0000
vt 0.4470 0.2598 0.0000
vt 0.4363 0.2428 0.0000
vt 0.4243 0.2501 0.0000
vt 0.3784 0.2637 0.0000
vt 0.3787 0.2672 0.0000
vt 0.4357 0.2672 0.0000
vt 0.4320 0.2897 0.0000
vt 0.4412 0.2911 0.0000
vt 0.4443 0.2749 0.0000
vt 0.4336 0.2731 0.0000
vt 0.3808 0.2731 0.0000
vt 0.3824 0.2897 0.0000
vt 0.3901 0.2501 0.0000
vt 0.3781 0.2428 0.0000
vt 0.3674 0.2598 0.0000
vt 0.3954 0.2410 0.0000
vt 0.3942 0.2453 0.0000
vt 0.4202 0.2453 0.0000
vt 0.4190 0.2410 0.0000
vt 0.3701 0.2749 0.0000
vt 0.3732 0.2911 0.0000
vt 0.4474 0.2675 0.0000
vt 0.4272 0.2378 0.0000
vt 0.4232 0.2367 0.0000
vt 0.4196 0.2354 0.0000
vt 0.3670 0.2675 0.0000
vt 0.3912 0.2367 0.0000
vt 0.3872 0.2378 0.0000
vt 0.3948 0.2354 0.0000
vt 1.4360 1.2637 0.0000
vt 1.4470 1.2598 0.0000
vt 1.4363 1.2428 0.0000
vt 1.4243 1.2501 0.0000
vt 1.3784 1.2637 0.0000
vt 1.3787 1.2672 0.0000
vt 1.4357 1.2672 0.0000
vt 1.4320 1.2897 0.0000
vt 1.4412 1.2911 0.0000
vt 1.4443 1.2749 0.0000
vt 1.4336 1.2731 0.0000
vt 1.3808 1.2731 0.0000
vt 1.3824 1.2897 0.0000
vt 1.3901 1.2501 0.0000
vt 1.3781 1.2428 0.0000
vt 1.3674 1.2598 0.0000
vt 1.3954 1.2410 0.0000
vt 1.3942 1.2453 0.0000
vt 1.4202 1.2453 0.0000
vt 1.4190 1.2410 0.0000
vt 1.3701 1.2749 0.0000
vt 1.3732 1.2911 0.0000
vt 1.4474 1.2675 0.0000
vt 1.4272 1.2378 0.0000
vt 1.4232 1.2367 0.0000
vt 1.4196 1.2354 0.0000
vt 1.3670 1.2675 0.0000
vt 1.3912 1.2367 0.0000
vt 1.3872 1.2378 0.0000
vt 1.3948 1.2354 0.0000
vt 1.4360 0.2637 0.0000
vt 1.4243 0.2501 0.0000
vt 1.4363 0.2428 0.0000
vt 1.4470 0.2598 0.0000
vt 1.4357 0.2672 0.0000
vt 1.3787 0.2672 0.0000
vt 1.3784 0.2637 0.0000
vt 1.4320 0.2897 0.0000
vt 1.4336 0.2731 0.0000
vt 1.4443 0.2749 0.0000
vt 1.4412 0.2911 0.0000
vt 1.3824 0.2897 0.0000
vt 1.3808 0.2731 0.0000
vt 1.3674 0.2598 0.0000
vt 1.3781 0.2428 0.0000
vt 1.3901 0.2501 0.0000
vt 1.3954 0.2410 0.0000
vt 1.4190 0.2410 0.0000
vt 1.4202 0.2453 0.0000
vt 1.3942 0.2453 0.0000
vt 1.3732 0.2911 0.0000
vt 1.3701 0.2749 0.0000
vt 1.4474 0.2675 0.0000
vt 1.4272 0.2378 0.0000
vt 1.4232 0.2367 0.0000
vt 1.4196 0.2354 0.0000
vt 1.3670 0.2675 0.0000
vt 1.3912 0.2367 0.0000
vt 1.3872 0.2378 0.0000
vt 1.3948 0.2354 0.0000
# 120 texture coords

o deco_platform_short
g deco_platform_short
f 1/1/1 2/2/2 3/3/3 4/4/4 
f 1/1/1 5/5/5 6/6/6 7/7/7 
f 8/8/8 9/9/9 10/10/10 11/11/11 
f 9/9/9 8/8/8 12/12/12 13/13/13 
f 7/7/7 14/14/14 15/15/15 16/16/16 
f 6/6/6 5/5/5 9/9/9 13/13/13 
f 17/17/17 18/18/18 19/19/19 20/20/20 
f 12/12/12 21/21/21 22/22/22 13/13/13 
f 16/16/16 2/2/2 1/1/1 7/7/7 
f 20/20/20 19/19/19 2/2/2 16/16/16 
f 23/23/10 5/5/5 1/1/1 4/4/4 
f 10/10/10 9/9/9 5/5/5 23/23/10 
f 3/24/3 2/2/2 19/19/19 24/25/23 
f 24/25/23 19/19/19 18/18/18 25/26/23 
f 14/14/14 7/7/7 6/6/6 26/27/22 
f 26/27/22 6/6/6 13/13/13 22/22/22 
f 27/28/24 20/20/20 16/16/16 15/29/15 
f 28/30/24 17/17/17 20/20/20 27/28/24 
f 25/26/23 18/18/18 17/17/17 28/30/24 
f 29/31/25 30/32/26 31/33/27 32/34/28 
f 29/31/25 33/35/29 34/36/30 35/37/31 
f 8/38/8 11/39/11 36/40/32 37/41/33 
f 37/41/33 38/42/34 12/43/12 8/38/8 
f 33/35/29 39/44/35 40/45/36 41/46/37 
f 34/36/30 38/42/34 37/41/33 35/37/31 
f 42/47/38 43/48/39 44/49/40 45/50/41 
f 12/43/12 38/42/34 46/51/42 21/52/21 
f 39/44/35 33/35/29 29/31/25 32/34/28 
f 43/48/39 39/44/35 32/34/28 44/49/40 
f 47/53/32 30/32/26 29/31/25 35/37/31 
f 36/40/32 47/53/32 35/37/31 37/41/33 
f 31/54/27 48/55/43 44/49/40 32/34/28 
f 48/55/43 49/56/43 45/50/41 44/49/40 
f 41/46/37 50/57/42 34/36/30 33/35/29 
f 50/57/42 46/51/42 38/42/34 34/36/30 
f 51/58/44 40/59/36 39/44/35 43/48/39 
f 52/60/44 51/58/44 43/48/39 42/47/38 
f 49/56/43 52/60/44 42/47/38 45/50/41 
f 53/61/45 4/62/4 3/63/3 54/64/46 
f 53/61/45 55/65/47 56/66/48 57/67/49 
f 58/68/50 11/69/11 10/70/10 59/71/51 
f 59/71/51 60/72/52 61/73/53 58/68/50 
f 55/65/47 62/74/54 15/75/15 14/76/14 
f 56/66/48 60/72/52 59/71/51 57/67/49 
f 63/77/55 64/78/56 65/79/57 66/80/58 
f 61/73/53 60/72/52 22/81/22 21/82/21 
f 62/74/54 55/65/47 53/61/45 54/64/46 
f 64/78/56 62/74/54 54/64/46 65/79/57 
f 23/83/10 4/62/4 53/61/45 57/67/49 
f 10/70/10 23/83/10 57/67/49 59/71/51 
f 3/84/3 24/85/23 65/79/57 54/64/46 
f 24/85/23 25/86/23 66/80/58 65/79/57 
f 14/76/14 26/87/22 56/66/48 55/65/47 
f 26/87/22 22/81/22 60/72/52 56/66/48 
f 27/88/24 15/89/15 62/74/54 64/78/56 
f 28/90/24 27/88/24 64/78/56 63/77/55 
f 25/86/23 28/90/24 63/77/55 66/80/58 
f 67/91/59 68/92/60 31/93/27 30/94/26 
f 67/91/59 69/95/61 70/96/62 71/97/63 
f 58/98/50 72/99/64 36/100/32 11/101/11 
f 72/99/64 58/98/50 61/102/53 73/103/65 
f 71/97/63 41/104/37 40/105/36 74/106/66 
f 70/96/62 69/95/61 72/99/64 73/103/65 
f 75/107/67 76/108/68 77/109/69 78/110/70 
f 61/102/53 21/111/21 46/112/42 73/103/65 
f 74/106/66 68/92/60 67/91/59 71/97/63 
f 78/110/70 77/109/69 68/92/60 74/106/66 
f 47/113/32 69/95/61 67/91/59 30/94/26 
f 36/100/32 72/99/64 69/95/61 47/113/32 
f 31/114/27 68/92/60 77/109/69 48/115/43 
f 48/115/43 77/109/69 76/108/68 49/116/43 
f 41/104/37 71/97/63 70/96/62 50/117/42 
f 50/117/42 70/96/62 73/103/65 46/112/42 
f 51/118/44 78/110/70 74/106/66 40/119/36 
f 52/120/44 75/107/67 78/110/70 51/118/44 
f 49/116/43 76/108/68 75/107/67 52/120/44 
# 76 polygons

