# 3ds Max Wavefront OBJ Exporter v0.97b - (c)2007 guruware
# File Created: 07.12.2019 15:44:50

#
# object deco_crumbling_platform
#

v  0.1553 0.5232 -1.3564
v  0.1553 0.3334 -1.3564
v  0.1553 0.3334 -0.0000
v  0.1553 0.5232 -0.0000
v  0.0000 0.6668 -1.4281
v  0.0000 0.5232 -1.3564
v  0.0000 0.5232 -0.0000
v  0.0000 0.6668 -0.0000
v  0.0000 0.5949 -1.5000
v  0.0000 0.3334 -1.3564
v  0.0000 0.3334 -1.5000
v  1.1395 0.6668 -1.4281
v  1.1395 0.6668 -0.0000
v  1.1395 0.5949 -1.5000
v  1.1395 0.3334 -1.5000
v  0.1553 0.5232 1.3564
v  0.1553 0.3334 1.3564
v  0.0000 0.6668 1.4281
v  0.0000 0.5232 1.3564
v  0.0000 0.5949 1.5000
v  0.0000 0.3334 1.3564
v  0.0000 0.3334 1.5000
v  1.1395 0.6668 1.4281
v  1.1395 0.5949 1.5000
v  1.1395 0.3334 1.5000
v  0.1553 0.1436 -1.3564
v  0.1553 0.1436 -0.0000
v  0.0000 -0.0000 -1.4281
v  0.0000 -0.0000 -0.0000
v  0.0000 0.1436 -0.0000
v  0.0000 0.1436 -1.3564
v  0.0000 0.0719 -1.5000
v  1.1395 -0.0000 -1.4281
v  1.1395 -0.0000 -0.0000
v  1.1395 0.0719 -1.5000
v  0.1553 0.1436 1.3564
v  0.0000 -0.0000 1.4281
v  0.0000 0.1436 1.3564
v  0.0000 0.0719 1.5000
v  1.1395 -0.0000 1.4281
v  1.1395 0.0719 1.5000
v  2.1237 0.5232 -1.3564
v  2.1237 0.5232 -0.0000
v  2.1237 0.3334 -0.0000
v  2.1237 0.3334 -1.3564
v  2.2790 0.6668 -1.4281
v  2.2790 0.6668 -0.0000
v  2.2790 0.5232 -0.0000
v  2.2790 0.5232 -1.3564
v  2.2790 0.5949 -1.5000
v  2.2790 0.3334 -1.3564
v  2.2790 0.3334 -1.5000
v  2.1237 0.5232 1.3564
v  2.1237 0.3334 1.3564
v  2.2790 0.6668 1.4281
v  2.2790 0.5232 1.3564
v  2.2790 0.5949 1.5000
v  2.2790 0.3334 1.3564
v  2.2790 0.3334 1.5000
v  2.1237 0.1436 -1.3564
v  2.1237 0.1436 -0.0000
v  2.2790 -0.0000 -1.4281
v  2.2790 0.1436 -1.3564
v  2.2790 0.1436 -0.0000
v  2.2790 -0.0000 -0.0000
v  2.2790 0.0719 -1.5000
v  2.1237 0.1436 1.3564
v  2.2790 -0.0000 1.4281
v  2.2790 0.1436 1.3564
v  2.2790 0.0719 1.5000
# 70 vertices

vn -0.5774 -0.5774 0.5774
vn -0.7071 0.0000 0.7071
vn -1.0000 0.0000 -0.0000
vn -0.7071 -0.7071 -0.0000
vn -0.6303 0.7173 -0.2971
vn -0.9045 -0.3015 0.3015
vn -0.7071 0.7071 -0.0000
vn -0.6303 0.2971 -0.7173
vn -0.7071 0.0000 -0.7071
vn 0.0000 0.9239 -0.3827
vn 0.0000 1.0000 -0.0000
vn 0.0000 0.3827 -0.9239
vn 0.0000 0.0000 -1.0000
vn -0.5774 -0.5774 -0.5774
vn -0.6303 0.7173 0.2971
vn -0.9045 -0.3015 -0.3015
vn -0.6303 0.2971 0.7173
vn 0.0000 0.9239 0.3827
vn 0.0000 0.3827 0.9239
vn 0.0000 0.0000 1.0000
vn -0.5774 0.5774 0.5774
vn -0.6303 -0.7173 -0.2971
vn -0.9045 0.3015 0.3015
vn -0.6303 -0.2971 -0.7173
vn 0.0000 -0.9239 -0.3827
vn 0.0000 -1.0000 -0.0000
vn 0.0000 -0.3827 -0.9239
vn -0.5774 0.5774 -0.5774
vn -0.6303 -0.7173 0.2971
vn -0.9045 0.3015 -0.3015
vn -0.6303 -0.2971 0.7173
vn 0.0000 -0.9239 0.3827
vn 0.0000 -0.3827 0.9239
vn 0.5774 -0.5774 0.5774
vn 0.7071 -0.7071 -0.0000
vn 1.0000 0.0000 -0.0000
vn 0.7071 0.0000 0.7071
vn 0.6303 0.7173 -0.2971
vn 0.7071 0.7071 -0.0000
vn 0.9045 -0.3015 0.3015
vn 0.6303 0.2971 -0.7173
vn 0.7071 0.0000 -0.7071
vn 0.5774 -0.5774 -0.5774
vn 0.6303 0.7173 0.2971
vn 0.9045 -0.3015 -0.3015
vn 0.6303 0.2971 0.7173
vn 0.5774 0.5774 0.5774
vn 0.6303 -0.7173 -0.2971
vn 0.9045 0.3015 0.3015
vn 0.6303 -0.2971 -0.7173
vn 0.5774 0.5774 -0.5774
vn 0.6303 -0.7173 0.2971
vn 0.9045 0.3015 -0.3015
vn 0.6303 -0.2971 0.7173
# 54 vertex normals

vt 1.2131 0.8805 0.0000
vt 1.2188 0.8805 0.0000
vt 1.2188 0.9212 0.0000
vt 1.2131 0.9212 0.0000
vt 1.2041 0.8784 0.0000
vt 1.2084 0.8805 0.0000
vt 1.2084 0.9212 0.0000
vt 1.2041 0.9212 0.0000
vt 1.2078 0.8745 0.0000
vt 1.2035 0.8757 0.0000
vt 1.2085 0.8687 0.0000
vt 1.2040 0.8680 0.0000
vt 1.2131 0.8692 0.0000
vt 1.2125 0.8749 0.0000
vt 1.1697 0.8784 0.0000
vt 1.1699 0.9213 0.0000
vt 1.1696 0.8754 0.0000
vt 1.1697 0.8675 0.0000
vt 0.2131 0.8805 0.0000
vt 0.2131 0.9212 0.0000
vt 0.2188 0.9212 0.0000
vt 0.2188 0.8805 0.0000
vt 0.2041 0.8784 0.0000
vt 0.2041 0.9212 0.0000
vt 0.2084 0.9212 0.0000
vt 0.2084 0.8805 0.0000
vt 0.2078 0.8745 0.0000
vt 0.2035 0.8757 0.0000
vt 0.2085 0.8687 0.0000
vt 0.2040 0.8680 0.0000
vt 0.2131 0.8692 0.0000
vt 0.2125 0.8749 0.0000
vt 0.1697 0.8784 0.0000
vt 0.1699 0.9213 0.0000
vt 0.1696 0.8754 0.0000
vt 0.1697 0.8675 0.0000
vt 3.2131 0.8805 0.0000
vt 3.2131 0.9212 0.0000
vt 3.2188 0.9212 0.0000
vt 3.2188 0.8805 0.0000
vt 3.2041 0.8784 0.0000
vt 3.2041 0.9212 0.0000
vt 3.2084 0.9212 0.0000
vt 3.2084 0.8805 0.0000
vt 3.2078 0.8745 0.0000
vt 3.2035 0.8757 0.0000
vt 3.2085 0.8687 0.0000
vt 3.2040 0.8680 0.0000
vt 3.2131 0.8692 0.0000
vt 3.2125 0.8749 0.0000
vt 3.1697 0.8784 0.0000
vt 3.1699 0.9213 0.0000
vt 3.1696 0.8754 0.0000
vt 3.1697 0.8675 0.0000
vt 2.2131 0.8805 0.0000
vt 2.2188 0.8805 0.0000
vt 2.2188 0.9212 0.0000
vt 2.2131 0.9212 0.0000
vt 2.2041 0.8784 0.0000
vt 2.2084 0.8805 0.0000
vt 2.2084 0.9212 0.0000
vt 2.2041 0.9212 0.0000
vt 2.2078 0.8745 0.0000
vt 2.2035 0.8757 0.0000
vt 2.2085 0.8687 0.0000
vt 2.2040 0.8680 0.0000
vt 2.2131 0.8692 0.0000
vt 2.2125 0.8749 0.0000
vt 2.1697 0.8784 0.0000
vt 2.1699 0.9213 0.0000
vt 2.1696 0.8754 0.0000
vt 2.1697 0.8675 0.0000
vt 1.2131 1.8805 0.0000
vt 1.2131 1.9212 0.0000
vt 1.2188 1.9212 0.0000
vt 1.2188 1.8805 0.0000
vt 1.2041 1.8784 0.0000
vt 1.2041 1.9212 0.0000
vt 1.2084 1.9212 0.0000
vt 1.2084 1.8805 0.0000
vt 1.2078 1.8745 0.0000
vt 1.2035 1.8757 0.0000
vt 1.2085 1.8687 0.0000
vt 1.2040 1.8680 0.0000
vt 1.2131 1.8692 0.0000
vt 1.2125 1.8749 0.0000
vt 1.1697 1.8784 0.0000
vt 1.1699 1.9213 0.0000
vt 1.1696 1.8754 0.0000
vt 1.1697 1.8675 0.0000
vt 0.2131 1.8805 0.0000
vt 0.2188 1.8805 0.0000
vt 0.2188 1.9212 0.0000
vt 0.2131 1.9212 0.0000
vt 0.2041 1.8784 0.0000
vt 0.2084 1.8805 0.0000
vt 0.2084 1.9212 0.0000
vt 0.2041 1.9212 0.0000
vt 0.2078 1.8745 0.0000
vt 0.2035 1.8757 0.0000
vt 0.2085 1.8687 0.0000
vt 0.2040 1.8680 0.0000
vt 0.2131 1.8692 0.0000
vt 0.2125 1.8749 0.0000
vt 0.1697 1.8784 0.0000
vt 0.1699 1.9213 0.0000
vt 0.1696 1.8754 0.0000
vt 0.1697 1.8675 0.0000
vt 3.2131 1.8805 0.0000
vt 3.2188 1.8805 0.0000
vt 3.2188 1.9212 0.0000
vt 3.2131 1.9212 0.0000
vt 3.2041 1.8784 0.0000
vt 3.2084 1.8805 0.0000
vt 3.2084 1.9212 0.0000
vt 3.2041 1.9212 0.0000
vt 3.2078 1.8745 0.0000
vt 3.2035 1.8757 0.0000
vt 3.2085 1.8687 0.0000
vt 3.2040 1.8680 0.0000
vt 3.2131 1.8692 0.0000
vt 3.2125 1.8749 0.0000
vt 3.1697 1.8784 0.0000
vt 3.1699 1.9213 0.0000
vt 3.1696 1.8754 0.0000
vt 3.1697 1.8675 0.0000
vt 2.2131 1.8805 0.0000
vt 2.2131 1.9212 0.0000
vt 2.2188 1.9212 0.0000
vt 2.2188 1.8805 0.0000
vt 2.2041 1.8784 0.0000
vt 2.2041 1.9212 0.0000
vt 2.2084 1.9212 0.0000
vt 2.2084 1.8805 0.0000
vt 2.2078 1.8745 0.0000
vt 2.2035 1.8757 0.0000
vt 2.2085 1.8687 0.0000
vt 2.2040 1.8680 0.0000
vt 2.2131 1.8692 0.0000
vt 2.2125 1.8749 0.0000
vt 2.1697 1.8784 0.0000
vt 2.1699 1.9213 0.0000
vt 2.1696 1.8754 0.0000
vt 2.1697 1.8675 0.0000
# 144 texture coords

o deco_crumbling_platform
g deco_crumbling_platform
f 1/1/1 2/2/2 3/3/3 4/4/4 
f 5/5/5 6/6/6 7/7/4 8/8/7 
f 6/6/6 1/1/1 4/4/4 7/7/4 
f 6/9/6 5/5/5 9/10/8 
f 10/11/2 6/9/6 9/10/8 11/12/9 
f 2/13/2 1/14/1 6/9/6 10/11/2 
f 12/15/10 5/5/5 8/8/7 13/16/11 
f 14/17/12 9/10/8 5/5/5 12/15/10 
f 15/18/13 11/12/9 9/10/8 14/17/12 
f 16/19/14 4/20/4 3/21/3 17/22/9 
f 18/23/15 8/24/7 7/25/4 19/26/16 
f 19/26/16 7/25/4 4/20/4 16/19/14 
f 19/27/16 20/28/17 18/23/15 
f 21/29/9 22/30/2 20/28/17 19/27/16 
f 17/31/9 21/29/9 19/27/16 16/32/14 
f 23/33/18 13/34/11 8/24/7 18/23/15 
f 24/35/19 23/33/18 18/23/15 20/28/17 
f 25/36/20 24/35/19 20/28/17 22/30/2 
f 26/37/21 27/38/7 3/39/3 2/40/2 
f 28/41/22 29/42/4 30/43/7 31/44/23 
f 31/44/23 30/43/7 27/38/7 26/37/21 
f 31/45/23 32/46/24 28/41/22 
f 10/47/2 11/48/9 32/46/24 31/45/23 
f 2/49/2 10/47/2 31/45/23 26/50/21 
f 33/51/25 34/52/26 29/42/4 28/41/22 
f 35/53/27 33/51/25 28/41/22 32/46/24 
f 15/54/13 35/53/27 32/46/24 11/48/9 
f 36/55/28 17/56/9 3/57/3 27/58/7 
f 37/59/29 38/60/30 30/61/7 29/62/4 
f 38/60/30 36/55/28 27/58/7 30/61/7 
f 38/63/30 37/59/29 39/64/31 
f 21/65/9 38/63/30 39/64/31 22/66/2 
f 17/67/9 36/68/28 38/63/30 21/65/9 
f 40/69/32 37/59/29 29/62/4 34/70/26 
f 41/71/33 39/64/31 37/59/29 40/69/32 
f 25/72/20 22/66/2 39/64/31 41/71/33 
f 42/73/34 43/74/35 44/75/36 45/76/37 
f 46/77/38 47/78/39 48/79/35 49/80/40 
f 49/80/40 48/79/35 43/74/35 42/73/34 
f 49/81/40 50/82/41 46/77/38 
f 51/83/37 52/84/42 50/82/41 49/81/40 
f 45/85/37 51/83/37 49/81/40 42/86/34 
f 12/87/10 13/88/11 47/78/39 46/77/38 
f 14/89/12 12/87/10 46/77/38 50/82/41 
f 15/90/13 14/89/12 50/82/41 52/84/42 
f 53/91/43 54/92/42 44/93/36 43/94/35 
f 55/95/44 56/96/45 48/97/35 47/98/39 
f 56/96/45 53/91/43 43/94/35 48/97/35 
f 56/99/45 55/95/44 57/100/46 
f 58/101/42 56/99/45 57/100/46 59/102/37 
f 54/103/42 53/104/43 56/99/45 58/101/42 
f 23/105/18 55/95/44 47/98/39 13/106/11 
f 24/107/19 57/100/46 55/95/44 23/105/18 
f 25/108/20 59/102/37 57/100/46 24/107/19 
f 60/109/47 45/110/37 44/111/36 61/112/39 
f 62/113/48 63/114/49 64/115/39 65/116/35 
f 63/114/49 60/109/47 61/112/39 64/115/39 
f 63/117/49 62/113/48 66/118/50 
f 51/119/37 63/117/49 66/118/50 52/120/42 
f 45/121/37 60/122/47 63/117/49 51/119/37 
f 33/123/25 62/113/48 65/116/35 34/124/26 
f 35/125/27 66/118/50 62/113/48 33/123/25 
f 15/126/13 52/120/42 66/118/50 35/125/27 
f 67/127/51 61/128/39 44/129/36 54/130/42 
f 68/131/52 65/132/35 64/133/39 69/134/53 
f 69/134/53 64/133/39 61/128/39 67/127/51 
f 69/135/53 70/136/54 68/131/52 
f 58/137/42 59/138/37 70/136/54 69/135/53 
f 54/139/42 58/137/42 69/135/53 67/140/51 
f 40/141/32 34/142/26 65/132/35 68/131/52 
f 41/143/33 40/141/32 68/131/52 70/136/54 
f 25/144/20 41/143/33 70/136/54 59/138/37 
# 64 polygons - 8 triangles

