# 3ds Max Wavefront OBJ Exporter v0.97b - (c)2007 guruware
# File Created: 07.12.2019 16:11:18

#
# object deco_button
#

v  0.5084 0.3101 0.2448
v  0.5643 0.3101 -0.0001
v  0.0000 0.3101 -0.0001
v  0.5084 0.3101 -0.2449
v  0.3518 0.3101 -0.4413
v  0.1255 0.3101 -0.5503
v  -0.1256 0.3101 -0.5503
v  -0.3519 0.3101 -0.4413
v  -0.5085 0.3101 -0.2449
v  -0.5644 0.3101 -0.0001
v  -0.5085 0.3101 0.2448
v  -0.3519 0.3101 0.4412
v  -0.1256 0.3101 0.5502
v  0.1255 0.3101 0.5502
v  0.3518 0.3101 0.4412
v  0.6731 -0.0000 0.3241
v  0.7470 -0.0000 -0.0001
v  0.6731 -0.0000 -0.3242
v  0.4658 -0.0000 -0.5842
v  0.1663 -0.0000 -0.7284
v  -0.1663 -0.0000 -0.7284
v  -0.4657 -0.0000 -0.5842
v  -0.6730 -0.0000 -0.3242
v  -0.7471 -0.0000 -0.0001
v  -0.6730 -0.0000 0.3241
v  -0.4657 -0.0000 0.5840
v  -0.1663 -0.0000 0.7283
v  0.1663 -0.0000 0.7283
v  0.4658 -0.0000 0.5840
# 29 vertices

vn 0.4917 0.8379 0.2368
vn 0.5459 0.8379 -0.0000
vn 0.0000 1.0000 -0.0000
vn 0.4917 0.8379 -0.2368
vn 0.3403 0.8379 -0.4267
vn 0.1215 0.8379 -0.5322
vn -0.1215 0.8379 -0.5322
vn -0.3404 0.8379 -0.4267
vn -0.4918 0.8379 -0.2368
vn -0.5459 0.8379 -0.0000
vn -0.4918 0.8379 0.2368
vn -0.3404 0.8378 0.4268
vn -0.1215 0.8379 0.5322
vn 0.1215 0.8379 0.5322
vn 0.3403 0.8379 0.4268
vn 0.7762 0.5078 0.3737
vn 0.8616 0.5076 -0.0000
vn 0.7762 0.5078 -0.3737
vn 0.5371 0.5078 -0.6735
vn 0.1917 0.5076 -0.8400
vn -0.1917 0.5076 -0.8400
vn -0.5372 0.5077 -0.6736
vn -0.7763 0.5076 -0.3738
vn -0.8616 0.5076 -0.0000
vn -0.7762 0.5076 0.3739
vn -0.5373 0.5075 0.6736
vn -0.1918 0.5076 0.8400
vn 0.1918 0.5076 0.8400
vn 0.5372 0.5077 0.6736
# 29 vertex normals

vt 0.3819 0.0251 0.0000
vt 0.3851 0.0185 0.0000
vt 0.3979 0.0288 0.0000
vt 0.3908 0.0140 0.0000
vt 0.3979 0.0124 0.0000
vt 0.4050 0.0140 0.0000
vt 0.4107 0.0186 0.0000
vt 0.4138 0.0251 0.0000
vt 0.4138 0.0324 0.0000
vt 0.4107 0.0390 0.0000
vt 0.4050 0.0435 0.0000
vt 0.3979 0.0451 0.0000
vt 0.3908 0.0435 0.0000
vt 0.3851 0.0390 0.0000
vt 0.3819 0.0324 0.0000
vt 0.3716 0.0228 0.0000
vt 0.3768 0.0120 0.0000
vt 0.3862 0.0045 0.0000
vt 0.3979 0.0019 0.0000
vt 0.4095 0.0045 0.0000
vt 0.4189 0.0120 0.0000
vt 0.4241 0.0228 0.0000
vt 0.4241 0.0347 0.0000
vt 0.4189 0.0455 0.0000
vt 0.4095 0.0530 0.0000
vt 0.3979 0.0557 0.0000
vt 0.3862 0.0530 0.0000
vt 0.3768 0.0455 0.0000
vt 0.3716 0.0347 0.0000
# 29 texture coords

o deco_button
g deco_button
f 1/1/1 2/2/2 3/3/3 
f 2/2/2 4/4/4 3/3/3 
f 4/4/4 5/5/5 3/3/3 
f 5/5/5 6/6/6 3/3/3 
f 6/6/6 7/7/7 3/3/3 
f 7/7/7 8/8/8 3/3/3 
f 8/8/8 9/9/9 3/3/3 
f 9/9/9 10/10/10 3/3/3 
f 10/10/10 11/11/11 3/3/3 
f 11/11/11 12/12/12 3/3/3 
f 12/12/12 13/13/13 3/3/3 
f 13/13/13 14/14/14 3/3/3 
f 14/14/14 15/15/15 3/3/3 
f 15/15/15 1/1/1 3/3/3 
f 2/2/2 1/1/1 16/16/16 17/17/17 
f 4/4/4 2/2/2 17/17/17 18/18/18 
f 5/5/5 4/4/4 18/18/18 19/19/19 
f 6/6/6 5/5/5 19/19/19 20/20/20 
f 7/7/7 6/6/6 20/20/20 21/21/21 
f 8/8/8 7/7/7 21/21/21 22/22/22 
f 9/9/9 8/8/8 22/22/22 23/23/23 
f 10/10/10 9/9/9 23/23/23 24/24/24 
f 11/11/11 10/10/10 24/24/24 25/25/25 
f 12/12/12 11/11/11 25/25/25 26/26/26 
f 13/13/13 12/12/12 26/26/26 27/27/27 
f 14/14/14 13/13/13 27/27/27 28/28/28 
f 15/15/15 14/14/14 28/28/28 29/29/29 
f 1/1/1 15/15/15 29/29/29 16/16/16 
# 14 polygons - 14 triangles

