# 3ds Max Wavefront OBJ Exporter v0.97b - (c)2007 guruware
# File Created: 07.12.2019 16:11:01

#
# object deco_fan_spin
#

v  0.3182 -0.4141 0.0627
v  0.3180 -0.4141 -0.0638
v  0.3180 0.0000 -0.0638
v  0.3182 0.0000 0.0627
v  0.2694 -0.4141 -0.1807
v  0.2694 0.0000 -0.1807
v  0.1798 -0.4141 -0.2700
v  0.1798 0.0000 -0.2700
v  0.0628 -0.4141 -0.3183
v  0.0628 0.0000 -0.3183
v  -0.0638 -0.4141 -0.3181
v  -0.0638 0.0000 -0.3181
v  -0.1806 -0.4141 -0.2694
v  -0.1806 0.0000 -0.2694
v  -0.2700 -0.4141 -0.1798
v  -0.2700 0.0000 -0.1798
v  -0.3182 -0.4141 -0.0628
v  -0.3182 0.0000 -0.0628
v  -0.3180 -0.4141 0.0637
v  -0.3180 0.0000 0.0637
v  -0.2694 -0.4141 0.1806
v  -0.2694 0.0000 0.1806
v  -0.1798 -0.4141 0.2699
v  -0.1798 0.0000 0.2699
v  -0.0628 -0.4141 0.3182
v  -0.0628 0.0000 0.3182
v  0.0638 -0.4141 0.3180
v  0.0638 0.0000 0.3180
v  0.1806 -0.4141 0.2694
v  0.1806 0.0000 0.2694
v  0.2700 -0.4141 0.1797
v  0.2700 0.0000 0.1797
v  0.2202 -0.4738 0.1466
v  0.1474 -0.4738 0.2198
v  0.0000 -0.4738 0.0000
v  0.0520 -0.4738 0.2594
v  -0.0512 -0.4738 0.2596
v  -0.1467 -0.4738 0.2202
v  -0.2198 -0.4738 0.1473
v  -0.2595 -0.4738 0.0520
v  -0.2596 -0.4738 -0.0513
v  -0.2203 -0.4738 -0.1467
v  -0.1474 -0.4738 -0.2198
v  -0.0520 -0.4738 -0.2595
v  0.0512 -0.4738 -0.2597
v  0.1467 -0.4738 -0.2203
v  0.2198 -0.4738 -0.1474
v  0.2594 -0.4738 -0.0521
v  0.2596 -0.4738 0.0512
v  -0.0478 -0.1689 0.6932
v  -0.0408 -0.1707 1.4545
v  0.6166 -0.3736 1.3568
v  0.3195 -0.3009 0.6070
v  0.1768 -0.2239 1.6070
v  0.5286 -0.3521 1.5471
v  0.0795 -0.2422 0.1713
v  -0.0460 -0.1694 0.1708
v  -0.0800 -0.3084 0.1708
v  -0.0818 -0.3080 0.6932
v  -0.0748 -0.3097 1.4545
v  0.1428 -0.3629 1.6070
v  0.5141 -0.4115 1.5471
v  0.6021 -0.4331 1.3568
v  0.3049 -0.3604 0.6070
v  0.0650 -0.3017 0.1713
v  -0.5240 -0.1689 0.4564
v  -1.0573 -0.1707 0.9996
v  -0.5234 -0.3736 1.3954
v  -0.2033 -0.3009 0.6551
v  -1.0113 -0.2239 1.2613
v  -0.7202 -0.3521 1.4677
v  -0.0649 -0.2422 0.1773
v  -0.1533 -0.1694 0.0882
v  -0.1773 -0.3084 0.0642
v  -0.5480 -0.3080 0.4323
v  -1.0814 -0.3097 0.9756
v  -1.0353 -0.3629 1.2373
v  -0.7304 -0.4115 1.4575
v  -0.5337 -0.4331 1.3852
v  -0.2136 -0.3604 0.6448
v  -0.0752 -0.3017 0.1671
v  -0.6932 -0.1689 -0.0478
v  -1.4545 -0.1707 -0.0408
v  -1.3568 -0.3736 0.6166
v  -0.6070 -0.3009 0.3195
v  -1.6070 -0.2239 0.1768
v  -1.5471 -0.3521 0.5286
v  -0.1713 -0.2422 0.0795
v  -0.1708 -0.1694 -0.0460
v  -0.1708 -0.3084 -0.0800
v  -0.6932 -0.3080 -0.0818
v  -1.4545 -0.3097 -0.0748
v  -1.6070 -0.3629 0.1428
v  -1.5471 -0.4115 0.5141
v  -1.3568 -0.4331 0.6021
v  -0.6070 -0.3604 0.3049
v  -0.1713 -0.3017 0.0650
v  -0.4564 -0.1689 -0.5240
v  -0.9996 -0.1707 -1.0573
v  -1.3954 -0.3736 -0.5234
v  -0.6551 -0.3009 -0.2033
v  -1.2613 -0.2239 -1.0113
v  -1.4677 -0.3521 -0.7202
v  -0.1773 -0.2422 -0.0649
v  -0.0882 -0.1694 -0.1533
v  -0.0642 -0.3084 -0.1773
v  -0.4323 -0.3080 -0.5480
v  -0.9756 -0.3097 -1.0814
v  -1.2373 -0.3629 -1.0353
v  -1.4575 -0.4115 -0.7304
v  -1.3851 -0.4331 -0.5337
v  -0.6448 -0.3604 -0.2136
v  -0.1671 -0.3017 -0.0752
v  0.0478 -0.1689 -0.6932
v  0.0408 -0.1707 -1.4545
v  -0.6166 -0.3736 -1.3568
v  -0.3195 -0.3009 -0.6070
v  -0.1768 -0.2239 -1.6070
v  -0.5286 -0.3521 -1.5471
v  -0.0795 -0.2422 -0.1713
v  0.0460 -0.1694 -0.1708
v  0.0800 -0.3084 -0.1708
v  0.0818 -0.3080 -0.6932
v  0.0748 -0.3097 -1.4545
v  -0.1428 -0.3629 -1.6070
v  -0.5141 -0.4115 -1.5471
v  -0.6021 -0.4331 -1.3568
v  -0.3049 -0.3604 -0.6070
v  -0.0650 -0.3017 -0.1713
v  0.5240 -0.1689 -0.4564
v  1.0573 -0.1707 -0.9996
v  0.5234 -0.3736 -1.3954
v  0.2033 -0.3009 -0.6551
v  1.0113 -0.2239 -1.2613
v  0.7202 -0.3521 -1.4677
v  0.0649 -0.2422 -0.1773
v  0.1533 -0.1694 -0.0882
v  0.1773 -0.3084 -0.0642
v  0.5480 -0.3080 -0.4323
v  1.0814 -0.3097 -0.9756
v  1.0353 -0.3629 -1.2373
v  0.7304 -0.4115 -1.4575
v  0.5337 -0.4331 -1.3851
v  0.2136 -0.3604 -0.6448
v  0.0752 -0.3017 -0.1671
v  0.6932 -0.1689 0.0478
v  1.4545 -0.1707 0.0408
v  1.3568 -0.3736 -0.6166
v  0.6070 -0.3009 -0.3195
v  1.6070 -0.2239 -0.1768
v  1.5471 -0.3521 -0.5286
v  0.1713 -0.2422 -0.0795
v  0.1708 -0.1694 0.0460
v  0.1708 -0.3084 0.0800
v  0.6932 -0.3080 0.0818
v  1.4545 -0.3097 0.0748
v  1.6070 -0.3629 -0.1428
v  1.5471 -0.4115 -0.5141
v  1.3568 -0.4331 -0.6021
v  0.6070 -0.3604 -0.3049
v  0.1713 -0.3017 -0.0650
v  0.4564 -0.1689 0.5240
v  0.9996 -0.1707 1.0573
v  1.3954 -0.3736 0.5234
v  0.6551 -0.3009 0.2033
v  1.2613 -0.2239 1.0113
v  1.4677 -0.3521 0.7202
v  0.1773 -0.2422 0.0649
v  0.0882 -0.1694 0.1533
v  0.0642 -0.3084 0.1773
v  0.4323 -0.3080 0.5480
v  0.9756 -0.3097 1.0814
v  1.2373 -0.3629 1.0353
v  1.4575 -0.4115 0.7304
v  1.3851 -0.4331 0.5337
v  0.6448 -0.3604 0.2136
v  0.1671 -0.3017 0.0752
# 177 vertices

vn 0.9127 -0.3669 0.1799
vn 0.9121 -0.3670 -0.1828
vn 0.9805 0.0000 -0.1965
vn 0.9811 0.0000 0.1934
vn 0.7727 -0.3670 -0.5180
vn 0.8306 0.0000 -0.5568
vn 0.5157 -0.3669 -0.7742
vn 0.5544 0.0000 -0.8323
vn 0.1802 -0.3670 -0.9126
vn 0.1937 0.0000 -0.9811
vn -0.1833 -0.3671 -0.9120
vn -0.1970 0.0000 -0.9804
vn -0.5182 -0.3668 -0.7726
vn -0.5570 0.0000 -0.8305
vn -0.7743 -0.3668 -0.5157
vn -0.8323 0.0000 -0.5543
vn -0.9127 -0.3669 -0.1799
vn -0.9811 0.0000 -0.1934
vn -0.9122 -0.3667 0.1828
vn -0.9805 0.0000 0.1965
vn -0.7727 -0.3670 0.5180
vn -0.8306 0.0000 0.5568
vn -0.5157 -0.3669 0.7742
vn -0.5544 0.0000 0.8323
vn -0.1802 -0.3670 0.9126
vn -0.1938 0.0000 0.9810
vn 0.1830 -0.3671 0.9120
vn 0.1967 0.0000 0.9805
vn 0.5181 -0.3668 0.7727
vn 0.5569 0.0000 0.8306
vn 0.7743 -0.3672 0.5153
vn 0.8325 0.0000 0.5541
vn 0.3508 -0.9069 0.2335
vn 0.2352 -0.9065 0.3506
vn 0.0000 -1.0000 -0.0000
vn 0.0828 -0.9068 0.4133
vn -0.0816 -0.9066 0.4139
vn -0.2339 -0.9066 0.3511
vn -0.3503 -0.9067 0.2349
vn -0.4140 -0.9065 0.0830
vn -0.4138 -0.9067 -0.0817
vn -0.3513 -0.9066 -0.2339
vn -0.2350 -0.9066 -0.3505
vn -0.0830 -0.9068 -0.4134
vn 0.0816 -0.9066 -0.4139
vn 0.2339 -0.9066 -0.3511
vn 0.3505 -0.9067 -0.2348
vn 0.4134 -0.9067 -0.0829
vn 0.4140 -0.9066 0.0818
vn -0.4754 0.8798 0.0019
vn -0.5102 0.7777 0.3673
vn 0.9152 0.4025 0.0215
vn 0.8161 0.4751 -0.3290
vn 0.0376 0.6995 0.7136
vn 0.6310 0.4290 0.6463
vn 0.7918 0.4853 -0.3708
vn -0.3918 0.9200 -0.0022
vn -0.7722 -0.6354 -0.0022
vn -0.8277 -0.5612 0.0019
vn -0.8116 -0.4545 0.3672
vn -0.2895 -0.6378 0.7137
vn 0.3621 -0.6715 0.6465
vn 0.6267 -0.7790 0.0215
vn 0.5042 -0.7985 -0.3289
vn 0.4793 -0.7954 -0.3710
vn -0.3375 0.8798 -0.3347
vn -0.6205 0.7777 -0.1010
vn 0.6319 0.4025 0.6623
vn 0.8097 0.4751 0.3444
vn -0.4781 0.6995 0.5312
vn -0.0108 0.4290 0.9032
vn 0.8221 0.4853 0.2977
vn -0.2755 0.9200 -0.2787
vn -0.5446 -0.6352 -0.5477
vn -0.5866 -0.5612 -0.5839
vn -0.8335 -0.4545 -0.3142
vn -0.7094 -0.6378 0.3000
vn -0.2011 -0.6715 0.7132
vn 0.4280 -0.7790 0.4583
vn 0.5891 -0.7985 0.1240
vn 0.6012 -0.7954 0.0765
vn -0.0019 0.8798 -0.4754
vn -0.3673 0.7777 -0.5102
vn -0.0215 0.4025 0.9152
vn 0.3290 0.4751 0.8161
vn -0.7136 0.6995 0.0376
vn -0.6463 0.4290 0.6310
vn 0.3708 0.4853 0.7918
vn 0.0022 0.9200 -0.3918
vn 0.0022 -0.6354 -0.7722
vn -0.0019 -0.5612 -0.8277
vn -0.3672 -0.4545 -0.8116
vn -0.7137 -0.6378 -0.2895
vn -0.6465 -0.6715 0.3621
vn -0.0215 -0.7790 0.6267
vn 0.3289 -0.7985 0.5042
vn 0.3710 -0.7954 0.4793
vn 0.3348 0.8798 -0.3375
vn 0.1011 0.7777 -0.6204
vn -0.6623 0.4026 0.6319
vn -0.3444 0.4751 0.8097
vn -0.5312 0.6995 -0.4781
vn -0.9032 0.4290 -0.0108
vn -0.2977 0.4853 0.8221
vn 0.2786 0.9200 -0.2755
vn 0.5475 -0.6354 -0.5445
vn 0.5839 -0.5612 -0.5866
vn 0.3142 -0.4545 -0.8335
vn -0.3000 -0.6379 -0.7093
vn -0.7132 -0.6715 -0.2011
vn -0.4583 -0.7790 0.4279
vn -0.1240 -0.7985 0.5891
vn -0.0765 -0.7954 0.6012
vn 0.4754 0.8798 -0.0019
vn 0.5102 0.7777 -0.3673
vn -0.9152 0.4025 -0.0215
vn -0.8161 0.4751 0.3290
vn -0.0376 0.6995 -0.7136
vn -0.6310 0.4290 -0.6463
vn -0.7918 0.4853 0.3708
vn 0.3918 0.9200 0.0022
vn 0.7722 -0.6354 0.0022
vn 0.8277 -0.5612 -0.0019
vn 0.8116 -0.4545 -0.3672
vn 0.2895 -0.6378 -0.7137
vn -0.3621 -0.6715 -0.6465
vn -0.6267 -0.7790 -0.0215
vn -0.5042 -0.7985 0.3289
vn -0.4793 -0.7954 0.3710
vn 0.3374 0.8798 0.3347
vn 0.6204 0.7777 0.1011
vn -0.6319 0.4026 -0.6623
vn -0.8097 0.4751 -0.3444
vn 0.4781 0.6995 -0.5312
vn 0.0108 0.4290 -0.9032
vn -0.8221 0.4853 -0.2977
vn 0.2755 0.9200 0.2786
vn 0.5445 -0.6354 0.5475
vn 0.5866 -0.5613 0.5839
vn 0.8335 -0.4545 0.3142
vn 0.7093 -0.6379 -0.3000
vn 0.2011 -0.6715 -0.7132
vn -0.4279 -0.7790 -0.4583
vn -0.5890 -0.7986 -0.1240
vn -0.6012 -0.7954 -0.0765
vn 0.0019 0.8798 0.4754
vn 0.3673 0.7777 0.5102
vn 0.0215 0.4025 -0.9152
vn -0.3290 0.4751 -0.8161
vn 0.7136 0.6995 -0.0376
vn 0.6463 0.4290 -0.6310
vn -0.3708 0.4853 -0.7918
vn -0.0022 0.9200 0.3918
vn -0.0022 -0.6354 0.7722
vn 0.0019 -0.5612 0.8277
vn 0.3672 -0.4545 0.8116
vn 0.7137 -0.6378 0.2895
vn 0.6465 -0.6715 -0.3621
vn 0.0215 -0.7790 -0.6267
vn -0.3289 -0.7985 -0.5042
vn -0.3710 -0.7954 -0.4793
vn -0.3347 0.8798 0.3374
vn -0.1011 0.7777 0.6204
vn 0.6623 0.4026 -0.6319
vn 0.3444 0.4751 -0.8097
vn 0.5312 0.6995 0.4781
vn 0.9032 0.4290 0.0108
vn 0.2977 0.4853 -0.8221
vn -0.2786 0.9200 0.2755
vn -0.5475 -0.6354 0.5445
vn -0.5839 -0.5613 0.5866
vn -0.3142 -0.4545 0.8335
vn 0.3000 -0.6379 0.7093
vn 0.7132 -0.6715 0.2011
vn 0.4583 -0.7790 -0.4279
vn 0.1240 -0.7986 -0.5890
vn 0.0765 -0.7954 -0.6012
# 177 vertex normals

vt 0.2943 0.3953 0.0000
vt 0.2990 0.3953 0.0000
vt 0.2990 0.4108 0.0000
vt 0.2943 0.4108 0.0000
vt 0.3038 0.3953 0.0000
vt 0.3038 0.4108 0.0000
vt 0.3085 0.3953 0.0000
vt 0.3085 0.4108 0.0000
vt 0.3132 0.3953 0.0000
vt 0.3132 0.4108 0.0000
vt 0.3180 0.3953 0.0000
vt 0.3180 0.4108 0.0000
vt 0.2420 0.3953 0.0000
vt 0.2467 0.3953 0.0000
vt 0.2467 0.4108 0.0000
vt 0.2420 0.4108 0.0000
vt 0.2515 0.3953 0.0000
vt 0.2515 0.4108 0.0000
vt 0.2562 0.3953 0.0000
vt 0.2562 0.4108 0.0000
vt 0.2610 0.3953 0.0000
vt 0.2610 0.4108 0.0000
vt 0.2657 0.3953 0.0000
vt 0.2657 0.4108 0.0000
vt 0.2705 0.3953 0.0000
vt 0.2705 0.4108 0.0000
vt 0.2752 0.3953 0.0000
vt 0.2753 0.4108 0.0000
vt 0.2800 0.3953 0.0000
vt 0.2800 0.4108 0.0000
vt 0.2849 0.3953 0.0000
vt 0.2848 0.4108 0.0000
vt 0.2896 0.3953 0.0000
vt 0.2895 0.4108 0.0000
vt 0.2879 0.3908 0.0000
vt 0.2844 0.3922 0.0000
vt 0.2825 0.3826 0.0000
vt 0.2806 0.3922 0.0000
vt 0.2770 0.3907 0.0000
vt 0.2743 0.3880 0.0000
vt 0.2729 0.3845 0.0000
vt 0.2729 0.3806 0.0000
vt 0.2744 0.3771 0.0000
vt 0.2771 0.3744 0.0000
vt 0.2807 0.3729 0.0000
vt 0.2845 0.3730 0.0000
vt 0.2880 0.3745 0.0000
vt 0.2907 0.3772 0.0000
vt 0.2922 0.3807 0.0000
vt 0.2922 0.3846 0.0000
vt 0.2907 0.3881 0.0000
vt 0.2952 0.3852 0.0000
vt 0.2932 0.3899 0.0000
vt 0.2953 0.3802 0.0000
vt 0.2934 0.3755 0.0000
vt 0.2898 0.3719 0.0000
vt 0.2851 0.3699 0.0000
vt 0.2801 0.3699 0.0000
vt 0.2754 0.3718 0.0000
vt 0.2718 0.3754 0.0000
vt 0.2698 0.3800 0.0000
vt 0.2698 0.3851 0.0000
vt 0.2717 0.3898 0.0000
vt 0.2753 0.3934 0.0000
vt 0.2896 0.3934 0.0000
vt 0.4750 0.3417 0.0000
vt 0.4635 0.3119 0.0000
vt 0.4919 0.3043 0.0000
vt 0.4920 0.3392 0.0000
vt 0.4688 0.3023 0.0000
vt 0.4849 0.2983 0.0000
vt 0.4886 0.3605 0.0000
vt 0.4826 0.3627 0.0000
vt 0.4766 0.3647 0.0000
vt 0.4692 0.3435 0.0000
vt 0.4581 0.3121 0.0000
vt 0.4625 0.3000 0.0000
vt 0.4681 0.2961 0.0000
vt 0.4844 0.2958 0.0000
vt 0.4867 0.2964 0.0000
vt 0.4936 0.3023 0.0000
vt 0.4946 0.3044 0.0000
vt 0.4946 0.3394 0.0000
vt 0.4912 0.3608 0.0000
vt 0.4316 0.3260 0.0000
vt 0.4326 0.3170 0.0000
vt 0.4468 0.3092 0.0000
vt 0.4546 0.3524 0.0000
vt 0.4707 0.3667 0.0000
# 89 texture coords

o deco_fan_spin
g deco_fan_spin
f 1/1/1 2/2/2 3/3/3 4/4/4 
f 2/2/2 5/5/5 6/6/6 3/3/3 
f 5/5/5 7/7/7 8/8/8 6/6/6 
f 7/7/7 9/9/9 10/10/10 8/8/8 
f 9/9/9 11/11/11 12/12/12 10/10/10 
f 11/13/11 13/14/13 14/15/14 12/16/12 
f 13/14/13 15/17/15 16/18/16 14/15/14 
f 15/17/15 17/19/17 18/20/18 16/18/16 
f 17/19/17 19/21/19 20/22/20 18/20/18 
f 19/21/19 21/23/21 22/24/22 20/22/20 
f 21/23/21 23/25/23 24/26/24 22/24/22 
f 23/25/23 25/27/25 26/28/26 24/26/24 
f 25/27/25 27/29/27 28/30/28 26/28/26 
f 27/29/27 29/31/29 30/32/30 28/30/28 
f 29/31/29 31/33/31 32/34/32 30/32/30 
f 31/33/31 1/1/1 4/4/4 32/34/32 
f 33/35/33 34/36/34 35/37/35 
f 34/36/34 36/38/36 35/37/35 
f 36/38/36 37/39/37 35/37/35 
f 37/39/37 38/40/38 35/37/35 
f 38/40/38 39/41/39 35/37/35 
f 39/41/39 40/42/40 35/37/35 
f 40/42/40 41/43/41 35/37/35 
f 41/43/41 42/44/42 35/37/35 
f 42/44/42 43/45/43 35/37/35 
f 43/45/43 44/46/44 35/37/35 
f 44/46/44 45/47/45 35/37/35 
f 45/47/45 46/48/46 35/37/35 
f 46/48/46 47/49/47 35/37/35 
f 47/49/47 48/50/48 35/37/35 
f 48/50/48 49/51/49 35/37/35 
f 49/51/49 33/35/33 35/37/35 
f 48/50/48 2/52/2 1/53/1 49/51/49 
f 47/49/47 5/54/5 2/52/2 48/50/48 
f 46/48/46 7/55/7 5/54/5 47/49/47 
f 45/47/45 9/56/9 7/55/7 46/48/46 
f 44/46/44 11/57/11 9/56/9 45/47/45 
f 43/45/43 13/58/13 11/57/11 44/46/44 
f 42/44/42 15/59/15 13/58/13 43/45/43 
f 41/43/41 17/60/17 15/59/15 42/44/42 
f 40/42/40 19/61/19 17/60/17 41/43/41 
f 39/41/39 21/62/21 19/61/19 40/42/40 
f 38/40/38 23/63/23 21/62/21 39/41/39 
f 37/39/37 25/64/25 23/63/23 38/40/38 
f 36/38/36 27/29/27 25/64/25 37/39/37 
f 34/36/34 29/31/29 27/29/27 36/38/36 
f 33/35/33 31/65/31 29/31/29 34/36/34 
f 49/51/49 1/53/1 31/65/31 33/35/33 
f 50/66/50 51/67/51 52/68/52 53/69/53 
f 51/67/51 54/70/54 55/71/55 52/68/52 
f 53/69/53 56/72/56 57/73/57 50/66/50 
f 58/74/58 59/75/59 50/66/50 57/73/57 
f 59/75/59 60/76/60 51/67/51 50/66/50 
f 60/76/60 61/77/61 54/70/54 51/67/51 
f 61/78/61 62/79/62 55/71/55 54/70/54 
f 62/80/62 63/81/63 52/68/52 55/71/55 
f 63/82/63 64/83/64 53/69/53 52/68/52 
f 64/83/64 65/84/65 56/72/56 53/69/53 
f 63/85/63 62/86/62 61/87/61 60/76/60 
f 64/88/64 63/85/63 60/76/60 59/75/59 
f 65/89/65 64/88/64 59/75/59 58/74/58 
f 66/66/66 67/67/67 68/68/68 69/69/69 
f 67/67/67 70/70/70 71/71/71 68/68/68 
f 69/69/69 72/72/72 73/73/73 66/66/66 
f 74/74/74 75/75/75 66/66/66 73/73/73 
f 75/75/75 76/76/76 67/67/67 66/66/66 
f 76/76/76 77/77/77 70/70/70 67/67/67 
f 77/78/77 78/79/78 71/71/71 70/70/70 
f 78/80/78 79/81/79 68/68/68 71/71/71 
f 79/82/79 80/83/80 69/69/69 68/68/68 
f 80/83/80 81/84/81 72/72/72 69/69/69 
f 79/85/79 78/86/78 77/87/77 76/76/76 
f 80/88/80 79/85/79 76/76/76 75/75/75 
f 81/89/81 80/88/80 75/75/75 74/74/74 
f 82/66/82 83/67/83 84/68/84 85/69/85 
f 83/67/83 86/70/86 87/71/87 84/68/84 
f 85/69/85 88/72/88 89/73/89 82/66/82 
f 90/74/90 91/75/91 82/66/82 89/73/89 
f 91/75/91 92/76/92 83/67/83 82/66/82 
f 92/76/92 93/77/93 86/70/86 83/67/83 
f 93/78/93 94/79/94 87/71/87 86/70/86 
f 94/80/94 95/81/95 84/68/84 87/71/87 
f 95/82/95 96/83/96 85/69/85 84/68/84 
f 96/83/96 97/84/97 88/72/88 85/69/85 
f 95/85/95 94/86/94 93/87/93 92/76/92 
f 96/88/96 95/85/95 92/76/92 91/75/91 
f 97/89/97 96/88/96 91/75/91 90/74/90 
f 98/66/98 99/67/99 100/68/100 101/69/101 
f 99/67/99 102/70/102 103/71/103 100/68/100 
f 101/69/101 104/72/104 105/73/105 98/66/98 
f 106/74/106 107/75/107 98/66/98 105/73/105 
f 107/75/107 108/76/108 99/67/99 98/66/98 
f 108/76/108 109/77/109 102/70/102 99/67/99 
f 109/78/109 110/79/110 103/71/103 102/70/102 
f 110/80/110 111/81/111 100/68/100 103/71/103 
f 111/82/111 112/83/112 101/69/101 100/68/100 
f 112/83/112 113/84/113 104/72/104 101/69/101 
f 111/85/111 110/86/110 109/87/109 108/76/108 
f 112/88/112 111/85/111 108/76/108 107/75/107 
f 113/89/113 112/88/112 107/75/107 106/74/106 
f 114/66/114 115/67/115 116/68/116 117/69/117 
f 115/67/115 118/70/118 119/71/119 116/68/116 
f 117/69/117 120/72/120 121/73/121 114/66/114 
f 122/74/122 123/75/123 114/66/114 121/73/121 
f 123/75/123 124/76/124 115/67/115 114/66/114 
f 124/76/124 125/77/125 118/70/118 115/67/115 
f 125/78/125 126/79/126 119/71/119 118/70/118 
f 126/80/126 127/81/127 116/68/116 119/71/119 
f 127/82/127 128/83/128 117/69/117 116/68/116 
f 128/83/128 129/84/129 120/72/120 117/69/117 
f 127/85/127 126/86/126 125/87/125 124/76/124 
f 128/88/128 127/85/127 124/76/124 123/75/123 
f 129/89/129 128/88/128 123/75/123 122/74/122 
f 130/66/130 131/67/131 132/68/132 133/69/133 
f 131/67/131 134/70/134 135/71/135 132/68/132 
f 133/69/133 136/72/136 137/73/137 130/66/130 
f 138/74/138 139/75/139 130/66/130 137/73/137 
f 139/75/139 140/76/140 131/67/131 130/66/130 
f 140/76/140 141/77/141 134/70/134 131/67/131 
f 141/78/141 142/79/142 135/71/135 134/70/134 
f 142/80/142 143/81/143 132/68/132 135/71/135 
f 143/82/143 144/83/144 133/69/133 132/68/132 
f 144/83/144 145/84/145 136/72/136 133/69/133 
f 143/85/143 142/86/142 141/87/141 140/76/140 
f 144/88/144 143/85/143 140/76/140 139/75/139 
f 145/89/145 144/88/144 139/75/139 138/74/138 
f 146/66/146 147/67/147 148/68/148 149/69/149 
f 147/67/147 150/70/150 151/71/151 148/68/148 
f 149/69/149 152/72/152 153/73/153 146/66/146 
f 154/74/154 155/75/155 146/66/146 153/73/153 
f 155/75/155 156/76/156 147/67/147 146/66/146 
f 156/76/156 157/77/157 150/70/150 147/67/147 
f 157/78/157 158/79/158 151/71/151 150/70/150 
f 158/80/158 159/81/159 148/68/148 151/71/151 
f 159/82/159 160/83/160 149/69/149 148/68/148 
f 160/83/160 161/84/161 152/72/152 149/69/149 
f 159/85/159 158/86/158 157/87/157 156/76/156 
f 160/88/160 159/85/159 156/76/156 155/75/155 
f 161/89/161 160/88/160 155/75/155 154/74/154 
f 162/66/162 163/67/163 164/68/164 165/69/165 
f 163/67/163 166/70/166 167/71/167 164/68/164 
f 165/69/165 168/72/168 169/73/169 162/66/162 
f 170/74/170 171/75/171 162/66/162 169/73/169 
f 171/75/171 172/76/172 163/67/163 162/66/162 
f 172/76/172 173/77/173 166/70/166 163/67/163 
f 173/78/173 174/79/174 167/71/167 166/70/166 
f 174/80/174 175/81/175 164/68/164 167/71/167 
f 175/82/175 176/83/176 165/69/165 164/68/164 
f 176/83/176 177/84/177 168/72/168 165/69/165 
f 175/85/175 174/86/174 173/87/173 172/76/172 
f 176/88/176 175/85/175 172/76/172 171/75/171 
f 177/89/177 176/88/176 171/75/171 170/74/170 
# 136 polygons - 16 triangles

