# 3ds Max Wavefront OBJ Exporter v0.97b - (c)2007 guruware
# File Created: 07.12.2019 15:46:40

#
# object deco_button_base
#

v  2.6299 0.8307 -2.0536
v  3.4185 0.8307 -2.0536
v  3.4185 0.8307 -2.6286
v  2.6299 0.8307 -2.6286
v  2.6299 0.8307 -0.6136
v  2.5384 0.6667 -0.2568
v  3.4185 0.6667 -0.2568
v  3.4185 0.8307 -0.6136
v  0.5131 0.8307 -3.2035
v  0.1760 0.6667 -3.3053
v  0.1760 0.6667 -2.6286
v  0.5131 0.8307 -2.6286
v  0.5131 0.8307 -2.0536
v  2.3975 0.8307 -2.0536
v  2.3975 0.8307 -2.6286
v  2.2790 0.6667 -0.0000
v  2.3975 0.8307 -0.3954
v  0.3555 0.8307 -0.3954
v  0.0000 0.6667 -0.0000
v  2.3975 0.8307 -4.8617
v  2.2790 0.6667 -5.2571
v  0.0000 0.6667 -5.2571
v  0.3555 0.8307 -4.8617
v  2.6299 0.8307 -4.6435
v  2.6299 0.8307 -3.3730
v  3.4185 0.8307 -3.3730
v  3.4185 0.8307 -4.6435
v  0.3555 0.8307 -1.8842
v  0.0000 0.6667 -1.7524
v  0.0000 0.6667 -3.5048
v  0.3555 0.8307 -3.3730
v  2.3975 0.8307 -3.3730
v  2.3975 0.8307 -1.8842
v  2.5384 0.6667 -5.0003
v  2.6299 0.8307 -1.8842
v  2.6299 0.8307 -3.2035
v  3.4185 0.8307 -3.2035
v  0.1760 0.6667 -1.9519
v  2.3975 0.8307 -3.2035
v  0.0000 -0.0000 -1.7524
v  0.0000 -0.0000 -0.0000
v  2.2790 -0.0000 -5.2571
v  0.0000 -0.0000 -5.2571
v  2.2790 -0.0000 -0.0000
v  2.5384 -0.0000 -5.0003
v  0.1760 -0.0000 -1.9519
v  0.0000 -0.0000 -3.5048
v  2.5384 -0.0000 -0.2568
v  3.4185 -0.0000 -0.2568
v  0.1760 -0.0000 -3.3053
v  0.1760 -0.0000 -2.6286
v  3.4185 0.6667 -5.0003
v  3.4185 0.8307 -1.8842
v  3.4185 -0.0000 -5.0003
v  1.6785 0.7748 -2.6286
v  2.0798 1.0023 -2.6286
v  2.2124 1.0023 -3.2094
v  1.8508 0.7748 -3.3835
v  2.5838 1.0023 -3.6752
v  2.3336 0.7748 -3.9889
v  3.1206 1.0023 -3.9337
v  3.0313 0.7748 -4.3249
v  3.4185 1.0023 -3.9337
v  3.4185 0.7748 -4.3249
v  3.0313 0.7748 -0.9322
v  3.1206 1.0023 -1.3235
v  2.5838 1.0023 -1.5820
v  2.3336 0.7748 -1.2682
v  2.2124 1.0023 -2.0478
v  1.8508 0.7748 -1.8736
v  2.7639 0.9421 -2.3133
v  3.4185 0.9421 -2.6286
v  2.6919 0.9421 -2.6286
v  2.7639 0.9421 -2.9438
v  2.9655 0.9421 -3.1966
v  3.2568 0.9421 -3.3369
v  3.4185 0.9421 -3.3369
v  3.2568 0.9421 -1.9202
v  2.9655 0.9421 -2.0605
v  2.6062 1.0023 -2.6286
v  2.6866 1.0023 -2.9810
v  2.9120 1.0023 -3.2636
v  3.2377 1.0023 -3.4205
v  3.4185 1.0023 -3.4205
v  3.2377 1.0023 -1.8367
v  2.9120 1.0023 -1.9935
v  2.6866 1.0023 -2.2761
v  3.4185 0.7748 -0.9322
v  3.4185 1.0023 -1.3235
v  3.4185 0.9421 -1.9202
v  3.4185 1.0023 -1.8367
v  4.2071 0.8307 -2.0536
v  4.2071 0.8307 -2.6286
v  4.2071 0.8307 -0.6136
v  4.2986 0.6667 -0.2568
v  6.3239 0.8307 -3.2035
v  6.3239 0.8307 -2.6286
v  6.6610 0.6667 -2.6286
v  6.6610 0.6667 -3.3053
v  6.3239 0.8307 -2.0536
v  4.4395 0.8307 -2.6286
v  4.4395 0.8307 -2.0536
v  4.5580 0.6667 -0.0000
v  6.8370 0.6667 -0.0000
v  6.4815 0.8307 -0.3954
v  4.4395 0.8307 -0.3954
v  4.4395 0.8307 -4.8617
v  6.4815 0.8307 -4.8617
v  6.8370 0.6667 -5.2571
v  4.5580 0.6667 -5.2571
v  4.2071 0.8307 -4.6435
v  4.2071 0.8307 -3.3730
v  6.4815 0.8307 -1.8842
v  6.8370 0.6667 -1.7524
v  6.8370 0.6667 -3.5048
v  6.4815 0.8307 -3.3730
v  4.4395 0.8307 -3.3730
v  4.4395 0.8307 -1.8842
v  4.2986 0.6667 -5.0003
v  4.2071 0.8307 -1.8842
v  4.2071 0.8307 -3.2035
v  6.6610 0.6667 -1.9519
v  4.4395 0.8307 -3.2035
v  6.8370 -0.0000 -0.0000
v  6.8370 -0.0000 -1.7524
v  6.8370 -0.0000 -5.2571
v  4.5580 -0.0000 -5.2571
v  4.5580 -0.0000 -0.0000
v  4.2986 -0.0000 -5.0003
v  6.6610 -0.0000 -1.9519
v  6.8370 -0.0000 -3.5048
v  4.2986 -0.0000 -0.2568
v  6.6610 -0.0000 -2.6286
v  6.6610 -0.0000 -3.3053
v  5.1585 0.7748 -2.6286
v  4.9862 0.7748 -3.3835
v  4.6246 1.0023 -3.2094
v  4.7572 1.0023 -2.6286
v  4.5034 0.7748 -3.9889
v  4.2532 1.0023 -3.6752
v  3.8057 0.7748 -4.3249
v  3.7164 1.0023 -3.9337
v  3.8057 0.7748 -0.9322
v  4.5034 0.7748 -1.2682
v  4.2532 1.0023 -1.5820
v  3.7164 1.0023 -1.3235
v  4.9862 0.7748 -1.8736
v  4.6246 1.0023 -2.0478
v  4.0731 0.9421 -2.3133
v  4.1451 0.9421 -2.6286
v  4.0731 0.9421 -2.9438
v  3.8715 0.9421 -3.1966
v  3.5802 0.9421 -3.3369
v  3.5802 0.9421 -1.9202
v  3.8715 0.9421 -2.0605
v  4.1504 1.0023 -2.9810
v  4.2308 1.0023 -2.6286
v  3.9250 1.0023 -3.2636
v  3.5993 1.0023 -3.4205
v  3.9250 1.0023 -1.9935
v  3.5993 1.0023 -1.8367
v  4.1504 1.0023 -2.2761
# 162 vertices

vn 0.0000 1.0000 -0.0000
vn 0.0490 0.9835 0.1741
vn 0.3854 0.5301 0.7553
vn 0.0000 0.5396 0.8419
vn 0.0000 0.9769 0.2138
vn -0.1849 0.9815 0.0505
vn -0.7769 0.5153 0.3618
vn -0.8478 0.5303 -0.0000
vn -0.2244 0.9745 -0.0000
vn -0.1849 0.9815 -0.0505
vn 0.3081 0.4848 0.8186
vn 0.1808 0.9436 0.2773
vn -0.1661 0.9753 0.1457
vn -0.6142 0.4918 0.6172
vn 0.1808 0.9436 -0.2773
vn 0.3081 0.4848 -0.8186
vn -0.6142 0.4918 -0.6172
vn -0.1661 0.9753 -0.1457
vn 0.0490 0.9835 -0.1741
vn 0.0000 0.9769 -0.2138
vn -0.3131 0.9268 -0.2072
vn -0.8341 0.4721 -0.2852
vn -0.8341 0.4721 0.2852
vn -0.3131 0.9269 0.2070
vn 0.3854 0.5301 -0.7553
vn -0.7768 0.5154 -0.3618
vn -0.9354 0.0000 -0.3536
vn -0.7071 0.0000 0.7071
vn 0.3804 0.0000 -0.9248
vn -0.7071 0.0000 -0.7071
vn 0.3804 0.0000 0.9248
vn -0.9354 0.0000 0.3536
vn 0.0000 0.0000 1.0000
vn -1.0000 0.0000 -0.0000
vn 0.0000 0.5396 -0.8419
vn 0.0000 0.0000 -1.0000
vn -0.4932 0.8699 -0.0000
vn -0.2884 0.9575 -0.0000
vn -0.2598 0.9575 -0.1251
vn -0.4443 0.8699 -0.2140
vn -0.1798 0.9575 -0.2255
vn -0.3075 0.8699 -0.3856
vn -0.0642 0.9575 -0.2812
vn -0.1098 0.8699 -0.4808
vn 0.0000 0.9655 -0.2603
vn 0.0000 0.8645 -0.5027
vn -0.1097 0.8700 0.4808
vn -0.0642 0.9575 0.2811
vn -0.1798 0.9575 0.2255
vn -0.3075 0.8700 0.3856
vn -0.2598 0.9575 0.1251
vn -0.4443 0.8700 0.2140
vn 0.3056 0.9407 -0.1472
vn 0.3395 0.9406 0.0000
vn 0.3056 0.9407 0.1472
vn 0.2116 0.9406 0.2654
vn 0.0755 0.9407 0.3308
vn 0.0000 0.9517 0.3070
vn 0.0756 0.9406 -0.3311
vn 0.2116 0.9406 -0.2654
vn 0.2614 0.9652 0.0000
vn 0.2353 0.9653 0.1133
vn 0.1629 0.9653 0.2043
vn 0.0581 0.9653 0.2546
vn 0.0582 0.9652 -0.2549
vn 0.1629 0.9653 -0.2043
vn 0.2353 0.9653 -0.1133
vn 0.0000 0.8645 0.5026
vn 0.0000 0.9655 0.2603
vn 0.0000 0.9516 -0.3072
vn -0.0490 0.9835 0.1741
vn -0.3854 0.5301 0.7553
vn 0.1849 0.9815 0.0505
vn 0.2244 0.9745 -0.0000
vn 0.8478 0.5303 -0.0000
vn 0.7769 0.5153 0.3618
vn 0.1849 0.9815 -0.0505
vn -0.3081 0.4848 0.8186
vn 0.6142 0.4918 0.6172
vn 0.1661 0.9753 0.1457
vn -0.1808 0.9436 0.2773
vn -0.1808 0.9436 -0.2773
vn 0.1661 0.9753 -0.1457
vn 0.6142 0.4918 -0.6172
vn -0.3081 0.4848 -0.8186
vn -0.0490 0.9835 -0.1741
vn 0.3131 0.9268 -0.2072
vn 0.8341 0.4721 -0.2852
vn 0.8341 0.4721 0.2852
vn 0.3131 0.9269 0.2070
vn -0.3854 0.5301 -0.7553
vn 0.7768 0.5154 -0.3618
vn 0.7071 0.0000 0.7071
vn 0.9354 0.0000 -0.3536
vn 0.7071 0.0000 -0.7071
vn -0.3804 0.0000 -0.9248
vn -0.3804 0.0000 0.9248
vn 0.9354 0.0000 0.3536
vn 1.0000 0.0000 -0.0000
vn 0.4932 0.8699 -0.0000
vn 0.4443 0.8699 -0.2140
vn 0.2598 0.9575 -0.1251
vn 0.2884 0.9575 -0.0000
vn 0.3075 0.8699 -0.3856
vn 0.1798 0.9575 -0.2255
vn 0.1098 0.8699 -0.4808
vn 0.0642 0.9575 -0.2812
vn 0.1097 0.8700 0.4808
vn 0.3075 0.8700 0.3856
vn 0.1798 0.9575 0.2255
vn 0.0642 0.9575 0.2811
vn 0.4443 0.8700 0.2140
vn 0.2598 0.9575 0.1251
vn -0.3056 0.9407 -0.1472
vn -0.3395 0.9406 0.0000
vn -0.3056 0.9407 0.1472
vn -0.2116 0.9406 0.2654
vn -0.0755 0.9407 0.3308
vn -0.0756 0.9406 -0.3311
vn -0.2116 0.9406 -0.2654
vn -0.2353 0.9653 0.1133
vn -0.2614 0.9652 0.0000
vn -0.1629 0.9653 0.2043
vn -0.0581 0.9653 0.2546
vn -0.1629 0.9653 -0.2043
vn -0.0582 0.9652 -0.2549
vn -0.2353 0.9653 -0.1133
# 127 vertex normals

vt 0.3290 0.9278 0.0000
vt 0.3077 0.9278 0.0000
vt 0.3077 0.9120 0.0000
vt 0.3290 0.9120 0.0000
vt 0.3290 0.9684 0.0000
vt 0.3290 0.9791 0.0000
vt 0.3077 0.9791 0.0000
vt 0.3077 0.9684 0.0000
vt 0.3855 0.8962 0.0000
vt 0.3970 0.8962 0.0000
vt 0.3970 0.9120 0.0000
vt 0.3855 0.9120 0.0000
vt 0.3855 0.9278 0.0000
vt 0.3366 0.9278 0.0000
vt 0.3366 0.9120 0.0000
vt 0.3366 0.9791 0.0000
vt 0.3366 0.9684 0.0000
vt 0.3882 0.9684 0.0000
vt 0.3970 0.9791 0.0000
vt 0.3366 0.8556 0.0000
vt 0.3366 0.8450 0.0000
vt 0.3970 0.8450 0.0000
vt 0.3882 0.8556 0.0000
vt 0.3290 0.8556 0.0000
vt 0.3290 0.8911 0.0000
vt 0.3077 0.8911 0.0000
vt 0.3077 0.8556 0.0000
vt 0.3882 0.9329 0.0000
vt 0.3970 0.9329 0.0000
vt 0.3970 0.8911 0.0000
vt 0.3882 0.8911 0.0000
vt 0.3366 0.8911 0.0000
vt 0.3366 0.9329 0.0000
vt 0.3290 0.8450 0.0000
vt 0.3290 0.9329 0.0000
vt 0.3290 0.8962 0.0000
vt 0.3077 0.8962 0.0000
vt 0.3970 0.9278 0.0000
vt 0.3366 0.8962 0.0000
vt 0.4143 0.9329 0.0000
vt 0.4143 0.9791 0.0000
vt 0.3366 0.8276 0.0000
vt 0.3970 0.8276 0.0000
vt 0.3970 0.9965 0.0000
vt 0.3366 0.9965 0.0000
vt 0.3290 0.8276 0.0000
vt 0.4143 0.9278 0.0000
vt 0.4143 0.8450 0.0000
vt 0.4143 0.8911 0.0000
vt 0.3290 0.9965 0.0000
vt 0.3077 0.9965 0.0000
vt 0.4143 0.8962 0.0000
vt 0.4143 0.9120 0.0000
vt 0.3077 0.8450 0.0000
vt 0.3077 0.9329 0.0000
vt 0.3077 0.8276 0.0000
vt 0.9964 0.7310 0.0000
vt 0.9845 0.7310 0.0000
vt 0.9811 0.7159 0.0000
vt 0.9919 0.7108 0.0000
vt 0.9715 0.7037 0.0000
vt 0.9791 0.6945 0.0000
vt 0.9577 0.6968 0.0000
vt 0.9606 0.6853 0.0000
vt 0.9500 0.6967 0.0000
vt 0.9500 0.6849 0.0000
vt 0.9606 0.7768 0.0000
vt 0.9577 0.7652 0.0000
vt 0.9715 0.7583 0.0000
vt 0.9791 0.7676 0.0000
vt 0.9811 0.7461 0.0000
vt 0.9919 0.7513 0.0000
vt 0.9666 0.7392 0.0000
vt 0.9500 0.7310 0.0000
vt 0.9685 0.7310 0.0000
vt 0.9666 0.7229 0.0000
vt 0.9614 0.7163 0.0000
vt 0.9540 0.7127 0.0000
vt 0.9500 0.7127 0.0000
vt 0.9540 0.7494 0.0000
vt 0.9614 0.7457 0.0000
vt 0.9710 0.7310 0.0000
vt 0.9689 0.7218 0.0000
vt 0.9630 0.7143 0.0000
vt 0.9546 0.7101 0.0000
vt 0.9500 0.7100 0.0000
vt 0.9546 0.7520 0.0000
vt 0.9630 0.7478 0.0000
vt 0.9689 0.7403 0.0000
vt 0.9500 0.7772 0.0000
vt 0.9500 0.7654 0.0000
vt 0.9500 0.7494 0.0000
vt 0.9500 0.7520 0.0000
vt 1.3290 0.9278 0.0000
vt 1.3290 0.9120 0.0000
vt 1.3077 0.9120 0.0000
vt 1.3077 0.9278 0.0000
vt 1.3290 0.9684 0.0000
vt 1.3077 0.9684 0.0000
vt 1.3077 0.9791 0.0000
vt 1.3290 0.9791 0.0000
vt 1.3855 0.8962 0.0000
vt 1.3855 0.9120 0.0000
vt 1.3970 0.9120 0.0000
vt 1.3970 0.8962 0.0000
vt 1.3855 0.9278 0.0000
vt 1.3366 0.9120 0.0000
vt 1.3366 0.9278 0.0000
vt 1.3366 0.9791 0.0000
vt 1.3970 0.9791 0.0000
vt 1.3882 0.9684 0.0000
vt 1.3366 0.9684 0.0000
vt 1.3366 0.8556 0.0000
vt 1.3882 0.8556 0.0000
vt 1.3970 0.8450 0.0000
vt 1.3366 0.8450 0.0000
vt 1.3290 0.8556 0.0000
vt 1.3077 0.8556 0.0000
vt 1.3077 0.8911 0.0000
vt 1.3290 0.8911 0.0000
vt 1.3882 0.9329 0.0000
vt 1.3970 0.9329 0.0000
vt 1.3970 0.8911 0.0000
vt 1.3882 0.8911 0.0000
vt 1.3366 0.8911 0.0000
vt 1.3366 0.9329 0.0000
vt 1.3290 0.8450 0.0000
vt 1.3290 0.9329 0.0000
vt 1.3290 0.8962 0.0000
vt 1.3077 0.8962 0.0000
vt 1.3970 0.9278 0.0000
vt 1.3366 0.8962 0.0000
vt 1.4143 0.9791 0.0000
vt 1.4143 0.9329 0.0000
vt 1.3970 0.8276 0.0000
vt 1.3366 0.8276 0.0000
vt 1.3366 0.9965 0.0000
vt 1.3970 0.9965 0.0000
vt 1.3290 0.8276 0.0000
vt 1.4143 0.9278 0.0000
vt 1.4143 0.8911 0.0000
vt 1.4143 0.8450 0.0000
vt 1.3077 0.9965 0.0000
vt 1.3290 0.9965 0.0000
vt 1.4143 0.9120 0.0000
vt 1.4143 0.8962 0.0000
vt 1.3077 0.8450 0.0000
vt 1.3077 0.9329 0.0000
vt 1.3077 0.8276 0.0000
vt 1.9964 0.7310 0.0000
vt 1.9919 0.7108 0.0000
vt 1.9811 0.7159 0.0000
vt 1.9845 0.7310 0.0000
vt 1.9791 0.6945 0.0000
vt 1.9715 0.7037 0.0000
vt 1.9606 0.6853 0.0000
vt 1.9577 0.6968 0.0000
vt 1.9500 0.6849 0.0000
vt 1.9500 0.6967 0.0000
vt 1.9606 0.7768 0.0000
vt 1.9791 0.7676 0.0000
vt 1.9715 0.7583 0.0000
vt 1.9577 0.7652 0.0000
vt 1.9919 0.7513 0.0000
vt 1.9811 0.7461 0.0000
vt 1.9666 0.7392 0.0000
vt 1.9685 0.7310 0.0000
vt 1.9500 0.7310 0.0000
vt 1.9666 0.7229 0.0000
vt 1.9614 0.7163 0.0000
vt 1.9540 0.7127 0.0000
vt 1.9500 0.7127 0.0000
vt 1.9540 0.7494 0.0000
vt 1.9614 0.7457 0.0000
vt 1.9689 0.7218 0.0000
vt 1.9710 0.7310 0.0000
vt 1.9630 0.7143 0.0000
vt 1.9546 0.7101 0.0000
vt 1.9500 0.7100 0.0000
vt 1.9630 0.7478 0.0000
vt 1.9546 0.7520 0.0000
vt 1.9689 0.7403 0.0000
vt 1.9500 0.7772 0.0000
vt 1.9500 0.7654 0.0000
vt 1.9500 0.7494 0.0000
vt 1.9500 0.7520 0.0000
# 186 texture coords

o deco_button_base
g deco_button_base
f 1/1/1 2/2/1 3/3/1 4/4/1 
f 5/5/2 6/6/3 7/7/4 8/8/5 
f 9/9/6 10/10/7 11/11/8 12/12/9 
f 13/13/10 14/14/1 15/15/1 12/12/9 
f 16/16/11 17/17/12 18/18/13 19/19/14 
f 20/20/15 21/21/16 22/22/17 23/23/18 
f 24/24/19 25/25/1 26/26/1 27/27/20 
f 28/28/21 29/29/22 19/19/14 18/18/13 
f 30/30/23 31/31/24 23/23/18 22/22/17 
f 31/31/24 32/32/1 20/20/15 23/23/18 
f 33/33/1 28/28/21 18/18/13 17/17/12 
f 14/14/1 1/1/1 4/4/1 15/15/1 
f 6/6/3 5/5/2 17/17/12 16/16/11 
f 24/24/19 34/34/25 21/21/16 20/20/15 
f 5/5/2 35/35/1 33/33/1 17/17/12 
f 25/25/1 24/24/19 20/20/15 32/32/1 
f 36/36/1 37/37/1 26/26/1 25/25/1 
f 13/13/10 38/38/26 29/29/22 28/28/21 
f 10/10/7 9/9/6 31/31/24 30/30/23 
f 9/9/6 39/39/1 32/32/1 31/31/24 
f 14/14/1 13/13/10 28/28/21 33/33/1 
f 39/39/1 36/36/1 25/25/1 32/32/1 
f 1/1/1 14/14/1 33/33/1 35/35/1 
f 29/29/22 40/40/27 41/41/28 19/19/14 
f 21/21/16 42/42/29 43/43/30 22/22/17 
f 19/19/14 41/44/28 44/45/31 16/16/11 
f 34/34/25 45/46/29 42/42/29 21/21/16 
f 38/38/26 46/47/27 40/40/27 29/29/22 
f 22/22/17 43/48/30 47/49/32 30/30/23 
f 6/6/3 48/50/31 49/51/33 7/7/4 
f 16/16/11 44/45/31 48/50/31 6/6/3 
f 10/10/7 50/52/32 51/53/34 11/11/8 
f 30/30/23 47/49/32 50/52/32 10/10/7 
f 27/27/20 52/54/35 34/34/25 24/24/19 
f 8/8/5 53/55/1 35/35/1 5/5/2 
f 53/55/1 2/2/1 1/1/1 35/35/1 
f 52/54/35 54/56/36 45/46/29 34/34/25 
f 4/4/1 3/3/1 37/37/1 36/36/1 
f 12/12/9 11/11/8 38/38/26 13/13/10 
f 12/12/9 15/15/1 39/39/1 9/9/6 
f 15/15/1 4/4/1 36/36/1 39/39/1 
f 11/11/8 51/53/34 46/47/27 38/38/26 
f 55/57/37 56/58/38 57/59/39 58/60/40 
f 58/60/40 57/59/39 59/61/41 60/62/42 
f 60/62/42 59/61/41 61/63/43 62/64/44 
f 62/64/44 61/63/43 63/65/45 64/66/46 
f 65/67/47 66/68/48 67/69/49 68/70/50 
f 68/70/50 67/69/49 69/71/51 70/72/52 
f 70/72/52 69/71/51 56/58/38 55/57/37 
f 71/73/53 72/74/1 73/75/54 
f 73/75/54 72/74/1 74/76/55 
f 74/76/55 72/74/1 75/77/56 
f 75/77/56 72/74/1 76/78/57 
f 76/78/57 72/74/1 77/79/58 
f 78/80/59 72/74/1 79/81/60 
f 79/81/60 72/74/1 71/73/53 
f 56/58/38 80/82/61 81/83/62 57/59/39 
f 57/59/39 81/83/62 82/84/63 59/61/41 
f 59/61/41 82/84/63 83/85/64 61/63/43 
f 61/63/43 83/85/64 84/86/58 63/65/45 
f 66/68/48 85/87/65 86/88/66 67/69/49 
f 67/69/49 86/88/66 87/89/67 69/71/51 
f 69/71/51 87/89/67 80/82/61 56/58/38 
f 80/82/61 73/75/54 74/76/55 81/83/62 
f 81/83/62 74/76/55 75/77/56 82/84/63 
f 82/84/63 75/77/56 76/78/57 83/85/64 
f 83/85/64 76/78/57 77/79/58 84/86/58 
f 85/87/65 78/80/59 79/81/60 86/88/66 
f 86/88/66 79/81/60 71/73/53 87/89/67 
f 87/89/67 71/73/53 73/75/54 80/82/61 
f 88/90/68 89/91/69 66/68/48 65/67/47 
f 90/92/70 72/74/1 78/80/59 
f 89/91/69 91/93/70 85/87/65 66/68/48 
f 91/93/70 90/92/70 78/80/59 85/87/65 
f 92/94/1 93/95/1 3/96/1 2/97/1 
f 94/98/71 8/99/5 7/100/4 95/101/72 
f 96/102/73 97/103/74 98/104/75 99/105/76 
f 100/106/77 97/103/74 101/107/1 102/108/1 
f 103/109/78 104/110/79 105/111/80 106/112/81 
f 107/113/82 108/114/83 109/115/84 110/116/85 
f 111/117/86 27/118/20 26/119/1 112/120/1 
f 113/121/87 105/111/80 104/110/79 114/122/88 
f 115/123/89 109/115/84 108/114/83 116/124/90 
f 116/124/90 108/114/83 107/113/82 117/125/1 
f 118/126/1 106/112/81 105/111/80 113/121/87 
f 102/108/1 101/107/1 93/95/1 92/94/1 
f 95/101/72 103/109/78 106/112/81 94/98/71 
f 111/117/86 107/113/82 110/116/85 119/127/91 
f 94/98/71 106/112/81 118/126/1 120/128/1 
f 112/120/1 117/125/1 107/113/82 111/117/86 
f 121/129/1 112/120/1 26/119/1 37/130/1 
f 100/106/77 113/121/87 114/122/88 122/131/92 
f 99/105/76 115/123/89 116/124/90 96/102/73 
f 96/102/73 116/124/90 117/125/1 123/132/1 
f 102/108/1 118/126/1 113/121/87 100/106/77 
f 123/132/1 117/125/1 112/120/1 121/129/1 
f 92/94/1 120/128/1 118/126/1 102/108/1 
f 114/122/88 104/110/79 124/133/93 125/134/94 
f 110/116/85 109/115/84 126/135/95 127/136/96 
f 104/110/79 103/109/78 128/137/97 124/138/93 
f 119/127/91 110/116/85 127/136/96 129/139/96 
f 122/131/92 114/122/88 125/134/94 130/140/94 
f 109/115/84 115/123/89 131/141/98 126/142/95 
f 95/101/72 7/100/4 49/143/33 132/144/97 
f 103/109/78 95/101/72 132/144/97 128/137/97 
f 99/105/76 98/104/75 133/145/99 134/146/98 
f 115/123/89 99/105/76 134/146/98 131/141/98 
f 27/118/20 111/117/86 119/127/91 52/147/35 
f 8/99/5 94/98/71 120/128/1 53/148/1 
f 53/148/1 120/128/1 92/94/1 2/97/1 
f 52/147/35 119/127/91 129/139/96 54/149/36 
f 93/95/1 121/129/1 37/130/1 3/96/1 
f 97/103/74 100/106/77 122/131/92 98/104/75 
f 97/103/74 96/102/73 123/132/1 101/107/1 
f 101/107/1 123/132/1 121/129/1 93/95/1 
f 98/104/75 122/131/92 130/140/94 133/145/99 
f 135/150/100 136/151/101 137/152/102 138/153/103 
f 136/151/101 139/154/104 140/155/105 137/152/102 
f 139/154/104 141/156/106 142/157/107 140/155/105 
f 141/156/106 64/158/46 63/159/45 142/157/107 
f 143/160/108 144/161/109 145/162/110 146/163/111 
f 144/161/109 147/164/112 148/165/113 145/162/110 
f 147/164/112 135/150/100 138/153/103 148/165/113 
f 149/166/114 150/167/115 72/168/1 
f 150/167/115 151/169/116 72/168/1 
f 151/169/116 152/170/117 72/168/1 
f 152/170/117 153/171/118 72/168/1 
f 153/171/118 77/172/58 72/168/1 
f 154/173/119 155/174/120 72/168/1 
f 155/174/120 149/166/114 72/168/1 
f 138/153/103 137/152/102 156/175/121 157/176/122 
f 137/152/102 140/155/105 158/177/123 156/175/121 
f 140/155/105 142/157/107 159/178/124 158/177/123 
f 142/157/107 63/159/45 84/179/58 159/178/124 
f 146/163/111 145/162/110 160/180/125 161/181/126 
f 145/162/110 148/165/113 162/182/127 160/180/125 
f 148/165/113 138/153/103 157/176/122 162/182/127 
f 157/176/122 156/175/121 151/169/116 150/167/115 
f 156/175/121 158/177/123 152/170/117 151/169/116 
f 158/177/123 159/178/124 153/171/118 152/170/117 
f 159/178/124 84/179/58 77/172/58 153/171/118 
f 161/181/126 160/180/125 155/174/120 154/173/119 
f 160/180/125 162/182/127 149/166/114 155/174/120 
f 162/182/127 157/176/122 150/167/115 149/166/114 
f 88/183/68 143/160/108 146/163/111 89/184/69 
f 90/185/70 154/173/119 72/168/1 
f 89/184/69 146/163/111 161/181/126 91/186/70 
f 91/186/70 161/181/126 154/173/119 90/185/70 
# 132 polygons - 16 triangles

