# 3ds Max Wavefront OBJ Exporter v0.97b - (c)2007 guruware
# File Created: 07.12.2019 15:44:52

#
# object deco_ramp_long
#

v  -2.2789 2.0577 -1.1321
v  -0.0000 0.0000 -1.1321
v  -0.0000 0.0000 -2.6321
v  -2.2789 2.0577 -2.6321
v  -2.2789 2.0577 0.0000
v  -0.0000 0.0000 0.0000
v  -2.2789 0.0000 0.0000
v  -3.4666 1.2850 0.0000
v  -4.5579 2.0577 -1.1321
v  -4.5579 2.0577 0.0000
v  -4.5579 2.0577 -2.6321
v  -4.5579 1.2850 0.0000
v  -4.5579 1.2850 -1.1321
v  -4.5579 1.2850 -2.6321
v  -3.4666 1.2850 -2.6321
v  -3.4666 1.2850 -1.1321
v  -2.2789 0.0000 -2.6321
v  -2.2789 0.0000 -1.1321
v  -6.8369 2.0577 -1.1321
v  -6.8369 2.0577 0.0000
v  -6.8369 2.0577 -2.6321
v  -6.8369 1.4628 0.0000
v  -6.6590 1.2850 0.0000
v  -6.6590 1.2850 -1.1321
v  -6.6590 1.2850 -2.6321
v  -6.8369 1.4628 -1.1321
v  -6.8369 1.4628 -2.6321
v  -2.2789 2.0577 -4.1321
v  -0.0000 0.0000 -4.1321
v  -2.2789 2.0577 -5.2642
v  -0.0000 0.0000 -5.2642
v  -2.2789 0.0000 -5.2642
v  -3.4666 1.2850 -5.2642
v  -4.5579 2.0577 -5.2642
v  -4.5579 2.0577 -4.1321
v  -4.5579 1.2850 -5.2642
v  -4.5579 1.2850 -4.1321
v  -3.4666 1.2850 -4.1321
v  -2.2789 0.0000 -4.1321
v  -6.8369 2.0577 -5.2642
v  -6.8369 2.0577 -4.1321
v  -6.6590 1.2850 -5.2642
v  -6.8369 1.4628 -5.2642
v  -6.6590 1.2850 -4.1321
v  -6.8369 1.4628 -4.1321
# 45 vertices

vn 0.3590 0.9333 -0.0000
vn 0.6702 0.7422 -0.0000
vn 0.2775 0.7214 0.6345
vn 0.6071 0.6723 0.4235
vn -0.4121 -0.3809 0.8277
vn -0.2354 -0.5381 0.8094
vn 0.0000 1.0000 -0.0000
vn 0.0000 0.7071 0.7071
vn 0.0000 -0.7071 0.7071
vn 0.0000 -1.0000 -0.0000
vn -0.4008 -0.9162 -0.0000
vn -0.7344 -0.6788 -0.0000
vn -0.7071 0.7071 -0.0000
vn -0.5774 0.5774 0.5774
vn -0.7172 -0.2972 0.6303
vn -0.2970 -0.7173 0.6303
vn -0.3825 -0.9240 -0.0000
vn -0.9238 -0.3828 -0.0000
vn 0.2775 0.7214 -0.6345
vn 0.6071 0.6723 -0.4235
vn -0.4121 -0.3809 -0.8277
vn -0.2354 -0.5381 -0.8094
vn 0.0000 0.7071 -0.7071
vn 0.0000 -0.7071 -0.7071
vn -0.5774 0.5774 -0.5774
vn -0.2970 -0.7173 -0.6303
vn -0.7172 -0.2972 -0.6303
# 27 vertex normals

vt 0.8650 0.5406 0.0000
vt 0.7868 0.5406 0.0000
vt 0.7868 0.5014 0.0000
vt 0.8646 0.5014 0.0000
vt 0.8662 0.5705 0.0000
vt 0.7868 0.5705 0.0000
vt 0.8436 0.5958 0.0000
vt 0.8903 0.5958 0.0000
vt 0.9216 0.5406 0.0000
vt 0.9216 0.5705 0.0000
vt 0.9216 0.5014 0.0000
vt 0.9216 0.5958 0.0000
vt 0.9216 0.6251 0.0000
vt 0.9216 0.6640 0.0000
vt 0.8903 0.6640 0.0000
vt 0.8903 0.6251 0.0000
vt 0.8436 0.6640 0.0000
vt 0.8436 0.6251 0.0000
vt 0.9815 0.5406 0.0000
vt 0.9817 0.5705 0.0000
vt 0.9815 0.5014 0.0000
vt 0.9817 0.5958 0.0000
vt 0.9747 0.5958 0.0000
vt 0.9755 0.6251 0.0000
vt 0.9756 0.6640 0.0000
vt 0.9971 0.5406 0.0000
vt 0.9971 0.5705 0.0000
vt 0.9971 0.5014 0.0000
vt 0.9817 0.6251 0.0000
vt 0.9817 0.6640 0.0000
vt 1.8650 0.5406 0.0000
vt 1.8646 0.5014 0.0000
vt 1.7868 0.5014 0.0000
vt 1.7868 0.5406 0.0000
vt 1.8662 0.5705 0.0000
vt 1.7868 0.5705 0.0000
vt 1.8436 0.5958 0.0000
vt 1.8903 0.5958 0.0000
vt 1.9216 0.5705 0.0000
vt 1.9216 0.5406 0.0000
vt 1.9216 0.5014 0.0000
vt 1.9216 0.5958 0.0000
vt 1.9216 0.6251 0.0000
vt 1.8903 0.6251 0.0000
vt 1.8903 0.6640 0.0000
vt 1.9216 0.6640 0.0000
vt 1.8436 0.6251 0.0000
vt 1.8436 0.6640 0.0000
vt 1.9817 0.5705 0.0000
vt 1.9815 0.5406 0.0000
vt 1.9815 0.5014 0.0000
vt 1.9747 0.5958 0.0000
vt 1.9817 0.5958 0.0000
vt 1.9756 0.6640 0.0000
vt 1.9755 0.6251 0.0000
vt 1.9971 0.5406 0.0000
vt 1.9971 0.5705 0.0000
vt 1.9971 0.5014 0.0000
vt 1.9817 0.6640 0.0000
vt 1.9817 0.6251 0.0000
# 60 texture coords

o deco_ramp_long
g deco_ramp_long
f 1/1/1 2/2/2 3/3/2 4/4/1 
f 5/5/3 6/6/4 2/2/2 1/1/1 
f 7/7/5 6/6/4 5/5/3 8/8/6 
f 5/5/3 1/1/1 9/9/7 10/10/8 
f 1/1/1 4/4/1 11/11/7 9/9/7 
f 8/8/6 5/5/3 10/10/8 12/12/9 
f 13/13/10 14/14/10 15/15/11 16/16/11 
f 12/12/9 13/13/10 16/16/11 8/8/6 
f 16/16/11 15/15/11 17/17/12 18/18/12 
f 8/8/6 16/16/11 18/18/12 7/7/5 
f 10/10/8 9/9/7 19/19/13 20/20/14 
f 9/9/7 11/11/7 21/21/13 19/19/13 
f 12/12/9 10/10/8 22/22/15 23/23/16 
f 14/14/10 13/13/10 24/24/17 25/25/17 
f 13/13/10 12/12/9 23/23/16 24/24/17 
f 26/26/18 22/27/15 20/20/14 19/19/13 
f 27/28/18 26/26/18 19/19/13 21/21/13 
f 24/24/17 26/29/18 27/30/18 25/25/17 
f 23/23/16 22/22/15 26/29/18 24/24/17 
f 10/10/8 20/20/14 22/22/15 
f 28/31/1 4/32/1 3/33/2 29/34/2 
f 30/35/19 28/31/1 29/34/2 31/36/20 
f 32/37/21 33/38/22 30/35/19 31/36/20 
f 30/35/19 34/39/23 35/40/7 28/31/1 
f 28/31/1 35/40/7 11/41/7 4/32/1 
f 33/38/22 36/42/24 34/39/23 30/35/19 
f 37/43/10 38/44/11 15/45/11 14/46/10 
f 36/42/24 33/38/22 38/44/11 37/43/10 
f 38/44/11 39/47/12 17/48/12 15/45/11 
f 33/38/22 32/37/21 39/47/12 38/44/11 
f 34/39/23 40/49/25 41/50/13 35/40/7 
f 35/40/7 41/50/13 21/51/13 11/41/7 
f 36/42/24 42/52/26 43/53/27 34/39/23 
f 14/46/10 25/54/17 44/55/17 37/43/10 
f 37/43/10 44/55/17 42/52/26 36/42/24 
f 45/56/18 41/50/13 40/49/25 43/57/27 
f 27/58/18 21/51/13 41/50/13 45/56/18 
f 44/55/17 25/54/17 27/59/18 45/60/18 
f 42/52/26 44/55/17 45/60/18 43/53/27 
f 34/39/23 43/53/27 40/49/25 
# 38 polygons - 2 triangles

