# 3ds Max Wavefront OBJ Exporter v0.97b - (c)2007 guruware
# File Created: 07.12.2019 15:44:55

#
# object deco_bomb
#

v  0.0000 0.4390 0.0000
v  0.0000 0.3945 -0.1730
v  -0.1017 0.3945 -0.1399
v  -0.1646 0.3945 -0.0534
v  -0.1646 0.3945 0.0534
v  -0.1017 0.3945 0.1401
v  0.0000 0.3945 0.1730
v  0.1017 0.3945 0.1401
v  0.1646 0.3945 0.0534
v  0.1646 0.3945 -0.0534
v  0.1017 0.3945 -0.1399
v  0.0000 0.4007 -0.2911
v  0.0000 0.1531 -0.4711
v  -0.2769 0.1531 -0.3811
v  -0.1711 0.4007 -0.2355
v  -0.4480 0.1531 -0.1455
v  -0.2769 0.4007 -0.0900
v  -0.4480 0.1531 0.1455
v  -0.2769 0.4007 0.0900
v  -0.2769 0.1531 0.3811
v  -0.1711 0.4007 0.2355
v  0.0000 0.1531 0.4711
v  0.0000 0.4007 0.2911
v  0.2769 0.1531 0.3811
v  0.1711 0.4007 0.2355
v  0.4480 0.1531 0.1455
v  0.2769 0.4007 0.0900
v  0.4480 0.1531 -0.1455
v  0.2769 0.4007 -0.0900
v  0.2769 0.1531 -0.3811
v  0.1711 0.4007 -0.2355
v  0.0000 0.0506 -0.4335
v  0.0000 0.0000 -0.4335
v  -0.2548 0.0000 -0.3507
v  -0.2548 0.0506 -0.3507
v  -0.4122 0.0000 -0.1339
v  -0.4122 0.0506 -0.1339
v  -0.4122 0.0000 0.1339
v  -0.4122 0.0506 0.1339
v  -0.2548 0.0000 0.3507
v  -0.2548 0.0506 0.3507
v  0.0000 0.0000 0.4335
v  0.0000 0.0506 0.4335
v  0.2547 0.0000 0.3507
v  0.2547 0.0506 0.3507
v  0.4122 0.0000 0.1339
v  0.4122 0.0506 0.1339
v  0.4122 0.0000 -0.1339
v  0.4122 0.0506 -0.1339
v  0.2547 0.0000 -0.3507
v  0.2547 0.0506 -0.3507
v  -0.1435 0.3457 -0.1975
v  0.0000 0.3457 -0.2442
v  -0.2322 0.3457 -0.0755
v  -0.2322 0.3457 0.0755
v  -0.1435 0.3457 0.1975
v  0.0000 0.3457 0.2442
v  0.1435 0.3457 0.1975
v  0.2322 0.3457 0.0755
v  0.2322 0.3457 -0.0755
v  0.1435 0.3457 -0.1975
v  -0.2769 0.0744 -0.3811
v  0.0000 0.0744 -0.4711
v  -0.4480 0.0744 -0.1455
v  -0.4480 0.0744 0.1455
v  -0.2769 0.0744 0.3811
v  0.0000 0.0744 0.4711
v  0.2769 0.0744 0.3811
v  0.4480 0.0744 0.1455
v  0.4480 0.0744 -0.1455
v  0.2769 0.0744 -0.3811
v  0.0000 -0.4390 0.0000
v  -0.1017 -0.3945 -0.1399
v  0.0000 -0.3945 -0.1730
v  -0.1646 -0.3945 -0.0534
v  -0.1646 -0.3945 0.0534
v  -0.1017 -0.3945 0.1401
v  0.0000 -0.3945 0.1730
v  0.1017 -0.3945 0.1401
v  0.1646 -0.3945 0.0534
v  0.1646 -0.3945 -0.0534
v  0.1017 -0.3945 -0.1399
v  0.0000 -0.4007 -0.2911
v  -0.1711 -0.4007 -0.2355
v  -0.2769 -0.1531 -0.3811
v  0.0000 -0.1531 -0.4711
v  -0.2769 -0.4007 -0.0900
v  -0.4480 -0.1531 -0.1455
v  -0.2769 -0.4007 0.0900
v  -0.4480 -0.1531 0.1455
v  -0.1711 -0.4007 0.2355
v  -0.2769 -0.1531 0.3811
v  0.0000 -0.4007 0.2911
v  0.0000 -0.1531 0.4711
v  0.1711 -0.4007 0.2355
v  0.2769 -0.1531 0.3811
v  0.2769 -0.4007 0.0900
v  0.4480 -0.1531 0.1455
v  0.2769 -0.4007 -0.0900
v  0.4480 -0.1531 -0.1455
v  0.1711 -0.4007 -0.2355
v  0.2769 -0.1531 -0.3811
v  0.0000 -0.0506 -0.4335
v  -0.2548 -0.0506 -0.3507
v  -0.4122 -0.0506 -0.1339
v  -0.4122 -0.0506 0.1339
v  -0.2548 -0.0506 0.3507
v  0.0000 -0.0506 0.4335
v  0.2547 -0.0506 0.3507
v  0.4122 -0.0506 0.1339
v  0.4122 -0.0506 -0.1339
v  0.2547 -0.0506 -0.3507
v  0.0000 -0.3457 -0.2442
v  -0.1435 -0.3457 -0.1975
v  -0.2322 -0.3457 -0.0755
v  -0.2322 -0.3457 0.0755
v  -0.1435 -0.3457 0.1975
v  0.0000 -0.3457 0.2442
v  0.1435 -0.3457 0.1975
v  0.2322 -0.3457 0.0755
v  0.2322 -0.3457 -0.0755
v  0.1435 -0.3457 -0.1975
v  -0.2769 -0.0744 -0.3811
v  0.0000 -0.0744 -0.4711
v  -0.4480 -0.0744 -0.1455
v  -0.4480 -0.0744 0.1455
v  -0.2769 -0.0744 0.3811
v  0.0000 -0.0744 0.4711
v  0.2769 -0.0744 0.3811
v  0.4480 -0.0744 0.1455
v  0.4480 -0.0744 -0.1455
v  0.2769 -0.0744 -0.3811
# 132 vertices

vn -0.0000 1.0000 0.0000
vn 0.0000 0.8971 -0.4417
vn -0.2595 0.8973 -0.3571
vn -0.4201 0.8971 -0.1366
vn -0.4202 0.8971 0.1364
vn -0.2596 0.8971 0.3575
vn 0.0000 0.8972 0.4417
vn 0.2596 0.8971 0.3575
vn 0.4201 0.8971 0.1364
vn 0.4201 0.8971 -0.1366
vn 0.2595 0.8973 -0.3571
vn -0.0000 0.9816 -0.1909
vn -0.0000 0.2925 -0.9563
vn -0.5621 0.2925 -0.7736
vn -0.1121 0.9816 -0.1543
vn -0.9095 0.2925 -0.2955
vn -0.1816 0.9816 -0.0590
vn -0.9095 0.2925 0.2954
vn -0.1816 0.9816 0.0590
vn -0.5621 0.2926 0.7736
vn -0.1121 0.9817 0.1542
vn -0.0000 0.2925 0.9563
vn -0.0000 0.9816 0.1909
vn 0.5621 0.2926 0.7736
vn 0.1121 0.9817 0.1542
vn 0.9095 0.2925 0.2954
vn 0.1816 0.9816 0.0590
vn 0.9095 0.2925 -0.2955
vn 0.1816 0.9816 -0.0590
vn 0.5621 0.2925 -0.7736
vn 0.1121 0.9816 -0.1544
vn 0.0001 -0.5274 -0.8496
vn 0.0001 0.0000 -1.0000
vn -0.5879 0.0000 -0.8090
vn -0.4995 -0.5273 -0.6874
vn -0.9511 0.0000 -0.3090
vn -0.8079 -0.5276 -0.2625
vn -0.9511 0.0000 0.3090
vn -0.8079 -0.5276 0.2625
vn -0.5879 0.0000 0.8090
vn -0.4994 -0.5278 0.6871
vn 0.0001 0.0000 1.0000
vn 0.0001 -0.5274 0.8496
vn 0.5877 0.0000 0.8090
vn 0.4990 -0.5281 0.6870
vn 0.9510 0.0000 0.3091
vn 0.8079 -0.5276 0.2626
vn 0.9510 0.0000 -0.3091
vn 0.8079 -0.5276 -0.2626
vn 0.5877 0.0000 -0.8090
vn 0.4991 -0.5277 -0.6873
vn 0.1506 0.9666 0.2073
vn 0.0000 0.9667 0.2557
vn 0.2433 0.9667 0.0791
vn 0.2433 0.9667 -0.0791
vn 0.1505 0.9667 -0.2071
vn 0.0000 0.9667 -0.2557
vn -0.1505 0.9667 -0.2071
vn -0.2433 0.9667 -0.0791
vn -0.2433 0.9667 0.0791
vn -0.1506 0.9666 0.2073
vn -0.5261 -0.4460 -0.7241
vn -0.0000 -0.4461 -0.8950
vn -0.8511 -0.4462 -0.2765
vn -0.8512 -0.4462 0.2764
vn -0.5259 -0.4463 0.7240
vn -0.0000 -0.4461 0.8950
vn 0.5259 -0.4466 0.7238
vn 0.8512 -0.4462 0.2764
vn 0.8511 -0.4462 -0.2765
vn 0.5261 -0.4463 -0.7239
vn -0.0000 -1.0000 0.0000
vn -0.2595 -0.8973 -0.3571
vn 0.0000 -0.8971 -0.4417
vn -0.4201 -0.8971 -0.1366
vn -0.4202 -0.8971 0.1364
vn -0.2596 -0.8971 0.3575
vn 0.0000 -0.8972 0.4417
vn 0.2596 -0.8971 0.3575
vn 0.4201 -0.8971 0.1364
vn 0.4201 -0.8971 -0.1366
vn 0.2595 -0.8973 -0.3571
vn -0.0000 -0.9816 -0.1909
vn -0.1121 -0.9816 -0.1543
vn -0.5621 -0.2925 -0.7736
vn -0.0000 -0.2925 -0.9563
vn -0.1816 -0.9816 -0.0590
vn -0.9095 -0.2925 -0.2955
vn -0.1816 -0.9816 0.0590
vn -0.9095 -0.2925 0.2954
vn -0.1121 -0.9817 0.1542
vn -0.5621 -0.2926 0.7736
vn -0.0000 -0.9816 0.1909
vn -0.0000 -0.2925 0.9563
vn 0.1121 -0.9817 0.1542
vn 0.5621 -0.2926 0.7736
vn 0.1816 -0.9816 0.0590
vn 0.9095 -0.2925 0.2954
vn 0.1816 -0.9816 -0.0590
vn 0.9095 -0.2925 -0.2955
vn 0.1121 -0.9816 -0.1544
vn 0.5621 -0.2925 -0.7736
vn 0.0001 0.5274 -0.8496
vn -0.4995 0.5273 -0.6874
vn -0.8079 0.5276 -0.2625
vn -0.8079 0.5276 0.2625
vn -0.4994 0.5278 0.6871
vn 0.0001 0.5274 0.8496
vn 0.4990 0.5281 0.6870
vn 0.8079 0.5276 0.2626
vn 0.8079 0.5276 -0.2626
vn 0.4991 0.5277 -0.6873
vn 0.0000 -0.9667 0.2557
vn 0.1506 -0.9666 0.2073
vn 0.2433 -0.9667 0.0791
vn 0.2433 -0.9667 -0.0791
vn 0.1505 -0.9667 -0.2071
vn 0.0000 -0.9667 -0.2557
vn -0.1505 -0.9667 -0.2071
vn -0.2433 -0.9667 -0.0791
vn -0.2433 -0.9667 0.0791
vn -0.1506 -0.9666 0.2073
vn -0.5261 0.4460 -0.7241
vn -0.0000 0.4461 -0.8950
vn -0.8511 0.4462 -0.2765
vn -0.8512 0.4462 0.2764
vn -0.5259 0.4463 0.7240
vn -0.0000 0.4461 0.8950
vn 0.5259 0.4466 0.7238
vn 0.8512 0.4462 0.2764
vn 0.8511 0.4462 -0.2765
vn 0.5261 0.4463 -0.7239
# 132 vertex normals

vt 1.4647 0.3878 0.0000
vt 1.4647 0.3825 0.0000
vt 1.4678 0.3835 0.0000
vt 1.4698 0.3862 0.0000
vt 1.4698 0.3895 0.0000
vt 1.4678 0.3922 0.0000
vt 1.4647 0.3932 0.0000
vt 1.4615 0.3922 0.0000
vt 1.4596 0.3895 0.0000
vt 1.4596 0.3862 0.0000
vt 1.4615 0.3835 0.0000
vt 1.4647 0.3782 0.0000
vt 1.4647 0.3705 0.0000
vt 1.4749 0.3738 0.0000
vt 1.4703 0.3801 0.0000
vt 1.4812 0.3825 0.0000
vt 1.4738 0.3849 0.0000
vt 1.4812 0.3932 0.0000
vt 1.4738 0.3908 0.0000
vt 1.4749 0.4019 0.0000
vt 1.4703 0.3956 0.0000
vt 1.4647 0.4052 0.0000
vt 1.4647 0.3974 0.0000
vt 1.4545 0.4019 0.0000
vt 1.4590 0.3956 0.0000
vt 1.4482 0.3932 0.0000
vt 1.4556 0.3908 0.0000
vt 1.4482 0.3825 0.0000
vt 1.4556 0.3849 0.0000
vt 1.4545 0.3738 0.0000
vt 1.4591 0.3801 0.0000
vt 1.4647 0.3682 0.0000
vt 1.4647 0.3669 0.0000
vt 1.4770 0.3709 0.0000
vt 1.4763 0.3719 0.0000
vt 1.4846 0.3814 0.0000
vt 1.4834 0.3818 0.0000
vt 1.4846 0.3943 0.0000
vt 1.4834 0.3939 0.0000
vt 1.4770 0.4048 0.0000
vt 1.4762 0.4038 0.0000
vt 1.4647 0.4087 0.0000
vt 1.4647 0.4075 0.0000
vt 1.4524 0.4047 0.0000
vt 1.4531 0.4037 0.0000
vt 1.4448 0.3943 0.0000
vt 1.4460 0.3939 0.0000
vt 1.4448 0.3814 0.0000
vt 1.4460 0.3818 0.0000
vt 1.4524 0.3709 0.0000
vt 1.4531 0.3719 0.0000
vt 1.4691 0.3817 0.0000
vt 1.4647 0.3803 0.0000
vt 1.4719 0.3855 0.0000
vt 1.4719 0.3902 0.0000
vt 1.4691 0.3940 0.0000
vt 1.4647 0.3954 0.0000
vt 1.4602 0.3940 0.0000
vt 1.4575 0.3902 0.0000
vt 1.4575 0.3855 0.0000
vt 1.4602 0.3817 0.0000
vt 1.4758 0.3725 0.0000
vt 1.4647 0.3689 0.0000
vt 1.4827 0.3820 0.0000
vt 1.4827 0.3937 0.0000
vt 1.4758 0.4032 0.0000
vt 1.4647 0.4068 0.0000
vt 1.4535 0.4032 0.0000
vt 1.4466 0.3937 0.0000
vt 1.4466 0.3820 0.0000
vt 1.4535 0.3725 0.0000
vt 0.4647 0.3878 0.0000
vt 0.4678 0.3835 0.0000
vt 0.4647 0.3825 0.0000
vt 0.4698 0.3862 0.0000
vt 0.4698 0.3895 0.0000
vt 0.4678 0.3922 0.0000
vt 0.4647 0.3932 0.0000
vt 0.4615 0.3922 0.0000
vt 0.4596 0.3895 0.0000
vt 0.4596 0.3862 0.0000
vt 0.4615 0.3835 0.0000
vt 0.4647 0.3782 0.0000
vt 0.4703 0.3801 0.0000
vt 0.4749 0.3738 0.0000
vt 0.4647 0.3705 0.0000
vt 0.4738 0.3849 0.0000
vt 0.4812 0.3825 0.0000
vt 0.4738 0.3908 0.0000
vt 0.4812 0.3932 0.0000
vt 0.4703 0.3956 0.0000
vt 0.4749 0.4019 0.0000
vt 0.4647 0.3974 0.0000
vt 0.4647 0.4052 0.0000
vt 0.4590 0.3956 0.0000
vt 0.4545 0.4019 0.0000
vt 0.4556 0.3908 0.0000
vt 0.4482 0.3932 0.0000
vt 0.4556 0.3849 0.0000
vt 0.4482 0.3825 0.0000
vt 0.4591 0.3801 0.0000
vt 0.4545 0.3738 0.0000
vt 0.4647 0.3682 0.0000
vt 0.4763 0.3719 0.0000
vt 0.4770 0.3709 0.0000
vt 0.4647 0.3669 0.0000
vt 0.4834 0.3818 0.0000
vt 0.4846 0.3814 0.0000
vt 0.4834 0.3939 0.0000
vt 0.4846 0.3943 0.0000
vt 0.4762 0.4038 0.0000
vt 0.4770 0.4048 0.0000
vt 0.4647 0.4075 0.0000
vt 0.4647 0.4087 0.0000
vt 0.4531 0.4037 0.0000
vt 0.4524 0.4047 0.0000
vt 0.4460 0.3939 0.0000
vt 0.4448 0.3943 0.0000
vt 0.4460 0.3818 0.0000
vt 0.4448 0.3814 0.0000
vt 0.4531 0.3719 0.0000
vt 0.4524 0.3709 0.0000
vt 0.4647 0.3803 0.0000
vt 0.4691 0.3817 0.0000
vt 0.4719 0.3855 0.0000
vt 0.4719 0.3902 0.0000
vt 0.4691 0.3940 0.0000
vt 0.4647 0.3954 0.0000
vt 0.4602 0.3940 0.0000
vt 0.4575 0.3902 0.0000
vt 0.4575 0.3855 0.0000
vt 0.4602 0.3817 0.0000
vt 0.4758 0.3725 0.0000
vt 0.4647 0.3689 0.0000
vt 0.4827 0.3820 0.0000
vt 0.4827 0.3937 0.0000
vt 0.4758 0.4032 0.0000
vt 0.4647 0.4068 0.0000
vt 0.4535 0.4032 0.0000
vt 0.4466 0.3937 0.0000
vt 0.4466 0.3820 0.0000
vt 0.4535 0.3725 0.0000
# 142 texture coords

o deco_bomb
g deco_bomb
f 1/1/1 2/2/2 3/3/3 
f 1/1/1 3/3/3 4/4/4 
f 1/1/1 4/4/4 5/5/5 
f 1/1/1 5/5/5 6/6/6 
f 1/1/1 6/6/6 7/7/7 
f 1/1/1 7/7/7 8/8/8 
f 1/1/1 8/8/8 9/9/9 
f 1/1/1 9/9/9 10/10/10 
f 1/1/1 10/10/10 11/11/11 
f 1/1/1 11/11/11 2/2/2 
f 12/12/12 13/13/13 14/14/14 15/15/15 
f 15/15/15 14/14/14 16/16/16 17/17/17 
f 17/17/17 16/16/16 18/18/18 19/19/19 
f 19/19/19 18/18/18 20/20/20 21/21/21 
f 21/21/21 20/20/20 22/22/22 23/23/23 
f 23/23/23 22/22/22 24/24/24 25/25/25 
f 25/25/25 24/24/24 26/26/26 27/27/27 
f 27/27/27 26/26/26 28/28/28 29/29/29 
f 29/29/29 28/28/28 30/30/30 31/31/31 
f 31/31/31 30/30/30 13/13/13 12/12/12 
f 32/32/32 33/33/33 34/34/34 35/35/35 
f 35/35/35 34/34/34 36/36/36 37/37/37 
f 37/37/37 36/36/36 38/38/38 39/39/39 
f 39/39/39 38/38/38 40/40/40 41/41/41 
f 41/41/41 40/40/40 42/42/42 43/43/43 
f 43/43/43 42/42/42 44/44/44 45/45/45 
f 45/45/45 44/44/44 46/46/46 47/47/47 
f 47/47/47 46/46/46 48/48/48 49/49/49 
f 49/49/49 48/48/48 50/50/50 51/51/51 
f 51/51/51 50/50/50 33/33/33 32/32/32 
f 12/12/12 15/15/15 52/52/52 53/53/53 
f 15/15/15 17/17/17 54/54/54 52/52/52 
f 17/17/17 19/19/19 55/55/55 54/54/54 
f 19/19/19 21/21/21 56/56/56 55/55/55 
f 21/21/21 23/23/23 57/57/57 56/56/56 
f 23/23/23 25/25/25 58/58/58 57/57/57 
f 25/25/25 27/27/27 59/59/59 58/58/58 
f 27/27/27 29/29/29 60/60/60 59/59/59 
f 29/29/29 31/31/31 61/61/61 60/60/60 
f 31/31/31 12/12/12 53/53/53 61/61/61 
f 53/53/53 52/52/52 3/3/3 2/2/2 
f 52/52/52 54/54/54 4/4/4 3/3/3 
f 54/54/54 55/55/55 5/5/5 4/4/4 
f 55/55/55 56/56/56 6/6/6 5/5/5 
f 56/56/56 57/57/57 7/7/7 6/6/6 
f 57/57/57 58/58/58 8/8/8 7/7/7 
f 58/58/58 59/59/59 9/9/9 8/8/8 
f 59/59/59 60/60/60 10/10/10 9/9/9 
f 60/60/60 61/61/61 11/11/11 10/10/10 
f 61/61/61 53/53/53 2/2/2 11/11/11 
f 62/62/62 14/14/14 13/13/13 63/63/63 
f 64/64/64 16/16/16 14/14/14 62/62/62 
f 65/65/65 18/18/18 16/16/16 64/64/64 
f 66/66/66 20/20/20 18/18/18 65/65/65 
f 67/67/67 22/22/22 20/20/20 66/66/66 
f 68/68/68 24/24/24 22/22/22 67/67/67 
f 69/69/69 26/26/26 24/24/24 68/68/68 
f 70/70/70 28/28/28 26/26/26 69/69/69 
f 71/71/71 30/30/30 28/28/28 70/70/70 
f 63/63/63 13/13/13 30/30/30 71/71/71 
f 62/62/62 63/63/63 32/32/32 35/35/35 
f 63/63/63 71/71/71 51/51/51 32/32/32 
f 71/71/71 70/70/70 49/49/49 51/51/51 
f 70/70/70 69/69/69 47/47/47 49/49/49 
f 69/69/69 68/68/68 45/45/45 47/47/47 
f 68/68/68 67/67/67 43/43/43 45/45/45 
f 67/67/67 66/66/66 41/41/41 43/43/43 
f 66/66/66 65/65/65 39/39/39 41/41/41 
f 65/65/65 64/64/64 37/37/37 39/39/39 
f 64/64/64 62/62/62 35/35/35 37/37/37 
f 72/72/72 73/73/73 74/74/74 
f 72/72/72 75/75/75 73/73/73 
f 72/72/72 76/76/76 75/75/75 
f 72/72/72 77/77/77 76/76/76 
f 72/72/72 78/78/78 77/77/77 
f 72/72/72 79/79/79 78/78/78 
f 72/72/72 80/80/80 79/79/79 
f 72/72/72 81/81/81 80/80/80 
f 72/72/72 82/82/82 81/81/81 
f 72/72/72 74/74/74 82/82/82 
f 83/83/83 84/84/84 85/85/85 86/86/86 
f 84/84/84 87/87/87 88/88/88 85/85/85 
f 87/87/87 89/89/89 90/90/90 88/88/88 
f 89/89/89 91/91/91 92/92/92 90/90/90 
f 91/91/91 93/93/93 94/94/94 92/92/92 
f 93/93/93 95/95/95 96/96/96 94/94/94 
f 95/95/95 97/97/97 98/98/98 96/96/96 
f 97/97/97 99/99/99 100/100/100 98/98/98 
f 99/99/99 101/101/101 102/102/102 100/100/100 
f 101/101/101 83/83/83 86/86/86 102/102/102 
f 103/103/103 104/104/104 34/105/34 33/106/33 
f 104/104/104 105/107/105 36/108/36 34/105/34 
f 105/107/105 106/109/106 38/110/38 36/108/36 
f 106/109/106 107/111/107 40/112/40 38/110/38 
f 107/111/107 108/113/108 42/114/42 40/112/40 
f 108/113/108 109/115/109 44/116/44 42/114/42 
f 109/115/109 110/117/110 46/118/46 44/116/44 
f 110/117/110 111/119/111 48/120/48 46/118/46 
f 111/119/111 112/121/112 50/122/50 48/120/48 
f 112/121/112 103/103/103 33/106/33 50/122/50 
f 83/83/83 113/123/113 114/124/114 84/84/84 
f 84/84/84 114/124/114 115/125/115 87/87/87 
f 87/87/87 115/125/115 116/126/116 89/89/89 
f 89/89/89 116/126/116 117/127/117 91/91/91 
f 91/91/91 117/127/117 118/128/118 93/93/93 
f 93/93/93 118/128/118 119/129/119 95/95/95 
f 95/95/95 119/129/119 120/130/120 97/97/97 
f 97/97/97 120/130/120 121/131/121 99/99/99 
f 99/99/99 121/131/121 122/132/122 101/101/101 
f 101/101/101 122/132/122 113/123/113 83/83/83 
f 113/123/113 74/74/74 73/73/73 114/124/114 
f 114/124/114 73/73/73 75/75/75 115/125/115 
f 115/125/115 75/75/75 76/76/76 116/126/116 
f 116/126/116 76/76/76 77/77/77 117/127/117 
f 117/127/117 77/77/77 78/78/78 118/128/118 
f 118/128/118 78/78/78 79/79/79 119/129/119 
f 119/129/119 79/79/79 80/80/80 120/130/120 
f 120/130/120 80/80/80 81/81/81 121/131/121 
f 121/131/121 81/81/81 82/82/82 122/132/122 
f 122/132/122 82/82/82 74/74/74 113/123/113 
f 123/133/123 124/134/124 86/86/86 85/85/85 
f 125/135/125 123/133/123 85/85/85 88/88/88 
f 126/136/126 125/135/125 88/88/88 90/90/90 
f 127/137/127 126/136/126 90/90/90 92/92/92 
f 128/138/128 127/137/127 92/92/92 94/94/94 
f 129/139/129 128/138/128 94/94/94 96/96/96 
f 130/140/130 129/139/129 96/96/96 98/98/98 
f 131/141/131 130/140/130 98/98/98 100/100/100 
f 132/142/132 131/141/131 100/100/100 102/102/102 
f 124/134/124 132/142/132 102/102/102 86/86/86 
f 123/133/123 104/104/104 103/103/103 124/134/124 
f 124/134/124 103/103/103 112/121/112 132/142/132 
f 132/142/132 112/121/112 111/119/111 131/141/131 
f 131/141/131 111/119/111 110/117/110 130/140/130 
f 130/140/130 110/117/110 109/115/109 129/139/129 
f 129/139/129 109/115/109 108/113/108 128/138/128 
f 128/138/128 108/113/108 107/111/107 127/137/127 
f 127/137/127 107/111/107 106/109/106 126/136/126 
f 126/136/126 106/109/106 105/107/105 125/135/125 
f 125/135/125 105/107/105 104/104/104 123/133/123 
# 120 polygons - 20 triangles

