# 3ds Max Wavefront OBJ Exporter v0.97b - (c)2007 guruware
# File Created: 07.12.2019 15:44:51

#
# object deco_server
#

v  2.2790 3.0000 -1.3142
v  2.2790 3.0000 -2.6285
v  0.0000 3.0000 -2.6285
v  0.0000 3.0000 -1.3142
v  0.0000 0.0000 -0.0000
v  2.2790 0.0000 -0.0000
v  2.2790 3.0000 -0.0000
v  0.0000 3.0000 -0.0000
v  2.2790 0.0000 -1.3142
v  2.2790 0.0000 -2.6285
v  0.0000 0.0000 -1.3142
v  0.0000 0.0000 -2.6285
v  2.2790 3.0000 -3.9428
v  0.0000 3.0000 -3.9428
v  0.0000 0.0000 -5.2571
v  0.0000 3.0000 -5.2571
v  2.2790 3.0000 -5.2571
v  2.2790 0.0000 -5.2571
v  2.2790 0.0000 -3.9428
v  0.0000 0.0000 -3.9428
# 20 vertices

vn 0.7071 0.7071 -0.0000
vn -0.7071 0.7071 -0.0000
vn -0.7071 0.0000 0.7071
vn 0.7071 0.0000 0.7071
vn 0.5774 0.5774 0.5774
vn -0.5774 0.5774 0.5774
vn 1.0000 0.0000 -0.0000
vn -1.0000 0.0000 -0.0000
vn -0.7071 0.0000 -0.7071
vn -0.5774 0.5774 -0.5774
vn 0.5774 0.5774 -0.5774
vn 0.7071 0.0000 -0.7071
# 12 vertex normals

vt 0.8594 0.8842 0.0000
vt 0.8594 0.8499 0.0000
vt 0.9187 0.8499 0.0000
vt 0.9187 0.8842 0.0000
vt 0.9187 0.9964 0.0000
vt 0.8594 0.9965 0.0000
vt 0.8594 0.9184 0.0000
vt 0.9187 0.9184 0.0000
vt 0.7813 0.8842 0.0000
vt 0.7813 0.8499 0.0000
vt 0.7813 0.9184 0.0000
vt 0.9968 0.8841 0.0000
vt 0.9968 0.9184 0.0000
vt 0.9968 0.8499 0.0000
vt 0.8594 0.8157 0.0000
vt 0.9187 0.8157 0.0000
vt 0.9187 0.7034 0.0000
vt 0.9187 0.7815 0.0000
vt 0.8594 0.7815 0.0000
vt 0.8594 0.7034 0.0000
vt 0.7813 0.8157 0.0000
vt 0.7813 0.7815 0.0000
vt 0.9968 0.8157 0.0000
vt 0.9968 0.7815 0.0000
# 24 texture coords

o deco_server
g deco_server
f 1/1/1 2/2/1 3/3/2 4/4/2 
f 5/5/3 6/6/4 7/7/5 8/8/6 
f 9/9/7 10/10/7 2/2/1 1/1/1 
f 4/4/2 8/8/6 7/7/5 1/1/1 
f 1/1/1 7/7/5 6/11/4 9/9/7 
f 11/12/8 5/13/3 8/8/6 4/4/2 
f 12/14/8 11/12/8 4/4/2 3/3/2 
f 13/15/1 14/16/2 3/3/2 2/2/1 
f 15/17/9 16/18/10 17/19/11 18/20/12 
f 19/21/7 13/15/1 2/2/1 10/10/7 
f 14/16/2 13/15/1 17/19/11 16/18/10 
f 13/15/1 19/21/7 18/22/12 17/19/11 
f 20/23/8 14/16/2 16/18/10 15/24/9 
f 12/14/8 3/3/2 14/16/2 20/23/8 
# 14 polygons

